G04 ================== begin FILE IDENTIFICATION RECORD ==================*
G04 Layout Name:  C:/DUNE_GIB/UPENN-DUNE-GIB/allegro/gps_interface_board_ml_v101.brd*
G04 Film Name:    _02_Sold_Topv101*
G04 File Format:  Gerber RS274X*
G04 File Origin:  Cadence Allegro 24.1-P001*
G04 Origin Date:  Mon Sep  1 10:04:49 2025*
G04 *
G04 Layer:  PIN/SOLDERMASK_TOP*
G04 Layer:  PACKAGE GEOMETRY/SOLDERMASK_TOP*
G04 Layer:  BOARD GEOMETRY/SOLDERMASK_TOP*
G04 *
G04 Offset:    (0.00 0.00)*
G04 Mirror:    No*
G04 Mode:      Positive*
G04 Rotation:  0*
G04 FullContactRelief:  No*
G04 UndefLineWidth:     5.00*
G04 ================== end FILE IDENTIFICATION RECORD ====================*
%FSLAX55Y55*MOIN*%
%IR0*IPPOS*OFA0.00000B0.00000*MIA0B0*SFA1.00000B1.00000*%
%ADD49R,.103X.063*%
%ADD75R,.063X.103*%
%ADD98C,.06*%
%ADD100C,.07*%
%ADD74C,.0512*%
%ADD79C,.06103*%
%ADD13C,.02055*%
%ADD101R,.06X.06*%
%AMMACRO30*
4,1,22,-.006,.01004,
-.006,-.0061,
-.00594,-.006784,
-.005762,-.007448,
-.005472,-.00807,
-.005078,-.008633,
-.004593,-.009118,
-.00403,-.009512,
-.003408,-.009802,
-.002744,-.00998,
-.00206,-.01004,
.00206,-.01004,
.002744,-.00998,
.003408,-.009802,
.00403,-.009512,
.004593,-.009118,
.005078,-.008633,
.005472,-.00807,
.005762,-.007448,
.00594,-.006784,
.006,-.0061,
.006,.01004,
-.006,.01004,
0.0*
%
%ADD30MACRO30*%
%ADD99R,.07X.07*%
%AMMACRO39*
4,1,22,.01004,.006,
-.0061,.006,
-.006784,.00594,
-.007448,.005762,
-.00807,.005472,
-.008633,.005078,
-.009118,.004593,
-.009512,.00403,
-.009802,.003408,
-.00998,.002744,
-.01004,.00206,
-.01004,-.00206,
-.00998,-.002744,
-.009802,-.003408,
-.009512,-.00403,
-.009118,-.004593,
-.008633,-.005078,
-.00807,-.005472,
-.007448,-.005762,
-.006784,-.00594,
-.0061,-.006,
.01004,-.006,
.01004,.006,
0.0*
%
%ADD39MACRO39*%
%ADD33C,.05504*%
%ADD27R,.08X.08*%
%ADD77C,.0574*%
%ADD18C,.06181*%
%ADD85C,.05346*%
%ADD94C,.09921*%
%ADD40R,.05504X.05504*%
%ADD19R,.06181X.06181*%
%ADD46C,.09655*%
%ADD21C,.06496*%
%ADD96C,.05858*%
%ADD93C,.07559*%
%ADD97O,.05937X.11874*%
%ADD88R,.05709X.05709*%
%ADD57R,.00984X.03346*%
%ADD56R,.03346X.00984*%
%ADD20O,.11874X.05937*%
%ADD47R,.09655X.09655*%
%ADD25R,.00984X.02756*%
%ADD95R,.05858X.05858*%
%ADD78R,.07874X.07874*%
%ADD58R,.06299X.06299*%
%ADD15R,.02756X.00984*%
%ADD83R,.032X.01*%
%ADD82R,.01X.032*%
%ADD44R,.01X.028*%
%ADD43R,.028X.01*%
%ADD38R,.1X.15039*%
%ADD32R,.055X.03*%
%ADD92C,.13111*%
%ADD61R,.037X.014*%
%ADD54R,.027X.025*%
%ADD37R,.025X.027*%
%ADD45C,.12411*%
%ADD10C,.163*%
%ADD68R,.01181X.0315*%
%ADD63R,.063X.019*%
%ADD72O,.0315X.02165*%
%ADD67R,.0315X.01181*%
%ADD42R,.065X.065*%
%AMMACRO29*
4,1,22,-.01004,-.006,
.0061,-.006,
.006784,-.00594,
.007448,-.005762,
.00807,-.005472,
.008633,-.005078,
.009118,-.004593,
.009512,-.00403,
.009802,-.003408,
.00998,-.002744,
.01004,-.00206,
.01004,.00206,
.00998,.002744,
.009802,.003408,
.009512,.00403,
.009118,.004593,
.008633,.005078,
.00807,.005472,
.007448,.005762,
.006784,.00594,
.0061,.006,
-.01004,.006,
-.01004,-.006,
0.0*
%
%ADD29MACRO29*%
%AMMACRO28*
4,1,22,.006,-.01004,
.006,.0061,
.00594,.006784,
.005762,.007448,
.005472,.00807,
.005078,.008633,
.004593,.009118,
.00403,.009512,
.003408,.009802,
.002744,.00998,
.00206,.01004,
-.00206,.01004,
-.002744,.00998,
-.003408,.009802,
-.00403,.009512,
-.004593,.009118,
-.005078,.008633,
-.005472,.00807,
-.005762,.007448,
-.00594,.006784,
-.006,.0061,
-.006,-.01004,
.006,-.01004,
0.0*
%
%ADD28MACRO28*%
%ADD53R,.06102X.02362*%
%ADD51R,.065X.065*%
%ADD73R,.0315X.02165*%
%ADD48R,.05512X.04331*%
%AMMACRO84*
21,1,.04134,.04252,0.0,0.0,45.*%
%ADD84MACRO84*%
%ADD81R,.144X.144*%
%ADD59R,.02047X.01181*%
%ADD23R,.04331X.05512*%
%ADD17R,.04252X.04134*%
%ADD60R,.02165X.01181*%
%ADD34C,.1187*%
%ADD24R,.04134X.04252*%
%ADD55R,.02362X.0374*%
%ADD52R,.01181X.03346*%
%ADD12R,.02362X.02165*%
%ADD91R,.0374X.02362*%
%ADD50R,.02165X.02362*%
%ADD11R,.0374X.0374*%
%ADD31R,.0374X.0374*%
%ADD22R,.03543X.0374*%
%ADD76R,.0374X.03543*%
%AMMACRO62*
21,1,.04134,.04252,0.0,0.0,90.313*%
%ADD62MACRO62*%
%ADD71R,.04134X.08661*%
%ADD70R,.03937X.04134*%
%ADD87R,.01181X.01968*%
%ADD16R,.05906X.05118*%
%ADD86R,.01968X.01181*%
%ADD41R,.05118X.05906*%
%ADD14R,.01476X.01476*%
%ADD69R,.20866X.20866*%
%ADD65R,.01772X.05709*%
%ADD90R,.05709X.01772*%
%ADD26R,.05866X.04823*%
%ADD66R,.02756X.0689*%
%ADD89R,.0689X.02756*%
%ADD36R,.07874X.05906*%
%ADD64R,.0689X.09843*%
%ADD35R,.05906X.07874*%
%ADD80R,.01968X.07874*%
G75*
%LPD*%
G75*
G36*
G01X110954Y108578D02*
Y118420D01*
X114498D01*
Y113302D01*
X118435D01*
Y108578D01*
X110954D01*
G37*
G36*
G01X130246Y105822D02*
Y95980D01*
X126702D01*
Y101098D01*
X122765D01*
Y105822D01*
X130246D01*
G37*
G36*
G01X110954D02*
Y95980D01*
X114498D01*
Y101098D01*
X118435D01*
Y105822D01*
X110954D01*
G37*
G36*
G01X130246Y108578D02*
Y118420D01*
X126702D01*
Y113302D01*
X122765D01*
Y108578D01*
X130246D01*
G37*
G36*
G01X355458Y16798D02*
Y15065D01*
X358056D01*
Y16798D01*
X355458D01*
G37*
G36*
G01X352544D02*
Y15065D01*
X355142D01*
Y16798D01*
X352544D01*
G37*
G36*
G01X355458Y20735D02*
Y19002D01*
X358056D01*
Y20735D01*
X355458D01*
G37*
G36*
G01Y18766D02*
Y17034D01*
X358056D01*
Y18766D01*
X355458D01*
G37*
G36*
G01X352544D02*
Y17034D01*
X355142D01*
Y18766D01*
X352544D01*
G37*
G36*
G01Y20735D02*
Y19002D01*
X355142D01*
Y20735D01*
X352544D01*
G37*
G36*
G01X117844Y112121D02*
X114891D01*
Y109169D01*
X117844D01*
Y112121D01*
G37*
G36*
G01X126309Y105231D02*
X123356D01*
Y102279D01*
X126309D01*
Y105231D01*
G37*
G36*
G01X117844D02*
X114891D01*
Y102279D01*
X117844D01*
Y105231D01*
G37*
G36*
G01X126309Y112121D02*
X123356D01*
Y109169D01*
X126309D01*
Y112121D01*
G37*
G54D100*
X1095400Y36100D03*
Y26100D03*
X1087200Y76500D03*
Y96000D03*
X1115400Y36100D03*
Y26100D03*
X1105400Y36100D03*
Y26100D03*
X1125400Y36100D03*
Y26100D03*
X1145400D03*
X1135400Y36100D03*
Y26100D03*
X1168300Y76500D03*
X1168400Y96000D03*
G54D101*
X1138900Y218700D03*
G54D10*
X20000Y20000D03*
Y580000D03*
X310000Y20000D03*
Y580000D03*
X475846Y47811D03*
X600000Y580000D03*
X723878Y47811D03*
X890000Y20000D03*
Y580000D03*
X1180000Y20000D03*
Y580000D03*
G54D11*
X11500Y93353D03*
Y87447D03*
X24100Y64447D03*
Y70353D03*
X34700Y202253D03*
Y196347D03*
X68428Y498047D03*
Y503953D03*
X63028Y498047D03*
Y503953D03*
X168928Y498047D03*
Y503953D03*
X163328Y498047D03*
Y503953D03*
X659600Y333047D03*
Y338953D03*
Y327453D03*
Y321547D03*
X746700Y333047D03*
Y338953D03*
Y327453D03*
Y321547D03*
X834500Y333047D03*
Y338953D03*
Y327453D03*
Y321547D03*
X949500Y333047D03*
Y338953D03*
Y327453D03*
Y321547D03*
X1037300Y333047D03*
Y338953D03*
Y327453D03*
Y321547D03*
X1124200Y332647D03*
Y338553D03*
Y327053D03*
Y321147D03*
G54D20*
X25000Y492700D03*
Y502700D03*
Y512700D03*
X53800Y30700D03*
Y40700D03*
Y50700D03*
G54D12*
X11200Y75028D03*
Y78572D03*
X61700Y268728D03*
Y272272D03*
X89000Y240072D03*
Y236528D03*
Y244628D03*
Y248172D03*
X241000Y184228D03*
X236000D03*
X241000Y187772D03*
X236000D03*
X237172Y520372D03*
Y516828D03*
X334000Y15728D03*
Y19272D03*
X340300Y15628D03*
Y19172D03*
X356000Y525772D03*
Y522228D03*
X352000Y521772D03*
Y518228D03*
X360000Y522228D03*
Y525772D03*
X413000Y93228D03*
Y96772D03*
X409000Y93228D03*
Y96772D03*
X426800Y312728D03*
Y316272D03*
X418800Y336428D03*
Y339972D03*
X435000Y291072D03*
Y287528D03*
X441000Y291072D03*
Y287528D03*
X453700Y291272D03*
Y287728D03*
X474900Y331028D03*
Y334572D03*
X526500Y285028D03*
Y288572D03*
X714900Y105672D03*
Y102128D03*
X724900Y105672D03*
Y102128D03*
X771800Y50928D03*
Y54472D03*
X821600Y45828D03*
Y49372D03*
X838400Y50928D03*
Y54472D03*
X863000Y266228D03*
Y269772D03*
X887200Y45828D03*
Y49372D03*
G54D21*
X52600Y114150D03*
X76300Y263400D03*
X76400Y249400D03*
X113200Y142100D03*
X131700D03*
X142500Y228500D03*
X164100Y95100D03*
Y77100D03*
Y108100D03*
Y121100D03*
X200100Y299700D03*
X200000Y313700D03*
X222000Y15700D03*
X215000Y210000D03*
X298500Y277000D03*
X294300Y438700D03*
X309000Y418000D03*
Y431900D03*
X308900Y445800D03*
X308800Y459700D03*
X322900Y418000D03*
Y431900D03*
Y445800D03*
Y459700D03*
X418300Y363300D03*
Y375500D03*
X452300Y438400D03*
X466200Y431900D03*
Y418000D03*
Y445800D03*
X466100Y471100D03*
Y458100D03*
X478900Y432100D03*
Y418200D03*
Y446000D03*
X480100Y471100D03*
X479100Y458100D03*
X508600Y361800D03*
X494100D03*
X524100Y304100D03*
X538000Y305000D03*
X546000D03*
X560000Y314000D03*
X641088Y374000D03*
X628488D03*
X653588D03*
X715200Y374100D03*
X702600Y374000D03*
X727700D03*
X801900Y380100D03*
X827000D03*
X814500D03*
X908000Y50200D03*
X908600Y66400D03*
X918500Y380300D03*
X943600D03*
X931100D03*
X1020600D03*
X1008000D03*
X1033100D03*
X1056400Y59200D03*
X1069700Y47100D03*
X1069600Y59700D03*
X1094400Y380300D03*
X1108300Y123100D03*
X1107000Y380300D03*
X1120500Y123000D03*
Y136700D03*
X1119500Y380200D03*
X1136000Y141900D03*
X1148300Y141600D03*
X1148400Y155200D03*
X1169700Y46800D03*
X1169800Y59600D03*
X1182900Y46700D03*
G54D30*
X46563Y281865D03*
X48531D03*
X50500D03*
X52469D03*
X54437D03*
X174300Y190365D03*
X170363D03*
X172331D03*
X176269D03*
X178237D03*
X170363Y261265D03*
X172331D03*
X174300D03*
X176269D03*
X178237D03*
X170263Y332165D03*
X172231D03*
X174200D03*
X176169D03*
X178137D03*
X170163Y390665D03*
X172131D03*
X174100D03*
X176069D03*
X178037D03*
G54D22*
X42150Y130100D03*
X48450D03*
X73250Y299700D03*
X79550D03*
X202850Y276300D03*
X196550D03*
X203150Y408100D03*
X196850D03*
X337450Y60000D03*
X331150D03*
X356150Y59900D03*
X349850D03*
X408950Y269700D03*
Y278800D03*
X399950Y383300D03*
X406250D03*
X415250Y269700D03*
Y278800D03*
X448750Y483700D03*
X442450D03*
Y491900D03*
X448750D03*
G54D31*
X50375Y497800D03*
X56281D03*
X64953Y536000D03*
X59047D03*
X92047Y341000D03*
X81281Y497800D03*
X75375D03*
X97953Y341000D03*
X150675Y498000D03*
X156581D03*
X164953Y535000D03*
X159047D03*
X181381Y498000D03*
X175475D03*
X269853Y29900D03*
X263947D03*
X269853Y35400D03*
X263947D03*
X269853Y49600D03*
X263947D03*
Y44000D03*
X269853D03*
X269753Y62700D03*
X263847D03*
Y57100D03*
X269753D03*
X277047Y315000D03*
X277147Y323100D03*
X265047Y540000D03*
X270953D03*
X296047Y315000D03*
X282953D03*
X296047Y323000D03*
X283053Y323100D03*
X301953Y315000D03*
Y323000D03*
X339047Y541000D03*
X344953D03*
X354047D03*
X370047D03*
X375953D03*
X359953D03*
X390953D03*
X385047D03*
X448453Y475500D03*
X442547D03*
Y499500D03*
X448453D03*
X507047Y421000D03*
X512953D03*
X576953Y422000D03*
X571047D03*
X635947Y348200D03*
Y342700D03*
X628953Y421000D03*
X623047D03*
X641853Y348200D03*
Y342700D03*
X691453Y421000D03*
X685547D03*
X716953D03*
X711047D03*
X728953Y348200D03*
X723047D03*
X728853Y342700D03*
X722947D03*
X773047Y422000D03*
X778953D03*
X810847Y348200D03*
X810747Y342700D03*
X804553Y421100D03*
X798647D03*
X816753Y348200D03*
X816653Y342700D03*
X865953Y421000D03*
X860047D03*
X918953D03*
X913047D03*
X931653Y342700D03*
X925747D03*
X931753Y348200D03*
X925847D03*
X980953Y421500D03*
X975047D03*
X1000647Y421100D03*
X1019553Y348200D03*
X1013647D03*
X1019453Y342700D03*
X1013547D03*
X1006553Y421100D03*
X1068953Y421000D03*
X1063047D03*
X1093953Y421500D03*
X1088047D03*
X1105447Y67300D03*
X1111353D03*
X1106353Y342300D03*
X1100447D03*
X1106453Y347800D03*
X1100547D03*
X1123553Y67300D03*
X1117647D03*
X1151053D03*
X1145147D03*
X1133147D03*
X1139053D03*
X1150047Y421000D03*
X1155953D03*
G54D40*
X65000Y551300D03*
X165000D03*
X265000D03*
X365000D03*
G54D13*
X31100Y82900D03*
Y77900D03*
X26100Y82900D03*
Y77900D03*
X21100Y82900D03*
Y77900D03*
X26100Y97900D03*
Y92900D03*
X21100Y97900D03*
Y92900D03*
X51100Y87900D03*
Y82900D03*
Y77900D03*
X46100Y87900D03*
Y82900D03*
Y77900D03*
X41100Y87900D03*
Y82900D03*
Y77900D03*
X36100Y87900D03*
Y82900D03*
Y77900D03*
X51100Y97900D03*
Y92900D03*
X46100Y97900D03*
Y92900D03*
X41100Y97900D03*
Y92900D03*
X36100Y97900D03*
Y92900D03*
X56100Y87900D03*
Y82900D03*
Y77900D03*
Y97900D03*
Y92900D03*
G54D14*
X34727Y186536D03*
Y172264D03*
X56873Y186536D03*
Y172264D03*
G54D41*
X80063Y154900D03*
X87937D03*
X79863Y203700D03*
X87737D03*
X116663Y126300D03*
X124537D03*
X508863Y34200D03*
X500263Y76200D03*
X508137D03*
X528563Y34400D03*
X516737Y34200D03*
X536437Y34400D03*
X726963Y64700D03*
X734837D03*
G54D50*
X253972Y305700D03*
X250428D03*
X268344Y525300D03*
X264800D03*
Y530700D03*
X268344D03*
X356428Y324600D03*
Y334600D03*
X353228Y447000D03*
X356772D03*
X353228Y452000D03*
X356772D03*
X353228Y457000D03*
X356772D03*
X359972Y324600D03*
Y334600D03*
X397228Y112000D03*
X400772D03*
X412672Y310900D03*
X409128D03*
X424972Y297600D03*
X421428D03*
X420772Y323100D03*
X417228D03*
X420772Y327200D03*
X417228D03*
X432328Y339900D03*
X440128D03*
X443672D03*
X435872D03*
X462772Y138000D03*
X459228D03*
X474428Y311800D03*
X477972D03*
X531228Y246500D03*
X534772D03*
X564928Y272200D03*
X568472D03*
X571228Y298000D03*
X574772D03*
G54D23*
X55940Y123500D03*
X48460D03*
X79260Y274000D03*
X86740D03*
X205260Y177000D03*
Y248000D03*
X202460Y324200D03*
X202560Y376800D03*
X212740Y177000D03*
Y248000D03*
X209940Y324200D03*
X217960Y348500D03*
X225440D03*
X210040Y376800D03*
X236740Y210000D03*
X229260D03*
X924360Y38800D03*
X931840D03*
X1035860Y67500D03*
X1043340D03*
G54D32*
X53350Y527600D03*
Y522600D03*
Y517600D03*
Y512600D03*
X60850Y356000D03*
Y351000D03*
Y346000D03*
Y341000D03*
X72850Y522600D03*
Y527600D03*
Y517600D03*
Y512600D03*
X80350Y351000D03*
Y356000D03*
Y346000D03*
Y341000D03*
X153350Y527600D03*
Y522600D03*
Y517600D03*
Y512600D03*
X172850Y522600D03*
Y527600D03*
Y517600D03*
Y512600D03*
G54D24*
X54006Y153000D03*
X47194D03*
X53906Y159400D03*
X47094D03*
X54006Y198400D03*
X47194D03*
X117294Y88900D03*
X124106D03*
X244406Y199000D03*
X237594D03*
X234594Y193000D03*
X241406D03*
X240406Y313000D03*
X233594D03*
X320406Y518000D03*
X313594D03*
Y512000D03*
X320406D03*
X332594Y518000D03*
Y512000D03*
X339406Y518000D03*
Y512000D03*
X528194Y255600D03*
Y261600D03*
X535006Y255600D03*
Y261600D03*
X552094Y255500D03*
X558906D03*
Y261500D03*
X552094D03*
X556194Y304600D03*
X563006D03*
X566594Y282000D03*
X573406D03*
X654594Y347900D03*
Y353700D03*
X661406Y347900D03*
Y353700D03*
X734294Y72200D03*
Y78700D03*
X741106Y72200D03*
Y78700D03*
X748506Y347900D03*
X741694D03*
X748506Y353700D03*
X741694D03*
X829494D03*
Y347900D03*
X836306Y353700D03*
Y347900D03*
X951306D03*
X944494D03*
X951306Y353700D03*
X944494D03*
X1032294D03*
Y347900D03*
X1039106Y353700D03*
Y347900D03*
X1103494Y107300D03*
X1110306D03*
X1131094Y107600D03*
X1126006Y347500D03*
X1119194D03*
X1126006Y353300D03*
X1119194D03*
X1137906Y107600D03*
G54D60*
X353902Y19868D03*
G54D51*
X252000Y319100D03*
G54D42*
X100500Y244400D03*
X253000Y186000D03*
G54D15*
X34383Y174479D03*
Y176447D03*
Y178416D03*
Y180384D03*
Y182353D03*
Y184321D03*
X57217D03*
Y182353D03*
Y180384D03*
Y178416D03*
Y176447D03*
Y174479D03*
G54D33*
X55000Y551300D03*
X155000D03*
X255000D03*
X355000D03*
G54D16*
X35300Y252663D03*
Y260537D03*
X65700Y252863D03*
Y260737D03*
X159100Y161163D03*
Y169037D03*
Y232063D03*
Y239937D03*
X159000Y302963D03*
Y310837D03*
X158900Y361463D03*
Y369337D03*
X189500Y161363D03*
Y169237D03*
Y232263D03*
Y240137D03*
X189400Y303163D03*
Y311037D03*
X189300Y361663D03*
Y369537D03*
X356300Y352437D03*
Y344563D03*
G54D70*
X471222Y392590D03*
X458878D03*
G54D52*
X250525Y516798D03*
X248556D03*
X246588D03*
X244619D03*
Y529002D03*
X246588D03*
X248556D03*
X250525D03*
X1111547Y89598D03*
Y101802D03*
X1117453Y89598D03*
X1115484D03*
X1113516D03*
Y101802D03*
X1115484D03*
X1117453D03*
X1145053Y89498D03*
X1143084D03*
X1141116D03*
X1139147D03*
Y101702D03*
X1141116D03*
X1143084D03*
X1145053D03*
G54D34*
X45000Y571300D03*
X85000D03*
X145000D03*
X185000D03*
X245000D03*
X285000D03*
X345000D03*
X385000D03*
G54D61*
X356700Y512441D03*
Y515000D03*
Y517559D03*
X365300D03*
Y515000D03*
Y512441D03*
G54D43*
X106012Y242431D03*
X94988D03*
X106012Y246369D03*
Y244400D03*
X94988D03*
Y246369D03*
X258512Y186000D03*
Y184031D03*
X247488D03*
Y186000D03*
X258512Y187969D03*
X247488D03*
X246488Y317131D03*
Y319100D03*
X257512D03*
Y317131D03*
X246488Y321069D03*
X257512D03*
G54D25*
X52690Y171920D03*
X50721D03*
X48753D03*
X46784D03*
X44816D03*
X42847D03*
X40879D03*
X36942Y186880D03*
X38910D03*
X40879D03*
X42847D03*
X44816D03*
X46784D03*
X48753D03*
X38910Y171920D03*
X50721Y186880D03*
X52690D03*
X36942Y171920D03*
X54658Y186880D03*
Y171920D03*
G54D80*
X526039Y473542D03*
X543362Y441258D03*
X540213D03*
X537063D03*
X533913D03*
X530764D03*
X527614D03*
X529189Y473542D03*
X532339D03*
X535488D03*
X538638D03*
X541787D03*
X544937D03*
X555961Y441258D03*
X552811D03*
X549661D03*
X546512D03*
X548087Y473542D03*
X551236D03*
X554386D03*
X658462Y441258D03*
X655313D03*
X652163D03*
X649013D03*
X645864D03*
X642714D03*
X644289Y473542D03*
X647439D03*
X650588D03*
X653738D03*
X656887D03*
X641139D03*
X671061Y441258D03*
X667911D03*
X664761D03*
X661612D03*
X660037Y473542D03*
X663187D03*
X666336D03*
X669486D03*
X732964Y441258D03*
X729814D03*
X731389Y473542D03*
X734539D03*
X728239D03*
X751861Y441258D03*
X748712D03*
X745562D03*
X742413D03*
X739263D03*
X736113D03*
X737688Y473542D03*
X740838D03*
X743987D03*
X747137D03*
X750287D03*
X753436D03*
X758161Y441258D03*
X755011D03*
X756586Y473542D03*
X827063Y441258D03*
X823913D03*
X820764D03*
X817614D03*
X819189Y473542D03*
X822339D03*
X825488D03*
X828638D03*
X816039D03*
X845961Y441258D03*
X842811D03*
X839661D03*
X836512D03*
X833362D03*
X830213D03*
X831787Y473542D03*
X834937D03*
X838087D03*
X841236D03*
X844386D03*
X942163Y441258D03*
X939013D03*
X935864D03*
X932714D03*
X934289Y473542D03*
X937439D03*
X940588D03*
X931139D03*
X961061Y441258D03*
X957911D03*
X954761D03*
X951612D03*
X948462D03*
X945313D03*
X943738Y473542D03*
X946887D03*
X950037D03*
X953187D03*
X956336D03*
X959486D03*
X1036262Y441258D03*
X1033113D03*
X1029963D03*
X1026813D03*
X1023664D03*
X1020514D03*
X1022089Y473542D03*
X1025239D03*
X1028388D03*
X1031538D03*
X1034687D03*
X1018939D03*
X1048861Y441258D03*
X1045711D03*
X1042561D03*
X1039412D03*
X1037837Y473542D03*
X1040987D03*
X1044136D03*
X1047286D03*
X1110564Y441258D03*
X1107414D03*
X1108989Y473542D03*
X1112139D03*
X1105839D03*
X1129461Y441258D03*
X1126312D03*
X1123162D03*
X1120013D03*
X1116863D03*
X1113713D03*
X1115288Y473542D03*
X1118438D03*
X1121587D03*
X1124737D03*
X1127887D03*
X1131036D03*
X1135761Y441258D03*
X1132611D03*
X1134186Y473542D03*
G54D35*
X67194Y11600D03*
X79006D03*
X496294Y87900D03*
X508106D03*
X496294Y101700D03*
X508106D03*
G54D26*
X51873Y182008D03*
Y176792D03*
X45800Y182008D03*
Y176792D03*
X39727Y182008D03*
Y176792D03*
G54D71*
X452874Y386783D03*
Y398397D03*
X477226Y386783D03*
Y398397D03*
G54D62*
X371581Y367406D03*
X371619Y360594D03*
G54D17*
X34200Y281294D03*
Y288106D03*
X45500Y253394D03*
Y260206D03*
X55800Y253294D03*
Y260106D03*
X66600Y276906D03*
Y270094D03*
X145000Y135594D03*
Y142406D03*
X169300Y161894D03*
Y168706D03*
X158000Y196606D03*
Y189794D03*
X169300Y232794D03*
Y239606D03*
X158000Y260694D03*
Y267506D03*
X169200Y303694D03*
Y310506D03*
X157900Y338406D03*
Y331594D03*
X169100Y362194D03*
Y369006D03*
X157800Y390094D03*
Y396906D03*
X179600Y161794D03*
Y168606D03*
Y232694D03*
Y239506D03*
X179500Y303594D03*
Y310406D03*
X179400Y362094D03*
Y368906D03*
X190400Y185406D03*
Y178594D03*
Y256306D03*
Y249494D03*
X190300Y320394D03*
Y327206D03*
X190200Y385706D03*
Y378894D03*
X358000Y498594D03*
Y505406D03*
X347000Y504594D03*
Y511406D03*
Y525406D03*
Y518594D03*
X364000Y498594D03*
Y505406D03*
X365100Y523694D03*
Y530506D03*
X399200Y354494D03*
X405800D03*
X399200Y361306D03*
X405800D03*
X512000Y280106D03*
Y273294D03*
X517900D03*
Y280106D03*
X526100Y355306D03*
Y348494D03*
Y365094D03*
Y371906D03*
X532000Y348594D03*
Y355406D03*
Y371906D03*
Y365094D03*
X561000Y355406D03*
Y348594D03*
X555000D03*
Y355406D03*
X561000Y365094D03*
Y371906D03*
X555000D03*
Y365094D03*
X786186Y33194D03*
Y40006D03*
X850086Y33994D03*
Y40806D03*
G54D53*
X282770Y42600D03*
Y47600D03*
Y52600D03*
Y57600D03*
X304030Y52600D03*
Y47600D03*
Y42600D03*
Y57600D03*
G54D44*
X102469Y238888D03*
X100500D03*
X98531D03*
Y249912D03*
X100500D03*
X102469D03*
X254969Y180488D03*
X253000D03*
X251031D03*
Y191512D03*
X253000D03*
X254969D03*
X253969Y313588D03*
X252000D03*
X250031D03*
Y324612D03*
X252000D03*
X253969D03*
G54D36*
X68900Y80494D03*
Y92306D03*
X222100Y47894D03*
Y59706D03*
G54D90*
X863386Y275043D03*
Y277602D03*
Y280161D03*
Y282720D03*
Y285280D03*
Y287839D03*
Y290398D03*
Y292957D03*
X886614Y280161D03*
Y277602D03*
Y275043D03*
Y292957D03*
Y290398D03*
Y287839D03*
Y285280D03*
Y282720D03*
G54D81*
X541500Y276800D03*
G54D72*
X457276Y512260D03*
Y516000D03*
Y519740D03*
X466724D03*
Y516000D03*
X602276Y386260D03*
Y390000D03*
X611724Y393740D03*
Y390000D03*
Y386260D03*
X691724Y383740D03*
Y380000D03*
Y376260D03*
X682276D03*
Y380000D03*
X747724Y383740D03*
Y380000D03*
Y376260D03*
X738276D03*
Y380000D03*
X865276Y376260D03*
Y380000D03*
X874724Y383740D03*
Y380000D03*
Y376260D03*
X975276D03*
Y380000D03*
X984724Y383740D03*
Y380000D03*
Y376260D03*
X1070724Y383740D03*
Y380000D03*
Y376260D03*
X1061276D03*
Y380000D03*
X1165276Y376260D03*
Y380000D03*
X1174724Y383740D03*
Y380000D03*
Y376260D03*
G54D63*
X364604Y430461D03*
Y427902D03*
Y425343D03*
Y422784D03*
Y420225D03*
Y448375D03*
Y445816D03*
Y443257D03*
Y440698D03*
Y438139D03*
Y435580D03*
Y433020D03*
X387596Y420225D03*
Y422784D03*
Y425343D03*
Y427902D03*
Y430461D03*
Y433020D03*
Y435580D03*
Y438139D03*
Y440698D03*
Y443257D03*
Y445816D03*
Y448375D03*
G54D45*
X132732Y26060D03*
G54D54*
X312400Y61664D03*
Y57736D03*
X392000Y457964D03*
Y454036D03*
X412000Y305664D03*
Y301736D03*
X407400Y305664D03*
Y301736D03*
X432000Y116036D03*
Y119964D03*
Y132036D03*
Y135964D03*
X431700Y344736D03*
Y348664D03*
X435900Y344736D03*
Y348664D03*
X444300Y344736D03*
Y348664D03*
X440100Y344736D03*
Y348664D03*
X461600Y338336D03*
X466000D03*
X461600Y342264D03*
X466000D03*
X525500Y271436D03*
Y275364D03*
X522700Y285036D03*
Y288964D03*
X545800Y292136D03*
Y296064D03*
X892600Y295064D03*
Y291136D03*
G54D18*
X32000Y333000D03*
Y343000D03*
X320000Y319000D03*
Y309000D03*
G54D27*
X50500Y274700D03*
X174300Y183200D03*
Y254100D03*
X174200Y325000D03*
X174100Y383500D03*
G54D64*
X385688Y355709D03*
G54D91*
X922872Y21700D03*
X931928Y25440D03*
Y17960D03*
X1036172Y49660D03*
Y57140D03*
X1045228Y53400D03*
G54D55*
X334200Y34272D03*
X330460Y43328D03*
X337940D03*
X353500Y34372D03*
X349760Y43428D03*
X357240D03*
G54D73*
X466724Y512260D03*
X602276Y393740D03*
X682276Y383740D03*
X738276D03*
X865276D03*
X975276D03*
X1061276D03*
X1165276D03*
G54D28*
X52469Y267535D03*
X50500D03*
X48531D03*
X46563D03*
X54437D03*
X178237Y176035D03*
X176269D03*
X172331D03*
X170363D03*
X174300D03*
X178237Y246935D03*
X176269D03*
X174300D03*
X172331D03*
X170363D03*
X178137Y317835D03*
X176169D03*
X174200D03*
X172231D03*
X170263D03*
X178037Y376335D03*
X176069D03*
X174100D03*
X172131D03*
X170163D03*
G54D37*
X63436Y158700D03*
X67364D03*
X86636Y356000D03*
X90564D03*
X408764Y105600D03*
X404836D03*
X405036Y144400D03*
X408964D03*
X410964Y291500D03*
X407036D03*
X410964Y287000D03*
X407036D03*
X404964Y317300D03*
X401036D03*
X404964Y321800D03*
X401036D03*
X413964Y336000D03*
X410036D03*
X413964Y340500D03*
X410036D03*
X484236Y325800D03*
X488164D03*
X855964Y290000D03*
X852036D03*
G54D82*
X544453Y267350D03*
X542484D03*
X540516D03*
X538547D03*
X536579D03*
X534610D03*
Y286250D03*
X536579D03*
X538547D03*
X540516D03*
X542484D03*
X544453D03*
X548390Y267350D03*
X546421D03*
Y286250D03*
X548390D03*
G54D46*
X124465Y54800D03*
Y76454D03*
X141000D03*
G54D19*
X32000Y353000D03*
X320000Y299000D03*
G54D65*
X411361Y112486D03*
X408802D03*
X406243D03*
Y135714D03*
X408802D03*
X411361D03*
X424157Y112486D03*
X421598D03*
X419039D03*
X416480D03*
X413920D03*
Y135714D03*
X416480D03*
X419039D03*
X421598D03*
X424157D03*
G54D29*
X43335Y270763D03*
Y272731D03*
Y274700D03*
Y276669D03*
Y278637D03*
X167135Y183200D03*
Y179263D03*
Y181231D03*
Y185169D03*
Y187137D03*
Y250163D03*
Y252131D03*
Y254100D03*
Y256069D03*
Y258037D03*
X167035Y321063D03*
Y323031D03*
Y325000D03*
Y326969D03*
Y328937D03*
X166935Y379563D03*
Y381531D03*
Y383500D03*
Y385469D03*
Y387437D03*
G54D92*
X964900Y37795D03*
X1009900D03*
G54D38*
X67548Y179300D03*
X96052D03*
G54D83*
X532050Y269910D03*
Y271879D03*
Y273847D03*
Y275816D03*
Y277784D03*
Y279753D03*
Y281721D03*
Y283690D03*
X550950Y279753D03*
Y277784D03*
Y275816D03*
Y273847D03*
Y271879D03*
Y269910D03*
Y283690D03*
Y281721D03*
G54D47*
X141000Y54800D03*
G54D56*
X331709Y497047D03*
Y499016D03*
Y500984D03*
Y502953D03*
X320291D03*
Y500984D03*
Y499016D03*
Y497047D03*
X537791Y363253D03*
Y361284D03*
Y359316D03*
Y357347D03*
X549209D03*
Y359316D03*
Y361284D03*
Y363253D03*
G54D74*
X492950Y52000D03*
X707050Y40000D03*
G54D66*
X438323Y113783D03*
X440882D03*
X443441D03*
X446000D03*
X448559D03*
X451118D03*
Y136617D03*
X448559D03*
X446000D03*
X443441D03*
X440882D03*
X438323D03*
X453677Y113783D03*
Y136617D03*
G54D84*
X557008Y297508D03*
X552192Y292692D03*
X562408Y289408D03*
X557592Y284592D03*
G54D48*
X197000Y429340D03*
Y421860D03*
G54D57*
X328953Y505709D03*
X326984D03*
X325016D03*
X323047D03*
Y494291D03*
X325016D03*
X326984D03*
X328953D03*
X540547Y354591D03*
X542516D03*
X544484D03*
Y366009D03*
X542516D03*
X540547D03*
X546453Y354591D03*
Y366009D03*
G54D93*
X961239Y21811D03*
X971278D03*
X1003522D03*
X1013561D03*
G54D39*
X57665Y278637D03*
Y276669D03*
Y274700D03*
Y272731D03*
Y270763D03*
X181465Y181231D03*
Y185169D03*
Y179263D03*
Y183200D03*
Y187137D03*
Y258037D03*
Y256069D03*
Y254100D03*
Y252131D03*
Y250163D03*
X181365Y328937D03*
Y326969D03*
Y325000D03*
Y323031D03*
Y321063D03*
X181265Y387437D03*
Y385469D03*
Y383500D03*
Y381531D03*
Y379563D03*
G54D75*
X508600Y401300D03*
X520600D03*
X563900Y401900D03*
X575900D03*
X623700Y401300D03*
X635700D03*
X679000Y401900D03*
X691000D03*
X710800Y401300D03*
X722800D03*
X766100Y401900D03*
X778100D03*
X810600Y401300D03*
X798600D03*
X853900Y401900D03*
X865900D03*
X925600Y401300D03*
X913600D03*
X968900Y401900D03*
X980900D03*
X1001400Y401300D03*
X1013400D03*
X1056700Y401900D03*
X1068700D03*
X1088300Y400900D03*
X1100300D03*
X1143600Y401500D03*
X1155600D03*
G54D76*
X522102Y418141D03*
Y424441D03*
X559898Y418141D03*
Y424441D03*
X637202Y418141D03*
Y424441D03*
X674998Y418141D03*
Y424441D03*
X724302Y418141D03*
Y424441D03*
X762098Y418141D03*
Y424441D03*
X812102Y418141D03*
Y424441D03*
X849898Y418141D03*
Y424441D03*
X927202Y418141D03*
Y424441D03*
X964998Y418141D03*
Y424441D03*
X1015002Y418141D03*
Y424441D03*
X1052798Y418141D03*
Y424441D03*
X1101902Y418141D03*
Y424441D03*
X1139698Y418141D03*
Y424441D03*
G54D67*
X434083Y299736D03*
Y317453D03*
Y315484D03*
Y313516D03*
Y311547D03*
Y309579D03*
Y307610D03*
Y305642D03*
Y303673D03*
Y301705D03*
Y329264D03*
Y327295D03*
Y325327D03*
Y323358D03*
Y321390D03*
Y319421D03*
X469517Y299736D03*
Y301705D03*
Y303673D03*
Y305642D03*
Y307610D03*
Y309579D03*
Y311547D03*
Y313516D03*
Y315484D03*
Y317453D03*
Y319421D03*
Y321390D03*
Y323358D03*
Y325327D03*
Y327295D03*
Y329264D03*
G54D58*
X326000Y500000D03*
X368120Y314600D03*
Y324600D03*
Y334600D03*
X383080Y314600D03*
Y334600D03*
Y324600D03*
X543500Y360300D03*
X714900Y79220D03*
X704900D03*
Y94180D03*
X714900D03*
X724900Y79220D03*
Y94180D03*
G54D94*
X956475Y49803D03*
X1018325D03*
G54D85*
X569051Y460943D03*
X684151D03*
X771251D03*
X859051D03*
X974151D03*
X1061951D03*
X1148851D03*
G54D49*
X242000Y253000D03*
Y265000D03*
X230800Y324300D03*
Y336300D03*
Y371600D03*
Y359600D03*
X257000Y253000D03*
Y265000D03*
G54D86*
X639785Y334153D03*
Y332184D03*
Y330216D03*
Y328247D03*
X650415D03*
Y330216D03*
Y332184D03*
Y334153D03*
X726885D03*
Y332184D03*
Y330216D03*
Y328247D03*
X737515D03*
Y330216D03*
Y332184D03*
Y334153D03*
X814685D03*
Y332184D03*
Y330216D03*
Y328247D03*
X825315D03*
Y330216D03*
Y332184D03*
Y334153D03*
X929685D03*
Y332184D03*
Y330216D03*
Y328247D03*
X940315D03*
Y330216D03*
Y332184D03*
Y334153D03*
X1017485D03*
Y332184D03*
Y330216D03*
Y328247D03*
X1028115D03*
Y330216D03*
Y332184D03*
Y334153D03*
X1104385Y333753D03*
Y331784D03*
Y329816D03*
Y327847D03*
X1115015D03*
Y329816D03*
Y331784D03*
Y333753D03*
G54D59*
X356757Y15932D03*
X353843D03*
X356757Y19868D03*
Y17900D03*
X353843D03*
G54D68*
X437036Y296783D03*
X439005D03*
X440973D03*
X442942D03*
X444910D03*
X446879D03*
X448847D03*
X450816D03*
Y332217D03*
X448847D03*
X446879D03*
X444910D03*
X442942D03*
X440973D03*
X439005D03*
X437036D03*
X452784Y296783D03*
X454753D03*
X456721D03*
X458690D03*
X460658D03*
X462627D03*
X464595D03*
X466564D03*
Y332217D03*
X464595D03*
X462627D03*
X460658D03*
X458690D03*
X456721D03*
X454753D03*
X452784D03*
G54D95*
X964900Y72795D03*
G54D77*
X522102Y432991D03*
X512949Y451101D03*
Y470786D03*
Y489290D03*
X541000Y432991D03*
X559898D03*
X569051Y451101D03*
Y470786D03*
Y489290D03*
X637202Y432991D03*
X628049Y451101D03*
Y470786D03*
Y489290D03*
X656100Y432991D03*
X674998D03*
X684151Y451101D03*
Y470786D03*
Y489290D03*
X715149Y451101D03*
Y470786D03*
Y489290D03*
X724302Y432991D03*
X743200D03*
X762098D03*
X771251Y451101D03*
Y470786D03*
Y489290D03*
X812102Y432991D03*
X802949Y451101D03*
Y470786D03*
Y489290D03*
X831000Y432991D03*
X849898D03*
X859051Y451101D03*
Y470786D03*
Y489290D03*
X918049Y451101D03*
Y470786D03*
Y489290D03*
X927202Y432991D03*
X946100D03*
X964998D03*
X974151Y451101D03*
Y470786D03*
Y489290D03*
X1015002Y432991D03*
X1005849Y451101D03*
Y470786D03*
Y489290D03*
X1033900Y432991D03*
X1052798D03*
X1061951Y451101D03*
Y470786D03*
Y489290D03*
X1092749Y451101D03*
Y470786D03*
Y489290D03*
X1101902Y432991D03*
X1120800D03*
X1139698D03*
X1148851Y451101D03*
Y470786D03*
Y489290D03*
G54D69*
X451800Y314500D03*
G54D87*
X642147Y325885D03*
X644116D03*
X646084D03*
X648053D03*
Y336515D03*
X646084D03*
X644116D03*
X642147D03*
X729247Y325885D03*
X731216D03*
X733184D03*
Y336515D03*
X731216D03*
X729247D03*
X735153Y325885D03*
Y336515D03*
X817047Y325885D03*
X819016D03*
X820984D03*
X822953D03*
Y336515D03*
X820984D03*
X819016D03*
X817047D03*
X932047Y325885D03*
X934016D03*
X935984D03*
X937953D03*
Y336515D03*
X935984D03*
X934016D03*
X932047D03*
X1019847Y325885D03*
X1021816D03*
X1023784D03*
X1025753D03*
Y336515D03*
X1023784D03*
X1021816D03*
X1019847D03*
X1106747Y325485D03*
X1108716D03*
X1110684D03*
X1112653D03*
Y336115D03*
X1110684D03*
X1108716D03*
X1106747D03*
G54D78*
X512949Y441258D03*
Y480628D03*
X525449Y500313D03*
X512949Y519998D03*
Y559369D03*
X546709Y500313D03*
X535291Y579054D03*
X569051Y500313D03*
Y539683D03*
Y579054D03*
X628049Y441258D03*
Y480628D03*
X640549Y500313D03*
X628049Y519998D03*
Y559369D03*
X661809Y500313D03*
X650391Y579054D03*
X684151Y500313D03*
Y539683D03*
Y579054D03*
X715149Y441258D03*
Y480628D03*
Y519998D03*
Y559369D03*
X727649Y500313D03*
X737491Y579054D03*
X748909Y500313D03*
X771251D03*
Y539683D03*
Y579054D03*
X802949Y441258D03*
Y480628D03*
Y519998D03*
Y559369D03*
X815449Y500313D03*
X825291Y579054D03*
X836709Y500313D03*
X859051D03*
Y539683D03*
Y579054D03*
X918049Y441258D03*
Y480628D03*
Y519998D03*
Y559369D03*
X930549Y500313D03*
X940391Y579054D03*
X951809Y500313D03*
X974151D03*
Y539683D03*
Y579054D03*
X1005849Y441258D03*
Y480628D03*
X1018349Y500313D03*
X1005849Y519998D03*
Y559369D03*
X1039609Y500313D03*
X1028191Y579054D03*
X1061951Y500313D03*
Y539683D03*
Y579054D03*
X1092749Y441258D03*
Y480628D03*
Y519998D03*
Y559369D03*
X1105249Y500313D03*
X1115091Y579054D03*
X1126509Y500313D03*
X1148851D03*
Y539683D03*
Y579054D03*
G54D96*
X969900Y62795D03*
X974900Y72795D03*
X979900Y62795D03*
X984900Y72795D03*
X989900Y62795D03*
X994900Y72795D03*
X999900Y62795D03*
X1009900D03*
X1004900Y72795D03*
G54D88*
X645100Y331200D03*
X732200D03*
X820000D03*
X935000D03*
X1022800D03*
X1109700Y330800D03*
G54D97*
X1058300Y25000D03*
X1048300D03*
X1068300D03*
G54D79*
X522102Y457400D03*
X559898D03*
X637202D03*
X674998D03*
X724302D03*
X762098D03*
X812102D03*
X849898D03*
X927202D03*
X964998D03*
X1015002D03*
X1052798D03*
X1101902D03*
X1139698D03*
G54D89*
X786186Y54202D03*
Y51643D03*
Y49084D03*
Y46525D03*
Y72116D03*
Y69557D03*
Y66998D03*
Y64439D03*
Y61880D03*
Y59320D03*
Y56761D03*
Y74675D03*
X809414Y46525D03*
Y49084D03*
Y51643D03*
Y54202D03*
Y56761D03*
Y59320D03*
Y61880D03*
Y64439D03*
Y66998D03*
Y69557D03*
Y72116D03*
Y74675D03*
X850086Y54702D03*
Y52143D03*
Y49584D03*
Y47025D03*
Y72616D03*
Y70057D03*
Y67498D03*
Y64939D03*
Y62380D03*
Y59820D03*
Y57261D03*
Y75175D03*
X873314Y47025D03*
Y49584D03*
Y52143D03*
Y54702D03*
Y57261D03*
Y59820D03*
Y62380D03*
Y64939D03*
Y67498D03*
Y70057D03*
Y72616D03*
Y75175D03*
G54D98*
X1058900Y208700D03*
X1048900D03*
X1058900Y218700D03*
X1048900D03*
X1068900Y208700D03*
Y218700D03*
X1088900Y208700D03*
X1078900D03*
X1088900Y218700D03*
X1078900D03*
X1108900Y208700D03*
X1098900D03*
X1108900Y218700D03*
X1098900D03*
X1128900Y208700D03*
X1118900D03*
X1128900Y218700D03*
X1118900D03*
X1138900Y208700D03*
G54D99*
X1077200Y76500D03*
Y96000D03*
X1145400Y36100D03*
X1178300Y76500D03*
X1178400Y96000D03*
M02*
