G04 ================== begin FILE IDENTIFICATION RECORD ==================*
G04 Layout Name:  C:/DUNE_GIB/UPENN-DUNE-GIB/allegro/gps_interface_board_ml_v101.brd*
G04 Film Name:    _08_Pwr2v101*
G04 File Format:  Gerber RS274X*
G04 File Origin:  Cadence Allegro 24.1-P001*
G04 Origin Date:  Mon Sep  1 10:04:49 2025*
G04 *
G04 Layer:  VIA CLASS/PWR2*
G04 Layer:  PIN/PWR2*
G04 Layer:  ETCH/PWR2*
G04 *
G04 Offset:    (0.00 0.00)*
G04 Mirror:    No*
G04 Mode:      Positive*
G04 Rotation:  0*
G04 FullContactRelief:  No*
G04 UndefLineWidth:     5.00*
G04 ================== end FILE IDENTIFICATION RECORD ====================*
%FSLAX55Y55*MOIN*%
%IR0*IPPOS*OFA0.00000B0.00000*MIA0B0*SFA1.00000B1.00000*%
%ADD11C,.032*%
%ADD31C,.06*%
%ADD23C,.06103*%
%ADD32R,.06X.06*%
%ADD15C,.05504*%
%ADD21C,.0574*%
%ADD20C,.0394*%
%ADD24C,.05346*%
%ADD19C,.09055*%
%ADD27C,.09921*%
%ADD17R,.05504X.05504*%
%ADD12C,.05394*%
%ADD14C,.06496*%
%ADD29C,.05858*%
%ADD26C,.07559*%
%ADD30O,.05937X.11874*%
%ADD13O,.11874X.05937*%
%ADD28R,.05858X.05858*%
%ADD22R,.07874X.07874*%
%ADD25C,.13111*%
%ADD18C,.11811*%
%ADD10C,.175*%
%ADD16C,.1187*%
%ADD33C,.005*%
%ADD36C,.04204*%
%ADD45C,.07712*%
%ADD39C,.0953*%
%ADD49C,.07318*%
%ADD48C,.08074*%
%ADD41C,.06724*%
%ADD43C,.07366*%
%ADD46C,.07476*%
%ADD44C,.07972*%
%ADD35C,.08468*%
%ADD40C,.11026*%
%ADD37C,.13414*%
%ADD38C,.15082*%
%ADD47C,.13842*%
%ADD42C,.11892*%
%ADD34C,.19472*%
G75*
%LPD*%
G75*
G36*
G01X6000Y519200D02*
X40400D01*
X41700Y517900D01*
Y274000D01*
X16600D01*
Y257000D01*
X41700D01*
Y220496D01*
G02X41139Y220130I-400J0D01*
G03X40291Y220309I-849J-1923D01*
G03X38771Y219659I0J-2102D01*
G02X38179Y219673I-290J276D01*
G03X36592Y220397I-1587J-1377D01*
G03X35073Y219748I0J-2102D01*
G02X34497Y219746I-289J277D01*
G03X32990Y220383I-1507J-1464D01*
G03Y216179I0J-2102D01*
G03X34509Y216828I0J2102D01*
G02X35085Y216830I289J-277D01*
G03X36592Y216193I1507J1464D01*
G03X38112Y216843I0J2102D01*
G02X38704Y216829I290J-276D01*
G03X40291Y216105I1587J1377D01*
G03X41139Y216284I-1J2102D01*
G02X41700Y215918I161J-366D01*
G01Y209399D01*
X41535Y209370D01*
G03X39798Y207300I365J-2070D01*
G03X40483Y205747I2103J0D01*
G02X40499Y205172I-270J-295D01*
G03X39898Y203700I1502J-1472D01*
G03X40632Y202104I2102J0D01*
G02Y201496I-260J-304D01*
G03X39898Y199900I1368J-1596D01*
G03X41543Y197848I2102J0D01*
G01X41700Y197813D01*
Y183954D01*
G02X41049Y183643I-400J0D01*
G03X39727Y184110I-1321J-1635D01*
G03Y179906I0J-2102D01*
G03X41049Y180373I1J2102D01*
G02X41700Y180062I251J-311D01*
G01Y178738D01*
G02X41049Y178427I-400J0D01*
G03X39727Y178894I-1321J-1635D01*
G03Y174690I0J-2102D01*
G03X41049Y175157I1J2102D01*
G02X41700Y174846I251J-311D01*
G01Y163000D01*
G02X41284Y162600I-400J0D01*
G03X41200Y162602I-92J-2100D01*
G03X39098Y160500I0J-2102D01*
G03X39995Y158778I2101J0D01*
G02Y158122I-229J-328D01*
G03X39098Y156400I1204J-1722D01*
G03X40057Y154636I2102J0D01*
G02Y153964I-217J-336D01*
G03X39098Y152200I1143J-1764D01*
G03X41200Y150098I2102J0D01*
G03X41284Y150100I-8J2102D01*
G02X41700Y149700I16J-400D01*
G01Y148632D01*
G02X41012Y148354I-400J0D01*
G03X39500Y148996I-1512J-1459D01*
G03Y144792I0J-2102D01*
G03X41012Y145434I0J2101D01*
G02X41700Y145156I288J-278D01*
G01Y143724D01*
G02X40995Y143466I-400J0D01*
G03X39391Y144209I-1604J-1360D01*
G03X37871Y143559I0J-2102D01*
G02X37279Y143573I-290J276D01*
G03X35692Y144297I-1587J-1377D01*
G03X34173Y143648I0J-2102D01*
G02X33597Y143646I-289J277D01*
G03X32090Y144283I-1507J-1464D01*
G03Y140079I0J-2102D01*
G03X33609Y140728I0J2102D01*
G02X34185Y140730I289J-277D01*
G03X35692Y140093I1507J1464D01*
G03X37212Y140743I0J2102D01*
G02X37804Y140729I290J-276D01*
G03X39391Y140005I1587J1377D01*
G03X40995Y140748I0J2103D01*
G02X41700Y140490I305J-258D01*
G01Y101468D01*
G03Y98662I1564J-1403D01*
G01Y96468D01*
G03Y93662I1564J-1403D01*
G01Y91468D01*
G03Y88662I1564J-1403D01*
G01Y82138D01*
G03Y79332I1564J-1403D01*
G01Y77138D01*
G03Y74332I1564J-1403D01*
G01Y69600D01*
X44900Y66400D01*
X455008D01*
G03X458776I1884J932D01*
G01X716962D01*
G02X717304Y65792I0J-400D01*
G03X716998Y64700I1795J-1092D01*
G03X721202I2102J0D01*
G03X720896Y65792I-2101J0D01*
G02X721238Y66400I342J208D01*
G01X744109D01*
X744148Y66383D01*
G03X745003Y66201I856J1920D01*
G03X745858Y66383I-1J2102D01*
G01X745897Y66400D01*
X860474D01*
G03X863926I1726J1200D01*
G01X904362D01*
X904370Y66209D01*
G03X912830I4230J191D01*
G01X912838Y66400D01*
X928881D01*
X928929Y66270D01*
G03X932871I1971J730D01*
G01X932919Y66400D01*
X935381D01*
X935429Y66270D01*
G03X939371I1971J730D01*
G01X939419Y66400D01*
X941581D01*
X941629Y66270D01*
G03X945571I1971J730D01*
G01X945619Y66400D01*
X967011D01*
G02X967279Y65703I0J-400D01*
G03X965985Y62795I2621J-2908D01*
G03X973815I3915J0D01*
G03X972521Y65703I-3915J0D01*
G02X972789Y66400I268J297D01*
G01X977011D01*
G02X977279Y65703I0J-400D01*
G03X975985Y62795I2621J-2908D01*
G03X983815I3915J0D01*
G03X982521Y65703I-3915J0D01*
G02X982789Y66400I268J297D01*
G01X987011D01*
G02X987279Y65703I0J-400D01*
G03X985985Y62795I2621J-2908D01*
G03X993815I3915J0D01*
G03X992521Y65703I-3915J0D01*
G02X992789Y66400I268J297D01*
G01X997011D01*
G02X997279Y65703I0J-400D01*
G03X995985Y62795I2621J-2908D01*
G03X1003815I3915J0D01*
G03X1002521Y65703I-3915J0D01*
G02X1002789Y66400I268J297D01*
G01X1007011D01*
G02X1007279Y65703I0J-400D01*
G03X1005985Y62795I2621J-2908D01*
G03X1013815I3915J0D01*
G03X1012521Y65703I-3915J0D01*
G02X1012789Y66400I268J297D01*
G01X1047709D01*
G03X1051291I1791J1100D01*
G01X1071400D01*
X1073500Y64300D01*
Y62737D01*
G02X1072798Y62475I-400J0D01*
G03X1069600Y63934I-3198J-2775D01*
G03Y55466I0J-4234D01*
G03X1072798Y56925I0J4234D01*
G02X1073500Y56663I302J-262D01*
G01Y50249D01*
G02X1072807Y49977I-400J0D01*
G03X1069700Y51334I-3107J-2878D01*
G03Y42866I0J-4234D01*
G03X1072807Y44223I0J4235D01*
G02X1073500Y43951I293J-272D01*
G01Y8900D01*
X1071100Y6500D01*
Y4000D01*
X4000D01*
Y415000D01*
X15000D01*
Y481000D01*
X4600D01*
Y517800D01*
X6000Y519200D01*
G37*
G36*
G01X0Y440000D02*
Y435000D01*
X3000D01*
Y440000D01*
X0D01*
G37*
G36*
G01X46300Y499902D02*
G02X45900Y500302I0J400D01*
G01Y519100D01*
X43700Y521300D01*
X4000D01*
Y596000D01*
X582000D01*
Y594583D01*
G03X582341Y594441I200J0D01*
G01X582500Y594600D01*
X582700Y594683D01*
Y596000D01*
X1196000D01*
Y214102D01*
G02X1195360Y213782I-400J0D01*
G03X1194100Y214202I-1261J-1682D01*
G03Y209998I0J-2102D01*
G03X1195360Y210418I-1J2102D01*
G02X1196000Y210098I240J-320D01*
G01Y4000D01*
X1078900D01*
Y7000D01*
X1076400Y9500D01*
Y65600D01*
X1078700Y67900D01*
X1156700D01*
X1158800Y70000D01*
Y116000D01*
X1156700Y118100D01*
X1056300D01*
X1053100Y121300D01*
Y184600D01*
X1055300Y186800D01*
X1155100D01*
X1155200Y186700D01*
X1161000D01*
X1163000Y188700D01*
Y378527D01*
G03Y381473I-1501J1473D01*
G01Y401569D01*
G02X1163700Y401833I400J0D01*
G03X1165276Y401122I1576J1391D01*
G03Y405326I0J2102D01*
G03X1163700Y404615I0J-2102D01*
G02X1163000Y404879I-300J264D01*
G01Y419151D01*
G03Y422849I-1000J1849D01*
G01Y469700D01*
X1153051D01*
G02X1152657Y470164I1J400D01*
G03X1152707Y470786I-3806J619D01*
G03X1144995I-3856J0D01*
G03X1145045Y470164I3856J-3D01*
G02X1144651Y469700I-395J-64D01*
G01X1129141D01*
G03X1126633I-1254J-1687D01*
G01X1096949D01*
G02X1096555Y470164I1J400D01*
G03X1096605Y470786I-3806J619D01*
G03X1088893I-3856J0D01*
G03X1088943Y470164I3856J-3D01*
G02X1088549Y469700I-395J-64D01*
G01X1066151D01*
G02X1065757Y470164I1J400D01*
G03X1065807Y470786I-3806J619D01*
G03X1058095I-3856J0D01*
G03X1058145Y470164I3856J-3D01*
G02X1057751Y469700I-395J-64D01*
G01X1041913D01*
G03X1040061I-926J-1887D01*
G01X1035348D01*
X1035319Y469709D01*
G03X1034700Y469802I-618J-2009D01*
G03X1034081Y469709I-1J-2102D01*
G01X1034052Y469700D01*
X1010049D01*
G02X1009655Y470164I1J400D01*
G03X1009705Y470786I-3806J619D01*
G03X1001993I-3856J0D01*
G03X1002043Y470164I3856J-3D01*
G02X1001649Y469700I-395J-64D01*
G01X978351D01*
G02X977957Y470164I1J400D01*
G03X978007Y470786I-3806J619D01*
G03X970295I-3856J0D01*
G03X970345Y470164I3856J-3D01*
G02X969951Y469700I-395J-64D01*
G01X954113D01*
G03X952261I-926J-1887D01*
G01X947548D01*
X947519Y469709D01*
G03X946900Y469802I-618J-2009D01*
G03X946281Y469709I-1J-2102D01*
G01X946252Y469700D01*
X922249D01*
G02X921855Y470164I1J400D01*
G03X921905Y470786I-3806J619D01*
G03X914193I-3856J0D01*
G03X914243Y470164I3856J-3D01*
G02X913849Y469700I-395J-64D01*
G01X863251D01*
G02X862857Y470164I1J400D01*
G03X862907Y470786I-3806J619D01*
G03X855195I-3856J0D01*
G03X855245Y470164I3856J-3D01*
G02X854851Y469700I-395J-64D01*
G01X839013D01*
G03X837161I-926J-1887D01*
G01X807149D01*
G02X806755Y470164I1J400D01*
G03X806805Y470786I-3806J619D01*
G03X799093I-3856J0D01*
G03X799143Y470164I3856J-3D01*
G02X798749Y469700I-395J-64D01*
G01X775451D01*
G02X775057Y470164I1J400D01*
G03X775107Y470786I-3806J619D01*
G03X767395I-3856J0D01*
G03X767445Y470164I3856J-3D01*
G02X767051Y469700I-395J-64D01*
G01X751213D01*
G03X749361I-926J-1887D01*
G01X744648D01*
X744619Y469709D01*
G03X744000Y469802I-618J-2009D01*
G03X743381Y469709I-1J-2102D01*
G01X743352Y469700D01*
X719349D01*
G02X718955Y470164I1J400D01*
G03X719005Y470786I-3806J619D01*
G03X711293I-3856J0D01*
G03X711343Y470164I3856J-3D01*
G02X710949Y469700I-395J-64D01*
G01X688351D01*
G02X687957Y470164I1J400D01*
G03X688007Y470786I-3806J619D01*
G03X680295I-3856J0D01*
G03X680345Y470164I3856J-3D01*
G02X679951Y469700I-395J-64D01*
G01X664113D01*
G03X662261I-926J-1887D01*
G01X657548D01*
X657519Y469709D01*
G03X656900Y469802I-618J-2009D01*
G03X656281Y469709I-1J-2102D01*
G01X656252Y469700D01*
X632249D01*
G02X631855Y470164I1J400D01*
G03X631905Y470786I-3806J619D01*
G03X624193I-3856J0D01*
G03X624243Y470164I3856J-3D01*
G02X623849Y469700I-395J-64D01*
G01X618600D01*
X617500Y470800D01*
Y478953D01*
X617639Y478998D01*
G03Y483002I-638J2002D01*
G01X617500Y483047D01*
Y507000D01*
X614100Y510400D01*
X328494D01*
G02X328095Y510832I0J400D01*
G03X328102Y511000I-2095J171D01*
G03X323898I-2102J0D01*
G03X323905Y510832I2102J3D01*
G02X323506Y510400I-399J-32D01*
G01X309494D01*
G02X309095Y510832I0J400D01*
G03X309102Y511000I-2095J171D01*
G03X307068Y513101I-2102J0D01*
G02X306728Y513687I14J400D01*
G03X306971Y514669I-1859J981D01*
G03X302767I-2102J0D01*
G03X304801Y512568I2102J0D01*
G02X305141Y511982I-14J-400D01*
G03X304898Y511000I1859J-981D01*
G03X304905Y510832I2102J3D01*
G02X304506Y510400I-399J-32D01*
G01X299494D01*
G02X299095Y510832I0J400D01*
G03X299102Y511000I-2095J171D01*
G03X298859Y511981I-2102J0D01*
G02X299216Y512567I354J186D01*
G01X299232D01*
G03X297130Y514669I0J2102D01*
G03X297373Y513688I2102J0D01*
G02X297016Y513102I-354J-186D01*
G01X297000D01*
G03X294898Y511000I0J-2102D01*
G03X294905Y510832I2102J3D01*
G02X294506Y510400I-399J-32D01*
G01X285069D01*
X285029Y510548D01*
G03X280971I-2029J-548D01*
G01X280931Y510400D01*
X263494D01*
G02X263095Y510832I0J400D01*
G03X263102Y511000I-2095J171D01*
G03X258898I-2102J0D01*
G03X258905Y510832I2102J3D01*
G02X258506Y510400I-399J-32D01*
G01X243891D01*
X243843Y510530D01*
G03X239901I-1971J-730D01*
G01X239853Y510400D01*
X230494D01*
G02X230095Y510832I0J400D01*
G03X230102Y511000I-2095J171D01*
G03X225898I-2102J0D01*
G03X225905Y510832I2102J3D01*
G02X225506Y510400I-399J-32D01*
G01X178638D01*
G02X178360Y511088I0J400D01*
G03X179002Y512600I-1459J1512D01*
G03X174798I-2102J0D01*
G03X175440Y511088I2101J0D01*
G02X175162Y510400I-278J-288D01*
G01X124700D01*
X124500Y510600D01*
X123200Y509300D01*
Y260000D01*
X79832D01*
G02X79527Y260659I0J400D01*
G03X80534Y263400I-3227J2741D01*
G03X72066I-4234J0D01*
G03X73073Y260659I4234J0D01*
G02X72768Y260000I-305J-259D01*
G01X63800D01*
Y279700D01*
X45900D01*
Y495298D01*
G02X46300Y495698I400J0D01*
G03Y499902I0J2102D01*
G37*
G36*
G01X55470Y273000D02*
X61300D01*
Y220203D01*
G02X60659Y219884I-400J0D01*
G03X59391Y220309I-1267J-1677D01*
G03X57871Y219659I0J-2102D01*
G02X57279Y219673I-290J276D01*
G03X55692Y220397I-1587J-1377D01*
G03X54173Y219748I0J-2102D01*
G02X53597Y219746I-289J277D01*
G03X52090Y220383I-1507J-1464D01*
G03Y216179I0J-2102D01*
G03X53609Y216828I0J2102D01*
G02X54185Y216830I289J-277D01*
G03X55692Y216193I1507J1464D01*
G03X57212Y216843I0J2102D01*
G02X57804Y216829I290J-276D01*
G03X59391Y216105I1587J1377D01*
G03X60659Y216530I1J2102D01*
G02X61300Y216211I241J-319D01*
G01Y125747D01*
G02X60724Y125388I-400J0D01*
G03X59800Y125602I-924J-1888D01*
G03Y121398I0J-2102D01*
G03X60724Y121612I0J2102D01*
G02X61300Y121253I176J-359D01*
G01Y87400D01*
X43200D01*
Y87767D01*
G02X43388Y87967I200J0D01*
G03Y92163I-123J2098D01*
G02X43200Y92363I12J200D01*
G01Y92767D01*
G02X43388Y92967I200J0D01*
G03Y97163I-123J2098D01*
G02X43200Y97363I12J200D01*
G01Y97767D01*
G02X43388Y97967I200J0D01*
G03Y102163I-123J2098D01*
G02X43200Y102363I12J200D01*
G01Y151552D01*
X43209Y151581D01*
G03X43302Y152200I-2009J618D01*
G03X43209Y152819I-2102J1D01*
G01X43200Y152848D01*
Y155752D01*
X43209Y155781D01*
G03X43302Y156400I-2009J618D01*
G03X43209Y157019I-2102J1D01*
G01X43200Y157048D01*
Y159852D01*
X43209Y159881D01*
G03X43302Y160500I-2009J618D01*
G03X43209Y161119I-2102J1D01*
G01X43200Y161148D01*
Y162905D01*
G02X43792Y163256I400J0D01*
G03X44800Y162998I1009J1844D01*
G03Y167202I0J2102D01*
G03X43792Y166944I1J-2102D01*
G02X43200Y167295I-192J351D01*
G01Y190662D01*
G02X43808Y191004I400J0D01*
G03X44900Y190698I1092J1795D01*
G03Y194902I0J2102D01*
G03X43808Y194596I0J-2101D01*
G02X43200Y194938I-208J342D01*
G01Y198174D01*
G03X44102Y199900I-1200J1726D01*
G03X43278Y201569I-2102J0D01*
G01X43200Y201629D01*
Y201971D01*
X43278Y202031D01*
G03Y205369I-1278J1669D01*
G01X43200Y205429D01*
Y205646D01*
X43270Y205706D01*
G03X44002Y207300I-1370J1594D01*
G03X43200Y208952I-2102J0D01*
G01Y237006D01*
G02X43934Y237226I400J0D01*
G03X45690Y236279I1756J1155D01*
G03X47209Y236928I0J2102D01*
G02X47785Y236930I289J-277D01*
G03X49292Y236293I1507J1464D01*
G03X50812Y236943I0J2102D01*
G02X51404Y236929I290J-276D01*
G03X52991Y236205I1587J1377D01*
G03Y240409I0J2102D01*
G03X51471Y239759I0J-2102D01*
G02X50879Y239773I-290J276D01*
G03X49292Y240497I-1587J-1377D01*
G03X47773Y239848I0J-2102D01*
G02X47197Y239846I-289J277D01*
G03X45690Y240483I-1507J-1464D01*
G03X43934Y239536I0J-2102D01*
G02X43200Y239756I-334J220D01*
G01Y257300D01*
X42900D01*
Y258000D01*
X17600D01*
Y273000D01*
X45530D01*
G02X45925Y272536I0J-400D01*
G03X45898Y272200I2075J-336D01*
G03X48000Y270098I2102J0D01*
G03X50102Y272198I0J2102D01*
G02X50502Y272598I400J0D01*
G03X50689Y272607I-7J2102D01*
G02X50907Y272389I18J-200D01*
G03X50898Y272200I2093J-194D01*
G03X55102I2102J0D01*
G03X55075Y272536I-2102J0D01*
G02X55470Y273000I395J64D01*
G37*
G36*
G01X112402Y257200D02*
X122900D01*
Y86700D01*
X64000D01*
Y235910D01*
G02X64462Y236305I400J0D01*
G03X64790Y236279I330J2076D01*
G03X66309Y236928I0J2102D01*
G02X66885Y236930I289J-277D01*
G03X68392Y236293I1507J1464D01*
G03X69912Y236943I0J2102D01*
G02X70504Y236929I290J-276D01*
G03X72091Y236205I1587J1377D01*
G03Y240409I0J2102D01*
G03X70571Y239759I0J-2102D01*
G02X69979Y239773I-290J276D01*
G03X68392Y240497I-1587J-1377D01*
G03X66873Y239848I0J-2102D01*
G02X66297Y239846I-289J277D01*
G03X64790Y240483I-1507J-1464D01*
G03X64462Y240457I2J-2102D01*
G02X64000Y240852I-62J395D01*
G01Y257200D01*
X88998D01*
G02X89318Y256560I0J-400D01*
G03X88898Y255300I1682J-1261D01*
G03X89257Y254125I2102J0D01*
G02X88938Y253501I-331J-224D01*
G03X86898Y251400I62J-2101D01*
G03X91102I2102J0D01*
G03X90743Y252575I-2102J0D01*
G02X91062Y253199I331J224D01*
G03X93102Y255300I-62J2101D01*
G03X92682Y256560I-2102J-1D01*
G02X93002Y257200I320J240D01*
G01X108398D01*
G02X108718Y256560I0J-400D01*
G03X108298Y255300I1682J-1261D01*
G03X112502I2102J0D01*
G03X112082Y256560I-2102J-1D01*
G02X112402Y257200I320J240D01*
G37*
G36*
G01X341195Y508600D02*
X610300D01*
X612200Y506700D01*
Y420277D01*
G02X611788Y419877I-400J0D01*
G03X611724Y419878I-65J-2101D01*
G03Y415674I0J-2102D01*
G03X611788Y415675I-1J2102D01*
G02X612200Y415275I12J-400D01*
G01Y389100D01*
X613800Y387500D01*
X672953D01*
X672998Y387361D01*
G03X677002I2002J638D01*
G01X677047Y387500D01*
X711701D01*
G03X713499I899J1899D01*
G01X797032D01*
G03X800168I1568J1400D01*
G01X813753D01*
G02X814112Y386924I0J-400D01*
G03X813898Y386000I1888J-924D01*
G03X814209Y384900I2101J0D01*
G02X813923Y384294I-341J-210D01*
G03X810266Y380100I576J-4194D01*
G03X818734I4234J0D01*
G03X817011Y383509I-4234J0D01*
G02X817048Y384178I237J322D01*
G03X818102Y386000I-1048J1822D01*
G03X817888Y386924I-2102J0D01*
G02X818247Y387500I359J176D01*
G01X822753D01*
G02X823112Y386924I0J-400D01*
G03X822898Y386000I1888J-924D01*
G03X824210Y384052I2102J0D01*
G02X824313Y383372I-150J-371D01*
G03X822766Y380100I2687J-3272D01*
G03X831234I4234J0D01*
G03X827143Y384332I-4234J0D01*
G02X826812Y384934I14J399D01*
G03X827102Y386000I-1812J1065D01*
G03X826888Y386924I-2102J0D01*
G02X827247Y387500I359J176D01*
G01X857313D01*
X857348Y387343D01*
G03X861452I2052J457D01*
G01X861487Y387500D01*
X911809D01*
G03X915391I1791J1100D01*
G01X930753D01*
G02X931112Y386924I0J-400D01*
G03X930898Y386000I1888J-924D01*
G03X931104Y385093I2102J0D01*
G02X930774Y384521I-361J-173D01*
G03X926866Y380300I326J-4221D01*
G03X935334I4234J0D01*
G03X933894Y383481I-4233J0D01*
G02X933973Y384137I264J301D01*
G03X935102Y386000I-973J1863D01*
G03X934888Y386924I-2102J0D01*
G02X935247Y387500I359J176D01*
G01X939753D01*
G02X940112Y386924I0J-400D01*
G03X939898Y386000I1888J-924D01*
G03X940877Y384223I2102J0D01*
G02X940917Y383575I-213J-338D01*
G03X939366Y380300I2682J-3275D01*
G03X947834I4234J0D01*
G03X944187Y384493I-4234J0D01*
G02X943884Y385067I55J396D01*
G03X944102Y386000I-1884J932D01*
G03X943888Y386924I-2102J0D01*
G02X944247Y387500I359J176D01*
G01X967577D01*
G02X967884Y386844I0J-400D01*
G03X967398Y385500I1615J-1344D01*
G03X971602I2102J0D01*
G03X971116Y386844I-2101J0D01*
G02X971423Y387500I307J256D01*
G01X1019398D01*
G02X1019598Y387300I0J-200D01*
G03X1023802I2102J0D01*
G02X1024002Y387500I200J0D01*
G01X1029298D01*
G02X1029698Y387100I0J-400D01*
G03X1033902I2102J0D01*
G02X1034302Y387500I400J0D01*
G01X1052571D01*
G02X1052959Y387004I0J-400D01*
G03X1052898Y386500I2041J-503D01*
G03X1057102I2102J0D01*
G03X1057041Y387004I-2102J1D01*
G02X1057429Y387500I388J96D01*
G01X1082606D01*
X1082692Y387414D01*
X1106713D01*
G02X1107079Y386852I0J-400D01*
G03X1106898Y386000I1921J-853D01*
G03X1107101Y385098I2102J-1D01*
G02X1106762Y384527I-361J-172D01*
G03X1102766Y380300I238J-4227D01*
G03X1111234I4234J0D01*
G03X1109827Y383452I-4234J0D01*
G02X1109919Y384110I267J298D01*
G03X1111102Y386000I-918J1890D01*
G03X1110921Y386852I-2102J-1D01*
G02X1111287Y387414I366J162D01*
G01X1115713D01*
G02X1116079Y386852I0J-400D01*
G03X1115898Y386000I1921J-853D01*
G03X1116889Y384215I2103J0D01*
G02X1116922Y383558I-211J-340D01*
G03X1115266Y380200I2577J-3358D01*
G03X1123734I4234J0D01*
G03X1120127Y384387I-4234J0D01*
G02X1119837Y384977I59J395D01*
G03X1120102Y386000I-1837J1022D01*
G03X1119921Y386852I-2102J-1D01*
G02X1120287Y387414I366J162D01*
G01X1120408D01*
X1120494Y387500D01*
X1156200D01*
Y361944D01*
G03Y358056I800J-1944D01*
G01Y277086D01*
G03X1155898Y276000I1800J-1086D01*
G03X1156200Y274914I2102J0D01*
G01Y190900D01*
X1154500Y189200D01*
X1051300D01*
X1050200Y188100D01*
Y118000D01*
X1051800Y116400D01*
X1155700D01*
X1156200Y115900D01*
Y71400D01*
X1155500Y70700D01*
X1068248D01*
X1068219Y70709D01*
G03X1067600Y70802I-618J-2009D01*
G03X1066981Y70709I-1J-2102D01*
G01X1066952Y70700D01*
X1008868D01*
G02X1008500Y71257I0J400D01*
G03X1008815Y72795I-3600J1539D01*
G03X1000985I-3915J0D01*
G03X1001300Y71257I3915J1D01*
G02X1000932Y70700I-368J-157D01*
G01X998868D01*
G02X998500Y71257I0J400D01*
G03X998815Y72795I-3600J1539D01*
G03X990985I-3915J0D01*
G03X991300Y71257I3915J1D01*
G02X990932Y70700I-368J-157D01*
G01X988868D01*
G02X988500Y71257I0J400D01*
G03X988815Y72795I-3600J1539D01*
G03X980985I-3915J0D01*
G03X981300Y71257I3915J1D01*
G02X980932Y70700I-368J-157D01*
G01X978868D01*
G02X978500Y71257I0J400D01*
G03X978815Y72795I-3600J1539D01*
G03X970985I-3915J0D01*
G03X971300Y71257I3915J1D01*
G02X970932Y70700I-368J-157D01*
G01X968814D01*
Y75724D01*
G03X967829Y76710I-986J0D01*
G01X961971D01*
G03X960986Y75724I0J-985D01*
G01Y70700D01*
X601393D01*
G02X601027Y71260I0J400D01*
G03X601202Y72100I-1927J840D01*
G03X596998I-2102J0D01*
G03X597173Y71260I2102J0D01*
G02X596807Y70700I-366J-160D01*
G01X569970D01*
G02X569575Y71164I0J400D01*
G03X569602Y71500I-2075J336D01*
G03X565398I-2102J0D01*
G03X565425Y71164I2102J0D01*
G02X565030Y70700I-395J-64D01*
G01X375393D01*
G02X375027Y71260I0J400D01*
G03X375202Y72100I-1927J840D01*
G03X370998I-2102J0D01*
G03X371173Y71260I2102J0D01*
G02X370807Y70700I-366J-160D01*
G01X341140D01*
G02X340740Y71084I0J400D01*
G03X336540I-2100J-84D01*
G02X336140Y70700I-400J16D01*
G01X333562D01*
G02X333178Y71212I0J400D01*
G03X333262Y71800I-2018J588D01*
G03X329058I-2102J0D01*
G03X329142Y71212I2102J0D01*
G02X328758Y70700I-384J-112D01*
G01X291026D01*
G03X287574I-1726J-1200D01*
G01X143509D01*
G02X143340Y71462I1J400D01*
G03X146513Y76454I-2340J4992D01*
G03X135487I-5513J0D01*
G03X138660Y71462I5513J0D01*
G02X138491Y70700I-170J-362D01*
G01X126974D01*
G02X126805Y71462I1J400D01*
G03X129978Y76454I-2340J4992D01*
G03X125657Y81837I-5514J0D01*
G01X125500Y81871D01*
Y367298D01*
G02X126012Y367682I400J0D01*
G03X126600Y367598I588J2018D01*
G03Y371802I0J2102D01*
G03X126012Y371718I0J-2102D01*
G02X125500Y372102I-112J384D01*
G01Y507100D01*
X127000Y508600D01*
X240146D01*
G03X243598I1726J1200D01*
G01X281432D01*
G03X284568I1568J1400D01*
G01X314506D01*
G02X314905Y508168I0J-400D01*
G03X314898Y508000I2095J-171D01*
G03X319102I2102J0D01*
G03X319095Y508168I-2102J-3D01*
G02X319494Y508600I399J32D01*
G01X336805D01*
G02X337156Y508008I0J-400D01*
G03X336898Y507000I1844J-1009D01*
G03X341102I2102J0D01*
G03X340844Y508008I-2102J-1D01*
G02X341195Y508600I351J192D01*
G37*
G36*
G01X645184Y467400D02*
X654813D01*
X654848Y467243D01*
G03X655900Y465851I2052J457D01*
G01Y436842D01*
G03Y429140I200J-3851D01*
G01Y389200D01*
X655200Y388500D01*
X634724D01*
G02X634418Y389157I0J400D01*
G03X634908Y390506I-1612J1349D01*
G03X630704I-2102J0D01*
G03X631194Y389157I2102J0D01*
G02X630888Y388500I-306J-257D01*
G01X627505D01*
G02X627264Y389219I0J400D01*
G03X628096Y390894I-1270J1675D01*
G03X623892I-2102J0D01*
G03X624724Y389219I2102J0D01*
G02X624483Y388500I-241J-319D01*
G01X620247D01*
G02X619888Y389076I0J400D01*
G03X620102Y390000I-1888J924D01*
G03X618000Y392102I-2102J0D01*
G03X617916Y392100I8J-2102D01*
G02X617500Y392500I-16J400D01*
G01Y398816D01*
G02X617948Y399213I400J0D01*
G03X618200Y399198I251J2087D01*
G03Y403402I0J2102D01*
G03X617948Y403387I-1J-2102D01*
G02X617500Y403784I-48J397D01*
G01Y418500D01*
G02X617916Y418900I400J0D01*
G03X618000Y418898I92J2100D01*
G03Y423102I0J2102D01*
G03X617916Y423100I8J-2102D01*
G02X617500Y423500I-16J400D01*
G01Y466600D01*
X618300Y467400D01*
X626204D01*
G03X629894I1845J3386D01*
G01X640216D01*
G02X640613Y466952I0J-400D01*
G03X640598Y466700I2087J-251D01*
G03X644802I2102J0D01*
G03X644787Y466952I-2102J1D01*
G02X645184Y467400I397J48D01*
G37*
G36*
G01X685996D02*
X694500D01*
X695300Y466600D01*
Y424236D01*
G03Y421764I1699J-1236D01*
G01Y403969D01*
X695152Y403929D01*
G03Y399871I548J-2029D01*
G01X695300Y399831D01*
Y393536D01*
G02X694628Y393242I-400J-1D01*
G03X693200Y393802I-1428J-1541D01*
G03X691125Y392034I0J-2102D01*
G02X690470Y391793I-395J63D01*
G03X689106Y392296I-1364J-1598D01*
G03X687004Y390194I0J-2102D01*
G03X687307Y389107I2101J0D01*
G02X686965Y388500I-342J-207D01*
G01X684860D01*
G02X684643Y389236I0J400D01*
G03X685602Y391000I-1143J1764D01*
G03X681398I-2102J0D01*
G03X682357Y389236I2102J0D01*
G02X682140Y388500I-217J-336D01*
G01X677047D01*
X677002Y388639D01*
G03X672998I-2002J-638D01*
G01X672953Y388500D01*
X657700D01*
X656900Y389300D01*
Y429216D01*
X657051Y429254D01*
G03Y436728I-951J3737D01*
G01X656900Y436766D01*
Y465598D01*
G03X658952Y467243I0J2102D01*
G01X658987Y467400D01*
X661120D01*
X661161Y467253D01*
G03X665213I2026J560D01*
G01X665254Y467400D01*
X682306D01*
G03X685996I1845J3386D01*
G37*
G36*
G01X705400Y403402D02*
G02X705000Y403802I0J400D01*
G01Y447400D01*
X704900Y447500D01*
Y466600D01*
X705700Y467400D01*
X713304D01*
G03X716994I1845J3386D01*
G01X727316D01*
G02X727713Y466952I0J-400D01*
G03X727698Y466700I2087J-251D01*
G03X731902I2102J0D01*
G03X731887Y466952I-2102J1D01*
G02X732284Y467400I397J48D01*
G01X741913D01*
X741948Y467243D01*
G03X743178Y465765I2052J457D01*
G01X743300Y465714D01*
Y448200D01*
X743314Y448185D01*
Y437046D01*
G02X743119Y436846I-200J0D01*
G03Y429136I81J-3855D01*
G02X743314Y428936I-5J-200D01*
G01Y395467D01*
G02X742848Y395073I-400J0D01*
G03X742500Y395102I-348J-2074D01*
G03Y390898I0J-2102D01*
G03X742848Y390927I0J2103D01*
G02X743314Y390533I66J-394D01*
G01Y389215D01*
X742700Y388600D01*
X721904D01*
G02X721585Y389241I0J400D01*
G03X722008Y390506I-1680J1265D01*
G03X719906Y392608I-2102J0D01*
G03X718121Y391615I0J-2101D01*
G02X717432Y391630I-340J211D01*
G03X715600Y392702I-1832J-1029D01*
G03X713674Y391442I0J-2102D01*
G02X713414Y391338I-183J81D01*
G03X712600Y391502I-814J-1938D01*
G03X710498Y389400I0J-2102D01*
G03X710525Y389064I2102J0D01*
G02X710130Y388600I-395J-64D01*
G01X705800D01*
X705000Y389400D01*
Y398798D01*
G02X705400Y399198I400J0D01*
G03Y403402I0J2102D01*
G37*
G36*
G01X773096Y467400D02*
X781900D01*
X782700Y466600D01*
Y423652D01*
G03Y420348I1300J-1652D01*
G01Y416295D01*
G02X782108Y415944I-400J0D01*
G03X781100Y416202I-1009J-1844D01*
G03Y411998I0J-2102D01*
G03X782108Y412256I-1J2102D01*
G02X782700Y411905I192J-351D01*
G01Y393338D01*
G02X782012Y393060I-400J0D01*
G03X780500Y393702I-1512J-1459D01*
G03Y389498I0J-2102D01*
G03X782012Y390140I0J2101D01*
G02X782700Y389862I288J-278D01*
G01Y389300D01*
X782000Y388600D01*
X745100D01*
X744300Y389400D01*
Y391914D01*
G03X744602Y393000I-1800J1086D01*
G03X744300Y394086I-2102J0D01*
G01Y412129D01*
G02X744828Y412508I400J0D01*
G03X745500Y412398I671J1992D01*
G03Y416602I0J2102D01*
G03X744828Y416492I-1J-2102D01*
G02X744300Y416871I-128J379D01*
G01Y429295D01*
G03Y436687I-1100J3696D01*
G01Y465613D01*
X744457Y465648D01*
G03X746052Y467243I-457J2052D01*
G01X746087Y467400D01*
X748220D01*
X748261Y467253D01*
G03X752313I2026J560D01*
G01X752354Y467400D01*
X769406D01*
G03X773096I1845J3386D01*
G37*
G36*
G01X826060D02*
X827514D01*
G02X827913Y467025I0J-400D01*
G03X830011Y465053I2098J130D01*
G03X830422Y465094I-2J2102D01*
G02X830900Y464701I78J-392D01*
G01Y436846D01*
G03Y429136I100J-3855D01*
G01Y389300D01*
X830200Y388600D01*
X809704D01*
G02X809385Y389241I0J400D01*
G03X809808Y390506I-1680J1265D01*
G03X805604I-2102J0D01*
G03X806027Y389241I2103J0D01*
G02X805708Y388600I-319J-241D01*
G01X802529D01*
G02X802267Y389303I-1J400D01*
G03X802996Y390894I-1372J1591D01*
G03X800894Y392996I-2102J0D01*
G03X798811Y391175I0J-2102D01*
G02X798612Y391002I-198J27D01*
G01X798600D01*
G03X796500Y388984I0J-2102D01*
G02X796100Y388600I-400J16D01*
G01X793300D01*
X792500Y389400D01*
Y398929D01*
G02X793028Y399308I400J0D01*
G03X793700Y399198I671J1992D01*
G03Y403402I0J2102D01*
G03X793028Y403292I-1J-2102D01*
G02X792500Y403671I-128J379D01*
G01Y419627D01*
G03Y422573I-1501J1473D01*
G01Y466600D01*
X793300Y467400D01*
X801104D01*
G03X804794I1845J3386D01*
G01X815116D01*
G02X815513Y466952I0J-400D01*
G03X815498Y466700I2087J-251D01*
G03X819702I2102J0D01*
G03X819687Y466952I-2102J1D01*
G02X820084Y467400I397J48D01*
G01X821324D01*
G02X821703Y466871I0J-400D01*
G03X821590Y466192I1989J-680D01*
G03X825794I2102J0D01*
G03X825681Y466871I-2102J-1D01*
G02X826060Y467400I379J129D01*
G37*
G36*
G01X860896D02*
X869500D01*
X870300Y466600D01*
Y422986D01*
X870178Y422935D01*
G03Y419065I823J-1935D01*
G01X870300Y419014D01*
Y403552D01*
G03Y400248I1300J-1652D01*
G01Y392960D01*
G02X869564Y392743I-400J0D01*
G03X867800Y393702I-1764J-1143D01*
G03X865776Y392169I0J-2103D01*
G02X865170Y391944I-385J108D01*
G03X864006Y392296I-1164J-1750D01*
G03X861904Y390194I0J-2102D01*
G03X862159Y389191I2102J0D01*
G02X861807Y388600I-352J-191D01*
G01X861344D01*
G03X857456I-1944J-800D01*
G01X832700D01*
X831900Y389400D01*
Y429238D01*
X832046Y429280D01*
G03Y436702I-1045J3711D01*
G01X831900Y436744D01*
Y466233D01*
G03X832068Y466722I-1889J922D01*
G01X832080Y466780D01*
X832700Y467400D01*
X836020D01*
X836061Y467253D01*
G03X840113I2026J560D01*
G01X840154Y467400D01*
X857206D01*
G03X860896I1845J3386D01*
G37*
G36*
G01X935184D02*
X944813D01*
X944848Y467243D01*
G03X945800Y465909I2052J457D01*
G01Y436839D01*
X945625Y436818D01*
G03Y429164I475J-3827D01*
G01X945800Y429143D01*
Y389200D01*
X945100Y388500D01*
X924624D01*
G02X924318Y389157I0J400D01*
G03X924808Y390506I-1612J1349D01*
G03X920604I-2102J0D01*
G03X921094Y389157I2102J0D01*
G02X920788Y388500I-306J-257D01*
G01X917405D01*
G02X917164Y389219I0J400D01*
G03X917996Y390894I-1270J1675D01*
G03X915894Y392996I-2102J0D01*
G03X913792Y390901I0J-2102D01*
G02X913593Y390702I-200J1D01*
G03X911500Y388691I7J-2102D01*
G01X911492Y388500D01*
X908200D01*
X907400Y389300D01*
Y466600D01*
X908200Y467400D01*
X916204D01*
G03X919894I1845J3386D01*
G01X930216D01*
G02X930613Y466952I0J-400D01*
G03X930598Y466700I2087J-251D01*
G03X934802I2102J0D01*
G03X934787Y466952I-2102J1D01*
G02X935184Y467400I397J48D01*
G37*
G36*
G01X975799Y467300D02*
X984400D01*
X985200Y466500D01*
Y423444D01*
G03Y419556I800J-1944D01*
G01Y415623D01*
G02X984544Y415316I-400J0D01*
G03X983200Y415802I-1344J-1615D01*
G03Y411598I0J-2102D01*
G03X984544Y412084I0J2101D01*
G02X985200Y411777I256J-307D01*
G01Y393423D01*
G02X984544Y393116I-400J0D01*
G03X983200Y393602I-1344J-1615D01*
G03Y389398I0J-2102D01*
G03X984544Y389884I0J2101D01*
G02X985200Y389577I256J-307D01*
G01Y389200D01*
X984500Y388500D01*
X947600D01*
X946800Y389300D01*
Y429196D01*
X946956Y429231D01*
G03Y436751I-856J3760D01*
G01X946800Y436786D01*
Y465400D01*
G02X946991Y465600I200J0D01*
G03X948929Y467152I-91J2100D01*
G01X948969Y467300D01*
X951143D01*
X951188Y467162D01*
G03X955186I1999J651D01*
G01X955231Y467300D01*
X972503D01*
G03X975799I1648J3485D01*
G37*
G36*
G01X1022970Y467500D02*
X1032601D01*
X1032630Y467335D01*
G03X1033600Y465909I2070J365D01*
G01Y436839D01*
X1033425Y436818D01*
G03Y429164I475J-3827D01*
G01X1033600Y429143D01*
Y389200D01*
X1033133Y388733D01*
X1032996Y388828D01*
G03X1031800Y389202I-1197J-1728D01*
G03X1030232Y388500I0J-2102D01*
G01X1023426D01*
G03X1019974I-1726J-1200D01*
G01X1012424D01*
G02X1012118Y389157I0J400D01*
G03X1012608Y390506I-1612J1349D01*
G03X1008404I-2102J0D01*
G03X1008894Y389157I2102J0D01*
G02X1008588Y388500I-306J-257D01*
G01X996000D01*
X995200Y389300D01*
Y466700D01*
X996000Y467500D01*
X1003831D01*
G03X1007867I2018J3287D01*
G01X1018030D01*
G02X1018425Y467036I0J-400D01*
G03X1018398Y466700I2075J-336D01*
G03X1022602I2102J0D01*
G03X1022575Y467036I-2102J0D01*
G02X1022970Y467500I395J64D01*
G37*
G36*
G01X1063969D02*
X1072200D01*
X1073000Y466700D01*
Y427125D01*
X1072976D01*
G03Y422921I0J-2102D01*
G01X1073000D01*
Y415534D01*
G02X1072456Y415161I-400J0D01*
G03X1071700Y415302I-757J-1961D01*
G03Y411098I0J-2102D01*
G03X1072456Y411239I-1J2102D01*
G02X1073000Y410866I144J-373D01*
G01Y394095D01*
G02X1072408Y393744I-400J0D01*
G03X1071400Y394002I-1009J-1844D01*
G03Y389798I0J-2102D01*
G03X1072408Y390056I-1J2102D01*
G02X1073000Y389705I192J-351D01*
G01Y389200D01*
X1072300Y388500D01*
X1068947D01*
G02X1068605Y389107I0J400D01*
G03X1068908Y390194I-1798J1087D01*
G03X1064704I-2102J0D01*
G03X1065007Y389107I2101J0D01*
G02X1064665Y388500I-342J-207D01*
G01X1062241D01*
G02X1061882Y389076I0J400D01*
G03X1062096Y390000I-1888J924D01*
G03X1057892I-2102J0D01*
G03X1058106Y389076I2102J0D01*
G02X1057747Y388500I-359J-176D01*
G01X1055648D01*
X1055619Y388509D01*
G03X1055000Y388602I-618J-2009D01*
G03X1054381Y388509I-1J-2102D01*
G01X1054352Y388500D01*
X1035400D01*
X1034600Y389300D01*
Y429196D01*
X1034756Y429231D01*
G03Y436751I-856J3760D01*
G01X1034600Y436786D01*
Y465400D01*
G02X1034791Y465600I200J0D01*
G03X1036770Y467335I-91J2100D01*
G01X1036799Y467500D01*
X1038902D01*
X1038938Y467345D01*
G03X1043036I2049J468D01*
G01X1043072Y467500D01*
X1059933D01*
G03X1063969I2018J3287D01*
G37*
G36*
G01X1109894D02*
X1119171D01*
G02X1119559Y467004I0J-400D01*
G03X1119498Y466500I2041J-503D01*
G03X1120700Y464600I2103J0D01*
G01Y436846D01*
G03Y429136I100J-3855D01*
G01Y389100D01*
X1120000Y388400D01*
X1093703D01*
G02X1093463Y389120I0J400D01*
G03X1094302Y390800I-1263J1680D01*
G03X1090098I-2102J0D01*
G03X1090937Y389120I2102J0D01*
G02X1090697Y388400I-240J-320D01*
G01X1083100D01*
X1082300Y389200D01*
Y466700D01*
X1083100Y467500D01*
X1090731D01*
G03X1094767I2018J3287D01*
G01X1104906D01*
G02X1105305Y467068I0J-400D01*
G03X1105298Y466900I2095J-171D01*
G03X1109502I2102J0D01*
G03X1109495Y467068I-2102J-3D01*
G02X1109894Y467500I399J32D01*
G37*
G36*
G01X1150869D02*
X1159000D01*
X1159800Y466700D01*
Y393060D01*
G02X1159064Y392843I-400J0D01*
G03X1157300Y393802I-1764J-1143D01*
G03Y389598I0J-2102D01*
G03X1159064Y390557I0J2102D01*
G02X1159800Y390340I336J-217D01*
G01Y389100D01*
X1159100Y388400D01*
X1157186D01*
Y388486D01*
X1122115D01*
X1121686Y388915D01*
Y429235D01*
X1121832Y429276D01*
G03Y436706I-1032J3715D01*
G01X1121686Y436747D01*
Y464392D01*
X1121861Y464414D01*
G03X1123702Y466500I-261J2086D01*
G03X1123641Y467004I-2102J1D01*
G02X1124029Y467500I388J96D01*
G01X1125843D01*
X1125888Y467362D01*
G03X1129886I1999J651D01*
G01X1129931Y467500D01*
X1146833D01*
G03X1150869I2018J3287D01*
G37*
%LPC*%
G75*
G36*
G01X27968Y508746D02*
X22032D01*
G02Y516654I0J3954D01*
G01X27968D01*
G02Y508746I0J-3954D01*
G37*
G36*
G01X22032Y496654D02*
X27968D01*
G02Y488746I0J-3954D01*
G01X22032D01*
G02Y496654I0J3954D01*
G37*
G36*
G01X50832Y54654D02*
X56768D01*
G02Y46746I0J-3954D01*
G01X50832D01*
G02Y54654I0J3954D01*
G37*
G36*
G01X1064346Y22032D02*
Y27968D01*
G02X1072254I3954J0D01*
G01Y22032D01*
G02X1064346I-3954J0D01*
G37*
G36*
G01X1044346D02*
Y27968D01*
G02X1052254I3954J0D01*
G01Y22032D01*
G02X1044346I-3954J0D01*
G37*
G36*
G01X50832Y34654D02*
X56768D01*
G02Y26746I0J-3954D01*
G01X50832D01*
G02Y34654I0J3954D01*
G37*
G36*
G01X441314Y37328D02*
G03X440983Y37903I-359J176D01*
G02X439029Y40000I148J2097D01*
G02X443233I2102J0D01*
G02X443017Y39072I-2101J0D01*
G03X443348Y38497I359J-176D01*
G02X445302Y36400I-148J-2097D01*
G02X441098I-2102J0D01*
G02X441314Y37328I2101J0D01*
G37*
G36*
G01X434131Y41534D02*
G03X434024Y42189I-273J292D01*
G02X432798Y44100I876J1911D01*
G02X437002I2102J0D01*
G02X436338Y42566I-2102J-1D01*
G03X436445Y41911I273J-292D01*
G02X437671Y40000I-876J-1911D01*
G02X433467I-2102J0D01*
G02X434131Y41534I2102J1D01*
G37*
G36*
G01X398482Y44476D02*
G03X398071Y45005I-378J130D01*
G02X397900Y44998I-171J2095D01*
G02X400002Y47100I0J2102D01*
G02X399887Y46415I-2102J1D01*
G03X400298Y45886I378J-130D01*
G02X400469Y45893I171J-2095D01*
G02X398367Y43791I0J-2102D01*
G02X398482Y44476I2102J-1D01*
G37*
G36*
G01X405769Y45877D02*
G03X406068Y46470I-50J397D01*
G02X405798Y47500I1832J1031D01*
G02X410002I2102J0D01*
G02X408162Y45414I-2102J0D01*
G03X407863Y44821I50J-397D01*
G02X408133Y43791I-1832J-1031D01*
G02X403929I-2102J0D01*
G02X405769Y45877I2102J0D01*
G37*
G36*
G01X15185Y140630D02*
G03X14609Y140628I-287J-279D01*
G02X13090Y139979I-1519J1453D01*
G02Y144183I0J2102D01*
G02X14597Y143546I0J-2101D01*
G03X15173Y143548I287J279D01*
G02X16692Y144197I1519J-1453D01*
G02X18279Y143473I0J-2101D01*
G03X18871Y143459I302J262D01*
G02X20391Y144109I1520J-1452D01*
G02Y139905I0J-2102D01*
G02X18804Y140629I0J2101D01*
G03X18212Y140643I-302J-262D01*
G02X16692Y139993I-1520J1452D01*
G02X15185Y140630I0J2101D01*
G37*
G36*
G01X16085Y216730D02*
G03X15509Y216728I-287J-279D01*
G02X13990Y216079I-1519J1453D01*
G02Y220283I0J2102D01*
G02X15497Y219646I0J-2101D01*
G03X16073Y219648I287J279D01*
G02X17592Y220297I1519J-1453D01*
G02X19179Y219573I0J-2101D01*
G03X19771Y219559I302J262D01*
G02X21291Y220209I1520J-1452D01*
G02Y216005I0J-2102D01*
G02X19704Y216729I0J2101D01*
G03X19112Y216743I-302J-262D01*
G02X17592Y216093I-1520J1452D01*
G02X16085Y216730I0J2101D01*
G37*
G36*
G01X28785Y236830D02*
G03X28209Y236828I-287J-279D01*
G02X26690Y236179I-1519J1453D01*
G02Y240383I0J2102D01*
G02X28197Y239746I0J-2101D01*
G03X28773Y239748I287J279D01*
G02X30292Y240397I1519J-1453D01*
G02X31879Y239673I0J-2101D01*
G03X32471Y239659I302J262D01*
G02X33991Y240309I1520J-1452D01*
G02Y236105I0J-2102D01*
G02X32404Y236829I0J2101D01*
G03X31812Y236843I-302J-262D01*
G02X30292Y236193I-1520J1452D01*
G02X28785Y236830I0J2101D01*
G37*
G36*
G01X23085Y287630D02*
G03X22509Y287628I-287J-279D01*
G02X20990Y286979I-1519J1453D01*
G02Y291183I0J2102D01*
G02X22497Y290546I0J-2101D01*
G03X23073Y290548I287J279D01*
G02X24592Y291197I1519J-1453D01*
G02X26179Y290473I0J-2101D01*
G03X26771Y290459I302J262D01*
G02X28291Y291109I1520J-1452D01*
G02Y286905I0J-2102D01*
G02X26704Y287629I0J2101D01*
G03X26112Y287643I-302J-262D01*
G02X24592Y286993I-1520J1452D01*
G02X23085Y287630I0J2101D01*
G37*
G36*
G01X631497Y38702D02*
G02X630398Y40549I1003J1847D01*
G02X634602I2102J0D01*
G02X633503Y38702I-2102J0D01*
G03Y37998I190J-352D01*
G02X634602Y36151I-1003J-1847D01*
G02X630398I-2102J0D01*
G02X631497Y37998I2102J0D01*
G03Y38702I-190J352D01*
G37*
G36*
G01X681497D02*
G02X680398Y40549I1003J1847D01*
G02X684602I2102J0D01*
G02X683503Y38702I-2102J0D01*
G03Y37998I190J-352D01*
G02X684602Y36151I-1003J-1847D01*
G02X680398I-2102J0D01*
G02X681497Y37998I2102J0D01*
G03Y38702I-190J352D01*
G37*
G36*
G01X576497Y42002D02*
G02X575398Y43849I1003J1847D01*
G02X579602I2102J0D01*
G02X578503Y42002I-2102J0D01*
G03Y41298I190J-352D01*
G02X579602Y39451I-1003J-1847D01*
G02X575398I-2102J0D01*
G02X576497Y41298I2102J0D01*
G03Y42002I-190J352D01*
G37*
G36*
G01X591497D02*
G02X590398Y43849I1003J1847D01*
G02X594602I2102J0D01*
G02X593503Y42002I-2102J0D01*
G03Y41298I190J-352D01*
G02X594602Y39451I-1003J-1847D01*
G02X590398I-2102J0D01*
G02X591497Y41298I2102J0D01*
G03Y42002I-190J352D01*
G37*
G36*
G01X621497D02*
G02X620398Y43849I1003J1847D01*
G02X624602I2102J0D01*
G02X623503Y42002I-2102J0D01*
G03Y41298I190J-352D01*
G02X624602Y39451I-1003J-1847D01*
G02X620398I-2102J0D01*
G02X621497Y41298I2102J0D01*
G03Y42002I-190J352D01*
G37*
G36*
G01X16490Y149981D02*
G02X14600Y148798I-1890J918D01*
G02Y153002I0J2102D01*
G02X16490Y151819I0J-2101D01*
G03X17210I360J175D01*
G02X19100Y153002I1890J-918D01*
G02Y148798I0J-2102D01*
G02X17210Y149981I0J2101D01*
G03X16490I-360J-175D01*
G37*
G36*
G01X16471Y155342D02*
G02X14600Y154198I-1871J958D01*
G02Y158402I0J2102D01*
G02X16426Y157342I0J-2103D01*
G03X17129Y157358I347J198D01*
G02X19000Y158502I1871J-958D01*
G02Y154298I0J-2102D01*
G02X17174Y155358I0J2103D01*
G03X16471Y155342I-347J-198D01*
G37*
G36*
G01X17294Y162675D02*
G02X19100Y163702I1806J-1074D01*
G02X20990Y162519I0J-2101D01*
G03X21710I360J175D01*
G02X23600Y163702I1890J-918D01*
G02Y159498I0J-2102D01*
G02X21710Y160681I0J2101D01*
G03X20990I-360J-175D01*
G02X19100Y159498I-1890J918D01*
G02X17294Y160525I0J2101D01*
G03X16606I-344J-205D01*
G02X14800Y159498I-1806J1074D01*
G02Y163702I0J2102D01*
G02X16606Y162675I0J-2101D01*
G03X17294I344J205D01*
G37*
G36*
G01X16290Y196681D02*
G02X14400Y195498I-1890J918D01*
G02Y199702I0J2102D01*
G02X16290Y198519I0J-2101D01*
G03X17010I360J175D01*
G02X18900Y199702I1890J-918D01*
G02Y195498I0J-2102D01*
G02X17010Y196681I0J2101D01*
G03X16290I-360J-175D01*
G37*
G36*
G01X16271Y202042D02*
G02X14400Y200898I-1871J958D01*
G02Y205102I0J2102D01*
G02X16226Y204042I0J-2103D01*
G03X16929Y204058I347J198D01*
G02X18800Y205202I1871J-958D01*
G02Y200998I0J-2102D01*
G02X16974Y202058I0J2103D01*
G03X16271Y202042I-347J-198D01*
G37*
G36*
G01X17094Y209375D02*
G02X18900Y210402I1806J-1074D01*
G02X20790Y209219I0J-2101D01*
G03X21510I360J175D01*
G02X23400Y210402I1890J-918D01*
G02Y206198I0J-2102D01*
G02X21510Y207381I0J2101D01*
G03X20790I-360J-175D01*
G02X18900Y206198I-1890J918D01*
G02X17094Y207225I0J2101D01*
G03X16406I-344J-205D01*
G02X14600Y206198I-1806J1074D01*
G02Y210402I0J2102D01*
G02X16406Y209375I0J-2101D01*
G03X17094I344J205D01*
G37*
G36*
G01X1110168Y575117D02*
Y582991D01*
G02X1111154Y583976I986J-1D01*
G01X1119028D01*
G02X1120014Y582991I1J-985D01*
G01Y575117D01*
G02X1119028Y574132I-986J1D01*
G01X1111154D01*
G02X1110168Y575117I-1J985D01*
G37*
G36*
G01X1057028D02*
Y582991D01*
G02X1058014Y583976I986J-1D01*
G01X1065888D01*
G02X1066874Y582991I1J-985D01*
G01Y575117D01*
G02X1065888Y574132I-986J1D01*
G01X1058014D01*
G02X1057028Y575117I-1J985D01*
G37*
G36*
G01X1023268D02*
Y582991D01*
G02X1024254Y583976I986J-1D01*
G01X1032128D01*
G02X1033114Y582991I1J-985D01*
G01Y575117D01*
G02X1032128Y574132I-986J1D01*
G01X1024254D01*
G02X1023268Y575117I-1J985D01*
G37*
G36*
G01X969228D02*
Y582991D01*
G02X970214Y583976I986J-1D01*
G01X978088D01*
G02X979074Y582991I1J-985D01*
G01Y575117D01*
G02X978088Y574132I-986J1D01*
G01X970214D01*
G02X969228Y575117I-1J985D01*
G37*
G36*
G01X935468D02*
Y582991D01*
G02X936454Y583976I986J-1D01*
G01X944328D01*
G02X945314Y582991I1J-985D01*
G01Y575117D01*
G02X944328Y574132I-986J1D01*
G01X936454D01*
G02X935468Y575117I-1J985D01*
G37*
G36*
G01X854128D02*
Y582991D01*
G02X855114Y583976I986J-1D01*
G01X862988D01*
G02X863974Y582991I1J-985D01*
G01Y575117D01*
G02X862988Y574132I-986J1D01*
G01X855114D01*
G02X854128Y575117I-1J985D01*
G37*
G36*
G01X820368D02*
Y582991D01*
G02X821354Y583976I986J-1D01*
G01X829228D01*
G02X830214Y582991I1J-985D01*
G01Y575117D01*
G02X829228Y574132I-986J1D01*
G01X821354D01*
G02X820368Y575117I-1J985D01*
G37*
G36*
G01X766328D02*
Y582991D01*
G02X767314Y583976I986J-1D01*
G01X775188D01*
G02X776174Y582991I1J-985D01*
G01Y575117D01*
G02X775188Y574132I-986J1D01*
G01X767314D01*
G02X766328Y575117I-1J985D01*
G37*
G36*
G01X732568D02*
Y582991D01*
G02X733554Y583976I986J-1D01*
G01X741428D01*
G02X742414Y582991I1J-985D01*
G01Y575117D01*
G02X741428Y574132I-986J1D01*
G01X733554D01*
G02X732568Y575117I-1J985D01*
G37*
G36*
G01X679228D02*
Y582991D01*
G02X680214Y583976I986J-1D01*
G01X688088D01*
G02X689074Y582991I1J-985D01*
G01Y575117D01*
G02X688088Y574132I-986J1D01*
G01X680214D01*
G02X679228Y575117I-1J985D01*
G37*
G36*
G01X645468D02*
Y582991D01*
G02X646454Y583976I986J-1D01*
G01X654328D01*
G02X655314Y582991I1J-985D01*
G01Y575117D01*
G02X654328Y574132I-986J1D01*
G01X646454D01*
G02X645468Y575117I-1J985D01*
G37*
G36*
G01X564128D02*
Y582991D01*
G02X565114Y583976I986J-1D01*
G01X572988D01*
G02X573974Y582991I1J-985D01*
G01Y575117D01*
G02X572988Y574132I-986J1D01*
G01X565114D01*
G02X564128Y575117I-1J985D01*
G37*
G36*
G01X530368D02*
Y582991D01*
G02X531354Y583976I986J-1D01*
G01X539228D01*
G02X540214Y582991I1J-985D01*
G01Y575117D01*
G02X539228Y574132I-986J1D01*
G01X531354D01*
G02X530368Y575117I-1J985D01*
G37*
G36*
G01X1087826Y555432D02*
Y563306D01*
G02X1088812Y564292I986J0D01*
G01X1096686D01*
G02X1097672Y563306I0J-986D01*
G01Y555432D01*
G02X1096686Y554446I-986J0D01*
G01X1088812D01*
G02X1087826Y555432I0J986D01*
G37*
G36*
G01X1000926D02*
Y563306D01*
G02X1001912Y564292I986J0D01*
G01X1009786D01*
G02X1010772Y563306I0J-986D01*
G01Y555432D01*
G02X1009786Y554446I-986J0D01*
G01X1001912D01*
G02X1000926Y555432I0J986D01*
G37*
G36*
G01X913126D02*
Y563306D01*
G02X914112Y564292I986J0D01*
G01X921986D01*
G02X922972Y563306I0J-986D01*
G01Y555432D01*
G02X921986Y554446I-986J0D01*
G01X914112D01*
G02X913126Y555432I0J986D01*
G37*
G36*
G01X798026D02*
Y563306D01*
G02X799012Y564292I986J0D01*
G01X806886D01*
G02X807872Y563306I0J-986D01*
G01Y555432D01*
G02X806886Y554446I-986J0D01*
G01X799012D01*
G02X798026Y555432I0J986D01*
G37*
G36*
G01X710226D02*
Y563306D01*
G02X711212Y564292I986J0D01*
G01X719086D01*
G02X720072Y563306I0J-986D01*
G01Y555432D01*
G02X719086Y554446I-986J0D01*
G01X711212D01*
G02X710226Y555432I0J986D01*
G37*
G36*
G01X623126D02*
Y563306D01*
G02X624112Y564292I986J0D01*
G01X631986D01*
G02X632972Y563306I0J-986D01*
G01Y555432D01*
G02X631986Y554446I-986J0D01*
G01X624112D01*
G02X623126Y555432I0J986D01*
G37*
G36*
G01X508026D02*
Y563306D01*
G02X509012Y564292I986J0D01*
G01X516886D01*
G02X517872Y563306I0J-986D01*
G01Y555432D01*
G02X516886Y554446I-986J0D01*
G01X509012D01*
G02X508026Y555432I0J986D01*
G37*
G36*
G01X361262Y548548D02*
Y554052D01*
G02X362248Y555038I986J0D01*
G01X367752D01*
G02X368738Y554052I0J-986D01*
G01Y548548D01*
G02X367752Y547562I-986J0D01*
G01X362248D01*
G02X361262Y548548I0J986D01*
G37*
G36*
G01X261262D02*
Y554052D01*
G02X262248Y555038I986J0D01*
G01X267752D01*
G02X268738Y554052I0J-986D01*
G01Y548548D01*
G02X267752Y547562I-986J0D01*
G01X262248D01*
G02X261262Y548548I0J986D01*
G37*
G36*
G01X161262D02*
Y554052D01*
G02X162248Y555038I986J0D01*
G01X167752D01*
G02X168738Y554052I0J-986D01*
G01Y548548D01*
G02X167752Y547562I-986J0D01*
G01X162248D01*
G02X161262Y548548I0J986D01*
G37*
G36*
G01X61262D02*
Y554052D01*
G02X62248Y555038I986J0D01*
G01X67752D01*
G02X68738Y554052I0J-986D01*
G01Y548548D01*
G02X67752Y547562I-986J0D01*
G01X62248D01*
G02X61262Y548548I0J986D01*
G37*
G36*
G01X1057028Y535746D02*
Y543620D01*
G02X1058014Y544606I986J0D01*
G01X1065888D01*
G02X1066874Y543620I0J-986D01*
G01Y535746D01*
G02X1065888Y534760I-986J0D01*
G01X1058014D01*
G02X1057028Y535746I0J986D01*
G37*
G36*
G01X969228D02*
Y543620D01*
G02X970214Y544606I986J0D01*
G01X978088D01*
G02X979074Y543620I0J-986D01*
G01Y535746D01*
G02X978088Y534760I-986J0D01*
G01X970214D01*
G02X969228Y535746I0J986D01*
G37*
G36*
G01X854128D02*
Y543620D01*
G02X855114Y544606I986J0D01*
G01X862988D01*
G02X863974Y543620I0J-986D01*
G01Y535746D01*
G02X862988Y534760I-986J0D01*
G01X855114D01*
G02X854128Y535746I0J986D01*
G37*
G36*
G01X766328D02*
Y543620D01*
G02X767314Y544606I986J0D01*
G01X775188D01*
G02X776174Y543620I0J-986D01*
G01Y535746D01*
G02X775188Y534760I-986J0D01*
G01X767314D01*
G02X766328Y535746I0J986D01*
G37*
G36*
G01X679228D02*
Y543620D01*
G02X680214Y544606I986J0D01*
G01X688088D01*
G02X689074Y543620I0J-986D01*
G01Y535746D01*
G02X688088Y534760I-986J0D01*
G01X680214D01*
G02X679228Y535746I0J986D01*
G37*
G36*
G01X564128D02*
Y543620D01*
G02X565114Y544606I986J0D01*
G01X572988D01*
G02X573974Y543620I0J-986D01*
G01Y535746D01*
G02X572988Y534760I-986J0D01*
G01X565114D01*
G02X564128Y535746I0J986D01*
G37*
G36*
G01X1087826Y516061D02*
Y523935D01*
G02X1088812Y524920I986J-1D01*
G01X1096686D01*
G02X1097672Y523935I1J-985D01*
G01Y516061D01*
G02X1096686Y515076I-986J1D01*
G01X1088812D01*
G02X1087826Y516061I-1J985D01*
G37*
G36*
G01X1000926D02*
Y523935D01*
G02X1001912Y524920I986J-1D01*
G01X1009786D01*
G02X1010772Y523935I1J-985D01*
G01Y516061D01*
G02X1009786Y515076I-986J1D01*
G01X1001912D01*
G02X1000926Y516061I-1J985D01*
G37*
G36*
G01X913126D02*
Y523935D01*
G02X914112Y524920I986J-1D01*
G01X921986D01*
G02X922972Y523935I1J-985D01*
G01Y516061D01*
G02X921986Y515076I-986J1D01*
G01X914112D01*
G02X913126Y516061I-1J985D01*
G37*
G36*
G01X798026D02*
Y523935D01*
G02X799012Y524920I986J-1D01*
G01X806886D01*
G02X807872Y523935I1J-985D01*
G01Y516061D01*
G02X806886Y515076I-986J1D01*
G01X799012D01*
G02X798026Y516061I-1J985D01*
G37*
G36*
G01X710226D02*
Y523935D01*
G02X711212Y524920I986J-1D01*
G01X719086D01*
G02X720072Y523935I1J-985D01*
G01Y516061D01*
G02X719086Y515076I-986J1D01*
G01X711212D01*
G02X710226Y516061I-1J985D01*
G37*
G36*
G01X623126D02*
Y523935D01*
G02X624112Y524920I986J-1D01*
G01X631986D01*
G02X632972Y523935I1J-985D01*
G01Y516061D01*
G02X631986Y515076I-986J1D01*
G01X624112D01*
G02X623126Y516061I-1J985D01*
G37*
G36*
G01X508026D02*
Y523935D01*
G02X509012Y524920I986J-1D01*
G01X516886D01*
G02X517872Y523935I1J-985D01*
G01Y516061D01*
G02X516886Y515076I-986J1D01*
G01X509012D01*
G02X508026Y516061I-1J985D01*
G37*
G36*
G01X1143928Y496376D02*
Y504250D01*
G02X1144914Y505236I986J0D01*
G01X1152788D01*
G02X1153774Y504250I0J-986D01*
G01Y496376D01*
G02X1152788Y495390I-986J0D01*
G01X1144914D01*
G02X1143928Y496376I0J986D01*
G37*
G36*
G01X1121586D02*
Y504250D01*
G02X1122572Y505236I986J0D01*
G01X1130446D01*
G02X1131432Y504250I0J-986D01*
G01Y496376D01*
G02X1130446Y495390I-986J0D01*
G01X1122572D01*
G02X1121586Y496376I0J986D01*
G37*
G36*
G01X1100326D02*
Y504250D01*
G02X1101312Y505236I986J0D01*
G01X1109186D01*
G02X1110172Y504250I0J-986D01*
G01Y496376D01*
G02X1109186Y495390I-986J0D01*
G01X1101312D01*
G02X1100326Y496376I0J986D01*
G37*
G36*
G01X1057028D02*
Y504250D01*
G02X1058014Y505236I986J0D01*
G01X1065888D01*
G02X1066874Y504250I0J-986D01*
G01Y496376D01*
G02X1065888Y495390I-986J0D01*
G01X1058014D01*
G02X1057028Y496376I0J986D01*
G37*
G36*
G01X1034686D02*
Y504250D01*
G02X1035672Y505236I986J0D01*
G01X1043546D01*
G02X1044532Y504250I0J-986D01*
G01Y496376D01*
G02X1043546Y495390I-986J0D01*
G01X1035672D01*
G02X1034686Y496376I0J986D01*
G37*
G36*
G01X1013426D02*
Y504250D01*
G02X1014412Y505236I986J0D01*
G01X1022286D01*
G02X1023272Y504250I0J-986D01*
G01Y496376D01*
G02X1022286Y495390I-986J0D01*
G01X1014412D01*
G02X1013426Y496376I0J986D01*
G37*
G36*
G01X969228D02*
Y504250D01*
G02X970214Y505236I986J0D01*
G01X978088D01*
G02X979074Y504250I0J-986D01*
G01Y496376D01*
G02X978088Y495390I-986J0D01*
G01X970214D01*
G02X969228Y496376I0J986D01*
G37*
G36*
G01X946886D02*
Y504250D01*
G02X947872Y505236I986J0D01*
G01X955746D01*
G02X956732Y504250I0J-986D01*
G01Y496376D01*
G02X955746Y495390I-986J0D01*
G01X947872D01*
G02X946886Y496376I0J986D01*
G37*
G36*
G01X925626D02*
Y504250D01*
G02X926612Y505236I986J0D01*
G01X934486D01*
G02X935472Y504250I0J-986D01*
G01Y496376D01*
G02X934486Y495390I-986J0D01*
G01X926612D01*
G02X925626Y496376I0J986D01*
G37*
G36*
G01X854128D02*
Y504250D01*
G02X855114Y505236I986J0D01*
G01X862988D01*
G02X863974Y504250I0J-986D01*
G01Y496376D01*
G02X862988Y495390I-986J0D01*
G01X855114D01*
G02X854128Y496376I0J986D01*
G37*
G36*
G01X831786D02*
Y504250D01*
G02X832772Y505236I986J0D01*
G01X840646D01*
G02X841632Y504250I0J-986D01*
G01Y496376D01*
G02X840646Y495390I-986J0D01*
G01X832772D01*
G02X831786Y496376I0J986D01*
G37*
G36*
G01X810526D02*
Y504250D01*
G02X811512Y505236I986J0D01*
G01X819386D01*
G02X820372Y504250I0J-986D01*
G01Y496376D01*
G02X819386Y495390I-986J0D01*
G01X811512D01*
G02X810526Y496376I0J986D01*
G37*
G36*
G01X766328D02*
Y504250D01*
G02X767314Y505236I986J0D01*
G01X775188D01*
G02X776174Y504250I0J-986D01*
G01Y496376D01*
G02X775188Y495390I-986J0D01*
G01X767314D01*
G02X766328Y496376I0J986D01*
G37*
G36*
G01X743986D02*
Y504250D01*
G02X744972Y505236I986J0D01*
G01X752846D01*
G02X753832Y504250I0J-986D01*
G01Y496376D01*
G02X752846Y495390I-986J0D01*
G01X744972D01*
G02X743986Y496376I0J986D01*
G37*
G36*
G01X722726D02*
Y504250D01*
G02X723712Y505236I986J0D01*
G01X731586D01*
G02X732572Y504250I0J-986D01*
G01Y496376D01*
G02X731586Y495390I-986J0D01*
G01X723712D01*
G02X722726Y496376I0J986D01*
G37*
G36*
G01X679228D02*
Y504250D01*
G02X680214Y505236I986J0D01*
G01X688088D01*
G02X689074Y504250I0J-986D01*
G01Y496376D01*
G02X688088Y495390I-986J0D01*
G01X680214D01*
G02X679228Y496376I0J986D01*
G37*
G36*
G01X656886D02*
Y504250D01*
G02X657872Y505236I986J0D01*
G01X665746D01*
G02X666732Y504250I0J-986D01*
G01Y496376D01*
G02X665746Y495390I-986J0D01*
G01X657872D01*
G02X656886Y496376I0J986D01*
G37*
G36*
G01X635626D02*
Y504250D01*
G02X636612Y505236I986J0D01*
G01X644486D01*
G02X645472Y504250I0J-986D01*
G01Y496376D01*
G02X644486Y495390I-986J0D01*
G01X636612D01*
G02X635626Y496376I0J986D01*
G37*
G36*
G01X1151254Y137905D02*
G03X1150661Y138085I-370J-152D01*
G02X1148300Y137366I-2360J3515D01*
G02X1152534Y141600I0J4234D01*
G02X1152517Y141221I-4233J0D01*
G03X1152961Y140788I399J-36D01*
G02X1153200Y140802I242J-2088D01*
G02Y136598I0J-2102D01*
G02X1151254Y137905I0J2102D01*
G37*
G36*
G01X1131402Y140580D02*
G03X1131851Y141056I57J396D01*
G02X1131766Y141900I4148J844D01*
G02X1136000Y137666I4234J0D01*
G02X1133757Y138309I0J4234D01*
G03X1133154Y138054I-212J-339D01*
G02X1131100Y136398I-2054J446D01*
G02Y140602I0J2102D01*
G02X1131402Y140580I-1J-2102D01*
G37*
G36*
G01X73185Y287630D02*
G03X72609Y287628I-287J-279D01*
G02X71090Y286979I-1519J1453D01*
G02Y291183I0J2102D01*
G02X72597Y290546I0J-2101D01*
G03X73173Y290548I287J279D01*
G02X74692Y291197I1519J-1453D01*
G02X76279Y290473I0J-2101D01*
G03X76871Y290459I302J262D01*
G02X78391Y291109I1520J-1452D01*
G02Y286905I0J-2102D01*
G02X76804Y287629I0J2101D01*
G03X76212Y287643I-302J-262D01*
G02X74692Y286993I-1520J1452D01*
G02X73185Y287630I0J2101D01*
G37*
G36*
G01X648190Y481302D02*
G03X648859Y481284I340J210D01*
G02X650588Y482190I1729J-1197D01*
G02X652300Y481308I0J-2103D01*
G03X652963Y481326I325J232D01*
G02X654738Y482302I1775J-1126D01*
G02Y478098I0J-2102D01*
G02X653026Y478980I0J2103D01*
G03X652363Y478962I-325J-232D01*
G02X650588Y477986I-1775J1126D01*
G02X648798Y478986I0J2102D01*
G03X648129Y479004I-340J-210D01*
G02X646400Y478098I-1729J1197D01*
G02Y482302I0J2102D01*
G02X648190Y481302I0J-2102D01*
G37*
G36*
G01X735290D02*
G03X735959Y481284I340J210D01*
G02X737688Y482190I1729J-1197D01*
G02X739400Y481308I0J-2103D01*
G03X740063Y481326I325J232D01*
G02X741838Y482302I1775J-1126D01*
G02Y478098I0J-2102D01*
G02X740126Y478980I0J2103D01*
G03X739463Y478962I-325J-232D01*
G02X737688Y477986I-1775J1126D01*
G02X735898Y478986I0J2102D01*
G03X735229Y479004I-340J-210D01*
G02X733500Y478098I-1729J1197D01*
G02Y482302I0J2102D01*
G02X735290Y481302I0J-2102D01*
G37*
G36*
G01X823090D02*
G03X823759Y481284I340J210D01*
G02X825488Y482190I1729J-1197D01*
G02X827200Y481308I0J-2103D01*
G03X827863Y481326I325J232D01*
G02X829638Y482302I1775J-1126D01*
G02Y478098I0J-2102D01*
G02X827926Y478980I0J2103D01*
G03X827263Y478962I-325J-232D01*
G02X825488Y477986I-1775J1126D01*
G02X823698Y478986I0J2102D01*
G03X823029Y479004I-340J-210D01*
G02X821300Y478098I-1729J1197D01*
G02Y482302I0J2102D01*
G02X823090Y481302I0J-2102D01*
G37*
G36*
G01X938190D02*
G03X938859Y481284I340J210D01*
G02X940588Y482190I1729J-1197D01*
G02X942300Y481308I0J-2103D01*
G03X942963Y481326I325J232D01*
G02X944738Y482302I1775J-1126D01*
G02Y478098I0J-2102D01*
G02X943026Y478980I0J2103D01*
G03X942363Y478962I-325J-232D01*
G02X940588Y477986I-1775J1126D01*
G02X938798Y478986I0J2102D01*
G03X938129Y479004I-340J-210D01*
G02X936400Y478098I-1729J1197D01*
G02Y482302I0J2102D01*
G02X938190Y481302I0J-2102D01*
G37*
G36*
G01X1025990D02*
G03X1026659Y481284I340J210D01*
G02X1028388Y482190I1729J-1197D01*
G02X1030100Y481308I0J-2103D01*
G03X1030763Y481326I325J232D01*
G02X1032538Y482302I1775J-1126D01*
G02Y478098I0J-2102D01*
G02X1030826Y478980I0J2103D01*
G03X1030163Y478962I-325J-232D01*
G02X1028388Y477986I-1775J1126D01*
G02X1026598Y478986I0J2102D01*
G03X1025929Y479004I-340J-210D01*
G02X1024200Y478098I-1729J1197D01*
G02Y482302I0J2102D01*
G02X1025990Y481302I0J-2102D01*
G37*
G36*
G01X1112890Y481502D02*
G03X1113559Y481484I340J210D01*
G02X1115288Y482390I1729J-1197D01*
G02X1117000Y481508I0J-2103D01*
G03X1117663Y481526I325J232D01*
G02X1119438Y482502I1775J-1126D01*
G02Y478298I0J-2102D01*
G02X1117726Y479180I0J2103D01*
G03X1117063Y479162I-325J-232D01*
G02X1115288Y478186I-1775J1126D01*
G02X1113498Y479186I0J2102D01*
G03X1112829Y479204I-340J-210D01*
G02X1111100Y478298I-1729J1197D01*
G02Y482502I0J2102D01*
G02X1112890Y481502I0J-2102D01*
G37*
G36*
G01X660364Y486729D02*
G03X659692I-336J-217D01*
G02X657928Y485770I-1764J1143D01*
G02Y489974I0J2102D01*
G02X659692Y489015I0J-2102D01*
G03X660364I336J217D01*
G02X662128Y489974I1764J-1143D01*
G02Y485770I0J-2102D01*
G02X660364Y486729I0J2102D01*
G37*
G36*
G01X747464D02*
G03X746792I-336J-217D01*
G02X745028Y485770I-1764J1143D01*
G02Y489974I0J2102D01*
G02X746792Y489015I0J-2102D01*
G03X747464I336J217D01*
G02X749228Y489974I1764J-1143D01*
G02Y485770I0J-2102D01*
G02X747464Y486729I0J2102D01*
G37*
G36*
G01X835264D02*
G03X834592I-336J-217D01*
G02X832828Y485770I-1764J1143D01*
G02Y489974I0J2102D01*
G02X834592Y489015I0J-2102D01*
G03X835264I336J217D01*
G02X837028Y489974I1764J-1143D01*
G02Y485770I0J-2102D01*
G02X835264Y486729I0J2102D01*
G37*
G36*
G01X625411Y485550D02*
G03X625659Y486264I0J400D01*
G02X624193Y489290I2390J3026D01*
G02X631905I3856J0D01*
G02X630439Y486264I-3856J0D01*
G03X630687Y485550I248J-314D01*
G01X631986D01*
G02X632972Y484565I1J-985D01*
G01Y476691D01*
G02X631986Y475706I-986J1D01*
G01X624112D01*
G02X623126Y476691I-1J985D01*
G01Y484565D01*
G02X624112Y485550I986J-1D01*
G01X625411D01*
G37*
G36*
G01X712511D02*
G03X712759Y486264I0J400D01*
G02X711293Y489290I2390J3026D01*
G02X719005I3856J0D01*
G02X717539Y486264I-3856J0D01*
G03X717787Y485550I248J-314D01*
G01X719086D01*
G02X720072Y484565I1J-985D01*
G01Y476691D01*
G02X719086Y475706I-986J1D01*
G01X711212D01*
G02X710226Y476691I-1J985D01*
G01Y484565D01*
G02X711212Y485550I986J-1D01*
G01X712511D01*
G37*
G36*
G01X800311D02*
G03X800559Y486264I0J400D01*
G02X799093Y489290I2390J3026D01*
G02X806805I3856J0D01*
G02X805339Y486264I-3856J0D01*
G03X805587Y485550I248J-314D01*
G01X806886D01*
G02X807872Y484565I1J-985D01*
G01Y476691D01*
G02X806886Y475706I-986J1D01*
G01X799012D01*
G02X798026Y476691I-1J985D01*
G01Y484565D01*
G02X799012Y485550I986J-1D01*
G01X800311D01*
G37*
G36*
G01X915411D02*
G03X915659Y486264I0J400D01*
G02X914193Y489290I2390J3026D01*
G02X921905I3856J0D01*
G02X920439Y486264I-3856J0D01*
G03X920687Y485550I248J-314D01*
G01X921986D01*
G02X922972Y484565I1J-985D01*
G01Y476691D01*
G02X921986Y475706I-986J1D01*
G01X914112D01*
G02X913126Y476691I-1J985D01*
G01Y484565D01*
G02X914112Y485550I986J-1D01*
G01X915411D01*
G37*
G36*
G01X1003211D02*
G03X1003459Y486264I0J400D01*
G02X1001993Y489290I2390J3026D01*
G02X1009705I3856J0D01*
G02X1008239Y486264I-3856J0D01*
G03X1008487Y485550I248J-314D01*
G01X1009786D01*
G02X1010772Y484565I1J-985D01*
G01Y476691D01*
G02X1009786Y475706I-986J1D01*
G01X1001912D01*
G02X1000926Y476691I-1J985D01*
G01Y484565D01*
G02X1001912Y485550I986J-1D01*
G01X1003211D01*
G37*
G36*
G01X1090111D02*
G03X1090359Y486264I0J400D01*
G02X1088893Y489290I2390J3026D01*
G02X1096605I3856J0D01*
G02X1095139Y486264I-3856J0D01*
G03X1095387Y485550I248J-314D01*
G01X1096686D01*
G02X1097672Y484565I1J-985D01*
G01Y476691D01*
G02X1096686Y475706I-986J1D01*
G01X1088812D01*
G02X1087826Y476691I-1J985D01*
G01Y484565D01*
G02X1088812Y485550I986J-1D01*
G01X1090111D01*
G37*
G36*
G01X1143928Y535746D02*
Y543620D01*
G02X1144914Y544606I986J0D01*
G01X1152788D01*
G02X1153649Y544099I0J-985D01*
G03X1154159Y543926I350J194D01*
G02X1155000Y544102I842J-1926D01*
G02Y539898I0J-2102D01*
G02X1154306Y540016I0J2102D01*
G03X1153774Y539638I-132J-377D01*
G01Y535746D01*
G02X1152788Y534760I-986J0D01*
G01X1144914D01*
G02X1143928Y535746I0J986D01*
G37*
G36*
G01Y575117D02*
Y582991D01*
G02X1144914Y583976I986J-1D01*
G01X1152788D01*
G02X1153774Y582991I1J-985D01*
G01Y581362D01*
G03X1154306Y580984I400J-1D01*
G02X1155000Y581102I694J-1984D01*
G02Y576898I0J-2102D01*
G02X1154306Y577016I0J2102D01*
G03X1153774Y576638I-132J-377D01*
G01Y575117D01*
G02X1152788Y574132I-986J1D01*
G01X1144914D01*
G02X1143928Y575117I-1J985D01*
G37*
G36*
G01X326316Y518741D02*
G02X325898Y520000I1684J1258D01*
G02X330102I2102J0D01*
G02X328003Y517898I-2102J0D01*
G03X327684Y517259I1J-400D01*
G02X328102Y516000I-1684J-1258D01*
G02X323898I-2102J0D01*
G02X325997Y518102I2102J0D01*
G03X326316Y518741I-1J400D01*
G37*
G36*
G01X53285Y140730D02*
G03X52709Y140728I-287J-279D01*
G02X51190Y140079I-1519J1453D01*
G02Y144283I0J2102D01*
G02X52697Y143646I0J-2101D01*
G03X53273Y143648I287J279D01*
G02X54792Y144297I1519J-1453D01*
G02X56379Y143573I0J-2101D01*
G03X56971Y143559I302J262D01*
G02X58491Y144209I1520J-1452D01*
G02Y140005I0J-2102D01*
G02X56904Y140729I0J2101D01*
G03X56312Y140743I-302J-262D01*
G02X54792Y140093I-1520J1452D01*
G02X53285Y140730I0J2101D01*
G37*
G36*
G01X45757Y205027D02*
G03X45741Y205587I-294J272D01*
G02X45098Y207100I1459J1513D01*
G02X49302I2102J0D01*
G02X48743Y205673I-2101J0D01*
G03X48759Y205113I294J-272D01*
G02X49402Y203600I-1459J-1513D01*
G02X45198I-2102J0D01*
G02X45757Y205027I2101J0D01*
G37*
G36*
G01X98520Y233293D02*
G03X97942Y233504I-377J-134D01*
G02X96881Y233217I-1060J1815D01*
G02Y237421I0J2102D01*
G02X98861Y236026I0J-2103D01*
G03X99439Y235815I377J134D01*
G02X100500Y236102I1060J-1815D01*
G02Y231898I0J-2102D01*
G02X98520Y233293I0J2103D01*
G37*
G36*
G01X97163Y244234D02*
G03X97179Y244762I-292J273D01*
G02X96698Y246100I1620J1338D01*
G02X98800Y248202I2102J0D01*
G02X100270Y247602I0J-2101D01*
G03X100830I280J286D01*
G02X102300Y248202I1470J-1501D01*
G02X104402Y246100I0J-2102D01*
G02X103837Y244666I-2102J0D01*
G03X103821Y244138I292J-273D01*
G02X104302Y242800I-1620J-1338D01*
G02X102200Y240698I-2102J0D01*
G02X100730Y241298I0J2101D01*
G03X100170I-280J-286D01*
G02X98700Y240698I-1470J1501D01*
G02X96598Y242800I0J2102D01*
G02X97163Y244234I2102J0D01*
G37*
G36*
G01X83290Y112181D02*
G02X81400Y110998I-1890J918D01*
G02Y115202I0J2102D01*
G02X83290Y114019I0J-2101D01*
G03X84010I360J175D01*
G02X85900Y115202I1890J-918D01*
G02Y110998I0J-2102D01*
G02X84010Y112181I0J2101D01*
G03X83290I-360J-175D01*
G37*
G36*
G01X93189Y114076D02*
G02X95100Y115302I1911J-876D01*
G02X96990Y114119I0J-2101D01*
G03X97710I360J175D01*
G02X99600Y115302I1890J-918D01*
G02Y111098I0J-2102D01*
G02X97710Y112281I0J2101D01*
G03X96990I-360J-175D01*
G02X95100Y111098I-1890J918D01*
G02X93230Y112240I0J2102D01*
G03X92511Y112224I-356J-183D01*
G02X90600Y110998I-1911J876D01*
G02Y115202I0J2102D01*
G02X92470Y114060I0J-2102D01*
G03X93189Y114076I356J183D01*
G37*
G36*
G01X83271Y117542D02*
G02X81400Y116398I-1871J958D01*
G02Y120602I0J2102D01*
G02X83226Y119542I0J-2103D01*
G03X83929Y119558I347J198D01*
G02X85800Y120702I1871J-958D01*
G02Y116498I0J-2102D01*
G02X83974Y117558I0J2103D01*
G03X83271Y117542I-347J-198D01*
G37*
G36*
G01X92450Y117801D02*
G02X90600Y116698I-1850J1000D01*
G02Y120902I0J2102D01*
G02X92531Y119631I0J-2102D01*
G03X93250Y119599I367J158D01*
G02X95100Y120702I1850J-1000D01*
G02X96926Y119642I0J-2103D01*
G03X97629Y119658I347J198D01*
G02X99500Y120802I1871J-958D01*
G02Y116598I0J-2102D01*
G02X97674Y117658I0J2103D01*
G03X96971Y117642I-347J-198D01*
G02X95100Y116498I-1871J958D01*
G02X93169Y117769I0J2102D01*
G03X92450Y117801I-367J-158D01*
G37*
G36*
G01X84094Y124875D02*
G02X85900Y125902I1806J-1074D01*
G02X87790Y124719I0J-2101D01*
G03X88510I360J175D01*
G02X90400Y125902I1890J-918D01*
G02Y121698I0J-2102D01*
G02X88510Y122881I0J2101D01*
G03X87790I-360J-175D01*
G02X85900Y121698I-1890J918D01*
G02X84094Y122725I0J2101D01*
G03X83406I-344J-205D01*
G02X81600Y121698I-1806J1074D01*
G02Y125902I0J2102D01*
G02X83406Y124875I0J-2101D01*
G03X84094I344J205D01*
G37*
G36*
G01X97794Y124975D02*
G02X99600Y126002I1806J-1074D01*
G02X101490Y124819I0J-2101D01*
G03X102210I360J175D01*
G02X104100Y126002I1890J-918D01*
G02Y121798I0J-2102D01*
G02X102210Y122981I0J2101D01*
G03X101490I-360J-175D01*
G02X99600Y121798I-1890J918D01*
G02X97794Y122825I0J2101D01*
G03X97106I-344J-205D01*
G02X95300Y121798I-1806J1074D01*
G02Y126002I0J2102D01*
G02X97106Y124975I0J-2101D01*
G03X97794I344J205D01*
G37*
G36*
G01X74290Y137081D02*
G02X72400Y135898I-1890J918D01*
G02Y140102I0J2102D01*
G02X74290Y138919I0J-2101D01*
G03X75010I360J175D01*
G02X76900Y140102I1890J-918D01*
G02Y135898I0J-2102D01*
G02X75010Y137081I0J2101D01*
G03X74290I-360J-175D01*
G37*
G36*
G01X74271Y142442D02*
G02X72400Y141298I-1871J958D01*
G02Y145502I0J2102D01*
G02X74226Y144442I0J-2103D01*
G03X74929Y144458I347J198D01*
G02X76800Y145602I1871J-958D01*
G02Y141398I0J-2102D01*
G02X74974Y142458I0J2103D01*
G03X74271Y142442I-347J-198D01*
G37*
G36*
G01X75094Y149775D02*
G02X76900Y150802I1806J-1074D01*
G02X78790Y149619I0J-2101D01*
G03X79510I360J175D01*
G02X81400Y150802I1890J-918D01*
G02Y146598I0J-2102D01*
G02X79510Y147781I0J2101D01*
G03X78790I-360J-175D01*
G02X76900Y146598I-1890J918D01*
G02X75094Y147625I0J2101D01*
G03X74406I-344J-205D01*
G02X72600Y146598I-1806J1074D01*
G02Y150802I0J2102D01*
G02X74406Y149775I0J-2101D01*
G03X75094I344J205D01*
G37*
G36*
G01X73790Y209281D02*
G02X71900Y208098I-1890J918D01*
G02Y212302I0J2102D01*
G02X73790Y211119I0J-2101D01*
G03X74510I360J175D01*
G02X76400Y212302I1890J-918D01*
G02Y208098I0J-2102D01*
G02X74510Y209281I0J2101D01*
G03X73790I-360J-175D01*
G37*
G36*
G01X73771Y214642D02*
G02X71900Y213498I-1871J958D01*
G02Y217702I0J2102D01*
G02X73726Y216642I0J-2103D01*
G03X74429Y216658I347J198D01*
G02X76300Y217802I1871J-958D01*
G02Y213598I0J-2102D01*
G02X74474Y214658I0J2103D01*
G03X73771Y214642I-347J-198D01*
G37*
G36*
G01X74594Y221975D02*
G02X76400Y223002I1806J-1074D01*
G02X78290Y221819I0J-2101D01*
G03X79010I360J175D01*
G02X80900Y223002I1890J-918D01*
G02Y218798I0J-2102D01*
G02X79010Y219981I0J2101D01*
G03X78290I-360J-175D01*
G02X76400Y218798I-1890J918D01*
G02X74594Y219825I0J2101D01*
G03X73906I-344J-205D01*
G02X72100Y218798I-1806J1074D01*
G02Y223002I0J2102D01*
G02X73906Y221975I0J-2101D01*
G03X74594I344J205D01*
G37*
G36*
G01X564128Y496376D02*
Y504250D01*
G02X565114Y505236I986J0D01*
G01X572988D01*
G02X573974Y504250I0J-986D01*
G01Y496376D01*
G02X572988Y495390I-986J0D01*
G01X565114D01*
G02X564128Y496376I0J986D01*
G37*
G36*
G01X541786D02*
Y504250D01*
G02X542772Y505236I986J0D01*
G01X550646D01*
G02X551632Y504250I0J-986D01*
G01Y496376D01*
G02X550646Y495390I-986J0D01*
G01X542772D01*
G02X541786Y496376I0J986D01*
G37*
G36*
G01X520526D02*
Y504250D01*
G02X521512Y505236I986J0D01*
G01X529386D01*
G02X530372Y504250I0J-986D01*
G01Y496376D01*
G02X529386Y495390I-986J0D01*
G01X521512D01*
G02X520526Y496376I0J986D01*
G37*
G36*
G01X508026Y437321D02*
Y445195D01*
G02X509012Y446180I986J-1D01*
G01X516886D01*
G02X517872Y445195I1J-985D01*
G01Y437321D01*
G02X516886Y436336I-986J1D01*
G01X509012D01*
G02X508026Y437321I-1J985D01*
G37*
G36*
G01X1134914Y215700D02*
Y221700D01*
G02X1135900Y222686I986J0D01*
G01X1141900D01*
G02X1142886Y221700I0J-986D01*
G01Y215700D01*
G02X1141900Y214714I-986J0D01*
G01X1135900D01*
G02X1134914Y215700I0J986D01*
G37*
G36*
G01X251320Y175737D02*
G03X250680I-320J-240D01*
G02X249000Y174898I-1680J1263D01*
G02Y179102I0J2102D01*
G02X250680Y178263I0J-2102D01*
G03X251320I320J240D01*
G02X253000Y179102I1680J-1263D01*
G02Y174898I0J-2102D01*
G02X251320Y175737I0J2102D01*
G37*
G36*
G01X145864Y180843D02*
G03X146536I336J217D01*
G02X150064I1764J-1143D01*
G03X150736I336J217D01*
G02X152500Y181802I1764J-1143D01*
G02X154602Y179700I0J-2102D01*
G02X153643Y177936I-2102J0D01*
G03Y177264I217J-336D01*
G02Y173736I-1143J-1764D01*
G03Y173064I217J-336D01*
G02X154602Y171300I-1143J-1764D01*
G02X152500Y169198I-2102J0D01*
G02X150736Y170157I0J2102D01*
G03X150064I-336J-217D01*
G02X146536I-1764J1143D01*
G03X145864I-336J-217D01*
G02X144100Y169198I-1764J1143D01*
G02X141998Y171300I0J2102D01*
G02X142957Y173064I2102J0D01*
G03Y173736I-217J336D01*
G02Y177264I1143J1764D01*
G03Y177936I-217J336D01*
G02X141998Y179700I1143J1764D01*
G02X144100Y181802I2102J0D01*
G02X145864Y180843I0J-2102D01*
G37*
G36*
G01X174489Y185293D02*
G03X174707Y185511I18J200D01*
G02X174698Y185700I2093J194D01*
G02X178902I2102J0D01*
G02X176802Y183598I-2102J0D01*
G03X176402Y183198I0J-400D01*
G02X176393Y183011I-2102J7D01*
G03X176611Y182793I200J-18D01*
G02X176800Y182802I194J-2093D01*
G02Y178598I0J-2102D01*
G02X174698Y180698I0J2102D01*
G03X174298Y181098I-400J0D01*
G02X174111Y181107I7J2102D01*
G03X173893Y180889I-18J-200D01*
G02X173902Y180700I-2093J-194D01*
G02X169698I-2102J0D01*
G02X171798Y182802I2102J0D01*
G03X172198Y183202I0J400D01*
G02X172207Y183389I2102J-7D01*
G03X171989Y183607I-200J18D01*
G02X171800Y183598I-194J2093D01*
G02Y187802I0J2102D01*
G02X173902Y185702I0J-2102D01*
G03X174302Y185302I400J0D01*
G02X174489Y185293I-7J-2102D01*
G37*
G36*
G01X168340Y195697D02*
G03X168964Y195921I236J323D01*
G02X171000Y197502I2036J-520D01*
G02Y193298I0J-2102D01*
G02X169760Y193703I0J2101D01*
G03X169136Y193479I-236J-323D01*
G02X167100Y191898I-2036J520D01*
G02Y196102I0J2102D01*
G02X168340Y195697I0J-2101D01*
G37*
G36*
G01X146985Y196130D02*
G03X146409Y196128I-287J-279D01*
G02X144890Y195479I-1519J1453D01*
G02Y199683I0J2102D01*
G02X146397Y199046I0J-2101D01*
G03X146973Y199048I287J279D01*
G02X148492Y199697I1519J-1453D01*
G02X150079Y198973I0J-2101D01*
G03X150671Y198959I302J262D01*
G02X152191Y199609I1520J-1452D01*
G02Y195405I0J-2102D01*
G02X150604Y196129I0J2101D01*
G03X150012Y196143I-302J-262D01*
G02X148492Y195493I-1520J1452D01*
G02X146985Y196130I0J2101D01*
G37*
G36*
G01X174012Y209120D02*
G03X174651Y209104I326J232D01*
G02X177949I1649J-1305D01*
G03X178588Y209120I313J248D01*
G02X180300Y210002I1712J-1221D01*
G02Y205798I0J-2102D01*
G02X178651Y206596I0J2103D01*
G03X178012Y206580I-313J-248D01*
G02X174588I-1712J1221D01*
G03X173949Y206596I-326J-232D01*
G02X172300Y205798I-1649J1305D01*
G02X170620Y206637I0J2102D01*
G03X169980I-320J-240D01*
G02X168300Y205798I-1680J1263D01*
G02Y210002I0J2102D01*
G02X169980Y209163I0J-2102D01*
G03X170620I320J240D01*
G02X172300Y210002I1680J-1263D01*
G02X174012Y209120I0J-2103D01*
G37*
G36*
G01X440028Y212102D02*
G03X440407Y212645I6J400D01*
G02X440267Y213400I1962J754D01*
G02X442369Y211298I2102J0D01*
G01X442341D01*
G03X441962Y210755I-6J-400D01*
G02X442102Y210000I-1962J-754D01*
G02X440000Y212102I-2102J0D01*
G01X440028D01*
G37*
G36*
G01X480102Y240365D02*
G03X479532Y240701I-399J-26D01*
G02X478631Y240498I-901J1898D01*
G02Y244702I0J2102D01*
G02X480729Y242735I0J-2102D01*
G03X481299Y242399I399J26D01*
G02X482200Y242602I901J-1898D01*
G02Y238398I0J-2102D01*
G02X480102Y240365I0J2102D01*
G37*
G36*
G01X145764Y251543D02*
G03X146436I336J217D01*
G02X149964I1764J-1143D01*
G03X150636I336J217D01*
G02X152400Y252502I1764J-1143D01*
G02X154502Y250400I0J-2102D01*
G02X153543Y248636I-2102J0D01*
G03Y247964I217J-336D01*
G02Y244436I-1143J-1764D01*
G03Y243764I217J-336D01*
G02X154502Y242000I-1143J-1764D01*
G02X152400Y239898I-2102J0D01*
G02X150636Y240857I0J2102D01*
G03X149964I-336J-217D01*
G02X146436I-1764J1143D01*
G03X145764I-336J-217D01*
G02X144000Y239898I-1764J1143D01*
G02X141898Y242000I0J2102D01*
G02X142857Y243764I2102J0D01*
G03Y244436I-217J336D01*
G02Y247964I1143J1764D01*
G03Y248636I-217J336D01*
G02X141898Y250400I1143J1764D01*
G02X144000Y252502I2102J0D01*
G02X145764Y251543I0J-2102D01*
G37*
G36*
G01X174489Y256193D02*
G03X174707Y256411I18J200D01*
G02X174698Y256600I2093J194D01*
G02X178902I2102J0D01*
G02X176802Y254498I-2102J0D01*
G03X176402Y254098I0J-400D01*
G02X176393Y253911I-2102J7D01*
G03X176611Y253693I200J-18D01*
G02X176800Y253702I194J-2093D01*
G02Y249498I0J-2102D01*
G02X174698Y251598I0J2102D01*
G03X174298Y251998I-400J0D01*
G02X174111Y252007I7J2102D01*
G03X173893Y251789I-18J-200D01*
G02X173902Y251600I-2093J-194D01*
G02X169698I-2102J0D01*
G02X171798Y253702I2102J0D01*
G03X172198Y254102I0J400D01*
G02X172207Y254289I2102J-7D01*
G03X171989Y254507I-200J18D01*
G02X171800Y254498I-194J2093D01*
G02Y258702I0J2102D01*
G02X173902Y256602I0J-2102D01*
G03X174302Y256202I400J0D01*
G02X174489Y256193I-7J-2102D01*
G37*
G36*
G01X170624Y264873D02*
G03X169964Y264857I-325J-234D01*
G02X168200Y263898I-1764J1143D01*
G02Y268102I0J2102D01*
G02X169907Y267227I0J-2103D01*
G03X170567Y267243I325J234D01*
G02X172331Y268202I1764J-1143D01*
G02Y263998I0J-2102D01*
G02X170624Y264873I0J2103D01*
G37*
G36*
G01X179632Y264660D02*
G03X178977Y264804I-374J-140D01*
G02X177500Y264198I-1477J1497D01*
G02Y268402I0J2102D01*
G02X179468Y267040I0J-2103D01*
G03X180123Y266896I374J140D01*
G02X181600Y267502I1477J-1497D01*
G02Y263298I0J-2102D01*
G02X179632Y264660I0J2103D01*
G37*
G36*
G01X147085Y266730D02*
G03X146509Y266728I-287J-279D01*
G02X144990Y266079I-1519J1453D01*
G02Y270283I0J2102D01*
G02X146497Y269646I0J-2101D01*
G03X147073Y269648I287J279D01*
G02X148592Y270297I1519J-1453D01*
G02X150179Y269573I0J-2101D01*
G03X150771Y269559I302J262D01*
G02X152291Y270209I1520J-1452D01*
G02Y266005I0J-2102D01*
G02X150704Y266729I0J2101D01*
G03X150112Y266743I-302J-262D01*
G02X148592Y266093I-1520J1452D01*
G02X147085Y266730I0J2101D01*
G37*
G36*
G01X197785Y267030D02*
G03X197209Y267028I-287J-279D01*
G02X195690Y266379I-1519J1453D01*
G02Y270583I0J2102D01*
G02X197197Y269946I0J-2101D01*
G03X197773Y269948I287J279D01*
G02X199292Y270597I1519J-1453D01*
G02X200879Y269873I0J-2101D01*
G03X201471Y269859I302J262D01*
G02X202991Y270509I1520J-1452D01*
G02Y266305I0J-2102D01*
G02X201404Y267029I0J2101D01*
G03X200812Y267043I-302J-262D01*
G02X199292Y266393I-1520J1452D01*
G02X197785Y267030I0J2101D01*
G37*
G36*
G01X173949Y278804D02*
G03X174588Y278820I313J248D01*
G02X176300Y279702I1712J-1221D01*
G02X177980Y278863I0J-2102D01*
G03X178620I320J240D01*
G02X180300Y279702I1680J-1263D01*
G02Y275498I0J-2102D01*
G02X178620Y276337I0J2102D01*
G03X177980I-320J-240D01*
G02X176300Y275498I-1680J1263D01*
G02X174651Y276296I0J2103D01*
G03X174012Y276280I-313J-248D01*
G02X170588I-1712J1221D01*
G03X169949Y276296I-326J-232D01*
G02X168300Y275498I-1649J1305D01*
G02Y279702I0J2102D01*
G02X170012Y278820I0J-2103D01*
G03X170651Y278804I326J232D01*
G02X173949I1649J-1305D01*
G37*
G36*
G01X589806Y281311D02*
G03Y281970I-227J330D01*
G02X588898Y283700I1194J1730D01*
G02X593102I2102J0D01*
G02X592194Y281970I-2102J0D01*
G03Y281311I227J-330D01*
G02X593102Y279581I-1194J-1730D01*
G02X588898I-2102J0D01*
G02X589806Y281311I2102J0D01*
G37*
G36*
G01X152285Y287130D02*
G03X151709Y287128I-287J-279D01*
G02X150190Y286479I-1519J1453D01*
G02Y290683I0J2102D01*
G02X151697Y290046I0J-2101D01*
G03X152273Y290048I287J279D01*
G02X153792Y290697I1519J-1453D01*
G02X155379Y289973I0J-2101D01*
G03X155971Y289959I302J262D01*
G02X157491Y290609I1520J-1452D01*
G02Y286405I0J-2102D01*
G02X155904Y287129I0J2101D01*
G03X155312Y287143I-302J-262D01*
G02X153792Y286493I-1520J1452D01*
G02X152285Y287130I0J2101D01*
G37*
G36*
G01X171285Y287230D02*
G03X170709Y287228I-287J-279D01*
G02X169190Y286579I-1519J1453D01*
G02Y290783I0J2102D01*
G02X170697Y290146I0J-2101D01*
G03X171273Y290148I287J279D01*
G02X172792Y290797I1519J-1453D01*
G02X174379Y290073I0J-2101D01*
G03X174971Y290059I302J262D01*
G02X176491Y290709I1520J-1452D01*
G02Y286505I0J-2102D01*
G02X174904Y287229I0J2101D01*
G03X174312Y287243I-302J-262D01*
G02X172792Y286593I-1520J1452D01*
G02X171285Y287230I0J2101D01*
G37*
G36*
G01X190385D02*
G03X189809Y287228I-287J-279D01*
G02X188290Y286579I-1519J1453D01*
G02Y290783I0J2102D01*
G02X189797Y290146I0J-2101D01*
G03X190373Y290148I287J279D01*
G02X191892Y290797I1519J-1453D01*
G02X193479Y290073I0J-2101D01*
G03X194071Y290059I302J262D01*
G02X195591Y290709I1520J-1452D01*
G02Y286505I0J-2102D01*
G02X194004Y287229I0J2101D01*
G03X193412Y287243I-302J-262D01*
G02X191892Y286593I-1520J1452D01*
G02X190385Y287230I0J2101D01*
G37*
G36*
G01X524521Y290692D02*
G03X523913Y290884I-377J-135D01*
G02X522700Y290498I-1214J1716D01*
G02Y294702I0J2102D01*
G02X524679Y293308I0J-2102D01*
G03X525287Y293116I377J135D01*
G02X526500Y293502I1214J-1716D01*
G02Y289298I0J-2102D01*
G02X524521Y290692I0J2102D01*
G37*
G36*
G01X544350Y308899D02*
G03X544483Y309545I-155J369D01*
G02X543898Y311000I1517J1455D01*
G02X548102I2102J0D01*
G02X547517Y309545I-2102J0D01*
G03X547650Y308899I288J-277D01*
G02X550234Y305000I-1650J-3899D01*
G02X546000Y300766I-4234J0D01*
G02X542345Y302862I0J4235D01*
G03X541655I-345J-202D01*
G02X538000Y300766I-3655J2139D01*
G02X533766Y305000I0J4234D01*
G02X536350Y308899I4234J0D01*
G03X536483Y309545I-155J369D01*
G02X535898Y311000I1517J1455D01*
G02X540102I2102J0D01*
G02X539517Y309545I-2102J0D01*
G03X539650Y308899I288J-277D01*
G02X541655Y307138I-1649J-3900D01*
G03X542345I345J202D01*
G02X544350Y308899I3654J-2139D01*
G37*
G36*
G01X261017Y317083D02*
G03X261001Y317626I-301J263D01*
G02X260398Y319100I1500J1474D01*
G02X264602I2102J0D01*
G02X264083Y317717I-2102J0D01*
G03X264099Y317174I301J-263D01*
G02X264702Y315700I-1500J-1474D01*
G02X260498I-2102J0D01*
G02X261017Y317083I2102J0D01*
G37*
G36*
G01X248663Y318934D02*
G03X248679Y319462I-292J273D01*
G02X248198Y320800I1620J1338D01*
G02X250300Y322902I2102J0D01*
G02X251770Y322302I0J-2101D01*
G03X252330I280J286D01*
G02X253800Y322902I1470J-1501D01*
G02X255902Y320800I0J-2102D01*
G02X255337Y319366I-2102J0D01*
G03X255321Y318838I292J-273D01*
G02X255802Y317500I-1620J-1338D01*
G02X253700Y315398I-2102J0D01*
G02X252230Y315998I0J2101D01*
G03X251670I-280J-286D01*
G02X250200Y315398I-1470J1501D01*
G02X248098Y317500I0J2102D01*
G02X248663Y318934I2102J0D01*
G37*
G36*
G01X145664Y322643D02*
G03X146336I336J217D01*
G02X149864I1764J-1143D01*
G03X150536I336J217D01*
G02X152300Y323602I1764J-1143D01*
G02X154402Y321500I0J-2102D01*
G02X153443Y319736I-2102J0D01*
G03Y319064I217J-336D01*
G02Y315536I-1143J-1764D01*
G03Y314864I217J-336D01*
G02X154402Y313100I-1143J-1764D01*
G02X152300Y310998I-2102J0D01*
G02X150536Y311957I0J2102D01*
G03X149864I-336J-217D01*
G02X146336I-1764J1143D01*
G03X145664I-336J-217D01*
G02X143900Y310998I-1764J1143D01*
G02X141798Y313100I0J2102D01*
G02X142757Y314864I2102J0D01*
G03Y315536I-217J336D01*
G02Y319064I1143J1764D01*
G03Y319736I-217J336D01*
G02X141798Y321500I1143J1764D01*
G02X143900Y323602I2102J0D01*
G02X145664Y322643I0J-2102D01*
G37*
G36*
G01X174389Y327093D02*
G03X174607Y327311I18J200D01*
G02X174598Y327500I2093J194D01*
G02X178802I2102J0D01*
G02X176702Y325398I-2102J0D01*
G03X176302Y324998I0J-400D01*
G02X176293Y324811I-2102J7D01*
G03X176511Y324593I200J-18D01*
G02X176700Y324602I194J-2093D01*
G02Y320398I0J-2102D01*
G02X174598Y322498I0J2102D01*
G03X174198Y322898I-400J0D01*
G02X174011Y322907I7J2102D01*
G03X173793Y322689I-18J-200D01*
G02X173802Y322500I-2093J-194D01*
G02X169598I-2102J0D01*
G02X171698Y324602I2102J0D01*
G03X172098Y325002I0J400D01*
G02X172107Y325189I2102J-7D01*
G03X171889Y325407I-200J18D01*
G02X171700Y325398I-194J2093D01*
G02Y329602I0J2102D01*
G02X173802Y327502I0J-2102D01*
G03X174202Y327102I400J0D01*
G02X174389Y327093I-7J-2102D01*
G37*
G36*
G01X536529Y340895D02*
G03X536852Y341477I-32J399D01*
G02X536617Y342443I1868J966D01*
G02X540821I2102J0D01*
G02X538890Y340348I-2102J0D01*
G03X538567Y339766I32J-399D01*
G02X538802Y338800I-1868J-966D01*
G02X534598I-2102J0D01*
G02X536529Y340895I2102J0D01*
G37*
G36*
G01X544433Y339766D02*
G03X544110Y340348I-355J183D01*
G02X542179Y342443I171J2095D01*
G02X546383I2102J0D01*
G02X546148Y341477I-2103J0D01*
G03X546471Y340895I355J-183D01*
G02X548402Y338800I-171J-2095D01*
G02X544198I-2102J0D01*
G02X544433Y339766I2103J0D01*
G37*
G36*
G01X153085Y343930D02*
G03X152509Y343928I-287J-279D01*
G02X150990Y343279I-1519J1453D01*
G02Y347483I0J2102D01*
G02X152497Y346846I0J-2101D01*
G03X153073Y346848I287J279D01*
G02X154592Y347497I1519J-1453D01*
G02X156179Y346773I0J-2101D01*
G03X156771Y346759I302J262D01*
G02X158291Y347409I1520J-1452D01*
G02Y343205I0J-2102D01*
G02X156704Y343929I0J2101D01*
G03X156112Y343943I-302J-262D01*
G02X154592Y343293I-1520J1452D01*
G02X153085Y343930I0J2101D01*
G37*
G36*
G01X191185Y344030D02*
G03X190609Y344028I-287J-279D01*
G02X189090Y343379I-1519J1453D01*
G02Y347583I0J2102D01*
G02X190597Y346946I0J-2101D01*
G03X191173Y346948I287J279D01*
G02X192692Y347597I1519J-1453D01*
G02X194279Y346873I0J-2101D01*
G03X194871Y346859I302J262D01*
G02X196391Y347509I1520J-1452D01*
G02Y343305I0J-2102D01*
G02X194804Y344029I0J2101D01*
G03X194212Y344043I-302J-262D01*
G02X192692Y343393I-1520J1452D01*
G02X191185Y344030I0J2101D01*
G37*
G36*
G01X173905Y348158D02*
G03X174528Y348174I305J258D01*
G02X176200Y349002I1672J-1274D01*
G02X177838Y348217I0J-2101D01*
G03X178462I312J251D01*
G02X180100Y349002I1638J-1316D01*
G02Y344798I0J-2102D01*
G02X178462Y345583I0J2101D01*
G03X177838I-312J-251D01*
G02X176200Y344798I-1638J1316D01*
G02X174595Y345542I0J2103D01*
G03X173972Y345526I-305J-258D01*
G02X172300Y344698I-1672J1274D01*
G02X170620Y345537I0J2102D01*
G03X169980I-320J-240D01*
G02X168300Y344698I-1680J1263D01*
G02Y348902I0J2102D01*
G02X169980Y348063I0J-2102D01*
G03X170620I320J240D01*
G02X172300Y348902I1680J-1263D01*
G02X173905Y348158I0J-2103D01*
G37*
G36*
G01X640001Y369269D02*
G03X639852Y369950I-266J299D01*
G02X636854Y374000I1237J4050D01*
G02X645322I4234J0D01*
G02X642718Y370092I-4235J0D01*
G03X642637Y369400I154J-369D01*
G02X643502Y367700I-1238J-1700D01*
G02X639298I-2102J0D01*
G02X640001Y369269I2102J0D01*
G37*
G36*
G01X174289Y385593D02*
G03X174507Y385811I18J200D01*
G02X174498Y386000I2093J194D01*
G02X178702I2102J0D01*
G02X176602Y383898I-2102J0D01*
G03X176202Y383498I0J-400D01*
G02X176193Y383311I-2102J7D01*
G03X176411Y383093I200J-18D01*
G02X176600Y383102I194J-2093D01*
G02Y378898I0J-2102D01*
G02X174498Y380998I0J2102D01*
G03X174098Y381398I-400J0D01*
G02X173911Y381407I7J2102D01*
G03X173693Y381189I-18J-200D01*
G02X173702Y381000I-2093J-194D01*
G02X169498I-2102J0D01*
G02X171598Y383102I2102J0D01*
G03X171998Y383502I0J400D01*
G02X172007Y383689I2102J-7D01*
G03X171789Y383907I-200J18D01*
G02X171600Y383898I-194J2093D01*
G02Y388102I0J2102D01*
G02X173702Y386002I0J-2102D01*
G03X174102Y385602I400J0D01*
G02X174289Y385593I-7J-2102D01*
G37*
G36*
G01X168140Y395997D02*
G03X168764Y396221I236J323D01*
G02X170800Y397802I2036J-520D01*
G02Y393598I0J-2102D01*
G02X169560Y394003I0J2101D01*
G03X168936Y393779I-236J-323D01*
G02X166900Y392198I-2036J520D01*
G02Y396402I0J2102D01*
G02X168140Y395997I0J-2101D01*
G37*
G36*
G01X146785Y396430D02*
G03X146209Y396428I-287J-279D01*
G02X144690Y395779I-1519J1453D01*
G02Y399983I0J2102D01*
G02X146197Y399346I0J-2101D01*
G03X146773Y399348I287J279D01*
G02X148292Y399997I1519J-1453D01*
G02X149879Y399273I0J-2101D01*
G03X150471Y399259I302J262D01*
G02X151991Y399909I1520J-1452D01*
G02Y395705I0J-2102D01*
G02X150404Y396429I0J2101D01*
G03X149812Y396443I-302J-262D01*
G02X148292Y395793I-1520J1452D01*
G02X146785Y396430I0J2101D01*
G37*
G36*
G01X196885D02*
G03X196309Y396428I-287J-279D01*
G02X194790Y395779I-1519J1453D01*
G02Y399983I0J2102D01*
G02X196297Y399346I0J-2101D01*
G03X196873Y399348I287J279D01*
G02X198392Y399997I1519J-1453D01*
G02X199979Y399273I0J-2101D01*
G03X200571Y399259I302J262D01*
G02X202091Y399909I1520J-1452D01*
G02Y395705I0J-2102D01*
G02X200504Y396429I0J2101D01*
G03X199912Y396443I-302J-262D01*
G02X198392Y395793I-1520J1452D01*
G02X196885Y396430I0J2101D01*
G37*
G36*
G01X173812Y409420D02*
G03X174451Y409404I326J232D01*
G02X177749I1649J-1305D01*
G03X178388Y409420I313J248D01*
G02X180100Y410302I1712J-1221D01*
G02Y406098I0J-2102D01*
G02X178451Y406896I0J2103D01*
G03X177812Y406880I-313J-248D01*
G02X174388I-1712J1221D01*
G03X173749Y406896I-326J-232D01*
G02X172100Y406098I-1649J1305D01*
G02X170420Y406937I0J2102D01*
G03X169780I-320J-240D01*
G02X168100Y406098I-1680J1263D01*
G02Y410302I0J2102D01*
G02X169780Y409463I0J-2102D01*
G03X170420I320J240D01*
G02X172100Y410302I1680J-1263D01*
G02X173812Y409420I0J-2103D01*
G37*
G36*
G01X547378Y447595D02*
G03X546722I-328J-229D01*
G02X545000Y446698I-1722J1204D01*
G02Y450902I0J2102D01*
G02X546722Y450005I0J-2101D01*
G03X547378I328J229D01*
G02X549100Y450902I1722J-1204D01*
G02Y446698I0J-2102D01*
G02X547378Y447595I0J2101D01*
G37*
G36*
G01X536485Y447685D02*
G03X535822Y447669I-326J-232D01*
G02X534050Y446698I-1772J1131D01*
G02Y450902I0J2102D01*
G02X535765Y450015I0J-2101D01*
G03X536428Y450031I326J232D01*
G02X538200Y451002I1772J-1131D01*
G02Y446798I0J-2102D01*
G02X536485Y447685I0J2101D01*
G37*
G36*
G01X533090Y481302D02*
G03X533759Y481284I340J210D01*
G02X535488Y482190I1729J-1197D01*
G02X537200Y481308I0J-2103D01*
G03X537863Y481326I325J232D01*
G02X539638Y482302I1775J-1126D01*
G02Y478098I0J-2102D01*
G02X537926Y478980I0J2103D01*
G03X537263Y478962I-325J-232D01*
G02X535488Y477986I-1775J1126D01*
G02X533698Y478986I0J2102D01*
G03X533029Y479004I-340J-210D01*
G02X531300Y478098I-1729J1197D01*
G02Y482302I0J2102D01*
G02X533090Y481302I0J-2102D01*
G37*
G36*
G01X545264Y486729D02*
G03X544592I-336J-217D01*
G02X542828Y485770I-1764J1143D01*
G02Y489974I0J2102D01*
G02X544592Y489015I0J-2102D01*
G03X545264I336J217D01*
G02X547028Y489974I1764J-1143D01*
G02Y485770I0J-2102D01*
G02X545264Y486729I0J2102D01*
G37*
G36*
G01X327391Y490576D02*
G03X328031Y490735I265J299D01*
G02X330000Y492102I1969J-735D01*
G02Y487898I0J-2102D01*
G02X328609Y488424I0J2102D01*
G03X327969Y488265I-265J-299D01*
G02X324031I-1969J735D01*
G03X323391Y488424I-375J-140D01*
G02X322000Y487898I-1391J1576D01*
G02Y492102I0J2102D01*
G02X323969Y490735I0J-2102D01*
G03X324609Y490576I375J140D01*
G02X327391I1391J-1576D01*
G37*
G36*
G01X510311Y485550D02*
G03X510559Y486264I0J400D01*
G02X509093Y489290I2390J3026D01*
G02X516805I3856J0D01*
G02X515339Y486264I-3856J0D01*
G03X515587Y485550I248J-314D01*
G01X516886D01*
G02X517872Y484565I1J-985D01*
G01Y476691D01*
G02X516886Y475706I-986J1D01*
G01X509012D01*
G02X508026Y476691I-1J985D01*
G01Y484565D01*
G02X509012Y485550I986J-1D01*
G01X510311D01*
G37*
G36*
G01X670327Y98737D02*
G02X669198Y100600I973J1863D01*
G02X673402I2102J0D01*
G02X672583Y98935I-2102J0D01*
G03X672642Y98263I244J-317D01*
G02X673771Y96400I-973J-1863D01*
G02X669567I-2102J0D01*
G02X670386Y98065I2102J0D01*
G03X670327Y98737I-244J317D01*
G37*
G36*
G01X676252Y98908D02*
G02X675398Y100600I1249J1692D01*
G02X679602I2102J0D01*
G02X678522Y98763I-2102J0D01*
G03X678479Y98092I194J-349D01*
G02X679333Y96400I-1249J-1692D01*
G02X675129I-2102J0D01*
G02X676209Y98237I2102J0D01*
G03X676252Y98908I-194J349D01*
G37*
G36*
G01X964655Y98773D02*
G02X964100Y98698I-556J2027D01*
G02X966202Y100800I0J2102D01*
G02X966066Y100055I-2102J-1D01*
G03X966545Y99527I374J-142D01*
G02X967100Y99602I556J-2027D01*
G02X964998Y97500I0J-2102D01*
G02X965134Y98245I2102J1D01*
G03X964655Y98773I-374J142D01*
G37*
G36*
G01X984589Y100125D02*
G02X984398Y101000I1911J875D01*
G02X986500Y98898I2102J0D01*
G02X986111Y98934I-2J2102D01*
G03X985673Y98375I-74J-393D01*
G02X985864Y97500I-1911J-875D01*
G02X983762Y99602I-2102J0D01*
G02X984151Y99566I2J-2102D01*
G03X984589Y100125I74J393D01*
G37*
G36*
G01X139190Y112381D02*
G02X137300Y111198I-1890J918D01*
G02Y115402I0J2102D01*
G02X139190Y114219I0J-2101D01*
G03X139910I360J175D01*
G02X141800Y115402I1890J-918D01*
G02Y111198I0J-2102D01*
G02X139910Y112381I0J2101D01*
G03X139190I-360J-175D01*
G37*
G36*
G01X139171Y117742D02*
G02X137300Y116598I-1871J958D01*
G02Y120802I0J2102D01*
G02X139126Y119742I0J-2103D01*
G03X139829Y119758I347J198D01*
G02X141700Y120902I1871J-958D01*
G02Y116698I0J-2102D01*
G02X139874Y117758I0J2103D01*
G03X139171Y117742I-347J-198D01*
G37*
G36*
G01X688769Y119794D02*
G02X690869Y121802I2100J-94D01*
G02Y117598I0J-2102D01*
G02X689886Y117842I0J2102D01*
G03X689300Y117506I-186J-354D01*
G02X687200Y115498I-2100J94D01*
G02Y119702I0J2102D01*
G02X688183Y119458I0J-2102D01*
G03X688769Y119794I186J354D01*
G37*
G36*
G01X697245Y117762D02*
G02X696431Y117598I-814J1938D01*
G02X698533Y119700I0J2102D01*
G02X698532Y119622I-2102J-12D01*
G03X699086Y119238I400J-15D01*
G02X699900Y119402I814J-1938D01*
G02X697798Y117300I0J-2102D01*
G02X697799Y117378I2102J12D01*
G03X697245Y117762I-400J15D01*
G37*
G36*
G01X139994Y125075D02*
G02X141800Y126102I1806J-1074D01*
G02X143690Y124919I0J-2101D01*
G03X144410I360J175D01*
G02X146300Y126102I1890J-918D01*
G02Y121898I0J-2102D01*
G02X144410Y123081I0J2101D01*
G03X143690I-360J-175D01*
G02X141800Y121898I-1890J918D01*
G02X139994Y122925I0J2101D01*
G03X139306I-344J-205D01*
G02X137500Y121898I-1806J1074D01*
G02Y126102I0J2102D01*
G02X139306Y125075I0J-2101D01*
G03X139994I344J205D01*
G37*
G36*
G01X505225Y129994D02*
G02X504198Y131800I1074J1806D01*
G02X508402I2102J0D01*
G02X507375Y129994I-2101J0D01*
G03Y129306I205J-344D01*
G02X508402Y127500I-1074J-1806D01*
G02X507301Y125652I-2101J0D01*
G03Y124948I191J-352D01*
G02X508402Y123100I-1000J-1848D01*
G02X504198I-2102J0D01*
G02X505299Y124948I2101J0D01*
G03Y125652I-191J352D01*
G02X504198Y127500I1000J1848D01*
G02X505225Y129306I2101J0D01*
G03Y129994I-205J344D01*
G37*
G36*
G01X735360Y139803D02*
G02X733398Y141900I140J2097D01*
G02X737602I2102J0D01*
G02X737294Y140805I-2102J0D01*
G03X737609Y140197I341J-209D01*
G02X739571Y138100I-140J-2097D01*
G02X735367I-2102J0D01*
G02X735675Y139195I2102J0D01*
G03X735360Y139803I-341J209D01*
G37*
G36*
G01X742974Y140800D02*
G02X742598Y142000I1727J1200D01*
G02X746802I2102J0D01*
G02X745024Y139923I-2102J0D01*
G03X744757Y139300I62J-395D01*
G02X745133Y138100I-1727J-1200D01*
G02X740929I-2102J0D01*
G02X742707Y140177I2102J0D01*
G03X742974Y140800I-62J395D01*
G37*
G36*
G01X439990Y142181D02*
G02X438100Y140998I-1890J918D01*
G02Y145202I0J2102D01*
G02X439990Y144019I0J-2101D01*
G03X440710I360J175D01*
G02X442600Y145202I1890J-918D01*
G02Y140998I0J-2102D01*
G02X440710Y142181I0J2101D01*
G03X439990I-360J-175D01*
G37*
G36*
G01X484927Y165261D02*
G02X483000Y163998I-1927J839D01*
G02Y168202I0J2102D01*
G02X484927Y166939I0J-2102D01*
G03X485661I367J160D01*
G02X487588Y168202I1927J-839D01*
G02Y163998I0J-2102D01*
G02X485661Y165261I0J2102D01*
G03X484927I-367J-160D01*
G37*
G36*
G01X494497Y165170D02*
G02X492612Y163998I-1885J930D01*
G02Y168202I0J2102D01*
G02X494497Y167030I0J-2102D01*
G03X495215I359J176D01*
G02X497100Y168202I1885J-930D01*
G02Y163998I0J-2102D01*
G02X495215Y165170I0J2102D01*
G03X494497I-359J-176D01*
G37*
G36*
G01X401600Y165027D02*
G02X400100Y164398I-1500J1474D01*
G02Y168602I0J2102D01*
G02X402129Y167049I0J-2102D01*
G03X402800Y166873I386J104D01*
G02X404300Y167502I1500J-1474D01*
G02Y163298I0J-2102D01*
G02X402271Y164851I0J2102D01*
G03X401600Y165027I-386J-104D01*
G37*
G36*
G01X705944Y172419D02*
G02X704216Y171513I-1728J1195D01*
G02Y175717I0J2102D01*
G02X706255Y174127I0J-2102D01*
G03X706972Y173996I388J97D01*
G02X708700Y174902I1728J-1195D01*
G02Y170698I0J-2102D01*
G02X706661Y172288I0J2102D01*
G03X705944Y172419I-388J-97D01*
G37*
G36*
G01X389566Y209099D02*
G02X388331Y208698I-1235J1701D01*
G02Y212902I0J2102D01*
G02X390430Y210905I0J-2102D01*
G03X391065Y210601I400J19D01*
G02X392300Y211002I1235J-1701D01*
G02Y206798I0J-2102D01*
G02X390201Y208795I0J2102D01*
G03X389566Y209099I-400J-19D01*
G37*
G36*
G01X448999Y211590D02*
G02X447931Y211298I-1069J1810D01*
G02Y215502I0J2102D01*
G02X450029Y213530I0J-2102D01*
G03X450632Y213210I399J24D01*
G02X451700Y213502I1069J-1810D01*
G02Y209298I0J-2102D01*
G02X449602Y211270I0J2102D01*
G03X448999Y211590I-399J-24D01*
G37*
G36*
G01X743342Y219301D02*
G02X741300Y217698I-2042J499D01*
G02Y221902I0J2102D01*
G02X742703Y221365I0J-2101D01*
G03X743358Y221568I267J298D01*
G02X745400Y223171I2042J-499D01*
G02Y218967I0J-2102D01*
G02X743997Y219504I0J2101D01*
G03X743342Y219301I-267J-298D01*
G37*
G36*
G01X711858Y219571D02*
G02X709800Y217898I-2058J429D01*
G02Y222102I0J2102D01*
G02X711187Y221580I1J-2102D01*
G03X711842Y221798I264J300D01*
G02X713900Y223471I2058J-429D01*
G02Y219267I0J-2102D01*
G02X712513Y219789I-1J2102D01*
G03X711858Y219571I-264J-300D01*
G37*
G36*
G01X925829Y222231D02*
G02X927900Y223971I2071J-362D01*
G02Y219767I0J-2102D01*
G02X926358Y220441I0J2101D01*
G03X925671Y220238I-293J-272D01*
G02X923600Y218498I-2071J362D01*
G02Y222702I0J2102D01*
G02X925142Y222028I0J-2101D01*
G03X925829Y222231I293J272D01*
G37*
G36*
G01X742673Y226509D02*
G02X741300Y225998I-1374J1591D01*
G02Y230202I0J2102D01*
G02X743371Y228457I0J-2101D01*
G03X744027Y228222I394J68D01*
G02X745400Y228733I1374J-1591D01*
G02Y224529I0J-2102D01*
G02X743329Y226274I0J2101D01*
G03X742673Y226509I-394J-68D01*
G37*
G36*
G01X711162Y226899D02*
G02X709800Y226398I-1362J1601D01*
G02Y230602I0J2102D01*
G02X711883Y228783I0J-2102D01*
G03X712538Y228532I396J54D01*
G02X713900Y229033I1362J-1601D01*
G02Y224829I0J-2102D01*
G02X711817Y226648I0J2102D01*
G03X711162Y226899I-396J-54D01*
G37*
G36*
G01X463545Y226862D02*
G02X462731Y226698I-814J1938D01*
G02X464833Y228800I0J2102D01*
G02X464832Y228722I-2102J-12D01*
G03X465386Y228338I400J-15D01*
G02X466200Y228502I814J-1938D01*
G02X464098Y226400I0J-2102D01*
G02X464099Y226478I2102J12D01*
G03X463545Y226862I-400J15D01*
G37*
G36*
G01X801390Y227368D02*
G02X800200Y226998I-1191J1732D01*
G02X802302Y229100I0J2102D01*
G02X802286Y228842I-2102J1D01*
G03X802910Y228463I397J-49D01*
G02X804100Y228833I1191J-1732D01*
G02X801998Y226731I0J-2102D01*
G02X802014Y226989I2102J-1D01*
G03X801390Y227368I-397J49D01*
G37*
G36*
G01X925127Y227657D02*
G02X923700Y227098I-1427J1542D01*
G02Y231302I0J2102D01*
G02X925801Y229257I0J-2102D01*
G03X926473Y228974I400J10D01*
G02X927900Y229533I1427J-1542D01*
G02Y225329I0J-2102D01*
G02X925799Y227374I0J2102D01*
G03X925127Y227657I-400J-10D01*
G37*
G36*
G01X471591Y234097D02*
G02X470231Y233598I-1360J1604D01*
G02Y237802I0J2102D01*
G02X472289Y236126I0J-2102D01*
G03X472940Y235903I392J82D01*
G02X474300Y236402I1360J-1604D01*
G02Y232198I0J-2102D01*
G02X472242Y233874I0J2102D01*
G03X471591Y234097I-392J-82D01*
G37*
G36*
G01X769516Y241964D02*
G02X771600Y243790I2084J-276D01*
G02Y239586I0J-2102D01*
G02X770071Y240245I0J2103D01*
G03X769384Y240024I-291J-274D01*
G02X767300Y238198I-2084J276D01*
G02Y242402I0J2102D01*
G02X768829Y241743I0J-2103D01*
G03X769516Y241964I291J274D01*
G37*
G36*
G01X490177Y247107D02*
G02X488931Y246698I-1246J1693D01*
G02X491033Y248800I0J2102D01*
G02X491019Y248560I-2102J2D01*
G03X491654Y248193I397J-45D01*
G02X492900Y248602I1246J-1693D01*
G02X490798Y246500I0J-2102D01*
G02X490812Y246740I2102J-2D01*
G03X490177Y247107I-397J45D01*
G37*
G36*
G01X1088117Y250252D02*
G02X1090200Y252071I2083J-283D01*
G02Y247867I0J-2102D01*
G02X1088838Y248368I0J2102D01*
G03X1088183Y248117I-259J-305D01*
G02X1086100Y246298I-2083J283D01*
G02Y250502I0J2102D01*
G02X1087462Y250001I0J-2102D01*
G03X1088117Y250252I259J305D01*
G37*
G36*
G01X1087974Y257099D02*
G02X1087900Y257098I-65J2101D01*
G02X1090002Y259200I0J2102D01*
G02X1089759Y258218I-2102J-1D01*
G03X1090126Y257632I354J-187D01*
G02X1090200Y257633I65J-2101D01*
G02X1088098Y255531I0J-2102D01*
G02X1088341Y256513I2102J1D01*
G03X1087974Y257099I-354J187D01*
G37*
G36*
G01X576494Y258542D02*
G02X575428Y260371I1036J1829D01*
G02X579632I2102J0D01*
G02X578541Y258528I-2102J0D01*
G03X578536Y257829I192J-351D01*
G02X579602Y256000I-1036J-1829D01*
G02X575398I-2102J0D01*
G02X576489Y257843I2102J0D01*
G03X576494Y258542I-192J351D01*
G37*
G36*
G01X589913Y272220D02*
G02X588898Y274019I1087J1799D01*
G02X593102I2102J0D01*
G02X592171Y272273I-2103J0D01*
G03X592187Y271599I223J-332D01*
G02X593202Y269800I-1087J-1799D01*
G02X588998I-2102J0D01*
G02X589929Y271546I2103J0D01*
G03X589913Y272220I-223J332D01*
G37*
G36*
G01X531562Y289686D02*
G02X531398Y290500I1938J814D01*
G02X533500Y288398I2102J0D01*
G02X533001Y288458I0J2102D01*
G03X532538Y287914I-94J-389D01*
G02X532702Y287100I-1938J-814D01*
G02X530600Y289202I-2102J0D01*
G02X531099Y289142I0J-2102D01*
G03X531562Y289686I94J389D01*
G37*
G36*
G01X1105020Y313268D02*
G02X1104817Y314169I1898J901D01*
G02X1106919Y312067I2102J0D01*
G02X1106786Y312071I-3J2102D01*
G03X1106399Y311501I-25J-399D01*
G02X1106602Y310600I-1898J-901D01*
G02X1104500Y312702I-2102J0D01*
G02X1104633Y312698I3J-2102D01*
G03X1105020Y313268I25J399D01*
G37*
G36*
G01X1112336Y312072D02*
G02X1110379Y314169I145J2097D01*
G02X1114583I2102J0D01*
G02X1114238Y313015I-2103J0D01*
G03X1114545Y312397I335J-219D01*
G02X1116502Y310300I-145J-2097D01*
G02X1112298I-2102J0D01*
G02X1112643Y311454I2103J0D01*
G03X1112336Y312072I-335J219D01*
G37*
G36*
G01X640261Y314143D02*
G02X640217Y314569I2058J428D01*
G02X642319Y312467I2102J0D01*
G02X641421Y312668I-1J2102D01*
G03X640858Y312226I-171J-361D01*
G02X640902Y311800I-2058J-428D01*
G02X638800Y313902I-2102J0D01*
G02X639698Y313701I1J-2102D01*
G03X640261Y314143I171J361D01*
G37*
G36*
G01X727364Y314129D02*
G02X727317Y314569I2055J442D01*
G02X729419Y312467I2102J0D01*
G02X728686Y312599I0J2101D01*
G03X728155Y312140I-140J-375D01*
G02X728202Y311700I-2055J-442D01*
G02X726100Y313802I-2102J0D01*
G02X726833Y313670I0J-2101D01*
G03X727364Y314129I140J375D01*
G37*
G36*
G01X815202Y313977D02*
G02X815117Y314569I2017J592D01*
G02X817219Y312467I2102J0D01*
G02X816532Y312583I2J2102D01*
G03X816017Y312092I-131J-378D01*
G02X816102Y311500I-2017J-592D01*
G02X814000Y313602I-2102J0D01*
G02X814687Y313486I-2J-2102D01*
G03X815202Y313977I131J378D01*
G37*
G36*
G01X1018084Y313749D02*
G02X1017917Y314569I1935J821D01*
G02X1020019Y312467I2102J0D01*
G02X1019838Y312475I2J2102D01*
G03X1019435Y311920I-35J-399D01*
G02X1019602Y311100I-1935J-821D01*
G02X1017500Y313202I-2102J0D01*
G02X1017681Y313194I-2J-2102D01*
G03X1018084Y313749I35J399D01*
G37*
G36*
G01X1025838Y312483D02*
G02X1025581Y312467I-259J2086D01*
G02X1027683Y314569I0J2102D01*
G02X1027272Y313321I-2102J1D01*
G03X1027643Y312686I322J-238D01*
G02X1027900Y312702I259J-2086D01*
G02X1025798Y310600I0J-2102D01*
G02X1026209Y311848I2102J-1D01*
G03X1025838Y312483I-322J238D01*
G37*
G36*
G01X649955Y314227D02*
G02X647881Y312467I-2074J342D01*
G02Y316671I0J2102D01*
G02X649100Y316282I1J-2102D01*
G03X649726Y316542I232J326D01*
G02X651800Y318302I2074J-342D01*
G02Y314098I0J-2102D01*
G02X650581Y314487I-1J2102D01*
G03X649955Y314227I-232J-326D01*
G37*
G36*
G01X227079Y315648D02*
G02X226898Y316500I1921J853D01*
G02X231102I2102J0D01*
G02X229241Y314412I-2102J0D01*
G03X228921Y313852I46J-398D01*
G02X229102Y313000I-1921J-853D01*
G02X228924Y312154I-2102J1D01*
G03X229324Y311595I366J-161D01*
G02X229500Y311602I171J-2095D01*
G02X227398Y309500I0J-2102D01*
G02X227576Y310346I2102J-1D01*
G03X227176Y310905I-366J161D01*
G02X227000Y310898I-171J2095D01*
G02X224898Y313000I0J2102D01*
G02X226759Y315088I2102J0D01*
G03X227079Y315648I-46J398D01*
G37*
G36*
G01X492673Y327768D02*
G02X491398Y329700I826J1932D01*
G02X495602I2102J0D01*
G02X494327Y327768I-2101J0D01*
G03Y327032I158J-368D01*
G02X495602Y325100I-826J-1932D01*
G02X491398I-2102J0D01*
G02X492673Y327032I2101J0D01*
G03Y327768I-158J368D01*
G37*
G36*
G01X233890Y341881D02*
G02X232000Y340698I-1890J918D01*
G02Y344902I0J2102D01*
G02X233890Y343719I0J-2101D01*
G03X234610I360J175D01*
G02X236500Y344902I1890J-918D01*
G02Y340698I0J-2102D01*
G02X234610Y341881I0J2101D01*
G03X233890I-360J-175D01*
G37*
G36*
G01X247890D02*
G02X246000Y340698I-1890J918D01*
G02Y344902I0J2102D01*
G02X247890Y343719I0J-2101D01*
G03X248610I360J175D01*
G02X250500Y344902I1890J-918D01*
G02Y340698I0J-2102D01*
G02X248610Y341881I0J2101D01*
G03X247890I-360J-175D01*
G37*
G36*
G01X233871Y347242D02*
G02X232000Y346098I-1871J958D01*
G02Y350302I0J2102D01*
G02X233826Y349242I0J-2103D01*
G03X234529Y349258I347J198D01*
G02X236400Y350402I1871J-958D01*
G02Y346198I0J-2102D01*
G02X234574Y347258I0J2103D01*
G03X233871Y347242I-347J-198D01*
G37*
G36*
G01X247871D02*
G02X246000Y346098I-1871J958D01*
G02Y350302I0J2102D01*
G02X247826Y349242I0J-2103D01*
G03X248529Y349258I347J198D01*
G02X250400Y350402I1871J-958D01*
G02Y346198I0J-2102D01*
G02X248574Y347258I0J2103D01*
G03X247871Y347242I-347J-198D01*
G37*
G36*
G01X234694Y354575D02*
G02X236500Y355602I1806J-1074D01*
G02X238390Y354419I0J-2101D01*
G03X239110I360J175D01*
G02X241000Y355602I1890J-918D01*
G02Y351398I0J-2102D01*
G02X239110Y352581I0J2101D01*
G03X238390I-360J-175D01*
G02X236500Y351398I-1890J918D01*
G02X234694Y352425I0J2101D01*
G03X234006I-344J-205D01*
G02X232200Y351398I-1806J1074D01*
G02Y355602I0J2102D01*
G02X234006Y354575I0J-2101D01*
G03X234694I344J205D01*
G37*
G36*
G01X248694D02*
G02X250500Y355602I1806J-1074D01*
G02X252390Y354419I0J-2101D01*
G03X253110I360J175D01*
G02X255000Y355602I1890J-918D01*
G02Y351398I0J-2102D01*
G02X253110Y352581I0J2101D01*
G03X252390I-360J-175D01*
G02X250500Y351398I-1890J918D01*
G02X248694Y352425I0J2101D01*
G03X248006I-344J-205D01*
G02X246200Y351398I-1806J1074D01*
G02Y355602I0J2102D01*
G02X248006Y354575I0J-2101D01*
G03X248694I344J205D01*
G37*
G36*
G01X652263Y369979D02*
G02X649354Y374000I1325J4021D01*
G02X657822I4234J0D01*
G02X654804Y369944I-4235J0D01*
G03X654692Y369232I115J-383D01*
G02X655602Y367500I-1193J-1732D01*
G02X651398I-2102J0D01*
G02X652356Y369263I2101J0D01*
G03X652263Y369979I-218J336D01*
G37*
G36*
G01X414744Y373203D02*
G02X414066Y375500I3556J2298D01*
G02X422534I4234J0D01*
G02X421856Y373203I-4234J1D01*
G03X422192Y372586I336J-217D01*
G01X429908D01*
X431786Y370708D01*
Y338108D01*
X432708Y337186D01*
X471408D01*
X472786Y335808D01*
Y297292D01*
X472909Y297240D01*
G02X474147Y295778I-809J-1940D01*
G03X474834Y295602I389J91D01*
G02X476400Y296302I1566J-1402D01*
G02Y292098I0J-2102D01*
G02X474353Y293722I0J2102D01*
G03X473666Y293898I-389J-91D01*
G02X472909Y293360I-1566J1402D01*
G01X472786Y293308D01*
Y292692D01*
X471308Y291214D01*
X430287D01*
G03X429938Y290620I0J-400D01*
G02X430202Y289600I-1838J-1020D01*
G02X425998I-2102J0D01*
G02X426262Y290620I2102J0D01*
G03X425913Y291214I-349J194D01*
G01X409992D01*
X408614Y292592D01*
Y301408D01*
X415246Y308040D01*
X415229Y308142D01*
G02X415198Y308500I2071J360D01*
G02X417300Y310602I2102J0D01*
G02X419157Y309486I0J-2103D01*
G01X430792D01*
X431892Y310586D01*
X438092D01*
X438214Y310708D01*
Y317592D01*
X437392Y318414D01*
X432092D01*
X430592Y319914D01*
X416492D01*
X398872Y337534D01*
G03X398191Y337211I-283J-283D01*
G02X398202Y337000I-2091J-215D01*
G02X393998I-2102J0D01*
G02X394113Y337684I2102J-2D01*
G03X393734Y338214I-378J130D01*
G01X380614D01*
Y370908D01*
X382292Y372586D01*
X414408D01*
G03X414744Y373203I0J400D01*
G37*
G36*
G01X726681Y378788D02*
G02X725798Y380500I1218J1712D01*
G02X730002I2102J0D01*
G02X729012Y378716I-2102J0D01*
G03X729092Y377999I211J-339D01*
G02X731934Y374000I-1393J-3999D01*
G02X723466I-4234J0D01*
G02X726557Y378077I4234J0D01*
G03X726681Y378788I-108J385D01*
G37*
G36*
G01X227390Y382281D02*
G02X225500Y381098I-1890J918D01*
G02Y385302I0J2102D01*
G02X227390Y384119I0J-2101D01*
G03X228110I360J175D01*
G02X230000Y385302I1890J-918D01*
G02Y381098I0J-2102D01*
G02X228110Y382281I0J2101D01*
G03X227390I-360J-175D01*
G37*
G36*
G01X576025Y392034D02*
G02X578100Y393802I2075J-334D01*
G02Y389598I0J-2102D01*
G02X576736Y390101I0J2101D01*
G03X576081Y389860I-260J-304D01*
G02X574006Y388092I-2075J334D01*
G02Y392296I0J2102D01*
G02X575370Y391793I0J-2101D01*
G03X576025Y392034I260J304D01*
G37*
G36*
G01X575755Y413289D02*
G02X574037Y412398I-1718J1211D01*
G02Y416602I0J2102D01*
G02X575984Y415291I0J-2101D01*
G03X576682Y415211I371J150D01*
G02X578400Y416102I1718J-1211D01*
G02Y411898I0J-2102D01*
G02X576453Y413209I0J2101D01*
G03X575755Y413289I-371J-150D01*
G37*
G36*
G01X623126Y437321D02*
Y445195D01*
G02X624112Y446180I986J-1D01*
G01X631986D01*
G02X632972Y445195I1J-985D01*
G01Y437321D01*
G02X631986Y436336I-986J1D01*
G01X624112D01*
G02X623126Y437321I-1J985D01*
G37*
G36*
G01X710226D02*
Y445195D01*
G02X711212Y446180I986J-1D01*
G01X719086D01*
G02X720072Y445195I1J-985D01*
G01Y437321D01*
G02X719086Y436336I-986J1D01*
G01X711212D01*
G02X710226Y437321I-1J985D01*
G37*
G36*
G01X798026D02*
Y445195D01*
G02X799012Y446180I986J-1D01*
G01X806886D01*
G02X807872Y445195I1J-985D01*
G01Y437321D01*
G02X806886Y436336I-986J1D01*
G01X799012D01*
G02X798026Y437321I-1J985D01*
G37*
G36*
G01X913126D02*
Y445195D01*
G02X914112Y446180I986J-1D01*
G01X921986D01*
G02X922972Y445195I1J-985D01*
G01Y437321D01*
G02X921986Y436336I-986J1D01*
G01X914112D01*
G02X913126Y437321I-1J985D01*
G37*
G36*
G01X913472Y413516D02*
G02X915563Y415402I2091J-216D01*
G02Y411198I0J-2102D01*
G02X913988Y411908I0J2102D01*
G03X913291Y411684I-299J-265D01*
G02X911200Y409798I-2091J216D01*
G02Y414002I0J2102D01*
G02X912775Y413292I0J-2102D01*
G03X913472Y413516I299J265D01*
G37*
G36*
G01X1000926Y437321D02*
Y445195D01*
G02X1001912Y446180I986J-1D01*
G01X1009786D01*
G02X1010772Y445195I1J-985D01*
G01Y437321D01*
G02X1009786Y436336I-986J1D01*
G01X1001912D01*
G02X1000926Y437321I-1J985D01*
G37*
G36*
G01X1087826D02*
Y445195D01*
G02X1088812Y446180I986J-1D01*
G01X1096686D01*
G02X1097672Y445195I1J-985D01*
G01Y437321D01*
G02X1096686Y436336I-986J1D01*
G01X1088812D01*
G02X1087826Y437321I-1J985D01*
G37*
G54D36*
X348400Y17900D03*
X614000Y16500D03*
X763850Y15850D03*
X937160Y17960D03*
X85000Y30000D03*
X121000D03*
X258000D03*
Y35000D03*
X282770Y36600D03*
X289500Y34100D03*
X334000Y23900D03*
X326700Y34272D03*
X346500Y34372D03*
X340400Y23500D03*
X370000Y32000D03*
X453100Y28100D03*
X499750Y24750D03*
X512500Y24400D03*
X522500Y23900D03*
X517500Y23849D03*
X527500D03*
X522500Y36151D03*
X532500Y22649D03*
X537500D03*
X542500D03*
X547500Y23849D03*
X557500Y20549D03*
X562500D03*
X552500Y23849D03*
X577500Y20549D03*
X582500D03*
Y36151D03*
X567500D03*
X572500D03*
Y23849D03*
X567500D03*
X597500Y20549D03*
X602500D03*
X597500Y36151D03*
X602500D03*
X587500D03*
Y20700D03*
X592600Y22100D03*
X617500Y20549D03*
X622500D03*
X612500Y36151D03*
Y23849D03*
X617500Y36151D03*
X632500Y23849D03*
X627500D03*
X637500Y20549D03*
X627500Y36151D03*
X647500Y23849D03*
X642500Y20549D03*
X657500D03*
X652500Y23849D03*
X647500Y36151D03*
X657500D03*
X642500D03*
X677500Y20549D03*
X662500Y36151D03*
X677500D03*
X697500Y20549D03*
X682500D03*
X687500Y23849D03*
X692500D03*
X705700Y24300D03*
X771600Y24100D03*
X769600Y37100D03*
X763600Y30100D03*
X769850Y29850D03*
X763600Y24100D03*
X790106Y33194D03*
X810300Y23000D03*
X816800D03*
X850086Y29200D03*
X836600Y36100D03*
X863700Y21600D03*
X870700Y21700D03*
X913600D03*
X258000Y44000D03*
Y50000D03*
X290300Y47559D03*
X321300Y47600D03*
Y42600D03*
X397100Y54100D03*
X498849Y47500D03*
X502500Y56151D03*
X507500Y43849D03*
X512500Y40549D03*
X527500D03*
X517500Y43849D03*
X522500D03*
X542500Y40549D03*
X547500Y43849D03*
X562500Y39451D03*
X552500Y43849D03*
X567500D03*
X582500D03*
X597500D03*
X612500D03*
X607500D03*
X627500D03*
X637500D03*
X652500D03*
X657500D03*
X642500D03*
X677500Y56151D03*
X667500Y43849D03*
X672500D03*
X693800Y39000D03*
X682500Y56151D03*
X687500Y43448D03*
X692500D03*
X768200Y50928D03*
X781906Y40006D03*
X809414Y40900D03*
X821600Y42100D03*
X817500Y50700D03*
X834500Y49200D03*
X844500Y40806D03*
X887200Y41800D03*
X873300Y39700D03*
X880500Y52143D03*
X894500Y39500D03*
X917500Y38800D03*
X1050800Y51900D03*
X11200Y72300D03*
X24100Y60500D03*
X258100Y57100D03*
X258300Y62700D03*
X315900D03*
X316164Y57736D03*
X343400Y59900D03*
X362200Y59000D03*
X476306Y61506D03*
X507500Y59451D03*
X522500D03*
X537500D03*
X552500D03*
X582500D03*
X567500D03*
X597500D03*
X612500D03*
X627500D03*
X639400Y59500D03*
X654400D03*
X672500Y59451D03*
X1029900Y57100D03*
X28935Y80735D03*
Y75735D03*
X33935Y80735D03*
Y75735D03*
Y90065D03*
X18935Y75735D03*
X33935Y100065D03*
Y95065D03*
X18935D03*
Y100065D03*
X23935D03*
Y95065D03*
X35800Y130100D03*
X23800Y150900D03*
Y156600D03*
X34500Y159700D03*
X22824Y167823D03*
X25700Y176100D03*
X26692Y181491D03*
X13647Y190253D03*
X23600Y197600D03*
Y203300D03*
X1095500Y62600D03*
X1105447Y62447D03*
X1100100Y60800D03*
X1123553Y62653D03*
X1133147Y62453D03*
X1151053Y62447D03*
X1186700Y69100D03*
X1166100Y165600D03*
X1107000Y177000D03*
X1148100Y178100D03*
X72206Y276906D03*
X52800Y295900D03*
X86440Y299740D03*
X83000Y283200D03*
X73250Y307550D03*
X106100Y309100D03*
X51100Y351100D03*
Y356100D03*
X56500Y341000D03*
X97953Y346847D03*
X94300Y356000D03*
X109200Y353600D03*
X86636Y359364D03*
X1166100Y369600D03*
X1178500Y380000D03*
X1183500Y393000D03*
X78000Y443000D03*
X100000Y453000D03*
X638200Y473542D03*
X642728Y487872D03*
X660037Y479800D03*
X672500Y473542D03*
X666336Y480436D03*
X725300Y473542D03*
X729828Y487872D03*
X753436Y480436D03*
X747137Y479800D03*
X759600Y473542D03*
X813100D03*
X817628Y487872D03*
X847400Y473542D03*
X841236Y480436D03*
X928200Y473542D03*
X932728Y487872D03*
X962500Y473542D03*
X956336Y480436D03*
X947100Y489100D03*
X953800Y488800D03*
X951700Y484400D03*
X1016000Y473542D03*
X1020528Y487872D03*
X1034800Y489200D03*
X1050300Y473542D03*
X1044136Y480436D03*
X1041600Y489200D03*
X1039300Y484000D03*
X1102900Y473742D03*
X1107428Y487869D03*
X1131036Y480636D03*
X1121700Y489200D03*
X1128100Y489100D03*
X1126200Y484000D03*
X1137200Y473742D03*
X81281Y502053D03*
X699000Y496000D03*
X781000Y500000D03*
X878000Y496000D03*
X90600Y527300D03*
X76900Y512600D03*
X257472Y528500D03*
X272772Y525300D03*
X314000Y523000D03*
X339000D03*
X352000Y527000D03*
Y514000D03*
X371000Y515000D03*
X470500Y516000D03*
X453500D03*
X910000Y515000D03*
X989000Y512000D03*
X1077000Y511000D03*
X54000Y536000D03*
X72850Y530850D03*
X89328Y534000D03*
X154000Y535000D03*
X180428Y539900D03*
X172850Y530850D03*
X240000Y529000D03*
X246000Y535000D03*
X276000Y540000D03*
X337000Y535000D03*
Y547000D03*
X335000Y541000D03*
X347000Y530000D03*
X359000D03*
X374000Y532000D03*
X394000Y537000D03*
X396000Y544000D03*
X386000Y550000D03*
X502100Y573100D03*
X706100Y579100D03*
X795100Y578100D03*
X989000Y575000D03*
X1076000Y573000D03*
X51873Y182008D03*
X45800D03*
Y176792D03*
X51873D03*
X104300Y113200D03*
Y118900D03*
X81600Y138000D03*
Y143700D03*
X81100Y215900D03*
Y210200D03*
X89000Y233300D03*
X107100Y234100D03*
X110100Y244400D03*
X493000Y74700D03*
X536600Y74600D03*
X909600Y74200D03*
X261100Y93100D03*
X404000Y93228D03*
X417000Y79000D03*
X425200Y89000D03*
X438000Y76000D03*
X450500Y82000D03*
X457198Y83058D03*
X497000Y87000D03*
X537100Y82600D03*
X565600Y77100D03*
X567100Y82600D03*
X599100D03*
X596500Y77000D03*
X790600Y84900D03*
X809414Y77900D03*
X873314Y78300D03*
X920400Y82000D03*
X949100Y80900D03*
X975300Y93700D03*
X1034753Y79053D03*
X1105000Y84600D03*
X1123398Y89598D03*
X1149002Y89398D03*
X281100Y108100D03*
X351100Y98100D03*
X395000Y107000D03*
X400000Y105600D03*
X425900Y106200D03*
X427900Y100400D03*
X443000Y101500D03*
X438500Y106500D03*
X449500Y107500D03*
X464000Y107000D03*
X496294Y109106D03*
X599100Y111100D03*
X704900Y99700D03*
X785500Y103500D03*
X850086Y104100D03*
X834351Y110100D03*
X870100D03*
X975400Y102000D03*
X978200Y97500D03*
X972662D03*
X1103494Y103106D03*
X1127800Y107600D03*
X1124900Y99500D03*
X1151000Y94800D03*
X146500Y113300D03*
Y119000D03*
X151300Y118700D03*
Y113300D03*
X151500Y124000D03*
X367000Y121000D03*
X389000Y127000D03*
X432000Y124000D03*
X438323Y131323D03*
X453677Y119323D03*
X477000Y131800D03*
X474100Y123100D03*
X771700Y129000D03*
X762900Y128800D03*
X758500Y116100D03*
X787100Y118100D03*
X792600Y128100D03*
X799600D03*
X805100Y127600D03*
X812600Y128600D03*
X826600Y128100D03*
X820100D03*
X839500Y118500D03*
X842500Y127100D03*
X866400Y123600D03*
X855800Y126500D03*
X892100Y130100D03*
X898500Y120300D03*
X902650Y114480D03*
X922600Y124100D03*
X930600Y124600D03*
X261100Y140100D03*
X282100Y146100D03*
X330000Y137000D03*
X392000Y144000D03*
X405036Y142536D03*
X407600Y147800D03*
X425900Y142400D03*
X428036Y132036D03*
X419100Y142100D03*
X421543Y150643D03*
X448500Y146500D03*
X470500Y135000D03*
X864950Y140350D03*
X873842Y134228D03*
X916100Y137100D03*
X947100Y141100D03*
X149100Y154100D03*
X162100Y157100D03*
X153100D03*
X166100Y154100D03*
X158100D03*
X178100Y157100D03*
X170100D03*
X188100D03*
X174100Y154100D03*
X183100D03*
X197100Y157100D03*
X205100D03*
X201100Y161100D03*
X193100Y154100D03*
X201100D03*
X413900Y156800D03*
X411361Y161639D03*
X431000Y151000D03*
X416100Y161500D03*
X446000Y155400D03*
X465000Y159000D03*
X559000Y163000D03*
X762100Y153100D03*
X836300Y152800D03*
X866100Y153100D03*
X937100Y158100D03*
X994100Y154100D03*
X152200Y187100D03*
X158000Y183500D03*
X163937Y187137D03*
X195600Y186800D03*
X201200Y185100D03*
X259100Y175100D03*
X264100Y185100D03*
X253000Y186000D03*
X281100Y177100D03*
X389600Y172200D03*
X695500Y170200D03*
X698654Y173615D03*
X742500Y175300D03*
X747100Y173800D03*
X754000Y173900D03*
X758800Y174800D03*
X795100Y173100D03*
X883100Y171100D03*
X998100Y179100D03*
X181900Y194200D03*
X184600Y190200D03*
X177300Y194900D03*
X194990Y197581D03*
X207600Y189800D03*
X233000Y199000D03*
X250000Y198000D03*
X330000Y194000D03*
X407000Y193000D03*
X593100Y195200D03*
X601831Y198700D03*
X596269D03*
X1028100Y203100D03*
X149100Y225100D03*
Y216100D03*
X144100D03*
X158100Y225100D03*
X166100D03*
X183100D03*
X174100D03*
X201100D03*
X193100D03*
X378900Y213400D03*
X382769Y210800D03*
X423100Y212100D03*
X449669Y220900D03*
X459100Y218300D03*
X455231Y220900D03*
X619100Y219100D03*
X763100Y220100D03*
X804100Y221169D03*
X799800Y219500D03*
X859000Y224000D03*
X897100Y224100D03*
X981100Y225100D03*
X1151100Y220100D03*
X153100Y228100D03*
X162100D03*
X188100D03*
X170100D03*
X178100D03*
X201100Y232100D03*
X205100Y228100D03*
X197100D03*
X284100Y241100D03*
X422100D03*
X457169Y228800D03*
X464669Y235700D03*
X473069Y242600D03*
X636000Y236000D03*
X808500Y231500D03*
X821600Y226600D03*
X813000Y227500D03*
X830100Y226600D03*
X816600Y231100D03*
X827100D03*
X1018100Y234100D03*
X150400Y258200D03*
X158000Y254400D03*
X163763Y258037D03*
X184500Y261600D03*
X196600Y258000D03*
X210900Y261700D03*
X231800D03*
X367000Y255900D03*
X365400Y264200D03*
X396447Y260000D03*
X396672Y245600D03*
X413460Y252240D03*
X471500Y248100D03*
X483369Y248800D03*
X521100Y253600D03*
X525500Y247500D03*
X518714Y257928D03*
X547100Y261700D03*
X534500Y250500D03*
X544616Y245600D03*
X538800Y245800D03*
X564000Y262100D03*
X553500Y251000D03*
X548200Y250400D03*
X761400Y247900D03*
X761000Y255400D03*
X774400Y256000D03*
X770100Y264212D03*
X771600Y246712D03*
X770100Y259188D03*
X766000Y249188D03*
Y254212D03*
X1031900Y261731D03*
Y256169D03*
X1027500Y263300D03*
X1027600Y254300D03*
X1104100Y257100D03*
X188400Y276300D03*
X211040Y276240D03*
X233700Y272500D03*
X277500Y277100D03*
X265100Y273100D03*
X329000Y274000D03*
X366800Y272700D03*
X396447Y277100D03*
X380206Y277200D03*
X415250Y274300D03*
X402400Y268600D03*
Y278800D03*
X420053Y274447D03*
X452500Y279200D03*
X512000Y269000D03*
X526000Y279500D03*
X541500Y276800D03*
X546500Y281500D03*
X536500D03*
X546500Y272000D03*
X536500D03*
X560500Y281000D03*
X571100Y272200D03*
X578500Y282000D03*
X577530Y265830D03*
X764500Y265500D03*
X771200Y277300D03*
X767900Y268988D03*
Y274012D03*
X789100Y280100D03*
X775500Y266600D03*
X886614Y271114D03*
X902600Y282100D03*
X896100Y272100D03*
X895510Y280921D03*
X937100Y272100D03*
X959100Y267100D03*
X1125100Y281100D03*
X223940Y293140D03*
X248794Y300600D03*
X277500Y295100D03*
X368500Y294000D03*
X377000Y300500D03*
X428600Y284100D03*
X441000D03*
X435000Y284200D03*
X469164Y286836D03*
X509600Y291700D03*
X510600Y299700D03*
X512000Y284200D03*
X537000Y293500D03*
X549000Y298000D03*
X566594Y286406D03*
X553100Y300100D03*
X565500Y295000D03*
X568000Y291000D03*
X578000Y298000D03*
X588000Y291000D03*
X682100Y290100D03*
X800100Y295100D03*
X852036Y286536D03*
X892600Y299600D03*
X894000Y286500D03*
X897364Y291136D03*
X926100Y299100D03*
X935600Y292600D03*
X973100Y298600D03*
X1001100D03*
X1011000Y291000D03*
X1074000Y288000D03*
X1071100Y298600D03*
X224000Y309500D03*
Y316500D03*
X261000Y305600D03*
X289000Y315000D03*
X363400Y314600D03*
X374600Y306100D03*
X403264Y305664D03*
X413300Y319421D03*
X483050Y309950D03*
X493800Y313500D03*
X504600Y312600D03*
X569000Y304541D03*
X628000Y318000D03*
X650300Y310200D03*
X734981Y314569D03*
X755000Y320000D03*
X738800Y317400D03*
X737400Y310200D03*
X826600Y317400D03*
X822781Y314569D03*
X825200Y310200D03*
X842100Y305100D03*
X865500Y319000D03*
X929400Y310900D03*
X940300Y310700D03*
X932219Y314569D03*
X937781D03*
X990500Y317000D03*
X1008000Y308000D03*
X152200Y329000D03*
X167700Y335200D03*
X163737Y328937D03*
X181700Y335400D03*
X184800Y331900D03*
X177100Y336100D03*
X172400Y336700D03*
X195900Y328900D03*
X204200Y331800D03*
X258100Y328100D03*
X289100Y323100D03*
X474900Y337300D03*
X484236Y323464D03*
X588000Y333000D03*
X640700Y322400D03*
X636400Y326701D03*
Y335300D03*
X654500Y327300D03*
X645100Y331200D03*
X649800Y322400D03*
X732200Y331200D03*
X727800Y322400D03*
X723500Y326701D03*
Y335300D03*
X741600Y327300D03*
X736900Y322400D03*
X811300Y326701D03*
Y335300D03*
X820000Y331200D03*
X829400Y327300D03*
X815600Y322400D03*
X824700D03*
X866250Y335100D03*
X935000Y331200D03*
X944400Y327300D03*
X930600Y322400D03*
X939700D03*
X926300Y326701D03*
Y335300D03*
X1018400Y322400D03*
X1014100Y326701D03*
Y335300D03*
X1022800Y331200D03*
X1032200Y327300D03*
X1027500Y322400D03*
X1109700Y330800D03*
X1105300Y322000D03*
X1114400D03*
X1101000Y326301D03*
Y334900D03*
X1119100Y326900D03*
X241200Y342800D03*
Y348500D03*
X255200D03*
Y342800D03*
X280100Y354100D03*
X373300Y356000D03*
X471398Y344702D03*
X453300Y345600D03*
X526100Y344600D03*
X522000Y355306D03*
X532000Y344700D03*
X555000D03*
X561000D03*
X565100Y355406D03*
X609000Y357000D03*
X632000Y348200D03*
X661406Y358000D03*
X665200Y347900D03*
X733000Y356000D03*
X719000Y348200D03*
X748506Y357694D03*
X752800Y347900D03*
X807100Y348200D03*
X840400Y347900D03*
X873000Y345000D03*
X921500Y348200D03*
X955000Y347900D03*
X1009900Y348200D03*
X1039106Y357794D03*
X1042400Y347900D03*
X1096800Y347800D03*
X1126006Y357394D03*
X1130100Y347500D03*
X526100Y375800D03*
X522000Y365094D03*
X543500Y360300D03*
X533400D03*
X532000Y375800D03*
X553600Y360300D03*
X555000Y375800D03*
X561000D03*
X565100Y365094D03*
X572500Y363100D03*
X586000Y371000D03*
X688500Y368000D03*
X694000Y371500D03*
X741500Y370500D03*
X750500Y370000D03*
X836306Y365394D03*
X857000Y377000D03*
X881000Y373500D03*
X951306Y359494D03*
X971000Y375000D03*
X982500Y370500D03*
X1052000Y361000D03*
X1057260Y376260D03*
X1067500Y370000D03*
X152000Y387400D03*
X163737Y387437D03*
X181700Y394500D03*
X184400Y390500D03*
X177100Y395200D03*
X195400Y387100D03*
X204200Y390100D03*
X234700Y383200D03*
X229000Y391800D03*
X290000Y396000D03*
X338100Y394100D03*
X373672Y384700D03*
X391760Y383360D03*
X398860Y394200D03*
X406250Y394600D03*
X428800Y378100D03*
X452874Y386783D03*
X477226D03*
X509000Y383000D03*
X492500Y392500D03*
X496100Y383100D03*
X517706Y390506D03*
X510894Y390894D03*
X568400Y391000D03*
X597500Y390000D03*
X611724Y381276D03*
X678500Y380000D03*
X695500D03*
X716200Y380900D03*
X734500Y380000D03*
X743500D03*
X766000Y383000D03*
X860500Y380000D03*
X854500Y383000D03*
X879500Y380000D03*
X971000D03*
X989500D03*
X1055100Y380600D03*
X1075000Y380000D03*
X210040Y408140D03*
X234500Y404400D03*
X373100Y398900D03*
X452874Y398397D03*
X477226D03*
X502800Y401300D03*
X513700Y412900D03*
X520200Y412600D03*
X524900Y411700D03*
X566163Y414337D03*
X561300Y412600D03*
X144000Y430000D03*
X197000Y432800D03*
X279000Y421000D03*
X355300Y418300D03*
X411700Y432000D03*
X434300Y433700D03*
X434100Y426800D03*
X497900Y424900D03*
Y432100D03*
X500000Y420000D03*
X527100Y424600D03*
X582000Y422000D03*
X586924Y417776D03*
X174000Y452000D03*
X247000Y437000D03*
X348500Y452000D03*
X348700Y444500D03*
X395100Y449600D03*
X420100Y447100D03*
X497900Y439200D03*
X524500Y441258D03*
X558900D03*
X200000Y462000D03*
X277100Y463100D03*
X365200Y470400D03*
X385100Y453600D03*
X431050Y455251D03*
X527600Y466700D03*
X530394Y456000D03*
X541800Y467000D03*
X552006Y456000D03*
X548500Y467000D03*
X580000Y463000D03*
X289400Y483900D03*
X295400D03*
X301300D03*
X307400D03*
X332000D03*
X337800D03*
X343500D03*
X349300D03*
X368400Y475500D03*
X386600Y480600D03*
X379600D03*
X454000Y479000D03*
X461147Y488100D03*
X482961Y488962D03*
X523100Y473542D03*
X527628Y487872D03*
X544937Y479800D03*
X557400Y473542D03*
X551236Y480436D03*
X576750Y481750D03*
X594500Y473000D03*
X150675Y502353D03*
X181381Y503153D03*
X243800Y499400D03*
X326000Y500000D03*
X352000Y505000D03*
X442547Y504953D03*
X628800Y412900D03*
X641600Y424600D03*
X639600Y441258D03*
X649150Y448800D03*
X645494Y456000D03*
X689137Y414500D03*
X664200Y448800D03*
X674000Y441258D03*
X667106Y456000D03*
X714900Y413600D03*
X708500Y415000D03*
X729100Y424600D03*
X726700Y441258D03*
X736250Y448800D03*
X732594Y456000D03*
X769394Y392200D03*
X774800D03*
X761100Y411600D03*
X776237Y414300D03*
X751300Y448800D03*
X761100Y441258D03*
X754206Y456000D03*
X800563Y413100D03*
X818100Y424600D03*
X814500Y441258D03*
X824050Y448800D03*
X820394Y456000D03*
X864037Y414200D03*
X839100Y448800D03*
X848900Y441258D03*
X842006Y456000D03*
X932100Y424600D03*
X929600Y441258D03*
X939150Y448800D03*
X935494Y456000D03*
X972194Y391100D03*
X977800D03*
X976800Y413800D03*
X954200Y448800D03*
X964000Y441258D03*
X957106Y456000D03*
X1000300Y391400D03*
X1005000Y391300D03*
X998500Y413100D03*
X1003363Y413200D03*
X1019600Y424600D03*
X1017400Y441258D03*
X1026950Y448800D03*
X1023294Y456000D03*
X1066837Y414300D03*
X1042000Y448800D03*
X1051800Y441258D03*
X1044906Y456000D03*
X1087600Y391100D03*
X1097406Y390906D03*
X1092300Y413100D03*
X1087900Y415400D03*
X1107100Y424600D03*
X1104300Y441458D03*
X1113850Y449000D03*
X1110194Y456200D03*
X1146894Y391800D03*
X1152500D03*
X1151800Y413900D03*
X1156800Y414400D03*
X1128900Y449000D03*
X1138700Y441458D03*
X1131406Y456806D03*
G54D45*
X684151Y489290D03*
X771251D03*
X859051D03*
X974151D03*
X1061951D03*
X1148851D03*
X522102Y432991D03*
X541000D03*
X559898D03*
X512949Y451101D03*
X569051D03*
X512949Y470786D03*
X569051D03*
Y489290D03*
X637202Y432991D03*
X628049Y451101D03*
X674998Y432991D03*
X684151Y451101D03*
X724302Y432991D03*
X715149Y451101D03*
X762098Y432991D03*
X771251Y451101D03*
X812102Y432991D03*
X802949Y451101D03*
X849898Y432991D03*
X859051Y451101D03*
X927202Y432991D03*
X918049Y451101D03*
X964998Y432991D03*
X974151Y451101D03*
X1015002Y432991D03*
X1005849Y451101D03*
X1052798Y432991D03*
X1061951Y451101D03*
X1101902Y432991D03*
X1092749Y451101D03*
X1139698Y432991D03*
X1148851Y451101D03*
G54D39*
X961239Y21811D03*
X971278D03*
X1003522D03*
X1013561D03*
G54D49*
X569051Y460943D03*
X684151D03*
X771251D03*
X859051D03*
X974151D03*
X1061951D03*
X1148851D03*
G54D48*
X522102Y457400D03*
X559898D03*
X637202D03*
X674998D03*
X724302D03*
X762098D03*
X812102D03*
X849898D03*
X927202D03*
X964998D03*
X1015002D03*
X1052798D03*
X1101902D03*
X1139698D03*
G54D41*
X492950Y52000D03*
X707050Y40000D03*
G54D43*
X32000Y333000D03*
Y343000D03*
Y353000D03*
X320000Y299000D03*
Y319000D03*
Y309000D03*
G54D46*
X55000Y551300D03*
X155000D03*
X255000D03*
X355000D03*
G54D44*
X1095400Y26100D03*
X1115400Y36100D03*
Y26100D03*
X1105400Y36100D03*
Y26100D03*
X1125400Y36100D03*
Y26100D03*
X1145400Y36100D03*
Y26100D03*
X1135400Y36100D03*
Y26100D03*
X1168300Y76500D03*
X1178300D03*
X1168400Y96000D03*
X1178400D03*
X1077200Y76500D03*
X1087200D03*
X1077200Y96000D03*
X1087200D03*
X1058900Y208700D03*
X1048900D03*
X1068900D03*
X1088900D03*
X1078900D03*
X1108900D03*
X1098900D03*
X1128900D03*
X1118900D03*
X1138900D03*
X1058900Y218700D03*
X1048900D03*
X1068900D03*
X1088900D03*
X1078900D03*
X1108900D03*
X1098900D03*
X1128900D03*
G54D35*
X222000Y15700D03*
X908000Y50200D03*
X1056400Y59200D03*
X1169700Y46800D03*
X1182900Y46700D03*
X1169800Y59600D03*
X1108300Y123100D03*
X1120500Y123000D03*
Y136700D03*
X1148400Y155200D03*
X76400Y249400D03*
X164100Y95100D03*
Y77100D03*
Y108100D03*
Y121100D03*
X131700Y142100D03*
X215000Y210000D03*
X142500Y228500D03*
X298500Y277000D03*
X200100Y299700D03*
X200000Y313700D03*
X524100Y304100D03*
X560000Y314000D03*
X508600Y361800D03*
X494100D03*
X628488Y374000D03*
X715200Y374100D03*
X702600Y374000D03*
X801900Y380100D03*
X918500Y380300D03*
X1020600D03*
X1008000D03*
X1033100D03*
X1094400D03*
X309000Y418000D03*
Y431900D03*
X322900Y418000D03*
Y431900D03*
X466200D03*
Y418000D03*
X478900Y432100D03*
Y418200D03*
X294300Y438700D03*
X308900Y445800D03*
X322900D03*
X452300Y438400D03*
X466200Y445800D03*
X478900Y446000D03*
X308800Y459700D03*
X322900D03*
X466100Y471100D03*
Y458100D03*
X480100Y471100D03*
X479100Y458100D03*
G54D40*
X124465Y54800D03*
X141000D03*
G54D37*
X132732Y26060D03*
G54D38*
X964900Y37795D03*
X1009900D03*
G54D47*
X45000Y571300D03*
X85000D03*
X145000D03*
X185000D03*
X245000D03*
X285000D03*
X345000D03*
X385000D03*
G54D42*
X956475Y49803D03*
X1018325D03*
G54D34*
X20000Y20000D03*
X310000D03*
X890000D03*
X475846Y47811D03*
X723878D03*
X1180000Y20000D03*
X20000Y580000D03*
X310000D03*
X600000D03*
X890000D03*
X1180000D03*
%LPD*%
G75*
G36*
G01X419948Y371600D02*
X429500D01*
X430800Y370300D01*
Y337700D01*
X432300Y336200D01*
X471000D01*
X471800Y335400D01*
Y297387D01*
X471643Y297352D01*
G03X469998Y295300I457J-2052D01*
G03X471284Y293363I2102J0D01*
G02X471411Y292711I-155J-369D01*
G01X470900Y292200D01*
X410400D01*
X409600Y293000D01*
Y295297D01*
G02X410320Y295537I400J0D01*
G03X412000Y294698I1680J1263D01*
G03Y298902I0J2102D01*
G03X410320Y298063I0J-2102D01*
G02X409600Y298303I-320J240D01*
G01Y301000D01*
X415573Y306973D01*
G02X415852Y306976I141J-142D01*
G03X417300Y306398I1448J1525D01*
G03X419394Y308317I0J2102D01*
G01X419410Y308500D01*
X431200D01*
X432300Y309600D01*
X438500D01*
X439200Y310300D01*
Y318000D01*
X437800Y319400D01*
X432500D01*
X431000Y320900D01*
X416900D01*
X398600Y339200D01*
X395127D01*
G02X394753Y339742I0J400D01*
G03X394890Y340488I-1965J746D01*
G03X392788Y342590I-2102J0D01*
G03X391614Y342232I-1J-2102D01*
G02X390993Y342601I-223J332D01*
G03X391002Y342800I-2093J194D01*
G03X388900Y340698I-2102J0D01*
G03X390074Y341056I1J2102D01*
G02X390695Y340687I223J-332D01*
G03X390686Y340488I2093J-194D01*
G03X390823Y339742I2102J0D01*
G02X390449Y339200I-374J-142D01*
G01X381600D01*
Y370500D01*
X382700Y371600D01*
X416652D01*
G03X419948I1648J3899D01*
G37*
%LPC*%
G75*
G36*
G01X456641Y300346D02*
G02X454700Y299051I-1941J807D01*
G02Y303255I0J2102D01*
G02X456624Y302000I0J-2102D01*
G03X457359Y302007I366J161D01*
G02X459300Y303302I1941J-807D01*
G02Y299098I0J-2102D01*
G02X457376Y300353I0J2102D01*
G03X456641Y300346I-366J-161D01*
G37*
G36*
G01X443424Y319289D02*
G02X442198Y321200I876J1911D01*
G02X446402I2102J0D01*
G02X445260Y319330I-2102J0D01*
G03X445276Y318611I183J-356D01*
G02Y314789I-876J-1911D01*
G03X445260Y314070I167J-363D01*
G02Y310330I-960J-1870D01*
G03X445276Y309611I183J-356D01*
G02X446502Y307700I-876J-1911D01*
G02X442298I-2102J0D01*
G02X443440Y309570I2102J0D01*
G03X443424Y310289I-183J356D01*
G02Y314111I876J1911D01*
G03X443440Y314830I-167J363D01*
G02Y318570I960J1870D01*
G03X443424Y319289I-183J356D01*
G37*
G36*
G01X448324Y319389D02*
G02X447098Y321300I876J1911D01*
G02X451302I2102J0D01*
G02X450160Y319430I-2102J0D01*
G03X450176Y318711I183J-356D01*
G02Y314889I-876J-1911D01*
G03X450160Y314170I167J-363D01*
G02Y310430I-960J-1870D01*
G03X450176Y309711I183J-356D01*
G02X451402Y307800I-876J-1911D01*
G02X447198I-2102J0D01*
G02X448340Y309670I2102J0D01*
G03X448324Y310389I-183J356D01*
G02Y314211I876J1911D01*
G03X448340Y314930I-167J363D01*
G02Y318670I960J1870D01*
G03X448324Y319389I-183J356D01*
G37*
G36*
G01X453124D02*
G02X451898Y321300I876J1911D01*
G02X456102I2102J0D01*
G02X454960Y319430I-2102J0D01*
G03X454976Y318711I183J-356D01*
G02Y314889I-876J-1911D01*
G03X454960Y314170I167J-363D01*
G02Y310430I-960J-1870D01*
G03X454976Y309711I183J-356D01*
G02X456202Y307800I-876J-1911D01*
G02X451998I-2102J0D01*
G02X453140Y309670I2102J0D01*
G03X453124Y310389I-183J356D01*
G02Y314211I876J1911D01*
G03X453140Y314930I-167J363D01*
G02Y318670I960J1870D01*
G03X453124Y319389I-183J356D01*
G37*
G36*
G01X458324D02*
G02X457098Y321300I876J1911D01*
G02X461302I2102J0D01*
G02X460160Y319430I-2102J0D01*
G03X460176Y318711I183J-356D01*
G02Y314889I-876J-1911D01*
G03X460160Y314170I167J-363D01*
G02Y310430I-960J-1870D01*
G03X460176Y309711I183J-356D01*
G02X461402Y307800I-876J-1911D01*
G02X457198I-2102J0D01*
G02X458340Y309670I2102J0D01*
G03X458324Y310389I-183J356D01*
G02Y314211I876J1911D01*
G03X458340Y314930I-167J363D01*
G02Y318670I960J1870D01*
G03X458324Y319389I-183J356D01*
G37*
G54D36*
X448500Y301200D03*
X464616Y313516D03*
X418800Y331200D03*
X453000Y328050D03*
X465300Y328100D03*
X385688Y355709D03*
X392788Y345512D03*
%LPD*%
G75*
G54D10*
X20000Y20000D03*
Y580000D03*
X310000Y20000D03*
Y580000D03*
X475846Y47811D03*
X600000Y580000D03*
X723878Y47811D03*
X890000Y20000D03*
Y580000D03*
X1180000Y20000D03*
Y580000D03*
G54D20*
X492950Y52000D03*
X707050Y40000D03*
G54D11*
X11200Y72300D03*
X13090Y142081D03*
X16692Y142095D03*
X14800Y161600D03*
X14600Y156300D03*
Y150900D03*
X14400Y197600D03*
Y203000D03*
X13647Y190253D03*
X17592Y218195D03*
X13990Y218181D03*
X14600Y208300D03*
X24100Y60500D03*
X28935Y80735D03*
Y75735D03*
X33935Y80735D03*
Y75735D03*
Y90065D03*
X18935Y75735D03*
X33935Y100065D03*
Y95065D03*
X18935D03*
Y100065D03*
X23935D03*
Y95065D03*
X35800Y130100D03*
X20391Y142007D03*
X32090Y142181D03*
X35692Y142195D03*
X19100Y161600D03*
X19000Y156400D03*
X19100Y150900D03*
X23600Y161600D03*
X23800Y150900D03*
Y156600D03*
X34500Y159700D03*
X22824Y167823D03*
X25700Y176100D03*
X26692Y181491D03*
X18900Y197600D03*
X18800Y203100D03*
X23600Y197600D03*
Y203300D03*
X18900Y208300D03*
X21291Y218107D03*
X32990Y218281D03*
X36592Y218295D03*
X23400Y208300D03*
X33991Y238207D03*
X30292Y238295D03*
X26690Y238281D03*
X29400Y260100D03*
X24700D03*
X20200D03*
X29400Y265800D03*
X29200Y270800D03*
X24600Y265600D03*
X20200Y265500D03*
X20400Y270800D03*
X24700D03*
X20990Y289081D03*
X28291Y289007D03*
X24592Y289095D03*
X48265Y90065D03*
X53265D03*
X43265Y80735D03*
Y75735D03*
X48265Y80735D03*
Y75735D03*
X53265Y80735D03*
Y75735D03*
X43265Y90065D03*
X53265Y95065D03*
Y100065D03*
X48265Y95065D03*
Y100065D03*
X43265D03*
Y95065D03*
X39391Y142107D03*
X51190Y142181D03*
X54792Y142195D03*
X39500Y146894D03*
X41200Y160500D03*
X44800Y165100D03*
X41200Y152200D03*
Y156400D03*
X51873Y182008D03*
X45800D03*
X39727D03*
X45800Y176792D03*
X51873D03*
X39727D03*
X44900Y192800D03*
X47300Y203600D03*
X47200Y207100D03*
X41900Y207300D03*
X42000Y199900D03*
Y203700D03*
X40291Y218207D03*
X52090Y218281D03*
X55692Y218295D03*
X45690Y238381D03*
X49292Y238395D03*
X52991Y238307D03*
X50500Y274700D03*
X53000Y277200D03*
Y272200D03*
X48000D03*
Y277200D03*
X52800Y295900D03*
X51100Y351100D03*
Y356100D03*
X46300Y497800D03*
X54000Y536000D03*
X58265Y90065D03*
Y80735D03*
Y75735D03*
Y100065D03*
Y95065D03*
X59800Y123500D03*
X72400Y143400D03*
Y138000D03*
X72600Y148700D03*
X58491Y142107D03*
X72100Y220900D03*
X71900Y210200D03*
X59391Y218207D03*
X71900Y215600D03*
X64790Y238381D03*
X68392Y238395D03*
X72091Y238307D03*
X72206Y276906D03*
X71090Y289081D03*
X74692Y289095D03*
X73250Y307550D03*
X56500Y341000D03*
X72850Y530850D03*
X74600Y545437D03*
X85000Y30000D03*
X81400Y113100D03*
X90600D03*
X85800Y118600D03*
X81400Y118500D03*
X85900Y113100D03*
X81600Y123800D03*
X90400D03*
X90600Y118800D03*
X85900Y123800D03*
X76900Y148700D03*
X81400D03*
X76800Y143500D03*
X76900Y138000D03*
X81600D03*
Y143700D03*
X88500Y167100D03*
X81100Y215900D03*
Y210200D03*
X76400D03*
Y220900D03*
X80900D03*
X76300Y215700D03*
X89000Y233300D03*
X91000Y255300D03*
X89000Y251400D03*
X88000Y281000D03*
X92700Y278500D03*
X88400Y268000D03*
X92900Y273200D03*
X92700Y267900D03*
X78391Y289007D03*
X86440Y299740D03*
X83000Y283200D03*
X86636Y359364D03*
X78000Y443000D03*
X81281Y502053D03*
X90600Y527300D03*
X76900Y512600D03*
X89328Y534000D03*
X104300Y113200D03*
X99600D03*
X95100Y118600D03*
Y113200D03*
X99500Y118700D03*
X104300Y118900D03*
X95300Y123900D03*
X99600D03*
X104100D03*
X110300Y169100D03*
Y160900D03*
Y165000D03*
X105300Y167000D03*
Y162900D03*
X110300Y173200D03*
Y177300D03*
Y181400D03*
Y185500D03*
X105300Y187500D03*
Y183400D03*
Y179300D03*
Y175200D03*
Y171100D03*
X110300Y189600D03*
Y193700D03*
X105300Y195700D03*
Y191600D03*
X96881Y235319D03*
X100500Y234000D03*
X107100Y234100D03*
X110100Y244400D03*
X98700Y242800D03*
X102200D03*
X102300Y246100D03*
X98800D03*
X110400Y255300D03*
X97200Y278500D03*
X101900D03*
X97200Y273200D03*
X97100Y268000D03*
X101900Y268200D03*
X101700Y273200D03*
X106100Y309100D03*
X97953Y346847D03*
X94300Y356000D03*
X109200Y353600D03*
X100000Y453000D03*
X121000Y30000D03*
X120300Y165000D03*
Y160900D03*
Y169100D03*
X115300Y162900D03*
Y167000D03*
X120300Y185500D03*
Y181400D03*
Y177300D03*
Y173200D03*
X115300Y171100D03*
Y175200D03*
Y179300D03*
Y183400D03*
Y187500D03*
X120300Y193700D03*
Y189600D03*
X115300Y191600D03*
Y195700D03*
X126600Y369700D03*
X141700Y118800D03*
X141800Y124000D03*
X146300D03*
X137300Y118700D03*
X146500Y113300D03*
X141800D03*
X137500Y124000D03*
X137300Y113300D03*
X146500Y119000D03*
X149100Y154100D03*
X144100Y179700D03*
X148300D03*
X144100Y175500D03*
X148300D03*
X144100Y171300D03*
X148300D03*
X144890Y197581D03*
X148492Y197595D03*
X149100Y225100D03*
Y216100D03*
X144100D03*
X144000Y242000D03*
X148200D03*
X150400Y258200D03*
X144000Y250400D03*
X148200D03*
X144000Y246200D03*
X148200D03*
X148592Y268195D03*
X144990Y268181D03*
X150190Y288581D03*
X143900Y317300D03*
X148100D03*
X143900Y313100D03*
X148100D03*
X143900Y321500D03*
X148100D03*
X144690Y397881D03*
X148292Y397895D03*
X144000Y430000D03*
X150675Y502353D03*
X151300Y118700D03*
Y113300D03*
X151500Y124000D03*
X162100Y157100D03*
X153100D03*
X166100Y154100D03*
X158100D03*
X152200Y187100D03*
X158000Y183500D03*
X152500Y179700D03*
Y175500D03*
Y171300D03*
X163937Y187137D03*
X152191Y197507D03*
X167100Y194000D03*
X158100Y225100D03*
X166100D03*
X168300Y207900D03*
X153100Y228100D03*
X162100D03*
X152400Y242000D03*
X158000Y254400D03*
X163763Y258037D03*
X152400Y250400D03*
Y246200D03*
X152291Y268107D03*
X168300Y277600D03*
X168200Y266000D03*
X153792Y288595D03*
X157491Y288507D03*
X169190Y288681D03*
X152300Y317300D03*
Y313100D03*
X152200Y329000D03*
X167700Y335200D03*
X163737Y328937D03*
X152300Y321500D03*
X154592Y345395D03*
X150990Y345381D03*
X158291Y345307D03*
X168300Y346800D03*
X152000Y387400D03*
X163737Y387437D03*
X166900Y394300D03*
X151991Y397807D03*
X168100Y408200D03*
X154000Y535000D03*
X178100Y157100D03*
X170100D03*
X188100D03*
X174100Y154100D03*
X183100D03*
X171800Y185700D03*
Y180700D03*
X176800D03*
Y185700D03*
X174300Y183200D03*
X181900Y194200D03*
X184600Y190200D03*
X177300Y194900D03*
X171000Y195400D03*
X183100Y225100D03*
X174100D03*
X172300Y207900D03*
X180300D03*
X176300Y207800D03*
X188100Y228100D03*
X170100D03*
X178100D03*
X174300Y254100D03*
X176800Y256600D03*
Y251600D03*
X171800D03*
Y256600D03*
X184500Y261600D03*
X176300Y277600D03*
X172300Y277500D03*
X180300Y277600D03*
X188400Y276300D03*
X181600Y265400D03*
X177500Y266300D03*
X172331Y266100D03*
X172792Y288695D03*
X176491Y288607D03*
X188290Y288681D03*
X174200Y325000D03*
X176700Y327500D03*
Y322500D03*
X171700D03*
Y327500D03*
X181700Y335400D03*
X184800Y331900D03*
X177100Y336100D03*
X172400Y336700D03*
X176200Y346900D03*
X180100D03*
X172300Y346800D03*
X174100Y383500D03*
X176600Y386000D03*
Y381000D03*
X171600D03*
Y386000D03*
X181700Y394500D03*
X184400Y390500D03*
X177100Y395200D03*
X170800Y395700D03*
X172100Y408200D03*
X180100D03*
X176100Y408100D03*
X174000Y452000D03*
X181381Y503153D03*
X176900Y512600D03*
X180428Y539900D03*
X172850Y530850D03*
X197100Y157100D03*
X205100D03*
X201100Y161100D03*
X193100Y154100D03*
X201100D03*
X195600Y186800D03*
X201200Y185100D03*
X194990Y197581D03*
X201100Y225100D03*
X193100D03*
X201100Y232100D03*
X205100Y228100D03*
X197100D03*
X196600Y258000D03*
X199292Y268495D03*
X202991Y268407D03*
X195690Y268481D03*
X191892Y288695D03*
X195591Y288607D03*
X195900Y328900D03*
X204200Y331800D03*
X192692Y345495D03*
X189090Y345481D03*
X196391Y345407D03*
X195400Y387100D03*
X204200Y390100D03*
X198392Y397895D03*
X194790Y397881D03*
X202091Y397807D03*
X197000Y432800D03*
X200000Y462000D03*
X207600Y189800D03*
X210900Y261700D03*
X211040Y276240D03*
X223940Y293140D03*
X224000Y309500D03*
Y316500D03*
X225500Y383200D03*
X210040Y408140D03*
X233000Y199000D03*
X244100Y223100D03*
X241100Y217100D03*
X240100Y241100D03*
X244100Y235100D03*
X240100Y229100D03*
X231800Y261700D03*
X233700Y272500D03*
X229000Y316500D03*
X227000Y313000D03*
X229500Y309500D03*
X236500Y342800D03*
Y353500D03*
X241200Y342800D03*
X232000Y348200D03*
Y342800D03*
X232200Y353500D03*
X236400Y348300D03*
X241000Y353500D03*
X241200Y348500D03*
X230000Y383200D03*
X234700D03*
X229000Y391800D03*
X234500Y404400D03*
X241872Y509800D03*
X243800Y499400D03*
X228000Y511000D03*
X240000Y529000D03*
X258000Y30000D03*
Y35000D03*
Y44000D03*
Y50000D03*
X258100Y57100D03*
X258300Y62700D03*
X261100Y93100D03*
Y140100D03*
X249000Y177000D03*
X253000D03*
X259100Y175100D03*
X264100Y185100D03*
X253000Y186000D03*
X250000Y198000D03*
X256100Y223100D03*
X250100D03*
X253100Y217100D03*
X247100D03*
X259100D03*
X247100Y241100D03*
X253100D03*
X259100D03*
X250100Y235100D03*
X256100D03*
X259100Y229100D03*
X253100D03*
X247100D03*
X248794Y300600D03*
X262500Y319100D03*
X250200Y317500D03*
X253800Y320800D03*
X253700Y317500D03*
X250300Y320800D03*
X261000Y305600D03*
X262600Y315700D03*
X258100Y328100D03*
X255200Y348500D03*
X255000Y353500D03*
X250400Y348300D03*
X246200Y353500D03*
X246000Y342800D03*
Y348200D03*
X255200Y342800D03*
X250500Y353500D03*
Y342800D03*
X247000Y437000D03*
X253450Y505378D03*
X261000Y511000D03*
X257472Y528500D03*
X246000Y535000D03*
X282770Y36600D03*
X281100Y108100D03*
X282100Y146100D03*
X281100Y177100D03*
X277500Y277100D03*
X265100Y273100D03*
X277500Y295100D03*
X280100Y354100D03*
X279000Y421000D03*
X277100Y463100D03*
X283000Y510000D03*
X272772Y525300D03*
X276000Y540000D03*
X272972Y530700D03*
X289500Y34100D03*
X290300Y47559D03*
X289300Y69500D03*
X284100Y241100D03*
X289000Y315000D03*
X289100Y323100D03*
X290000Y396000D03*
X289400Y483900D03*
X295400D03*
X301300D03*
X297000Y511000D03*
X299232Y514669D03*
X315900Y62700D03*
X316164Y57736D03*
X307400Y483900D03*
X317000Y508000D03*
X314000Y523000D03*
X307000Y511000D03*
X304869Y514669D03*
X334000Y23900D03*
X326700Y34272D03*
X321300Y47600D03*
Y42600D03*
X338640Y71000D03*
X331160Y71800D03*
X330000Y137000D03*
Y194000D03*
X329000Y274000D03*
X338100Y394100D03*
X326000Y489000D03*
X330000Y490000D03*
X322000D03*
X332000Y483900D03*
X337800D03*
X326000Y500000D03*
X339000Y507000D03*
X326000Y516000D03*
X328000Y520000D03*
X326000Y511000D03*
X339000Y523000D03*
X337000Y535000D03*
Y547000D03*
X335000Y541000D03*
X348400Y17900D03*
X346500Y34372D03*
X340400Y23500D03*
X343400Y59900D03*
X351100Y98100D03*
X355300Y418300D03*
X348500Y452000D03*
X348700Y444500D03*
X343500Y483900D03*
X349300D03*
X352000Y505000D03*
Y527000D03*
Y514000D03*
X347000Y530000D03*
X370000Y32000D03*
X373100Y72100D03*
X362200Y59000D03*
X367000Y121000D03*
Y255900D03*
X365400Y264200D03*
X366800Y272700D03*
X368500Y294000D03*
X377000Y300500D03*
X363400Y314600D03*
X374600Y306100D03*
X363800Y357300D03*
X368000D03*
X363800Y353100D03*
X368000D03*
X373300Y356000D03*
X363800Y361500D03*
X368000D03*
X373672Y384700D03*
X373100Y398900D03*
X365200Y470400D03*
X368400Y475500D03*
X371000Y515000D03*
X359000Y530000D03*
X374000Y532000D03*
X395000Y107000D03*
X389000Y127000D03*
X392000Y144000D03*
X389600Y172200D03*
X378900Y213400D03*
X392300Y208900D03*
X388331Y210800D03*
X382769D03*
X396447Y260000D03*
Y277100D03*
X380206Y277200D03*
X396100Y337000D03*
X385688Y355709D03*
X388900Y342800D03*
X392788Y340488D03*
Y345512D03*
X391760Y383360D03*
X395100Y449600D03*
X385100Y453600D03*
X386600Y480600D03*
X379600D03*
X394000Y537000D03*
X396000Y544000D03*
X386000Y550000D03*
X397100Y54100D03*
X397900Y47100D03*
X407900Y47500D03*
X406031Y43791D03*
X400469D03*
X404000Y93228D03*
X400000Y105600D03*
X407700Y101700D03*
X405036Y142536D03*
X407600Y147800D03*
X413900Y156800D03*
X400100Y166500D03*
X411361Y161639D03*
X404300Y165400D03*
X407000Y193000D03*
X396672Y245600D03*
X413460Y252240D03*
X415250Y274300D03*
X402400Y268600D03*
Y278800D03*
X412000Y296800D03*
X403264Y305664D03*
X413300Y319421D03*
X413500Y353000D03*
X410500Y355700D03*
X413500D03*
X410500Y353000D03*
X398860Y394200D03*
X406250Y394600D03*
X411700Y432000D03*
X417000Y79000D03*
X425200Y89000D03*
X425900Y106200D03*
X427900Y100400D03*
X432000Y124000D03*
X420628Y122328D03*
X425900Y142400D03*
X428036Y132036D03*
X419100Y142100D03*
X421543Y150643D03*
X431000Y151000D03*
X416100Y161500D03*
X423100Y212100D03*
X422100Y241100D03*
X420053Y274447D03*
X428100Y289600D03*
X428600Y284100D03*
X417300Y308500D03*
X418800Y331200D03*
X428800Y378100D03*
X434300Y433700D03*
X434100Y426800D03*
X420100Y447100D03*
X431050Y455251D03*
X443200Y36400D03*
X453100Y28100D03*
X434900Y44100D03*
X441131Y40000D03*
X435569D03*
X438000Y76000D03*
X450500Y82000D03*
X443000Y101500D03*
X438500Y106500D03*
X449500Y107500D03*
X438323Y131323D03*
Y119677D03*
X442600Y143100D03*
X438100D03*
X448500Y146500D03*
X446000Y155400D03*
X440000Y210000D03*
X451700Y211400D03*
X442369Y213400D03*
X447931D03*
X449669Y220900D03*
X452500Y279200D03*
X441000Y284100D03*
X435000Y284200D03*
X448500Y301200D03*
X449300Y316800D03*
X444400Y316700D03*
X449300Y307800D03*
X444400Y307700D03*
X449200Y312300D03*
X444300Y312200D03*
X449200Y321300D03*
X444300Y321200D03*
X453000Y328050D03*
X443150Y327350D03*
X452874Y386783D03*
Y398397D03*
X442547Y504953D03*
X456892Y67332D03*
X457198Y83058D03*
X464000Y107000D03*
X453677Y119323D03*
X466000Y138000D03*
X470500Y135000D03*
X465000Y159000D03*
X459100Y218300D03*
X466200Y226400D03*
X455231Y220900D03*
X462731Y228800D03*
X457169D03*
X464669Y235700D03*
X470231D03*
X471500Y248100D03*
X469164Y286836D03*
X459300Y301200D03*
X472100Y295300D03*
X454700Y301153D03*
X463600Y301400D03*
X459300Y316800D03*
Y307800D03*
X454100D03*
X459200Y312300D03*
X454000D03*
X454100Y316800D03*
X464616Y313516D03*
X459200Y321300D03*
X454000D03*
X465300Y328100D03*
X471398Y344702D03*
X453300Y345600D03*
X454000Y479000D03*
X461147Y488100D03*
X470500Y516000D03*
X453500D03*
X476306Y61506D03*
X477000Y131800D03*
X474100Y123100D03*
X483000Y166100D03*
X487588D03*
X474300Y234300D03*
X482200Y240500D03*
X473069Y242600D03*
X478631D03*
X488931Y248800D03*
X483369D03*
X476400Y294200D03*
X483050Y309950D03*
X474900Y337300D03*
X484236Y323464D03*
X477226Y386783D03*
Y398397D03*
X482961Y488962D03*
X499750Y24750D03*
X498849Y47500D03*
X502500Y56151D03*
X507500Y43849D03*
X493000Y74700D03*
X507500Y59451D03*
X497000Y87000D03*
X496294Y109106D03*
X506300Y127500D03*
Y131800D03*
Y123100D03*
X497100Y166100D03*
X492612D03*
X492900Y246500D03*
X509600Y291700D03*
X493800Y313500D03*
X504600Y312600D03*
X493500Y325100D03*
Y329700D03*
X509000Y383000D03*
X492500Y392500D03*
X496100Y383100D03*
X502800Y401300D03*
X497900Y424900D03*
Y432100D03*
X500000Y420000D03*
X497900Y439200D03*
X502100Y573100D03*
X512500Y24400D03*
X522500Y23900D03*
X517500Y23849D03*
X527500D03*
X522500Y36151D03*
X512500Y40549D03*
X527500D03*
X517500Y43849D03*
X522500D03*
Y59451D03*
X521100Y253600D03*
X525500Y247500D03*
X518714Y257928D03*
X512000Y269000D03*
X526000Y279500D03*
X526500Y291400D03*
X522700Y292600D03*
X510600Y299700D03*
X512000Y284200D03*
X526100Y344600D03*
X522000Y355306D03*
X526100Y375800D03*
X522000Y365094D03*
X517706Y390506D03*
X510894Y390894D03*
X513700Y412900D03*
X520200Y412600D03*
X524900Y411700D03*
X527100Y424600D03*
X524500Y441258D03*
X527600Y466700D03*
X523100Y473542D03*
X527628Y487872D03*
X532500Y22649D03*
X537500D03*
X542500D03*
X547500Y23849D03*
X542500Y40549D03*
X547500Y43849D03*
X537500Y59451D03*
X536600Y74600D03*
X537100Y82600D03*
X547100Y261700D03*
X534500Y250500D03*
X544616Y245600D03*
X538800Y245800D03*
X541500Y276800D03*
X546500Y281500D03*
X536500D03*
X546500Y272000D03*
X536500D03*
X530600Y287100D03*
X533500Y290500D03*
X537000Y293500D03*
X538000Y311000D03*
X546000D03*
X546300Y338800D03*
X536700D03*
X532000Y344700D03*
X544281Y342443D03*
X538719D03*
X543500Y360300D03*
X533400D03*
X532000Y375800D03*
X534050Y448800D03*
X545000D03*
X538200Y448900D03*
X530394Y456000D03*
X541800Y467000D03*
X542828Y487872D03*
X547028D03*
X535488Y480088D03*
X539638Y480200D03*
X531300D03*
X544937Y479800D03*
X557500Y20549D03*
X562500D03*
X552500Y23849D03*
X562500Y39451D03*
X552500Y43849D03*
Y59451D03*
X565600Y77100D03*
X559000Y163000D03*
X564000Y262100D03*
X553500Y251000D03*
X548200Y250400D03*
X560500Y281000D03*
X549000Y298000D03*
X566594Y286406D03*
X553100Y300100D03*
X565500Y295000D03*
X555000Y344700D03*
X561000D03*
X565100Y355406D03*
X553600Y360300D03*
X555000Y375800D03*
X561000D03*
X565100Y365094D03*
X566163Y414337D03*
X561300Y412600D03*
X558900Y441258D03*
X549100Y448800D03*
X552006Y456000D03*
X548500Y467000D03*
X557400Y473542D03*
X551236Y480436D03*
X577500Y20549D03*
X582500D03*
Y36151D03*
X567500D03*
X572500D03*
Y23849D03*
X567500D03*
X577500Y39451D03*
X567500Y43849D03*
X577500D03*
X582500D03*
Y59451D03*
X567500D03*
Y71500D03*
X567100Y82600D03*
X577500Y256000D03*
X577530Y260371D03*
X571100Y272200D03*
X578500Y282000D03*
X577530Y265830D03*
X568000Y291000D03*
X578000Y298000D03*
X569000Y304541D03*
X572500Y363100D03*
X568400Y391000D03*
X574006Y390194D03*
X578100Y391700D03*
X574037Y414500D03*
X578400Y414000D03*
X582000Y422000D03*
X580000Y463000D03*
X576750Y481750D03*
X597500Y20549D03*
X602500D03*
X597500Y36151D03*
X602500D03*
X587500D03*
Y20700D03*
X592600Y22100D03*
X592500Y39451D03*
X597500Y43849D03*
X592500D03*
X597500Y59451D03*
X599100Y72100D03*
Y82600D03*
X596500Y77000D03*
X599100Y111100D03*
X593100Y195200D03*
X601831Y198700D03*
X596269D03*
X591100Y269800D03*
X591000Y274019D03*
Y279581D03*
X588000Y291000D03*
X591000Y283700D03*
X588000Y333000D03*
X586000Y371000D03*
X597500Y390000D03*
X586924Y417776D03*
X594500Y473000D03*
X614000Y16500D03*
X617500Y20549D03*
X622500D03*
X612500Y36151D03*
Y23849D03*
X617500Y36151D03*
X622500Y39451D03*
X612500Y43849D03*
X622500D03*
X607500D03*
X612500Y59451D03*
X619100Y219100D03*
X609000Y357000D03*
X618000Y390000D03*
X611724Y381276D03*
X618200Y401300D03*
X618000Y421000D03*
X611724Y417776D03*
X617000Y481000D03*
X632500Y23849D03*
X627500D03*
X637500Y20549D03*
X627500Y36151D03*
X632500D03*
Y40549D03*
X627500Y43849D03*
X637500D03*
X627500Y59451D03*
X639400Y59500D03*
X636000Y236000D03*
X628000Y318000D03*
X638800Y311800D03*
X640700Y322400D03*
X636400Y326701D03*
Y335300D03*
X632000Y348200D03*
X632200Y342700D03*
X641400Y367700D03*
X632806Y390506D03*
X625994Y390894D03*
X637500Y391300D03*
X628800Y412900D03*
X635300Y412600D03*
X640000Y411700D03*
X641600Y424600D03*
X639600Y441258D03*
X638200Y473542D03*
X647500Y23849D03*
X642500Y20549D03*
X657500D03*
X652500Y23849D03*
X647500Y36151D03*
X657500D03*
X642500D03*
X652500Y43849D03*
X657500D03*
X642500D03*
X654400Y59500D03*
X651800Y316200D03*
X642319Y314569D03*
X647881D03*
X650300Y310200D03*
X659600Y317700D03*
X654500Y327300D03*
X645100Y331200D03*
X649800Y322400D03*
X659600Y342800D03*
X654594Y358006D03*
X653500Y367500D03*
X649150Y448800D03*
X660100D03*
X653300Y448900D03*
X645494Y456000D03*
X642700Y466700D03*
X656900Y467700D03*
X650588Y480088D03*
X654738Y480200D03*
X646400D03*
X642728Y487872D03*
X657928D03*
X660037Y479800D03*
X677500Y20549D03*
X662500Y36151D03*
X677500D03*
Y56151D03*
X667500Y43849D03*
X672500D03*
Y59451D03*
X671300Y100600D03*
X677500D03*
X671669Y96400D03*
X677231D03*
X661406Y358000D03*
X665200Y347900D03*
X678500Y380000D03*
X675000Y388000D03*
X676400Y412600D03*
X664200Y448800D03*
X674000Y441258D03*
X663187Y467813D03*
X667106Y456000D03*
X672500Y473542D03*
X666336Y480436D03*
X662128Y487872D03*
X697500Y20549D03*
X682500D03*
Y36151D03*
X687500Y23849D03*
X692500D03*
X693800Y39000D03*
X682500Y40549D03*
Y56151D03*
X687500Y43448D03*
X692500D03*
X687200Y117600D03*
X690869Y119700D03*
X696431D03*
X695500Y170200D03*
X698654Y173615D03*
X682100Y290100D03*
X688500Y368000D03*
X694000Y371500D03*
X683500Y391000D03*
X689106Y390194D03*
X693200Y391700D03*
X695500Y380000D03*
X689137Y414500D03*
X695700Y401900D03*
X681263Y414337D03*
X697000Y423000D03*
X705700Y24300D03*
X704900Y99700D03*
X699900Y117300D03*
X708700Y172800D03*
X704216Y173615D03*
X713900Y221369D03*
X709800Y220000D03*
X713900Y226931D03*
X709800Y228500D03*
X716200Y380900D03*
X715600Y390600D03*
X712600Y389400D03*
X714900Y413600D03*
X705400Y401300D03*
X708500Y415000D03*
X699000Y496000D03*
X706100Y579100D03*
X719100Y64700D03*
X735500Y141900D03*
X726100Y311700D03*
X734981Y314569D03*
X729419D03*
X732200Y331200D03*
X727800Y322400D03*
X723500Y326701D03*
Y335300D03*
X733000Y356000D03*
X719000Y348200D03*
X719200Y342700D03*
X719906Y390506D03*
X727900Y380500D03*
X734500Y380000D03*
X724400Y391400D03*
X720637Y413837D03*
X726000Y411900D03*
X729100Y424600D03*
X726700Y441258D03*
X736250Y448800D03*
X729800Y466700D03*
X732594Y456000D03*
X725300Y473542D03*
X733500Y480200D03*
X729828Y487872D03*
X745003Y68303D03*
X744700Y142000D03*
X743031Y138100D03*
X737469D03*
X742500Y175300D03*
X747100Y173800D03*
X754000Y173900D03*
X745400Y221069D03*
X741300Y219800D03*
X745400Y226631D03*
X741300Y228100D03*
X755000Y320000D03*
X738800Y317400D03*
X737400Y310200D03*
X746700Y317700D03*
X741600Y327300D03*
X736900Y322400D03*
X748506Y357694D03*
X752800Y347900D03*
X746700Y342800D03*
X741694Y357806D03*
X741500Y370500D03*
X750500Y370000D03*
X742500Y393000D03*
X743500Y380000D03*
X745500Y414500D03*
X751300Y448800D03*
X747200D03*
X740400Y448900D03*
X750287Y467813D03*
X754206Y456000D03*
X744000Y467700D03*
X737688Y480088D03*
X741838Y480200D03*
X753436Y480436D03*
X745028Y487872D03*
X749228D03*
X747137Y479800D03*
X763850Y15850D03*
X771600Y24100D03*
X769600Y37100D03*
X763600Y30100D03*
X769850Y29850D03*
X763600Y24100D03*
X768200Y50928D03*
X771700Y129000D03*
X762900Y128800D03*
X758500Y116100D03*
X762100Y153100D03*
X758800Y174800D03*
X763100Y220100D03*
X767300Y240300D03*
X771600Y241688D03*
X761400Y247900D03*
X761000Y255400D03*
X774400Y256000D03*
X770100Y264212D03*
X771600Y246712D03*
X770100Y259188D03*
X766000Y249188D03*
Y254212D03*
X764500Y265500D03*
X771200Y277300D03*
X767900Y268988D03*
Y274012D03*
X766000Y383000D03*
X769394Y392200D03*
X764700Y392700D03*
X768363Y414337D03*
X761000Y401900D03*
X761100Y411600D03*
Y441258D03*
X759600Y473542D03*
X790106Y33194D03*
X781906Y40006D03*
X790600Y84900D03*
X785500Y103500D03*
X787100Y118100D03*
X792600Y128100D03*
X789100Y280100D03*
X775500Y266600D03*
X774800Y392200D03*
X780500Y391600D03*
X776237Y414300D03*
X781100Y414100D03*
X784000Y422000D03*
X791000Y421100D03*
X781000Y500000D03*
X810300Y23000D03*
X809414Y40900D03*
Y77900D03*
X799600Y128100D03*
X805100Y127600D03*
X795100Y173100D03*
X804100Y221169D03*
X799800Y219500D03*
X804100Y226731D03*
X800200Y229100D03*
X808500Y231500D03*
X800100Y295100D03*
X811300Y326701D03*
Y335300D03*
X807100Y348200D03*
Y342700D03*
X807706Y390506D03*
X800894Y390894D03*
X798600Y388900D03*
X812200Y391400D03*
X800563Y413100D03*
X793700Y401300D03*
X808437Y413837D03*
X795100Y578100D03*
X816800Y23000D03*
X821600Y42100D03*
X817500Y50700D03*
X812600Y128600D03*
X826600Y128100D03*
X820100D03*
X821600Y226600D03*
X813000Y227500D03*
X830100Y226600D03*
X816600Y231100D03*
X827100D03*
X814000Y311500D03*
X826600Y317400D03*
X822781Y314569D03*
X817219D03*
X825200Y310200D03*
X820000Y331200D03*
X829400Y327300D03*
X815600Y322400D03*
X824700D03*
X829494Y365400D03*
X825000Y386000D03*
X816000D03*
X813700Y411900D03*
X818100Y424600D03*
X814500Y441258D03*
X824050Y448800D03*
X828200Y448900D03*
X817600Y466700D03*
X820394Y456000D03*
X823692Y466192D03*
X830011Y467155D03*
X813100Y473542D03*
X825488Y480088D03*
X829638Y480200D03*
X821300D03*
X817628Y487872D03*
X850086Y29200D03*
X836600Y36100D03*
X834500Y49200D03*
X844500Y40806D03*
X850086Y104100D03*
X834351Y110100D03*
X839500Y118500D03*
X842500Y127100D03*
X836300Y152800D03*
X842100Y305100D03*
X834500Y317700D03*
X840400Y347900D03*
X834500Y342800D03*
X836306Y365394D03*
X849500Y413600D03*
X839100Y448800D03*
X848900Y441258D03*
X835000Y448800D03*
X838087Y467813D03*
X842006Y456000D03*
X847400Y473542D03*
X841236Y480436D03*
X832828Y487872D03*
X837028D03*
X863700Y21600D03*
X862200Y67600D03*
X866400Y123600D03*
X855800Y126500D03*
X864950Y140350D03*
X866100Y153100D03*
X859000Y224000D03*
X868000Y268000D03*
X852036Y286536D03*
X868898Y290398D03*
X865500Y319000D03*
X866250Y335100D03*
X857000Y377000D03*
X859400Y387800D03*
X860500Y380000D03*
X854500Y383000D03*
X864006Y390194D03*
X867800Y391600D03*
X855600Y391900D03*
X864037Y414200D03*
X856163Y414337D03*
X870700Y21700D03*
X887200Y41800D03*
X873300Y39700D03*
X880500Y52143D03*
X873314Y78300D03*
X870100Y110100D03*
X873842Y134228D03*
X883100Y171100D03*
X886614Y271114D03*
X873000Y345000D03*
X881000Y373500D03*
X879500Y380000D03*
X871600Y401900D03*
X871000Y421000D03*
X878000Y496000D03*
X894500Y39500D03*
X892100Y130100D03*
X898500Y120300D03*
X902650Y114480D03*
X897100Y224100D03*
X902600Y282100D03*
X896100Y272100D03*
X895510Y280921D03*
X892600Y299600D03*
X894000Y286500D03*
X897364Y291136D03*
X913600Y21700D03*
X917500Y38800D03*
X909600Y74200D03*
X920400Y82000D03*
X919200Y78000D03*
X922600Y124100D03*
X916100Y137100D03*
X923600Y220600D03*
X923700Y229200D03*
X921500Y348200D03*
X921600Y342700D03*
X922706Y390506D03*
X915894Y390894D03*
X913600Y388600D03*
X915563Y413300D03*
X911200Y411900D03*
X923437Y413837D03*
X910000Y515000D03*
X937160Y17960D03*
X937400Y67000D03*
X943600D03*
X930900D03*
X930600Y124600D03*
X937100Y158100D03*
X927900Y221869D03*
Y227431D03*
X937100Y272100D03*
X926100Y299100D03*
X935600Y292600D03*
X929400Y310900D03*
X940300Y310700D03*
X932219Y314569D03*
X937781D03*
X935000Y331200D03*
X944400Y327300D03*
X930600Y322400D03*
X939700D03*
X926300Y326701D03*
Y335300D03*
X944494Y359600D03*
X942000Y386000D03*
X933000D03*
X927200Y391400D03*
X928600Y411700D03*
X932100Y424600D03*
X929600Y441258D03*
X939150Y448800D03*
X943300Y448900D03*
X932700Y466700D03*
X935494Y456000D03*
X928200Y473542D03*
X940588Y480088D03*
X936400Y480200D03*
X932728Y487872D03*
X949100Y80900D03*
X947100Y141100D03*
X959100Y267100D03*
X949500Y317700D03*
X955000Y347900D03*
X949500Y342800D03*
X951306Y359494D03*
X954200Y448800D03*
X950100D03*
X953187Y467813D03*
X957106Y456000D03*
X946900Y467700D03*
X962500Y473542D03*
X944738Y480200D03*
X956336Y480436D03*
X947100Y489100D03*
X953800Y488800D03*
X951700Y484400D03*
X975300Y93700D03*
X975400Y102000D03*
X964100Y100800D03*
X978200Y97500D03*
X972662D03*
X967100D03*
X974900Y116000D03*
X981100Y225100D03*
X973100Y298600D03*
X971000Y375000D03*
X972194Y391100D03*
X971000Y380000D03*
X969500Y385500D03*
X977800Y391100D03*
X967300Y392100D03*
X976800Y413800D03*
X971163Y414337D03*
X965300Y412300D03*
X964000Y441258D03*
X986500Y101000D03*
X983762Y97500D03*
X994100Y154100D03*
X998100Y179100D03*
X1001100Y298600D03*
X990500Y317000D03*
X982500Y370500D03*
X983200Y391500D03*
X1000300Y391400D03*
X989500Y380000D03*
X998500Y413100D03*
X983200Y413700D03*
X986000Y421500D03*
X989000Y512000D03*
Y575000D03*
X1018100Y234100D03*
X1011000Y291000D03*
X1008000Y308000D03*
X1017500Y311100D03*
X1020019Y314569D03*
X1018400Y322400D03*
X1014100Y326701D03*
Y335300D03*
X1009900Y348200D03*
X1010000Y342700D03*
X1010506Y390506D03*
X1005000Y391300D03*
X1015100Y391200D03*
X1003363Y413200D03*
X1011237Y413837D03*
X1016400Y412500D03*
X1019600Y424600D03*
X1017400Y441258D03*
X1016000Y473542D03*
X1029900Y57100D03*
X1034753Y79053D03*
X1028100Y203100D03*
X1031900Y261731D03*
Y256169D03*
X1027500Y263300D03*
X1027600Y254300D03*
X1027900Y310600D03*
X1025581Y314569D03*
X1037300Y317700D03*
X1022800Y331200D03*
X1032200Y327300D03*
X1027500Y322400D03*
X1039106Y357794D03*
X1037300Y342800D03*
X1032294Y357806D03*
X1031800Y387100D03*
X1021700Y387300D03*
X1026950Y448800D03*
X1037900D03*
X1031100Y448900D03*
X1020500Y466700D03*
X1023294Y456000D03*
X1034700Y467700D03*
X1024200Y480200D03*
X1028388Y480088D03*
X1032538Y480200D03*
X1020528Y487872D03*
X1034800Y489200D03*
X1050800Y51900D03*
X1049500Y67500D03*
X1042400Y347900D03*
X1052000Y361000D03*
X1057260Y376260D03*
X1055100Y380600D03*
X1055000Y386500D03*
X1054800Y394700D03*
X1053400Y412500D03*
X1042000Y448800D03*
X1051800Y441258D03*
X1040987Y467813D03*
X1044906Y456000D03*
X1050300Y473542D03*
X1044136Y480436D03*
X1041600Y489200D03*
X1039300Y484000D03*
X1067600Y68700D03*
X1074000Y288000D03*
X1071100Y298600D03*
X1067500Y370000D03*
X1059994Y390000D03*
X1066806Y390194D03*
X1071400Y391900D03*
X1075000Y380000D03*
X1066837Y414300D03*
X1071700Y413200D03*
X1058963Y414337D03*
X1072976Y425023D03*
X1076000Y573000D03*
X1095500Y62600D03*
X1090200Y249969D03*
Y255531D03*
X1087900Y259200D03*
X1086100Y248400D03*
X1087600Y391100D03*
X1092200Y390800D03*
X1092300Y413100D03*
X1087900Y415400D03*
X1077000Y511000D03*
X1105447Y62447D03*
X1100100Y60800D03*
X1105000Y84600D03*
X1103494Y103106D03*
X1110306Y110094D03*
X1107000Y177000D03*
X1104100Y257100D03*
X1104500Y310600D03*
X1114400Y310300D03*
X1112481Y314169D03*
X1106919D03*
X1109700Y330800D03*
X1105300Y322000D03*
X1114400D03*
X1101000Y326301D03*
Y334900D03*
X1096800Y347800D03*
X1097000Y342300D03*
X1097406Y390906D03*
X1109000Y386000D03*
X1102400Y391400D03*
X1104000Y411700D03*
X1098137Y413363D03*
X1107100Y424600D03*
X1104300Y441458D03*
X1113850Y449000D03*
X1107400Y466900D03*
X1110194Y456200D03*
X1102900Y473742D03*
X1111100Y480400D03*
X1107428Y487869D03*
X1123553Y62653D03*
X1133147Y62453D03*
X1123398Y89598D03*
X1127800Y107600D03*
X1124900Y99500D03*
X1131100Y138500D03*
X1125100Y281100D03*
X1124200Y317300D03*
X1119100Y326900D03*
X1126006Y357394D03*
X1130100Y347500D03*
X1124200Y342400D03*
X1119194Y357406D03*
X1118000Y386000D03*
X1128900Y449000D03*
X1124800D03*
X1118000Y449100D03*
X1127887Y468013D03*
X1131406Y456806D03*
X1121600Y466500D03*
X1115288Y480288D03*
X1119438Y480400D03*
X1131036Y480636D03*
X1121700Y489200D03*
X1128100Y489100D03*
X1126200Y484000D03*
X1151053Y62447D03*
X1149002Y89398D03*
X1151000Y94800D03*
X1137906Y110794D03*
X1148100Y178100D03*
X1151100Y220100D03*
X1146894Y391800D03*
X1152500D03*
X1142300Y391700D03*
X1151800Y413900D03*
X1141500Y413200D03*
X1145863Y413937D03*
X1138700Y441458D03*
X1137200Y473742D03*
X1153200Y138700D03*
X1166100Y165600D03*
X1158000Y276000D03*
X1157000Y360000D03*
X1166100Y369600D03*
X1161500Y380000D03*
X1157300Y391700D03*
X1165276Y403224D03*
X1156800Y414400D03*
X1162000Y421000D03*
X1155000Y542000D03*
Y579000D03*
X1186700Y69100D03*
X1178500Y380000D03*
X1183500Y393000D03*
X1194100Y212100D03*
G54D30*
X1058300Y25000D03*
X1048300D03*
X1068300D03*
G54D12*
X32000Y333000D03*
Y343000D03*
Y353000D03*
X320000Y299000D03*
Y319000D03*
Y309000D03*
G54D21*
X522102Y432991D03*
X512949Y451101D03*
Y470786D03*
Y489290D03*
X541000Y432991D03*
X559898D03*
X569051Y451101D03*
Y470786D03*
Y489290D03*
X637202Y432991D03*
X628049Y451101D03*
Y470786D03*
Y489290D03*
X656100Y432991D03*
X674998D03*
X684151Y451101D03*
Y470786D03*
Y489290D03*
X715149Y451101D03*
Y470786D03*
Y489290D03*
X724302Y432991D03*
X743200D03*
X762098D03*
X771251Y451101D03*
Y470786D03*
Y489290D03*
X812102Y432991D03*
X802949Y451101D03*
Y470786D03*
Y489290D03*
X831000Y432991D03*
X849898D03*
X859051Y451101D03*
Y470786D03*
Y489290D03*
X918049Y451101D03*
Y470786D03*
Y489290D03*
X927202Y432991D03*
X946100D03*
X964998D03*
X974151Y451101D03*
Y470786D03*
Y489290D03*
X1015002Y432991D03*
X1005849Y451101D03*
Y470786D03*
Y489290D03*
X1033900Y432991D03*
X1052798D03*
X1061951Y451101D03*
Y470786D03*
Y489290D03*
X1092749Y451101D03*
Y470786D03*
Y489290D03*
X1101902Y432991D03*
X1120800D03*
X1139698D03*
X1148851Y451101D03*
Y470786D03*
Y489290D03*
G54D22*
X512949Y441258D03*
Y480628D03*
X525449Y500313D03*
X512949Y519998D03*
Y559369D03*
X546709Y500313D03*
X535291Y579054D03*
X569051Y500313D03*
Y539683D03*
Y579054D03*
X628049Y441258D03*
Y480628D03*
X640549Y500313D03*
X628049Y519998D03*
Y559369D03*
X661809Y500313D03*
X650391Y579054D03*
X684151Y500313D03*
Y539683D03*
Y579054D03*
X715149Y441258D03*
Y480628D03*
Y519998D03*
Y559369D03*
X727649Y500313D03*
X737491Y579054D03*
X748909Y500313D03*
X771251D03*
Y539683D03*
Y579054D03*
X802949Y441258D03*
Y480628D03*
Y519998D03*
Y559369D03*
X815449Y500313D03*
X825291Y579054D03*
X836709Y500313D03*
X859051D03*
Y539683D03*
Y579054D03*
X918049Y441258D03*
Y480628D03*
Y519998D03*
Y559369D03*
X930549Y500313D03*
X940391Y579054D03*
X951809Y500313D03*
X974151D03*
Y539683D03*
Y579054D03*
X1005849Y441258D03*
Y480628D03*
X1018349Y500313D03*
X1005849Y519998D03*
Y559369D03*
X1039609Y500313D03*
X1028191Y579054D03*
X1061951Y500313D03*
Y539683D03*
Y579054D03*
X1092749Y441258D03*
Y480628D03*
Y519998D03*
Y559369D03*
X1105249Y500313D03*
X1115091Y579054D03*
X1126509Y500313D03*
X1148851D03*
Y539683D03*
Y579054D03*
G54D13*
X25000Y492700D03*
Y502700D03*
Y512700D03*
X53800Y30700D03*
Y40700D03*
Y50700D03*
G54D31*
X1058900Y208700D03*
X1048900D03*
X1058900Y218700D03*
X1048900D03*
X1077200Y76500D03*
Y96000D03*
X1068900Y208700D03*
Y218700D03*
X1095400Y36100D03*
Y26100D03*
X1087200Y76500D03*
Y96000D03*
X1088900Y208700D03*
X1078900D03*
X1088900Y218700D03*
X1078900D03*
X1115400Y36100D03*
Y26100D03*
X1105400Y36100D03*
Y26100D03*
X1108900Y208700D03*
X1098900D03*
X1108900Y218700D03*
X1098900D03*
X1125400Y36100D03*
Y26100D03*
X1128900Y208700D03*
X1118900D03*
X1128900Y218700D03*
X1118900D03*
X1145400Y36100D03*
Y26100D03*
X1135400Y36100D03*
Y26100D03*
X1138900Y208700D03*
X1168300Y76500D03*
X1168400Y96000D03*
X1178300Y76500D03*
X1178400Y96000D03*
G54D14*
X52600Y114150D03*
X76300Y263400D03*
X76400Y249400D03*
X113200Y142100D03*
X131700D03*
X142500Y228500D03*
X164100Y95100D03*
Y77100D03*
Y108100D03*
Y121100D03*
X200100Y299700D03*
X200000Y313700D03*
X222000Y15700D03*
X215000Y210000D03*
X298500Y277000D03*
X294300Y438700D03*
X309000Y418000D03*
Y431900D03*
X308900Y445800D03*
X308800Y459700D03*
X322900Y418000D03*
Y431900D03*
Y445800D03*
Y459700D03*
X418300Y363300D03*
Y375500D03*
X452300Y438400D03*
X466200Y431900D03*
Y418000D03*
Y445800D03*
X466100Y471100D03*
Y458100D03*
X478900Y432100D03*
Y418200D03*
Y446000D03*
X480100Y471100D03*
X479100Y458100D03*
X508600Y361800D03*
X494100D03*
X524100Y304100D03*
X538000Y305000D03*
X546000D03*
X560000Y314000D03*
X641088Y374000D03*
X628488D03*
X653588D03*
X715200Y374100D03*
X702600Y374000D03*
X727700D03*
X801900Y380100D03*
X827000D03*
X814500D03*
X908000Y50200D03*
X908600Y66400D03*
X918500Y380300D03*
X943600D03*
X931100D03*
X1020600D03*
X1008000D03*
X1033100D03*
X1056400Y59200D03*
X1069700Y47100D03*
X1069600Y59700D03*
X1094400Y380300D03*
X1108300Y123100D03*
X1107000Y380300D03*
X1120500Y123000D03*
Y136700D03*
X1119500Y380200D03*
X1136000Y141900D03*
X1148300Y141600D03*
X1148400Y155200D03*
X1169700Y46800D03*
X1169800Y59600D03*
X1182900Y46700D03*
G54D32*
X1138900Y218700D03*
G54D23*
X522102Y457400D03*
X559898D03*
X637202D03*
X674998D03*
X724302D03*
X762098D03*
X812102D03*
X849898D03*
X927202D03*
X964998D03*
X1015002D03*
X1052798D03*
X1101902D03*
X1139698D03*
G54D33*
G01X8625Y439138D02*
X9360Y438590D01*
X9780Y438120D01*
X9990Y437493D01*
X9780Y436945D01*
X9360Y436553D01*
X8730Y436240D01*
X7995Y436162D01*
X7365Y436240D01*
X6735Y436553D01*
X6210Y437023D01*
X6000Y437572D01*
X6210Y438198D01*
X6840Y438747D01*
X7785Y439060D01*
X8835Y439138D01*
X10200Y438982D01*
X10935Y438747D01*
X11670Y438355D01*
X12195Y437807D01*
X12300Y437258D01*
X12090Y436710D01*
X11565Y436318D01*
G54D24*
X569051Y460943D03*
X684151D03*
X771251D03*
X859051D03*
X974151D03*
X1061951D03*
X1148851D03*
G54D15*
X55000Y551300D03*
X155000D03*
X255000D03*
X355000D03*
G54D16*
X45000Y571300D03*
X85000D03*
X145000D03*
X185000D03*
X245000D03*
X285000D03*
X345000D03*
X385000D03*
G54D25*
X964900Y37795D03*
X1009900D03*
G54D26*
X961239Y21811D03*
X971278D03*
X1003522D03*
X1013561D03*
G54D17*
X65000Y551300D03*
X165000D03*
X265000D03*
X365000D03*
G54D18*
X132732Y26060D03*
G54D27*
X956475Y49803D03*
X1018325D03*
G54D28*
X964900Y72795D03*
G54D19*
X124465Y54800D03*
Y76454D03*
X141000Y54800D03*
Y76454D03*
G54D29*
X969900Y62795D03*
X974900Y72795D03*
X979900Y62795D03*
X984900Y72795D03*
X989900Y62795D03*
X994900Y72795D03*
X999900Y62795D03*
X1009900D03*
X1004900Y72795D03*
M02*
