G04 ================== begin FILE IDENTIFICATION RECORD ==================*
G04 Layout Name:  C:/DUNE_GIB/UPENN-DUNE-GIB/allegro/gps_interface_board_ml_v101.brd*
G04 Film Name:    _11_Sold_Bottomv101*
G04 File Format:  Gerber RS274X*
G04 File Origin:  Cadence Allegro 24.1-P001*
G04 Origin Date:  Mon Sep  1 10:04:49 2025*
G04 *
G04 Layer:  VIA CLASS/SOLDERMASK_BOTTOM*
G04 Layer:  PIN/SOLDERMASK_BOTTOM*
G04 Layer:  PACKAGE GEOMETRY/SOLDERMASK_BOTTOM*
G04 Layer:  BOARD GEOMETRY/SOLDERMASK_BOTTOM*
G04 *
G04 Offset:    (0.00 0.00)*
G04 Mirror:    No*
G04 Mode:      Positive*
G04 Rotation:  0*
G04 FullContactRelief:  No*
G04 UndefLineWidth:     5.00*
G04 ================== end FILE IDENTIFICATION RECORD ====================*
%FSLAX55Y55*MOIN*%
%IR0*IPPOS*OFA0.00000B0.00000*MIA0B0*SFA1.00000B1.00000*%
%ADD48C,.06*%
%ADD50C,.07*%
%ADD36C,.0512*%
%ADD39C,.06103*%
%ADD11C,.046*%
%ADD35C,.03504*%
%ADD51R,.06X.06*%
%ADD49R,.07X.07*%
%ADD20C,.05504*%
%ADD37C,.0574*%
%ADD16C,.06181*%
%ADD40C,.05346*%
%ADD43C,.09921*%
%ADD22R,.05504X.05504*%
%ADD17R,.06181X.06181*%
%ADD27C,.09655*%
%ADD19C,.06496*%
%ADD45C,.05858*%
%ADD42C,.07559*%
%ADD47O,.05937X.11874*%
%ADD18O,.11874X.05937*%
%ADD28R,.09655X.09655*%
%ADD44R,.05858X.05858*%
%ADD38R,.07874X.07874*%
%ADD46R,.024X.02*%
%ADD41C,.13111*%
%ADD33R,.027X.025*%
%ADD34R,.025X.027*%
%ADD26C,.12411*%
%ADD10C,.163*%
%ADD23R,.04331X.05512*%
%ADD12R,.04252X.04134*%
%ADD24R,.04134X.04252*%
%ADD21C,.1187*%
%ADD30R,.02362X.02165*%
%ADD29R,.02165X.02362*%
%ADD15R,.0374X.0374*%
%ADD14R,.0374X.02362*%
%ADD13R,.0374X.0374*%
%ADD25R,.05906X.05118*%
%ADD32R,.05118X.05906*%
%ADD31R,.05906X.07874*%
%LPD*%
G75*
G54D10*
X20000Y20000D03*
Y580000D03*
X310000Y20000D03*
Y580000D03*
X475846Y47811D03*
X600000Y580000D03*
X723878Y47811D03*
X890000Y20000D03*
Y580000D03*
X1180000Y20000D03*
Y580000D03*
G54D20*
X55000Y551300D03*
X155000D03*
X255000D03*
X355000D03*
G54D11*
X11200Y72300D03*
X13090Y142081D03*
X16692Y142095D03*
X14800Y161600D03*
X14600Y156300D03*
Y150900D03*
X14400Y197600D03*
Y203000D03*
X13647Y190253D03*
X17592Y218195D03*
X13990Y218181D03*
X14600Y208300D03*
X24100Y60500D03*
X28935Y80735D03*
Y75735D03*
X33935Y80735D03*
Y75735D03*
Y90065D03*
X18935Y75735D03*
X33935Y100065D03*
Y95065D03*
X18935D03*
Y100065D03*
X23935D03*
Y95065D03*
X35800Y130100D03*
X20391Y142007D03*
X32090Y142181D03*
X35692Y142195D03*
X19100Y161600D03*
X19000Y156400D03*
X19100Y150900D03*
X23600Y161600D03*
X23800Y150900D03*
Y156600D03*
X34500Y159700D03*
X22824Y167823D03*
X25700Y176100D03*
X26692Y181491D03*
X18900Y197600D03*
X18800Y203100D03*
X23600Y197600D03*
Y203300D03*
X18900Y208300D03*
X21291Y218107D03*
X32990Y218281D03*
X36592Y218295D03*
X23400Y208300D03*
X33991Y238207D03*
X30292Y238295D03*
X26690Y238281D03*
X29400Y260100D03*
X24700D03*
X20200D03*
X29400Y265800D03*
X29200Y270800D03*
X24600Y265600D03*
X20200Y265500D03*
X20400Y270800D03*
X24700D03*
X20990Y289081D03*
X28291Y289007D03*
X24592Y289095D03*
X48265Y90065D03*
X53265D03*
X43265Y80735D03*
Y75735D03*
X48265Y80735D03*
Y75735D03*
X53265Y80735D03*
Y75735D03*
X43265Y90065D03*
X53265Y95065D03*
Y100065D03*
X48265Y95065D03*
Y100065D03*
X43265D03*
Y95065D03*
X39391Y142107D03*
X51190Y142181D03*
X54792Y142195D03*
X39500Y146894D03*
X41200Y160500D03*
X44800Y165100D03*
X41200Y152200D03*
Y156400D03*
X51873Y182008D03*
X45800D03*
X39727D03*
X45800Y176792D03*
X51873D03*
X39727D03*
X44900Y192800D03*
X47300Y203600D03*
X47200Y207100D03*
X41900Y207300D03*
X42000Y199900D03*
Y203700D03*
X40291Y218207D03*
X52090Y218281D03*
X55692Y218295D03*
X45690Y238381D03*
X49292Y238395D03*
X52991Y238307D03*
X50500Y274700D03*
X53000Y277200D03*
Y272200D03*
X48000D03*
Y277200D03*
X52800Y295900D03*
X51100Y351100D03*
Y356100D03*
X46300Y497800D03*
X54000Y536000D03*
X58265Y90065D03*
Y80735D03*
Y75735D03*
Y100065D03*
Y95065D03*
X59800Y123500D03*
X72400Y143400D03*
Y138000D03*
X72600Y148700D03*
X58491Y142107D03*
X72100Y220900D03*
X71900Y210200D03*
X59391Y218207D03*
X71900Y215600D03*
X64790Y238381D03*
X68392Y238395D03*
X72091Y238307D03*
X72206Y276906D03*
X71090Y289081D03*
X74692Y289095D03*
X73250Y307550D03*
X56500Y341000D03*
X72850Y530850D03*
X74600Y545437D03*
X85000Y30000D03*
X81400Y113100D03*
X90600D03*
X85800Y118600D03*
X81400Y118500D03*
X85900Y113100D03*
X81600Y123800D03*
X90400D03*
X90600Y118800D03*
X85900Y123800D03*
X76900Y148700D03*
X81400D03*
X76800Y143500D03*
X76900Y138000D03*
X81600D03*
Y143700D03*
X88500Y167100D03*
X81100Y215900D03*
Y210200D03*
X76400D03*
Y220900D03*
X80900D03*
X76300Y215700D03*
X89000Y233300D03*
X91000Y255300D03*
X89000Y251400D03*
X88000Y281000D03*
X92700Y278500D03*
X88400Y268000D03*
X92900Y273200D03*
X92700Y267900D03*
X78391Y289007D03*
X86440Y299740D03*
X83000Y283200D03*
X86636Y359364D03*
X78000Y443000D03*
X81281Y502053D03*
X90600Y527300D03*
X76900Y512600D03*
X89328Y534000D03*
X104300Y113200D03*
X99600D03*
X95100Y118600D03*
Y113200D03*
X99500Y118700D03*
X104300Y118900D03*
X95300Y123900D03*
X99600D03*
X104100D03*
X110300Y169100D03*
Y160900D03*
Y165000D03*
X105300Y167000D03*
Y162900D03*
X110300Y173200D03*
Y177300D03*
Y181400D03*
Y185500D03*
X105300Y187500D03*
Y183400D03*
Y179300D03*
Y175200D03*
Y171100D03*
X110300Y189600D03*
Y193700D03*
X105300Y195700D03*
Y191600D03*
X96881Y235319D03*
X100500Y234000D03*
X107100Y234100D03*
X110100Y244400D03*
X98700Y242800D03*
X102200D03*
X102300Y246100D03*
X98800D03*
X110400Y255300D03*
X97200Y278500D03*
X101900D03*
X97200Y273200D03*
X97100Y268000D03*
X101900Y268200D03*
X101700Y273200D03*
X106100Y309100D03*
X97953Y346847D03*
X94300Y356000D03*
X109200Y353600D03*
X100000Y453000D03*
X121000Y30000D03*
X120300Y165000D03*
Y160900D03*
Y169100D03*
X115300Y162900D03*
Y167000D03*
X120300Y185500D03*
Y181400D03*
Y177300D03*
Y173200D03*
X115300Y171100D03*
Y175200D03*
Y179300D03*
Y183400D03*
Y187500D03*
X120300Y193700D03*
Y189600D03*
X115300Y191600D03*
Y195700D03*
X126600Y369700D03*
X141700Y118800D03*
X141800Y124000D03*
X146300D03*
X137300Y118700D03*
X146500Y113300D03*
X141800D03*
X137500Y124000D03*
X137300Y113300D03*
X146500Y119000D03*
X149100Y154100D03*
X144100Y179700D03*
X148300D03*
X144100Y175500D03*
X148300D03*
X144100Y171300D03*
X148300D03*
X144890Y197581D03*
X148492Y197595D03*
X149100Y225100D03*
Y216100D03*
X144100D03*
X144000Y242000D03*
X148200D03*
X150400Y258200D03*
X144000Y250400D03*
X148200D03*
X144000Y246200D03*
X148200D03*
X148592Y268195D03*
X144990Y268181D03*
X150190Y288581D03*
X143900Y317300D03*
X148100D03*
X143900Y313100D03*
X148100D03*
X143900Y321500D03*
X148100D03*
X144690Y397881D03*
X148292Y397895D03*
X144000Y430000D03*
X150675Y502353D03*
X151300Y118700D03*
Y113300D03*
X151500Y124000D03*
X162100Y157100D03*
X153100D03*
X166100Y154100D03*
X158100D03*
X152200Y187100D03*
X158000Y183500D03*
X152500Y179700D03*
Y175500D03*
Y171300D03*
X163937Y187137D03*
X152191Y197507D03*
X167100Y194000D03*
X158100Y225100D03*
X166100D03*
X168300Y207900D03*
X153100Y228100D03*
X162100D03*
X152400Y242000D03*
X158000Y254400D03*
X163763Y258037D03*
X152400Y250400D03*
Y246200D03*
X152291Y268107D03*
X168300Y277600D03*
X168200Y266000D03*
X153792Y288595D03*
X157491Y288507D03*
X169190Y288681D03*
X152300Y317300D03*
Y313100D03*
X152200Y329000D03*
X167700Y335200D03*
X163737Y328937D03*
X152300Y321500D03*
X154592Y345395D03*
X150990Y345381D03*
X158291Y345307D03*
X168300Y346800D03*
X152000Y387400D03*
X163737Y387437D03*
X166900Y394300D03*
X151991Y397807D03*
X168100Y408200D03*
X154000Y535000D03*
X178100Y157100D03*
X170100D03*
X188100D03*
X174100Y154100D03*
X183100D03*
X171800Y185700D03*
Y180700D03*
X176800D03*
Y185700D03*
X174300Y183200D03*
X181900Y194200D03*
X184600Y190200D03*
X177300Y194900D03*
X171000Y195400D03*
X183100Y225100D03*
X174100D03*
X172300Y207900D03*
X180300D03*
X176300Y207800D03*
X188100Y228100D03*
X170100D03*
X178100D03*
X174300Y254100D03*
X176800Y256600D03*
Y251600D03*
X171800D03*
Y256600D03*
X184500Y261600D03*
X176300Y277600D03*
X172300Y277500D03*
X180300Y277600D03*
X188400Y276300D03*
X181600Y265400D03*
X177500Y266300D03*
X172331Y266100D03*
X172792Y288695D03*
X176491Y288607D03*
X188290Y288681D03*
X174200Y325000D03*
X176700Y327500D03*
Y322500D03*
X171700D03*
Y327500D03*
X181700Y335400D03*
X184800Y331900D03*
X177100Y336100D03*
X172400Y336700D03*
X176200Y346900D03*
X180100D03*
X172300Y346800D03*
X174100Y383500D03*
X176600Y386000D03*
Y381000D03*
X171600D03*
Y386000D03*
X181700Y394500D03*
X184400Y390500D03*
X177100Y395200D03*
X170800Y395700D03*
X172100Y408200D03*
X180100D03*
X176100Y408100D03*
X174000Y452000D03*
X181381Y503153D03*
X176900Y512600D03*
X180428Y539900D03*
X172850Y530850D03*
X197100Y157100D03*
X205100D03*
X201100Y161100D03*
X193100Y154100D03*
X201100D03*
X195600Y186800D03*
X201200Y185100D03*
X194990Y197581D03*
X201100Y225100D03*
X193100D03*
X201100Y232100D03*
X205100Y228100D03*
X197100D03*
X196600Y258000D03*
X199292Y268495D03*
X202991Y268407D03*
X195690Y268481D03*
X191892Y288695D03*
X195591Y288607D03*
X195900Y328900D03*
X204200Y331800D03*
X192692Y345495D03*
X189090Y345481D03*
X196391Y345407D03*
X195400Y387100D03*
X204200Y390100D03*
X198392Y397895D03*
X194790Y397881D03*
X202091Y397807D03*
X197000Y432800D03*
X200000Y462000D03*
X207600Y189800D03*
X210900Y261700D03*
X211040Y276240D03*
X223940Y293140D03*
X224000Y309500D03*
Y316500D03*
X225500Y383200D03*
X210040Y408140D03*
X233000Y199000D03*
X244100Y223100D03*
X241100Y217100D03*
X240100Y241100D03*
X244100Y235100D03*
X240100Y229100D03*
X231800Y261700D03*
X233700Y272500D03*
X229000Y316500D03*
X227000Y313000D03*
X229500Y309500D03*
X236500Y342800D03*
Y353500D03*
X241200Y342800D03*
X232000Y348200D03*
Y342800D03*
X232200Y353500D03*
X236400Y348300D03*
X241000Y353500D03*
X241200Y348500D03*
X230000Y383200D03*
X234700D03*
X229000Y391800D03*
X234500Y404400D03*
X241872Y509800D03*
X243800Y499400D03*
X228000Y511000D03*
X240000Y529000D03*
X258000Y30000D03*
Y35000D03*
Y44000D03*
Y50000D03*
X258100Y57100D03*
X258300Y62700D03*
X261100Y93100D03*
Y140100D03*
X249000Y177000D03*
X253000D03*
X259100Y175100D03*
X264100Y185100D03*
X253000Y186000D03*
X250000Y198000D03*
X256100Y223100D03*
X250100D03*
X253100Y217100D03*
X247100D03*
X259100D03*
X247100Y241100D03*
X253100D03*
X259100D03*
X250100Y235100D03*
X256100D03*
X259100Y229100D03*
X253100D03*
X247100D03*
X248794Y300600D03*
X262500Y319100D03*
X250200Y317500D03*
X253800Y320800D03*
X253700Y317500D03*
X250300Y320800D03*
X261000Y305600D03*
X262600Y315700D03*
X258100Y328100D03*
X255200Y348500D03*
X255000Y353500D03*
X250400Y348300D03*
X246200Y353500D03*
X246000Y342800D03*
Y348200D03*
X255200Y342800D03*
X250500Y353500D03*
Y342800D03*
X247000Y437000D03*
X253450Y505378D03*
X261000Y511000D03*
X257472Y528500D03*
X246000Y535000D03*
X282770Y36600D03*
X281100Y108100D03*
X282100Y146100D03*
X281100Y177100D03*
X277500Y277100D03*
X265100Y273100D03*
X277500Y295100D03*
X280100Y354100D03*
X279000Y421000D03*
X277100Y463100D03*
X283000Y510000D03*
X272772Y525300D03*
X276000Y540000D03*
X272972Y530700D03*
X289500Y34100D03*
X290300Y47559D03*
X289300Y69500D03*
X284100Y241100D03*
X289000Y315000D03*
X289100Y323100D03*
X290000Y396000D03*
X289400Y483900D03*
X295400D03*
X301300D03*
X297000Y511000D03*
X299232Y514669D03*
X315900Y62700D03*
X316164Y57736D03*
X307400Y483900D03*
X317000Y508000D03*
X314000Y523000D03*
X307000Y511000D03*
X304869Y514669D03*
X334000Y23900D03*
X326700Y34272D03*
X321300Y47600D03*
Y42600D03*
X338640Y71000D03*
X331160Y71800D03*
X330000Y137000D03*
Y194000D03*
X329000Y274000D03*
X338100Y394100D03*
X326000Y489000D03*
X330000Y490000D03*
X322000D03*
X332000Y483900D03*
X337800D03*
X326000Y500000D03*
X339000Y507000D03*
X326000Y516000D03*
X328000Y520000D03*
X326000Y511000D03*
X339000Y523000D03*
X337000Y535000D03*
Y547000D03*
X335000Y541000D03*
X348400Y17900D03*
X346500Y34372D03*
X340400Y23500D03*
X343400Y59900D03*
X351100Y98100D03*
X355300Y418300D03*
X348500Y452000D03*
X348700Y444500D03*
X343500Y483900D03*
X349300D03*
X352000Y505000D03*
Y527000D03*
Y514000D03*
X347000Y530000D03*
X370000Y32000D03*
X373100Y72100D03*
X362200Y59000D03*
X367000Y121000D03*
Y255900D03*
X365400Y264200D03*
X366800Y272700D03*
X368500Y294000D03*
X377000Y300500D03*
X363400Y314600D03*
X374600Y306100D03*
X363800Y357300D03*
X368000D03*
X363800Y353100D03*
X368000D03*
X373300Y356000D03*
X363800Y361500D03*
X368000D03*
X373672Y384700D03*
X373100Y398900D03*
X365200Y470400D03*
X368400Y475500D03*
X371000Y515000D03*
X359000Y530000D03*
X374000Y532000D03*
X395000Y107000D03*
X389000Y127000D03*
X392000Y144000D03*
X389600Y172200D03*
X378900Y213400D03*
X392300Y208900D03*
X388331Y210800D03*
X382769D03*
X396447Y260000D03*
Y277100D03*
X380206Y277200D03*
X396100Y337000D03*
X385688Y355709D03*
X388900Y342800D03*
X392788Y340488D03*
Y345512D03*
X391760Y383360D03*
X395100Y449600D03*
X385100Y453600D03*
X386600Y480600D03*
X379600D03*
X394000Y537000D03*
X396000Y544000D03*
X386000Y550000D03*
X397100Y54100D03*
X397900Y47100D03*
X407900Y47500D03*
X406031Y43791D03*
X400469D03*
X404000Y93228D03*
X400000Y105600D03*
X407700Y101700D03*
X405036Y142536D03*
X407600Y147800D03*
X413900Y156800D03*
X400100Y166500D03*
X411361Y161639D03*
X404300Y165400D03*
X407000Y193000D03*
X396672Y245600D03*
X413460Y252240D03*
X415250Y274300D03*
X402400Y268600D03*
Y278800D03*
X412000Y296800D03*
X403264Y305664D03*
X413300Y319421D03*
X413500Y353000D03*
X410500Y355700D03*
X413500D03*
X410500Y353000D03*
X398860Y394200D03*
X406250Y394600D03*
X411700Y432000D03*
X417000Y79000D03*
X425200Y89000D03*
X425900Y106200D03*
X427900Y100400D03*
X432000Y124000D03*
X420628Y122328D03*
X425900Y142400D03*
X428036Y132036D03*
X419100Y142100D03*
X421543Y150643D03*
X431000Y151000D03*
X416100Y161500D03*
X423100Y212100D03*
X422100Y241100D03*
X420053Y274447D03*
X428100Y289600D03*
X428600Y284100D03*
X417300Y308500D03*
X418800Y331200D03*
X428800Y378100D03*
X434300Y433700D03*
X434100Y426800D03*
X420100Y447100D03*
X431050Y455251D03*
X443200Y36400D03*
X453100Y28100D03*
X434900Y44100D03*
X441131Y40000D03*
X435569D03*
X438000Y76000D03*
X450500Y82000D03*
X443000Y101500D03*
X438500Y106500D03*
X449500Y107500D03*
X438323Y131323D03*
Y119677D03*
X442600Y143100D03*
X438100D03*
X448500Y146500D03*
X446000Y155400D03*
X440000Y210000D03*
X451700Y211400D03*
X442369Y213400D03*
X447931D03*
X449669Y220900D03*
X452500Y279200D03*
X441000Y284100D03*
X435000Y284200D03*
X448500Y301200D03*
X449300Y316800D03*
X444400Y316700D03*
X449300Y307800D03*
X444400Y307700D03*
X449200Y312300D03*
X444300Y312200D03*
X449200Y321300D03*
X444300Y321200D03*
X453000Y328050D03*
X443150Y327350D03*
X452874Y386783D03*
Y398397D03*
X442547Y504953D03*
X456892Y67332D03*
X457198Y83058D03*
X464000Y107000D03*
X453677Y119323D03*
X466000Y138000D03*
X470500Y135000D03*
X465000Y159000D03*
X459100Y218300D03*
X466200Y226400D03*
X455231Y220900D03*
X462731Y228800D03*
X457169D03*
X464669Y235700D03*
X470231D03*
X471500Y248100D03*
X469164Y286836D03*
X459300Y301200D03*
X472100Y295300D03*
X454700Y301153D03*
X463600Y301400D03*
X459300Y316800D03*
Y307800D03*
X454100D03*
X459200Y312300D03*
X454000D03*
X454100Y316800D03*
X464616Y313516D03*
X459200Y321300D03*
X454000D03*
X465300Y328100D03*
X471398Y344702D03*
X453300Y345600D03*
X454000Y479000D03*
X461147Y488100D03*
X470500Y516000D03*
X453500D03*
X476306Y61506D03*
X477000Y131800D03*
X474100Y123100D03*
X483000Y166100D03*
X487588D03*
X474300Y234300D03*
X482200Y240500D03*
X473069Y242600D03*
X478631D03*
X488931Y248800D03*
X483369D03*
X476400Y294200D03*
X483050Y309950D03*
X474900Y337300D03*
X484236Y323464D03*
X477226Y386783D03*
Y398397D03*
X482961Y488962D03*
X499750Y24750D03*
X498849Y47500D03*
X502500Y56151D03*
X507500Y43849D03*
X493000Y74700D03*
X507500Y59451D03*
X497000Y87000D03*
X496294Y109106D03*
X506300Y127500D03*
Y131800D03*
Y123100D03*
X497100Y166100D03*
X492612D03*
X492900Y246500D03*
X509600Y291700D03*
X493800Y313500D03*
X504600Y312600D03*
X493500Y325100D03*
Y329700D03*
X509000Y383000D03*
X492500Y392500D03*
X496100Y383100D03*
X502800Y401300D03*
X497900Y424900D03*
Y432100D03*
X500000Y420000D03*
X497900Y439200D03*
X502100Y573100D03*
X512500Y24400D03*
X522500Y23900D03*
X517500Y23849D03*
X527500D03*
X522500Y36151D03*
X512500Y40549D03*
X527500D03*
X517500Y43849D03*
X522500D03*
Y59451D03*
X521100Y253600D03*
X525500Y247500D03*
X518714Y257928D03*
X512000Y269000D03*
X526000Y279500D03*
X526500Y291400D03*
X522700Y292600D03*
X510600Y299700D03*
X512000Y284200D03*
X526100Y344600D03*
X522000Y355306D03*
X526100Y375800D03*
X522000Y365094D03*
X517706Y390506D03*
X510894Y390894D03*
X513700Y412900D03*
X520200Y412600D03*
X524900Y411700D03*
X527100Y424600D03*
X524500Y441258D03*
X527600Y466700D03*
X523100Y473542D03*
X527628Y487872D03*
X532500Y22649D03*
X537500D03*
X542500D03*
X547500Y23849D03*
X542500Y40549D03*
X547500Y43849D03*
X537500Y59451D03*
X536600Y74600D03*
X537100Y82600D03*
X547100Y261700D03*
X534500Y250500D03*
X544616Y245600D03*
X538800Y245800D03*
X541500Y276800D03*
X546500Y281500D03*
X536500D03*
X546500Y272000D03*
X536500D03*
X530600Y287100D03*
X533500Y290500D03*
X537000Y293500D03*
X538000Y311000D03*
X546000D03*
X546300Y338800D03*
X536700D03*
X532000Y344700D03*
X544281Y342443D03*
X538719D03*
X543500Y360300D03*
X533400D03*
X532000Y375800D03*
X534050Y448800D03*
X545000D03*
X538200Y448900D03*
X530394Y456000D03*
X541800Y467000D03*
X542828Y487872D03*
X547028D03*
X535488Y480088D03*
X539638Y480200D03*
X531300D03*
X544937Y479800D03*
X557500Y20549D03*
X562500D03*
X552500Y23849D03*
X562500Y39451D03*
X552500Y43849D03*
Y59451D03*
X565600Y77100D03*
X559000Y163000D03*
X564000Y262100D03*
X553500Y251000D03*
X548200Y250400D03*
X560500Y281000D03*
X549000Y298000D03*
X566594Y286406D03*
X553100Y300100D03*
X565500Y295000D03*
X555000Y344700D03*
X561000D03*
X565100Y355406D03*
X553600Y360300D03*
X555000Y375800D03*
X561000D03*
X565100Y365094D03*
X566163Y414337D03*
X561300Y412600D03*
X558900Y441258D03*
X549100Y448800D03*
X552006Y456000D03*
X548500Y467000D03*
X557400Y473542D03*
X551236Y480436D03*
X577500Y20549D03*
X582500D03*
Y36151D03*
X567500D03*
X572500D03*
Y23849D03*
X567500D03*
X577500Y39451D03*
X567500Y43849D03*
X577500D03*
X582500D03*
Y59451D03*
X567500D03*
Y71500D03*
X567100Y82600D03*
X577500Y256000D03*
X577530Y260371D03*
X571100Y272200D03*
X578500Y282000D03*
X577530Y265830D03*
X568000Y291000D03*
X578000Y298000D03*
X569000Y304541D03*
X572500Y363100D03*
X568400Y391000D03*
X574006Y390194D03*
X578100Y391700D03*
X574037Y414500D03*
X578400Y414000D03*
X582000Y422000D03*
X580000Y463000D03*
X576750Y481750D03*
X597500Y20549D03*
X602500D03*
X597500Y36151D03*
X602500D03*
X587500D03*
Y20700D03*
X592600Y22100D03*
X592500Y39451D03*
X597500Y43849D03*
X592500D03*
X597500Y59451D03*
X599100Y72100D03*
Y82600D03*
X596500Y77000D03*
X599100Y111100D03*
X593100Y195200D03*
X601831Y198700D03*
X596269D03*
X591100Y269800D03*
X591000Y274019D03*
Y279581D03*
X588000Y291000D03*
X591000Y283700D03*
X588000Y333000D03*
X586000Y371000D03*
X597500Y390000D03*
X586924Y417776D03*
X594500Y473000D03*
X614000Y16500D03*
X617500Y20549D03*
X622500D03*
X612500Y36151D03*
Y23849D03*
X617500Y36151D03*
X622500Y39451D03*
X612500Y43849D03*
X622500D03*
X607500D03*
X612500Y59451D03*
X619100Y219100D03*
X609000Y357000D03*
X618000Y390000D03*
X611724Y381276D03*
X618200Y401300D03*
X618000Y421000D03*
X611724Y417776D03*
X617000Y481000D03*
X632500Y23849D03*
X627500D03*
X637500Y20549D03*
X627500Y36151D03*
X632500D03*
Y40549D03*
X627500Y43849D03*
X637500D03*
X627500Y59451D03*
X639400Y59500D03*
X636000Y236000D03*
X628000Y318000D03*
X638800Y311800D03*
X640700Y322400D03*
X636400Y326701D03*
Y335300D03*
X632000Y348200D03*
X632200Y342700D03*
X641400Y367700D03*
X632806Y390506D03*
X625994Y390894D03*
X637500Y391300D03*
X628800Y412900D03*
X635300Y412600D03*
X640000Y411700D03*
X641600Y424600D03*
X639600Y441258D03*
X638200Y473542D03*
X647500Y23849D03*
X642500Y20549D03*
X657500D03*
X652500Y23849D03*
X647500Y36151D03*
X657500D03*
X642500D03*
X652500Y43849D03*
X657500D03*
X642500D03*
X654400Y59500D03*
X651800Y316200D03*
X642319Y314569D03*
X647881D03*
X650300Y310200D03*
X659600Y317700D03*
X654500Y327300D03*
X645100Y331200D03*
X649800Y322400D03*
X659600Y342800D03*
X654594Y358006D03*
X653500Y367500D03*
X649150Y448800D03*
X660100D03*
X653300Y448900D03*
X645494Y456000D03*
X642700Y466700D03*
X656900Y467700D03*
X650588Y480088D03*
X654738Y480200D03*
X646400D03*
X642728Y487872D03*
X657928D03*
X660037Y479800D03*
X677500Y20549D03*
X662500Y36151D03*
X677500D03*
Y56151D03*
X667500Y43849D03*
X672500D03*
Y59451D03*
X671300Y100600D03*
X677500D03*
X671669Y96400D03*
X677231D03*
X661406Y358000D03*
X665200Y347900D03*
X678500Y380000D03*
X675000Y388000D03*
X676400Y412600D03*
X664200Y448800D03*
X674000Y441258D03*
X663187Y467813D03*
X667106Y456000D03*
X672500Y473542D03*
X666336Y480436D03*
X662128Y487872D03*
X697500Y20549D03*
X682500D03*
Y36151D03*
X687500Y23849D03*
X692500D03*
X693800Y39000D03*
X682500Y40549D03*
Y56151D03*
X687500Y43448D03*
X692500D03*
X687200Y117600D03*
X690869Y119700D03*
X696431D03*
X695500Y170200D03*
X698654Y173615D03*
X682100Y290100D03*
X688500Y368000D03*
X694000Y371500D03*
X683500Y391000D03*
X689106Y390194D03*
X693200Y391700D03*
X695500Y380000D03*
X689137Y414500D03*
X695700Y401900D03*
X681263Y414337D03*
X697000Y423000D03*
X705700Y24300D03*
X704900Y99700D03*
X699900Y117300D03*
X708700Y172800D03*
X704216Y173615D03*
X713900Y221369D03*
X709800Y220000D03*
X713900Y226931D03*
X709800Y228500D03*
X716200Y380900D03*
X715600Y390600D03*
X712600Y389400D03*
X714900Y413600D03*
X705400Y401300D03*
X708500Y415000D03*
X699000Y496000D03*
X706100Y579100D03*
X719100Y64700D03*
X735500Y141900D03*
X726100Y311700D03*
X734981Y314569D03*
X729419D03*
X732200Y331200D03*
X727800Y322400D03*
X723500Y326701D03*
Y335300D03*
X733000Y356000D03*
X719000Y348200D03*
X719200Y342700D03*
X719906Y390506D03*
X727900Y380500D03*
X734500Y380000D03*
X724400Y391400D03*
X720637Y413837D03*
X726000Y411900D03*
X729100Y424600D03*
X726700Y441258D03*
X736250Y448800D03*
X729800Y466700D03*
X732594Y456000D03*
X725300Y473542D03*
X733500Y480200D03*
X729828Y487872D03*
X745003Y68303D03*
X744700Y142000D03*
X743031Y138100D03*
X737469D03*
X742500Y175300D03*
X747100Y173800D03*
X754000Y173900D03*
X745400Y221069D03*
X741300Y219800D03*
X745400Y226631D03*
X741300Y228100D03*
X755000Y320000D03*
X738800Y317400D03*
X737400Y310200D03*
X746700Y317700D03*
X741600Y327300D03*
X736900Y322400D03*
X748506Y357694D03*
X752800Y347900D03*
X746700Y342800D03*
X741694Y357806D03*
X741500Y370500D03*
X750500Y370000D03*
X742500Y393000D03*
X743500Y380000D03*
X745500Y414500D03*
X751300Y448800D03*
X747200D03*
X740400Y448900D03*
X750287Y467813D03*
X754206Y456000D03*
X744000Y467700D03*
X737688Y480088D03*
X741838Y480200D03*
X753436Y480436D03*
X745028Y487872D03*
X749228D03*
X747137Y479800D03*
X763850Y15850D03*
X771600Y24100D03*
X769600Y37100D03*
X763600Y30100D03*
X769850Y29850D03*
X763600Y24100D03*
X768200Y50928D03*
X771700Y129000D03*
X762900Y128800D03*
X758500Y116100D03*
X762100Y153100D03*
X758800Y174800D03*
X763100Y220100D03*
X767300Y240300D03*
X771600Y241688D03*
X761400Y247900D03*
X761000Y255400D03*
X774400Y256000D03*
X770100Y264212D03*
X771600Y246712D03*
X770100Y259188D03*
X766000Y249188D03*
Y254212D03*
X764500Y265500D03*
X771200Y277300D03*
X767900Y268988D03*
Y274012D03*
X766000Y383000D03*
X769394Y392200D03*
X764700Y392700D03*
X768363Y414337D03*
X761000Y401900D03*
X761100Y411600D03*
Y441258D03*
X759600Y473542D03*
X790106Y33194D03*
X781906Y40006D03*
X790600Y84900D03*
X785500Y103500D03*
X787100Y118100D03*
X792600Y128100D03*
X789100Y280100D03*
X775500Y266600D03*
X774800Y392200D03*
X780500Y391600D03*
X776237Y414300D03*
X781100Y414100D03*
X784000Y422000D03*
X791000Y421100D03*
X781000Y500000D03*
X810300Y23000D03*
X809414Y40900D03*
Y77900D03*
X799600Y128100D03*
X805100Y127600D03*
X795100Y173100D03*
X804100Y221169D03*
X799800Y219500D03*
X804100Y226731D03*
X800200Y229100D03*
X808500Y231500D03*
X800100Y295100D03*
X811300Y326701D03*
Y335300D03*
X807100Y348200D03*
Y342700D03*
X807706Y390506D03*
X800894Y390894D03*
X798600Y388900D03*
X812200Y391400D03*
X800563Y413100D03*
X793700Y401300D03*
X808437Y413837D03*
X795100Y578100D03*
X816800Y23000D03*
X821600Y42100D03*
X817500Y50700D03*
X812600Y128600D03*
X826600Y128100D03*
X820100D03*
X821600Y226600D03*
X813000Y227500D03*
X830100Y226600D03*
X816600Y231100D03*
X827100D03*
X814000Y311500D03*
X826600Y317400D03*
X822781Y314569D03*
X817219D03*
X825200Y310200D03*
X820000Y331200D03*
X829400Y327300D03*
X815600Y322400D03*
X824700D03*
X829494Y365400D03*
X825000Y386000D03*
X816000D03*
X813700Y411900D03*
X818100Y424600D03*
X814500Y441258D03*
X824050Y448800D03*
X828200Y448900D03*
X817600Y466700D03*
X820394Y456000D03*
X823692Y466192D03*
X830011Y467155D03*
X813100Y473542D03*
X825488Y480088D03*
X829638Y480200D03*
X821300D03*
X817628Y487872D03*
X850086Y29200D03*
X836600Y36100D03*
X834500Y49200D03*
X844500Y40806D03*
X850086Y104100D03*
X834351Y110100D03*
X839500Y118500D03*
X842500Y127100D03*
X836300Y152800D03*
X842100Y305100D03*
X834500Y317700D03*
X840400Y347900D03*
X834500Y342800D03*
X836306Y365394D03*
X849500Y413600D03*
X839100Y448800D03*
X848900Y441258D03*
X835000Y448800D03*
X838087Y467813D03*
X842006Y456000D03*
X847400Y473542D03*
X841236Y480436D03*
X832828Y487872D03*
X837028D03*
X863700Y21600D03*
X862200Y67600D03*
X866400Y123600D03*
X855800Y126500D03*
X864950Y140350D03*
X866100Y153100D03*
X859000Y224000D03*
X868000Y268000D03*
X852036Y286536D03*
X868898Y290398D03*
X865500Y319000D03*
X866250Y335100D03*
X857000Y377000D03*
X859400Y387800D03*
X860500Y380000D03*
X854500Y383000D03*
X864006Y390194D03*
X867800Y391600D03*
X855600Y391900D03*
X864037Y414200D03*
X856163Y414337D03*
X870700Y21700D03*
X887200Y41800D03*
X873300Y39700D03*
X880500Y52143D03*
X873314Y78300D03*
X870100Y110100D03*
X873842Y134228D03*
X883100Y171100D03*
X886614Y271114D03*
X873000Y345000D03*
X881000Y373500D03*
X879500Y380000D03*
X871600Y401900D03*
X871000Y421000D03*
X878000Y496000D03*
X894500Y39500D03*
X892100Y130100D03*
X898500Y120300D03*
X902650Y114480D03*
X897100Y224100D03*
X902600Y282100D03*
X896100Y272100D03*
X895510Y280921D03*
X892600Y299600D03*
X894000Y286500D03*
X897364Y291136D03*
X913600Y21700D03*
X917500Y38800D03*
X909600Y74200D03*
X920400Y82000D03*
X919200Y78000D03*
X922600Y124100D03*
X916100Y137100D03*
X923600Y220600D03*
X923700Y229200D03*
X921500Y348200D03*
X921600Y342700D03*
X922706Y390506D03*
X915894Y390894D03*
X913600Y388600D03*
X915563Y413300D03*
X911200Y411900D03*
X923437Y413837D03*
X910000Y515000D03*
X937160Y17960D03*
X937400Y67000D03*
X943600D03*
X930900D03*
X930600Y124600D03*
X937100Y158100D03*
X927900Y221869D03*
Y227431D03*
X937100Y272100D03*
X926100Y299100D03*
X935600Y292600D03*
X929400Y310900D03*
X940300Y310700D03*
X932219Y314569D03*
X937781D03*
X935000Y331200D03*
X944400Y327300D03*
X930600Y322400D03*
X939700D03*
X926300Y326701D03*
Y335300D03*
X944494Y359600D03*
X942000Y386000D03*
X933000D03*
X927200Y391400D03*
X928600Y411700D03*
X932100Y424600D03*
X929600Y441258D03*
X939150Y448800D03*
X943300Y448900D03*
X932700Y466700D03*
X935494Y456000D03*
X928200Y473542D03*
X940588Y480088D03*
X936400Y480200D03*
X932728Y487872D03*
X949100Y80900D03*
X947100Y141100D03*
X959100Y267100D03*
X949500Y317700D03*
X955000Y347900D03*
X949500Y342800D03*
X951306Y359494D03*
X954200Y448800D03*
X950100D03*
X953187Y467813D03*
X957106Y456000D03*
X946900Y467700D03*
X962500Y473542D03*
X944738Y480200D03*
X956336Y480436D03*
X947100Y489100D03*
X953800Y488800D03*
X951700Y484400D03*
X975300Y93700D03*
X975400Y102000D03*
X964100Y100800D03*
X978200Y97500D03*
X972662D03*
X967100D03*
X974900Y116000D03*
X981100Y225100D03*
X973100Y298600D03*
X971000Y375000D03*
X972194Y391100D03*
X971000Y380000D03*
X969500Y385500D03*
X977800Y391100D03*
X967300Y392100D03*
X976800Y413800D03*
X971163Y414337D03*
X965300Y412300D03*
X964000Y441258D03*
X986500Y101000D03*
X983762Y97500D03*
X994100Y154100D03*
X998100Y179100D03*
X1001100Y298600D03*
X990500Y317000D03*
X982500Y370500D03*
X983200Y391500D03*
X1000300Y391400D03*
X989500Y380000D03*
X998500Y413100D03*
X983200Y413700D03*
X986000Y421500D03*
X989000Y512000D03*
Y575000D03*
X1018100Y234100D03*
X1011000Y291000D03*
X1008000Y308000D03*
X1017500Y311100D03*
X1020019Y314569D03*
X1018400Y322400D03*
X1014100Y326701D03*
Y335300D03*
X1009900Y348200D03*
X1010000Y342700D03*
X1010506Y390506D03*
X1005000Y391300D03*
X1015100Y391200D03*
X1003363Y413200D03*
X1011237Y413837D03*
X1016400Y412500D03*
X1019600Y424600D03*
X1017400Y441258D03*
X1016000Y473542D03*
X1029900Y57100D03*
X1034753Y79053D03*
X1028100Y203100D03*
X1031900Y261731D03*
Y256169D03*
X1027500Y263300D03*
X1027600Y254300D03*
X1027900Y310600D03*
X1025581Y314569D03*
X1037300Y317700D03*
X1022800Y331200D03*
X1032200Y327300D03*
X1027500Y322400D03*
X1039106Y357794D03*
X1037300Y342800D03*
X1032294Y357806D03*
X1031800Y387100D03*
X1021700Y387300D03*
X1026950Y448800D03*
X1037900D03*
X1031100Y448900D03*
X1020500Y466700D03*
X1023294Y456000D03*
X1034700Y467700D03*
X1024200Y480200D03*
X1028388Y480088D03*
X1032538Y480200D03*
X1020528Y487872D03*
X1034800Y489200D03*
X1050800Y51900D03*
X1049500Y67500D03*
X1042400Y347900D03*
X1052000Y361000D03*
X1057260Y376260D03*
X1055100Y380600D03*
X1055000Y386500D03*
X1054800Y394700D03*
X1053400Y412500D03*
X1042000Y448800D03*
X1051800Y441258D03*
X1040987Y467813D03*
X1044906Y456000D03*
X1050300Y473542D03*
X1044136Y480436D03*
X1041600Y489200D03*
X1039300Y484000D03*
X1067600Y68700D03*
X1074000Y288000D03*
X1071100Y298600D03*
X1067500Y370000D03*
X1059994Y390000D03*
X1066806Y390194D03*
X1071400Y391900D03*
X1075000Y380000D03*
X1066837Y414300D03*
X1071700Y413200D03*
X1058963Y414337D03*
X1072976Y425023D03*
X1076000Y573000D03*
X1095500Y62600D03*
X1090200Y249969D03*
Y255531D03*
X1087900Y259200D03*
X1086100Y248400D03*
X1087600Y391100D03*
X1092200Y390800D03*
X1092300Y413100D03*
X1087900Y415400D03*
X1077000Y511000D03*
X1105447Y62447D03*
X1100100Y60800D03*
X1105000Y84600D03*
X1103494Y103106D03*
X1110306Y110094D03*
X1107000Y177000D03*
X1104100Y257100D03*
X1104500Y310600D03*
X1114400Y310300D03*
X1112481Y314169D03*
X1106919D03*
X1109700Y330800D03*
X1105300Y322000D03*
X1114400D03*
X1101000Y326301D03*
Y334900D03*
X1096800Y347800D03*
X1097000Y342300D03*
X1097406Y390906D03*
X1109000Y386000D03*
X1102400Y391400D03*
X1104000Y411700D03*
X1098137Y413363D03*
X1107100Y424600D03*
X1104300Y441458D03*
X1113850Y449000D03*
X1107400Y466900D03*
X1110194Y456200D03*
X1102900Y473742D03*
X1111100Y480400D03*
X1107428Y487869D03*
X1123553Y62653D03*
X1133147Y62453D03*
X1123398Y89598D03*
X1127800Y107600D03*
X1124900Y99500D03*
X1131100Y138500D03*
X1125100Y281100D03*
X1124200Y317300D03*
X1119100Y326900D03*
X1126006Y357394D03*
X1130100Y347500D03*
X1124200Y342400D03*
X1119194Y357406D03*
X1118000Y386000D03*
X1128900Y449000D03*
X1124800D03*
X1118000Y449100D03*
X1127887Y468013D03*
X1131406Y456806D03*
X1121600Y466500D03*
X1115288Y480288D03*
X1119438Y480400D03*
X1131036Y480636D03*
X1121700Y489200D03*
X1128100Y489100D03*
X1126200Y484000D03*
X1151053Y62447D03*
X1149002Y89398D03*
X1151000Y94800D03*
X1137906Y110794D03*
X1148100Y178100D03*
X1151100Y220100D03*
X1146894Y391800D03*
X1152500D03*
X1142300Y391700D03*
X1151800Y413900D03*
X1141500Y413200D03*
X1145863Y413937D03*
X1138700Y441458D03*
X1137200Y473742D03*
X1153200Y138700D03*
X1166100Y165600D03*
X1158000Y276000D03*
X1157000Y360000D03*
X1166100Y369600D03*
X1161500Y380000D03*
X1157300Y391700D03*
X1165276Y403224D03*
X1156800Y414400D03*
X1162000Y421000D03*
X1155000Y542000D03*
Y579000D03*
X1186700Y69100D03*
X1178500Y380000D03*
X1183500Y393000D03*
X1194100Y212100D03*
G54D30*
X168300Y202972D03*
Y199428D03*
Y273772D03*
Y270228D03*
Y342672D03*
Y339128D03*
X168100Y403272D03*
Y399728D03*
X180300Y202972D03*
Y199428D03*
X176300Y202972D03*
Y199428D03*
X172300Y202972D03*
Y199428D03*
X180300Y273772D03*
Y270228D03*
X176300Y273772D03*
Y270228D03*
X172300Y273772D03*
Y270228D03*
X180100Y342672D03*
Y339128D03*
X176200Y342672D03*
Y339128D03*
X172300Y342672D03*
Y339128D03*
X180100Y403272D03*
Y399728D03*
X176100Y403272D03*
Y399728D03*
X172100Y403272D03*
Y399728D03*
X539100Y484328D03*
Y487872D03*
X535500Y484328D03*
Y487872D03*
X531800Y484328D03*
Y487872D03*
X551200Y484328D03*
Y487872D03*
X646900Y484328D03*
Y487872D03*
X654200Y484328D03*
Y487872D03*
X650600Y484328D03*
Y487872D03*
X666300Y484328D03*
Y487872D03*
X734000Y484328D03*
Y487872D03*
X753400Y484328D03*
Y487872D03*
X741300Y484328D03*
Y487872D03*
X737700Y484328D03*
Y487872D03*
X821800Y484328D03*
Y487872D03*
X829100Y484328D03*
Y487872D03*
X825500Y484328D03*
Y487872D03*
X841200Y484328D03*
Y487872D03*
X936900Y484328D03*
Y487872D03*
X940600Y484328D03*
Y487872D03*
X956300Y484328D03*
Y487872D03*
X944200Y484328D03*
Y487872D03*
X1029600Y72572D03*
Y69028D03*
X1024700Y484328D03*
Y487872D03*
X1032000Y484328D03*
Y487872D03*
X1028400Y484328D03*
Y487872D03*
X1044100Y484328D03*
Y487872D03*
X1067600Y73028D03*
Y76572D03*
Y99472D03*
Y95928D03*
X1111600Y484328D03*
Y487872D03*
X1131000Y484325D03*
Y487869D03*
X1118900Y484328D03*
Y487872D03*
X1115300Y484328D03*
Y487872D03*
X1186700Y72928D03*
Y76472D03*
X1186600Y99472D03*
Y95928D03*
G54D21*
X45000Y571300D03*
X85000D03*
X145000D03*
X185000D03*
X245000D03*
X285000D03*
X345000D03*
X385000D03*
G54D12*
X13300Y177006D03*
Y170194D03*
X16000Y494094D03*
Y500906D03*
X10000Y494094D03*
Y500906D03*
X34500Y146894D03*
Y153706D03*
X44100Y32594D03*
X38100D03*
X44100Y39406D03*
X38100D03*
X89000Y238994D03*
Y245806D03*
X89328Y545506D03*
Y538694D03*
X180428Y526494D03*
Y533306D03*
X538600Y323094D03*
Y329906D03*
X544400Y323094D03*
Y329906D03*
X1038000Y68994D03*
Y75806D03*
X1095500Y55606D03*
Y48794D03*
X1105400Y55606D03*
Y48794D03*
G54D31*
X296794Y36500D03*
Y50000D03*
Y66300D03*
X308606Y36500D03*
Y50000D03*
Y66300D03*
X464494Y68400D03*
Y81300D03*
X476306Y68400D03*
Y81300D03*
G54D13*
X22847Y130500D03*
X28753D03*
X64753Y288900D03*
X58847D03*
X58747Y295900D03*
X64653D03*
X93047Y283200D03*
X98953D03*
X222953Y260100D03*
X217047D03*
X221953Y391800D03*
X216047D03*
X376847Y398900D03*
X382753D03*
X414147Y264000D03*
X396447Y273100D03*
X402353D03*
X396447Y264000D03*
X402353D03*
X420053D03*
X421553Y441000D03*
X415647D03*
X421553Y435600D03*
X415647D03*
X438047Y426800D03*
X443953D03*
X438047Y433700D03*
X443953D03*
X438047Y440600D03*
X443953D03*
X467053Y483100D03*
X461147D03*
X488347Y424900D03*
Y432100D03*
Y439200D03*
X480147Y483100D03*
X486053D03*
X494253Y424900D03*
Y432100D03*
Y439200D03*
X925047Y80900D03*
X930953D03*
X943353D03*
X937447D03*
G54D22*
X65000Y551300D03*
X165000D03*
X265000D03*
X365000D03*
G54D40*
X569051Y460943D03*
X684151D03*
X771251D03*
X859051D03*
X974151D03*
X1061951D03*
X1148851D03*
G54D32*
X372263Y264200D03*
X380137D03*
X500337Y81300D03*
X492463D03*
X497763Y299700D03*
X505637D03*
X518437Y406900D03*
X510563D03*
X566163Y407600D03*
X574037D03*
X633537Y406900D03*
X625663D03*
X681263Y407600D03*
X689137D03*
X712763Y406900D03*
X720637D03*
X768363Y407600D03*
X776237D03*
X808437Y406900D03*
X800563D03*
X856163Y407600D03*
X864037D03*
X923437Y406900D03*
X915563D03*
X971163Y407600D03*
X979037D03*
X1011237Y406900D03*
X1003363D03*
X1058963Y407600D03*
X1066837D03*
X1090263Y406500D03*
X1098137D03*
X1145863Y407200D03*
X1153737D03*
G54D14*
X19572Y116900D03*
X28628Y113160D03*
Y120640D03*
X93172Y299740D03*
Y292260D03*
X102228Y296000D03*
X216972Y276240D03*
Y268760D03*
X225228Y404400D03*
X216172Y408140D03*
Y400660D03*
X226028Y272500D03*
X373672Y387100D03*
X382728Y383360D03*
Y390840D03*
X396672Y248500D03*
X405728Y244760D03*
Y252240D03*
G54D23*
X92960Y309100D03*
X100440D03*
X223940Y287200D03*
X216460D03*
X338640Y66600D03*
X331160D03*
X357240Y66300D03*
X349760D03*
X398860Y390000D03*
X406340D03*
G54D41*
X964900Y37795D03*
X1009900D03*
G54D50*
X1095400Y36100D03*
Y26100D03*
X1087200Y76500D03*
Y96000D03*
X1115400Y36100D03*
Y26100D03*
X1105400Y36100D03*
Y26100D03*
X1125400Y36100D03*
Y26100D03*
X1145400D03*
X1135400Y36100D03*
Y26100D03*
X1168300Y76500D03*
X1168400Y96000D03*
G54D15*
X20400Y176153D03*
Y170247D03*
X20300Y184547D03*
Y190453D03*
X289400Y473747D03*
Y479653D03*
X295400Y473747D03*
Y479653D03*
X301300Y473747D03*
Y479653D03*
X307400Y473747D03*
Y479653D03*
X337800Y473747D03*
Y479653D03*
X332000Y473747D03*
Y479653D03*
X349300Y473747D03*
Y479653D03*
X343500Y473747D03*
Y479653D03*
X810300Y27247D03*
Y33153D03*
X816800Y27247D03*
Y33153D03*
X863700Y26947D03*
Y32853D03*
X870700Y26947D03*
Y32853D03*
G54D24*
X79794Y527300D03*
X86606D03*
X97594Y255300D03*
X104406D03*
X244466Y516900D03*
X244566Y528500D03*
X255606Y305600D03*
X248794D03*
X251278Y516900D03*
X251378Y528500D03*
X373294Y255900D03*
X373394Y272700D03*
X380106Y255900D03*
X380206Y272700D03*
X504606Y291600D03*
X497794D03*
X497894Y307900D03*
X504706D03*
X517706Y396200D03*
X510894D03*
X545194Y460500D03*
X537206Y460400D03*
X530394D03*
X552006Y460500D03*
X567194Y396700D03*
X574006D03*
X632806Y396200D03*
X625994D03*
X652306Y460400D03*
X645494D03*
X660294Y460500D03*
X667106D03*
X682294Y396700D03*
X689106D03*
X713094Y396200D03*
X719906D03*
X732694Y460400D03*
X739506D03*
X747094D03*
X753906D03*
X769394Y396700D03*
X776206D03*
X807706Y396200D03*
X800894D03*
X827606Y460400D03*
X820794D03*
X834894Y460500D03*
X841706D03*
X857194Y396700D03*
X864006D03*
X922706Y396200D03*
X915894D03*
X942606Y460400D03*
X935794D03*
X949894Y460500D03*
X956706D03*
X972194Y396700D03*
X979006D03*
X1010506Y396200D03*
X1003694D03*
X1037694Y460500D03*
X1030406Y460400D03*
X1023594D03*
X1044506Y460500D03*
X1059994Y396700D03*
X1066806D03*
X1090594Y395800D03*
X1097406D03*
X1110494Y460400D03*
X1124594Y460500D03*
X1131406D03*
X1117306Y460400D03*
X1146894Y396300D03*
X1153706D03*
G54D33*
X446900Y290764D03*
Y286836D03*
X444900Y338436D03*
X450900D03*
X444900Y342364D03*
X450900D03*
X466600Y290764D03*
Y286836D03*
X460700Y290764D03*
Y286836D03*
X466300Y338436D03*
Y342364D03*
X937400Y70736D03*
X930900D03*
X937400Y74664D03*
X930900D03*
X943600Y70836D03*
Y74764D03*
G54D42*
X961239Y21811D03*
X971278D03*
X1003522D03*
X1013561D03*
G54D51*
X1138900Y218700D03*
G54D25*
X79828Y537563D03*
Y545437D03*
G54D34*
X475636Y299800D03*
X479564D03*
X475636Y313600D03*
X479564D03*
G54D43*
X956475Y49803D03*
X1018325D03*
G54D16*
X32000Y333000D03*
Y343000D03*
X320000Y319000D03*
Y309000D03*
G54D26*
X132732Y26060D03*
G54D44*
X964900Y72795D03*
G54D17*
X32000Y353000D03*
X320000Y299000D03*
G54D35*
X507500Y27500D03*
X502500D03*
X507500Y32500D03*
X502500D03*
X507500Y47500D03*
X502500D03*
X507500Y52500D03*
X502500D03*
X527500Y27500D03*
X522500D03*
X517500D03*
X512500D03*
X527500Y32500D03*
X522500D03*
X517500D03*
X512500D03*
X527500Y47500D03*
X522500D03*
X517500D03*
X512500D03*
X527500Y52500D03*
X522500D03*
X517500D03*
X512500D03*
X542500Y27500D03*
X537500D03*
X532500D03*
X542500Y32500D03*
X537500D03*
X532500D03*
X542500Y47500D03*
X537500D03*
X532500D03*
X542500Y52500D03*
X537500D03*
X532500D03*
X562500Y27500D03*
X557500D03*
X552500D03*
X547500D03*
X562500Y32500D03*
X557500D03*
X552500D03*
X547500D03*
X562500Y47500D03*
X557500D03*
X552500D03*
X547500D03*
X562500Y52500D03*
X557500D03*
X552500D03*
X547500D03*
X582500Y27500D03*
X577500D03*
X572500D03*
X567500D03*
X582500Y32500D03*
X577500D03*
X572500D03*
X567500D03*
X582500Y47500D03*
X577500D03*
X572500D03*
X567500D03*
X582500Y52500D03*
X577500D03*
X572500D03*
X567500D03*
X602500Y27500D03*
X597500D03*
X592500D03*
X587500D03*
X602500Y32500D03*
X597500D03*
X592500D03*
X587500D03*
X602500Y47500D03*
X597500D03*
X592500D03*
X587500D03*
X602500Y52500D03*
X597500D03*
X592500D03*
X587500D03*
X622500Y27500D03*
X617500D03*
X612500D03*
X607500D03*
X622500Y32500D03*
X617500D03*
X612500D03*
X607500D03*
X622500Y47500D03*
X617500D03*
X612500D03*
X607500D03*
X622500Y52500D03*
X617500D03*
X612500D03*
X607500D03*
X637500Y27500D03*
X632500D03*
X627500D03*
X637500Y32500D03*
X632500D03*
X627500D03*
X637500Y47500D03*
X632500D03*
X627500D03*
X637500Y52500D03*
X632500D03*
X627500D03*
X657500Y27500D03*
X652500D03*
X647500D03*
X642500D03*
X657500Y32500D03*
X652500D03*
X647500D03*
X642500D03*
X657500Y47500D03*
X652500D03*
X647500D03*
X642500D03*
X657500Y52500D03*
X652500D03*
X647500D03*
X642500D03*
X677500Y27500D03*
X672500D03*
X667500D03*
X662500D03*
X677500Y32500D03*
X672500D03*
X667500D03*
X662500D03*
X677500Y47500D03*
X672500D03*
X667500D03*
X662500D03*
X677500Y52500D03*
X672500D03*
X667500D03*
X662500D03*
X697500Y27500D03*
X692500D03*
X687500D03*
X682500D03*
X697500Y32500D03*
X692500D03*
X687500D03*
X682500D03*
X697500Y47500D03*
X692500D03*
X687500D03*
X682500D03*
X697500Y52500D03*
X692500D03*
X687500D03*
X682500D03*
G54D18*
X25000Y492700D03*
Y502700D03*
Y512700D03*
X53800Y30700D03*
Y40700D03*
Y50700D03*
G54D45*
X969900Y62795D03*
X974900Y72795D03*
X979900Y62795D03*
X984900Y72795D03*
X989900Y62795D03*
X994900Y72795D03*
X999900Y62795D03*
X1009900D03*
X1004900Y72795D03*
G54D27*
X124465Y54800D03*
Y76454D03*
X141000D03*
G54D36*
X492950Y52000D03*
X707050Y40000D03*
G54D46*
X969000Y106300D03*
Y108900D03*
Y111500D03*
X976000D03*
Y108900D03*
Y106300D03*
G54D28*
X141000Y54800D03*
G54D19*
X52600Y114150D03*
X76300Y263400D03*
X76400Y249400D03*
X113200Y142100D03*
X131700D03*
X142500Y228500D03*
X164100Y95100D03*
Y77100D03*
Y108100D03*
Y121100D03*
X200100Y299700D03*
X200000Y313700D03*
X222000Y15700D03*
X215000Y210000D03*
X298500Y277000D03*
X294300Y438700D03*
X309000Y418000D03*
Y431900D03*
X308900Y445800D03*
X308800Y459700D03*
X322900Y418000D03*
Y431900D03*
Y445800D03*
Y459700D03*
X418300Y363300D03*
Y375500D03*
X452300Y438400D03*
X466200Y431900D03*
Y418000D03*
Y445800D03*
X466100Y471100D03*
Y458100D03*
X478900Y432100D03*
Y418200D03*
Y446000D03*
X480100Y471100D03*
X479100Y458100D03*
X508600Y361800D03*
X494100D03*
X524100Y304100D03*
X538000Y305000D03*
X546000D03*
X560000Y314000D03*
X641088Y374000D03*
X628488D03*
X653588D03*
X715200Y374100D03*
X702600Y374000D03*
X727700D03*
X801900Y380100D03*
X827000D03*
X814500D03*
X908000Y50200D03*
X908600Y66400D03*
X918500Y380300D03*
X943600D03*
X931100D03*
X1020600D03*
X1008000D03*
X1033100D03*
X1056400Y59200D03*
X1069700Y47100D03*
X1069600Y59700D03*
X1094400Y380300D03*
X1108300Y123100D03*
X1107000Y380300D03*
X1120500Y123000D03*
Y136700D03*
X1119500Y380200D03*
X1136000Y141900D03*
X1148300Y141600D03*
X1148400Y155200D03*
X1169700Y46800D03*
X1169800Y59600D03*
X1182900Y46700D03*
G54D37*
X522102Y432991D03*
X512949Y451101D03*
Y470786D03*
Y489290D03*
X541000Y432991D03*
X559898D03*
X569051Y451101D03*
Y470786D03*
Y489290D03*
X637202Y432991D03*
X628049Y451101D03*
Y470786D03*
Y489290D03*
X656100Y432991D03*
X674998D03*
X684151Y451101D03*
Y470786D03*
Y489290D03*
X715149Y451101D03*
Y470786D03*
Y489290D03*
X724302Y432991D03*
X743200D03*
X762098D03*
X771251Y451101D03*
Y470786D03*
Y489290D03*
X812102Y432991D03*
X802949Y451101D03*
Y470786D03*
Y489290D03*
X831000Y432991D03*
X849898D03*
X859051Y451101D03*
Y470786D03*
Y489290D03*
X918049Y451101D03*
Y470786D03*
Y489290D03*
X927202Y432991D03*
X946100D03*
X964998D03*
X974151Y451101D03*
Y470786D03*
Y489290D03*
X1015002Y432991D03*
X1005849Y451101D03*
Y470786D03*
Y489290D03*
X1033900Y432991D03*
X1052798D03*
X1061951Y451101D03*
Y470786D03*
Y489290D03*
X1092749Y451101D03*
Y470786D03*
Y489290D03*
X1101902Y432991D03*
X1120800D03*
X1139698D03*
X1148851Y451101D03*
Y470786D03*
Y489290D03*
G54D29*
X156228Y187100D03*
X159772D03*
X156128Y258200D03*
X159672D03*
X156028Y329000D03*
X159572D03*
X156028Y387400D03*
X159572D03*
X192072Y187200D03*
X188528D03*
X192172Y258000D03*
X188628D03*
X192072Y328900D03*
X188528D03*
X191872Y387500D03*
X188328D03*
X420628Y117800D03*
X424172D03*
G54D38*
X512949Y441258D03*
Y480628D03*
X525449Y500313D03*
X512949Y519998D03*
Y559369D03*
X546709Y500313D03*
X535291Y579054D03*
X569051Y500313D03*
Y539683D03*
Y579054D03*
X628049Y441258D03*
Y480628D03*
X640549Y500313D03*
X628049Y519998D03*
Y559369D03*
X661809Y500313D03*
X650391Y579054D03*
X684151Y500313D03*
Y539683D03*
Y579054D03*
X715149Y441258D03*
Y480628D03*
Y519998D03*
Y559369D03*
X727649Y500313D03*
X737491Y579054D03*
X748909Y500313D03*
X771251D03*
Y539683D03*
Y579054D03*
X802949Y441258D03*
Y480628D03*
Y519998D03*
Y559369D03*
X815449Y500313D03*
X825291Y579054D03*
X836709Y500313D03*
X859051D03*
Y539683D03*
Y579054D03*
X918049Y441258D03*
Y480628D03*
Y519998D03*
Y559369D03*
X930549Y500313D03*
X940391Y579054D03*
X951809Y500313D03*
X974151D03*
Y539683D03*
Y579054D03*
X1005849Y441258D03*
Y480628D03*
X1018349Y500313D03*
X1005849Y519998D03*
Y559369D03*
X1039609Y500313D03*
X1028191Y579054D03*
X1061951Y500313D03*
Y539683D03*
Y579054D03*
X1092749Y441258D03*
Y480628D03*
Y519998D03*
Y559369D03*
X1105249Y500313D03*
X1115091Y579054D03*
X1126509Y500313D03*
X1148851D03*
Y539683D03*
Y579054D03*
G54D47*
X1058300Y25000D03*
X1048300D03*
X1068300D03*
G54D39*
X522102Y457400D03*
X559898D03*
X637202D03*
X674998D03*
X724302D03*
X762098D03*
X812102D03*
X849898D03*
X927202D03*
X964998D03*
X1015002D03*
X1052798D03*
X1101902D03*
X1139698D03*
G54D48*
X1058900Y208700D03*
X1048900D03*
X1058900Y218700D03*
X1048900D03*
X1068900Y208700D03*
Y218700D03*
X1088900Y208700D03*
X1078900D03*
X1088900Y218700D03*
X1078900D03*
X1108900Y208700D03*
X1098900D03*
X1108900Y218700D03*
X1098900D03*
X1128900Y208700D03*
X1118900D03*
X1128900Y218700D03*
X1118900D03*
X1138900Y208700D03*
G54D49*
X1077200Y76500D03*
Y96000D03*
X1145400Y36100D03*
X1178300Y76500D03*
X1178400Y96000D03*
M02*
