G04 ================== begin FILE IDENTIFICATION RECORD ==================*
G04 Layout Name:  C:/DUNE_GIB/UPENN-DUNE-GIB/allegro/gps_interface_board_ml_v101.brd*
G04 Film Name:    _11a_Paste_Bottomv101*
G04 File Format:  Gerber RS274X*
G04 File Origin:  Cadence Allegro 24.1-P001*
G04 Origin Date:  Mon Sep  1 10:04:49 2025*
G04 *
G04 Layer:  VIA CLASS/PASTEMASK_BOTTOM*
G04 Layer:  PIN/PASTEMASK_BOTTOM*
G04 Layer:  PACKAGE GEOMETRY/PASTEMASK_BOTTOM*
G04 *
G04 Offset:    (0.00 0.00)*
G04 Mirror:    No*
G04 Mode:      Positive*
G04 Rotation:  0*
G04 FullContactRelief:  No*
G04 UndefLineWidth:     5.00*
G04 ================== end FILE IDENTIFICATION RECORD ====================*
%FSLAX55Y55*MOIN*%
%IR0*IPPOS*OFA0.00000B0.00000*MIA0B0*SFA1.00000B1.00000*%
%ADD23C,.0252*%
%ADD21R,.027X.025*%
%ADD22R,.025X.027*%
%ADD14R,.04331X.05512*%
%ADD10R,.04252X.04134*%
%ADD15R,.04134X.04252*%
%ADD18R,.02362X.02165*%
%ADD17R,.02165X.02362*%
%ADD13R,.0374X.0374*%
%ADD12R,.0374X.02362*%
%ADD11R,.0374X.0374*%
%ADD16R,.05906X.05118*%
%ADD20R,.05118X.05906*%
%ADD19R,.05906X.07874*%
%LPD*%
G75*
G54D10*
X13300Y177006D03*
Y170194D03*
X16000Y494094D03*
Y500906D03*
X10000Y494094D03*
Y500906D03*
X34500Y146894D03*
Y153706D03*
X44100Y32594D03*
X38100D03*
X44100Y39406D03*
X38100D03*
X89000Y238994D03*
Y245806D03*
X89328Y545506D03*
Y538694D03*
X180428Y526494D03*
Y533306D03*
X538600Y323094D03*
Y329906D03*
X544400Y323094D03*
Y329906D03*
X1038000Y68994D03*
Y75806D03*
X1095500Y55606D03*
Y48794D03*
X1105400Y55606D03*
Y48794D03*
G54D20*
X372263Y264200D03*
X380137D03*
X500337Y81300D03*
X492463D03*
X497763Y299700D03*
X505637D03*
X518437Y406900D03*
X510563D03*
X566163Y407600D03*
X574037D03*
X633537Y406900D03*
X625663D03*
X681263Y407600D03*
X689137D03*
X712763Y406900D03*
X720637D03*
X768363Y407600D03*
X776237D03*
X808437Y406900D03*
X800563D03*
X856163Y407600D03*
X864037D03*
X923437Y406900D03*
X915563D03*
X971163Y407600D03*
X979037D03*
X1011237Y406900D03*
X1003363D03*
X1058963Y407600D03*
X1066837D03*
X1090263Y406500D03*
X1098137D03*
X1145863Y407200D03*
X1153737D03*
G54D11*
X22847Y130500D03*
X28753D03*
X64753Y288900D03*
X58847D03*
X58747Y295900D03*
X64653D03*
X93047Y283200D03*
X98953D03*
X222953Y260100D03*
X217047D03*
X221953Y391800D03*
X216047D03*
X376847Y398900D03*
X382753D03*
X414147Y264000D03*
X396447Y273100D03*
X402353D03*
X396447Y264000D03*
X402353D03*
X420053D03*
X421553Y441000D03*
X415647D03*
X421553Y435600D03*
X415647D03*
X438047Y426800D03*
X443953D03*
X438047Y433700D03*
X443953D03*
X438047Y440600D03*
X443953D03*
X467053Y483100D03*
X461147D03*
X488347Y424900D03*
Y432100D03*
Y439200D03*
X480147Y483100D03*
X486053D03*
X494253Y424900D03*
Y432100D03*
Y439200D03*
X925047Y80900D03*
X930953D03*
X943353D03*
X937447D03*
G54D12*
X19572Y116900D03*
X28628Y113160D03*
Y120640D03*
X93172Y299740D03*
Y292260D03*
X102228Y296000D03*
X216972Y276240D03*
Y268760D03*
X225228Y404400D03*
X216172Y408140D03*
Y400660D03*
X226028Y272500D03*
X373672Y387100D03*
X382728Y383360D03*
Y390840D03*
X396672Y248500D03*
X405728Y244760D03*
Y252240D03*
G54D21*
X446900Y290764D03*
Y286836D03*
X444900Y338436D03*
X450900D03*
X444900Y342364D03*
X450900D03*
X466600Y290764D03*
Y286836D03*
X460700Y290764D03*
Y286836D03*
X466300Y338436D03*
Y342364D03*
X937400Y70736D03*
X930900D03*
X937400Y74664D03*
X930900D03*
X943600Y70836D03*
Y74764D03*
G54D13*
X20400Y176153D03*
Y170247D03*
X20300Y184547D03*
Y190453D03*
X289400Y473747D03*
Y479653D03*
X295400Y473747D03*
Y479653D03*
X301300Y473747D03*
Y479653D03*
X307400Y473747D03*
Y479653D03*
X337800Y473747D03*
Y479653D03*
X332000Y473747D03*
Y479653D03*
X349300Y473747D03*
Y479653D03*
X343500Y473747D03*
Y479653D03*
X810300Y27247D03*
Y33153D03*
X816800Y27247D03*
Y33153D03*
X863700Y26947D03*
Y32853D03*
X870700Y26947D03*
Y32853D03*
G54D22*
X475636Y299800D03*
X479564D03*
X475636Y313600D03*
X479564D03*
G54D14*
X92960Y309100D03*
X100440D03*
X223940Y287200D03*
X216460D03*
X338640Y66600D03*
X331160D03*
X357240Y66300D03*
X349760D03*
X398860Y390000D03*
X406340D03*
G54D23*
X507500Y27500D03*
X502500D03*
X507500Y32500D03*
X502500D03*
X507500Y47500D03*
X502500D03*
X507500Y52500D03*
X502500D03*
X527500Y27500D03*
X522500D03*
X517500D03*
X512500D03*
X527500Y32500D03*
X522500D03*
X517500D03*
X512500D03*
X527500Y47500D03*
X522500D03*
X517500D03*
X512500D03*
X527500Y52500D03*
X522500D03*
X517500D03*
X512500D03*
X542500Y27500D03*
X537500D03*
X532500D03*
X542500Y32500D03*
X537500D03*
X532500D03*
X542500Y47500D03*
X537500D03*
X532500D03*
X542500Y52500D03*
X537500D03*
X532500D03*
X562500Y27500D03*
X557500D03*
X552500D03*
X547500D03*
X562500Y32500D03*
X557500D03*
X552500D03*
X547500D03*
X562500Y47500D03*
X557500D03*
X552500D03*
X547500D03*
X562500Y52500D03*
X557500D03*
X552500D03*
X547500D03*
X582500Y27500D03*
X577500D03*
X572500D03*
X567500D03*
X582500Y32500D03*
X577500D03*
X572500D03*
X567500D03*
X582500Y47500D03*
X577500D03*
X572500D03*
X567500D03*
X582500Y52500D03*
X577500D03*
X572500D03*
X567500D03*
X602500Y27500D03*
X597500D03*
X592500D03*
X587500D03*
X602500Y32500D03*
X597500D03*
X592500D03*
X587500D03*
X602500Y47500D03*
X597500D03*
X592500D03*
X587500D03*
X602500Y52500D03*
X597500D03*
X592500D03*
X587500D03*
X622500Y27500D03*
X617500D03*
X612500D03*
X607500D03*
X622500Y32500D03*
X617500D03*
X612500D03*
X607500D03*
X622500Y47500D03*
X617500D03*
X612500D03*
X607500D03*
X622500Y52500D03*
X617500D03*
X612500D03*
X607500D03*
X637500Y27500D03*
X632500D03*
X627500D03*
X637500Y32500D03*
X632500D03*
X627500D03*
X637500Y47500D03*
X632500D03*
X627500D03*
X637500Y52500D03*
X632500D03*
X627500D03*
X657500Y27500D03*
X652500D03*
X647500D03*
X642500D03*
X657500Y32500D03*
X652500D03*
X647500D03*
X642500D03*
X657500Y47500D03*
X652500D03*
X647500D03*
X642500D03*
X657500Y52500D03*
X652500D03*
X647500D03*
X642500D03*
X677500Y27500D03*
X672500D03*
X667500D03*
X662500D03*
X677500Y32500D03*
X672500D03*
X667500D03*
X662500D03*
X677500Y47500D03*
X672500D03*
X667500D03*
X662500D03*
X677500Y52500D03*
X672500D03*
X667500D03*
X662500D03*
X697500Y27500D03*
X692500D03*
X687500D03*
X682500D03*
X697500Y32500D03*
X692500D03*
X687500D03*
X682500D03*
X697500Y47500D03*
X692500D03*
X687500D03*
X682500D03*
X697500Y52500D03*
X692500D03*
X687500D03*
X682500D03*
G54D15*
X79794Y527300D03*
X86606D03*
X97594Y255300D03*
X104406D03*
X244466Y516900D03*
X244566Y528500D03*
X255606Y305600D03*
X248794D03*
X251278Y516900D03*
X251378Y528500D03*
X373294Y255900D03*
X373394Y272700D03*
X380106Y255900D03*
X380206Y272700D03*
X504606Y291600D03*
X497794D03*
X497894Y307900D03*
X504706D03*
X517706Y396200D03*
X510894D03*
X545194Y460500D03*
X537206Y460400D03*
X530394D03*
X552006Y460500D03*
X567194Y396700D03*
X574006D03*
X632806Y396200D03*
X625994D03*
X652306Y460400D03*
X645494D03*
X660294Y460500D03*
X667106D03*
X682294Y396700D03*
X689106D03*
X713094Y396200D03*
X719906D03*
X732694Y460400D03*
X739506D03*
X747094D03*
X753906D03*
X769394Y396700D03*
X776206D03*
X807706Y396200D03*
X800894D03*
X827606Y460400D03*
X820794D03*
X834894Y460500D03*
X841706D03*
X857194Y396700D03*
X864006D03*
X922706Y396200D03*
X915894D03*
X942606Y460400D03*
X935794D03*
X949894Y460500D03*
X956706D03*
X972194Y396700D03*
X979006D03*
X1010506Y396200D03*
X1003694D03*
X1037694Y460500D03*
X1030406Y460400D03*
X1023594D03*
X1044506Y460500D03*
X1059994Y396700D03*
X1066806D03*
X1090594Y395800D03*
X1097406D03*
X1110494Y460400D03*
X1124594Y460500D03*
X1131406D03*
X1117306Y460400D03*
X1146894Y396300D03*
X1153706D03*
G54D16*
X79828Y537563D03*
Y545437D03*
G54D17*
X156228Y187100D03*
X159772D03*
X156128Y258200D03*
X159672D03*
X156028Y329000D03*
X159572D03*
X156028Y387400D03*
X159572D03*
X192072Y187200D03*
X188528D03*
X192172Y258000D03*
X188628D03*
X192072Y328900D03*
X188528D03*
X191872Y387500D03*
X188328D03*
X420628Y117800D03*
X424172D03*
G54D18*
X168300Y202972D03*
Y199428D03*
Y273772D03*
Y270228D03*
Y342672D03*
Y339128D03*
X168100Y403272D03*
Y399728D03*
X180300Y202972D03*
Y199428D03*
X176300Y202972D03*
Y199428D03*
X172300Y202972D03*
Y199428D03*
X180300Y273772D03*
Y270228D03*
X176300Y273772D03*
Y270228D03*
X172300Y273772D03*
Y270228D03*
X180100Y342672D03*
Y339128D03*
X176200Y342672D03*
Y339128D03*
X172300Y342672D03*
Y339128D03*
X180100Y403272D03*
Y399728D03*
X176100Y403272D03*
Y399728D03*
X172100Y403272D03*
Y399728D03*
X539100Y484328D03*
Y487872D03*
X535500Y484328D03*
Y487872D03*
X531800Y484328D03*
Y487872D03*
X551200Y484328D03*
Y487872D03*
X646900Y484328D03*
Y487872D03*
X654200Y484328D03*
Y487872D03*
X650600Y484328D03*
Y487872D03*
X666300Y484328D03*
Y487872D03*
X734000Y484328D03*
Y487872D03*
X753400Y484328D03*
Y487872D03*
X741300Y484328D03*
Y487872D03*
X737700Y484328D03*
Y487872D03*
X821800Y484328D03*
Y487872D03*
X829100Y484328D03*
Y487872D03*
X825500Y484328D03*
Y487872D03*
X841200Y484328D03*
Y487872D03*
X936900Y484328D03*
Y487872D03*
X940600Y484328D03*
Y487872D03*
X956300Y484328D03*
Y487872D03*
X944200Y484328D03*
Y487872D03*
X1029600Y72572D03*
Y69028D03*
X1024700Y484328D03*
Y487872D03*
X1032000Y484328D03*
Y487872D03*
X1028400Y484328D03*
Y487872D03*
X1044100Y484328D03*
Y487872D03*
X1067600Y73028D03*
Y76572D03*
Y99472D03*
Y95928D03*
X1111600Y484328D03*
Y487872D03*
X1131000Y484325D03*
Y487869D03*
X1118900Y484328D03*
Y487872D03*
X1115300Y484328D03*
Y487872D03*
X1186700Y72928D03*
Y76472D03*
X1186600Y99472D03*
Y95928D03*
G54D19*
X296794Y36500D03*
Y50000D03*
Y66300D03*
X308606Y36500D03*
Y50000D03*
Y66300D03*
X464494Y68400D03*
Y81300D03*
X476306Y68400D03*
Y81300D03*
M02*
