G04 ================== begin FILE IDENTIFICATION RECORD ==================*
G04 Layout Name:  C:/SPB_DATA/GPS_INTERFACE_BOARD/allegro/GPS_INTERFACE_BOARDv35.brd*
G04 Film Name:    BOTTOM*
G04 File Format:  Gerber RS274X*
G04 File Origin:  Cadence Allegro 17.2-S064*
G04 Origin Date:  Mon Jul 06 13:38:39 2020*
G04 *
G04 Layer:  ETCH/BOTTOM*
G04 Layer:  PIN/BOTTOM*
G04 Layer:  VIA CLASS/BOTTOM*
G04 *
G04 Offset:    (0.00 0.00)*
G04 Mirror:    No*
G04 Mode:      Positive*
G04 Rotation:  0*
G04 FullContactRelief:  No*
G04 UndefLineWidth:     0.00*
G04 ================== end FILE IDENTIFICATION RECORD ====================*
%FSLAX25Y25*MOIN*%
%IR0*IPPOS*OFA0.00000B0.00000*MIA0B0*SFA1.00000B1.00000*%
%ADD36C,.02*%
%ADD14C,.021*%
%ADD52C,.07*%
%ADD40C,.02205*%
%ADD37C,.0252*%
%ADD43C,.06103*%
%ADD51R,.07X.07*%
%ADD26C,.05504*%
%ADD42C,.0574*%
%ADD38C,.0394*%
%ADD44C,.05346*%
%ADD45C,.09921*%
%ADD27R,.05504X.05504*%
%ADD20C,.06496*%
%ADD48C,.05858*%
%ADD46C,.07559*%
%ADD29C,.09764*%
%ADD23O,.05937X.11874*%
%ADD11O,.11874X.05937*%
%ADD49R,.05858X.05858*%
%ADD41R,.07874X.07874*%
%ADD28R,.09764X.09764*%
%ADD19O,.1X.14*%
%ADD50R,.024X.02*%
%ADD39R,.028X.04*%
%ADD47C,.13111*%
%ADD35R,.027X.025*%
%ADD21R,.025X.027*%
%ADD10C,.157*%
%ADD22R,.05512X.04331*%
%ADD17R,.04331X.05512*%
%ADD15R,.04252X.04134*%
%ADD25C,.1187*%
%ADD24R,.04134X.04252*%
%ADD31R,.02362X.02165*%
%ADD30R,.02165X.02362*%
%ADD16R,.0374X.0374*%
%ADD12R,.0374X.02362*%
%ADD13R,.0374X.0374*%
%ADD32R,.05906X.05118*%
%ADD33R,.05118X.05906*%
%ADD18R,.07874X.05906*%
%ADD34R,.05906X.07874*%
%ADD53C,.012*%
%ADD54C,.005*%
%ADD55C,.008*%
%ADD56C,.0065*%
%ADD57C,.00669*%
G75*
%LPD*%
G75*
G54D10*
X20000Y20000D03*
Y580000D03*
X310000Y20000D03*
Y580000D03*
X462600Y40000D03*
X600000Y580000D03*
X739800Y40000D03*
X890000Y20000D03*
Y580000D03*
X1180000Y20000D03*
Y580000D03*
G54D11*
X25000Y62600D03*
Y72600D03*
Y82600D03*
Y492700D03*
Y502700D03*
Y512700D03*
X70100Y29369D03*
Y52991D03*
G54D20*
X76300Y263400D03*
X76400Y249400D03*
X113200Y142100D03*
X131700D03*
X143000Y388000D03*
Y400000D03*
X155000Y388000D03*
Y400000D03*
X179300Y95000D03*
Y119700D03*
X197100Y119500D03*
X200200Y178800D03*
X200100Y192800D03*
X200000Y263700D03*
X200100Y249700D03*
X222000Y15700D03*
X222200Y29300D03*
X369300Y438700D03*
X384000Y418000D03*
Y431900D03*
X383900Y445800D03*
X383800Y459700D03*
X397900Y418000D03*
Y431900D03*
Y445800D03*
Y459700D03*
X418300Y363300D03*
Y375500D03*
X508700Y348100D03*
X494200D03*
X508600Y361800D03*
X494100D03*
X508100Y438900D03*
X522000Y418500D03*
Y432400D03*
Y446300D03*
Y460200D03*
X534700Y418700D03*
Y432600D03*
Y446500D03*
Y460400D03*
X699100Y360900D03*
Y386000D03*
Y373500D03*
X786600Y360900D03*
Y386000D03*
X786500Y373500D03*
X881300Y360900D03*
Y386000D03*
Y373500D03*
X908000Y50200D03*
X908600Y66400D03*
X989000Y360900D03*
Y386000D03*
Y373500D03*
X1056400Y59200D03*
X1069700Y47100D03*
X1069600Y59700D03*
X1077100Y360900D03*
Y386000D03*
Y373500D03*
X1108300Y123100D03*
X1120500Y123000D03*
Y136700D03*
X1136000Y141900D03*
X1148300Y141600D03*
X1148400Y155200D03*
X1169700Y46800D03*
X1169800Y59600D03*
X1182900Y46700D03*
X1171200Y360900D03*
X1171300Y386000D03*
X1171200Y373500D03*
G54D12*
X19572Y116900D03*
X28628Y113160D03*
Y120640D03*
X102228Y296000D03*
X93172Y299740D03*
Y292260D03*
X97972Y509660D03*
Y517140D03*
X107028Y513400D03*
X226028Y222500D03*
X216972Y218760D03*
Y226240D03*
X225228Y354400D03*
X216172Y358140D03*
Y350660D03*
X373672Y387100D03*
X382728Y383360D03*
Y390840D03*
X405728Y244760D03*
X396672Y248500D03*
X405728Y252240D03*
X1055472Y126000D03*
X1064528Y122260D03*
Y129740D03*
X1155528Y122060D03*
X1146472Y125800D03*
X1155528Y129540D03*
G54D30*
X156128Y208200D03*
X159672D03*
X156028Y279000D03*
X159572D03*
X156028Y337400D03*
X159572D03*
X192172Y208000D03*
X188628D03*
X192072Y278900D03*
X188528D03*
X191872Y337500D03*
X188328D03*
X420628Y117800D03*
X424172D03*
X425028Y323300D03*
Y327400D03*
X420328Y455700D03*
X423872D03*
X420328Y450300D03*
X423872D03*
X441872Y119800D03*
X438328D03*
X428572Y323300D03*
Y327400D03*
X479072Y440600D03*
X475528D03*
X476272Y508800D03*
X472728D03*
X647028Y306700D03*
X650572D03*
X632828Y354500D03*
X636372D03*
X668972Y306400D03*
X665428D03*
X719928Y354500D03*
X723472D03*
X734128Y306700D03*
X737672D03*
X752528Y306400D03*
X756072D03*
X807728Y354500D03*
X811272D03*
X821928Y306700D03*
X825472D03*
X843872Y306400D03*
X840328D03*
X922728Y354500D03*
X926272D03*
X936928Y306700D03*
X940472D03*
X955328Y306400D03*
X958872D03*
X1010528Y354500D03*
X1014072D03*
X1024728Y306700D03*
X1028272D03*
X1046672Y306400D03*
X1043128D03*
X1097428Y354100D03*
X1111628Y306300D03*
X1115172D03*
X1100972Y354100D03*
X1133572Y306000D03*
X1130028D03*
G54D21*
X80464Y361700D03*
X76536D03*
X420636Y39900D03*
X424564D03*
X409736Y117400D03*
X413664D03*
Y130800D03*
X409736D03*
X428164Y301000D03*
X424236D03*
X428164Y305600D03*
X424236D03*
X449236Y119400D03*
X453164D03*
Y131200D03*
X449236D03*
X468336Y455700D03*
X456736Y540100D03*
X460664D03*
X475636Y299800D03*
X479564D03*
X475736Y325300D03*
X479664D03*
X475636Y313600D03*
X479564D03*
X472264Y455700D03*
X484836Y534000D03*
X488764D03*
G54D13*
X22847Y130500D03*
X28753D03*
X58847Y288900D03*
X58747Y295900D03*
X64753Y288900D03*
X64653Y295900D03*
X98953Y283200D03*
X93047D03*
X222953Y210100D03*
X217047D03*
X221953Y341800D03*
X216047D03*
X376847Y398900D03*
X382753D03*
X396447Y264000D03*
X402353D03*
X396447Y273100D03*
X402353D03*
X414147Y264000D03*
X420053D03*
X482847Y541700D03*
X488753D03*
X496553Y441000D03*
X490647D03*
X496553Y435600D03*
X490647D03*
X521653Y470500D03*
X515747D03*
X534647Y470600D03*
X540553D03*
X623547Y424800D03*
X629453D03*
X644647Y300500D03*
X650553D03*
X659547Y300400D03*
X665453D03*
X688553Y424800D03*
X682647D03*
X710647D03*
X731747Y300500D03*
X716553Y424800D03*
X737653Y300500D03*
X746647Y300400D03*
X752553D03*
X769847Y424800D03*
X775753D03*
X798447D03*
X804353D03*
X819547Y300500D03*
X825453D03*
X834447Y300400D03*
X840353D03*
X863453Y424800D03*
X857547D03*
X913547D03*
X925047Y80900D03*
X930953D03*
X934547Y300500D03*
X919453Y424800D03*
X943353Y80900D03*
X937447D03*
X940453Y300500D03*
X949447Y300400D03*
X955353D03*
X972747Y424800D03*
X978653D03*
X1001347D03*
X1007253D03*
X1022347Y300500D03*
X1028253D03*
X1037247Y300400D03*
X1043153D03*
X1066453Y424800D03*
X1060547D03*
X1088247D03*
X1094153D03*
X1109247Y300100D03*
X1115153D03*
X1124147Y300000D03*
X1130053D03*
X1153353Y424800D03*
X1147447D03*
G54D31*
X180300Y223772D03*
Y220228D03*
X176300Y223772D03*
Y220228D03*
X172300Y223772D03*
Y220228D03*
X168300Y223772D03*
Y220228D03*
X180100Y292672D03*
Y289128D03*
X168300Y292672D03*
Y289128D03*
X176200Y292672D03*
Y289128D03*
X172300Y292672D03*
Y289128D03*
X180100Y353272D03*
Y349728D03*
X176100Y353272D03*
Y349728D03*
X172100Y353272D03*
Y349728D03*
X168100Y353272D03*
Y349728D03*
X646900Y484328D03*
Y487872D03*
X650600Y484328D03*
Y487872D03*
X666300Y484328D03*
Y487872D03*
X654200Y484328D03*
Y487872D03*
X753400Y484328D03*
Y487872D03*
X734100Y484328D03*
Y487872D03*
X741300Y484328D03*
Y487872D03*
X737700Y484328D03*
Y487872D03*
X821500Y484328D03*
Y487872D03*
X828800Y484328D03*
Y487872D03*
X825200Y484328D03*
Y487872D03*
X841200Y484328D03*
Y487872D03*
X956200Y484328D03*
Y487872D03*
X936500Y484328D03*
Y487872D03*
X943800Y484328D03*
Y487872D03*
X940200Y484328D03*
Y487872D03*
X1029600Y72572D03*
Y69028D03*
X1024300Y484328D03*
Y487872D03*
X1031600Y484328D03*
Y487872D03*
X1028000Y484328D03*
Y487872D03*
X1044000Y484328D03*
Y487872D03*
X1067600Y73028D03*
Y76572D03*
Y99472D03*
Y95928D03*
X1111200Y484328D03*
Y487872D03*
X1118500Y484328D03*
Y487872D03*
X1114900Y484328D03*
Y487872D03*
X1130900Y484328D03*
Y487872D03*
X1186700Y72928D03*
Y76472D03*
X1186600Y99472D03*
Y95928D03*
G54D22*
X84200Y509260D03*
Y516740D03*
G54D40*
X629300Y316094D03*
X628000Y354500D03*
X625900Y366300D03*
X626100Y357600D03*
X625800Y369500D03*
X626000Y378800D03*
X625900Y372600D03*
X639400Y300500D03*
X643700Y332600D03*
X646500D03*
X643700Y329800D03*
X646600D03*
Y332500D03*
Y329700D03*
X647500Y354100D03*
X642800Y354000D03*
X643800Y362000D03*
X643500Y376800D03*
X632806Y390506D03*
X654700Y300400D03*
X667800Y315500D03*
X654500Y327300D03*
X664200Y338900D03*
X656118Y344803D03*
X656000Y342100D03*
X657400Y347400D03*
X655200Y365000D03*
X658100D03*
X661000Y364900D03*
X661100Y367800D03*
X658200Y367900D03*
X655300D03*
X662000Y381800D03*
X656700Y381900D03*
X672389Y376010D03*
X655300Y370700D03*
X658100D03*
X661000Y370600D03*
X663200Y400800D03*
X656900Y400900D03*
X675100Y343094D03*
X685906Y352500D03*
X680664Y352364D03*
X685906Y369400D03*
X673500Y372621D03*
X676500Y370653D03*
X683500Y391000D03*
X713000Y366300D03*
X713100Y378800D03*
X713000Y372600D03*
X726500Y300500D03*
X714400Y316300D03*
X730800Y332600D03*
X733600D03*
X730800Y329800D03*
X715100Y354500D03*
X729800Y354300D03*
X713700Y357100D03*
X730900Y362000D03*
X730500Y376800D03*
X719906Y390506D03*
X741800Y300400D03*
X741600Y327300D03*
X751300Y338900D03*
X743218Y344803D03*
X743100Y342100D03*
X744500Y347400D03*
X733700Y329800D03*
X734600Y354100D03*
X742200Y364700D03*
X745100D03*
X748000Y364600D03*
X748100Y367500D03*
X745200Y367600D03*
X742300D03*
X749100Y381800D03*
X743800Y381900D03*
X742300Y370400D03*
X745100D03*
X748000Y370300D03*
X750300Y400800D03*
X744000Y400900D03*
X754900Y315500D03*
X760700Y344400D03*
X773006Y352300D03*
X767764Y352364D03*
X773006Y369400D03*
X759489Y376010D03*
X759921Y372621D03*
X762800Y370653D03*
X770800Y391100D03*
X814300Y300500D03*
X802200Y316300D03*
X802900Y354500D03*
X800800Y366300D03*
X799700Y355800D03*
X800700Y369500D03*
X800900Y378800D03*
X800800Y372600D03*
X807706Y390506D03*
X813969Y466700D03*
X829600Y300400D03*
X829400Y327300D03*
X831018Y344803D03*
X830900Y342100D03*
X832300Y347400D03*
X818600Y332600D03*
X821400D03*
X818600Y329800D03*
X821500D03*
X822400Y354100D03*
X817800D03*
X818700Y362000D03*
X830100Y364700D03*
X833000D03*
X833100Y367600D03*
X830200D03*
X818800Y378100D03*
X831600Y381900D03*
X830200Y370400D03*
X833000D03*
X831800Y400900D03*
X818200Y447300D03*
X820794Y465706D03*
X817419Y467000D03*
X842700Y315500D03*
X839100Y338900D03*
X848500Y344400D03*
X835900Y364600D03*
X836000Y367500D03*
X836900Y381800D03*
X847289Y376010D03*
X847721Y372621D03*
X849853Y370653D03*
X835900Y370300D03*
X838100Y400800D03*
X848000Y448700D03*
X847200Y462900D03*
X846000Y466800D03*
X860806Y352800D03*
X855564Y352364D03*
X860806Y369500D03*
X860600Y389200D03*
X915800Y366300D03*
X915700Y357400D03*
Y369500D03*
X915900Y378800D03*
X915800Y372600D03*
X929300Y300500D03*
X917200Y316300D03*
X933600Y332600D03*
X936400D03*
X933600Y329800D03*
X936500D03*
X917900Y354500D03*
X932800Y354000D03*
X933700Y362000D03*
X933600Y376100D03*
X922706Y390506D03*
X933200Y447300D03*
X935794Y465706D03*
X932419Y467000D03*
X928969Y466700D03*
X944600Y300400D03*
X944400Y327300D03*
X954100Y338900D03*
X946018Y344803D03*
X945900Y342100D03*
X947300Y347400D03*
X937400Y354100D03*
X945200Y364700D03*
X948100D03*
X951000Y364600D03*
X951100Y367500D03*
X948200Y367600D03*
X945300D03*
X951900Y381800D03*
X946600Y381900D03*
X945300Y370400D03*
X948100D03*
X951000Y370300D03*
X953100Y400800D03*
X946800Y400900D03*
X957700Y315500D03*
X963500Y344400D03*
X975806Y352300D03*
X970564Y352364D03*
X975806Y369300D03*
X962289Y376010D03*
X962721Y372621D03*
X965500Y370653D03*
X973600Y390800D03*
X963000Y448700D03*
X962200Y462900D03*
X961000Y466800D03*
X1017100Y300500D03*
X1005000Y316300D03*
X1005700Y354500D03*
X1003600Y366300D03*
X1003900Y357100D03*
X1003700Y378800D03*
X1003600Y372600D03*
X1010506Y390506D03*
X1016769Y466700D03*
X1032400Y300400D03*
X1032200Y327300D03*
X1033818Y344803D03*
X1033700Y342100D03*
X1035100Y347400D03*
X1021400Y332600D03*
X1024200D03*
X1021400Y329800D03*
X1024300D03*
X1025200Y354100D03*
X1020600Y354000D03*
X1021500Y362000D03*
X1032900Y364800D03*
X1035800D03*
X1035900Y367700D03*
X1033000D03*
X1021700Y378500D03*
X1034400Y381900D03*
X1033000Y370500D03*
X1035800D03*
X1034600Y400900D03*
X1021000Y447300D03*
X1023594Y465706D03*
X1020219Y467000D03*
X1045500Y315500D03*
X1041900Y338900D03*
X1051300Y344400D03*
X1058364Y352364D03*
X1038700Y364700D03*
X1038800Y367600D03*
X1039700Y381800D03*
X1050089Y376010D03*
X1050521Y372621D03*
X1053700Y370653D03*
X1038700Y370400D03*
X1040900Y401300D03*
X1050800Y448700D03*
X1050000Y462900D03*
X1048800Y466800D03*
X1063606Y352600D03*
Y369300D03*
X1059994Y390000D03*
X1092200Y315500D03*
X1092600Y354100D03*
X1090500Y365900D03*
X1089700Y356500D03*
X1090400Y369100D03*
X1090600Y378400D03*
X1090500Y372200D03*
X1104000Y300100D03*
X1119300Y300000D03*
X1119100Y326900D03*
X1108500Y332600D03*
X1111300D03*
X1108500Y329800D03*
X1111400D03*
X1108400Y361600D03*
X1107300Y353700D03*
X1112100D03*
X1108000Y377300D03*
X1107900Y447300D03*
X1110494Y465706D03*
X1103669Y466700D03*
X1107119Y467000D03*
X1132400Y315100D03*
X1122000Y347000D03*
X1128800Y338500D03*
X1120718Y344403D03*
X1138200Y344000D03*
X1120600Y341700D03*
X1120000Y364700D03*
X1122900D03*
X1125800Y364600D03*
X1125900Y367500D03*
X1123000Y367600D03*
X1120100D03*
Y370400D03*
X1122900D03*
X1125800Y370300D03*
X1126600Y381400D03*
X1138100Y372221D03*
X1136989Y375610D03*
X1121300Y381500D03*
X1121500Y400500D03*
X1127800Y400400D03*
X1137700Y448700D03*
X1136900Y462900D03*
X1136300Y466200D03*
X1150506Y351900D03*
X1145264Y351964D03*
X1140900Y370253D03*
X1150506Y369000D03*
X1149700Y391200D03*
G54D32*
X195700Y536563D03*
Y544437D03*
X485700Y506063D03*
Y513937D03*
G54D50*
X969000Y106300D03*
Y108900D03*
Y111500D03*
X976000D03*
Y108900D03*
Y106300D03*
G54D41*
X628049Y441258D03*
Y480628D03*
Y519998D03*
Y559369D03*
X640549Y500313D03*
X650391Y579054D03*
X661809Y500313D03*
X684151D03*
Y539683D03*
Y579054D03*
X715149Y441258D03*
Y480628D03*
Y519998D03*
Y559369D03*
X727649Y500313D03*
X748909D03*
X737491Y579054D03*
X771251Y500313D03*
Y539683D03*
Y579054D03*
X802949Y441258D03*
Y480628D03*
X815449Y500313D03*
X802949Y519998D03*
Y559369D03*
X836709Y500313D03*
X825291Y579054D03*
X859051Y500313D03*
Y539683D03*
Y579054D03*
X918049Y441258D03*
Y480628D03*
Y519998D03*
Y559369D03*
X930549Y500313D03*
X951809D03*
X940391Y579054D03*
X974151Y500313D03*
Y539683D03*
Y579054D03*
X1005849Y441258D03*
Y480628D03*
X1018349Y500313D03*
X1005849Y519998D03*
Y559369D03*
X1039609Y500313D03*
X1028191Y579054D03*
X1061951Y500313D03*
Y539683D03*
Y579054D03*
X1092749Y441458D03*
Y480828D03*
Y520198D03*
Y559569D03*
X1105249Y500513D03*
X1115091Y579254D03*
X1126509Y500513D03*
X1148851D03*
Y539883D03*
Y579254D03*
G54D23*
X88604Y41180D03*
X1058300Y25000D03*
X1048300D03*
X1068300D03*
G54D14*
X13090Y142081D03*
X16692Y142095D03*
X20391Y142007D03*
X14200Y134700D03*
X14800Y161600D03*
X19100D03*
X19000Y156400D03*
X14600Y156300D03*
Y150900D03*
X19100D03*
X14400Y203000D03*
X18800Y203100D03*
X14400Y197600D03*
X18900D03*
X13647Y190253D03*
X21291Y218107D03*
X17592Y218195D03*
X13990Y218181D03*
X14600Y208300D03*
X18900D03*
X20200Y260100D03*
Y265500D03*
X20400Y270800D03*
X20990Y289081D03*
X16300Y437800D03*
Y434400D03*
Y459700D03*
Y456300D03*
X40960Y120660D03*
X32090Y142181D03*
X35692Y142195D03*
X39391Y142107D03*
X35800Y130100D03*
X23600Y161600D03*
X23800Y156600D03*
Y150900D03*
X39500Y146894D03*
X41200Y156400D03*
Y152200D03*
Y160500D03*
X34500Y159700D03*
X25400Y167100D03*
X39727Y182008D03*
Y176792D03*
X25700Y176100D03*
X26692Y181491D03*
X23600Y203300D03*
Y197600D03*
X42000Y199900D03*
Y203700D03*
X40291Y218207D03*
X36592Y218295D03*
X32990Y218281D03*
X23400Y208300D03*
X41900Y207300D03*
X33991Y238207D03*
X30292Y238295D03*
X26690Y238281D03*
X29400Y260100D03*
X24700D03*
X29400Y265800D03*
X24600Y265600D03*
X29200Y270800D03*
X24700D03*
X24592Y289095D03*
X28291Y289007D03*
X36200Y437700D03*
Y434300D03*
X36100Y459800D03*
Y456400D03*
X48450Y122250D03*
X51190Y142181D03*
X54792Y142195D03*
X58491Y142107D03*
X44800Y165100D03*
X51873Y182008D03*
Y176792D03*
X45800Y182008D03*
Y176792D03*
X44900Y192800D03*
X47300Y203600D03*
X59391Y218207D03*
X55692Y218295D03*
X52090Y218281D03*
X47200Y207100D03*
X52991Y238307D03*
X49292Y238395D03*
X45690Y238381D03*
X48100Y274700D03*
Y272200D03*
Y277300D03*
X52700Y272200D03*
X52800Y274800D03*
Y277400D03*
X61500Y270500D03*
X52800Y295900D03*
X53700Y341000D03*
X60850Y334800D03*
X63600Y431800D03*
X60149D03*
X56250D03*
X43900Y505100D03*
X44000Y525500D03*
X81400Y113100D03*
Y118500D03*
X81600Y123800D03*
Y143700D03*
X72400Y138000D03*
X76900D03*
X81600D03*
X72400Y143400D03*
X76800Y143500D03*
X72600Y148700D03*
X76900D03*
X81400D03*
X71900Y215600D03*
X81100Y210200D03*
Y215900D03*
X76300Y215700D03*
X72100Y220900D03*
X76400D03*
X80900D03*
X71900Y210200D03*
X76400D03*
X82900Y233500D03*
X72091Y238307D03*
X68392Y238395D03*
X64790Y238381D03*
X72206Y276906D03*
X83000Y283200D03*
X71090Y289081D03*
X74692Y289095D03*
X78391Y289007D03*
X73250Y307550D03*
X71200Y361700D03*
X63900Y505300D03*
X64000Y525400D03*
X99600Y113200D03*
X95100D03*
X99500Y118700D03*
X95100Y118600D03*
X99600Y123900D03*
X95300D03*
X104300Y113200D03*
Y118900D03*
X104100Y123900D03*
X90600Y113100D03*
X85900D03*
X90600Y118800D03*
X85800Y118600D03*
X90400Y123800D03*
X85900D03*
X94300Y158000D03*
Y154700D03*
Y151300D03*
X88500Y167100D03*
X98800Y246100D03*
X102300D03*
X98700Y242800D03*
X102200D03*
X101950Y234150D03*
X97100Y234200D03*
X89000Y233300D03*
X92700Y262500D03*
X97200D03*
X101900D03*
X88400D03*
X91000Y255300D03*
X89000Y251400D03*
X92900Y273200D03*
X97200D03*
X101700D03*
X92700Y267900D03*
X97100Y268000D03*
X101900Y268200D03*
X88400Y268000D03*
X86440Y299740D03*
X97953Y346847D03*
X88400Y358400D03*
X86000Y438000D03*
Y434600D03*
Y459700D03*
Y456300D03*
X84200Y504100D03*
X106200Y164400D03*
Y185400D03*
Y168600D03*
Y172900D03*
Y181400D03*
Y177200D03*
Y193500D03*
Y189400D03*
X112100Y245000D03*
X122400Y239000D03*
X114500Y242400D03*
X119100Y238888D03*
X110400Y255300D03*
X106100Y309100D03*
X121800Y326500D03*
X119100D03*
X117300Y330500D03*
X114500D03*
X109200Y353600D03*
X106700Y438000D03*
Y434600D03*
Y459700D03*
Y456300D03*
X121547Y503053D03*
X112700Y513400D03*
X141800Y113300D03*
X137300D03*
X141700Y118800D03*
X137300Y118700D03*
X141800Y124000D03*
X137500D03*
X144000Y189600D03*
Y195000D03*
X144200Y200300D03*
X143800Y260200D03*
Y265600D03*
X144000Y270900D03*
X143800Y318900D03*
Y324300D03*
X127500Y322000D03*
X124700D03*
X144000Y329600D03*
X144690Y347881D03*
X133547Y423753D03*
X142900Y443800D03*
X135210Y443700D03*
X138790D03*
X129200Y490500D03*
X139700Y530700D03*
X132328Y539700D03*
X146500Y113300D03*
Y119000D03*
X146300Y124000D03*
X160500Y113300D03*
X155800D03*
X151300D03*
X160500Y119000D03*
X155700Y118800D03*
X151300Y118700D03*
X160300Y124000D03*
X155800D03*
X151500D03*
X153200Y189600D03*
X148500D03*
X153200Y195300D03*
X148400Y195100D03*
X153000Y200300D03*
X148500D03*
X144990Y218181D03*
X148592Y218195D03*
X152291Y218107D03*
X150400Y208200D03*
X163763Y208037D03*
X150190Y238581D03*
X153792Y238595D03*
X157491Y238507D03*
X153000Y260200D03*
X148300D03*
X153000Y265900D03*
X148200Y265700D03*
X152800Y270900D03*
X148300D03*
X152200Y279000D03*
X163737Y278937D03*
X150990Y295381D03*
X154592Y295395D03*
X158291Y295307D03*
X153000Y318900D03*
X148300D03*
X153000Y324600D03*
X148200Y324400D03*
X152800Y329600D03*
X148300D03*
X151991Y347807D03*
X148292Y347895D03*
X152000Y337400D03*
X163737Y337437D03*
X148026Y462574D03*
X151715D03*
X152253Y503853D03*
X146106Y526494D03*
X151300Y539900D03*
X171900Y204100D03*
Y201600D03*
X176500D03*
X176600Y204200D03*
X171900Y206700D03*
X176600Y206800D03*
X181600Y215400D03*
X177500Y216300D03*
X171500Y216000D03*
X168200D03*
X184500Y211600D03*
X176491Y238607D03*
X169190Y238681D03*
X172792Y238695D03*
X168300Y227600D03*
X172300Y227500D03*
X176300Y227600D03*
X180300D03*
X171800Y275000D03*
Y272500D03*
Y277600D03*
X176400Y272500D03*
X176500Y275100D03*
Y277700D03*
X181200Y285500D03*
X167700Y285200D03*
X184800Y281900D03*
X177100Y286100D03*
X171000Y285800D03*
X168300Y296800D03*
X172300D03*
X176200Y296900D03*
X180100D03*
X171700Y331200D03*
X171600Y335900D03*
Y333600D03*
X176500Y336000D03*
X176400Y333600D03*
X176500Y331100D03*
X180233Y344700D03*
X184400Y339800D03*
X177100Y345300D03*
X167467Y345200D03*
X170800Y345700D03*
X168100Y358200D03*
X172100D03*
X176100Y358100D03*
X180100Y358200D03*
X165953Y423653D03*
X188850Y134650D03*
X202991Y218407D03*
X199292Y218495D03*
X195690Y218481D03*
X196600Y208000D03*
X191892Y238695D03*
X188290Y238681D03*
X195591Y238607D03*
X188400Y226300D03*
X195900Y278900D03*
X204200Y281800D03*
X192692Y295495D03*
X189090Y295481D03*
X196391Y295407D03*
X202091Y347807D03*
X198392Y347895D03*
X194790Y347881D03*
X196000Y337500D03*
X204200Y340100D03*
X196850Y365450D03*
X205200Y552700D03*
X195700Y552000D03*
X222331Y162800D03*
X215700Y161700D03*
X222600Y175500D03*
X226100D03*
X222500Y172200D03*
X226000D03*
X215000Y183900D03*
X222800Y184800D03*
X212800Y180800D03*
X216500Y197300D03*
X220900Y197400D03*
X225700D03*
X212200D03*
X216500Y191900D03*
X221000D03*
X225700D03*
X212200D03*
X210900Y211700D03*
X223940Y243140D03*
X208100Y230300D03*
X211040Y226240D03*
X222600Y253500D03*
X217300Y269100D03*
X225500Y333200D03*
X210040Y358140D03*
X208900Y526400D03*
X212806Y537694D03*
X226400Y162900D03*
X235000Y180700D03*
X239200Y191900D03*
X243300D03*
X239200Y197400D03*
X243800D03*
X233700Y222500D03*
X231800Y211700D03*
X235600Y263200D03*
X230900D03*
X226400D03*
X241400Y255500D03*
X243700Y257800D03*
X241900Y269100D03*
X232200Y303500D03*
X236500D03*
X241000D03*
X232000Y298200D03*
X236400Y298300D03*
X241200Y298500D03*
X232000Y292800D03*
X236500D03*
X241200D03*
X227700D03*
X234700Y333200D03*
X230000D03*
X229000Y341800D03*
X229700Y367900D03*
X234500Y354400D03*
X237747Y502853D03*
X245200Y535500D03*
X247800Y191900D03*
X252400Y191800D03*
X248300Y197400D03*
X252900D03*
X261000Y255600D03*
X262600Y265700D03*
X250300Y270800D03*
X253800D03*
X250200Y267500D03*
X253700D03*
X262500Y269100D03*
X266200D03*
X258700Y417600D03*
X251352Y417500D03*
X254748D03*
X256300Y530600D03*
X262300Y529800D03*
X276100Y171800D03*
X271900Y168300D03*
X272900Y171800D03*
X268500Y168288D03*
X275300Y277000D03*
X272900Y274600D03*
X268500Y271600D03*
X272900Y463700D03*
X268600Y459700D03*
X268653Y502753D03*
X344200Y37600D03*
X347100Y30572D03*
X327800D03*
X344500Y62900D03*
X331650Y68700D03*
X339800Y204700D03*
X343000D03*
X341100Y509800D03*
X340300Y499300D03*
X343000D03*
X338200Y526100D03*
X335900Y528500D03*
X343800Y539500D03*
X354400Y20200D03*
X360800Y19800D03*
X366900Y30672D03*
X364600Y62900D03*
X351550Y68800D03*
X367000Y255900D03*
X365400Y264200D03*
X366800Y272700D03*
X350500Y404300D03*
X367600Y389200D03*
X364400Y485200D03*
X353918Y494100D03*
X352678Y505378D03*
X356700Y528500D03*
X367772Y543000D03*
X368800Y14200D03*
X387900Y32200D03*
X388100Y37300D03*
X384800Y62600D03*
X388500Y44400D03*
X370250Y68900D03*
X382000Y278000D03*
X375700Y285900D03*
X380300D03*
X384800D03*
X373600Y293000D03*
Y297500D03*
Y302100D03*
Y306600D03*
Y311200D03*
Y315700D03*
Y320300D03*
Y324800D03*
X384800Y336000D03*
X380200D03*
X375700D03*
X373600Y329400D03*
X386900Y353600D03*
X383600D03*
X387000Y359000D03*
X383700D03*
X386900Y356300D03*
X383700Y356400D03*
X370400Y352700D03*
X374700Y352600D03*
X376300Y359400D03*
X376400Y362300D03*
X373300Y356300D03*
X370900Y398900D03*
X382400Y485200D03*
X376300D03*
X370400D03*
X372200Y530700D03*
X372000Y525300D03*
X389000Y17100D03*
Y13400D03*
X388900Y25700D03*
X403300Y79900D03*
X408800Y82000D03*
X406243Y79900D03*
X408800Y104700D03*
Y143500D03*
X400000Y169600D03*
X389500Y175100D03*
X400100Y166500D03*
X389600Y172200D03*
X391300Y264000D03*
X392100Y248500D03*
X396447Y278847D03*
X402400Y268600D03*
Y278800D03*
X389400Y285900D03*
X393900D03*
X399700Y292000D03*
X407900Y303900D03*
X405400Y295500D03*
X407700Y325300D03*
X399900Y331900D03*
X393900Y336000D03*
X389300D03*
X404100Y329500D03*
X394900Y355700D03*
X391760Y383360D03*
X399300Y404300D03*
X392500Y390000D03*
X406250Y398750D03*
X407000Y485200D03*
X396800Y527600D03*
X402400Y540600D03*
X414370Y18300D03*
X421100Y15800D03*
X421900Y29259D03*
X420636Y45764D03*
X420900Y51200D03*
X427200Y67400D03*
X411361Y83561D03*
X424000Y98000D03*
X416480Y89980D03*
X419039Y92661D03*
X413920Y86780D03*
X421598Y95698D03*
X413664Y122036D03*
X420628Y122328D03*
X425900Y106200D03*
Y142400D03*
X413664Y126364D03*
X424400Y150700D03*
X413800Y159700D03*
X411400Y164400D03*
X413900Y156800D03*
X411361Y161639D03*
X421543Y150643D03*
X425900Y255800D03*
X413460Y252240D03*
X428400Y258200D03*
X415250Y274300D03*
X420053Y274447D03*
X419000Y306000D03*
X419300Y301000D03*
X419800Y297600D03*
X425100Y288700D03*
X428400D03*
X418500Y327300D03*
X420800Y323300D03*
X412400Y308500D03*
X418200Y310900D03*
X427300D03*
Y318400D03*
X418200D03*
X412300Y321000D03*
X418500Y331700D03*
X421300Y329145D03*
X410500Y355700D03*
X413500D03*
X410500Y353000D03*
X413500D03*
X428800Y378100D03*
X423700Y443257D03*
X415800Y450300D03*
Y455700D03*
X424300Y485200D03*
X418500D03*
X412800D03*
X429500Y39900D03*
X432200Y59000D03*
X445700Y63600D03*
X448500Y58900D03*
X448600Y63700D03*
X429300Y60400D03*
X440500Y76400D03*
X442800Y73000D03*
X446000D03*
X443441Y76341D03*
X431800Y67400D03*
X449236Y123400D03*
X441872Y123928D03*
X435400Y107000D03*
X435900Y143900D03*
X449236Y127400D03*
X440700Y149000D03*
X448800Y155500D03*
X446000Y155400D03*
X443441Y150600D03*
X437900Y255500D03*
X434900Y261600D03*
X437900Y252300D03*
X431900Y261400D03*
X446900Y283200D03*
X441000Y284100D03*
X437000Y284200D03*
X448500Y301200D03*
X439100Y304100D03*
X431200Y297600D03*
X440400Y301200D03*
X449300Y316800D03*
X444400Y316700D03*
X449200Y321300D03*
X444300Y321200D03*
X449300Y307800D03*
X444400Y307700D03*
X449200Y312300D03*
X444300Y312200D03*
X443150Y327350D03*
X438378Y322091D03*
X439400Y325300D03*
X438800Y311200D03*
X438900Y318500D03*
X439200Y307610D03*
X448212Y347688D03*
X430975Y420225D03*
X429300Y447300D03*
X432200Y450800D03*
X439647Y522053D03*
X455800Y18700D03*
X451118Y58900D03*
X456400Y66100D03*
X455200Y85100D03*
X455600Y106600D03*
X455300Y142700D03*
X453600Y232200D03*
X466600Y283200D03*
X460700D03*
X452800Y284200D03*
X454700Y301153D03*
X459300Y301200D03*
X463600Y301400D03*
X459300Y316800D03*
X454100D03*
X459200Y321300D03*
X454000D03*
X459300Y307800D03*
X454100D03*
X459200Y312300D03*
X454000D03*
X464616Y313516D03*
X464700Y325300D03*
X450900Y346700D03*
X453000Y328050D03*
X465300Y328100D03*
X449800Y357500D03*
X469200Y371900D03*
X465358Y372000D03*
X461778D03*
X469400Y440600D03*
X468336Y460664D03*
X459800Y497600D03*
X467900Y508800D03*
X465358Y503900D03*
X461778D03*
X453751Y501460D03*
X457440D03*
X457100Y523600D03*
Y520300D03*
X461600D03*
X461700Y523600D03*
X466200D03*
X466100Y520300D03*
X457400Y534200D03*
X456736Y545300D03*
X460616Y535684D03*
X465100Y537300D03*
X468143Y533600D03*
X485500Y52900D03*
X486800Y85200D03*
X481700Y230000D03*
X484200Y299800D03*
X475636Y295300D03*
X483800Y325300D03*
X483525Y313975D03*
X484700Y311100D03*
X471398Y344702D03*
X482900Y329300D03*
X487300Y328800D03*
X477300Y357600D03*
X482700Y440600D03*
X478900Y435580D03*
X472361Y438139D03*
X472400Y450700D03*
X476272Y504400D03*
X485700Y500400D03*
X480206Y520294D03*
X476500Y541700D03*
X510300Y23000D03*
X500500Y22800D03*
X503200Y20300D03*
X494100Y18700D03*
X502500Y42800D03*
X507500Y37100D03*
X509700Y57600D03*
X505700Y62700D03*
X493000Y74700D03*
X505500Y81300D03*
X496294Y109106D03*
X502700Y185400D03*
X506160Y180900D03*
X509740D03*
X502420Y197100D03*
X506000D03*
X504600Y238300D03*
X510200Y291700D03*
X497894Y312900D03*
X494900Y322700D03*
X504706Y312800D03*
X492000Y322600D03*
X504100Y410500D03*
X497200Y410700D03*
X490300D03*
X496600Y448300D03*
X501700Y435600D03*
X508900Y470500D03*
X495900Y502400D03*
Y520100D03*
X498300Y524900D03*
X523800Y23100D03*
X514100Y42500D03*
X525400Y43200D03*
X525000Y30000D03*
X514900Y29900D03*
X526000Y38200D03*
X518220Y40800D03*
X521800D03*
X524600Y57300D03*
X512200Y299700D03*
X519800Y315700D03*
X512460Y315600D03*
X516040D03*
X544600Y23000D03*
X536200Y22600D03*
X531400Y22500D03*
X549300Y23100D03*
X541300Y43200D03*
X534200Y36600D03*
X536800Y40700D03*
X548700D03*
X544429Y40929D03*
X539400Y57100D03*
X531900Y103700D03*
X534584D03*
X530900Y111900D03*
X530843Y114600D03*
X540060Y141200D03*
X543640D03*
X549160Y167300D03*
X549300Y404400D03*
X546200D03*
X545900Y472600D03*
X561900Y21500D03*
X557100Y22500D03*
X556800Y16600D03*
X570700Y22400D03*
X565200Y22300D03*
X553800Y22800D03*
X559500Y15600D03*
X555800Y42800D03*
X565700Y38500D03*
X556500Y36700D03*
X559500Y40400D03*
X556500Y56500D03*
X565430Y56730D03*
X566100Y73000D03*
X563250Y72900D03*
X571200Y90000D03*
X568200Y89980D03*
X569000Y110900D03*
X557300Y148100D03*
X569400D03*
X562077Y157517D03*
X565657D03*
X552740Y167300D03*
X555800Y245500D03*
X551700Y243800D03*
X564600Y247900D03*
X554900Y408300D03*
X561800Y393400D03*
X567800Y399300D03*
X551700Y408300D03*
X558700Y393400D03*
X564600Y399100D03*
X554400Y468900D03*
X561500D03*
X568700D03*
X584100Y23100D03*
X576000Y22900D03*
X591600Y42300D03*
X591000Y36200D03*
X579900Y36000D03*
X581840Y39400D03*
X578260D03*
X585100Y37600D03*
X571650Y36650D03*
X588000Y41300D03*
X575100Y38200D03*
X585800Y57800D03*
X571700Y73100D03*
X586400Y101800D03*
Y99200D03*
X588000Y86600D03*
X571700Y111008D03*
X586400Y129700D03*
X586140Y140100D03*
X582560D03*
X574160Y149100D03*
X577740D03*
X574500Y382200D03*
X571400Y382100D03*
X604400Y23100D03*
X598600Y22500D03*
X609700Y21900D03*
X604300Y36300D03*
X593320Y38900D03*
X596900D03*
X607020Y39000D03*
X610600D03*
X599160Y43000D03*
X602740D03*
X598400Y57600D03*
X605950Y44050D03*
X609700Y92661D03*
X611959Y105039D03*
X593320Y132600D03*
X596900D03*
X605060Y146900D03*
X608640D03*
X597320Y186200D03*
X600900D03*
X609100Y216900D03*
X624400Y23100D03*
X615200Y22600D03*
X628100Y21600D03*
X618200Y43200D03*
X620200Y30200D03*
X616600Y39000D03*
X623440Y40300D03*
X619860D03*
X621900Y36800D03*
X617400Y59200D03*
X625000Y57500D03*
X632200Y83500D03*
X632000Y79900D03*
X628100Y83561D03*
X617400Y92700D03*
X632100Y95700D03*
X629200Y95698D03*
X615539Y105039D03*
X630947Y117893D03*
X627367D03*
X623440Y171400D03*
X619860D03*
X615800Y197200D03*
X612900D03*
X614100Y214500D03*
X612100Y216900D03*
X617000Y214500D03*
X626820Y207300D03*
X630400D03*
X625700Y273000D03*
X627520Y276900D03*
X631100D03*
X624540Y280941D03*
X620960D03*
X631320Y290200D03*
X624300Y304800D03*
X628600Y327500D03*
X625412Y327888D03*
X627700Y344400D03*
X623100Y357500D03*
X623000Y363500D03*
Y360200D03*
X625994Y390894D03*
X623700Y389400D03*
X628800Y412900D03*
X623547Y420253D03*
X623700Y412600D03*
X629453Y419700D03*
X644200Y22700D03*
X639200Y22300D03*
X635100Y21900D03*
X647100Y17900D03*
X648300Y43100D03*
X640100Y29900D03*
X641600Y41800D03*
X638325Y41662D03*
X636300Y39300D03*
X638300Y36800D03*
X646800Y37800D03*
X643220D03*
X635500Y50000D03*
X643700Y57400D03*
X638640Y83400D03*
X635060D03*
X651000Y89600D03*
X648800Y93100D03*
X645220D03*
X647249Y124611D03*
X650829D03*
X641700Y118900D03*
X649400Y149800D03*
X644629Y155589D03*
X641049D03*
X651476Y155700D03*
X652300Y235000D03*
X636300Y281400D03*
X634900Y290200D03*
X650553Y291047D03*
X649800Y322400D03*
X640700D03*
X636400Y326701D03*
X650300Y310200D03*
X636400Y335300D03*
X643000Y364747D03*
X643800Y358900D03*
X645032Y382232D03*
X643700Y373300D03*
X651628Y395172D03*
X637500Y391300D03*
X643800Y424800D03*
X635300Y412600D03*
X640000Y411700D03*
X651300Y435500D03*
X642714Y448014D03*
X645494Y465094D03*
X639034Y466600D03*
X642700Y466700D03*
X652306Y455594D03*
X650588Y480088D03*
X646900Y480200D03*
X642728Y487872D03*
X656200Y23000D03*
X656500Y18200D03*
X660400Y42700D03*
X666000Y37100D03*
X656400Y36400D03*
X655620Y39300D03*
X659200D03*
X663820Y42600D03*
X667400D03*
X660900Y56600D03*
X670700Y57700D03*
X653900Y79200D03*
Y76341D03*
X661060Y78500D03*
X664640D03*
X652800Y92300D03*
X655660Y89900D03*
X659240D03*
X663660Y130000D03*
X671660Y133800D03*
X667240Y130000D03*
X665400Y133800D03*
X655056Y155700D03*
X665453Y291147D03*
X672000Y315400D03*
X665500Y309800D03*
X659600Y316200D03*
X664300Y335700D03*
X654800Y338100D03*
X655200Y353600D03*
X668100Y354100D03*
X663121Y354200D03*
X672700Y361200D03*
X659200Y383500D03*
X664900Y382900D03*
X660100Y399500D03*
X662917Y447400D03*
X660100Y448800D03*
X653300Y448900D03*
X664100Y466900D03*
X667106Y465194D03*
X671200Y466600D03*
X654300Y467100D03*
X660294Y455500D03*
X656900Y467100D03*
X660037Y466263D03*
X653738Y480200D03*
X666336Y480436D03*
X662128Y487872D03*
X657928D03*
X684400Y22600D03*
X675900Y22000D03*
X676500Y42000D03*
X684000Y42700D03*
X686400Y37000D03*
X674700Y37100D03*
X688260Y40400D03*
X691840D03*
X685400Y57200D03*
X689260Y91500D03*
X692840D03*
X675240Y133800D03*
X680760Y175100D03*
X684340D03*
X681600Y185700D03*
X689360Y188700D03*
X692940D03*
X681200Y207400D03*
X678300D03*
X689000Y211900D03*
X691700Y211700D03*
X688900Y280300D03*
X691700D03*
X692150Y306350D03*
X692050Y326500D03*
X679200Y311300D03*
X676728Y340372D03*
X673400Y357800D03*
X684700Y375100D03*
X680956D03*
X689106Y390194D03*
X693200Y391700D03*
X679700Y391800D03*
X689137Y414500D03*
X688553Y420353D03*
X681263Y414337D03*
X676400Y412600D03*
X682647Y418353D03*
X673000Y448200D03*
X696000Y23100D03*
X704500Y16600D03*
X696100Y42200D03*
X694000Y36900D03*
X713000Y76200D03*
X712800Y139800D03*
X704860Y140200D03*
X708440D03*
X698500Y197700D03*
X695400Y201800D03*
X698200Y201700D03*
X701300Y197600D03*
X693700Y209600D03*
X696700Y209500D03*
X709760Y279500D03*
X713340D03*
X711400Y304800D03*
X702600Y334700D03*
X712512Y327888D03*
X711223Y358452D03*
X711500Y362500D03*
X712600Y389400D03*
X710647Y420053D03*
X693500Y414000D03*
X713387Y415920D03*
X716000Y76200D03*
X718400Y99200D03*
X715700D03*
X721920Y106000D03*
X725500D03*
X715700Y139800D03*
X716320Y190900D03*
X719900D03*
X721960Y274708D03*
X725540D03*
X727600Y278500D03*
X714700Y275800D03*
X716252Y282900D03*
X719648D03*
X715700Y327500D03*
X727800Y322400D03*
X723500Y326701D03*
Y335300D03*
X714800Y344400D03*
X730100Y364747D03*
X730900Y358900D03*
X725900Y384300D03*
X733300Y382300D03*
X730400Y373400D03*
X715600Y390600D03*
X724400Y391400D03*
X714900Y413600D03*
X720637Y413837D03*
X726000Y411900D03*
X716553Y418347D03*
X728600Y448100D03*
X725700Y466300D03*
X728900Y466200D03*
X732694Y465700D03*
X730328Y487872D03*
X747200Y69100D03*
X739900Y73800D03*
X744700D03*
X750100Y64700D03*
X753000Y67300D03*
X738200Y104500D03*
Y107300D03*
X744800Y204800D03*
X739600Y194600D03*
X744700Y201700D03*
X742200Y197600D03*
X747200Y207400D03*
X750100Y209500D03*
X753000Y212200D03*
X735700Y231700D03*
X752553Y291147D03*
X737653Y291047D03*
X737400Y310200D03*
X752600Y309800D03*
X736900Y322400D03*
X746700Y316200D03*
X751400Y335700D03*
X741900Y338100D03*
X742300Y353600D03*
X750221Y354200D03*
X746300Y383500D03*
X752000Y382900D03*
X738828Y395072D03*
X747400Y399400D03*
X750400Y421200D03*
X741900D03*
X744831Y420400D03*
X747600Y420300D03*
X750317Y447700D03*
X737600Y435600D03*
X747400Y448700D03*
X740600Y448900D03*
X751100Y467200D03*
X753906Y465594D03*
X741400Y466100D03*
X750500Y451600D03*
X747094Y454394D03*
X739506Y455000D03*
X753200Y451700D03*
X744000Y466200D03*
X737688Y479888D03*
X741300Y480300D03*
X753436Y480264D03*
X734000Y479900D03*
X744572Y487872D03*
X749528D03*
X765300Y37700D03*
X763100Y40200D03*
X755700Y43600D03*
X756900Y53300D03*
X758700Y50000D03*
X764600Y50600D03*
X763800Y53500D03*
X761300Y50200D03*
X757000Y55900D03*
X768200Y50928D03*
X758600Y43800D03*
X772600Y82700D03*
X765879Y81000D03*
X758800Y72200D03*
X755800Y69700D03*
X772600Y217200D03*
X756300Y218800D03*
X758800Y216900D03*
X755800Y214500D03*
X765879Y289900D03*
X769100Y289600D03*
X759100Y315400D03*
X766300Y311300D03*
X763828Y340372D03*
X760500Y357800D03*
X755200Y354100D03*
X759800Y361200D03*
X771800Y374300D03*
X768056D03*
X767000Y392000D03*
X768363Y414337D03*
X762800Y413600D03*
X769847Y418347D03*
X759766Y447700D03*
X758800Y466300D03*
X793600Y21100D03*
X793500Y18300D03*
X783200Y33500D03*
X791000Y38100D03*
X786300Y33500D03*
X788979Y36000D03*
X783400Y82700D03*
X775600Y76600D03*
X783300Y79600D03*
X779200Y86300D03*
X791819Y149630D03*
X786100Y204600D03*
X783400Y207300D03*
X779200Y210000D03*
X775600Y214200D03*
X782000Y212100D03*
X776300Y218800D03*
X786900Y264900D03*
X779150Y306500D03*
Y326700D03*
X790300Y332200D03*
X776206Y390194D03*
X780500Y391600D03*
X776237Y414300D03*
X775753Y420353D03*
X781100Y414100D03*
X806900Y21500D03*
X812600Y21800D03*
X804700Y22900D03*
X794800Y40800D03*
X809414Y40900D03*
X794800Y61500D03*
X810460Y116700D03*
X814040D03*
X806100Y144700D03*
X801020Y149100D03*
X804600D03*
X795399Y149408D03*
X810460Y274500D03*
X814040D03*
X802200Y269900D03*
X802920Y283400D03*
X806500D03*
X797560Y277973D03*
X801140D03*
X799200Y304800D03*
X811300Y326701D03*
X803500Y327500D03*
X811300Y335300D03*
X800312Y327888D03*
X802600Y344400D03*
X798491Y358832D03*
X798500Y362900D03*
X800894Y390894D03*
X798600Y388900D03*
X812200Y391400D03*
X800563Y413100D03*
X798447Y420353D03*
X798100Y415400D03*
X808437Y413837D03*
X813700Y411900D03*
X804353Y418347D03*
X816800Y22400D03*
X821600Y42100D03*
X834500Y49200D03*
X824815Y62007D03*
X829900Y59800D03*
X830800Y62600D03*
X823000Y54500D03*
X829100Y57061D03*
X820500Y62200D03*
X823400Y59600D03*
X817900Y51300D03*
X818500Y76400D03*
X821100Y76300D03*
X823100Y73300D03*
X825800Y70900D03*
X825100Y67400D03*
X827000Y64600D03*
X833200D03*
X833300Y67600D03*
X823800Y64700D03*
X820100Y67300D03*
X820400Y72200D03*
X823000Y69700D03*
X816100Y113500D03*
X828400Y203800D03*
X833300D03*
X822700Y229200D03*
X815700Y270100D03*
X825453Y291047D03*
X824700Y322400D03*
X815600D03*
X825200Y310200D03*
X834500Y316200D03*
X829700Y338100D03*
X830100Y353600D03*
X818597Y364820D03*
X817900Y359200D03*
X819600Y382700D03*
X818100Y373500D03*
X834100Y383500D03*
X826728Y394972D03*
X835214Y399200D03*
X829900Y421200D03*
X832631Y419500D03*
X824600Y435500D03*
X834900Y449000D03*
X828000Y449200D03*
X831900Y465600D03*
X834900Y455000D03*
X827606Y455100D03*
X834857Y465700D03*
X825500Y480500D03*
X828800D03*
X822400D03*
X832872Y487872D03*
X817728D03*
X841700Y26200D03*
X844800Y30200D03*
X842200Y30100D03*
X839100Y26100D03*
X838600Y76200D03*
X840200Y80700D03*
X839600Y72800D03*
X836100Y70200D03*
X847100Y191000D03*
X838200Y194100D03*
X840200Y196900D03*
X843900Y193900D03*
X836100Y200200D03*
X853700Y217200D03*
Y268200D03*
X851000Y268100D03*
X840353Y291147D03*
X846900Y315400D03*
X840400Y309800D03*
X854100Y311300D03*
X851628Y340372D03*
X839200Y335700D03*
X848300Y357800D03*
X843000Y354000D03*
X838021Y354300D03*
X847600Y361200D03*
X839800Y382900D03*
X855600Y391900D03*
X838100Y421100D03*
X849500Y413600D03*
X835400Y419400D03*
X838900Y447700D03*
X839557Y467300D03*
X838100Y455800D03*
X840700D03*
X841200Y480300D03*
X837028Y487872D03*
X870700Y21700D03*
X863700Y21600D03*
X858800Y40200D03*
X873300Y39700D03*
X858800Y60500D03*
X873314Y80386D03*
X862200Y67600D03*
X865200Y79700D03*
X863100Y82400D03*
X859600Y67500D03*
X867600Y85000D03*
X862900Y191200D03*
X867000Y191400D03*
X863100Y188000D03*
X857100Y217200D03*
X874079Y259400D03*
X866950Y306300D03*
Y326700D03*
X859744Y374800D03*
X856000D03*
X864006Y390194D03*
X867800Y391600D03*
X864037Y414200D03*
X863453Y420453D03*
X867600Y413800D03*
X856163Y414337D03*
X857547Y418353D03*
X887200Y41800D03*
X885100Y52300D03*
X882143Y52243D03*
X878000Y81500D03*
X895000Y72100D03*
X884300Y75700D03*
X880800Y81600D03*
X888400Y72700D03*
X892800Y68500D03*
X880700Y185200D03*
X886300Y177300D03*
X890700Y174300D03*
X884300Y184900D03*
X881000Y182100D03*
X888400Y179600D03*
X892800Y176900D03*
X876700Y259400D03*
X913600Y21700D03*
X909600Y74200D03*
X907590Y76310D03*
X915100Y174700D03*
X904700Y173300D03*
X913000Y171700D03*
X901120Y173300D03*
X909420Y171700D03*
X911300Y203800D03*
X909000Y200100D03*
X904800Y203800D03*
X905300Y200200D03*
X915940Y281116D03*
X912360D03*
X914200Y304800D03*
X904800Y331400D03*
X915312Y327888D03*
X913500Y362400D03*
X913100Y358700D03*
X913600Y388600D03*
X915894Y390894D03*
X915563Y413300D03*
X913547Y420447D03*
X913283Y414983D03*
X917500Y38800D03*
X919200Y78000D03*
X930900Y67000D03*
X920400Y82000D03*
Y84900D03*
X929514Y122086D03*
X925934D03*
X925100Y167800D03*
X918580Y173600D03*
X922200Y170500D03*
X930040Y279400D03*
X926460D03*
X931700Y270200D03*
X917800Y270100D03*
X922840Y274700D03*
X919260D03*
X930600Y322400D03*
X926300Y326701D03*
X918500Y327500D03*
X926300Y335300D03*
X917600Y344400D03*
X932900Y364747D03*
X933300Y358500D03*
X935800Y382800D03*
X933400Y372600D03*
X927200Y391400D03*
X923437Y413837D03*
X928600Y411700D03*
X919453Y418353D03*
X932728Y487872D03*
X944700Y9300D03*
X941800Y9200D03*
X937400Y67000D03*
X943600D03*
X949100Y80900D03*
X938200Y226900D03*
X955353Y291147D03*
X940453Y291047D03*
X939700Y322400D03*
X940200Y310200D03*
X955400Y309800D03*
X949500Y316200D03*
X944700Y338100D03*
X954200Y335700D03*
X945100Y353600D03*
X953021Y354300D03*
X954800Y382900D03*
X949100Y383500D03*
X941328Y394972D03*
X949707Y399607D03*
X953000Y421100D03*
X944800Y421000D03*
X950400Y418600D03*
X947631Y418400D03*
X954150Y447950D03*
X940000Y435400D03*
X949900Y449000D03*
X943000Y449200D03*
X954557Y467300D03*
X945900Y465700D03*
X952800Y455800D03*
X949900Y455000D03*
X942606Y455100D03*
X949857Y465700D03*
X955700Y455800D03*
X940500Y480500D03*
X943800D03*
X956200Y480300D03*
X937400Y480500D03*
X952028Y487872D03*
X947872D03*
X972500Y102000D03*
X971840Y94700D03*
X968260D03*
X972800Y115300D03*
X973300Y214200D03*
X975900Y214100D03*
X973400Y277300D03*
X976100Y277500D03*
X961900Y315400D03*
X969100Y311300D03*
X966628Y340372D03*
X958000Y354200D03*
X963300Y357800D03*
X962600Y361200D03*
X974700Y375200D03*
X970956D03*
X969800Y392000D03*
X976800Y413800D03*
X971163Y414337D03*
X965300Y412300D03*
X972747Y418347D03*
X989800Y120100D03*
X984352Y115600D03*
X987748D03*
X997060Y164100D03*
X994000Y167700D03*
X990240Y165460D03*
X986660D03*
X996600Y187700D03*
X990800Y193600D03*
X983800Y194000D03*
X988400Y197100D03*
X993100Y191400D03*
X993600Y188000D03*
X985700Y197100D03*
X981000Y193900D03*
X990400Y250700D03*
X988900Y252900D03*
X981875Y306425D03*
X981950Y326450D03*
X993100Y331900D03*
X977800Y391100D03*
X983200Y391500D03*
X978653Y420147D03*
X983200Y413700D03*
X1012500Y126600D03*
X1008920D03*
X1017100Y126300D03*
X1000640Y164100D03*
X1014800Y273400D03*
X1011220D03*
X1018000Y269700D03*
X1004200Y270300D03*
X1002240Y276000D03*
X1005860Y282416D03*
X998660Y276000D03*
X1009440Y282416D03*
X1002000Y304800D03*
X1006300Y327500D03*
X1014100Y326701D03*
X1003112Y327888D03*
X1014100Y335300D03*
X1005400Y344400D03*
X1000600Y362100D03*
X1000400Y359000D03*
X1003800Y369300D03*
X1003694Y390894D03*
X1000300Y391400D03*
X1015100Y391200D03*
X1003363Y413200D03*
X1001347Y420247D03*
X1000600Y415300D03*
X1011237Y413837D03*
X1016400Y412500D03*
X1007253Y418353D03*
X1029800Y59800D03*
X1029900Y57100D03*
X1038000Y81600D03*
X1026400Y224100D03*
X1028253Y291047D03*
X1027500Y322400D03*
X1018400D03*
X1028000Y310200D03*
X1037300Y316200D03*
X1032500Y338100D03*
X1020700Y364747D03*
X1032900Y353600D03*
X1021750Y358650D03*
X1023900Y382800D03*
X1021000Y373400D03*
X1036900Y383500D03*
X1029228Y394972D03*
X1032700Y421000D03*
X1038200Y419300D03*
X1035431D03*
X1028850Y435350D03*
X1037700Y449000D03*
X1030800Y449200D03*
X1033800Y465700D03*
X1037700Y455000D03*
X1030406Y455100D03*
X1037657Y465700D03*
X1025200Y480500D03*
X1028300D03*
X1031600D03*
X1035672Y487872D03*
X1020528D03*
X1050800Y51900D03*
X1049500Y67500D03*
X1043153Y291147D03*
X1043200Y309800D03*
X1056900Y311300D03*
X1049700Y315400D03*
X1054428Y340372D03*
X1042000Y335700D03*
X1041011Y354390D03*
X1045800Y354200D03*
X1051100Y357800D03*
X1050400Y361200D03*
X1058400Y374800D03*
X1042600Y382900D03*
X1038457Y399757D03*
X1057600Y391900D03*
X1041100Y420900D03*
X1053400Y412500D03*
X1041750Y447750D03*
X1042357Y467300D03*
X1040800Y455800D03*
X1043500D03*
X1044000Y480300D03*
X1039828Y487872D03*
X1067600Y68700D03*
X1070000Y182100D03*
X1075300Y184900D03*
X1072500D03*
X1067200Y182100D03*
X1076600Y179600D03*
X1060900Y209900D03*
X1063900Y210000D03*
X1077200Y243200D03*
X1075600Y245900D03*
X1060900Y284100D03*
X1063900Y284200D03*
X1069975Y306525D03*
X1069750Y326550D03*
X1062144Y374800D03*
X1066806Y390194D03*
X1071400Y391900D03*
X1066837Y414300D03*
X1066453Y420247D03*
X1071700Y413200D03*
X1058963Y414337D03*
X1060547Y418347D03*
X1095500Y62600D03*
X1090660Y159800D03*
X1094240D03*
X1081560Y164500D03*
X1085140D03*
X1083600Y176800D03*
X1088100Y167300D03*
X1080400Y176900D03*
X1091900Y282400D03*
X1095760Y280960D03*
X1087060Y275800D03*
X1090640D03*
X1088900Y304400D03*
X1090012Y327488D03*
X1093200Y327100D03*
X1079900Y332200D03*
X1092300Y344000D03*
X1087100Y357800D03*
X1087300Y361200D03*
X1097406Y390906D03*
X1087600Y391100D03*
X1092200Y390800D03*
X1090263Y413437D03*
X1088247Y419847D03*
X1087900Y415400D03*
X1098137Y413363D03*
X1094153Y418347D03*
X1105447Y62447D03*
X1100100Y60800D03*
X1105000Y84600D03*
X1105950Y105650D03*
X1106925Y140595D03*
X1110740Y139500D03*
X1113700Y221100D03*
X1105685Y276200D03*
X1109265D03*
X1109900Y271600D03*
X1099340Y280960D03*
X1115153Y290647D03*
X1105300Y322000D03*
X1114400D03*
X1101000Y326301D03*
X1114900Y309800D03*
X1101000Y334900D03*
X1119400Y337700D03*
X1107600Y364347D03*
X1108400Y358500D03*
X1110400Y382000D03*
X1108100Y372700D03*
X1116600Y394972D03*
X1102400Y391400D03*
X1119400Y420400D03*
X1104000Y411700D03*
X1115100Y435800D03*
X1117700Y449200D03*
X1117306Y455100D03*
X1115200Y480500D03*
X1118500D03*
X1112100D03*
X1107428Y487872D03*
X1133147Y62453D03*
X1123553Y62653D03*
X1131800Y84000D03*
X1123300Y84200D03*
X1123398Y89598D03*
X1124900Y99500D03*
X1124100Y107400D03*
X1133200Y105800D03*
X1128300Y141400D03*
X1130053Y290747D03*
X1136600Y315000D03*
X1130100Y309400D03*
X1124200Y315800D03*
X1128900Y335300D03*
X1119800Y353200D03*
X1132700Y353600D03*
X1138000Y357400D03*
X1127721Y353700D03*
X1137300Y360800D03*
X1123800Y383100D03*
X1129500Y382500D03*
X1125100Y399400D03*
X1128000Y421300D03*
X1122300Y418425D03*
X1125100Y419800D03*
X1128500Y447600D03*
X1124600Y449000D03*
X1129257Y467300D03*
X1120700Y465700D03*
X1127800Y455800D03*
X1124600Y455000D03*
X1130400Y455800D03*
X1124557Y465700D03*
X1130900Y480300D03*
X1126728Y487872D03*
X1122572D03*
X1151053Y62447D03*
X1149002Y89398D03*
X1151800Y84100D03*
X1151200Y107100D03*
X1155800Y142000D03*
X1159900Y170500D03*
X1148100Y207300D03*
X1150900Y207400D03*
X1148100Y282000D03*
X1150900D03*
X1156650Y306000D03*
Y326250D03*
X1143800Y310900D03*
X1141328Y339972D03*
X1149500Y375300D03*
X1145756D03*
X1157300Y391700D03*
X1153706Y391206D03*
X1145700Y391800D03*
X1151800Y413900D03*
X1155000Y420300D03*
X1156800Y414400D03*
X1141500Y413200D03*
X1145863Y413937D03*
X1147447Y418347D03*
X1162600Y170600D03*
X1167000Y173700D03*
X1164200Y173600D03*
X1165700Y234700D03*
X1165400Y237500D03*
X1186700Y69100D03*
G54D33*
X380137Y264200D03*
X372263D03*
X500337Y81300D03*
X492463D03*
X497763Y299700D03*
X505637D03*
X625663Y406900D03*
X633537D03*
X681263Y407600D03*
X689137D03*
X712763Y406900D03*
X720637D03*
X768363Y407600D03*
X776237D03*
X808437Y406900D03*
X800563D03*
X856163Y407600D03*
X864037D03*
X915563Y406900D03*
X923437D03*
X971163Y407600D03*
X979037D03*
X1011237Y406900D03*
X1003363D03*
X1058963Y407600D03*
X1066837D03*
X1098137Y406500D03*
X1090263D03*
X1145863Y407200D03*
X1153737D03*
G54D24*
X97594Y255300D03*
X104406D03*
X195694Y526400D03*
X202506D03*
X220394Y180700D03*
X227206D03*
X234606Y255500D03*
X227794D03*
X255606Y255600D03*
X248794D03*
X343794Y528500D03*
X343694Y516900D03*
X350606Y528500D03*
X350506Y516900D03*
X373294Y255900D03*
X380106D03*
X380206Y272700D03*
X373394D03*
X485694Y524900D03*
X504606Y291600D03*
X497794D03*
X497894Y307900D03*
X504706D03*
X492506Y524900D03*
X631694Y360000D03*
Y366300D03*
Y372600D03*
Y378800D03*
X625994Y396200D03*
X638506Y360000D03*
Y366300D03*
Y372600D03*
Y378800D03*
X632806Y396200D03*
X652306Y460400D03*
X645494D03*
X660294Y460500D03*
X667106D03*
X685906Y364300D03*
X679094D03*
Y357800D03*
X685906D03*
X682294Y396700D03*
X689106D03*
X713094Y396200D03*
X718794Y360000D03*
X725606D03*
Y366300D03*
X718794D03*
Y372600D03*
X725606D03*
Y378800D03*
X718794D03*
X719906Y396200D03*
X732694Y460400D03*
X739506D03*
X747094D03*
X753906D03*
X773006Y364300D03*
X766194D03*
Y357800D03*
X773006D03*
X769394Y396700D03*
X776206D03*
X806594Y360000D03*
X813406D03*
Y366300D03*
X806594D03*
Y372600D03*
X813406D03*
Y378800D03*
X806594D03*
X807706Y396200D03*
X800894D03*
X834894Y460500D03*
X827606Y460400D03*
X820794D03*
X853994Y364300D03*
Y357800D03*
X841706Y460500D03*
X860806Y364300D03*
Y357800D03*
X857194Y396700D03*
X864006D03*
X915894Y396200D03*
X928406Y366300D03*
X921594D03*
Y360000D03*
X928406D03*
Y378800D03*
X921594D03*
Y372600D03*
X928406D03*
X922706Y396200D03*
X935794Y460400D03*
X942606D03*
X949894Y460500D03*
X956706D03*
X968994Y357800D03*
X975806D03*
Y364300D03*
X968994D03*
X972194Y396700D03*
X979006D03*
X1009394Y360000D03*
X1016206D03*
Y366300D03*
X1009394D03*
Y372600D03*
X1016206D03*
Y378800D03*
X1009394D03*
X1010506Y396200D03*
X1003694D03*
X1037694Y460500D03*
X1030406Y460400D03*
X1023594D03*
X1056794Y364300D03*
Y357800D03*
X1044506Y460500D03*
X1063606Y364300D03*
Y357800D03*
X1059994Y396700D03*
X1066806D03*
X1096294Y359600D03*
Y365900D03*
Y372200D03*
Y378400D03*
X1097406Y395800D03*
X1090594D03*
X1117906Y84200D03*
X1111094D03*
X1117806Y107400D03*
X1110994D03*
X1103106Y359600D03*
Y365900D03*
Y372200D03*
Y378400D03*
X1117306Y460400D03*
X1110494D03*
X1138794Y84000D03*
X1138594Y107100D03*
X1124594Y460500D03*
X1131406D03*
X1145606Y84000D03*
X1145406Y107100D03*
X1150506Y363900D03*
X1143694D03*
Y357400D03*
X1150506D03*
X1146894Y396300D03*
X1153706D03*
G54D15*
X13300Y177006D03*
Y170194D03*
X34500Y146894D03*
Y153706D03*
X89000Y238994D03*
Y245806D03*
X151300Y526494D03*
Y533306D03*
X205200Y544506D03*
Y537694D03*
X212800Y168394D03*
Y175206D03*
X474000Y520294D03*
Y527106D03*
X495900Y507794D03*
Y514606D03*
X651500Y342894D03*
X645200D03*
X651500Y349706D03*
X645200D03*
X668100Y343094D03*
X661500D03*
X668100Y349906D03*
X661500D03*
X656900Y387794D03*
X663200D03*
X656900Y394606D03*
X663200D03*
X732300Y342894D03*
Y349706D03*
X738600Y342894D03*
X748600Y343094D03*
X738600Y349706D03*
X748600Y349906D03*
X744000Y387794D03*
X750300D03*
X744000Y394606D03*
X750300D03*
X755200Y343094D03*
Y349906D03*
X794800Y47194D03*
Y54006D03*
X826400Y342894D03*
X820100D03*
X826400Y349706D03*
X820100D03*
X831800Y387794D03*
Y394606D03*
X843000Y343094D03*
X836400D03*
X843000Y349906D03*
X836400D03*
X838100Y387794D03*
Y394606D03*
X858800Y47594D03*
Y54406D03*
X935100Y342894D03*
Y349706D03*
X941400Y342894D03*
X951400Y343094D03*
X941400Y349706D03*
X951400Y349906D03*
X953100Y387794D03*
X946800D03*
X953100Y394606D03*
X946800D03*
X958000Y343094D03*
Y349906D03*
X1038000Y68994D03*
Y75806D03*
X1029200Y342894D03*
X1022900D03*
X1029200Y349706D03*
X1022900D03*
X1034600Y387794D03*
Y394606D03*
X1045800Y343094D03*
X1039200D03*
X1045800Y349906D03*
X1039200D03*
X1040900Y387794D03*
Y394606D03*
X1095500Y55606D03*
Y48794D03*
X1105400Y55606D03*
Y48794D03*
X1116100Y342494D03*
X1109800D03*
X1116100Y349306D03*
X1109800D03*
X1132700Y342694D03*
X1126100D03*
X1132700Y349506D03*
X1126100D03*
X1121500Y387394D03*
X1127800D03*
X1121500Y394206D03*
X1127800D03*
G54D42*
X628049Y470786D03*
Y451101D03*
Y489290D03*
X637202Y432991D03*
X656100D03*
X674998D03*
X684151Y470786D03*
Y451101D03*
Y489290D03*
X724302Y432991D03*
X715149Y470786D03*
Y451101D03*
Y489290D03*
X743200Y432991D03*
X762098D03*
X771251Y470786D03*
Y451101D03*
Y489290D03*
X812102Y432991D03*
X802949Y470786D03*
Y451101D03*
Y489290D03*
X831000Y432991D03*
X849898D03*
X859051Y470786D03*
Y451101D03*
Y489290D03*
X927202Y432991D03*
X918049Y470786D03*
Y451101D03*
Y489290D03*
X946100Y432991D03*
X964998D03*
X974151Y470786D03*
Y451101D03*
Y489290D03*
X1015002Y432991D03*
X1005849Y470786D03*
Y451101D03*
Y489290D03*
X1033900Y432991D03*
X1052798D03*
X1061951Y470786D03*
Y451101D03*
Y489290D03*
X1092749Y451301D03*
Y470986D03*
Y489490D03*
X1101902Y433191D03*
X1120800D03*
X1139698D03*
X1148851Y451301D03*
Y489490D03*
Y470986D03*
G54D51*
X1077200Y76500D03*
Y96000D03*
X1086800Y122300D03*
X1086900Y146600D03*
X1145400Y36100D03*
X1178300Y76500D03*
X1178400Y96000D03*
X1178500Y122300D03*
X1178400Y146600D03*
G54D34*
X428394Y18200D03*
Y31700D03*
Y48000D03*
X440206Y18200D03*
Y31700D03*
Y48000D03*
X464494Y68400D03*
Y81300D03*
X476306Y68400D03*
Y81300D03*
G54D16*
X20400Y176153D03*
Y170247D03*
Y184347D03*
Y190253D03*
X43900Y510047D03*
Y515953D03*
X63900Y510047D03*
Y515953D03*
X364400Y473747D03*
Y479653D03*
X370400Y473747D03*
Y479653D03*
X376300Y473747D03*
Y479653D03*
X382400Y473747D03*
Y479653D03*
X407000Y473747D03*
Y479653D03*
X424300Y473747D03*
Y479653D03*
X418500Y473747D03*
Y479653D03*
X412800Y473747D03*
Y479653D03*
X504100Y416147D03*
Y422053D03*
X497200Y416147D03*
Y422053D03*
X490300Y416147D03*
Y422053D03*
X501300Y541747D03*
Y547653D03*
X568700Y463553D03*
Y457647D03*
X561500Y463553D03*
Y457647D03*
X554400Y463553D03*
Y457647D03*
X810300Y27247D03*
Y33153D03*
X816800Y27247D03*
Y33153D03*
X863700Y26947D03*
Y32853D03*
X870700Y26947D03*
Y32853D03*
G54D25*
X100000Y571300D03*
X140000D03*
X223800D03*
X263800D03*
X347600D03*
X387600D03*
X471400D03*
X511400D03*
G54D43*
X637202Y457400D03*
X674998D03*
X724302D03*
X762098D03*
X812102D03*
X849898D03*
X927202D03*
X964998D03*
X1015002D03*
X1052798D03*
X1101902Y457600D03*
X1139698D03*
G54D52*
X1076800Y122300D03*
X1076900Y146600D03*
X1095400Y36100D03*
Y26100D03*
X1087200Y76500D03*
Y96000D03*
X1115400Y36100D03*
Y26100D03*
X1105400Y36100D03*
Y26100D03*
X1135400Y36100D03*
Y26100D03*
X1125400Y36100D03*
Y26100D03*
X1145400D03*
X1168300Y76500D03*
X1168400Y96000D03*
X1168500Y122300D03*
X1168400Y146600D03*
G54D53*
G01X14200Y130500D02*
Y118901D01*
X16201Y116900D01*
X19572D01*
G01X14200Y134700D02*
Y130500D01*
G01X22847D02*
X14200D01*
G01X40960Y113800D02*
Y120660D01*
G01X35800Y130100D02*
Y116400D01*
X32560Y113160D01*
X28628D01*
G01X48450Y122250D02*
Y117666D01*
X48440Y117656D01*
Y113800D01*
G01X43900Y510047D02*
Y505100D01*
G01X44000Y532494D02*
Y525500D01*
G01X43900Y515953D02*
X47853D01*
X52700Y520800D01*
Y541599D01*
X49993Y544306D01*
X44000D01*
G01X64000D02*
X57806D01*
X55600Y542100D01*
Y520800D01*
X60447Y515953D01*
X63900D01*
G01X92960Y309100D02*
X83500D01*
X81950Y307550D01*
X73250D01*
G01X63900Y510047D02*
Y505300D01*
G01X64000Y532494D02*
Y525400D01*
G01X84200Y516740D02*
X79360D01*
X75500Y520600D01*
Y541799D01*
X78007Y544306D01*
X84000D01*
G01X98953Y283200D02*
X106100D01*
X109200Y286300D01*
Y296000D01*
G01X102228D02*
X109200D01*
G01X93172Y299740D02*
X86440D01*
G01X100440Y309100D02*
X106100D01*
G01X84200Y509260D02*
Y504100D01*
G01X129200Y490500D02*
X101500D01*
X97972Y494028D01*
Y509660D01*
G01X84000Y532494D02*
Y526300D01*
X93160Y517140D01*
X97972D01*
G01X109200Y296000D02*
Y353600D01*
G01X107028Y513400D02*
X112700D01*
G01X151300Y526494D02*
X146106D01*
G01X195694Y526400D02*
X170100D01*
X170000Y526500D01*
X154532D01*
X154526Y526494D01*
X151300D01*
G01Y533306D02*
Y539900D01*
G01X216460Y237200D02*
X207500D01*
X205800Y235500D01*
X192800D01*
X188400Y231100D01*
Y226300D01*
G01X215660Y367900D02*
X199300D01*
X196850Y365450D01*
G01X202506Y526400D02*
X208900D01*
G01X195700Y536563D02*
Y529632D01*
X195694Y529626D01*
Y526400D01*
G01X262300Y529800D02*
X258600Y526100D01*
Y521200D01*
X254700Y517300D01*
X199000D01*
X195694Y520606D01*
Y526400D01*
G01X195700Y544437D02*
X201905D01*
X201974Y544506D01*
X205200D01*
G01X195700Y544437D02*
Y552000D01*
G01X231800Y211700D02*
X229300D01*
X227700Y210100D01*
X222953D01*
G01X216972Y226240D02*
X211040D01*
G01X221953Y341800D02*
X229000D01*
G01X216172Y358140D02*
X210040D01*
G01X223140Y367900D02*
X229700D01*
G01X205200Y537694D02*
X212806D01*
G01X205200Y544506D02*
Y552700D01*
G01X226028Y222500D02*
X233700D01*
G01X225228Y354400D02*
X234500D01*
G01X339140Y62900D02*
X344500D01*
G01X343694Y516900D02*
Y512394D01*
X341100Y509800D01*
G01X343794Y528500D02*
X335900D01*
G01X373294Y255900D02*
X367000D01*
G01X372263Y264200D02*
X365400D01*
G01X373394Y272700D02*
X366800D01*
G01X350506Y516900D02*
Y507550D01*
X352678Y505378D01*
G01X356700Y528500D02*
X350606D01*
G01X380106Y255900D02*
Y260116D01*
X380137Y260147D01*
Y264200D01*
G01X428164Y301000D02*
Y297664D01*
X425800Y295300D01*
X416500D01*
X404300Y283100D01*
X392000D01*
X387400Y278500D01*
Y266100D01*
X385500Y264200D01*
X380137D01*
G01X373394Y272700D02*
Y269384D01*
X372263Y268253D01*
Y264200D01*
G01X380206Y272700D02*
Y276206D01*
X382000Y278000D01*
G01X382728Y383360D02*
X391760D01*
G01X420053Y264000D02*
Y247153D01*
X417660Y244760D01*
X405728D01*
G01X396672Y248500D02*
X392100D01*
G01X402400Y268600D02*
Y264047D01*
X402353Y264000D01*
G01D02*
X414147D01*
G01X402400Y278800D02*
Y276117D01*
X402353Y276070D01*
Y273100D01*
G01X398860Y390000D02*
X392500D01*
G01X406250Y398750D02*
Y393946D01*
X406340Y393856D01*
Y390000D01*
G01X428394Y18200D02*
X423500D01*
X421100Y15800D01*
G01X420636Y39900D02*
Y45764D01*
G01X428394Y31700D02*
X424341D01*
X421900Y29259D01*
G01X429500Y39900D02*
X424564D01*
G01X428394Y48000D02*
X424100D01*
X420900Y51200D01*
G01X420053Y264000D02*
Y274447D01*
G01X440206Y18200D02*
X448900D01*
X449400Y18700D01*
X455800D01*
G01X440206Y31700D02*
Y18200D01*
G01Y48000D02*
Y31700D01*
G01X464494Y81300D02*
X459000D01*
X455200Y85100D01*
G01X456400Y66100D02*
X458700Y68400D01*
X464494D01*
G01X454700Y301153D02*
Y299003D01*
X456000Y297703D01*
Y281800D01*
X458389Y279411D01*
X470011D01*
X482200Y291600D01*
X497794D01*
G01X474000Y527106D02*
Y531200D01*
X471600Y533600D01*
X468143D01*
G01X476306Y68400D02*
X482900D01*
X485500Y65800D01*
Y52900D01*
G01X476306Y81300D02*
Y68400D01*
G01X492463Y81300D02*
X476306D01*
G01X475636Y295300D02*
X489978D01*
X494378Y299700D01*
X497763D01*
G01X487300Y328800D02*
Y310557D01*
X497763Y300094D01*
G01X485700Y506063D02*
Y500400D01*
G01X474000Y520294D02*
X480206D01*
G01X474000Y527106D02*
X474194Y527300D01*
X478100D01*
X480500Y524900D01*
X485694D01*
G01D02*
Y517602D01*
X485700Y517596D01*
Y513937D01*
G01X494100Y18700D02*
Y24100D01*
X502500Y32500D01*
G01X512500D02*
X507500Y27500D01*
G01D02*
X502500Y32500D01*
G01Y52500D02*
Y59500D01*
X505700Y62700D01*
G01X502500Y52500D02*
X507500Y47500D01*
G01X500337Y81300D02*
X505500D01*
G01X497763Y299700D02*
Y295921D01*
G01X497794Y295890D02*
Y291600D01*
G01X495900Y507794D02*
Y502400D01*
G01Y514606D02*
Y520100D01*
G01X492506Y524900D02*
X498300D01*
G01X517500Y27500D02*
X521900Y23100D01*
X523800D01*
G01D02*
X526000D01*
X527500Y24600D01*
Y27500D01*
G01X526000Y38200D02*
Y36000D01*
X522500Y32500D01*
G01X526000Y38200D02*
X518200D01*
X512500Y32500D01*
G01X536800Y40700D02*
X528500D01*
X526000Y38200D01*
G01X542500Y32500D02*
Y35000D01*
X536800Y40700D01*
G01X794800Y47194D02*
Y40800D01*
G01X858800Y47594D02*
Y40200D01*
G01X1055472Y126000D02*
Y118728D01*
X1067600Y106600D01*
Y99472D01*
G01X1064528Y129740D02*
X1058712D01*
X1058700Y129728D01*
X1056672D01*
X1055472Y128528D01*
Y126000D01*
G01X1067600Y73028D02*
Y68700D01*
G01X1077200Y96000D02*
X1069753D01*
X1069681Y95928D01*
X1067600D01*
G01X1105000Y84600D02*
X1067800D01*
X1062700Y89700D01*
Y96853D01*
X1065319Y99472D01*
X1067600D01*
G01X1086800Y122300D02*
Y116900D01*
X1083400Y113500D01*
X1069900D01*
X1064528Y118872D01*
Y122260D01*
G01Y129740D02*
X1077940D01*
X1086900Y138700D01*
Y146600D01*
G01X1095500Y48794D02*
Y40800D01*
X1095400Y40700D01*
Y36100D01*
G01X1095500Y55606D02*
Y62600D01*
G01X1105400Y48794D02*
Y36100D01*
G01Y55606D02*
X1102174D01*
X1100100Y57680D01*
Y60800D01*
G01X1117906Y84200D02*
X1123300D01*
G01X1111094D02*
X1107276D01*
X1106876Y84600D01*
X1105000D01*
G01X1138794Y84000D02*
X1131800D01*
G01X1145606D02*
X1145706Y84100D01*
X1151800D01*
G01D02*
X1155500Y87800D01*
Y109500D01*
G01D02*
X1181600D01*
X1186600Y104500D01*
Y99472D01*
G01X1155500Y109500D02*
X1146472Y118528D01*
Y125800D01*
G01X1155528Y122060D02*
Y117572D01*
X1158500Y114600D01*
X1175500D01*
X1178500Y117600D01*
Y122300D01*
G01X1178400Y146600D02*
Y139200D01*
X1168700Y129500D01*
X1158838D01*
X1158798Y129540D01*
X1155528D01*
G01D02*
X1147931D01*
X1146472Y128081D01*
Y125800D01*
G54D17*
X40960Y113800D03*
X48440D03*
X100440Y309100D03*
X92960D03*
X223940Y237200D03*
X216460D03*
X223140Y367900D03*
X215660D03*
X339140Y62900D03*
X331660D03*
X359040D03*
X351560D03*
X377640Y62600D03*
X370160D03*
X398860Y390000D03*
X406340D03*
G54D35*
X446900Y290764D03*
Y286836D03*
X444900Y338436D03*
Y342364D03*
X466600Y290764D03*
Y286836D03*
X460700Y290764D03*
Y286836D03*
X466300Y338436D03*
Y342364D03*
X450900Y338436D03*
Y342364D03*
X930900Y70736D03*
Y74664D03*
X937400Y70736D03*
Y74664D03*
X943600Y70836D03*
Y74764D03*
G54D44*
X684151Y460943D03*
X771251D03*
X859051D03*
X974151D03*
X1061951D03*
X1148851Y461143D03*
G54D26*
X110000Y551300D03*
X233800D03*
X357600D03*
X481400D03*
G54D54*
G01X60149Y431800D02*
X58900Y430551D01*
Y416980D01*
X63880Y412000D01*
X145180D01*
X149700Y407480D01*
Y400800D01*
G01X56250Y431800D02*
X57500Y430550D01*
Y416400D01*
X63300Y410600D01*
X144600D01*
X148300Y406900D01*
Y400800D01*
G01X465358Y372000D02*
X464118Y373240D01*
Y502660D01*
X465358Y503900D01*
G01X461778Y372000D02*
X463018Y373240D01*
Y502660D01*
X461778Y503900D01*
G01X512500Y52500D02*
X513950D01*
X514450Y53000D01*
Y91694D01*
X507400Y98744D01*
Y179660D01*
X506160Y180900D01*
G01X517500Y52500D02*
X516050D01*
X515550Y53000D01*
Y92150D01*
X508500Y99200D01*
Y179660D01*
X509740Y180900D01*
G01X512460Y315600D02*
X513700Y314360D01*
Y305344D01*
X516400Y302644D01*
Y217356D01*
X503800Y204756D01*
Y198480D01*
X502420Y197100D01*
G01X506000D02*
X504900Y198200D01*
Y204300D01*
X517500Y216900D01*
Y303100D01*
X514800Y305800D01*
Y314360D01*
X516040Y315600D01*
G01X518220Y40800D02*
X518960D01*
X519600Y41440D01*
Y45686D01*
X519450Y45836D01*
Y47000D01*
X518950Y47500D01*
X517500D01*
G01X521800Y40800D02*
X521340D01*
X520700Y41440D01*
Y46142D01*
X520550Y46292D01*
Y47000D01*
X521050Y47500D01*
X522500D01*
G01X527500Y52500D02*
X528950D01*
X529450Y53000D01*
Y92206D01*
X541300Y104056D01*
Y139960D01*
X540060Y141200D01*
G01X547500Y52500D02*
X545700Y54300D01*
Y70400D01*
X551500Y76200D01*
Y166060D01*
X552740Y167300D01*
G01X532500Y52500D02*
X531050D01*
X530550Y53000D01*
Y91750D01*
X542400Y103600D01*
Y139960D01*
X543640Y141200D01*
G01X542500Y52500D02*
X544600Y54600D01*
Y70856D01*
X550400Y76656D01*
Y166060D01*
X549160Y167300D01*
G01X557500Y52500D02*
X558800D01*
X559300Y53000D01*
Y84356D01*
X563317Y88373D01*
Y156277D01*
X562077Y157517D01*
G01X562500Y52500D02*
X561050D01*
X560400Y53150D01*
Y83900D01*
X564417Y87917D01*
Y156277D01*
X565657Y157517D01*
G01X581840Y39400D02*
X580600Y40640D01*
Y46242D01*
X580550Y46292D01*
Y47000D01*
X581050Y47500D01*
X582500D01*
G01X578260Y39400D02*
X579500Y40640D01*
Y45786D01*
X579450Y45836D01*
Y47000D01*
X578950Y47500D01*
X577500D01*
G01X634900Y290200D02*
X633688Y291412D01*
Y292388D01*
X635200Y293900D01*
X638044D01*
X639800Y292144D01*
Y170500D01*
X630900Y161600D01*
Y131000D01*
X627800Y127900D01*
X590400D01*
X587000Y124500D01*
Y107700D01*
X591000Y103700D01*
Y64056D01*
X589450Y62506D01*
Y53000D01*
X588950Y52500D01*
X587500D01*
G01X572500D02*
X573950D01*
X574450Y53000D01*
Y64706D01*
X580000Y70256D01*
Y90844D01*
X575400Y95444D01*
Y147860D01*
X574160Y149100D01*
G01X577500Y52500D02*
X576050D01*
X575550Y53000D01*
Y64250D01*
X581100Y69800D01*
Y91300D01*
X576500Y95900D01*
Y147860D01*
X577740Y149100D01*
G01X631320Y290200D02*
X632588Y291468D01*
Y292844D01*
X634744Y295000D01*
X638500D01*
X640900Y292600D01*
Y170044D01*
X632000Y161144D01*
Y130544D01*
X628256Y126800D01*
X590856D01*
X588100Y124044D01*
Y108156D01*
X592100Y104156D01*
Y63600D01*
X590550Y62050D01*
Y53000D01*
X591050Y52500D01*
X592500D01*
G01X624540Y280941D02*
X623300Y279701D01*
Y205600D01*
X620200Y202500D01*
X588700D01*
X584900Y198700D01*
Y141340D01*
X586140Y140100D01*
G01X620960Y280941D02*
X622200Y279701D01*
Y206056D01*
X619744Y203600D01*
X588244D01*
X583800Y199156D01*
Y141340D01*
X582560Y140100D01*
G01X593320Y38900D02*
X594560Y40140D01*
Y45726D01*
X594450Y45836D01*
Y47000D01*
X593950Y47500D01*
X592500D01*
G01X596900Y38900D02*
X595660Y40140D01*
Y46182D01*
X595550Y46292D01*
Y47000D01*
X596050Y47500D01*
X597500D01*
G01X607020Y39000D02*
Y39660D01*
X608400Y41040D01*
Y42856D01*
X609450Y43906D01*
Y47000D01*
X608950Y47500D01*
X607500D01*
G01X610600Y39000D02*
Y39940D01*
X609500Y41040D01*
Y42400D01*
X610550Y43450D01*
Y47000D01*
X611050Y47500D01*
X612500D01*
G01X597500Y32500D02*
X598950D01*
X599450Y33000D01*
Y37106D01*
X600400Y38056D01*
Y41760D01*
X599160Y43000D01*
G01X602500Y32500D02*
X601050D01*
X600550Y33000D01*
Y36650D01*
X601500Y37600D01*
Y41760D01*
X602740Y43000D01*
G01X615539Y105039D02*
X614207Y103707D01*
Y71007D01*
X605500Y62300D01*
Y54500D01*
X607500Y52500D01*
G01X611959Y105039D02*
X613107Y103891D01*
Y71463D01*
X604400Y62756D01*
Y54400D01*
X602500Y52500D01*
G01X627500Y47500D02*
X626050D01*
X625550Y47000D01*
Y45598D01*
X622200Y42248D01*
Y41540D01*
X623440Y40300D01*
G01X622500Y47500D02*
X623950D01*
X624450Y47000D01*
Y46054D01*
X621100Y42704D01*
Y41540D01*
X619860Y40300D01*
G01X630947Y117893D02*
X629707Y116653D01*
Y102907D01*
X620550Y93750D01*
Y53000D01*
X621050Y52500D01*
X622500D01*
G01X627367Y117893D02*
X628607Y116653D01*
Y103363D01*
X619450Y94206D01*
Y53000D01*
X618950Y52500D01*
X617500D01*
G01X626820Y207300D02*
X628400Y208880D01*
Y276020D01*
X627520Y276900D01*
G01X630400Y207300D02*
X629500Y208200D01*
Y275300D01*
X631100Y276900D01*
G01X641600Y41800D02*
X641240D01*
X640400Y42640D01*
Y45686D01*
X640550Y45836D01*
Y47000D01*
X641050Y47500D01*
X642500D01*
G01X638325Y41662D02*
Y41800D01*
X639300Y42775D01*
Y46142D01*
X639450Y46292D01*
Y47000D01*
X638950Y47500D01*
X637500D01*
G01X646800Y37800D02*
X645500Y36500D01*
Y34214D01*
X645550Y34164D01*
Y33000D01*
X646050Y32500D01*
X647500D01*
G01X643220Y37800D02*
X644400Y36620D01*
Y33758D01*
X644450Y33708D01*
Y33000D01*
X643950Y32500D01*
X642500D01*
G01X663660Y130000D02*
X664900Y128760D01*
Y89556D01*
X657300Y81956D01*
Y67056D01*
X649450Y59206D01*
Y53000D01*
X648950Y52500D01*
X647500D01*
G01X647249Y124611D02*
X648489Y123371D01*
Y108745D01*
X641200Y101456D01*
Y75156D01*
X634450Y68406D01*
Y53000D01*
X633950Y52500D01*
X632500D01*
G01X650829Y124611D02*
X649589Y123371D01*
Y108289D01*
X642300Y101000D01*
Y74700D01*
X635550Y67950D01*
Y53000D01*
X636050Y52500D01*
X637500D01*
G01X667240Y130000D02*
X666000Y128760D01*
Y89100D01*
X658400Y81500D01*
Y66600D01*
X650550Y58750D01*
Y53000D01*
X651050Y52500D01*
X652500D01*
G01X638640Y83400D02*
X637400Y84640D01*
Y86096D01*
X636200Y87296D01*
Y120000D01*
X643389Y127189D01*
Y154349D01*
X644629Y155589D01*
G01X641049D02*
X642289Y154349D01*
Y127645D01*
X635100Y120456D01*
Y86840D01*
X636300Y85640D01*
Y84640D01*
X635060Y83400D01*
G01X643343Y235350D02*
X644093Y236100D01*
Y236443D01*
X644940Y237290D01*
Y276235D01*
X643636Y277539D01*
G01X646850Y235350D02*
Y236302D01*
X646040Y237112D01*
Y276191D01*
X646540Y276691D01*
X646719D01*
X647143Y277115D01*
Y277539D01*
G01X655620Y39300D02*
Y39860D01*
X656900Y41140D01*
Y41848D01*
X654452Y44296D01*
Y46998D01*
X653950Y47500D01*
X652500D01*
G01X659200Y39300D02*
Y39940D01*
X658000Y41140D01*
Y42304D01*
X655552Y44752D01*
Y47000D01*
X656052Y47500D01*
X657500D01*
G01X663820Y42600D02*
X664522Y41898D01*
Y40678D01*
X659450Y35606D01*
Y33000D01*
X658950Y32500D01*
X657500D01*
G01X667400Y42600D02*
Y42000D01*
X660550Y35150D01*
Y33000D01*
X661050Y32500D01*
X662500D01*
G01X675240Y133800D02*
X674000Y132560D01*
Y75000D01*
X665550Y66550D01*
Y53000D01*
X666050Y52500D01*
X667500D01*
G01X671660Y133800D02*
X672900Y132560D01*
Y75456D01*
X664450Y67006D01*
Y53000D01*
X663950Y52500D01*
X662500D01*
G01X651476Y155700D02*
X652254Y154922D01*
X653104D01*
X654256Y153770D01*
X655430D01*
X656900Y152300D01*
Y91140D01*
X655660Y89900D01*
G01X655056Y155700D02*
X658000Y152756D01*
Y91140D01*
X659240Y89900D01*
G01X688260Y40400D02*
X689500Y41640D01*
Y45786D01*
X689450Y45836D01*
Y47000D01*
X688950Y47500D01*
X687500D01*
G01X691840Y40400D02*
X690600Y41640D01*
Y46242D01*
X690550Y46292D01*
Y47000D01*
X691050Y47500D01*
X692500D01*
G01X680760Y175100D02*
X682000Y173860D01*
Y70956D01*
X679450Y68406D01*
Y53000D01*
X678950Y52500D01*
X677500D01*
G01X684340Y175100D02*
X683100Y173860D01*
Y70500D01*
X680550Y67950D01*
Y53000D01*
X681050Y52500D01*
X682500D01*
G01X689260Y91500D02*
X690500Y92740D01*
Y187560D01*
X689360Y188700D01*
G01X692840Y91500D02*
X691600Y92740D01*
Y187360D01*
X692940Y188700D01*
G01X699100Y373500D02*
Y378700D01*
X698600Y379200D01*
X684900D01*
X683522Y377822D01*
Y376278D01*
X684700Y375100D01*
G01X680956D02*
X682422Y376566D01*
Y378278D01*
X684444Y380300D01*
X698600D01*
X699100Y380800D01*
Y386000D01*
G01X704860Y140200D02*
X706100Y141440D01*
Y198260D01*
X711200Y203360D01*
Y278060D01*
X709760Y279500D01*
G01X708440Y140200D02*
X707200Y141440D01*
Y197804D01*
X712300Y202904D01*
Y278460D01*
X713340Y279500D01*
G01X721920Y106000D02*
X723100Y107180D01*
Y273568D01*
X721960Y274708D01*
G01X725500Y106000D02*
X724200Y107300D01*
Y273368D01*
X725540Y274708D01*
G01X716320Y190900D02*
X717400Y191980D01*
Y281752D01*
X716252Y282900D01*
G01X719900Y190900D02*
X718500Y192300D01*
Y281752D01*
X719648Y282900D01*
G01X730393Y275400D02*
X731000D01*
X731600Y274800D01*
Y236000D01*
X730600Y235000D01*
X730293D01*
G01X733900Y275400D02*
X733200D01*
X732700Y274900D01*
Y236100D01*
X733800Y235000D01*
G01X771800Y374300D02*
X770622Y375478D01*
Y377322D01*
X772500Y379200D01*
X786000D01*
X786500Y378700D01*
Y373500D01*
G01X768056Y374300D02*
X769522Y375766D01*
Y377778D01*
X772044Y380300D01*
X786000D01*
X786500Y380800D01*
Y386000D01*
X786600D01*
G01X791819Y149630D02*
X793137Y150794D01*
X793210Y151963D01*
Y161366D01*
X798800Y166956D01*
Y276733D01*
X797560Y277973D01*
G01X810460Y116700D02*
X811700Y117940D01*
Y273260D01*
X810460Y274500D01*
G01X814040Y116700D02*
X812800Y117940D01*
Y273260D01*
X814040Y274500D01*
G01X801020Y149100D02*
X802200Y150280D01*
Y157356D01*
X804160Y159316D01*
Y282160D01*
X802920Y283400D01*
G01X804600Y149100D02*
X803300Y150400D01*
Y156900D01*
X805260Y158860D01*
Y282160D01*
X806500Y283400D01*
G01X795399Y149408D02*
X794235Y150726D01*
X794310Y151928D01*
Y160910D01*
X799900Y166500D01*
Y276733D01*
X801140Y277973D01*
G01X820994Y232493D02*
X820000Y233487D01*
Y273346D01*
X820500Y273846D01*
X821410D01*
X821607Y274043D01*
Y274044D01*
G01X817487Y232493D02*
X817694Y232700D01*
X817848D01*
X818900Y233752D01*
Y273500D01*
X818400Y274000D01*
X818144D01*
X818100Y274044D01*
G01X859744Y374800D02*
X858422Y376122D01*
Y377322D01*
X860300Y379200D01*
X880800D01*
X881300Y378700D01*
Y373500D01*
G01X856000Y374800D02*
X857322Y376122D01*
Y377778D01*
X859844Y380300D01*
X880800D01*
X881300Y380800D01*
Y386000D01*
G01X904700Y173300D02*
X903460Y174540D01*
Y185460D01*
X914700Y196700D01*
Y279876D01*
X915940Y281116D01*
G01X913000Y171700D02*
X911760Y172940D01*
Y177060D01*
X921600Y186900D01*
Y273460D01*
X922840Y274700D01*
G01X901120Y173300D02*
X902360Y174540D01*
Y185916D01*
X913600Y197156D01*
Y279876D01*
X912360Y281116D01*
G01X909420Y171700D02*
X910660Y172940D01*
Y177516D01*
X920500Y187356D01*
Y273460D01*
X919260Y274700D01*
G01X930040Y279400D02*
X928800Y278160D01*
Y124100D01*
X929514Y123386D01*
Y122086D01*
G01X925934D02*
Y122434D01*
X927700Y124200D01*
Y278160D01*
X926460Y279400D01*
G01X933297Y232703D02*
X934500Y233906D01*
Y280890D01*
X933293Y282097D01*
G01X936804Y232703D02*
X935600Y233907D01*
Y280897D01*
X936800Y282097D01*
G01X969000Y111500D02*
X967050D01*
X966550Y111000D01*
Y109950D01*
X966050Y109450D01*
X963350D01*
X960000Y106100D01*
Y93700D01*
X963000Y90700D01*
X969100D01*
X970600Y92200D01*
Y93460D01*
X971840Y94700D01*
G01X969000Y106300D02*
X967050D01*
X966550Y106800D01*
Y107850D01*
X966050Y108350D01*
X963806D01*
X961100Y105644D01*
Y94156D01*
X963456Y91800D01*
X968644D01*
X969500Y92656D01*
Y93460D01*
X968260Y94700D01*
G01X974700Y375200D02*
X973422Y376478D01*
Y377622D01*
X975000Y379200D01*
X988500D01*
X989000Y378700D01*
Y373500D01*
G01X970956Y375200D02*
X972322Y376566D01*
Y378078D01*
X974544Y380300D01*
X988500D01*
X989000Y380800D01*
Y386000D01*
G01X976000Y111500D02*
X977950D01*
X978450Y111000D01*
Y109950D01*
X978950Y109450D01*
X983550D01*
X985500Y111400D01*
Y114452D01*
X984352Y115600D01*
G01X987748D02*
X986600Y114452D01*
Y110944D01*
X984006Y108350D01*
X978950D01*
X978450Y107850D01*
Y106800D01*
X977950Y106300D01*
X976000D01*
G01X990240Y165460D02*
X989000Y166700D01*
Y174000D01*
X1001000Y186000D01*
Y274760D01*
X1002240Y276000D01*
G01X986660Y165460D02*
X987900Y166700D01*
Y174456D01*
X999900Y186456D01*
Y274760D01*
X998660Y276000D01*
G01X1014800Y273400D02*
X1013600Y272200D01*
Y127700D01*
X1012500Y126600D01*
G01X1011220Y273400D02*
X1012500Y272120D01*
Y130180D01*
X1008920Y126600D01*
G01X997060Y164100D02*
X998300Y165340D01*
Y173156D01*
X1007100Y181956D01*
Y281176D01*
X1005860Y282416D01*
G01X1000640Y164100D02*
X999400Y165340D01*
Y172700D01*
X1008200Y181500D01*
Y281176D01*
X1009440Y282416D01*
G01X1025000Y277100D02*
X1024700Y276800D01*
X1024400D01*
X1023900Y276300D01*
Y229900D01*
X1025106Y228694D01*
Y228402D01*
G01X1021493Y277100D02*
Y276807D01*
X1022000Y276300D01*
X1022300D01*
X1022800Y275800D01*
Y229924D01*
X1022000Y229124D01*
Y228803D01*
X1021599Y228402D01*
G01X1077100Y373500D02*
Y378300D01*
X1076600Y378800D01*
X1062800D01*
X1061222Y377222D01*
Y375722D01*
X1062144Y374800D01*
G01X1077100Y386000D02*
Y380800D01*
X1076200Y379900D01*
X1062344D01*
X1060122Y377678D01*
Y376522D01*
X1058400Y374800D01*
G01X1090660Y159800D02*
X1091900Y161040D01*
Y167856D01*
X1097000Y172956D01*
Y279720D01*
X1095760Y280960D01*
G01X1094240Y159800D02*
X1093000Y161040D01*
Y167400D01*
X1098100Y172500D01*
Y279720D01*
X1099340Y280960D01*
G01X1081560Y164500D02*
X1082800Y165740D01*
Y170656D01*
X1088300Y176156D01*
Y274560D01*
X1087060Y275800D01*
G01X1085140Y164500D02*
X1083900Y165740D01*
Y170200D01*
X1089400Y175700D01*
Y274560D01*
X1090640Y275800D01*
G01X1106925Y140595D02*
Y274960D01*
X1105685Y276200D01*
G01X1110740Y139500D02*
X1108855Y141385D01*
Y141395D01*
X1108025Y142225D01*
Y274960D01*
X1109265Y276200D01*
G01X1114700Y226400D02*
X1113200Y227900D01*
Y278900D01*
X1113700Y279400D01*
X1114500D01*
G01X1111193Y226400D02*
Y226900D01*
X1112100Y227807D01*
Y279000D01*
X1111700Y279400D01*
X1110993D01*
G01X1171200Y373500D02*
X1171243Y378701D01*
X1170747Y379204D01*
X1169586Y379213D01*
X1148622D01*
X1148122Y378713D01*
Y376678D01*
X1149500Y375300D01*
G01X1171300Y386000D02*
X1171257Y380799D01*
X1170753Y380304D01*
X1169591Y380313D01*
X1148166D01*
X1147022Y379169D01*
Y376566D01*
X1145756Y375300D01*
G54D18*
X44000Y532494D03*
Y544306D03*
X64000Y532494D03*
Y544306D03*
X84000Y532494D03*
Y544306D03*
G54D27*
X120000Y551300D03*
X243800D03*
X367600D03*
X491400D03*
G54D45*
X956475Y55803D03*
X1018325D03*
G54D36*
X456000Y228400D03*
X459507D03*
X485941Y230248D03*
X490000Y230800D03*
X501521Y236200D03*
X498014D03*
X643343Y235350D03*
X646850D03*
X643636Y277539D03*
X647143D03*
X730293Y235000D03*
X730393Y275400D03*
X733800Y235000D03*
X733900Y275400D03*
X820994Y232493D03*
X817487D03*
X821607Y274044D03*
X818100D03*
X933297Y232703D03*
X933293Y282097D03*
X936804Y232703D03*
X936800Y282097D03*
X1025106Y228402D03*
X1021599D03*
X1025000Y277100D03*
X1021493D03*
X1114700Y226400D03*
X1111193D03*
X1114500Y279400D03*
X1110993D03*
G54D55*
G01X20400Y170247D02*
X16379D01*
X16326Y170194D01*
X13300D01*
G01X25400Y167100D02*
X23547D01*
X20400Y170247D01*
G01X25700Y176100D02*
X23223D01*
X23170Y176153D01*
X20400D01*
G01D02*
X17179D01*
X16326Y177006D01*
X13300D01*
G01X20400Y176153D02*
Y184347D01*
G01Y190253D02*
X13647D01*
G01X28753Y130500D02*
Y122846D01*
X28628Y122721D01*
Y120640D01*
G01X26692Y181491D02*
X28700Y179483D01*
Y134700D01*
X28753Y134647D01*
Y130500D01*
G01X34500Y146894D02*
X39500D01*
G01X34500Y153706D02*
Y159700D01*
G01X61500Y270500D02*
Y282400D01*
X58847Y285053D01*
Y288900D01*
G01X58747Y295900D02*
X52800D01*
G01X149700Y400800D02*
X150500Y400000D01*
X155000D01*
G01X148300Y400800D02*
X147500Y400000D01*
X143000D01*
G01X91000Y255300D02*
X84400D01*
X76300Y263400D01*
G01X64753Y288900D02*
X68100D01*
X72206Y284794D01*
Y276906D01*
G01X64753Y288900D02*
Y293030D01*
X64653Y293130D01*
Y295900D01*
G01X76536Y361700D02*
X71200D01*
G01X80464D02*
X85100D01*
X88400Y358400D01*
G01X113200Y142100D02*
X103500D01*
X94300Y151300D01*
G01X82900Y233500D02*
Y235920D01*
X85974Y238994D01*
X89000D01*
G01X97594Y255300D02*
X91000D01*
G01X89000Y251400D02*
Y245806D01*
G01X83000Y283200D02*
X93047D01*
G01D02*
Y290054D01*
X93172Y290179D01*
Y292260D01*
G01X104406Y255300D02*
X110400D01*
G01X124700Y322000D02*
Y11800D01*
X127300Y9200D01*
X555050D01*
X559500Y13650D01*
Y15600D01*
G01X204200Y281800D02*
Y340100D01*
G01D02*
X205900Y341800D01*
X216047D01*
G01X215700Y161700D02*
X212800Y164600D01*
Y168394D01*
G01X215000Y183900D02*
X211800D01*
X208100Y187600D01*
Y230300D01*
G01X220394Y180700D02*
X216250D01*
X215000Y181950D01*
Y183900D01*
G01X212800Y180800D02*
Y175206D01*
G01X210900Y211700D02*
X212500Y210100D01*
X217047D01*
G01D02*
Y216604D01*
X216972Y216679D01*
Y218760D01*
G01X223940Y237200D02*
Y243140D01*
G01X227794Y255500D02*
X224600D01*
X222600Y253500D01*
G01X241900Y269100D02*
X217300D01*
G01X216047Y341800D02*
Y348454D01*
X216172Y348579D01*
Y350660D01*
G01X227206Y180700D02*
X235000D01*
G01X234606Y255500D02*
X241400D01*
G01X248794Y255600D02*
X245900D01*
X243700Y257800D01*
G01X255606Y255600D02*
X261000D01*
G01X272900Y274600D02*
Y171800D01*
G01X268500Y168288D02*
Y271600D01*
G01X272900Y274600D02*
Y463700D01*
G01X268600Y459700D02*
Y457750D01*
X268500Y457650D01*
Y271600D01*
G01X331650Y68700D02*
Y66566D01*
X331660Y66556D01*
Y62900D01*
G01X343000Y204700D02*
Y499300D01*
G01X360800Y19800D02*
Y13500D01*
X363200Y11100D01*
X487800D01*
X491500Y14800D01*
Y36600D01*
X494100Y39200D01*
X502700D01*
X507500Y44000D01*
Y47500D01*
G01X359040Y62900D02*
X364600D01*
G01X351550Y68800D02*
Y66566D01*
X351560Y66556D01*
Y62900D01*
G01X350500Y404300D02*
Y378750D01*
X350543Y378707D01*
Y160357D01*
X360257Y150643D01*
X421543D01*
G01X353918Y494100D02*
Y163382D01*
X360500Y156800D01*
X413900D01*
G01X396800Y527600D02*
Y507900D01*
X392600Y503700D01*
X362600D01*
X357225Y498325D01*
Y165975D01*
X361561Y161639D01*
X411361D01*
G01X402400Y540600D02*
Y506600D01*
X396200Y500400D01*
X363701D01*
X359821Y496520D01*
Y169779D01*
X363100Y166500D01*
X400100D01*
G01X389600Y172200D02*
X365200D01*
X362800Y174600D01*
Y334200D01*
X369250Y340650D01*
X397850D01*
X417900Y320600D01*
X431900D01*
X434000Y318500D01*
X438900D01*
G01X364400Y479653D02*
Y485200D01*
G01X377640Y62600D02*
X384800D01*
G01X370250Y68900D02*
Y66346D01*
X370160Y66256D01*
Y62600D01*
G01X373300Y356300D02*
Y379000D01*
X378400Y384100D01*
Y389300D01*
X379940Y390840D01*
X382728D01*
G01X373672Y387100D02*
X369700D01*
X367600Y389200D01*
G01X376847Y398900D02*
X370900D01*
G01X382728Y390840D02*
Y396105D01*
X382753Y396130D01*
Y398900D01*
G01X370400Y473747D02*
Y448399D01*
X377200Y441599D01*
Y434552D01*
X379852Y431900D01*
X384000D01*
G01X383900Y445800D02*
X379600D01*
X376300Y449100D01*
Y473747D01*
G01X382400D02*
Y467700D01*
X383800Y466300D01*
Y459700D01*
G01X370400Y479653D02*
Y485200D01*
G01X382400Y479653D02*
Y485200D01*
G01X376300Y479653D02*
Y485200D01*
G01X396447Y264000D02*
X391300D01*
G01X405728Y252240D02*
X413460D01*
G01X396447Y273100D02*
Y278847D01*
G01X423700Y443257D02*
Y428700D01*
X399300Y404300D01*
G01X397900Y418000D02*
X412600Y432700D01*
Y458700D01*
X424300Y470400D01*
Y473747D01*
G01X397900Y445800D02*
X406300Y454200D01*
Y463100D01*
X412800Y469600D01*
Y473747D01*
G01X397900Y431900D02*
X409400Y443400D01*
Y460000D01*
X418500Y469100D01*
Y473747D01*
G01X407000D02*
Y468800D01*
X397900Y459700D01*
G01X407000Y479653D02*
Y485200D01*
G01X413664Y117400D02*
Y122036D01*
G01X409736Y117400D02*
Y105636D01*
X408800Y104700D01*
G01X420628Y117800D02*
Y122328D01*
G01X425900Y106200D02*
Y113991D01*
X424172Y115719D01*
Y117800D01*
G01X413664Y130800D02*
Y126364D01*
G01X409736Y130800D02*
Y142564D01*
X408800Y143500D01*
G01X425028Y323300D02*
X420800D01*
G01X421300Y329145D02*
X423045Y327400D01*
X425028D01*
G01X420328Y450300D02*
X415800D01*
G01X420328Y455700D02*
X415800D01*
G01X423872Y450300D02*
X426300D01*
X429300Y447300D01*
G01X423872Y455700D02*
X427300D01*
X432200Y450800D01*
G01X412800Y479653D02*
Y485200D01*
G01X418500Y479653D02*
Y485200D01*
G01X424300Y479653D02*
Y485200D01*
G01X428400Y258200D02*
Y250400D01*
X429300Y249500D01*
Y60400D01*
G01X431900Y261400D02*
Y259350D01*
X431800Y259250D01*
Y67400D01*
G01X441872Y119800D02*
Y123928D01*
G01X435400Y107000D02*
Y114000D01*
X438328Y116928D01*
Y119800D01*
G01X446000Y155400D02*
X443100Y158300D01*
Y303710D01*
X439200Y307610D01*
G01X437900Y252300D02*
Y156141D01*
X443441Y150600D01*
G01X440400Y301200D02*
X431900Y292700D01*
Y261400D01*
G01X428400Y258200D02*
Y288700D01*
G01X439100Y304100D02*
X437600Y305600D01*
X436500D01*
G01X439100Y304100D02*
X436000Y301000D01*
X428164D01*
G01Y305600D02*
X436500D01*
G01X428572Y323300D02*
X435219D01*
X436428Y322091D01*
X438378D01*
G01X428572Y327400D02*
X437300D01*
X439400Y325300D01*
G01X449236Y119400D02*
Y123400D01*
G01X453164Y119400D02*
Y109036D01*
X455600Y106600D01*
G01X449236Y131200D02*
Y127400D01*
G01X453164Y131200D02*
Y140564D01*
X455300Y142700D01*
G01X448802Y301153D02*
X454700D01*
G01X459300Y301200D02*
X457350D01*
X457303Y301153D01*
X454700D01*
G01X465300Y328100D02*
X463424D01*
X463374Y328050D01*
X453000D01*
G01X468336Y455700D02*
Y460664D01*
G01X467900Y508800D02*
X472728D01*
G01X456736Y540100D02*
Y545300D01*
G01X460616Y535684D02*
Y537802D01*
X460664Y537850D01*
Y540100D01*
G01X465100Y537300D02*
X476500D01*
X479800Y534000D01*
X484836D01*
G01X479072Y440600D02*
X482700D01*
G01X478900Y435580D02*
X481920D01*
X481940Y435600D01*
X490647D01*
G01X475528Y440600D02*
X469400D01*
G01X490647Y441000D02*
X486500D01*
X483639Y438139D01*
X472361D01*
G01X472264Y455700D02*
Y452786D01*
X472400Y452650D01*
Y450700D01*
G01X476272Y508800D02*
Y504400D01*
G01X482847Y541700D02*
X476500D01*
G01X488764Y534000D02*
Y538919D01*
X488753Y538930D01*
Y541700D01*
G01X501300Y541747D02*
X491570D01*
X491523Y541700D01*
X488753D01*
G01X507500Y32500D02*
Y37100D01*
G01X502500Y27500D02*
Y24800D01*
X500500Y22800D01*
G01X507500Y52500D02*
Y55400D01*
X509700Y57600D01*
G01X502500Y47500D02*
Y42800D01*
G01X505637Y299700D02*
Y303879D01*
X504706Y304810D01*
Y307900D01*
G01X512200Y299700D02*
X505637D01*
G01X504706Y312800D02*
Y307900D01*
G01X504100Y416147D02*
Y410500D01*
G01X497200Y416147D02*
Y410700D01*
G01X490300Y416147D02*
Y410700D01*
G01X522000Y446300D02*
X519066Y443366D01*
Y439266D01*
X510100Y430300D01*
X494100D01*
X490300Y426500D01*
Y422053D01*
G01X504100D02*
X510547D01*
X514100Y418500D01*
X522000D01*
G01X497200Y422053D02*
Y425700D01*
X499800Y428300D01*
X511199D01*
X515299Y432400D01*
X522000D01*
G01X496600Y448300D02*
Y445844D01*
X496553Y445797D01*
Y441000D01*
G01Y435600D02*
X501700D01*
G01X515747Y470500D02*
X508900D01*
G01X501300Y547653D02*
X495047D01*
X491400Y551300D01*
G01X512500Y27500D02*
Y25200D01*
X510300Y23000D01*
G01X522500Y27500D02*
X525000Y30000D01*
G01X517500Y32500D02*
X514900Y29900D01*
G01X527500Y47500D02*
Y45300D01*
X525400Y43200D01*
G01X512500Y47500D02*
Y44100D01*
X514100Y42500D01*
G01X522500Y52500D02*
Y55200D01*
X524600Y57300D01*
G01X522000Y460200D02*
Y467383D01*
X521653Y467730D01*
Y470500D01*
G01X530843Y114600D02*
Y116550D01*
X530900Y116607D01*
Y383700D01*
X535000Y387800D01*
X573900D01*
X576700Y390600D01*
Y467900D01*
X571400Y473200D01*
X550100D01*
X546100Y469200D01*
Y457900D01*
X541800Y453600D01*
X528600D01*
X522000Y460200D01*
G01X537500Y27500D02*
Y23900D01*
X536200Y22600D01*
G01X532500Y27500D02*
Y23600D01*
X531400Y22500D01*
G01X532500Y32500D02*
Y34900D01*
X534200Y36600D01*
G01X542500Y27500D02*
Y25100D01*
X544600Y23000D01*
G01X547500Y27500D02*
Y24900D01*
X549300Y23100D01*
G01X552500Y47500D02*
Y44500D01*
X548700Y40700D01*
G01X544429Y40929D02*
X547500Y44000D01*
Y47500D01*
G01X537500Y52500D02*
Y55200D01*
X539400Y57100D01*
G01X541300Y43200D02*
X542500Y44400D01*
Y47500D01*
G01X534584Y103700D02*
Y355484D01*
X537631Y358531D01*
X579131D01*
X582700Y362100D01*
Y475300D01*
X576200Y481800D01*
X537800D01*
G01X568700Y457647D02*
Y422200D01*
X565200Y418700D01*
X534700D01*
G01X561500Y457647D02*
Y435400D01*
X558700Y432600D01*
X534700D01*
G01X554400Y457647D02*
Y449700D01*
X551200Y446500D01*
X534700D01*
G01Y460400D02*
Y464548D01*
X534647Y464601D01*
Y470600D01*
G01X540553D02*
X543900D01*
X545900Y472600D01*
G01X562500Y27500D02*
Y22100D01*
X561900Y21500D01*
G01X572500Y47500D02*
Y45300D01*
X565700Y38500D01*
G01X562500Y32500D02*
X558300Y36700D01*
X556500D01*
G01X557500Y27500D02*
Y24850D01*
X557100Y24450D01*
Y22500D01*
G01X571650Y36650D02*
X567500Y32500D01*
G01Y27500D02*
Y24600D01*
X565200Y22300D01*
G01X553800Y22800D02*
X552500Y24100D01*
Y27500D01*
G01X559500Y40400D02*
X562560D01*
X567500Y45340D01*
Y47500D01*
G01X557500D02*
Y44500D01*
X555800Y42800D01*
G01X565430Y56730D02*
X567500Y54660D01*
Y52500D01*
G01X552500D02*
X556500Y56500D01*
G01X561500Y463553D02*
Y468900D01*
G01X568700Y463553D02*
Y468900D01*
G01X554400Y463553D02*
Y468900D01*
G01X582500Y27500D02*
Y24700D01*
X584100Y23100D01*
G01X577500Y27500D02*
Y24400D01*
X576000Y22900D01*
G01X577500Y32500D02*
X579900Y34900D01*
Y36000D01*
G01X585100Y37600D02*
Y35100D01*
X582500Y32500D01*
G01X588000Y41300D02*
Y36400D01*
X587500Y35900D01*
Y32500D01*
G01X575100Y38200D02*
Y35100D01*
X572500Y32500D01*
G01X570700Y22400D02*
Y25700D01*
X572500Y27500D01*
G01X587500Y47500D02*
X591600Y43400D01*
Y42300D01*
G01X582500Y52500D02*
X585800Y55800D01*
Y57800D01*
G01X612500Y27500D02*
Y24700D01*
X609700Y21900D01*
G01X602500Y27500D02*
Y25000D01*
X604400Y23100D01*
G01X597500Y27500D02*
Y23600D01*
X598600Y22500D01*
G01X592500Y32500D02*
Y34700D01*
X591000Y36200D01*
G01X604300Y36300D02*
X606300D01*
X607500Y35100D01*
Y32500D01*
G01X597500Y52500D02*
Y56700D01*
X598400Y57600D01*
G01X602500Y47500D02*
X605950Y44050D01*
G01X628100Y21600D02*
Y24740D01*
X627500Y25340D01*
Y27500D01*
G01X622500D02*
Y25000D01*
X624400Y23100D01*
G01X617500Y27500D02*
Y24900D01*
X615200Y22600D01*
G01X622500Y32500D02*
X620200Y30200D01*
G01X612500Y32500D02*
Y34900D01*
X616600Y39000D01*
G01X636300Y39300D02*
X630600D01*
X627500Y36200D01*
Y32500D01*
G01X617500D02*
Y35500D01*
X618800Y36800D01*
X621900D01*
G01X617500Y47500D02*
Y43900D01*
X618200Y43200D01*
G01X625000Y57500D02*
Y55000D01*
X627500Y52500D01*
G01X612500D02*
X615300Y55300D01*
Y57100D01*
X617400Y59200D01*
G01X612100Y216900D02*
Y314400D01*
X619200Y321500D01*
X621850D01*
G01X617000Y214500D02*
Y312900D01*
X620600Y316500D01*
X623500D01*
X625600Y318600D01*
Y321500D01*
G01X621850Y311300D02*
Y307250D01*
X624300Y304800D01*
G01X629300Y316094D02*
Y318098D01*
X629350Y318148D01*
Y321500D01*
G01Y311300D02*
X633400D01*
G01X625412Y327888D02*
X621850Y324326D01*
Y321500D01*
G01X628600Y327500D02*
X625600Y324500D01*
Y321500D01*
G01X633400Y311300D02*
Y329300D01*
X631100Y331600D01*
X617400D01*
X614700Y334300D01*
Y426000D01*
X617600Y428900D01*
X639700D01*
X643800Y424800D01*
G01X631694Y366300D02*
X625900D01*
G01X631694Y360000D02*
X628500D01*
X626100Y357600D01*
G01X631694Y378800D02*
X626000D01*
G01X631694Y372600D02*
X625900D01*
G01X625663Y406900D02*
Y409763D01*
X628800Y412900D01*
G01X625994Y396200D02*
Y390894D01*
G01X623547Y424800D02*
Y420253D01*
G01X629453Y424800D02*
Y419700D01*
G01X635100Y21900D02*
X632500Y24500D01*
Y27500D01*
G01X647100Y17900D02*
Y24940D01*
X647500Y25340D01*
Y27500D01*
G01X642500D02*
Y24400D01*
X644200Y22700D01*
G01X637500Y27500D02*
Y24000D01*
X639200Y22300D01*
G01X637500Y32500D02*
X640100Y29900D01*
G01X638300Y36800D02*
X634400D01*
X632500Y34900D01*
Y32500D01*
G01X647500Y47500D02*
Y43900D01*
X648300Y43100D01*
G01X642500Y52500D02*
Y56200D01*
X643700Y57400D01*
G01X632500Y47500D02*
X635000Y50000D01*
X635500D01*
G01X644647Y300500D02*
X639400D01*
G01X650572Y306700D02*
Y303215D01*
X650553Y303196D01*
Y300500D01*
G01D02*
Y291047D01*
G01X647028Y306700D02*
X638000D01*
X633400Y311300D01*
G01X645200Y342894D02*
X651500D01*
G01X642800Y354000D02*
X644400D01*
X645200Y353200D01*
Y349706D01*
G01X655200Y353600D02*
X652600Y356200D01*
X648416D01*
X648383Y356233D01*
X646617D01*
X646584Y356200D01*
X641700D01*
X640000Y354500D01*
X636372D01*
G01X688300Y317187D02*
X682713D01*
X680700Y319200D01*
Y344500D01*
X665900Y359300D01*
X651199D01*
X645752Y364747D01*
X643000D01*
G01X643800Y358900D02*
X642700Y360000D01*
X638506D01*
G01Y366300D02*
Y360000D01*
G01X684550Y332600D02*
Y343350D01*
X668100Y359800D01*
Y375700D01*
X665000Y378800D01*
X648464D01*
X645032Y382232D01*
G01X638506Y378800D02*
Y372600D01*
G01D02*
X643000D01*
X643700Y373300D01*
G01X632806Y396200D02*
Y390506D01*
G01X633537Y406900D02*
Y410837D01*
X635300Y412600D01*
G01X645494Y460400D02*
Y465094D01*
G01X650588Y480088D02*
Y482333D01*
X650600Y482345D01*
Y484328D01*
G01X646900Y480200D02*
Y484328D01*
G01X650600Y487872D02*
X654200D01*
G01X646900D02*
X650600D01*
G01X646900D02*
X642728D01*
G01X652500Y27500D02*
Y22200D01*
X656500Y18200D01*
G01X667500Y32500D02*
Y35600D01*
X666000Y37100D01*
G01X657500Y27500D02*
Y24300D01*
X656200Y23000D01*
G01X652500Y32500D02*
X656400Y36400D01*
G01X657500Y52500D02*
X660900Y55900D01*
Y56600D01*
G01X660400Y42700D02*
Y45400D01*
X662500Y47500D01*
G01X672500Y52500D02*
Y55900D01*
X670700Y57700D01*
G01X659547Y300400D02*
X654700D01*
G01X665428Y306400D02*
Y303121D01*
X665453Y303096D01*
Y300400D01*
G01D02*
Y291147D01*
G01X668972Y306400D02*
X690150D01*
X690200Y306350D01*
X692150D01*
G01X661500Y343094D02*
X656994D01*
X656000Y342100D01*
G01X668100Y343094D02*
X675100D01*
G01X651500Y342894D02*
X651559D01*
X654800Y339653D01*
Y338100D01*
G01X663121Y354200D02*
X661500Y352579D01*
Y349906D01*
G01X668100D02*
Y354100D01*
G01X659200Y383500D02*
X656900Y385800D01*
Y387794D01*
G01X664900Y382900D02*
X663200Y384600D01*
Y387794D01*
G01Y394606D02*
Y400800D01*
G01X656900Y394606D02*
Y400900D01*
G01X667106Y460500D02*
Y465194D01*
G01X660294Y460500D02*
Y455500D01*
G01X652306Y460400D02*
Y455594D01*
G01X653738Y480200D02*
X654200Y480662D01*
Y484328D01*
G01X666336Y480436D02*
Y484292D01*
X666300Y484328D01*
G01Y487872D02*
X662128D01*
G01X654200D02*
X657928D01*
G01X677500Y47500D02*
Y43000D01*
X676500Y42000D01*
G01X687500Y32500D02*
Y35900D01*
X686400Y37000D01*
G01X682500Y27500D02*
Y24500D01*
X684400Y22600D01*
G01X677500Y27500D02*
Y23600D01*
X675900Y22000D01*
G01X672500Y32500D02*
Y34900D01*
X674700Y37100D01*
G01X682500Y47500D02*
Y44200D01*
X684000Y42700D01*
G01X687500Y52500D02*
Y55100D01*
X685400Y57200D01*
G01X681200Y207400D02*
X688900Y215100D01*
Y280300D01*
G01X691700Y211700D02*
X696700Y216700D01*
Y314000D01*
X693513Y317187D01*
X688300D01*
G01X684550Y321500D02*
Y332600D01*
G01X688300Y321500D02*
Y317187D01*
G01X684550Y311300D02*
X679200D01*
G01X696700Y209500D02*
X700200Y213000D01*
Y330400D01*
X698100Y332500D01*
X684650D01*
X684550Y332600D01*
G01X673400Y357800D02*
X679094D01*
G01X672700Y361200D02*
X675800Y364300D01*
X679094D01*
G01X682294Y396700D02*
Y392206D01*
X683500Y391000D01*
G01X689106Y396700D02*
Y390194D01*
G01X689137Y407600D02*
Y414500D01*
G01X688553Y424800D02*
Y420353D01*
G01X681263Y407600D02*
Y414337D01*
G01X682647Y424800D02*
Y418353D01*
G01X704500Y16600D02*
Y25500D01*
X697500Y32500D01*
G01Y47500D02*
Y43600D01*
X696100Y42200D01*
G01X692500Y32500D02*
Y35400D01*
X694000Y36900D01*
G01X697500Y27500D02*
Y24600D01*
X696000Y23100D01*
G01X698200Y201700D02*
X703300Y206800D01*
Y318200D01*
X706600Y321500D01*
X708950D01*
G01X701300Y197600D02*
X706520Y202820D01*
Y315220D01*
X708500Y317200D01*
X711300D01*
X712700Y318600D01*
Y321500D01*
G01X708950Y311300D02*
Y307250D01*
X711400Y304800D01*
G01X692050Y326500D02*
Y321500D01*
G01X712512Y327888D02*
X708950Y324326D01*
Y321500D01*
G01X692050Y311300D02*
Y308400D01*
X692150Y308300D01*
Y306350D01*
G01X720700Y311300D02*
Y331700D01*
X717700Y334700D01*
X702600D01*
G01X711223Y358452D02*
X708000Y361675D01*
Y380300D01*
X715800Y388100D01*
X724301D01*
X744831Y408630D01*
Y420400D01*
G01X747600Y420300D02*
Y408700D01*
X725570Y386670D01*
X716470D01*
X709700Y379900D01*
Y364300D01*
X711500Y362500D01*
G01X710647Y424800D02*
Y420053D01*
G01X715700Y139800D02*
Y99200D01*
G01X731747Y300500D02*
X726500D01*
G01X716450Y321500D02*
Y318350D01*
X714400Y316300D01*
G01X716450Y311300D02*
X720700D01*
G01X734128Y306700D02*
X725300D01*
X720700Y311300D01*
G01X715700Y327500D02*
X712700Y324500D01*
Y321500D01*
G01X732300Y342894D02*
X738600D01*
G01X719928Y354500D02*
X715100D01*
G01X718794Y366300D02*
X713000D01*
G01X729800Y354300D02*
X731200D01*
X732300Y353200D01*
Y349706D01*
G01X718794Y360000D02*
X714596D01*
X713700Y359104D01*
Y357100D01*
G01X742300Y353600D02*
X739467Y356433D01*
X728917D01*
X726984Y354500D01*
X723472D01*
G01X730100Y364747D02*
X732852D01*
X738299Y359300D01*
X753500D01*
X768100Y344700D01*
Y319000D01*
X770100Y317000D01*
X775400D01*
G01X730900Y358900D02*
X729800Y360000D01*
X725606D01*
G01Y366300D02*
Y360000D01*
G01X718794Y378800D02*
X713100D01*
G01X718794Y372600D02*
X713000D01*
G01X725606Y378800D02*
Y372600D01*
G01D02*
X729600D01*
X730400Y373400D01*
G01X719906Y396200D02*
Y390506D01*
G01X712763Y406900D02*
Y411463D01*
X714900Y413600D01*
G01X713094Y396200D02*
Y393106D01*
X715600Y390600D01*
G01X720637Y406900D02*
Y413837D01*
G01X716553Y424800D02*
Y418347D01*
G01X734100Y487872D02*
X730328D01*
G01X742200Y197600D02*
Y67800D01*
X754100Y55900D01*
X757000D01*
G01X747200Y207400D02*
Y69100D01*
G01X744700Y73800D02*
Y201700D01*
G01X750100Y209500D02*
Y64700D01*
G01X746647Y300400D02*
X741800D01*
G01X752528Y306400D02*
Y303121D01*
X752553Y303096D01*
Y300400D01*
G01D02*
Y291147D01*
G01X737672Y306700D02*
Y303215D01*
X737653Y303196D01*
Y300500D01*
G01D02*
Y291047D01*
G01X738600Y342894D02*
X738659D01*
X741900Y339653D01*
Y338100D01*
G01X738600Y349706D02*
Y352608D01*
X737108Y354100D01*
X734600D01*
G01X771600Y332600D02*
Y343800D01*
X755200Y360200D01*
Y375700D01*
X752100Y378800D01*
X736800D01*
X733300Y382300D01*
G01X746300Y383500D02*
X744000Y385800D01*
Y387794D01*
G01X752000Y382900D02*
X750300Y384600D01*
Y387794D01*
G01Y394606D02*
Y400800D01*
G01X744000Y394606D02*
Y400900D01*
G01X732694Y460400D02*
Y465700D01*
G01X747094Y460400D02*
Y454394D01*
G01X739506Y460400D02*
Y455000D01*
G01X737688Y479888D02*
Y482333D01*
X737700Y482345D01*
Y484328D01*
G01X741300Y480300D02*
Y484328D01*
G01X734000Y479900D02*
Y482245D01*
X734100Y482345D01*
Y484328D01*
G01Y487872D02*
X737700D01*
G01D02*
X741300D01*
G01D02*
X744572D01*
G01X753400D02*
X749528D01*
G01X763800Y53500D02*
X769100Y58800D01*
Y283100D01*
X787600Y301600D01*
Y328800D01*
X783700Y332700D01*
X771700D01*
X771600Y332600D01*
G01X761300Y50200D02*
Y68800D01*
X762300Y69800D01*
Y294400D01*
X767300Y299400D01*
X781000D01*
X784200Y302600D01*
Y314900D01*
X782100Y317000D01*
X775400D01*
G01X772600Y217200D02*
Y82700D01*
G01X765879Y289900D02*
Y81000D01*
G01X753000Y212200D02*
Y67300D01*
G01X758800Y216900D02*
Y72200D01*
G01X755800Y214500D02*
Y69700D01*
G01X771600Y332600D02*
Y324376D01*
X771650Y324326D01*
Y321500D01*
G01Y311300D02*
X766300D01*
G01X779150Y306500D02*
X777200D01*
X777100Y306400D01*
X756072D01*
G01X773006Y357800D02*
Y352300D01*
G01Y364300D02*
Y369400D01*
G01X760500Y357800D02*
X766194D01*
G01X759800Y361200D02*
X762900Y364300D01*
X766194D01*
G01X769394Y396700D02*
Y392506D01*
X770800Y391100D01*
G01X768363Y407600D02*
Y414337D01*
G01X769847Y424800D02*
Y418347D01*
G01X753906Y460400D02*
Y465594D01*
G01X753436Y480264D02*
Y482309D01*
X753400Y482345D01*
Y484328D01*
G01X786300Y33500D02*
Y176000D01*
X790800Y180500D01*
Y317850D01*
X794450Y321500D01*
X796750D01*
G01X800500D02*
Y318600D01*
X798400Y316500D01*
X796100D01*
X793400Y313800D01*
Y179200D01*
X788979Y174779D01*
Y36000D01*
G01X783400Y207300D02*
Y82700D01*
G01X775600Y214200D02*
Y76600D01*
G01X779200Y210000D02*
Y86300D01*
G01X779150Y321500D02*
Y326700D01*
G01X775400Y317000D02*
Y321500D01*
G01X779150Y311300D02*
Y306500D01*
G01X808200Y311300D02*
Y330100D01*
X806100Y332200D01*
X790300D01*
G01X776206Y396700D02*
Y390194D01*
G01X776237Y407600D02*
Y414300D01*
G01X775753Y424800D02*
Y420353D01*
G01X810300Y27247D02*
Y24100D01*
X812600Y21800D01*
G01X822100Y18300D02*
X793500D01*
G01X804700Y22900D02*
Y31700D01*
X806153Y33153D01*
X810300D01*
G01X809414Y40900D02*
Y36809D01*
X810300Y35923D01*
Y33153D01*
G01X794800Y54006D02*
Y61500D01*
G01X796750Y311300D02*
Y307250D01*
X799200Y304800D01*
G01X804250Y321500D02*
Y318350D01*
X802200Y316300D01*
G01X821928Y306700D02*
X815700D01*
X811100Y311300D01*
X808200D01*
G01X804250D02*
X808200D01*
G01X800312Y327888D02*
X796750Y324326D01*
Y321500D01*
G01X803500Y327500D02*
X800500Y324500D01*
Y321500D01*
G01X807728Y354500D02*
X802900D01*
G01X806594Y366300D02*
X800800D01*
G01X799700Y355800D02*
X801137Y357237D01*
X803890D01*
X806594Y359941D01*
Y360000D01*
G01X830100Y353600D02*
X827300Y356400D01*
X816800D01*
X814900Y354500D01*
X811272D01*
G01X813406Y366300D02*
Y360000D01*
G01X817900Y359200D02*
X817100Y360000D01*
X813406D01*
G01X798491Y358832D02*
X796321Y361002D01*
Y380821D01*
X803600Y388100D01*
X812777D01*
X832631Y407954D01*
Y419500D01*
G01X798500Y362900D02*
Y380900D01*
X804270Y386670D01*
X813370D01*
X835400Y408700D01*
Y419400D01*
G01X806594Y378800D02*
X800900D01*
G01X806594Y372600D02*
X800800D01*
G01X813406Y378800D02*
Y372600D01*
G01D02*
X817200D01*
X818100Y373500D01*
G01X800563Y406900D02*
Y413100D01*
G01X807706Y396200D02*
Y390506D01*
G01X800894Y396200D02*
Y390894D01*
G01X808437Y406900D02*
Y413837D01*
G01X798447Y424800D02*
Y420353D01*
G01X804353Y424800D02*
Y418347D01*
G01X863700Y32853D02*
X855953D01*
X841400Y18300D01*
X822100D01*
G01D02*
Y31401D01*
X820348Y33153D01*
X816800D01*
G01Y27247D02*
Y22400D01*
G01Y33153D02*
Y40500D01*
X817900Y41600D01*
Y51300D01*
G01X833300Y203800D02*
Y67600D01*
G01X830800Y62600D02*
Y260100D01*
X869500Y298800D01*
Y314500D01*
X867300Y316700D01*
X863200D01*
G01X834447Y300400D02*
X829600D01*
G01X819547Y300500D02*
X814300D01*
G01X825472Y306700D02*
Y303215D01*
X825453Y303196D01*
Y300500D01*
G01D02*
Y291047D01*
G01X836400Y343094D02*
X831894D01*
X830900Y342100D01*
G01X826400Y342894D02*
X826459D01*
X829700Y339653D01*
Y338100D01*
G01X820100Y342894D02*
X826400D01*
G01Y349706D02*
Y352608D01*
X824908Y354100D01*
X822400D01*
G01X817800D02*
X819200D01*
X820100Y353200D01*
Y349706D01*
G01X863200Y316700D02*
X858300D01*
X856700Y318300D01*
Y343500D01*
X840800Y359400D01*
X826499D01*
X821152Y364747D01*
X820620D01*
X820547Y364820D01*
X818597D01*
G01X859400Y334000D02*
Y343400D01*
X843000Y359800D01*
Y375700D01*
X839900Y378800D01*
X823500D01*
X819600Y382700D01*
G01X834100Y383500D02*
X831800Y385800D01*
Y387794D01*
G01Y394606D02*
Y400900D01*
G01X820794Y460400D02*
Y465706D01*
G01X827606Y460400D02*
Y455100D01*
G01X825500Y480500D02*
Y480600D01*
X825200Y480900D01*
Y484328D01*
G01X828800D02*
Y480500D01*
G01X822400D02*
X821500Y481400D01*
Y484328D01*
G01X825200Y487872D02*
X828800D01*
G01D02*
X832872D01*
G01X821500D02*
X825200D01*
G01X821500D02*
X817728D01*
G01X840200Y196900D02*
Y80700D01*
G01X843900Y193900D02*
Y77100D01*
X839600Y72800D01*
G01X836100Y200200D02*
Y70200D01*
G01X853700Y268200D02*
Y217200D01*
G01X840328Y306400D02*
Y303121D01*
X840353Y303096D01*
Y300400D01*
G01D02*
Y291147D01*
G01X859450Y311300D02*
X854100D01*
G01X843872Y306400D02*
X864900D01*
X865000Y306300D01*
X866950D01*
G01X843000Y343094D02*
X847194D01*
X848500Y344400D01*
G01X838021Y354300D02*
X837521Y353800D01*
X837401D01*
X836400Y352799D01*
Y349906D01*
G01X843000D02*
Y354000D01*
G01X839800Y382900D02*
X838100Y384600D01*
Y387794D01*
G01Y394606D02*
Y400800D01*
G01X841706Y460500D02*
X844800D01*
X847200Y462900D01*
G01X834900Y455000D02*
Y457542D01*
X834894Y457548D01*
Y460500D01*
G01X841200Y484328D02*
Y480300D01*
G01Y487872D02*
X837028D01*
G01X863700Y26947D02*
Y21600D01*
G01X870700Y26947D02*
Y21700D01*
G01Y32853D02*
Y37100D01*
X873300Y39700D01*
G01X863700Y32853D02*
Y49000D01*
X866943Y52243D01*
X882143D01*
G01X858800Y54406D02*
Y60500D01*
G01X863100Y188000D02*
Y82400D01*
G01X859600Y67500D02*
Y263100D01*
X872600Y276100D01*
Y330100D01*
X868700Y334000D01*
X859400D01*
G01X867000Y191400D02*
Y189450D01*
X867600Y188850D01*
Y85000D01*
G01X866950Y321500D02*
Y326700D01*
G01X859400Y334000D02*
Y324376D01*
X859450Y324326D01*
Y321500D01*
G01X863200Y316700D02*
Y321500D01*
G01X866950Y306300D02*
Y311300D01*
G01X860600Y389200D02*
X859182Y390618D01*
Y391686D01*
X857194Y393674D01*
Y396700D01*
G01X864006D02*
Y390194D01*
G01X864037Y407600D02*
Y414200D01*
G01X863453Y424800D02*
Y420453D01*
G01X856163Y407600D02*
Y414337D01*
G01X857547Y424800D02*
Y418353D01*
G01X884300Y184900D02*
Y75700D01*
G01X881000Y182100D02*
Y83750D01*
X880800Y83550D01*
Y81600D01*
G01X888400Y179600D02*
Y72700D01*
G01X892800Y176900D02*
Y68500D01*
G01X918580Y173600D02*
Y87300D01*
X907590Y76310D01*
G01X904800Y203800D02*
X907700Y206700D01*
Y319750D01*
X909450Y321500D01*
X911750D01*
G01X905300Y200200D02*
X909200Y204100D01*
Y315400D01*
X910600Y316800D01*
X913700D01*
X915500Y318600D01*
Y321500D01*
G01X911750Y311300D02*
Y307250D01*
X914200Y304800D01*
G01X915312Y327888D02*
X911750Y324326D01*
Y321500D01*
G01X922800Y311300D02*
Y328400D01*
X919800Y331400D01*
X904800D01*
G01X950400Y418600D02*
Y408700D01*
X928200Y386500D01*
X919100D01*
X913500Y380900D01*
Y362400D01*
G01X947631Y418400D02*
Y407954D01*
X927777Y388100D01*
X918600D01*
X911400Y380900D01*
Y360400D01*
X913100Y358700D01*
G01X913547Y424800D02*
Y420447D01*
G01X922200Y170500D02*
Y86700D01*
X920400Y84900D01*
G01X934547Y300500D02*
X929300D01*
G01X919250Y321500D02*
Y318350D01*
X917200Y316300D01*
G01X919250Y311300D02*
X922800D01*
G01X936928Y306700D02*
X927400D01*
X922800Y311300D01*
G01X918500Y327500D02*
X915500Y324500D01*
Y321500D01*
G01X935100Y342894D02*
X941400D01*
G01X922728Y354500D02*
X917900D01*
G01X921594Y366300D02*
X915800D01*
G01X921594Y360000D02*
X918300D01*
X915700Y357400D01*
G01X932800Y354000D02*
X934300D01*
X935100Y353200D01*
Y349706D01*
G01X945100Y353600D02*
X942400Y356300D01*
X931700D01*
X929900Y354500D01*
X926272D01*
G01X978200Y317000D02*
X973600D01*
X971500Y319100D01*
Y344000D01*
X956100Y359400D01*
X941099D01*
X935752Y364747D01*
X932900D01*
G01X928406Y366300D02*
Y360000D01*
G01X933300Y358500D02*
X931800Y360000D01*
X928406D01*
G01X921594Y378800D02*
X915900D01*
G01X921594Y372600D02*
X915800D01*
G01X928406Y378800D02*
Y372600D01*
G01D02*
X933400D01*
G01X922706Y396200D02*
Y390506D01*
G01X915563Y406900D02*
Y413300D01*
G01X915894Y396200D02*
Y390894D01*
G01X923437Y406900D02*
Y413837D01*
G01X919453Y424800D02*
Y418353D01*
G01X932728Y487872D02*
X936500D01*
G01X949447Y300400D02*
X944600D01*
G01X955328Y306400D02*
Y303121D01*
X955353Y303096D01*
Y300400D01*
G01D02*
Y291147D01*
G01X940472Y306700D02*
Y303215D01*
X940453Y303196D01*
Y300500D01*
G01D02*
Y291047D01*
G01X941400Y342894D02*
X941459D01*
X944700Y339653D01*
Y338100D01*
G01X941400Y349706D02*
Y352608D01*
X939908Y354100D01*
X937400D01*
G01X953021Y354300D02*
X951400Y352679D01*
Y349906D01*
G01X974400Y331400D02*
Y343500D01*
X958000Y359900D01*
Y375700D01*
X954900Y378800D01*
X939800D01*
X935800Y382800D01*
G01X954800Y382900D02*
X953100Y384600D01*
Y387794D01*
G01X949100Y383500D02*
X946800Y385800D01*
Y387794D01*
G01X953100Y394606D02*
Y400800D01*
G01X946800Y394606D02*
Y400900D01*
G01X935794Y460400D02*
Y465706D01*
G01X949900Y455000D02*
Y457542D01*
X949894Y457548D01*
Y460500D01*
G01X942606Y460400D02*
Y455100D01*
G01X940500Y480500D02*
Y480600D01*
X940200Y480900D01*
Y484328D01*
G01X943800D02*
Y480500D01*
G01X937400D02*
X936500Y481400D01*
Y484328D01*
G01X952028Y487872D02*
X956200D01*
G01X936500D02*
X940200D01*
G01X943800D02*
X947872D01*
G01X940200D02*
X943800D01*
G01X972500Y102000D02*
Y107500D01*
X971100Y108900D01*
X969000D01*
G01X972800Y115300D02*
Y110000D01*
X973900Y108900D01*
X976000D01*
G01X973300Y214200D02*
Y223700D01*
X973400Y223800D01*
Y277300D01*
G01X974400Y331400D02*
Y324376D01*
X974450Y324326D01*
Y321500D01*
G01Y311300D02*
X969100D01*
G01X981875Y306425D02*
X979925D01*
X979900Y306400D01*
X958872D01*
G01X985700Y197100D02*
Y283600D01*
X989300Y287200D01*
Y329100D01*
X987000Y331400D01*
X974400D01*
G01X975806Y357800D02*
Y352300D01*
G01Y364300D02*
Y369300D01*
G01X963300Y357800D02*
X968994D01*
G01X962600Y361200D02*
X965700Y364300D01*
X968994D01*
G01X958000Y349906D02*
Y354200D01*
G01X972194Y396700D02*
Y392206D01*
X973600Y390800D01*
G01X971163Y407600D02*
Y414337D01*
G01X972747Y424800D02*
Y418347D01*
G01X962200Y462900D02*
X959800Y460500D01*
X956706D01*
G01X956200Y484328D02*
Y480300D01*
G01X993100Y191400D02*
Y317350D01*
X997250Y321500D01*
X999550D01*
G01X993600Y188000D02*
X995300Y189700D01*
Y313700D01*
X998500Y316900D01*
X1001900D01*
X1003300Y318300D01*
Y321500D01*
G01X981000Y193900D02*
Y287000D01*
X985100Y291100D01*
Y314700D01*
X982800Y317000D01*
X978200D01*
G01X981950Y321500D02*
Y326450D01*
G01X978200Y321500D02*
Y317000D01*
G01X981950Y311300D02*
Y306500D01*
X981875Y306425D01*
G01X1010800Y311300D02*
Y328300D01*
X1007200Y331900D01*
X993100D01*
G01X979006Y396700D02*
Y392306D01*
X977800Y391100D01*
G01X979037Y407600D02*
Y411563D01*
X976800Y413800D01*
G01X978653Y424800D02*
Y420147D01*
G01X1029600Y72572D02*
Y74600D01*
X1025405Y78795D01*
X1004900D01*
G01X999550Y311300D02*
Y307250D01*
X1002000Y304800D01*
G01X1007050Y321500D02*
Y318350D01*
X1005000Y316300D01*
G01X1003112Y327888D02*
X999550Y324326D01*
Y321500D01*
G01X1006300Y327500D02*
X1003300Y324500D01*
Y321500D01*
G01X1007050Y311300D02*
X1010800D01*
G01X1024728Y306700D02*
X1015400D01*
X1010800Y311300D01*
G01X1010528Y354500D02*
X1005700D01*
G01X1009394Y366300D02*
X1003600D01*
G01X1009394Y360000D02*
X1006800D01*
X1003900Y357100D01*
G01X1014072Y354500D02*
X1017700D01*
X1019200Y356000D01*
X1019584D01*
X1019817Y356233D01*
X1030267D01*
X1032900Y353600D01*
G01X1016206Y366300D02*
Y360000D01*
G01X1021750Y358650D02*
X1020400Y360000D01*
X1016206D01*
G01X1000600Y362100D02*
Y380200D01*
X1007100Y386700D01*
X1015800D01*
X1038200Y409100D01*
Y419300D01*
G01X1000400Y359000D02*
X997600Y361800D01*
Y379223D01*
X1006507Y388130D01*
X1015207D01*
X1035431Y408354D01*
Y419300D01*
G01X1009394Y378800D02*
X1003700D01*
G01X1009394Y372600D02*
X1003600D01*
G01X1016206Y378800D02*
Y372600D01*
G01D02*
X1020200D01*
X1021000Y373400D01*
G01X1010506Y396200D02*
Y390506D01*
G01X1003363Y406900D02*
Y413200D01*
G01X1003694Y396200D02*
Y390894D01*
G01X1011237Y406900D02*
Y413837D01*
G01X1001347Y424800D02*
Y420247D01*
G01X1007253Y424800D02*
Y418353D01*
G01X1029600Y69028D02*
X1035005D01*
X1035039Y68994D01*
X1038000D01*
G01X1037247Y300400D02*
X1032400D01*
G01X1022347Y300500D02*
X1017100D01*
G01X1028272Y306700D02*
Y303215D01*
X1028253Y303196D01*
Y300500D01*
G01D02*
Y291047D01*
G01X1039200Y343094D02*
X1034694D01*
X1033700Y342100D01*
G01X1029200Y342894D02*
X1029259D01*
X1032500Y339653D01*
Y338100D01*
G01X1022900Y342894D02*
X1029200D01*
G01Y349706D02*
Y352608D01*
X1027708Y354100D01*
X1025200D01*
G01X1020600Y354000D02*
X1022100D01*
X1022900Y353200D01*
Y349706D01*
G01X1020700Y364747D02*
X1023252D01*
X1028699Y359300D01*
X1043800D01*
X1059500Y343600D01*
Y318501D01*
X1061301Y316700D01*
X1066000D01*
G01X1062200Y331000D02*
Y343500D01*
X1045800Y359900D01*
Y375700D01*
X1042700Y378800D01*
X1027900D01*
X1023900Y382800D01*
G01X1036900Y383500D02*
X1034600Y385800D01*
Y387794D01*
G01Y394606D02*
Y400900D01*
G01X1023594Y460400D02*
Y465706D01*
G01X1030406Y460400D02*
Y455100D01*
G01X1025200Y480500D02*
X1024300Y481400D01*
Y484328D01*
G01X1028300Y480500D02*
Y480600D01*
X1028000Y480900D01*
Y484328D01*
G01X1031600D02*
Y480500D01*
G01X1028000Y487872D02*
X1031600D01*
G01D02*
X1035672D01*
G01X1024300D02*
X1028000D01*
G01X1024300D02*
X1020528D01*
G01X1038000Y75806D02*
Y81600D01*
G01X1043128Y306400D02*
Y303121D01*
X1043153Y303096D01*
Y300400D01*
G01D02*
Y291147D01*
G01X1062250Y311300D02*
X1056900D01*
G01X1069975Y306525D02*
X1067825D01*
X1067700Y306400D01*
X1046672D01*
G01X1045800Y343094D02*
X1049994D01*
X1051300Y344400D01*
G01X1051100Y357800D02*
X1056794D01*
G01X1050400Y361200D02*
X1053500Y364300D01*
X1056794D01*
G01X1045800Y349906D02*
Y354200D01*
G01X1041011Y354390D02*
X1039200Y352579D01*
Y349906D01*
G01X1042600Y382900D02*
X1040900Y384600D01*
Y387794D01*
G01Y394606D02*
Y401300D01*
G01X1044506Y460500D02*
X1047600D01*
X1050000Y462900D01*
G01X1037700Y455000D02*
Y457542D01*
X1037694Y457548D01*
Y460500D01*
G01X1044000Y484328D02*
Y480300D01*
G01Y487872D02*
X1039828D01*
G01X1077200Y76500D02*
X1069753D01*
X1069681Y76572D01*
X1067600D01*
G01X1067200Y182100D02*
Y286900D01*
X1072400Y292100D01*
Y314900D01*
X1070600Y316700D01*
X1066000D01*
G01X1086450Y321100D02*
X1082900D01*
X1080600Y318800D01*
Y183600D01*
X1076600Y179600D01*
G01X1072500Y184900D02*
Y286700D01*
X1075300Y289500D01*
Y329100D01*
X1073300Y331100D01*
X1062300D01*
X1062200Y331000D01*
G01X1060900Y284100D02*
Y209900D01*
G01X1069750Y321500D02*
Y326550D01*
G01X1062200Y331000D02*
X1062250Y330950D01*
Y321500D01*
G01X1066000Y316700D02*
Y321500D01*
G01X1069750Y311300D02*
Y306750D01*
X1069975Y306525D01*
G01X1063606Y357800D02*
Y352600D01*
G01Y364300D02*
Y369300D01*
G01X1059994Y396700D02*
Y390000D01*
G01X1066806Y396700D02*
Y390194D01*
G01X1066837Y407600D02*
Y414300D01*
G01X1066453Y424800D02*
Y420247D01*
G01X1058963Y407600D02*
Y414337D01*
G01X1060547Y424800D02*
Y418347D01*
G01X1124900Y99500D02*
X1090700D01*
X1087200Y96000D01*
G01X1090200Y321100D02*
Y317216D01*
X1087884Y314900D01*
X1084800D01*
X1082600Y312700D01*
Y179100D01*
X1080400Y176900D01*
G01X1086450Y310900D02*
Y306850D01*
X1088900Y304400D01*
G01X1093950Y310900D02*
X1098000D01*
G01X1111628Y306300D02*
X1102600D01*
X1098000Y310900D01*
G01X1093950Y321100D02*
Y317250D01*
X1092200Y315500D01*
G01X1090012Y327488D02*
X1086450Y323926D01*
Y321100D01*
G01X1093200Y327100D02*
X1090200Y324100D01*
Y321100D01*
G01X1098000Y310900D02*
Y329200D01*
X1095000Y332200D01*
X1079900D01*
G01X1097428Y354100D02*
X1092600D01*
G01X1096294Y365900D02*
X1090500D01*
G01X1096294Y359600D02*
X1092800D01*
X1089700Y356500D01*
G01X1122300Y418425D02*
Y407499D01*
X1102501Y387700D01*
X1093300D01*
X1084400Y378800D01*
Y360500D01*
X1087100Y357800D01*
G01X1087300Y361200D02*
Y379600D01*
X1093970Y386270D01*
X1103094D01*
X1123761Y406937D01*
Y406961D01*
X1125100Y408300D01*
Y419800D01*
G01X1096294Y378400D02*
X1090600D01*
G01X1096294Y372200D02*
X1090500D01*
G01X1090263Y413437D02*
Y406500D01*
G01X1097406Y395800D02*
Y390906D01*
G01X1090594Y395800D02*
Y392406D01*
X1092200Y390800D01*
G01X1088247Y424800D02*
Y419847D01*
G01X1094153Y424800D02*
Y418347D01*
G01X1117806Y107400D02*
X1124100D01*
G01X1105950Y105650D02*
X1107700Y107400D01*
X1110994D01*
G01X1109247Y300100D02*
X1104000D01*
G01X1115172Y306300D02*
Y302815D01*
X1115153Y302796D01*
Y300100D01*
G01D02*
Y290647D01*
G01X1109800Y342494D02*
X1116100D01*
G01D02*
X1116159D01*
X1119400Y339253D01*
Y337700D01*
G01X1116100Y349306D02*
Y352208D01*
X1114608Y353700D01*
X1112100D01*
G01X1107300D02*
X1108900D01*
X1109800Y352800D01*
Y349306D01*
G01X1119800Y353200D02*
X1117100Y355900D01*
X1106400D01*
X1104600Y354100D01*
X1100972D01*
G01X1152900Y316006D02*
X1148394D01*
X1146300Y318100D01*
Y343000D01*
X1130500Y358800D01*
X1119300D01*
X1113753Y364347D01*
X1107600D01*
G01X1103106Y365900D02*
Y359600D01*
G01X1108400Y358500D02*
X1107300Y359600D01*
X1103106D01*
G01X1149100Y330200D02*
Y343100D01*
X1132700Y359500D01*
Y375300D01*
X1129600Y378400D01*
X1114000D01*
X1110400Y382000D01*
G01X1103106Y378400D02*
Y372200D01*
G01D02*
X1107600D01*
X1108100Y372700D01*
G01X1098137Y406500D02*
Y413363D01*
G01X1110494Y460400D02*
Y465706D01*
G01X1117306Y460400D02*
Y455100D01*
G01X1115200Y480500D02*
Y480600D01*
X1114900Y480900D01*
Y484328D01*
G01X1112100Y480500D02*
X1111200Y481400D01*
Y484328D01*
G01X1114900Y487872D02*
X1118500D01*
G01X1111200D02*
X1114900D01*
G01X1111200D02*
X1107428D01*
G01X1169700Y46800D02*
X1158600Y31100D01*
X1140400D01*
X1135400Y36100D01*
G01X1138594Y107100D02*
X1134500D01*
X1133200Y105800D01*
G01X1124147Y300000D02*
X1119300D01*
G01X1130028Y306000D02*
Y302721D01*
X1130053Y302696D01*
Y300000D01*
G01D02*
Y290747D01*
G01X1156650Y306000D02*
X1133572D01*
G01X1138000Y357400D02*
X1143694D01*
G01X1137300Y360800D02*
X1140400Y363900D01*
X1143694D01*
G01X1126100Y349506D02*
X1126150Y349558D01*
X1126160Y352139D01*
X1127721Y353700D01*
G01X1132700Y349506D02*
Y353600D01*
G01X1123800Y383100D02*
X1121500Y385400D01*
Y387394D01*
G01X1129500Y382500D02*
X1127800Y384200D01*
Y387394D01*
G01X1121500Y394206D02*
Y400500D01*
G01X1127800Y394206D02*
Y400400D01*
G01X1131406Y460500D02*
X1134500D01*
X1136900Y462900D01*
G01X1124600Y455000D02*
Y457542D01*
X1124594Y457548D01*
Y460500D01*
G01X1118500Y484328D02*
Y480500D01*
G01X1130900Y484328D02*
Y480300D01*
G01Y487872D02*
X1126728D01*
G01X1118500D02*
X1122572D01*
G01X1169800Y59600D02*
X1150800Y36100D01*
X1145400D01*
G01X1145406Y107100D02*
X1151200D01*
G01X1148100Y282000D02*
Y207300D01*
G01X1156650Y310900D02*
Y306000D01*
G01Y321100D02*
Y326250D01*
G01X1149150Y321100D02*
Y330150D01*
X1149100Y330200D01*
G01X1159900Y170500D02*
Y173250D01*
X1159870Y173280D01*
Y314430D01*
X1158300Y316000D01*
X1152906D01*
X1152900Y316006D01*
G01Y321100D02*
Y316006D01*
G01X1149150Y310900D02*
X1143800D01*
G01X1149100Y330200D02*
X1166400D01*
X1169800Y326800D01*
Y233500D01*
X1164200Y227900D01*
Y173600D01*
G01X1150506Y363900D02*
Y369000D01*
G01Y357400D02*
Y351900D01*
G01X1146894Y396300D02*
Y394006D01*
X1149700Y391200D01*
G01X1153737Y407200D02*
Y411963D01*
X1151800Y413900D01*
G01X1153706Y396300D02*
Y391206D01*
G01X1145863Y407200D02*
Y413937D01*
G01X1153353Y424800D02*
Y421947D01*
X1155000Y420300D01*
G01X1147447Y424800D02*
Y418347D01*
G01X1186700Y76472D02*
X1182728D01*
X1182700Y76500D01*
X1178300D01*
G01X1186600Y95928D02*
X1182872D01*
X1182800Y96000D01*
X1178400D01*
G01X1186700Y72928D02*
Y69100D01*
G54D19*
X29900Y538400D03*
X98100D03*
G54D28*
X133974Y38800D03*
G54D46*
X971278Y27811D03*
X961239D03*
X1013561D03*
X1003522D03*
G54D37*
X507500Y27500D03*
X502500D03*
X507500Y32500D03*
X502500D03*
X507500Y47500D03*
X502500D03*
X507500Y52500D03*
X502500D03*
X527500Y27500D03*
X522500D03*
X517500D03*
X512500D03*
X527500Y32500D03*
X522500D03*
X517500D03*
X512500D03*
X527500Y47500D03*
X522500D03*
X517500D03*
X512500D03*
X527500Y52500D03*
X522500D03*
X517500D03*
X512500D03*
X547500Y27500D03*
X542500D03*
X537500D03*
X532500D03*
X547500Y32500D03*
X542500D03*
X537500D03*
X532500D03*
X547500Y47500D03*
X542500D03*
X537500D03*
X532500D03*
X547500Y52500D03*
X542500D03*
X537500D03*
X532500D03*
X567500Y27500D03*
X562500D03*
X557500D03*
X552500D03*
X567500Y32500D03*
X562500D03*
X557500D03*
X552500D03*
X567500Y47500D03*
X562500D03*
X557500D03*
X552500D03*
X567500Y52500D03*
X562500D03*
X557500D03*
X552500D03*
X587500Y27500D03*
X582500D03*
X577500D03*
X572500D03*
X587500Y32500D03*
X582500D03*
X577500D03*
X572500D03*
X587500Y47500D03*
X582500D03*
X577500D03*
X572500D03*
X587500Y52500D03*
X582500D03*
X577500D03*
X572500D03*
X607500Y27500D03*
X602500D03*
X597500D03*
X592500D03*
X607500Y32500D03*
X602500D03*
X597500D03*
X592500D03*
X607500Y47500D03*
X602500D03*
X597500D03*
X592500D03*
X607500Y52500D03*
X602500D03*
X597500D03*
X592500D03*
X627500Y27500D03*
X622500D03*
X617500D03*
X612500D03*
X627500Y32500D03*
X622500D03*
X617500D03*
X612500D03*
X627500Y47500D03*
X622500D03*
X617500D03*
X612500D03*
X627500Y52500D03*
X622500D03*
X617500D03*
X612500D03*
X652500Y27500D03*
X647500D03*
X642500D03*
X637500D03*
X632500D03*
X652500Y32500D03*
X647500D03*
X642500D03*
X637500D03*
X632500D03*
X652500Y47500D03*
X647500D03*
X642500D03*
X637500D03*
X632500D03*
X652500Y52500D03*
X647500D03*
X642500D03*
X637500D03*
X632500D03*
X672500Y27500D03*
X667500D03*
X662500D03*
X657500D03*
X672500Y32500D03*
X667500D03*
X662500D03*
X657500D03*
X672500Y47500D03*
X667500D03*
X662500D03*
X657500D03*
X672500Y52500D03*
X667500D03*
X662500D03*
X657500D03*
X692500Y27500D03*
X687500D03*
X682500D03*
X677500D03*
X692500Y32500D03*
X687500D03*
X682500D03*
X677500D03*
X692500Y47500D03*
X687500D03*
X682500D03*
X677500D03*
X692500Y52500D03*
X687500D03*
X682500D03*
X677500D03*
X697500Y27500D03*
Y32500D03*
Y47500D03*
Y52500D03*
G54D56*
G01X156128Y208200D02*
X150400D01*
G01X156028Y279000D02*
X152200D01*
G01X156028Y337400D02*
X152000D01*
G01X168300Y223772D02*
Y227600D01*
G01X172300Y223772D02*
Y227500D01*
G01X176300Y223772D02*
Y227600D01*
G01X180300Y223772D02*
Y227600D01*
G01X181600Y215400D02*
X180400Y216600D01*
Y218219D01*
X180300Y218319D01*
Y220228D01*
G01X168300Y292672D02*
Y296800D01*
G01X172300Y292672D02*
Y296800D01*
G01X176200Y292672D02*
Y296900D01*
G01X180100Y292672D02*
Y296900D01*
G01X168100Y353272D02*
Y358200D01*
G01X172100Y353272D02*
Y358200D01*
G01X176100Y353272D02*
Y358100D01*
G01X180100Y353272D02*
Y358200D01*
G01X192172Y208000D02*
X196600D01*
G01X192072Y278900D02*
X195900D01*
G01X191872Y337500D02*
X196000D01*
G01X424236Y301000D02*
X419300D01*
G01X424236Y305600D02*
X421276D01*
X420876Y306000D01*
X419000D01*
G01X446900Y286836D02*
Y283200D01*
G01X448500Y301200D02*
X446900Y299600D01*
Y290764D01*
G01X448212Y347688D02*
X446885Y346361D01*
X446821D01*
X444900Y344440D01*
Y342364D01*
G01Y338436D02*
Y329100D01*
X443150Y327350D01*
G01X466600Y286836D02*
Y283200D01*
G01X460700Y286836D02*
Y283200D01*
G01X448500Y301200D02*
X448755D01*
X448802Y301153D01*
G01X460700Y290764D02*
Y299800D01*
X459300Y301200D01*
G01X463600Y301400D02*
X466600Y298400D01*
Y290764D01*
G01X475636Y313600D02*
X466576D01*
X466492Y313516D01*
X464616D01*
G01X475736Y325300D02*
X464700D01*
G01X471398Y344702D02*
X469060Y342364D01*
X466300D01*
G01X450900D02*
Y346700D01*
G01X466300Y338436D02*
Y335600D01*
X465300Y334600D01*
Y328100D01*
G01X453000Y328050D02*
X450900Y330150D01*
Y338436D01*
G01X479564Y299800D02*
X484200D01*
G01X475636D02*
Y295300D01*
G01X483525Y313975D02*
X483150Y313600D01*
X479564D01*
G01X483800Y325300D02*
X479664D01*
G01X497763Y300094D02*
Y299700D01*
G01X504606Y291600D02*
X508224D01*
X508324Y291700D01*
X510200D01*
G01X497763Y295921D02*
X497794Y295890D01*
G01X497894Y307900D02*
Y312900D01*
G01X640700Y322400D02*
X649800D01*
G01X636400Y326701D02*
Y335300D01*
G01X727800Y322400D02*
X736900D01*
G01X723500Y326701D02*
Y335300D01*
G01X748600Y349906D02*
X748866Y350172D01*
Y352833D01*
X750221Y354200D01*
G01X755200Y349906D02*
Y354100D01*
G01X811300Y326701D02*
Y335300D01*
G01X815600Y322400D02*
X824700D01*
G01X848300Y357800D02*
X853994D01*
G01X847600Y361200D02*
X850700Y364300D01*
X853994D01*
G01X930900Y74664D02*
X916864D01*
X908600Y66400D01*
G01X930900Y70736D02*
Y67000D01*
G01X930953Y80900D02*
X937447D01*
G01X930953D02*
Y76793D01*
X930900Y76740D01*
Y74664D01*
G01X930600Y322400D02*
X939700D01*
G01X926300Y326701D02*
Y335300D01*
G01X937400Y70736D02*
Y67000D01*
G01X943600Y70836D02*
Y67000D01*
G01X943353Y80900D02*
X949100D01*
G01X964900Y78795D02*
X960300D01*
X956269Y74764D01*
X943600D01*
G01X937400Y74664D02*
X941324D01*
X941424Y74764D01*
X943600D01*
G01X937447Y80900D02*
Y76787D01*
X937400Y76740D01*
Y74664D01*
G01X1014100Y326701D02*
Y335300D01*
G01X1018400Y322400D02*
X1027500D01*
G01X1105300Y322000D02*
X1114400D01*
G01X1101000Y326301D02*
Y334900D01*
G54D47*
X964900Y43795D03*
X1009900D03*
G54D29*
X152084Y38800D03*
G54D38*
X492953Y52008D03*
X707047Y40000D03*
G54D57*
G01X163763Y208037D02*
X161753D01*
X161590Y208200D01*
X159672D01*
G01X163737Y278937D02*
X161553D01*
X161490Y279000D01*
X159572D01*
G01X163737Y337437D02*
X161527D01*
X161490Y337400D01*
X159572D01*
G01X177500Y216300D02*
X176300Y217500D01*
Y220228D01*
G01X171500Y216000D02*
X172331Y216831D01*
Y218279D01*
X172300Y218310D01*
Y220228D01*
G01X168200Y216000D02*
Y218210D01*
X168300Y218310D01*
Y220228D01*
G01X181200Y285500D02*
X180100Y286600D01*
Y289128D01*
G01X167700Y285200D02*
Y286100D01*
X168300Y286700D01*
Y289128D01*
G01X177100Y286100D02*
Y288228D01*
X176200Y289128D01*
G01X171000Y285800D02*
Y287828D01*
X172300Y289128D01*
G01X180233Y344700D02*
Y347677D01*
X180100Y347810D01*
Y349728D01*
G01X177100Y345300D02*
Y348728D01*
X176100Y349728D01*
G01X167467Y345200D02*
Y347177D01*
X168100Y347810D01*
Y349728D01*
G01X170800Y345700D02*
Y348428D01*
X172100Y349728D01*
G01X188628Y208000D02*
X186100D01*
X184500Y209600D01*
Y211600D01*
G01X188528Y278900D02*
X185915D01*
X184800Y280015D01*
Y281900D01*
G01X188328Y337500D02*
X184915D01*
X184400Y338015D01*
Y339800D01*
G01X384000Y418000D02*
X377500D01*
X362400Y433100D01*
Y469042D01*
X364400Y471042D01*
Y473747D01*
G01X537800Y481800D02*
X534647Y478647D01*
Y470600D01*
G01X632828Y354500D02*
X628000D01*
G01X651500Y349706D02*
Y352608D01*
X650008Y354100D01*
X647500D01*
G01X685906Y357800D02*
Y352500D01*
G01Y364300D02*
Y369400D01*
G01X748600Y343094D02*
X744094D01*
X743100Y342100D01*
G01X755200Y343094D02*
X759394D01*
X760700Y344400D01*
G01X860806Y357800D02*
Y352800D01*
G01Y364300D02*
Y369500D01*
G01X925047Y80900D02*
X922147Y78000D01*
X919200D01*
G01X951400Y343094D02*
X946894D01*
X945900Y342100D01*
G01X958000Y343094D02*
X962194D01*
X963500Y344400D01*
G01X1132700Y342694D02*
X1136894D01*
X1138200Y344000D01*
G01X1126100Y342694D02*
X1121594D01*
X1120600Y341700D01*
G54D39*
X621850Y311300D03*
X629350D03*
Y321500D03*
X625600D03*
X621850D03*
X684550Y311300D03*
X692050D03*
Y321500D03*
X688300D03*
X684550D03*
X708950Y311300D03*
X712700Y321500D03*
X708950D03*
X716450Y311300D03*
Y321500D03*
X771650Y311300D03*
Y321500D03*
X779150Y311300D03*
Y321500D03*
X775400D03*
X796750Y311300D03*
X804250D03*
Y321500D03*
X800500D03*
X796750D03*
X859450Y311300D03*
X866950D03*
Y321500D03*
X863200D03*
X859450D03*
X911750Y311300D03*
X915500Y321500D03*
X911750D03*
X919250Y311300D03*
Y321500D03*
X974450Y311300D03*
Y321500D03*
X981950Y311300D03*
Y321500D03*
X978200D03*
X999550Y311300D03*
X1007050D03*
Y321500D03*
X1003300D03*
X999550D03*
X1062250Y311300D03*
X1069750D03*
Y321500D03*
X1066000D03*
X1062250D03*
X1086450Y310900D03*
X1093950D03*
Y321100D03*
X1090200D03*
X1086450D03*
X1149150Y310900D03*
X1156650D03*
Y321100D03*
X1152900D03*
X1149150D03*
G54D48*
X974900Y78795D03*
X969900Y68795D03*
X994900Y78795D03*
X989900Y68795D03*
X984900Y78795D03*
X979900Y68795D03*
X1004900Y78795D03*
X999900Y68795D03*
X1009900D03*
G54D49*
X964900Y78795D03*
M02*
