G04 ================== begin FILE IDENTIFICATION RECORD ==================*
G04 Layout Name:  C:/SPB_DATA/GPS_INTERFACE_BOARD/allegro/GPS_INTERFACE_BOARDv35.brd*
G04 Film Name:    Paste_Bottom*
G04 File Format:  Gerber RS274X*
G04 File Origin:  Cadence Allegro 17.2-S064*
G04 Origin Date:  Mon Jul 06 13:38:39 2020*
G04 *
G04 Layer:  VIA CLASS/PASTEMASK_BOTTOM*
G04 Layer:  PIN/PASTEMASK_BOTTOM*
G04 Layer:  PACKAGE GEOMETRY/PASTEMASK_BOTTOM*
G04 *
G04 Offset:    (0.00 0.00)*
G04 Mirror:    No*
G04 Mode:      Positive*
G04 Rotation:  0*
G04 FullContactRelief:  No*
G04 UndefLineWidth:     0.00*
G04 ================== end FILE IDENTIFICATION RECORD ====================*
%FSLAX25Y25*MOIN*%
%IR0*IPPOS*OFA0.00000B0.00000*MIA0B0*SFA1.00000B1.00000*%
%ADD26C,.0252*%
%ADD16O,.1X.14*%
%ADD27R,.028X.04*%
%ADD25R,.027X.025*%
%ADD17R,.025X.027*%
%ADD18R,.05512X.04331*%
%ADD14R,.04331X.05512*%
%ADD12R,.04252X.04134*%
%ADD19R,.04134X.04252*%
%ADD21R,.02362X.02165*%
%ADD20R,.02165X.02362*%
%ADD13R,.0374X.0374*%
%ADD10R,.0374X.02362*%
%ADD11R,.0374X.0374*%
%ADD22R,.05906X.05118*%
%ADD23R,.05118X.05906*%
%ADD15R,.07874X.05906*%
%ADD24R,.05906X.07874*%
%LPD*%
G75*
G54D10*
X19572Y116900D03*
X28628Y113160D03*
Y120640D03*
X102228Y296000D03*
X93172Y299740D03*
Y292260D03*
X97972Y509660D03*
Y517140D03*
X107028Y513400D03*
X226028Y222500D03*
X216972Y218760D03*
Y226240D03*
X225228Y354400D03*
X216172Y358140D03*
Y350660D03*
X373672Y387100D03*
X382728Y383360D03*
Y390840D03*
X405728Y244760D03*
X396672Y248500D03*
X405728Y252240D03*
X1055472Y126000D03*
X1064528Y122260D03*
Y129740D03*
X1155528Y122060D03*
X1146472Y125800D03*
X1155528Y129540D03*
G54D11*
X22847Y130500D03*
X28753D03*
X58847Y288900D03*
X58747Y295900D03*
X64753Y288900D03*
X64653Y295900D03*
X98953Y283200D03*
X93047D03*
X222953Y210100D03*
X217047D03*
X221953Y341800D03*
X216047D03*
X376847Y398900D03*
X382753D03*
X396447Y264000D03*
X402353D03*
X396447Y273100D03*
X402353D03*
X414147Y264000D03*
X420053D03*
X482847Y541700D03*
X488753D03*
X496553Y441000D03*
X490647D03*
X496553Y435600D03*
X490647D03*
X521653Y470500D03*
X515747D03*
X534647Y470600D03*
X540553D03*
X623547Y424800D03*
X629453D03*
X644647Y300500D03*
X650553D03*
X659547Y300400D03*
X665453D03*
X688553Y424800D03*
X682647D03*
X710647D03*
X731747Y300500D03*
X716553Y424800D03*
X737653Y300500D03*
X746647Y300400D03*
X752553D03*
X769847Y424800D03*
X775753D03*
X798447D03*
X804353D03*
X819547Y300500D03*
X825453D03*
X834447Y300400D03*
X840353D03*
X863453Y424800D03*
X857547D03*
X913547D03*
X925047Y80900D03*
X930953D03*
X934547Y300500D03*
X919453Y424800D03*
X943353Y80900D03*
X937447D03*
X940453Y300500D03*
X949447Y300400D03*
X955353D03*
X972747Y424800D03*
X978653D03*
X1001347D03*
X1007253D03*
X1022347Y300500D03*
X1028253D03*
X1037247Y300400D03*
X1043153D03*
X1066453Y424800D03*
X1060547D03*
X1088247D03*
X1094153D03*
X1109247Y300100D03*
X1115153D03*
X1124147Y300000D03*
X1130053D03*
X1153353Y424800D03*
X1147447D03*
G54D20*
X156128Y208200D03*
X159672D03*
X156028Y279000D03*
X159572D03*
X156028Y337400D03*
X159572D03*
X192172Y208000D03*
X188628D03*
X192072Y278900D03*
X188528D03*
X191872Y337500D03*
X188328D03*
X420628Y117800D03*
X424172D03*
X425028Y323300D03*
Y327400D03*
X420328Y455700D03*
X423872D03*
X420328Y450300D03*
X423872D03*
X441872Y119800D03*
X438328D03*
X428572Y323300D03*
Y327400D03*
X479072Y440600D03*
X475528D03*
X476272Y508800D03*
X472728D03*
X647028Y306700D03*
X650572D03*
X632828Y354500D03*
X636372D03*
X668972Y306400D03*
X665428D03*
X719928Y354500D03*
X723472D03*
X734128Y306700D03*
X737672D03*
X752528Y306400D03*
X756072D03*
X807728Y354500D03*
X811272D03*
X821928Y306700D03*
X825472D03*
X843872Y306400D03*
X840328D03*
X922728Y354500D03*
X926272D03*
X936928Y306700D03*
X940472D03*
X955328Y306400D03*
X958872D03*
X1010528Y354500D03*
X1014072D03*
X1024728Y306700D03*
X1028272D03*
X1046672Y306400D03*
X1043128D03*
X1097428Y354100D03*
X1111628Y306300D03*
X1115172D03*
X1100972Y354100D03*
X1133572Y306000D03*
X1130028D03*
G54D21*
X180300Y223772D03*
Y220228D03*
X176300Y223772D03*
Y220228D03*
X172300Y223772D03*
Y220228D03*
X168300Y223772D03*
Y220228D03*
X180100Y292672D03*
Y289128D03*
X168300Y292672D03*
Y289128D03*
X176200Y292672D03*
Y289128D03*
X172300Y292672D03*
Y289128D03*
X180100Y353272D03*
Y349728D03*
X176100Y353272D03*
Y349728D03*
X172100Y353272D03*
Y349728D03*
X168100Y353272D03*
Y349728D03*
X646900Y484328D03*
Y487872D03*
X650600Y484328D03*
Y487872D03*
X666300Y484328D03*
Y487872D03*
X654200Y484328D03*
Y487872D03*
X753400Y484328D03*
Y487872D03*
X734100Y484328D03*
Y487872D03*
X741300Y484328D03*
Y487872D03*
X737700Y484328D03*
Y487872D03*
X821500Y484328D03*
Y487872D03*
X828800Y484328D03*
Y487872D03*
X825200Y484328D03*
Y487872D03*
X841200Y484328D03*
Y487872D03*
X956200Y484328D03*
Y487872D03*
X936500Y484328D03*
Y487872D03*
X943800Y484328D03*
Y487872D03*
X940200Y484328D03*
Y487872D03*
X1029600Y72572D03*
Y69028D03*
X1024300Y484328D03*
Y487872D03*
X1031600Y484328D03*
Y487872D03*
X1028000Y484328D03*
Y487872D03*
X1044000Y484328D03*
Y487872D03*
X1067600Y73028D03*
Y76572D03*
Y99472D03*
Y95928D03*
X1111200Y484328D03*
Y487872D03*
X1118500Y484328D03*
Y487872D03*
X1114900Y484328D03*
Y487872D03*
X1130900Y484328D03*
Y487872D03*
X1186700Y72928D03*
Y76472D03*
X1186600Y99472D03*
Y95928D03*
G54D12*
X13300Y177006D03*
Y170194D03*
X34500Y146894D03*
Y153706D03*
X89000Y238994D03*
Y245806D03*
X151300Y526494D03*
Y533306D03*
X205200Y544506D03*
Y537694D03*
X212800Y168394D03*
Y175206D03*
X474000Y520294D03*
Y527106D03*
X495900Y507794D03*
Y514606D03*
X651500Y342894D03*
X645200D03*
X651500Y349706D03*
X645200D03*
X668100Y343094D03*
X661500D03*
X668100Y349906D03*
X661500D03*
X656900Y387794D03*
X663200D03*
X656900Y394606D03*
X663200D03*
X732300Y342894D03*
Y349706D03*
X738600Y342894D03*
X748600Y343094D03*
X738600Y349706D03*
X748600Y349906D03*
X744000Y387794D03*
X750300D03*
X744000Y394606D03*
X750300D03*
X755200Y343094D03*
Y349906D03*
X794800Y47194D03*
Y54006D03*
X826400Y342894D03*
X820100D03*
X826400Y349706D03*
X820100D03*
X831800Y387794D03*
Y394606D03*
X843000Y343094D03*
X836400D03*
X843000Y349906D03*
X836400D03*
X838100Y387794D03*
Y394606D03*
X858800Y47594D03*
Y54406D03*
X935100Y342894D03*
Y349706D03*
X941400Y342894D03*
X951400Y343094D03*
X941400Y349706D03*
X951400Y349906D03*
X953100Y387794D03*
X946800D03*
X953100Y394606D03*
X946800D03*
X958000Y343094D03*
Y349906D03*
X1038000Y68994D03*
Y75806D03*
X1029200Y342894D03*
X1022900D03*
X1029200Y349706D03*
X1022900D03*
X1034600Y387794D03*
Y394606D03*
X1045800Y343094D03*
X1039200D03*
X1045800Y349906D03*
X1039200D03*
X1040900Y387794D03*
Y394606D03*
X1095500Y55606D03*
Y48794D03*
X1105400Y55606D03*
Y48794D03*
X1116100Y342494D03*
X1109800D03*
X1116100Y349306D03*
X1109800D03*
X1132700Y342694D03*
X1126100D03*
X1132700Y349506D03*
X1126100D03*
X1121500Y387394D03*
X1127800D03*
X1121500Y394206D03*
X1127800D03*
G54D22*
X195700Y536563D03*
Y544437D03*
X485700Y506063D03*
Y513937D03*
G54D13*
X20400Y176153D03*
Y170247D03*
Y184347D03*
Y190253D03*
X43900Y510047D03*
Y515953D03*
X63900Y510047D03*
Y515953D03*
X364400Y473747D03*
Y479653D03*
X370400Y473747D03*
Y479653D03*
X376300Y473747D03*
Y479653D03*
X382400Y473747D03*
Y479653D03*
X407000Y473747D03*
Y479653D03*
X424300Y473747D03*
Y479653D03*
X418500Y473747D03*
Y479653D03*
X412800Y473747D03*
Y479653D03*
X504100Y416147D03*
Y422053D03*
X497200Y416147D03*
Y422053D03*
X490300Y416147D03*
Y422053D03*
X501300Y541747D03*
Y547653D03*
X568700Y463553D03*
Y457647D03*
X561500Y463553D03*
Y457647D03*
X554400Y463553D03*
Y457647D03*
X810300Y27247D03*
Y33153D03*
X816800Y27247D03*
Y33153D03*
X863700Y26947D03*
Y32853D03*
X870700Y26947D03*
Y32853D03*
G54D23*
X380137Y264200D03*
X372263D03*
X500337Y81300D03*
X492463D03*
X497763Y299700D03*
X505637D03*
X625663Y406900D03*
X633537D03*
X681263Y407600D03*
X689137D03*
X712763Y406900D03*
X720637D03*
X768363Y407600D03*
X776237D03*
X808437Y406900D03*
X800563D03*
X856163Y407600D03*
X864037D03*
X915563Y406900D03*
X923437D03*
X971163Y407600D03*
X979037D03*
X1011237Y406900D03*
X1003363D03*
X1058963Y407600D03*
X1066837D03*
X1098137Y406500D03*
X1090263D03*
X1145863Y407200D03*
X1153737D03*
G54D14*
X40960Y113800D03*
X48440D03*
X100440Y309100D03*
X92960D03*
X223940Y237200D03*
X216460D03*
X223140Y367900D03*
X215660D03*
X339140Y62900D03*
X331660D03*
X359040D03*
X351560D03*
X377640Y62600D03*
X370160D03*
X398860Y390000D03*
X406340D03*
G54D24*
X428394Y18200D03*
Y31700D03*
Y48000D03*
X440206Y18200D03*
Y31700D03*
Y48000D03*
X464494Y68400D03*
Y81300D03*
X476306Y68400D03*
Y81300D03*
G54D15*
X44000Y532494D03*
Y544306D03*
X64000Y532494D03*
Y544306D03*
X84000Y532494D03*
Y544306D03*
G54D25*
X446900Y290764D03*
Y286836D03*
X444900Y338436D03*
Y342364D03*
X466600Y290764D03*
Y286836D03*
X460700Y290764D03*
Y286836D03*
X466300Y338436D03*
Y342364D03*
X450900Y338436D03*
Y342364D03*
X930900Y70736D03*
Y74664D03*
X937400Y70736D03*
Y74664D03*
X943600Y70836D03*
Y74764D03*
G54D16*
X29900Y538400D03*
X98100D03*
G54D17*
X80464Y361700D03*
X76536D03*
X420636Y39900D03*
X424564D03*
X409736Y117400D03*
X413664D03*
Y130800D03*
X409736D03*
X428164Y301000D03*
X424236D03*
X428164Y305600D03*
X424236D03*
X449236Y119400D03*
X453164D03*
Y131200D03*
X449236D03*
X468336Y455700D03*
X456736Y540100D03*
X460664D03*
X475636Y299800D03*
X479564D03*
X475736Y325300D03*
X479664D03*
X475636Y313600D03*
X479564D03*
X472264Y455700D03*
X484836Y534000D03*
X488764D03*
G54D26*
X507500Y27500D03*
X502500D03*
X507500Y32500D03*
X502500D03*
X507500Y47500D03*
X502500D03*
X507500Y52500D03*
X502500D03*
X527500Y27500D03*
X522500D03*
X517500D03*
X512500D03*
X527500Y32500D03*
X522500D03*
X517500D03*
X512500D03*
X527500Y47500D03*
X522500D03*
X517500D03*
X512500D03*
X527500Y52500D03*
X522500D03*
X517500D03*
X512500D03*
X547500Y27500D03*
X542500D03*
X537500D03*
X532500D03*
X547500Y32500D03*
X542500D03*
X537500D03*
X532500D03*
X547500Y47500D03*
X542500D03*
X537500D03*
X532500D03*
X547500Y52500D03*
X542500D03*
X537500D03*
X532500D03*
X567500Y27500D03*
X562500D03*
X557500D03*
X552500D03*
X567500Y32500D03*
X562500D03*
X557500D03*
X552500D03*
X567500Y47500D03*
X562500D03*
X557500D03*
X552500D03*
X567500Y52500D03*
X562500D03*
X557500D03*
X552500D03*
X587500Y27500D03*
X582500D03*
X577500D03*
X572500D03*
X587500Y32500D03*
X582500D03*
X577500D03*
X572500D03*
X587500Y47500D03*
X582500D03*
X577500D03*
X572500D03*
X587500Y52500D03*
X582500D03*
X577500D03*
X572500D03*
X607500Y27500D03*
X602500D03*
X597500D03*
X592500D03*
X607500Y32500D03*
X602500D03*
X597500D03*
X592500D03*
X607500Y47500D03*
X602500D03*
X597500D03*
X592500D03*
X607500Y52500D03*
X602500D03*
X597500D03*
X592500D03*
X627500Y27500D03*
X622500D03*
X617500D03*
X612500D03*
X627500Y32500D03*
X622500D03*
X617500D03*
X612500D03*
X627500Y47500D03*
X622500D03*
X617500D03*
X612500D03*
X627500Y52500D03*
X622500D03*
X617500D03*
X612500D03*
X652500Y27500D03*
X647500D03*
X642500D03*
X637500D03*
X632500D03*
X652500Y32500D03*
X647500D03*
X642500D03*
X637500D03*
X632500D03*
X652500Y47500D03*
X647500D03*
X642500D03*
X637500D03*
X632500D03*
X652500Y52500D03*
X647500D03*
X642500D03*
X637500D03*
X632500D03*
X672500Y27500D03*
X667500D03*
X662500D03*
X657500D03*
X672500Y32500D03*
X667500D03*
X662500D03*
X657500D03*
X672500Y47500D03*
X667500D03*
X662500D03*
X657500D03*
X672500Y52500D03*
X667500D03*
X662500D03*
X657500D03*
X692500Y27500D03*
X687500D03*
X682500D03*
X677500D03*
X692500Y32500D03*
X687500D03*
X682500D03*
X677500D03*
X692500Y47500D03*
X687500D03*
X682500D03*
X677500D03*
X692500Y52500D03*
X687500D03*
X682500D03*
X677500D03*
X697500Y27500D03*
Y32500D03*
Y47500D03*
Y52500D03*
G54D18*
X84200Y509260D03*
Y516740D03*
G54D27*
X621850Y311300D03*
X629350D03*
Y321500D03*
X625600D03*
X621850D03*
X684550Y311300D03*
X692050D03*
Y321500D03*
X688300D03*
X684550D03*
X708950Y311300D03*
X712700Y321500D03*
X708950D03*
X716450Y311300D03*
Y321500D03*
X771650Y311300D03*
Y321500D03*
X779150Y311300D03*
Y321500D03*
X775400D03*
X796750Y311300D03*
X804250D03*
Y321500D03*
X800500D03*
X796750D03*
X859450Y311300D03*
X866950D03*
Y321500D03*
X863200D03*
X859450D03*
X911750Y311300D03*
X915500Y321500D03*
X911750D03*
X919250Y311300D03*
Y321500D03*
X974450Y311300D03*
Y321500D03*
X981950Y311300D03*
Y321500D03*
X978200D03*
X999550Y311300D03*
X1007050D03*
Y321500D03*
X1003300D03*
X999550D03*
X1062250Y311300D03*
X1069750D03*
Y321500D03*
X1066000D03*
X1062250D03*
X1086450Y310900D03*
X1093950D03*
Y321100D03*
X1090200D03*
X1086450D03*
X1149150Y310900D03*
X1156650D03*
Y321100D03*
X1152900D03*
X1149150D03*
G54D19*
X97594Y255300D03*
X104406D03*
X195694Y526400D03*
X202506D03*
X220394Y180700D03*
X227206D03*
X234606Y255500D03*
X227794D03*
X255606Y255600D03*
X248794D03*
X343794Y528500D03*
X343694Y516900D03*
X350606Y528500D03*
X350506Y516900D03*
X373294Y255900D03*
X380106D03*
X380206Y272700D03*
X373394D03*
X485694Y524900D03*
X504606Y291600D03*
X497794D03*
X497894Y307900D03*
X504706D03*
X492506Y524900D03*
X631694Y360000D03*
Y366300D03*
Y372600D03*
Y378800D03*
X625994Y396200D03*
X638506Y360000D03*
Y366300D03*
Y372600D03*
Y378800D03*
X632806Y396200D03*
X652306Y460400D03*
X645494D03*
X660294Y460500D03*
X667106D03*
X685906Y364300D03*
X679094D03*
Y357800D03*
X685906D03*
X682294Y396700D03*
X689106D03*
X713094Y396200D03*
X718794Y360000D03*
X725606D03*
Y366300D03*
X718794D03*
Y372600D03*
X725606D03*
Y378800D03*
X718794D03*
X719906Y396200D03*
X732694Y460400D03*
X739506D03*
X747094D03*
X753906D03*
X773006Y364300D03*
X766194D03*
Y357800D03*
X773006D03*
X769394Y396700D03*
X776206D03*
X806594Y360000D03*
X813406D03*
Y366300D03*
X806594D03*
Y372600D03*
X813406D03*
Y378800D03*
X806594D03*
X807706Y396200D03*
X800894D03*
X834894Y460500D03*
X827606Y460400D03*
X820794D03*
X853994Y364300D03*
Y357800D03*
X841706Y460500D03*
X860806Y364300D03*
Y357800D03*
X857194Y396700D03*
X864006D03*
X915894Y396200D03*
X928406Y366300D03*
X921594D03*
Y360000D03*
X928406D03*
Y378800D03*
X921594D03*
Y372600D03*
X928406D03*
X922706Y396200D03*
X935794Y460400D03*
X942606D03*
X949894Y460500D03*
X956706D03*
X968994Y357800D03*
X975806D03*
Y364300D03*
X968994D03*
X972194Y396700D03*
X979006D03*
X1009394Y360000D03*
X1016206D03*
Y366300D03*
X1009394D03*
Y372600D03*
X1016206D03*
Y378800D03*
X1009394D03*
X1010506Y396200D03*
X1003694D03*
X1037694Y460500D03*
X1030406Y460400D03*
X1023594D03*
X1056794Y364300D03*
Y357800D03*
X1044506Y460500D03*
X1063606Y364300D03*
Y357800D03*
X1059994Y396700D03*
X1066806D03*
X1096294Y359600D03*
Y365900D03*
Y372200D03*
Y378400D03*
X1097406Y395800D03*
X1090594D03*
X1117906Y84200D03*
X1111094D03*
X1117806Y107400D03*
X1110994D03*
X1103106Y359600D03*
Y365900D03*
Y372200D03*
Y378400D03*
X1117306Y460400D03*
X1110494D03*
X1138794Y84000D03*
X1138594Y107100D03*
X1124594Y460500D03*
X1131406D03*
X1145606Y84000D03*
X1145406Y107100D03*
X1150506Y363900D03*
X1143694D03*
Y357400D03*
X1150506D03*
X1146894Y396300D03*
X1153706D03*
M02*
