G04 ================== begin FILE IDENTIFICATION RECORD ==================*
G04 Layout Name:  C:/SPB_DATA/GPS_INTERFACE_BOARD/allegro/GPS_INTERFACE_BOARDv30.brd*
G04 Film Name:    L4*
G04 File Format:  Gerber RS274X*
G04 File Origin:  Cadence Allegro 17.2-S064*
G04 Origin Date:  Wed Jun 17 01:31:21 2020*
G04 *
G04 Layer:  ETCH/L4*
G04 Layer:  PIN/L4*
G04 Layer:  VIA CLASS/L4*
G04 *
G04 Offset:    (0.00 0.00)*
G04 Mirror:    No*
G04 Mode:      Positive*
G04 Rotation:  0*
G04 FullContactRelief:  No*
G04 UndefLineWidth:     0.00*
G04 ================== end FILE IDENTIFICATION RECORD ====================*
%FSLAX25Y25*MOIN*%
%IR0*IPPOS*OFA0.00000B0.00000*MIA0B0*SFA1.00000B1.00000*%
%ADD21C,.02*%
%ADD11C,.021*%
%ADD20C,.032*%
%ADD33C,.06*%
%ADD23C,.02205*%
%ADD25C,.06103*%
%ADD15C,.05504*%
%ADD24C,.0574*%
%ADD22C,.0394*%
%ADD27C,.05346*%
%ADD30C,.09921*%
%ADD16R,.05504X.05504*%
%ADD14C,.06496*%
%ADD31C,.05858*%
%ADD29C,.07559*%
%ADD19C,.09764*%
%ADD13O,.05937X.11874*%
%ADD12O,.11874X.05937*%
%ADD32R,.05858X.05858*%
%ADD26R,.07874X.07874*%
%ADD18R,.09764X.09764*%
%ADD28C,.13111*%
%ADD10C,.175*%
%ADD17C,.1187*%
%ADD34C,.0065*%
%ADD41C,.03004*%
%ADD35C,.03104*%
%ADD52C,.07004*%
%ADD43C,.075*%
%ADD38C,.0635*%
%ADD50C,.0953*%
%ADD51C,.0783*%
%ADD47C,.06724*%
%ADD39C,.06508*%
%ADD36C,.08074*%
%ADD37C,.06744*%
%ADD49C,.06862*%
%ADD42C,.07972*%
%ADD44C,.08468*%
%ADD48C,.10924*%
%ADD46C,.15082*%
%ADD53C,.11736*%
%ADD40C,.12874*%
%ADD45C,.19472*%
G75*
%LPD*%
G75*
G36*
G01X943352Y9200D02*
G03X940248I-1552J0D01*
G03X940467Y8405I1552J0D01*
G02X940124Y7800I-343J-205D01*
G01X864176D01*
G02X863833Y8405I0J400D01*
G03X864052Y9200I-1333J795D01*
G03X860948I-1552J0D01*
G03X861167Y8405I1552J0D01*
G02X860824Y7800I-343J-205D01*
G01X123276D01*
G02X122933Y8405I0J400D01*
G03X123152Y9200I-1333J795D01*
G03X120048I-1552J0D01*
G03X120267Y8405I1552J0D01*
G02X119924Y7800I-343J-205D01*
G01X7800D01*
Y592400D01*
X1192600D01*
Y7800D01*
X943476D01*
G02X943133Y8405I0J400D01*
G03X943352Y9200I-1333J795D01*
G37*
%LPC*%
G75*
G36*
G01X375302Y360589D02*
G03X375323Y361183I-257J306D01*
G02X374848Y362300I1076J1117D01*
G02X377952I1552J0D01*
G02X377398Y361111I-1553J0D01*
G03X377367Y360527I257J-306D01*
G02X377852Y359400I-1067J-1127D01*
G02X374748I-1552J0D01*
G02X375302Y360589I1553J0D01*
G37*
G36*
G01X438301Y302770D02*
G02X437548Y304100I798J1330D01*
G02X440652I1552J0D01*
G02X439824Y302727I-1552J0D01*
G03X439804Y302030I186J-354D01*
G02X440557Y300700I-798J-1330D01*
G02X437453I-1552J0D01*
G02X438281Y302073I1552J0D01*
G03X438301Y302770I-186J354D01*
G37*
G36*
G01X438246Y324262D02*
G02X437848Y325300I1155J1038D01*
G02X440952I1552J0D01*
G02X439742Y323786I-1552J0D01*
G03X439532Y323129I88J-390D01*
G02X439930Y322091I-1155J-1038D01*
G02X436826I-1552J0D01*
G02X438036Y323605I1552J0D01*
G03X438246Y324262I-88J390D01*
G37*
G36*
G01X1113968Y481443D02*
G02X1115200Y482052I1232J-942D01*
G02X1116512Y481329I0J-1552D01*
G03X1117188I338J214D01*
G02X1118500Y482052I1312J-829D01*
G02Y478948I0J-1552D01*
G02X1117188Y479671I0J1552D01*
G03X1116512I-338J-214D01*
G02X1115200Y478948I-1312J829D01*
G02X1113968Y479557I0J1551D01*
G03X1113332I-318J-243D01*
G02X1112100Y478948I-1232J942D01*
G02Y482052I0J1552D01*
G02X1113332Y481443I0J-1551D01*
G03X1113968I318J243D01*
G37*
G36*
G01X1027068D02*
G02X1028300Y482052I1232J-942D01*
G02X1029612Y481329I0J-1552D01*
G03X1030288I338J214D01*
G02X1031600Y482052I1312J-829D01*
G02Y478948I0J-1552D01*
G02X1030288Y479671I0J1552D01*
G03X1029612I-338J-214D01*
G02X1028300Y478948I-1312J829D01*
G02X1027068Y479557I0J1551D01*
G03X1026432I-318J-243D01*
G02X1025200Y478948I-1232J942D01*
G02Y482052I0J1552D01*
G02X1026432Y481443I0J-1551D01*
G03X1027068I318J243D01*
G37*
G36*
G01X939268D02*
G02X940500Y482052I1232J-942D01*
G02X941812Y481329I0J-1552D01*
G03X942488I338J214D01*
G02X943800Y482052I1312J-829D01*
G02Y478948I0J-1552D01*
G02X942488Y479671I0J1552D01*
G03X941812I-338J-214D01*
G02X940500Y478948I-1312J829D01*
G02X939268Y479557I0J1551D01*
G03X938632I-318J-243D01*
G02X937400Y478948I-1232J942D01*
G02Y482052I0J1552D01*
G02X938632Y481443I0J-1551D01*
G03X939268I318J243D01*
G37*
G36*
G01X824268D02*
G02X825500Y482052I1232J-942D01*
G02X826812Y481329I0J-1552D01*
G03X827488I338J214D01*
G02X828800Y482052I1312J-829D01*
G02Y478948I0J-1552D01*
G02X827488Y479671I0J1552D01*
G03X826812I-338J-214D01*
G02X825500Y478948I-1312J829D01*
G02X824268Y479557I0J1551D01*
G03X823632I-318J-243D01*
G02X822400Y478948I-1232J942D01*
G02Y482052I0J1552D01*
G02X823632Y481443I0J-1551D01*
G03X824268I318J243D01*
G37*
G36*
G01X736468D02*
G02X737700Y482052I1232J-942D01*
G02X739012Y481329I0J-1552D01*
G03X739688I338J214D01*
G02X741000Y482052I1312J-829D01*
G02Y478948I0J-1552D01*
G02X739688Y479671I0J1552D01*
G03X739012I-338J-214D01*
G02X737700Y478948I-1312J829D01*
G02X736468Y479557I0J1551D01*
G03X735832I-318J-243D01*
G02X734600Y478948I-1232J942D01*
G02Y482052I0J1552D01*
G02X735832Y481443I0J-1551D01*
G03X736468I318J243D01*
G37*
G36*
G01X649368D02*
G02X650600Y482052I1232J-942D01*
G02X651912Y481329I0J-1552D01*
G03X652588I338J214D01*
G02X653900Y482052I1312J-829D01*
G02Y478948I0J-1552D01*
G02X652588Y479671I0J1552D01*
G03X651912I-338J-214D01*
G02X650600Y478948I-1312J829D01*
G02X649368Y479557I0J1551D01*
G03X648732I-318J-243D01*
G02X647500Y478948I-1232J942D01*
G02Y482052I0J1552D01*
G02X648732Y481443I0J-1551D01*
G03X649368I318J243D01*
G37*
G36*
G01X470481Y439048D02*
G02X468948Y440600I19J1552D01*
G02X472052I1552J0D01*
G02X471998Y440195I-1552J1D01*
G03X472380Y439691I386J-104D01*
G02X473913Y438139I-19J-1552D01*
G02X472361Y436587I-1552J0D01*
G02X472009Y436628I2J1552D01*
G03X471541Y436103I-91J-390D01*
G02X471632Y435580I-1461J-524D01*
G02X470080Y437132I-1552J0D01*
G02X470432Y437091I-2J-1552D01*
G03X470900Y437616I91J390D01*
G02X470809Y438139I1461J524D01*
G02X470863Y438544I1552J-1D01*
G03X470481Y439048I-386J104D01*
G37*
G36*
G01X1123824Y418134D02*
G02X1122300Y416873I-1524J290D01*
G02Y419977I0J1552D01*
G02X1123002Y419809I0J-1551D01*
G03X1123576Y420091I181J357D01*
G02X1125100Y421352I1524J-290D01*
G02Y418248I0J-1552D01*
G02X1124398Y418416I0J1551D01*
G03X1123824Y418134I-181J-357D01*
G37*
G36*
G01X1001540Y390467D02*
G02X1000300Y389848I-1240J933D01*
G02Y392952I0J1552D01*
G02X1001758Y391931I0J-1552D01*
G03X1002454Y391827I376J136D01*
G02X1003694Y392446I1240J-933D01*
G02Y389342I0J-1552D01*
G02X1002236Y390363I0J1552D01*
G03X1001540Y390467I-376J-136D01*
G37*
G36*
G01X914372Y390592D02*
G02X914342Y390894I1522J304D01*
G02X915894Y389342I1552J0D01*
G02X915592Y389372I2J1552D01*
G03X915122Y388902I-77J-393D01*
G02X915152Y388600I-1522J-304D01*
G02X913600Y390152I-1552J0D01*
G02X913902Y390122I-2J-1552D01*
G03X914372Y390592I77J393D01*
G37*
G36*
G01X714116Y389068D02*
G02X712600Y387848I-1516J332D01*
G02Y390952I0J1552D01*
G02X713469Y390686I0J-1552D01*
G03X714084Y390932I224J331D01*
G02X715600Y392152I1516J-332D01*
G02Y389048I0J-1552D01*
G02X714731Y389314I0J1552D01*
G03X714116Y389068I-224J-331D01*
G37*
G36*
G01X622171Y362188D02*
G02X621448Y363500I829J1312D01*
G02X624552I1552J0D01*
G02X623829Y362188I-1552J0D01*
G03Y361512I214J-338D01*
G02X624552Y360200I-829J-1312D01*
G02X621448I-1552J0D01*
G02X622171Y361512I1552J0D01*
G03Y362188I-214J338D01*
G37*
G36*
G01X999582Y360928D02*
G02X999048Y362100I1019J1172D01*
G02X1002152I1552J0D01*
G02X1001459Y360807I-1553J0D01*
G03X1001418Y360172I221J-333D01*
G02X1001952Y359000I-1019J-1172D01*
G02X998848I-1552J0D01*
G02X999541Y360293I1553J0D01*
G03X999582Y360928I-221J333D01*
G37*
G36*
G01X1086463Y359893D02*
G02X1085748Y361200I837J1307D01*
G02X1088852I1552J0D01*
G02X1087978Y359804I-1552J0D01*
G03X1087937Y359107I174J-360D01*
G02X1088652Y357800I-837J-1307D01*
G02X1085548I-1552J0D01*
G02X1086422Y359196I1552J0D01*
G03X1086463Y359893I-174J360D01*
G37*
G36*
G01X1049983Y359705D02*
G02X1048848Y361200I417J1495D01*
G02X1051952I1552J0D01*
G02X1051374Y359992I-1551J0D01*
G03X1051517Y359295I251J-312D01*
G02X1052652Y357800I-417J-1495D01*
G02X1049548I-1552J0D01*
G02X1050126Y359008I1551J0D01*
G03X1049983Y359705I-251J312D01*
G37*
G36*
G01X962183D02*
G02X961048Y361200I417J1495D01*
G02X964152I1552J0D01*
G02X963574Y359992I-1551J0D01*
G03X963717Y359295I251J-312D01*
G02X964852Y357800I-417J-1495D01*
G02X961748I-1552J0D01*
G02X962326Y359008I1551J0D01*
G03X962183Y359705I-251J312D01*
G37*
G36*
G01X847183D02*
G02X846048Y361200I417J1495D01*
G02X849152I1552J0D01*
G02X848574Y359992I-1551J0D01*
G03X848717Y359295I251J-312D01*
G02X849852Y357800I-417J-1495D01*
G02X846748I-1552J0D01*
G02X847326Y359008I1551J0D01*
G03X847183Y359705I-251J312D01*
G37*
G36*
G01X759383D02*
G02X758248Y361200I417J1495D01*
G02X761352I1552J0D01*
G02X760774Y359992I-1551J0D01*
G03X760917Y359295I251J-312D01*
G02X762052Y357800I-417J-1495D01*
G02X758948I-1552J0D01*
G02X759526Y359008I1551J0D01*
G03X759383Y359705I-251J312D01*
G37*
G36*
G01X672283D02*
G02X671148Y361200I417J1495D01*
G02X674252I1552J0D01*
G02X673674Y359992I-1551J0D01*
G03X673817Y359295I251J-312D01*
G02X674952Y357800I-417J-1495D01*
G02X671848I-1552J0D01*
G02X672426Y359008I1551J0D01*
G03X672283Y359705I-251J312D01*
G37*
G36*
G01X1136883Y359305D02*
G02X1135748Y360800I417J1495D01*
G02X1138852I1552J0D01*
G02X1138274Y359592I-1551J0D01*
G03X1138417Y358895I251J-312D01*
G02X1139552Y357400I-417J-1495D01*
G02X1136448I-1552J0D01*
G02X1137026Y358608I1551J0D01*
G03X1136883Y359305I-251J312D01*
G37*
G36*
G01X168908Y344624D02*
G02X167467Y343648I-1441J576D01*
G02Y346752I0J1552D01*
G02X168676Y346173I0J-1552D01*
G03X169359Y346276I311J251D01*
G02X170800Y347252I1441J-576D01*
G02Y344148I0J-1552D01*
G02X169591Y344727I0J1552D01*
G03X168908Y344624I-311J-251D01*
G37*
G36*
G01X178177Y344183D02*
G02X177100Y343748I-1077J1116D01*
G02Y346852I0J1552D01*
G02X178514Y345940I0J-1552D01*
G03X179156Y345817I364J165D01*
G02X180233Y346252I1077J-1116D01*
G02Y343148I0J-1552D01*
G02X178819Y344060I0J1552D01*
G03X178177Y344183I-364J-165D01*
G37*
G36*
G01X1004273Y326858D02*
G02X1003112Y326336I-1161J1030D01*
G02Y329440I0J1552D01*
G02X1004486Y328610I0J-1552D01*
G03X1005139Y328530I354J186D01*
G02X1006300Y329052I1161J-1030D01*
G02Y325948I0J-1552D01*
G02X1004926Y326778I0J1552D01*
G03X1004273Y326858I-354J-186D01*
G37*
G36*
G01X916473D02*
G02X915312Y326336I-1161J1030D01*
G02Y329440I0J1552D01*
G02X916686Y328610I0J-1552D01*
G03X917339Y328530I354J186D01*
G02X918500Y329052I1161J-1030D01*
G02Y325948I0J-1552D01*
G02X917126Y326778I0J1552D01*
G03X916473Y326858I-354J-186D01*
G37*
G36*
G01X801473D02*
G02X800312Y326336I-1161J1030D01*
G02Y329440I0J1552D01*
G02X801686Y328610I0J-1552D01*
G03X802339Y328530I354J186D01*
G02X803500Y329052I1161J-1030D01*
G02Y325948I0J-1552D01*
G02X802126Y326778I0J1552D01*
G03X801473Y326858I-354J-186D01*
G37*
G36*
G01X713673D02*
G02X712512Y326336I-1161J1030D01*
G02Y329440I0J1552D01*
G02X713886Y328610I0J-1552D01*
G03X714539Y328530I354J186D01*
G02X715700Y329052I1161J-1030D01*
G02Y325948I0J-1552D01*
G02X714326Y326778I0J1552D01*
G03X713673Y326858I-354J-186D01*
G37*
G36*
G01X626573D02*
G02X625412Y326336I-1161J1030D01*
G02Y329440I0J1552D01*
G02X626786Y328610I0J-1552D01*
G03X627439Y328530I354J186D01*
G02X628600Y329052I1161J-1030D01*
G02Y325948I0J-1552D01*
G02X627226Y326778I0J1552D01*
G03X626573Y326858I-354J-186D01*
G37*
G36*
G01X1091173Y326458D02*
G02X1090012Y325936I-1161J1030D01*
G02Y329040I0J1552D01*
G02X1091386Y328210I0J-1552D01*
G03X1092039Y328130I354J186D01*
G02X1093200Y328652I1161J-1030D01*
G02Y325548I0J-1552D01*
G02X1091826Y326378I0J1552D01*
G03X1091173Y326458I-354J-186D01*
G37*
G36*
G01X1016366Y312699D02*
G02X1015052Y311973I-1314J826D01*
G02Y315077I0J1552D01*
G02X1016327Y314410I0J-1552D01*
G03X1016994Y314426I328J229D01*
G02X1018308Y315152I1314J-826D01*
G02Y312048I0J-1552D01*
G02X1017033Y312715I0J1552D01*
G03X1016366Y312699I-328J-229D01*
G37*
G36*
G01X928566D02*
G02X927252Y311973I-1314J826D01*
G02Y315077I0J1552D01*
G02X928527Y314410I0J-1552D01*
G03X929194Y314426I328J229D01*
G02X930508Y315152I1314J-826D01*
G02Y312048I0J-1552D01*
G02X929233Y312715I0J1552D01*
G03X928566Y312699I-328J-229D01*
G37*
G36*
G01X813566D02*
G02X812252Y311973I-1314J826D01*
G02Y315077I0J1552D01*
G02X813527Y314410I0J-1552D01*
G03X814194Y314426I328J229D01*
G02X815508Y315152I1314J-826D01*
G02Y312048I0J-1552D01*
G02X814233Y312715I0J1552D01*
G03X813566Y312699I-328J-229D01*
G37*
G36*
G01X725766D02*
G02X724452Y311973I-1314J826D01*
G02Y315077I0J1552D01*
G02X725727Y314410I0J-1552D01*
G03X726394Y314426I328J229D01*
G02X727708Y315152I1314J-826D01*
G02Y312048I0J-1552D01*
G02X726433Y312715I0J1552D01*
G03X725766Y312699I-328J-229D01*
G37*
G36*
G01X638666D02*
G02X637352Y311973I-1314J826D01*
G02Y315077I0J1552D01*
G02X638627Y314410I0J-1552D01*
G03X639294Y314426I328J229D01*
G02X640608Y315152I1314J-826D01*
G02Y312048I0J-1552D01*
G02X639333Y312715I0J1552D01*
G03X638666Y312699I-328J-229D01*
G37*
G36*
G01X1103266Y312299D02*
G02X1101952Y311573I-1314J826D01*
G02Y314677I0J1552D01*
G02X1103227Y314010I0J-1552D01*
G03X1103894Y314026I328J229D01*
G02X1105208Y314752I1314J-826D01*
G02Y311648I0J-1552D01*
G02X1103933Y312315I0J1552D01*
G03X1103266Y312299I-328J-229D01*
G37*
G36*
G01X169154Y284657D02*
G02X167700Y283648I-1454J543D01*
G02Y286752I0J1552D01*
G02X168870Y286220I0J-1553D01*
G03X169546Y286343I301J263D01*
G02X171000Y287352I1454J-543D01*
G02Y284248I0J-1552D01*
G02X169830Y284780I0J1553D01*
G03X169154Y284657I-301J-263D01*
G37*
G36*
G01X242179Y257493D02*
G02X242148Y257800I1521J309D01*
G02X243700Y256248I1552J0D01*
G02X243393Y256279I2J1552D01*
G03X242921Y255807I-80J-392D01*
G02X242952Y255500I-1521J-309D01*
G02X241400Y257052I-1552J0D01*
G02X241707Y257021I-2J-1552D01*
G03X242179Y257493I80J392D01*
G37*
G36*
G01X169512Y215171D02*
G02X168200Y214448I-1312J829D01*
G02Y217552I0J1552D01*
G02X169512Y216829I0J-1552D01*
G03X170188I338J214D01*
G02X171500Y217552I1312J-829D01*
G02Y214448I0J-1552D01*
G02X170188Y215171I0J1552D01*
G03X169512I-338J-214D01*
G37*
G36*
G01X695874Y211589D02*
G02X695748Y212200I1426J612D01*
G02X697300Y210648I1552J0D01*
G02X697073Y210665I2J1552D01*
G03X696646Y210111I-59J-396D01*
G02X696772Y209500I-1426J-612D01*
G02X695220Y211052I-1552J0D01*
G02X695447Y211035I-2J-1552D01*
G03X695874Y211589I59J396D01*
G37*
G36*
G01X46554Y205689D02*
G02X45648Y207100I646J1411D01*
G02X48752I1552J0D01*
G02X47926Y205728I-1552J0D01*
G03X47946Y205011I187J-354D01*
G02X48852Y203600I-646J-1411D01*
G02X45748I-1552J0D01*
G02X46574Y204972I1552J0D01*
G03X46554Y205689I-187J354D01*
G37*
G36*
G01X992570Y189941D02*
G02X991548Y191400I530J1459D01*
G02X994652I1552J0D01*
G02X994027Y190155I-1553J0D01*
G03X994130Y189459I239J-320D01*
G02X995152Y188000I-530J-1459D01*
G02X992048I-1552J0D01*
G02X992673Y189245I1553J0D01*
G03X992570Y189941I-239J320D01*
G37*
G36*
G01X93471Y156688D02*
G02X92748Y158000I829J1312D01*
G02X95852I1552J0D01*
G02X95129Y156688I-1552J0D01*
G03Y156012I214J-338D01*
G02X95852Y154700I-829J-1312D01*
G02X95063Y153348I-1553J0D01*
G03Y152652I196J-348D01*
G02X95852Y151300I-764J-1352D01*
G02X92748I-1552J0D01*
G02X93537Y152652I1553J0D01*
G03Y153348I-196J348D01*
G02X92748Y154700I764J1352D01*
G02X93471Y156012I1552J0D01*
G03Y156688I-214J338D01*
G37*
G36*
G01X745648Y66516D02*
G02X747200Y68052I1552J-16D01*
G02X748752Y66500I0J-1552D01*
G02X748750Y66424I-1552J3D01*
G03X749344Y66056I399J-19D01*
G02X750100Y66252I755J-1356D01*
G02X748548Y64700I0J-1552D01*
G02X748550Y64776I1552J-3D01*
G03X747956Y65144I-399J19D01*
G02X747200Y64948I-755J1356D01*
G02X746923Y64973I0J1552D01*
G03X746452Y64584I-71J-394D01*
G02X744900Y63048I-1552J16D01*
G02X744297Y63170I0J1551D01*
G03X743744Y62842I-155J-369D01*
G02X742200Y61448I-1544J158D01*
G02Y64552I0J1552D01*
G02X742803Y64430I0J-1551D01*
G03X743356Y64758I155J369D01*
G02X744900Y66152I1544J-158D01*
G02X745177Y66127I0J-1552D01*
G03X745648Y66516I71J394D01*
G37*
G36*
G01X828730Y63382D02*
G02X828100Y63248I-631J1418D01*
G02X829652Y64800I0J1552D01*
G02X829616Y64469I-1552J1D01*
G03X830170Y64018I391J-86D01*
G02X830800Y64152I631J-1418D01*
G02X829248Y62600I0J-1552D01*
G02X829284Y62931I1552J-1D01*
G03X828730Y63382I-391J86D01*
G37*
G36*
G01X766575Y49531D02*
G02X765900Y49376I-676J1397D01*
G02X767452Y50928I0J1552D01*
G02X767451Y50872I-1552J0D01*
G03X768025Y50497I400J-15D01*
G02X768700Y50652I676J-1397D01*
G02X767148Y49100I0J-1552D01*
G02X767149Y49156I1552J0D01*
G03X766575Y49531I-400J15D01*
G37*
G36*
G01X636808Y41333D02*
G02X636773Y41662I1517J328D01*
G02X638325Y43214I1552J0D01*
G02X639591Y42559I0J-1551D01*
G03X640263Y42587I327J231D01*
G02X641600Y43352I1337J-786D01*
G02Y40248I0J-1552D01*
G02X640334Y40903I0J1551D01*
G03X639662Y40875I-327J-231D01*
G02X638325Y40110I-1337J786D01*
G02X638232Y40113I4J1552D01*
G03X637817Y39629I-24J-399D01*
G02X637852Y39300I-1517J-328D01*
G02X637789Y38861I-1552J-1D01*
G03X638198Y38349I383J-113D01*
G02X638300Y38352I97J-1549D01*
G02X636748Y36800I0J-1552D01*
G02X636811Y37239I1552J1D01*
G03X636402Y37751I-383J113D01*
G02X636300Y37748I-97J1549D01*
G02Y40852I0J1552D01*
G02X636393Y40849I-4J-1552D01*
G03X636808Y41333I24J399D01*
G37*
G36*
G01X576728Y39649D02*
G02X578260Y40952I1532J-249D01*
G02Y37848I0J-1552D01*
G02X577279Y38197I0J1553D01*
G03X576632Y37951I-252J-310D01*
G02X575100Y36648I-1532J249D01*
G02Y39752I0J1552D01*
G02X576081Y39403I0J-1553D01*
G03X576728Y39649I252J310D01*
G37*
G36*
G01X746460Y419247D02*
G03X745892Y419268I-294J-271D01*
G02X744831Y418848I-1062J1132D01*
G02Y421952I0J1552D01*
G02X745971Y421453I0J-1552D01*
G03X746539Y421432I294J271D01*
G02X747600Y421852I1062J-1132D01*
G02Y418748I0J-1552D01*
G02X746460Y419247I0J1552D01*
G37*
G36*
G01X834260Y418347D02*
G03X833692Y418368I-294J-271D01*
G02X832631Y417948I-1062J1132D01*
G02Y421052I0J1552D01*
G02X833771Y420553I0J-1552D01*
G03X834339Y420532I294J271D01*
G02X835400Y420952I1062J-1132D01*
G02Y417848I0J-1552D01*
G02X834260Y418347I0J1552D01*
G37*
G36*
G01X1037099Y418206D02*
G03X1036532I-283J-282D01*
G02X1035431Y417748I-1101J1094D01*
G02Y420852I0J1552D01*
G02X1036532Y420394I0J-1552D01*
G03X1037099I284J282D01*
G02X1038200Y420852I1101J-1094D01*
G02Y417748I0J-1552D01*
G02X1037099Y418206I0J1552D01*
G37*
G36*
G01X949378Y417432D02*
G03X948810Y417391I-264J-301D01*
G02X947631Y416848I-1179J1008D01*
G02Y419952I0J1552D01*
G02X948653Y419568I0J-1552D01*
G03X949221Y419609I264J301D01*
G02X950400Y420152I1179J-1008D01*
G02Y417048I0J-1552D01*
G02X949378Y417432I0J1552D01*
G37*
G36*
G01X798873Y390428D02*
G03X799343Y390836I70J394D01*
G02X799342Y390894I1551J56D01*
G02X800894Y389342I1552J0D01*
G02X800621Y389366I-1J1552D01*
G03X800151Y388958I-70J-394D01*
G02X800152Y388900I-1551J-56D01*
G02X798600Y390452I-1552J0D01*
G02X798873Y390428I1J-1552D01*
G37*
G36*
G01X624008Y390921D02*
G03X624478Y391227I79J392D01*
G02X625994Y392446I1516J-333D01*
G02Y389342I0J-1552D01*
G02X625686Y389373I1J1552D01*
G03X625216Y389067I-79J-392D01*
G02X623700Y387848I-1516J333D01*
G02Y390952I0J1552D01*
G02X624008Y390921I-1J-1552D01*
G37*
G36*
G01X409379Y354073D02*
G03Y354627I-289J277D01*
G02X408948Y355700I1120J1073D01*
G02X410500Y357252I1552J0D01*
G02X411693Y356693I0J-1553D01*
G03X412307I307J256D01*
G02X413500Y357252I1193J-994D01*
G02X415052Y355700I0J-1552D01*
G02X414621Y354627I-1551J0D01*
G03Y354073I289J-277D01*
G02X415052Y353000I-1120J-1073D01*
G02X413500Y351448I-1552J0D01*
G02X412307Y352007I0J1553D01*
G03X411693I-307J-256D01*
G02X410500Y351448I-1193J994D01*
G02X408948Y353000I0J1552D01*
G02X409379Y354073I1551J0D01*
G37*
G36*
G01X463907Y326634D02*
G03X464030Y327208I-204J344D01*
G02X463748Y328100I1270J892D01*
G02X466852I1552J0D01*
G02X466093Y326766I-1552J0D01*
G03X465970Y326192I204J-344D01*
G02X466252Y325300I-1270J-892D01*
G02X463148I-1552J0D01*
G02X463907Y326634I1552J0D01*
G37*
G36*
G01X612194Y214874D02*
G03X611866Y215366I-388J96D01*
G02X610548Y216900I234J1534D01*
G02X613652I1552J0D01*
G02X613606Y216526I-1552J1D01*
G03X613934Y216034I388J-96D01*
G02X615252Y214500I-234J-1534D01*
G02X612148I-1552J0D01*
G02X612194Y214874I1552J-1D01*
G37*
G36*
G01X128106Y33918D02*
Y43682D01*
G02X129092Y44668I986J0D01*
G01X138856D01*
G02X139842Y43682I0J-986D01*
G01Y33918D01*
G02X138856Y32932I-986J0D01*
G01X129092D01*
G02X128106Y33918I0J986D01*
G37*
G36*
G01X798510Y555432D02*
Y563306D01*
G02X799012Y563808I502J0D01*
G01X806886D01*
G02X807388Y563306I0J-502D01*
G01Y555432D01*
G02X806886Y554930I-502J0D01*
G01X799012D01*
G02X798510Y555432I0J502D01*
G37*
G36*
G01X913610D02*
Y563306D01*
G02X914112Y563808I502J0D01*
G01X921986D01*
G02X922488Y563306I0J-502D01*
G01Y555432D01*
G02X921986Y554930I-502J0D01*
G01X914112D01*
G02X913610Y555432I0J502D01*
G37*
G36*
G01X798510Y476691D02*
Y484565D01*
G02X799012Y485066I502J-1D01*
G01X806886D01*
G02X807388Y484565I1J-501D01*
G01Y476691D01*
G02X806886Y476190I-502J1D01*
G01X799012D01*
G02X798510Y476691I-1J501D01*
G37*
G36*
G01X84650Y38212D02*
Y44148D01*
G02X92558I3954J0D01*
G01Y38212D01*
G02X84650I-3954J0D01*
G37*
G36*
G01X67132Y33323D02*
X73068D01*
G02Y25415I0J-3954D01*
G01X67132D01*
G02Y33323I0J3954D01*
G37*
G36*
G01Y56945D02*
X73068D01*
G02Y49037I0J-3954D01*
G01X67132D01*
G02Y56945I0J3954D01*
G37*
G36*
G01X820852Y575117D02*
Y582991D01*
G02X821354Y583492I502J-1D01*
G01X829228D01*
G02X829730Y582991I1J-501D01*
G01Y575117D01*
G02X829228Y574616I-502J1D01*
G01X821354D01*
G02X820852Y575117I-1J501D01*
G37*
G36*
G01X854612D02*
Y582991D01*
G02X855114Y583492I502J-1D01*
G01X862988D01*
G02X863490Y582991I1J-501D01*
G01Y575117D01*
G02X862988Y574616I-502J1D01*
G01X855114D01*
G02X854612Y575117I-1J501D01*
G37*
G36*
G01X913610Y476691D02*
Y484565D01*
G02X914112Y485066I502J-1D01*
G01X921986D01*
G02X922488Y484565I1J-501D01*
G01Y476691D01*
G02X921986Y476190I-502J1D01*
G01X914112D01*
G02X913610Y476691I-1J501D01*
G37*
G36*
G01X935952Y575117D02*
Y582991D01*
G02X936454Y583492I502J-1D01*
G01X944328D01*
G02X944830Y582991I1J-501D01*
G01Y575117D01*
G02X944328Y574616I-502J1D01*
G01X936454D01*
G02X935952Y575117I-1J501D01*
G37*
G36*
G01X969712D02*
Y582991D01*
G02X970214Y583492I502J-1D01*
G01X978088D01*
G02X978590Y582991I1J-501D01*
G01Y575117D01*
G02X978088Y574616I-502J1D01*
G01X970214D01*
G02X969712Y575117I-1J501D01*
G37*
G36*
G01X960986Y75866D02*
Y81724D01*
G02X961971Y82710I985J1D01*
G01X967829D01*
G02X968814Y81724I-1J-986D01*
G01Y75866D01*
G02X967829Y74880I-985J-1D01*
G01X961971D01*
G02X960986Y75866I1J986D01*
G37*
G36*
G01X1023752Y575117D02*
Y582991D01*
G02X1024254Y583492I502J-1D01*
G01X1032128D01*
G02X1032630Y582991I1J-501D01*
G01Y575117D01*
G02X1032128Y574616I-502J1D01*
G01X1024254D01*
G02X1023752Y575117I-1J501D01*
G37*
G36*
G01X1144412Y496576D02*
Y504450D01*
G02X1144914Y504952I502J0D01*
G01X1152788D01*
G02X1153290Y504450I0J-502D01*
G01Y496576D01*
G02X1152788Y496074I-502J0D01*
G01X1144914D01*
G02X1144412Y496576I0J502D01*
G37*
G36*
G01Y575317D02*
Y583191D01*
G02X1144914Y583692I502J-1D01*
G01X1152788D01*
G02X1153290Y583191I1J-501D01*
G01Y575317D01*
G02X1152788Y574816I-502J1D01*
G01X1144914D01*
G02X1144412Y575317I-1J501D01*
G37*
G36*
G01X1122070Y496576D02*
Y504450D01*
G02X1122572Y504952I502J0D01*
G01X1130446D01*
G02X1130948Y504450I0J-502D01*
G01Y496576D01*
G02X1130446Y496074I-502J0D01*
G01X1122572D01*
G02X1122070Y496576I0J502D01*
G37*
G36*
G01X1110652Y575317D02*
Y583191D01*
G02X1111154Y583692I502J-1D01*
G01X1119028D01*
G02X1119530Y583191I1J-501D01*
G01Y575317D01*
G02X1119028Y574816I-502J1D01*
G01X1111154D01*
G02X1110652Y575317I-1J501D01*
G37*
G36*
G01X1088310Y555632D02*
Y563506D01*
G02X1088812Y564008I502J0D01*
G01X1096686D01*
G02X1097188Y563506I0J-502D01*
G01Y555632D01*
G02X1096686Y555130I-502J0D01*
G01X1088812D01*
G02X1088310Y555632I0J502D01*
G37*
G36*
G01Y476891D02*
Y484765D01*
G02X1088812Y485266I502J-1D01*
G01X1096686D01*
G02X1097188Y484765I1J-501D01*
G01Y476891D01*
G02X1096686Y476390I-502J1D01*
G01X1088812D01*
G02X1088310Y476891I-1J501D01*
G37*
G36*
G01Y437521D02*
Y445395D01*
G02X1088812Y445896I502J-1D01*
G01X1096686D01*
G02X1097188Y445395I1J-501D01*
G01Y437521D01*
G02X1096686Y437020I-502J1D01*
G01X1088812D01*
G02X1088310Y437521I-1J501D01*
G37*
G36*
G01X1001410Y476691D02*
Y484565D01*
G02X1001912Y485066I502J-1D01*
G01X1009786D01*
G02X1010288Y484565I1J-501D01*
G01Y476691D01*
G02X1009786Y476190I-502J1D01*
G01X1001912D01*
G02X1001410Y476691I-1J501D01*
G37*
G36*
G01X1057512Y575117D02*
Y582991D01*
G02X1058014Y583492I502J-1D01*
G01X1065888D01*
G02X1066390Y582991I1J-501D01*
G01Y575117D01*
G02X1065888Y574616I-502J1D01*
G01X1058014D01*
G02X1057512Y575117I-1J501D01*
G37*
G36*
G01X1001410Y555432D02*
Y563306D01*
G02X1001912Y563808I502J0D01*
G01X1009786D01*
G02X1010288Y563306I0J-502D01*
G01Y555432D01*
G02X1009786Y554930I-502J0D01*
G01X1001912D01*
G02X1001410Y555432I0J502D01*
G37*
G36*
G01X710710Y437321D02*
Y445195D01*
G02X711212Y445696I502J-1D01*
G01X719086D01*
G02X719588Y445195I1J-501D01*
G01Y437321D01*
G02X719086Y436820I-502J1D01*
G01X711212D01*
G02X710710Y437321I-1J501D01*
G37*
G36*
G01X527662Y548548D02*
Y554052D01*
G02X528648Y555038I986J0D01*
G01X534152D01*
G02X535138Y554052I0J-986D01*
G01Y548548D01*
G02X534152Y547562I-986J0D01*
G01X528648D01*
G02X527662Y548548I0J986D01*
G37*
G36*
G01X383862D02*
Y554052D01*
G02X384848Y555038I986J0D01*
G01X390352D01*
G02X391338Y554052I0J-986D01*
G01Y548548D01*
G02X390352Y547562I-986J0D01*
G01X384848D01*
G02X383862Y548548I0J986D01*
G37*
G36*
G01X240062D02*
Y554052D01*
G02X241048Y555038I986J0D01*
G01X246552D01*
G02X247538Y554052I0J-986D01*
G01Y548548D01*
G02X246552Y547562I-986J0D01*
G01X241048D01*
G02X240062Y548548I0J986D01*
G37*
G36*
G01X96262D02*
Y554052D01*
G02X97248Y555038I986J0D01*
G01X102752D01*
G02X103738Y554052I0J-986D01*
G01Y548548D01*
G02X102752Y547562I-986J0D01*
G01X97248D01*
G02X96262Y548548I0J986D01*
G37*
G36*
G01X854612Y496376D02*
Y504250D01*
G02X855114Y504752I502J0D01*
G01X862988D01*
G02X863490Y504250I0J-502D01*
G01Y496376D01*
G02X862988Y495874I-502J0D01*
G01X855114D01*
G02X854612Y496376I0J502D01*
G37*
G36*
G01X926110D02*
Y504250D01*
G02X926612Y504752I502J0D01*
G01X934486D01*
G02X934988Y504250I0J-502D01*
G01Y496376D01*
G02X934486Y495874I-502J0D01*
G01X926612D01*
G02X926110Y496376I0J502D01*
G37*
G36*
G01X969712D02*
Y504250D01*
G02X970214Y504752I502J0D01*
G01X978088D01*
G02X978590Y504250I0J-502D01*
G01Y496376D01*
G02X978088Y495874I-502J0D01*
G01X970214D01*
G02X969712Y496376I0J502D01*
G37*
G36*
G01X854612Y535746D02*
Y543620D01*
G02X855114Y544122I502J0D01*
G01X862988D01*
G02X863490Y543620I0J-502D01*
G01Y535746D01*
G02X862988Y535244I-502J0D01*
G01X855114D01*
G02X854612Y535746I0J502D01*
G37*
G36*
G01X1057512D02*
Y543620D01*
G02X1058014Y544122I502J0D01*
G01X1065888D01*
G02X1066390Y543620I0J-502D01*
G01Y535746D01*
G02X1065888Y535244I-502J0D01*
G01X1058014D01*
G02X1057512Y535746I0J502D01*
G37*
G36*
G01Y496376D02*
Y504250D01*
G02X1058014Y504752I502J0D01*
G01X1065888D01*
G02X1066390Y504250I0J-502D01*
G01Y496376D01*
G02X1065888Y495874I-502J0D01*
G01X1058014D01*
G02X1057512Y496376I0J502D01*
G37*
G36*
G01X832270D02*
Y504250D01*
G02X832772Y504752I502J0D01*
G01X840646D01*
G02X841148Y504250I0J-502D01*
G01Y496376D01*
G02X840646Y495874I-502J0D01*
G01X832772D01*
G02X832270Y496376I0J502D01*
G37*
G36*
G01X1001410Y437321D02*
Y445195D01*
G02X1001912Y445696I502J-1D01*
G01X1009786D01*
G02X1010288Y445195I1J-501D01*
G01Y437321D01*
G02X1009786Y436820I-502J1D01*
G01X1001912D01*
G02X1001410Y437321I-1J501D01*
G37*
G36*
G01X811010Y496376D02*
Y504250D01*
G02X811512Y504752I502J0D01*
G01X819386D01*
G02X819888Y504250I0J-502D01*
G01Y496376D01*
G02X819386Y495874I-502J0D01*
G01X811512D01*
G02X811010Y496376I0J502D01*
G37*
G36*
G01X798510Y437321D02*
Y445195D01*
G02X799012Y445696I502J-1D01*
G01X806886D01*
G02X807388Y445195I1J-501D01*
G01Y437321D01*
G02X806886Y436820I-502J1D01*
G01X799012D01*
G02X798510Y437321I-1J501D01*
G37*
G36*
G01X913610D02*
Y445195D01*
G02X914112Y445696I502J-1D01*
G01X921986D01*
G02X922488Y445195I1J-501D01*
G01Y437321D01*
G02X921986Y436820I-502J1D01*
G01X914112D01*
G02X913610Y437321I-1J501D01*
G37*
G36*
G01X969712Y535746D02*
Y543620D01*
G02X970214Y544122I502J0D01*
G01X978088D01*
G02X978590Y543620I0J-502D01*
G01Y535746D01*
G02X978088Y535244I-502J0D01*
G01X970214D01*
G02X969712Y535746I0J502D01*
G37*
G36*
G01X947370Y496376D02*
Y504250D01*
G02X947872Y504752I502J0D01*
G01X955746D01*
G02X956248Y504250I0J-502D01*
G01Y496376D01*
G02X955746Y495874I-502J0D01*
G01X947872D01*
G02X947370Y496376I0J502D01*
G37*
G36*
G01X1035170D02*
Y504250D01*
G02X1035672Y504752I502J0D01*
G01X1043546D01*
G02X1044048Y504250I0J-502D01*
G01Y496376D01*
G02X1043546Y495874I-502J0D01*
G01X1035672D01*
G02X1035170Y496376I0J502D01*
G37*
G36*
G01X798510Y516061D02*
Y523935D01*
G02X799012Y524436I502J-1D01*
G01X806886D01*
G02X807388Y523935I1J-501D01*
G01Y516061D01*
G02X806886Y515560I-502J1D01*
G01X799012D01*
G02X798510Y516061I-1J501D01*
G37*
G36*
G01X1001410D02*
Y523935D01*
G02X1001912Y524436I502J-1D01*
G01X1009786D01*
G02X1010288Y523935I1J-501D01*
G01Y516061D01*
G02X1009786Y515560I-502J1D01*
G01X1001912D01*
G02X1001410Y516061I-1J501D01*
G37*
G36*
G01X1144412Y535946D02*
Y543820D01*
G02X1144914Y544322I502J0D01*
G01X1152788D01*
G02X1153290Y543820I0J-502D01*
G01Y535946D01*
G02X1152788Y535444I-502J0D01*
G01X1144914D01*
G02X1144412Y535946I0J502D01*
G37*
G36*
G01X1100810Y496576D02*
Y504450D01*
G02X1101312Y504952I502J0D01*
G01X1109186D01*
G02X1109688Y504450I0J-502D01*
G01Y496576D01*
G02X1109186Y496074I-502J0D01*
G01X1101312D01*
G02X1100810Y496576I0J502D01*
G37*
G36*
G01X1088310Y516261D02*
Y524135D01*
G02X1088812Y524636I502J-1D01*
G01X1096686D01*
G02X1097188Y524135I1J-501D01*
G01Y516261D01*
G02X1096686Y515760I-502J1D01*
G01X1088812D01*
G02X1088310Y516261I-1J501D01*
G37*
G36*
G01X913610Y516061D02*
Y523935D01*
G02X914112Y524436I502J-1D01*
G01X921986D01*
G02X922488Y523935I1J-501D01*
G01Y516061D01*
G02X921986Y515560I-502J1D01*
G01X914112D01*
G02X913610Y516061I-1J501D01*
G37*
G36*
G01X1013910Y496376D02*
Y504250D01*
G02X1014412Y504752I502J0D01*
G01X1022286D01*
G02X1022788Y504250I0J-502D01*
G01Y496376D01*
G02X1022286Y495874I-502J0D01*
G01X1014412D01*
G02X1013910Y496376I0J502D01*
G37*
G36*
G01X623610Y437321D02*
Y445195D01*
G02X624112Y445696I502J-1D01*
G01X631986D01*
G02X632488Y445195I1J-501D01*
G01Y437321D01*
G02X631986Y436820I-502J1D01*
G01X624112D01*
G02X623610Y437321I-1J501D01*
G37*
G36*
G01Y476691D02*
Y484565D01*
G02X624112Y485066I502J-1D01*
G01X631986D01*
G02X632488Y484565I1J-501D01*
G01Y476691D01*
G02X631986Y476190I-502J1D01*
G01X624112D01*
G02X623610Y476691I-1J501D01*
G37*
G36*
G01Y516061D02*
Y523935D01*
G02X624112Y524436I502J-1D01*
G01X631986D01*
G02X632488Y523935I1J-501D01*
G01Y516061D01*
G02X631986Y515560I-502J1D01*
G01X624112D01*
G02X623610Y516061I-1J501D01*
G37*
G36*
G01Y555432D02*
Y563306D01*
G02X624112Y563808I502J0D01*
G01X631986D01*
G02X632488Y563306I0J-502D01*
G01Y555432D01*
G02X631986Y554930I-502J0D01*
G01X624112D01*
G02X623610Y555432I0J502D01*
G37*
G36*
G01X636110Y496376D02*
Y504250D01*
G02X636612Y504752I502J0D01*
G01X644486D01*
G02X644988Y504250I0J-502D01*
G01Y496376D01*
G02X644486Y495874I-502J0D01*
G01X636612D01*
G02X636110Y496376I0J502D01*
G37*
G36*
G01X645952Y575117D02*
Y582991D01*
G02X646454Y583492I502J-1D01*
G01X654328D01*
G02X654830Y582991I1J-501D01*
G01Y575117D01*
G02X654328Y574616I-502J1D01*
G01X646454D01*
G02X645952Y575117I-1J501D01*
G37*
G36*
G01X657370Y496376D02*
Y504250D01*
G02X657872Y504752I502J0D01*
G01X665746D01*
G02X666248Y504250I0J-502D01*
G01Y496376D01*
G02X665746Y495874I-502J0D01*
G01X657872D01*
G02X657370Y496376I0J502D01*
G37*
G36*
G01X679712Y575117D02*
Y582991D01*
G02X680214Y583492I502J-1D01*
G01X688088D01*
G02X688590Y582991I1J-501D01*
G01Y575117D01*
G02X688088Y574616I-502J1D01*
G01X680214D01*
G02X679712Y575117I-1J501D01*
G37*
G36*
G01Y535746D02*
Y543620D01*
G02X680214Y544122I502J0D01*
G01X688088D01*
G02X688590Y543620I0J-502D01*
G01Y535746D01*
G02X688088Y535244I-502J0D01*
G01X680214D01*
G02X679712Y535746I0J502D01*
G37*
G36*
G01Y496376D02*
Y504250D01*
G02X680214Y504752I502J0D01*
G01X688088D01*
G02X688590Y504250I0J-502D01*
G01Y496376D01*
G02X688088Y495874I-502J0D01*
G01X680214D01*
G02X679712Y496376I0J502D01*
G37*
G36*
G01X766812D02*
Y504250D01*
G02X767314Y504752I502J0D01*
G01X775188D01*
G02X775690Y504250I0J-502D01*
G01Y496376D01*
G02X775188Y495874I-502J0D01*
G01X767314D01*
G02X766812Y496376I0J502D01*
G37*
G36*
G01Y535746D02*
Y543620D01*
G02X767314Y544122I502J0D01*
G01X775188D01*
G02X775690Y543620I0J-502D01*
G01Y535746D01*
G02X775188Y535244I-502J0D01*
G01X767314D01*
G02X766812Y535746I0J502D01*
G37*
G36*
G01Y575117D02*
Y582991D01*
G02X767314Y583492I502J-1D01*
G01X775188D01*
G02X775690Y582991I1J-501D01*
G01Y575117D01*
G02X775188Y574616I-502J1D01*
G01X767314D01*
G02X766812Y575117I-1J501D01*
G37*
G36*
G01X744470Y496376D02*
Y504250D01*
G02X744972Y504752I502J0D01*
G01X752846D01*
G02X753348Y504250I0J-502D01*
G01Y496376D01*
G02X752846Y495874I-502J0D01*
G01X744972D01*
G02X744470Y496376I0J502D01*
G37*
G36*
G01X733052Y575117D02*
Y582991D01*
G02X733554Y583492I502J-1D01*
G01X741428D01*
G02X741930Y582991I1J-501D01*
G01Y575117D01*
G02X741428Y574616I-502J1D01*
G01X733554D01*
G02X733052Y575117I-1J501D01*
G37*
G36*
G01X723210Y496376D02*
Y504250D01*
G02X723712Y504752I502J0D01*
G01X731586D01*
G02X732088Y504250I0J-502D01*
G01Y496376D01*
G02X731586Y495874I-502J0D01*
G01X723712D01*
G02X723210Y496376I0J502D01*
G37*
G36*
G01X710710Y555432D02*
Y563306D01*
G02X711212Y563808I502J0D01*
G01X719086D01*
G02X719588Y563306I0J-502D01*
G01Y555432D01*
G02X719086Y554930I-502J0D01*
G01X711212D01*
G02X710710Y555432I0J502D01*
G37*
G36*
G01Y516061D02*
Y523935D01*
G02X711212Y524436I502J-1D01*
G01X719086D01*
G02X719588Y523935I1J-501D01*
G01Y516061D01*
G02X719086Y515560I-502J1D01*
G01X711212D01*
G02X710710Y516061I-1J501D01*
G37*
G36*
G01Y476691D02*
Y484565D01*
G02X711212Y485066I502J-1D01*
G01X719086D01*
G02X719588Y484565I1J-501D01*
G01Y476691D01*
G02X719086Y476190I-502J1D01*
G01X711212D01*
G02X710710Y476691I-1J501D01*
G37*
G36*
G01X437636Y319400D02*
G02X438900Y320052I1264J-899D01*
G02X440452Y318500I0J-1552D01*
G02X439343Y317013I-1551J0D01*
G01X439200Y316970D01*
Y312706D01*
X439332Y312658D01*
G02X440352Y311200I-532J-1458D01*
G02X438800Y309648I-1552J0D01*
G02X438657Y309655I4J1552D01*
G01X438563Y309663D01*
X438500Y309600D01*
X432300D01*
X431200Y308500D01*
X417100D01*
X409600Y301000D01*
Y293700D01*
X398600Y282700D01*
X375100D01*
X370800Y287000D01*
Y335300D01*
X374700Y339200D01*
X398600D01*
X416900Y320900D01*
X431000D01*
X432500Y319400D01*
X437636D01*
G37*
G54D41*
X1108031Y317200D03*
X936804Y232703D03*
X456000Y228400D03*
X933297Y232703D03*
X1111700Y317200D03*
X1025106Y228402D03*
X733900Y275400D03*
X818100Y274044D03*
X820994Y232493D03*
X733800Y235000D03*
X1110993Y279400D03*
X643636Y277539D03*
X730293Y235000D03*
X821607Y274044D03*
X933293Y282097D03*
X936800D03*
X647143Y277539D03*
X1021599Y228402D03*
X817487Y232493D03*
X1024491Y276800D03*
X1020984D03*
X730393Y275400D03*
X646850Y235350D03*
X1114500Y279400D03*
X501521Y236200D03*
X490000Y230800D03*
X1114700Y226400D03*
X498014Y236200D03*
X643343Y235350D03*
X485941Y230248D03*
X459507Y228400D03*
X937000Y317600D03*
X933331D03*
X1111193Y226400D03*
X643431Y317600D03*
X647100D03*
X734200D03*
X730531D03*
X822000D03*
X818331D03*
X1021131D03*
X1024800D03*
G54D35*
X374700Y352600D03*
X370400Y352700D03*
X373300Y356300D03*
X366800Y272700D03*
X427600Y293700D03*
X418250Y290250D03*
X423700Y292800D03*
X422000Y286300D03*
X96000Y447000D03*
X769847Y418347D03*
X607800Y424100D03*
X1079900Y332200D03*
X614700Y331100D03*
X1162200Y376500D03*
Y384900D03*
X857547Y418353D03*
X629453Y419700D03*
X1066500Y384700D03*
X904800Y331400D03*
X716553Y418347D03*
X790300Y332200D03*
X871100Y424700D03*
X1147447Y418347D03*
X702600Y334700D03*
X682647Y418353D03*
X993100Y331900D03*
X751912Y422211D03*
X666300Y480300D03*
X1099353Y442700D03*
X1130400Y455800D03*
X1117700Y449200D03*
X1129257Y467300D03*
X1153706Y391206D03*
X1126728Y487872D03*
X1130900Y480300D03*
X1124557Y465700D03*
X1037700Y449000D03*
X755492Y422211D03*
X1124600Y455000D03*
X841200Y480300D03*
X1092200Y390800D03*
X642828Y487872D03*
X949900Y455000D03*
X947872Y487872D03*
X725597Y442700D03*
X804353Y418347D03*
X1122572Y487872D03*
X662128D03*
X1094153Y418347D03*
X1046082Y419892D03*
X1117306Y455100D03*
X1007253Y418353D03*
X1039828Y487872D03*
X843282Y421760D03*
X954702Y421860D03*
X443700Y39400D03*
X972747Y418347D03*
X612450Y423450D03*
X817728Y487872D03*
X1030406Y455100D03*
X1044000Y480300D03*
X1042502Y419892D03*
X1020528Y487872D03*
X952028D03*
X949900Y449000D03*
X1035672Y487872D03*
X943000Y449200D03*
X1124600Y449000D03*
X837028Y487872D03*
X956200Y480300D03*
X1155344Y337426D03*
X1136600Y315000D03*
X1141328Y339972D03*
X657972Y487872D03*
X721853Y442700D03*
X1103097D03*
X832872Y487872D03*
X1129300Y353400D03*
X1108400Y358500D03*
X1134100Y353800D03*
X668382Y420860D03*
X1129500Y382500D03*
X1119400Y337700D03*
X1123800Y383100D03*
X1098137Y413363D03*
X1108100Y372700D03*
X942606Y455100D03*
X958282Y421860D03*
X1043500Y455800D03*
X1012453Y442700D03*
X1030800Y449200D03*
X1037657Y465700D03*
X1107428Y487872D03*
X1073800Y347000D03*
X1132982Y419892D03*
X1129402D03*
X523800Y23100D03*
X494100Y18700D03*
X455800D03*
X827606Y455100D03*
X526000Y38200D03*
X733600Y70500D03*
X596900Y38900D03*
X635060Y83400D03*
X581840Y39400D03*
X619860Y40300D03*
X610600Y39000D03*
X607020D03*
X1130053Y290747D03*
X656500Y18200D03*
X553800Y22800D03*
X723400Y17000D03*
X588000Y41300D03*
X1119800Y353200D03*
X1115153Y290647D03*
X559500Y15600D03*
X648800Y93100D03*
X549160Y167300D03*
X1105300Y322000D03*
X1114400D03*
X1101000Y334900D03*
Y326301D03*
X663660Y130000D03*
X1110400Y382000D03*
X1015100Y391200D03*
X605060Y146900D03*
X505700Y62700D03*
X616600Y39000D03*
X548700Y40700D03*
X565200Y22300D03*
X509740Y180900D03*
X655660Y89900D03*
X506160Y180900D03*
X641049Y155589D03*
X691840Y40400D03*
X514660Y200300D03*
X667240Y130000D03*
X583220Y197900D03*
X747100Y455000D03*
X692940Y188700D03*
X688260Y40400D03*
X539400Y38100D03*
X747057Y465700D03*
X812200Y391400D03*
X394900Y355700D03*
X549300Y23100D03*
X983200Y413700D03*
X543050Y39550D03*
X855600Y391900D03*
X679700Y391800D03*
X867800Y391600D03*
X713387Y415920D03*
X627367Y117893D03*
X1071700Y413200D03*
X671660Y133800D03*
X1037700Y455000D03*
X1057600Y391900D03*
X1102400Y391400D03*
X597320Y186200D03*
X589040Y127740D03*
X726500Y65900D03*
X643220Y37800D03*
X867600Y413800D03*
X762800Y413600D03*
X623440Y40300D03*
X637500Y391300D03*
X585100Y37600D03*
X1104000Y411700D03*
X518220Y40800D03*
X506000Y197100D03*
X983200Y391500D03*
X623700Y412600D03*
X609700Y21900D03*
X927200Y391400D03*
X1071400Y391900D03*
X1016400Y412500D03*
X1087600Y391100D03*
X928600Y411700D03*
X1087900Y415400D03*
X767000Y392000D03*
X689360Y188700D03*
X611867Y108993D03*
X751757Y467300D03*
X562077Y157517D03*
X485200Y59400D03*
X726000Y411900D03*
X704860Y140200D03*
X1053400Y412500D03*
X582560Y140100D03*
X565657Y157517D03*
X693500Y414000D03*
X726450Y21250D03*
X1156800Y414400D03*
X1141500Y413200D03*
X586140Y140100D03*
X1042357Y467300D03*
X600900Y186200D03*
X630947Y117893D03*
X465100Y537300D03*
X502420Y197100D03*
X586800Y197900D03*
X1000600Y415300D03*
X969800Y392000D03*
X619860Y171400D03*
X1107600Y364347D03*
X1152900Y326300D03*
X675240Y133800D03*
X518240Y200300D03*
X1143800Y310900D03*
X599160Y43000D03*
X752900Y455800D03*
X359800Y46600D03*
X1016197Y442700D03*
X780500Y391600D03*
X521800Y40800D03*
X667400Y42600D03*
X839300Y28800D03*
X574160Y149100D03*
X645220Y93100D03*
X659240Y89900D03*
X693200Y391700D03*
X615447Y108993D03*
X628100Y21600D03*
X570700Y22400D03*
X663820Y42600D03*
X647100Y17900D03*
X593320Y132600D03*
X651476Y155700D03*
X647249Y124611D03*
X758850Y40200D03*
X650829Y124611D03*
X842200Y25600D03*
X659200Y39300D03*
X623440Y171400D03*
X1151600Y337426D03*
X661060Y78500D03*
X655620Y39300D03*
X763000Y43800D03*
X689260Y91500D03*
X692840D03*
X915940Y281116D03*
X1085140Y164500D03*
X540060Y141200D03*
X719540Y284900D03*
X543640Y141200D03*
X622520Y281700D03*
X1090640Y275800D03*
X709760Y279500D03*
X801140Y277973D03*
X1099340Y280960D03*
X998660Y276000D03*
X1095760Y280960D03*
X716260Y194800D03*
X708440Y140200D03*
X715960Y284900D03*
X798100Y415400D03*
X913283Y414983D03*
X797560Y277973D03*
X802920Y283400D03*
X806500D03*
X713340Y279500D03*
X1005860Y282416D03*
X626100Y281700D03*
X593320Y38900D03*
X621900Y36800D03*
X1087060Y275800D03*
X724400Y391400D03*
X704500Y16600D03*
X1140700Y315500D03*
X602740Y43000D03*
X644629Y155589D03*
X638640Y83400D03*
X646800Y37800D03*
X849500Y413600D03*
X676400Y412600D03*
X965300Y412300D03*
X655056Y155700D03*
X608640Y146900D03*
X843800Y397100D03*
X922840Y274700D03*
X627520Y276900D03*
X1002240Y276000D03*
X957800Y397700D03*
X631100Y276900D03*
X217300Y269100D03*
X719840Y194800D03*
X1081560Y164500D03*
X1045200Y398100D03*
X413460Y252240D03*
X402400Y268600D03*
X526160Y252240D03*
X1157300Y391700D03*
X61500Y270500D03*
X402400Y278800D03*
X72206Y276906D03*
X420053Y274447D03*
X429000Y388200D03*
X429100Y382100D03*
X571400D03*
X424300Y485200D03*
X412800D03*
X429500Y393400D03*
X538400Y480300D03*
X490300Y410700D03*
X428700Y404400D03*
X430300Y399100D03*
X430200Y408300D03*
X504100Y410500D03*
X523300Y477400D03*
X418500Y485200D03*
X534600Y367400D03*
X382400Y485200D03*
X425800Y378100D03*
X530900Y367500D03*
X376300Y485200D03*
X568700Y468900D03*
X392100Y248500D03*
X370400Y485200D03*
X252900Y197400D03*
X25400Y167100D03*
X406250Y398750D03*
X344200Y37600D03*
X829300Y20200D03*
X495700Y448600D03*
X873200Y39600D03*
X391760Y383360D03*
X463800Y151700D03*
X620920Y200900D03*
X368000Y387100D03*
X680760Y175100D03*
X684340D03*
X596900Y132600D03*
X370900Y398900D03*
X1009440Y282416D03*
X742200Y104300D03*
X559500Y40400D03*
X906000Y32700D03*
X733200Y107300D03*
X723400Y63200D03*
X1035400Y25300D03*
X407000Y485200D03*
X725440Y104200D03*
X721860D03*
X630400Y207300D03*
X432200Y450800D03*
X624500Y200900D03*
X635100Y21900D03*
X715700Y99200D03*
X755800Y396900D03*
X583900Y102500D03*
X571700Y111008D03*
X626820Y207300D03*
X715700Y139800D03*
X25700Y176100D03*
X561500Y468900D03*
X571700Y73100D03*
X461200Y100800D03*
X243300Y191900D03*
X466300Y157200D03*
X463803Y104100D03*
X719700Y136900D03*
X588000Y86600D03*
X466300Y107400D03*
X247800Y191900D03*
X857400Y15000D03*
X554400Y468900D03*
X461200Y148400D03*
X1132050Y398850D03*
X508900Y470500D03*
X737600Y68400D03*
X252400Y191800D03*
X451118Y58900D03*
X585460Y127740D03*
X719700Y86600D03*
X541400Y475200D03*
X577740Y149100D03*
X664640Y78500D03*
X364400Y485200D03*
X34500Y159700D03*
X239200Y197400D03*
X331650Y71450D03*
X243800Y197400D03*
X713000Y76200D03*
X188850Y134650D03*
X204200Y340100D03*
X184400Y339800D03*
X571650Y36650D03*
X204200Y281800D03*
X109200Y296000D03*
X210900Y211700D03*
X181200Y285500D03*
X234500Y354400D03*
X248300Y197400D03*
X800500Y17300D03*
X14200Y133800D03*
X184800Y281900D03*
X181600Y215400D03*
X239200Y191900D03*
X48450Y122250D03*
X282000Y43600D03*
X36500Y123700D03*
X268800Y65700D03*
X188400Y226300D03*
X86440Y299740D03*
X83000Y283200D03*
X229000Y341800D03*
X177500Y216300D03*
X210040Y358140D03*
X233700Y222500D03*
X256000Y43500D03*
X268800Y42900D03*
X441700Y475100D03*
X138790Y443700D03*
X353918Y157982D03*
X357300Y161700D03*
X411361Y161639D03*
X114100Y311500D03*
X794800Y40800D03*
X388900Y25700D03*
X353918Y508800D03*
X501700Y435600D03*
X315760Y425600D03*
X211040Y226240D03*
X184500Y211600D03*
X882143Y52243D03*
X361200Y531143D03*
X256100Y110100D03*
X457440Y501460D03*
X467900Y508800D03*
X465358Y372000D03*
X207500Y110100D03*
X350506Y503100D03*
X388100Y37300D03*
X51000Y315700D03*
X343000Y210800D03*
X163763Y208037D03*
X453751Y501460D03*
X361200Y166000D03*
X460616Y535684D03*
X319340Y194000D03*
X116600Y315700D03*
X873400Y20300D03*
X254890Y421400D03*
X612900Y210900D03*
X413900Y157982D03*
X331872Y520172D03*
X810300Y22400D03*
X497200Y410700D03*
X479700Y531143D03*
X281960Y64960D03*
X231800Y211700D03*
X613000Y118100D03*
X195700Y552000D03*
X331160Y411600D03*
X552740Y167300D03*
X334740Y411600D03*
X429300Y60400D03*
X635620Y132300D03*
X26692Y181491D03*
X205200Y552700D03*
X468143Y533600D03*
X1124900Y99500D03*
X431800Y67400D03*
X357300Y490339D03*
X315760Y194000D03*
X813700Y411900D03*
X135210Y443700D03*
X146106Y526494D03*
X1145700Y391800D03*
X816800Y22400D03*
X45400Y350900D03*
X163737Y278937D03*
X406243Y166057D03*
X177100Y286100D03*
X866900Y40900D03*
X858800Y40200D03*
X343000Y499300D03*
X461778Y372000D03*
X148026Y462574D03*
X151715D03*
X45400Y311500D03*
X121600Y325600D03*
X32100D03*
X432900Y473000D03*
X73250Y307550D03*
X425400Y490339D03*
X60149Y431800D03*
X56250D03*
X163737Y337437D03*
X285700Y89600D03*
X196850Y365450D03*
X461778Y503900D03*
X465358D03*
X388100Y12500D03*
X251310Y421400D03*
X88400Y358400D03*
X389600Y153900D03*
X334940Y178700D03*
X512460Y315600D03*
X416480Y153780D03*
X526200Y154700D03*
X516040Y315600D03*
X556700Y99800D03*
X530843D03*
X545700Y103700D03*
X534584D03*
X319340Y425600D03*
X425400Y263600D03*
X639200Y132300D03*
X272900Y463700D03*
X425800Y443257D03*
X259400Y232600D03*
X429300Y447300D03*
X350543Y378100D03*
X268500Y271600D03*
X272900Y274600D03*
X446000Y146800D03*
X114100Y238888D03*
X262300Y529800D03*
X264400Y235500D03*
X509300Y322600D03*
X421543Y150643D03*
X241900Y269100D03*
X268600Y459700D03*
X888400Y65200D03*
X1110740Y139500D03*
X866900Y217200D03*
X699000Y201700D03*
X775600Y76600D03*
X1054500Y316050D03*
X850200Y274600D03*
X901120Y173300D03*
X651000Y89600D03*
X814040Y274500D03*
X786900Y264900D03*
X852700Y318400D03*
X725540Y274708D03*
X871400Y262300D03*
X1140700Y275800D03*
X582600Y425400D03*
X784000Y268800D03*
X1166200Y237500D03*
X829100Y57061D03*
X764500Y87500D03*
X930040Y279400D03*
X867000Y191400D03*
X884300Y184900D03*
X986660Y165460D03*
X925934Y122086D03*
X892800Y176900D03*
X588600Y262500D03*
X922200Y170500D03*
X588600Y418600D03*
X596700Y439700D03*
X448600Y63700D03*
X721960Y274708D03*
X568200Y89980D03*
X881000Y182100D03*
X416480Y89980D03*
X795399Y149408D03*
X884300Y68200D03*
X413920Y86780D03*
X356202Y528802D03*
X913000Y171700D03*
X880800Y81600D03*
X892800Y63300D03*
X922200Y91200D03*
X839600Y72800D03*
X691700Y207400D03*
X1162900Y240400D03*
X1094240Y159800D03*
X779200Y86300D03*
X972700Y193900D03*
X1054500Y184900D03*
X272900Y171800D03*
X1060000Y182100D03*
X639040Y276672D03*
X820400Y72200D03*
X609700Y92661D03*
X268500Y168288D03*
X551700Y243800D03*
X564700Y247800D03*
X1106925Y140595D03*
X1140700Y173600D03*
X1105685Y276200D03*
X563250Y72900D03*
X967200Y318000D03*
X873500Y259300D03*
X753000Y212200D03*
X1090660Y159800D03*
X866900Y283200D03*
X783400Y90100D03*
X421598Y95698D03*
X801020Y149100D03*
X904700Y173300D03*
X905300Y200200D03*
X781100Y414100D03*
X596700Y265000D03*
X772600Y217200D03*
X823800Y64700D03*
X1074000Y247800D03*
X116600Y242431D03*
X990240Y165460D03*
X836100Y200200D03*
X653900Y76341D03*
X833300Y67600D03*
X629200Y95698D03*
X840200Y196900D03*
X758800Y72200D03*
X546200Y237600D03*
X1054500Y276700D03*
X604100Y432700D03*
X773800Y278200D03*
X843900Y193900D03*
X788979Y35200D03*
X697300Y204800D03*
X1069500Y210000D03*
X810460Y116700D03*
X755800Y214500D03*
Y69700D03*
X1014800Y273400D03*
X582600Y259300D03*
X1076400Y244300D03*
X929514Y122086D03*
X446000Y73000D03*
X1076600Y179600D03*
X326272Y30572D03*
X888400Y179600D03*
X1069500Y281700D03*
X576600Y388200D03*
X761550Y53500D03*
X747200Y207400D03*
X628100Y83561D03*
X443441Y76341D03*
X909420Y171700D03*
X411361Y83561D03*
X918580Y87300D03*
X1080400Y176900D03*
X989900Y251900D03*
X604300Y268800D03*
X981600Y278800D03*
X350543Y150643D03*
X558700Y244300D03*
X967020Y197000D03*
X148300Y318900D03*
X153000Y265900D03*
X810460Y274500D03*
X24700Y270800D03*
X151500Y124000D03*
X160300D03*
X144000Y329600D03*
X155800Y124000D03*
X867000Y85300D03*
X546200Y404400D03*
X779200Y210000D03*
X918580Y173600D03*
X144000Y270900D03*
X148300Y329600D03*
X1109265Y276200D03*
X967020Y276280D03*
X443441Y154700D03*
X143800Y318900D03*
X804600Y149100D03*
X981600Y214200D03*
X20400Y270800D03*
X148200Y265700D03*
X766200Y319000D03*
X997060Y164100D03*
X783400Y207300D03*
X1155900D03*
X571200Y251900D03*
X987000Y256000D03*
X863100Y188000D03*
X758800Y216900D03*
X635460Y276672D03*
X1159900Y170500D03*
X691700Y281300D03*
X576600Y256000D03*
X814040Y116700D03*
X152800Y270900D03*
X143800Y260200D03*
X786300Y31900D03*
X742200Y201700D03*
X146500Y119000D03*
X823000Y54500D03*
X222800Y184800D03*
X20200Y260100D03*
X331360Y178700D03*
X1008920Y126600D03*
X753000Y67300D03*
X820100D03*
X137300Y113300D03*
X148200Y324400D03*
X771300Y78700D03*
X406243Y79900D03*
X1000640Y164100D03*
X419039Y92661D03*
X1011220Y273400D03*
X143800Y265600D03*
X212800Y180800D03*
X212200Y191900D03*
X225700D03*
X221000D03*
X216500D03*
X212200Y197400D03*
X225700D03*
X220900D03*
X216500Y197300D03*
X241200Y298500D03*
X863100Y82400D03*
X472400Y450700D03*
X791819Y149630D03*
X820500Y62200D03*
X750100Y209500D03*
X1012500Y126600D03*
X215000Y183900D03*
X817900Y51300D03*
X551700Y408300D03*
X904800Y203800D03*
X867000Y20700D03*
X448500Y301200D03*
X454700Y301153D03*
X241000Y303500D03*
X484700Y311100D03*
X148300Y260200D03*
X236400Y298300D03*
X487300Y328800D03*
X232200Y303500D03*
X836100Y70200D03*
X453000Y328050D03*
X144000Y195000D03*
X504706Y312800D03*
X512600Y298400D03*
X153000Y318900D03*
X464616Y313516D03*
X153200Y195300D03*
X640000Y411700D03*
X840200Y80700D03*
X24700Y260100D03*
X232000Y292800D03*
Y298200D03*
X463600Y301400D03*
X227700Y292800D03*
X153000Y200300D03*
X241200Y292800D03*
X762900Y276100D03*
X148300Y270900D03*
X236500Y303500D03*
X1155900Y282700D03*
X558700Y393400D03*
X137500Y124000D03*
X152800Y329600D03*
X913600Y21700D03*
X1057700D03*
X925047Y86400D03*
X744700Y204800D03*
X809414Y40900D03*
X208100Y230300D03*
X775600Y214200D03*
X977860Y98700D03*
X148500Y200300D03*
X981549Y98700D03*
X971840Y94700D03*
X632000Y79900D03*
X153000Y260200D03*
X144200Y200300D03*
X29400Y260100D03*
X968260Y94700D03*
X153200Y189600D03*
X141800Y113300D03*
X972800Y115300D03*
X151300Y113300D03*
X833300Y203800D03*
X370250Y70050D03*
X455300Y142700D03*
X20200Y265500D03*
X146500Y113300D03*
X346300Y30572D03*
X365700Y30672D03*
X155800Y113300D03*
X408800Y143500D03*
X420628Y122328D03*
X24600Y265600D03*
X926460Y279400D03*
X236500Y292800D03*
X351550Y69850D03*
X441872Y123928D03*
X823000Y69700D03*
X564600Y399100D03*
X29200Y270800D03*
X475636Y295300D03*
X459300Y301200D03*
X91000Y255300D03*
X455600Y106600D03*
X148500Y189600D03*
X109200Y353600D03*
X425900Y106200D03*
X137300Y118700D03*
X379800Y19300D03*
X97200Y262500D03*
X408800Y104700D03*
X101700Y273200D03*
X153000Y324600D03*
X1105950Y105650D03*
X155700Y118800D03*
X924653Y442700D03*
X143800Y324300D03*
X1105000Y84600D03*
X88400Y262500D03*
X1151800Y84100D03*
X1133200Y105800D03*
X92700Y267900D03*
X29400Y265800D03*
X89000Y251400D03*
X101900Y262500D03*
Y268200D03*
X92900Y273200D03*
X41200Y156400D03*
Y152200D03*
X913100Y358700D03*
X955353Y291147D03*
X971163Y414337D03*
X664802Y420860D03*
X954600Y353800D03*
X933300Y358500D03*
X933400Y372600D03*
X949100Y383500D03*
X945100Y353600D03*
X51000Y356000D03*
X435400Y107000D03*
X106200Y181400D03*
X976900Y337826D03*
X913500Y362400D03*
X809653Y442700D03*
X752600Y309800D03*
X737400Y310200D03*
X714800Y344400D03*
X746700Y316200D03*
X751400Y335700D03*
X711400Y304800D03*
X766300Y311300D03*
X737653Y291047D03*
X720700Y311300D03*
X759100Y315400D03*
X752553Y291147D03*
X768412Y308200D03*
X763828Y340372D03*
X42000Y203700D03*
X665500Y309800D03*
X650300Y310200D03*
X627700Y344400D03*
X659600Y316200D03*
X664300Y335700D03*
X624300Y304800D03*
X679200Y311300D03*
X650553Y291047D03*
X633400Y311300D03*
X672000Y315400D03*
X665453Y291147D03*
X681312Y308200D03*
X676728Y340372D03*
X689106Y390194D03*
X635300Y412600D03*
X681263Y414337D03*
X289440Y65260D03*
X654800Y338100D03*
X640700Y322400D03*
X649800D03*
X636400Y335300D03*
Y326701D03*
X645032Y382232D03*
X688300Y326700D03*
X643000Y364747D03*
X684844Y377600D03*
X681100D03*
X664900Y382900D03*
X660500Y421100D03*
X657731Y417600D03*
X655200Y353600D03*
X659200Y383500D03*
X643700Y373300D03*
X643800Y358900D03*
X664700Y353800D03*
X669500Y354200D03*
X687000Y337826D03*
X690744D03*
X914200Y304800D03*
X88400Y268000D03*
X959400Y354200D03*
X106200Y189400D03*
X980644Y337826D03*
X148400Y195100D03*
X106200Y168600D03*
X977800Y391100D03*
X923437Y413837D03*
X777844Y337826D03*
X932900Y364747D03*
X954200Y335700D03*
X106200Y172900D03*
X834900Y455000D03*
X917600Y344400D03*
X723500Y335300D03*
X729928Y487872D03*
X851628Y340372D03*
X1114900Y309800D03*
X1028253Y291047D03*
X747100Y449000D03*
X798491Y358832D03*
X944700Y338100D03*
X659957Y465700D03*
X1010800Y311300D03*
X799200Y304800D03*
X808437Y413837D03*
X828000Y449200D03*
X1130100Y309400D03*
X954800Y382900D03*
X753400Y480300D03*
X846900Y315400D03*
X839557Y467300D03*
X863200Y326700D03*
X653100Y449200D03*
X730100Y364747D03*
X736900Y322400D03*
X730400Y373400D03*
X854100Y311300D03*
X808200D03*
X1092300Y344000D03*
X844400Y354200D03*
X1054428Y340372D03*
X42000Y199900D03*
X824700Y322400D03*
X819600Y382700D03*
X971000Y377600D03*
X742300Y353600D03*
X733300Y382300D03*
X798500Y362900D03*
X771944Y377600D03*
X41900Y207300D03*
X711223Y358452D03*
X864006Y390194D03*
X97100Y268000D03*
X664657Y467300D03*
X815600Y322400D03*
X1043200Y309800D03*
X865644Y337826D03*
X44900Y192800D03*
X811300Y335300D03*
X44800Y165100D03*
X802600Y344400D03*
X638497Y442700D03*
X825200Y310200D03*
X834857Y465700D03*
X756600Y354200D03*
X652706Y455100D03*
X839600Y353800D03*
X834900Y449000D03*
X146300Y124000D03*
X922800Y311300D03*
X1145863Y413937D03*
X928397Y442700D03*
X940453Y291047D03*
X1149444Y377200D03*
X106200Y177200D03*
X971212Y308200D03*
X955700Y455800D03*
X720637Y413837D03*
X768363Y414337D03*
X660000Y455000D03*
X1068444Y337826D03*
X660000Y449000D03*
X106200Y164400D03*
X1062544Y377600D03*
X1058800D03*
X1042600Y382900D03*
X839200Y335700D03*
X1145700Y377200D03*
X856163Y414337D03*
X727800Y322400D03*
X830100Y353600D03*
X932728Y487872D03*
X813397Y442700D03*
X160500Y113300D03*
X974744Y377600D03*
X840400Y309800D03*
X141800Y124000D03*
X34300Y167100D03*
X1066806Y390194D03*
X1011237Y413837D03*
X1058963Y414337D03*
X774100Y337826D03*
X926300Y335300D03*
X939700Y322400D03*
X106200Y193500D03*
X966628Y340372D03*
X961900Y315400D03*
X926300Y326701D03*
X840700Y455800D03*
X825453Y291047D03*
X818950Y359150D03*
X930600Y322400D03*
X106200Y185400D03*
X935800Y382800D03*
X969100Y311300D03*
X749228Y487872D03*
X940200Y310200D03*
X746300Y383500D03*
X97200Y273200D03*
X856212Y308200D03*
X775400Y326700D03*
X859744Y377600D03*
X739806Y455100D03*
X840353Y291147D03*
X741900Y338100D03*
X92700Y262500D03*
X839800Y382900D03*
X856000Y377600D03*
X768200D03*
X818597Y364820D03*
X151300Y118700D03*
X723500Y326701D03*
X751800Y353800D03*
X811300Y326701D03*
X834100Y383500D03*
X730900Y358900D03*
X740200Y449200D03*
X955400Y309800D03*
X745072Y487872D03*
X1032500Y338100D03*
X1018400Y322400D03*
X1027500D03*
X1014100Y335300D03*
Y326701D03*
X1023900Y382800D03*
X1066000Y326700D03*
X1020700Y364747D03*
X839702Y421760D03*
X829700Y338100D03*
X861900Y337826D03*
X1032900Y353600D03*
X1036900Y383500D03*
X1021000Y373400D03*
X1021750Y358650D03*
X1042400Y353800D03*
X1047200Y354200D03*
X1064700Y337826D03*
X1049700Y315400D03*
X1043153Y291147D03*
X1059012Y308200D03*
X752000Y382900D03*
X834500Y316200D03*
X1002000Y304800D03*
X1056900Y311300D03*
X665800Y455800D03*
X978200Y326700D03*
X41200Y160500D03*
X634753Y442700D03*
X141700Y118800D03*
X1005400Y344400D03*
X871100Y377400D03*
X1128900Y335300D03*
X1088900Y304400D03*
X1028000Y310200D03*
X711500Y362500D03*
X1124200Y315800D03*
X1037300Y316200D03*
X1042000Y335700D03*
X776206Y390194D03*
X954557Y467300D03*
X1098000Y310900D03*
X949857Y465700D03*
X1145912Y307800D03*
X949500Y316200D03*
X87300Y162800D03*
X144000Y189600D03*
X919453Y418353D03*
X1060547Y418347D03*
X912360Y281116D03*
X919260Y274700D03*
X818100Y373500D03*
X160500Y119000D03*
X823400Y59600D03*
X26000Y447000D03*
X443150Y327350D03*
X439200Y307610D03*
X365400Y264200D03*
X268500Y283300D03*
X272900Y279700D03*
G54D52*
X1115400Y26100D03*
X1125400D03*
X1135400D03*
X1145400D03*
X1095400D03*
X1105400D03*
G54D43*
X508100Y438900D03*
X881300Y360900D03*
X786600D03*
X1171200D03*
X908000Y50200D03*
X1077100Y360900D03*
X1183100Y42200D03*
X422000Y371200D03*
X1120500Y136700D03*
X1069400Y29800D03*
X989000Y360900D03*
X222000Y15700D03*
X699100Y360900D03*
X1148400Y155200D03*
X200100Y249700D03*
X369300Y438700D03*
X155000Y388000D03*
X200200Y178800D03*
X197100Y119500D03*
X76400Y249400D03*
X131700Y142100D03*
X143000Y388000D03*
X508600Y361800D03*
X494100D03*
G54D38*
X771251Y460943D03*
X684151D03*
X974151D03*
X1148851Y461143D03*
X1061951Y460943D03*
X859051D03*
G54D50*
X961239Y27811D03*
X971278D03*
X1003522D03*
X1013561D03*
G54D51*
X969900Y68795D03*
X974900Y78795D03*
X979900Y68795D03*
X984900Y78795D03*
X989900Y68795D03*
X994900Y78795D03*
X999900Y68795D03*
X1004900Y78795D03*
G54D47*
X492953Y52008D03*
X707047Y40000D03*
G54D39*
X90000Y551300D03*
X233800D03*
X377600D03*
X521400D03*
G54D36*
X637202Y457400D03*
X674998D03*
X724302D03*
X762098D03*
X812102D03*
X849898D03*
X1015002D03*
X1052798D03*
X927202D03*
X964998D03*
X1101902Y457600D03*
X1139698D03*
G54D37*
X771251Y451101D03*
X715149Y489290D03*
X628049D03*
X684151Y451101D03*
Y470786D03*
Y489290D03*
X674998Y432991D03*
X656100D03*
X637202D03*
X628049Y451101D03*
Y470786D03*
X918049Y451101D03*
X927202Y432991D03*
X1092749Y451301D03*
X1139698Y433191D03*
X1148851Y489490D03*
Y451301D03*
Y470986D03*
X1101902Y433191D03*
X1005849Y451101D03*
X1015002Y432991D03*
X802949Y451101D03*
X812102Y432991D03*
X964998D03*
X974151Y489290D03*
Y451101D03*
X849898Y432991D03*
X859051Y489290D03*
Y451101D03*
X1052798Y432991D03*
X1061951Y451101D03*
X715149Y470786D03*
Y451101D03*
X724302Y432991D03*
X1061951Y489290D03*
X743200Y432991D03*
X762098D03*
X771251Y489290D03*
Y470786D03*
X1033900Y432991D03*
X1005849Y489290D03*
X1061951Y470786D03*
X1092749Y489490D03*
X1120800Y433191D03*
X1092749Y470986D03*
X1005849Y470786D03*
X974151D03*
X946100Y432991D03*
X859051Y470786D03*
X802949Y489290D03*
Y470786D03*
X831000Y432991D03*
X918049Y470786D03*
Y489290D03*
G54D49*
X1009900Y68795D03*
G54D42*
X1178400Y146600D03*
X1178500Y122300D03*
X1178300Y76500D03*
X1168300D03*
X1178400Y96000D03*
X1168400D03*
X1086800Y122300D03*
X1076800D03*
X1086900Y146600D03*
X1076900D03*
X1077200Y76500D03*
X1087200D03*
X1077200Y96000D03*
X1087200D03*
X1105400Y36100D03*
X1115400D03*
X1125400D03*
X1135400D03*
X1095400D03*
X1145400D03*
X1168500Y122300D03*
X1168400Y146600D03*
G54D44*
X534700Y432600D03*
X522000Y432400D03*
X534700Y418700D03*
X522000Y418500D03*
Y446300D03*
X534700Y446500D03*
X397900Y418000D03*
X384000D03*
X397900Y431900D03*
X384000D03*
X397900Y445800D03*
X383900D03*
X397900Y459700D03*
X383800D03*
X1069800Y42500D03*
X1069700Y55200D03*
X1171200Y373500D03*
X1077100D03*
X989000D03*
X786500D03*
X881300D03*
X908600Y66400D03*
X1120500Y123000D03*
X1108300Y123100D03*
X1148300Y141600D03*
X1136000Y141900D03*
X534700Y460400D03*
X881300Y386000D03*
X989000D03*
X1077100D03*
X1171300D03*
X786600D03*
X422100Y357500D03*
X699100Y386000D03*
Y373500D03*
X1170000Y42500D03*
X1169900Y55200D03*
X522000Y460200D03*
X143000Y400000D03*
X179300Y95000D03*
X200100Y192800D03*
X155000Y400000D03*
X222200Y29300D03*
X113200Y142100D03*
X76300Y263400D03*
X179300Y119700D03*
X200000Y263700D03*
X508700Y348100D03*
X494200D03*
G54D48*
X1018325Y55803D03*
X956475D03*
G54D46*
X964900Y43795D03*
X1009900D03*
G54D53*
X152084Y38800D03*
G54D40*
X80000Y571300D03*
X120000D03*
X263800D03*
X223800D03*
X511400D03*
X367600D03*
X407600D03*
X551400D03*
G54D45*
X1180000Y20000D03*
Y580000D03*
X310000Y20000D03*
X890000Y580000D03*
X739800Y40000D03*
X462600D03*
X600000Y580000D03*
X310000D03*
X20000D03*
X890000Y20000D03*
X20000D03*
%LPD*%
G75*
G54D10*
X20000Y20000D03*
Y580000D03*
X310000Y20000D03*
Y580000D03*
X462600Y40000D03*
X600000Y580000D03*
X739800Y40000D03*
X890000Y20000D03*
Y580000D03*
X1180000Y20000D03*
Y580000D03*
G54D20*
X223940Y244640D03*
X468336Y460164D03*
X887200Y41100D03*
G54D11*
X13090Y142081D03*
X40960Y120660D03*
X36500Y123700D03*
X39500Y146894D03*
X34500Y159700D03*
X14200Y133800D03*
X23800Y156600D03*
Y150900D03*
X23600Y161600D03*
X39391Y142107D03*
X35692Y142195D03*
X32090Y142181D03*
X20391Y142007D03*
X16692Y142095D03*
X14600Y150900D03*
X19100D03*
X19000Y156400D03*
X14600Y156300D03*
X14800Y161600D03*
X19100D03*
X41200Y156400D03*
Y152200D03*
Y160500D03*
X13647Y190253D03*
X25400Y167100D03*
X25700Y176100D03*
X26692Y181491D03*
X39727Y176792D03*
Y182008D03*
X34300Y167100D03*
X14400Y203000D03*
X14600Y208300D03*
X23400D03*
X13990Y218181D03*
X17592Y218195D03*
X40291Y218207D03*
X14400Y197600D03*
X36592Y218295D03*
X32990Y218281D03*
X23600Y203300D03*
X21291Y218107D03*
X23600Y197600D03*
X18900Y208300D03*
X42000Y203700D03*
Y199900D03*
X41900Y207300D03*
X18800Y203100D03*
X18900Y197600D03*
X26690Y238281D03*
X30292Y238295D03*
X33991Y238207D03*
X24700Y270800D03*
X20400D03*
X20200Y260100D03*
X24700D03*
X29400D03*
X20200Y265500D03*
X24600Y265600D03*
X29200Y270800D03*
X29400Y265800D03*
X24592Y289095D03*
X28291Y289007D03*
X20990Y289081D03*
X32100Y325600D03*
X36200Y434300D03*
Y437700D03*
X16300Y434400D03*
Y437800D03*
Y456300D03*
Y459700D03*
X36100Y456400D03*
Y459800D03*
X26000Y447000D03*
X48450Y122250D03*
X58491Y142107D03*
X54792Y142195D03*
X51190Y142181D03*
X72600Y148700D03*
X72400Y138000D03*
Y143400D03*
X51873Y176792D03*
X45800D03*
X44900Y192800D03*
X45800Y182008D03*
X44800Y165100D03*
X51873Y182008D03*
X71900Y215600D03*
X59391Y218207D03*
X55692Y218295D03*
X52090Y218281D03*
X71900Y210200D03*
X72100Y220900D03*
X47200Y207100D03*
X47300Y203600D03*
X72091Y238307D03*
X68392Y238395D03*
X64790Y238381D03*
X52991Y238307D03*
X49292Y238395D03*
X45690Y238381D03*
X61500Y270500D03*
X72206Y276906D03*
X52800Y277400D03*
X48100Y274700D03*
Y272200D03*
Y277300D03*
X52700Y272200D03*
X52800Y274800D03*
Y295900D03*
X45400Y311500D03*
X71090Y289081D03*
X51000Y315700D03*
X60850Y334800D03*
X53700Y341000D03*
X45400Y350900D03*
X71200Y361700D03*
X51000Y356000D03*
X60149Y431800D03*
X56250D03*
X85900Y123800D03*
X99600Y123900D03*
X90600Y118800D03*
X90400Y123800D03*
X81600D03*
X95300Y123900D03*
X85900Y113100D03*
X81400Y118500D03*
X85800Y118600D03*
X99500Y118700D03*
X90600Y113100D03*
X95100Y113200D03*
X81400Y113100D03*
X95100Y118600D03*
X99600Y113200D03*
X81600Y143700D03*
Y138000D03*
X76900D03*
X76800Y143500D03*
X81400Y148700D03*
X76900D03*
X94300Y151300D03*
Y158000D03*
Y154700D03*
X87300Y162800D03*
X76300Y215700D03*
X80900Y220900D03*
X76400D03*
Y210200D03*
X81100D03*
Y215900D03*
X82900Y233500D03*
X97100Y234200D03*
X98800Y246100D03*
X102200Y242800D03*
X102300Y246100D03*
X89000Y233300D03*
Y251400D03*
X101950Y234150D03*
X98700Y242800D03*
X83000Y283200D03*
X91000Y255300D03*
X97200Y262500D03*
X101700Y273200D03*
X88400Y262500D03*
X92700Y267900D03*
X101900Y262500D03*
Y268200D03*
X92900Y273200D03*
X88400Y268000D03*
X97100D03*
X97200Y273200D03*
X92700Y262500D03*
X86440Y299740D03*
X73250Y307550D03*
X74692Y289095D03*
X78391Y289007D03*
X88400Y358400D03*
X97953Y346847D03*
X96000Y447000D03*
X86000Y456300D03*
Y459700D03*
Y434600D03*
Y438000D03*
X121600Y9200D03*
X104100Y123900D03*
X104300Y118900D03*
Y113200D03*
X106200Y181400D03*
Y189400D03*
Y168600D03*
Y172900D03*
Y177200D03*
Y164400D03*
Y185400D03*
Y193500D03*
X114100Y238888D03*
X116600Y242431D03*
X110400Y255300D03*
X109200Y296000D03*
X114100Y311500D03*
X106100Y309100D03*
X116600Y315700D03*
X121600Y325600D03*
X109200Y353600D03*
X106700Y456300D03*
Y459700D03*
Y434600D03*
Y438000D03*
X121547Y503053D03*
X151500Y124000D03*
X160300D03*
X155800D03*
X146500Y119000D03*
X137300Y113300D03*
X137500Y124000D03*
X141800Y113300D03*
X151300D03*
X146500D03*
X155800D03*
X137300Y118700D03*
X155700Y118800D03*
X146300Y124000D03*
X160500Y113300D03*
X141800Y124000D03*
X151300Y118700D03*
X141700Y118800D03*
X160500Y119000D03*
X153200Y189600D03*
X148500D03*
X144000D03*
X150400Y208200D03*
X144990Y218181D03*
X148592Y218195D03*
X144000Y195000D03*
X153200Y195300D03*
X152291Y218107D03*
X153000Y200300D03*
X148500D03*
X144200D03*
X148400Y195100D03*
X157491Y238507D03*
X153792Y238595D03*
X150190Y238581D03*
X152200Y279000D03*
X153000Y265900D03*
X144000Y270900D03*
X148200Y265700D03*
X152800Y270900D03*
X143800Y260200D03*
Y265600D03*
X148300Y260200D03*
Y270900D03*
X153000Y260200D03*
X158291Y295307D03*
X150990Y295381D03*
X154592Y295395D03*
X152000Y337400D03*
X148300Y318900D03*
X144000Y329600D03*
X148300D03*
X143800Y318900D03*
X148200Y324400D03*
X153000Y318900D03*
X152800Y329600D03*
X153000Y324600D03*
X143800Y324300D03*
X151991Y347807D03*
X148292Y347895D03*
X144690Y347881D03*
X133547Y423753D03*
X138790Y443700D03*
X135210D03*
X148026Y462574D03*
X151715D03*
X152253Y503853D03*
X151300Y539900D03*
X139700Y530700D03*
X146106Y526494D03*
X188850Y134650D03*
X181600Y215400D03*
X177500Y216300D03*
X184500Y211600D03*
X171500Y216000D03*
X163763Y208037D03*
X171900Y204100D03*
Y201600D03*
Y206700D03*
X176500Y201600D03*
X176600Y204200D03*
Y206800D03*
X168200Y216000D03*
X168300Y227600D03*
X180300D03*
X172300Y227500D03*
X188400Y226300D03*
X176300Y227600D03*
X191892Y238695D03*
X188290Y238681D03*
X176491Y238607D03*
X172792Y238695D03*
X169190Y238681D03*
X184800Y281900D03*
X163737Y278937D03*
X171800Y277600D03*
X176500Y275100D03*
X176400Y272500D03*
X171800D03*
Y275000D03*
X176500Y277700D03*
X171000Y285800D03*
X181200Y285500D03*
X168300Y296800D03*
X172300D03*
X167700Y285200D03*
X180100Y296900D03*
X177100Y286100D03*
X176200Y296900D03*
X189090Y295481D03*
X192692Y295495D03*
X176500Y331100D03*
D03*
X171700Y331200D03*
X176400Y333600D03*
X171600Y335900D03*
X176500Y336000D03*
X171600Y333600D03*
X184400Y339800D03*
X163737Y337437D03*
X176100Y358100D03*
X170800Y345700D03*
X177100Y345300D03*
X180233Y344700D03*
X180100Y358200D03*
X172100D03*
X168100D03*
X167467Y345200D03*
X165953Y423653D03*
X207500Y110100D03*
X215700Y161700D03*
X222800Y184800D03*
X220900Y163600D03*
X212800Y180800D03*
X222500Y172200D03*
X222600Y175500D03*
X212200Y191900D03*
X221000D03*
X216500D03*
X215000Y183900D03*
X196600Y208000D03*
X210900Y211700D03*
X212200Y197400D03*
X220900D03*
X216500Y197300D03*
X195690Y218481D03*
X202991Y218407D03*
X199292Y218495D03*
X211040Y226240D03*
X195591Y238607D03*
X208100Y230300D03*
X217300Y269100D03*
X204200Y281800D03*
X195900Y278900D03*
X222600Y253500D03*
X196391Y295407D03*
X204200Y340100D03*
X196000Y337500D03*
X210040Y358140D03*
X196850Y365450D03*
X202091Y347807D03*
X194790Y347881D03*
X198392Y347895D03*
X195700Y552000D03*
X205200Y552700D03*
X208900Y526400D03*
X212806Y537694D03*
X249947Y29800D03*
X243300Y191900D03*
X247800D03*
X252400Y191800D03*
X239200Y191900D03*
X235000Y180700D03*
X225750Y163550D03*
X226000Y172200D03*
X226100Y175500D03*
X225700Y191900D03*
X252900Y197400D03*
X239200D03*
X243800D03*
X248300D03*
X233700Y222500D03*
X231800Y211700D03*
X225700Y197400D03*
X226400Y263200D03*
X235600D03*
X230900D03*
X241900Y269100D03*
X243700Y257800D03*
X241400Y255500D03*
X250300Y270800D03*
X250200Y267500D03*
X241200Y298500D03*
X241000Y303500D03*
X236400Y298300D03*
X232200Y303500D03*
X232000Y292800D03*
Y298200D03*
X227700Y292800D03*
X241200D03*
X236500Y303500D03*
Y292800D03*
X225500Y333200D03*
X234700D03*
X230000D03*
X229000Y341800D03*
X229700Y367900D03*
X234500Y354400D03*
X251310Y421400D03*
X237747Y502853D03*
X274760Y29560D03*
X262947Y29647D03*
X268800Y42900D03*
X282000Y43600D03*
X268800Y65700D03*
X256000Y43500D03*
X281960Y64960D03*
X256100Y110100D03*
X272900Y171800D03*
X268500Y168288D03*
X259400Y232600D03*
X264400Y235500D03*
X268500Y271600D03*
X272900Y274600D03*
Y279700D03*
X262600Y265700D03*
X261000Y255600D03*
X253700Y267500D03*
X253800Y270800D03*
X262500Y269100D03*
X268500Y283300D03*
X254890Y421400D03*
X268600Y459700D03*
X272900Y463700D03*
X268653Y502753D03*
X256300Y530600D03*
X262300Y529800D03*
X289440Y65260D03*
X285700Y89600D03*
X326272Y30572D03*
X331650Y71450D03*
X334940Y178700D03*
X331360D03*
X343000Y210800D03*
X319340Y194000D03*
X315760D03*
Y425600D03*
X331160Y411600D03*
X334740D03*
X319340Y425600D03*
X331872Y520172D03*
X343000Y499300D03*
X341100Y509800D03*
X335900Y528500D03*
X338200Y526100D03*
X344200Y37600D03*
X346300Y30572D03*
X365700Y30672D03*
X367800Y14000D03*
X354400Y20200D03*
X344500Y62900D03*
X359800Y46600D03*
X370250Y70050D03*
X351550Y69850D03*
X364600Y62900D03*
X353918Y157982D03*
X357300Y161700D03*
X350543Y150643D03*
X361200Y166000D03*
X365400Y264200D03*
X366800Y272700D03*
X367000Y255900D03*
X370400Y352700D03*
X368000Y387100D03*
X370900Y398900D03*
X350543Y378100D03*
X370400Y485200D03*
X364400D03*
X357300Y490339D03*
X353918Y508800D03*
X350506Y503100D03*
X361200Y531143D03*
X343800Y539500D03*
X356202Y528802D03*
X388100Y12500D03*
X387900Y32200D03*
X388900Y25700D03*
X388100Y37300D03*
X389000Y17100D03*
X379800Y19300D03*
X388500Y44400D03*
X384800Y62600D03*
X389600Y153900D03*
X392100Y248500D03*
X382000Y278000D03*
X396447Y258147D03*
Y278847D03*
X402400Y268600D03*
Y278800D03*
X384800Y285900D03*
X373600Y311200D03*
Y306600D03*
X393900Y285900D03*
X373600Y302100D03*
Y297500D03*
Y293000D03*
X399700Y292000D03*
X389400Y285900D03*
X375700D03*
X380300D03*
X373600Y329400D03*
Y324800D03*
Y320300D03*
Y315700D03*
X375700Y336000D03*
X399900Y331900D03*
X393900Y336000D03*
X389300D03*
X384800D03*
X380200D03*
X376300Y359400D03*
X376400Y362300D03*
X374700Y352600D03*
X394900Y355700D03*
X373300Y356300D03*
X383700Y356400D03*
X386900Y356300D03*
X383700Y359000D03*
X387000D03*
X383600Y353600D03*
X386900D03*
X392500Y390000D03*
X391760Y383360D03*
X382400Y485200D03*
X376300D03*
X425800Y15100D03*
X424100Y26300D03*
X414370Y17030D03*
X420636Y45764D03*
X429300Y60400D03*
X431800Y67400D03*
X416480Y89980D03*
X413920Y86780D03*
X421598Y95698D03*
X411361Y83561D03*
X406243Y79900D03*
X419039Y92661D03*
X420628Y122328D03*
X425900Y106200D03*
X413664Y126364D03*
X408800Y104700D03*
X413664Y122036D03*
X411361Y161639D03*
X413900Y157982D03*
X416480Y153780D03*
X421543Y150643D03*
X425900Y142400D03*
X408800Y143500D03*
X406243Y166057D03*
X413460Y252240D03*
X420053Y274447D03*
X425400Y263600D03*
X405400Y295500D03*
X427300Y310900D03*
X407900Y303900D03*
X412400Y308500D03*
X418200Y310900D03*
X423700Y292800D03*
X419800Y297600D03*
X427600Y293700D03*
X422000Y286300D03*
X418250Y290250D03*
X419300Y301000D03*
X419000Y306000D03*
X404100Y329500D03*
X407700Y325300D03*
X412300Y321000D03*
X427300Y318400D03*
X418200D03*
X420800Y323300D03*
X421300Y329145D03*
X418500Y331700D03*
Y327300D03*
X410500Y353000D03*
X413500Y355700D03*
X410500D03*
X413500Y353000D03*
X429000Y388200D03*
X429100Y382100D03*
X429500Y393400D03*
X430300Y399100D03*
X425800Y378100D03*
X406250Y398750D03*
X428700Y404400D03*
X430200Y408300D03*
X430975Y420225D03*
X432200Y450800D03*
X415800Y450300D03*
Y455700D03*
X425800Y443257D03*
X429300Y447300D03*
X424300Y485200D03*
X412800D03*
X418500D03*
X407000D03*
X432900Y473000D03*
X425400Y490339D03*
X443700Y39400D03*
X455800Y18700D03*
X458500Y56300D03*
X456400Y66100D03*
X437300Y56500D03*
X451118Y58900D03*
X448600Y63700D03*
X446000Y73000D03*
X455200Y85100D03*
X461200Y100800D03*
X443441Y76341D03*
X449236Y123400D03*
X441872Y123928D03*
X455600Y106600D03*
X449236Y127400D03*
X435400Y107000D03*
X461200Y148400D03*
X446000Y146800D03*
X443441Y154700D03*
X455300Y142700D03*
X435900Y143900D03*
X460700Y283200D03*
X446900D03*
X438800Y311200D03*
X439200Y307610D03*
X439005Y300700D03*
X448500Y301200D03*
X454700Y301153D03*
X439100Y304100D03*
X452800Y284200D03*
X437000D03*
X441000Y284100D03*
X444300Y312200D03*
X449200Y312300D03*
X454000D03*
X459200D03*
X444400Y307700D03*
X449300Y307800D03*
X454100D03*
X459300D03*
Y301200D03*
X438378Y322091D03*
X439400Y325300D03*
X438900Y318500D03*
X454100Y316800D03*
X444300Y321200D03*
X449200Y321300D03*
X444400Y316700D03*
X449300Y316800D03*
X454000Y321300D03*
X453000Y328050D03*
X443150Y327350D03*
X459200Y321300D03*
X459300Y316800D03*
X449800Y357500D03*
X461778Y372000D03*
X448212Y347688D03*
X450900Y346700D03*
X441700Y475100D03*
X449094Y488406D03*
X457440Y501460D03*
X439647Y522053D03*
X453751Y501460D03*
X457100Y520300D03*
X446100Y501400D03*
X461778Y503900D03*
X461600Y520300D03*
X451200Y540100D03*
X461700Y523600D03*
X460616Y535684D03*
X457400Y534200D03*
X457100Y523600D03*
X485200Y59400D03*
X493000Y74700D03*
X486800Y85200D03*
X463803Y104100D03*
X466300Y107400D03*
X463800Y151700D03*
X466300Y157200D03*
X466600Y283200D03*
X484200Y299800D03*
X484700Y311100D03*
X463600Y301400D03*
X475636Y295300D03*
X483525Y313975D03*
X483800Y325300D03*
X482900Y329300D03*
X487300Y328800D03*
X464616Y313516D03*
X464700Y325300D03*
X465300Y328100D03*
X477300Y357600D03*
X465358Y372000D03*
X471398Y344702D03*
X490300Y410700D03*
X470080Y435580D03*
X472361Y438139D03*
X482700Y440600D03*
X470500D03*
X472400Y450700D03*
X466100Y520300D03*
X467900Y508800D03*
X480206Y520294D03*
X481000Y508800D03*
X465358Y503900D03*
X476500Y541700D03*
X465100Y537300D03*
X479700Y531143D03*
X468143Y533600D03*
X466200Y523600D03*
X494100Y18700D03*
X503200Y20300D03*
X514900Y29900D03*
X502500Y42800D03*
X514100Y42500D03*
X518220Y40800D03*
X507500Y37100D03*
X521800Y40800D03*
X510300Y23000D03*
X500500Y22800D03*
X505700Y62700D03*
X509700Y57600D03*
X496294Y109106D03*
X509740Y180900D03*
X506160D03*
X514660Y200300D03*
X506000Y197100D03*
X502420D03*
X518240Y200300D03*
X497894Y312900D03*
X510200Y291700D03*
X504706Y312800D03*
X512600Y298400D03*
X512460Y315600D03*
X516040D03*
X509300Y322600D03*
X504100Y410500D03*
X497200Y410700D03*
X495700Y448600D03*
X501700Y435600D03*
X508900Y470500D03*
X523800Y23100D03*
X526000Y38200D03*
X536200Y22600D03*
X525400Y43200D03*
X548700Y40700D03*
X525000Y30000D03*
X539400Y38100D03*
X549300Y23100D03*
X543050Y39550D03*
X540600Y23100D03*
X540900Y42800D03*
X531400Y22500D03*
X534200Y36600D03*
X536100Y56500D03*
X524600Y57300D03*
X530843Y99800D03*
X545700Y103700D03*
X534584D03*
X540060Y141200D03*
X543640D03*
X526200Y154700D03*
X549160Y167300D03*
X552740D03*
X526160Y252240D03*
X551700Y243800D03*
X546200Y237600D03*
X534600Y367400D03*
X530900Y367500D03*
X546200Y404400D03*
X551700Y408300D03*
X538400Y480300D03*
X523300Y477400D03*
X541400Y475200D03*
X579900Y36000D03*
X581840Y39400D03*
X556800Y16600D03*
X553800Y22800D03*
X559500Y15600D03*
X576000Y22900D03*
X565200Y22300D03*
X578260Y39400D03*
X555800Y42800D03*
X561900Y21500D03*
X565700Y38500D03*
X570700Y22400D03*
X557100Y22500D03*
X559500Y40400D03*
X575100Y38200D03*
X556500Y36700D03*
X571650Y36650D03*
X554900Y57500D03*
X565430Y56730D03*
X571700Y73100D03*
X563250Y72900D03*
X556700Y99800D03*
X568200Y89980D03*
X571700Y111008D03*
X562077Y157517D03*
X582560Y140100D03*
X565657Y157517D03*
X574160Y149100D03*
X577740D03*
X583220Y197900D03*
X564700Y247800D03*
X558700Y244300D03*
X571200Y251900D03*
X582600Y259300D03*
X576600Y256000D03*
X571400Y382100D03*
X576600Y388200D03*
X558700Y393400D03*
X564600Y399100D03*
X582600Y425400D03*
X568700Y468900D03*
X561500D03*
X554400D03*
X596900Y38900D03*
X610600Y39000D03*
X607020D03*
X588000Y41300D03*
X604300Y36300D03*
X585100Y37600D03*
X609700Y21900D03*
X591000Y36200D03*
X599160Y43000D03*
X584100Y23100D03*
X604400D03*
X593320Y38900D03*
X602740Y43000D03*
X591600Y42300D03*
X598600Y22500D03*
X598400Y57600D03*
X585800Y57800D03*
X605950Y44050D03*
X583900Y102500D03*
X588000Y86600D03*
X609700Y92661D03*
X589040Y127740D03*
X611867Y108993D03*
X593320Y132600D03*
X596900D03*
X585460Y127740D03*
X613000Y118100D03*
X605060Y146900D03*
X586140Y140100D03*
X608640Y146900D03*
X597320Y186200D03*
X600900D03*
X586800Y197900D03*
X612900Y210900D03*
X612100Y216900D03*
X588600Y262500D03*
X596700Y265000D03*
X604300Y268800D03*
X607800Y424100D03*
X612450Y423450D03*
X588600Y418600D03*
X604100Y432700D03*
X596700Y439700D03*
X619860Y40300D03*
X638300Y36800D03*
X615200Y22600D03*
X636300Y39300D03*
X616600Y39000D03*
X618200Y43200D03*
X639200Y22300D03*
X643220Y37800D03*
X623440Y40300D03*
X638325Y41662D03*
X620200Y30200D03*
X641600Y41800D03*
X640100Y29900D03*
X628100Y21600D03*
X621900Y36800D03*
X624400Y23100D03*
X635100Y21900D03*
X635500Y50000D03*
X617400Y59200D03*
X625000Y57500D03*
X635060Y83400D03*
X638640D03*
X629200Y95698D03*
X628100Y83561D03*
X632000Y79900D03*
X627367Y117893D03*
X630947D03*
X615447Y108993D03*
X635620Y132300D03*
X639200D03*
X641049Y155589D03*
X619860Y171400D03*
X623440D03*
X620920Y200900D03*
X630400Y207300D03*
X624500Y200900D03*
X626820Y207300D03*
X613700Y214500D03*
X622520Y281700D03*
X626100D03*
X627520Y276900D03*
X631100D03*
X639040Y276672D03*
X635460D03*
X624300Y304800D03*
X633400Y311300D03*
X614700Y331100D03*
X628600Y327500D03*
X625412Y327888D03*
X637352Y313525D03*
X640608Y313600D03*
X640700Y322400D03*
X636400Y335300D03*
Y326701D03*
X627700Y344400D03*
X643000Y364747D03*
X623000Y363500D03*
Y360200D03*
X637500Y391300D03*
X623700Y389400D03*
X625994Y390894D03*
X629453Y419700D03*
X623547Y420253D03*
X623700Y412600D03*
X640000Y411700D03*
X628800Y412900D03*
X635300Y412600D03*
X638497Y442700D03*
X634753D03*
X642828Y487872D03*
X648300Y43100D03*
X644200Y22700D03*
X656400Y36400D03*
X656500Y18200D03*
X656200Y23000D03*
X666000Y37100D03*
X667400Y42600D03*
X663820D03*
X647100Y17900D03*
X659200Y39300D03*
X655620D03*
X660400Y42700D03*
X646800Y37800D03*
X643700Y57400D03*
X670700Y57700D03*
X660900Y56600D03*
X648800Y93100D03*
X655660Y89900D03*
X645220Y93100D03*
X659240Y89900D03*
X661060Y78500D03*
X664640D03*
X651000Y89600D03*
X653900Y76341D03*
X663660Y130000D03*
X667240D03*
X647249Y124611D03*
X650829D03*
X671660Y133800D03*
X651476Y155700D03*
X644629Y155589D03*
X655056Y155700D03*
X665500Y309800D03*
X650300Y310200D03*
X650553Y291047D03*
X665453Y291147D03*
X659600Y316200D03*
X664300Y335700D03*
X672000Y315400D03*
X654800Y338100D03*
X649800Y322400D03*
X655200Y353600D03*
X672700Y361200D03*
X643800Y358900D03*
X664700Y353800D03*
X669500Y354200D03*
X645032Y382232D03*
X664900Y382900D03*
X659200Y383500D03*
X643700Y373300D03*
X668382Y420860D03*
X664802D03*
X660500Y421100D03*
X657731Y417600D03*
X648750Y432950D03*
X665600Y449300D03*
X653100Y449200D03*
X652706Y455100D03*
X660000Y455000D03*
Y449000D03*
X665800Y455800D03*
X666300Y480300D03*
X650600Y480500D03*
X662128Y487872D03*
X657972D03*
X659957Y465700D03*
X647500Y480500D03*
X664657Y467300D03*
X653900Y480500D03*
X686400Y37000D03*
X696100Y42200D03*
X684000Y42700D03*
X691840Y40400D03*
X674700Y37100D03*
X688260Y40400D03*
X684400Y22600D03*
X676500Y42000D03*
X696000Y23100D03*
X675900Y22000D03*
X694000Y36900D03*
X685400Y57200D03*
X689260Y91500D03*
X692840D03*
X675240Y133800D03*
X692940Y188700D03*
X689360D03*
X680760Y175100D03*
X684340D03*
X699000Y201700D03*
X695220Y209500D03*
X691700Y207400D03*
X697300Y212200D03*
Y204800D03*
X691700Y281300D03*
X679200Y311300D03*
X681312Y308200D03*
X702600Y334700D03*
X690750Y317250D03*
X676728Y340372D03*
X688300Y326700D03*
X687000Y337826D03*
X690744D03*
X673400Y357800D03*
X679700Y391800D03*
X693200Y391700D03*
X689106Y390194D03*
X684844Y377600D03*
X681100D03*
X682647Y418353D03*
X688553Y420353D03*
X693500Y414000D03*
X676400Y412600D03*
X689137Y414500D03*
X681263Y414337D03*
X723400Y17000D03*
X726450Y21250D03*
X704500Y16600D03*
X726500Y65900D03*
X723400Y63200D03*
X715700Y99200D03*
X719700Y86600D03*
X713000Y76200D03*
X733200Y107300D03*
X725440Y104200D03*
X721860D03*
X704860Y140200D03*
X708440D03*
X715700Y139800D03*
X719700Y136900D03*
X716260Y194800D03*
X719840D03*
X709760Y279500D03*
X713340D03*
X725540Y274708D03*
X721960D03*
X719540Y284900D03*
X715960D03*
X711400Y304800D03*
X720700Y311300D03*
X723500Y335300D03*
X727708Y313600D03*
X715700Y327500D03*
X727800Y322400D03*
X724452Y313525D03*
X712512Y327888D03*
X723500Y326701D03*
X714800Y344400D03*
X730100Y364747D03*
X711223Y358452D03*
X730900Y358900D03*
X711500Y362500D03*
X712600Y389400D03*
X724400Y391400D03*
X730400Y373400D03*
X715600Y390600D03*
X710647Y420053D03*
X716553Y418347D03*
X713387Y415920D03*
X726000Y411900D03*
X720637Y413837D03*
X714900Y413600D03*
X725597Y442700D03*
X721853D03*
X729928Y487872D03*
X758850Y40200D03*
X733600Y70500D03*
X763000Y43800D03*
X737600Y68400D03*
X750100Y64700D03*
X758800Y72200D03*
X755800Y69700D03*
X761550Y53500D03*
X747200Y66500D03*
X753000Y67300D03*
X744900Y64600D03*
X742200Y63000D03*
Y104300D03*
X753000Y212200D03*
X755800Y214500D03*
X747200Y207400D03*
X758800Y216900D03*
X742200Y201700D03*
X750100Y209500D03*
X744700Y204800D03*
X762900Y276100D03*
X752600Y309800D03*
X737400Y310200D03*
X737653Y291047D03*
X752553Y291147D03*
X746700Y316200D03*
X751400Y335700D03*
X759100Y315400D03*
X736900Y322400D03*
X741900Y338100D03*
X760500Y357800D03*
X742300Y353600D03*
X756600Y354200D03*
X759800Y361200D03*
X751800Y353800D03*
X755800Y396900D03*
X733300Y382300D03*
X746300Y383500D03*
X752000Y382900D03*
X751912Y422211D03*
X755492D03*
X762800Y413600D03*
X747600Y420300D03*
X744831Y420400D03*
X735850Y432950D03*
X747100Y455000D03*
X752900Y455800D03*
X751500Y448100D03*
X747100Y449000D03*
X739806Y455100D03*
X740200Y449200D03*
X747057Y465700D03*
X751757Y467300D03*
X734600Y480500D03*
X741000D03*
X753400Y480300D03*
X737700Y480500D03*
X749228Y487872D03*
X745072D03*
X788979Y35200D03*
X786300Y31900D03*
X765900Y50928D03*
X768700Y49100D03*
X775600Y76600D03*
X764500Y87500D03*
X779200Y86300D03*
X783400Y90100D03*
X771300Y78700D03*
X791819Y149630D03*
X772600Y217200D03*
X779200Y210000D03*
X783400Y207300D03*
X775600Y214200D03*
X786900Y264900D03*
X784000Y268800D03*
X773800Y278200D03*
X766300Y311300D03*
X768412Y308200D03*
X790300Y332200D03*
X777250Y316700D03*
X766200Y319000D03*
X763828Y340372D03*
X777844Y337826D03*
X774100D03*
X775400Y326700D03*
X767000Y392000D03*
X780500Y391600D03*
X771944Y377600D03*
X768200D03*
X776206Y390194D03*
X769847Y418347D03*
X775753Y420353D03*
X781100Y414100D03*
X776237Y414300D03*
X768363Y414337D03*
X821600Y42100D03*
X800500Y17300D03*
X794800Y40800D03*
X810300Y22400D03*
X816800D03*
X809414Y40900D03*
X794800Y61500D03*
X820400Y72200D03*
X823000Y54500D03*
X820100Y67300D03*
X820500Y62200D03*
X817900Y51300D03*
X823000Y69700D03*
X818500Y76400D03*
X810460Y116700D03*
X814040D03*
X795399Y149408D03*
X801020Y149100D03*
X804600D03*
X801140Y277973D03*
X797560D03*
X814040Y274500D03*
X810460D03*
X802920Y283400D03*
X806500D03*
X799200Y304800D03*
X808200Y311300D03*
X815508Y313600D03*
X812252Y313525D03*
X815600Y322400D03*
X811300Y335300D03*
X800312Y327888D03*
X803500Y327500D03*
X811300Y326701D03*
X798491Y358832D03*
X798500Y362900D03*
X802600Y344400D03*
X818950Y359150D03*
X818597Y364820D03*
X812200Y391400D03*
X798600Y388900D03*
X800894Y390894D03*
X819600Y382700D03*
X818100Y373500D03*
X798447Y420353D03*
X804353Y418347D03*
X798100Y415400D03*
X813700Y411900D03*
X808437Y413837D03*
X800563Y413100D03*
X809653Y442700D03*
X813397D03*
X817728Y487872D03*
X822400Y480500D03*
X839300Y28800D03*
X842200Y25600D03*
X829300Y20200D03*
X834500Y49200D03*
X829100Y57061D03*
X839600Y72800D03*
X828100Y64800D03*
X823800Y64700D03*
X833300Y67600D03*
X830800Y62600D03*
X836100Y70200D03*
X823400Y59600D03*
X840200Y80700D03*
X836100Y200200D03*
X840200Y196900D03*
X843900Y193900D03*
X833300Y203800D03*
X850200Y274600D03*
X825200Y310200D03*
X840400Y309800D03*
X825453Y291047D03*
X840353Y291147D03*
X852700Y318400D03*
X851628Y340372D03*
X846900Y315400D03*
X824700Y322400D03*
X839200Y335700D03*
X829700Y338100D03*
X834500Y316200D03*
X844400Y354200D03*
X839600Y353800D03*
X848300Y357800D03*
X830100Y353600D03*
X847600Y361200D03*
X843800Y397100D03*
X839800Y382900D03*
X834100Y383500D03*
X843282Y421760D03*
X849500Y413600D03*
X823650Y432950D03*
X835400Y419400D03*
X832631Y419500D03*
X839702Y421760D03*
X827606Y455100D03*
X838900Y447700D03*
X834900Y455000D03*
X828000Y449200D03*
X834900Y449000D03*
X840700Y455800D03*
X841200Y480300D03*
X837028Y487872D03*
X832872D03*
X825500Y480500D03*
X828800D03*
X839557Y467300D03*
X834857Y465700D03*
X862500Y9200D03*
X873200Y39600D03*
X857400Y15000D03*
X873400Y20300D03*
X866900Y40900D03*
X858800Y40200D03*
X867000Y20700D03*
X858800Y60500D03*
X882143Y52243D03*
X873314Y80386D03*
X880800Y81600D03*
X867000Y85300D03*
X863100Y82400D03*
X867000Y191400D03*
X881000Y182100D03*
X863100Y188000D03*
X866900Y217200D03*
X871400Y262300D03*
X873500Y259300D03*
X866900Y283200D03*
X854100Y311300D03*
X856212Y308200D03*
X865100Y316600D03*
X863200Y326700D03*
X865644Y337826D03*
X861900D03*
X855600Y391900D03*
X867800Y391600D03*
X864006Y390194D03*
X859744Y377600D03*
X856000D03*
X871100Y377400D03*
X857547Y418353D03*
X863453Y420453D03*
X871100Y424700D03*
X867600Y413800D03*
X856163Y414337D03*
X864037Y414200D03*
X906000Y32700D03*
X888400Y65200D03*
X884300Y68200D03*
X892800Y63300D03*
X901120Y173300D03*
X884300Y184900D03*
X892800Y176900D03*
X913000Y171700D03*
X904700Y173300D03*
X888400Y179600D03*
X909420Y171700D03*
X905300Y200200D03*
X904800Y203800D03*
X912360Y281116D03*
X904800Y331400D03*
X913100Y358700D03*
X941800Y9200D03*
X913600Y21700D03*
X917500Y38800D03*
X930900Y67000D03*
X937400D03*
X922200Y91200D03*
X918580Y87300D03*
X925047Y86400D03*
X925934Y122086D03*
X929514D03*
X922200Y170500D03*
X918580Y173600D03*
X915940Y281116D03*
X922840Y274700D03*
X930040Y279400D03*
X926460D03*
X919260Y274700D03*
X914200Y304800D03*
X922800Y311300D03*
X940453Y291047D03*
X940200Y310200D03*
X918500Y327500D03*
X927252Y313525D03*
X930508Y313600D03*
X915312Y327888D03*
X926300Y335300D03*
X939700Y322400D03*
X926300Y326701D03*
X930600Y322400D03*
X933300Y358500D03*
X933400Y372600D03*
X913500Y362400D03*
X932900Y364747D03*
X917600Y344400D03*
X913600Y388600D03*
X927200Y391400D03*
X935800Y382800D03*
X915894Y390894D03*
X913547Y420447D03*
X938650Y432950D03*
X928600Y411700D03*
X913283Y414983D03*
X915563Y413300D03*
X923437Y413837D03*
X919453Y418353D03*
X943000Y449200D03*
X942606Y455100D03*
X924653Y442700D03*
X928397D03*
X937400Y480500D03*
X940500D03*
X932728Y487872D03*
X943600Y67000D03*
X949100Y80900D03*
X971840Y94700D03*
X968260D03*
X972500Y102000D03*
X972800Y115300D03*
X972700Y193900D03*
X967020Y197000D03*
Y276280D03*
X955353Y291147D03*
X971212Y308200D03*
X969100Y311300D03*
X955400Y309800D03*
X967200Y318000D03*
X954200Y335700D03*
X944700Y338100D03*
X966628Y340372D03*
X961900Y315400D03*
X949500Y316200D03*
X954600Y353800D03*
X962600Y361200D03*
X963300Y357800D03*
X945100Y353600D03*
X959400Y354200D03*
X969800Y392000D03*
X957800Y397700D03*
X949100Y383500D03*
X954800Y382900D03*
X971000Y377600D03*
X954702Y421860D03*
X972747Y418347D03*
X958282Y421860D03*
X965300Y412300D03*
X971163Y414337D03*
X947631Y418400D03*
X950400Y418600D03*
X949900Y455000D03*
X954150Y447950D03*
X949900Y449000D03*
X955700Y455800D03*
X947872Y487872D03*
X952028D03*
X956200Y480300D03*
X943800Y480500D03*
X954557Y467300D03*
X949857Y465700D03*
X977860Y98700D03*
X981549D03*
X986660Y165460D03*
X993600Y188000D03*
X990240Y165460D03*
X997060Y164100D03*
X993100Y191400D03*
X1000640Y164100D03*
X981600Y214200D03*
X989900Y251900D03*
X998660Y276000D03*
X1002240D03*
X981600Y278800D03*
X987000Y256000D03*
X1002000Y304800D03*
X993100Y331900D03*
X981950Y326450D03*
X976900Y337826D03*
X980644D03*
X1003112Y327888D03*
X978200Y326700D03*
X1000600Y362100D03*
X1000400Y359000D03*
X1000300Y391400D03*
X983200Y391500D03*
X977800Y391100D03*
X974744Y377600D03*
X978653Y420147D03*
X1001347Y420247D03*
X983200Y413700D03*
X1000600Y415300D03*
X976800Y413800D03*
X1008920Y126600D03*
X1012500D03*
X1005860Y282416D03*
X1009440D03*
X1014800Y273400D03*
X1011220D03*
X1028253Y291047D03*
X1010800Y311300D03*
X1028000Y310200D03*
X1006300Y327500D03*
X1015052Y313525D03*
X1018308Y313600D03*
X1032500Y338100D03*
X1018400Y322400D03*
X1027500D03*
X1014100Y335300D03*
Y326701D03*
X1003800Y369300D03*
X1020700Y364747D03*
X1032900Y353600D03*
X1021750Y358650D03*
X1005400Y344400D03*
X1015100Y391200D03*
X1003694Y390894D03*
X1023900Y382800D03*
X1021000Y373400D03*
X1007253Y418353D03*
X1026450Y432950D03*
X1016400Y412500D03*
X1003363Y413200D03*
X1011237Y413837D03*
X1030406Y455100D03*
X1012453Y442700D03*
X1030800Y449200D03*
X1016197Y442700D03*
X1020528Y487872D03*
X1028300Y480500D03*
X1025200D03*
X1031600D03*
X1035400Y25300D03*
X1057700Y21700D03*
X1057200Y39900D03*
X1038000Y81600D03*
X1054500Y184900D03*
X1060000Y182100D03*
X1054500Y276700D03*
X1043200Y309800D03*
X1043153Y291147D03*
X1059012Y308200D03*
X1056900Y311300D03*
X1054500Y316050D03*
X1054428Y340372D03*
X1049700Y315400D03*
X1037300Y316200D03*
X1042000Y335700D03*
X1051100Y357800D03*
X1050400Y361200D03*
X1042400Y353800D03*
X1047200Y354200D03*
X1057600Y391900D03*
X1045200Y398100D03*
X1062544Y377600D03*
X1058800D03*
X1042600Y382900D03*
X1036900Y383500D03*
X1046082Y419892D03*
X1042502D03*
X1053400Y412500D03*
X1038200Y419300D03*
X1035431D03*
X1058963Y414337D03*
X1060547Y418347D03*
X1037700Y449000D03*
X1041750Y447750D03*
X1043500Y455800D03*
X1037700Y455000D03*
X1039828Y487872D03*
X1044000Y480300D03*
X1035672Y487872D03*
X1037657Y465700D03*
X1042357Y467300D03*
X1067600Y68700D03*
X1090660Y159800D03*
X1085140Y164500D03*
X1081560D03*
X1076600Y179600D03*
X1080400Y176900D03*
X1069500Y210000D03*
X1074000Y247800D03*
X1076400Y244300D03*
X1090640Y275800D03*
X1087060D03*
X1069500Y281700D03*
X1088900Y304400D03*
X1079900Y332200D03*
X1069750Y326550D03*
X1068444Y337826D03*
X1066000Y326700D03*
X1064700Y337826D03*
X1093200Y327100D03*
X1090012Y327488D03*
X1073800Y347000D03*
X1092300Y344000D03*
X1087300Y361200D03*
X1087100Y357800D03*
X1066500Y384700D03*
X1092200Y390800D03*
X1071400Y391900D03*
X1087600Y391100D03*
X1066806Y390194D03*
X1090263Y413437D03*
X1071700Y413200D03*
X1087900Y415400D03*
X1066453Y420247D03*
X1088247Y419847D03*
X1066837Y414300D03*
X1100100Y60800D03*
X1095500Y62600D03*
X1105447Y62447D03*
X1105000Y84600D03*
X1105950Y105650D03*
X1110740Y139500D03*
X1094240Y159800D03*
X1106925Y140595D03*
X1099340Y280960D03*
X1095760D03*
X1105685Y276200D03*
X1109265D03*
X1101952Y313125D03*
X1105208Y313200D03*
X1115153Y290647D03*
X1114900Y309800D03*
X1098000Y310900D03*
X1119400Y337700D03*
X1105300Y322000D03*
X1114400D03*
X1101000Y334900D03*
Y326301D03*
X1108400Y358500D03*
X1108100Y372700D03*
X1119800Y353200D03*
X1107600Y364347D03*
X1097406Y390906D03*
X1102400Y391400D03*
X1110400Y382000D03*
X1113350Y432950D03*
X1094153Y418347D03*
X1098137Y413363D03*
X1104000Y411700D03*
X1122300Y418425D03*
X1099353Y442700D03*
X1117700Y449200D03*
X1117306Y455100D03*
X1103097Y442700D03*
X1115200Y480500D03*
X1122572Y487872D03*
X1112100Y480500D03*
X1118500D03*
X1107428Y487872D03*
X1133147Y62453D03*
X1151053Y62447D03*
X1123553Y62653D03*
X1123398Y89598D03*
X1131800Y84000D03*
X1124900Y99500D03*
X1149002Y89398D03*
X1151800Y84100D03*
X1123300Y84200D03*
X1133200Y105800D03*
X1151200Y107100D03*
X1124100Y107400D03*
X1140700Y173600D03*
Y275800D03*
X1130053Y290747D03*
X1143800Y310900D03*
X1130100Y309400D03*
X1145912Y307800D03*
X1140700Y315500D03*
X1136600Y315000D03*
X1141328Y339972D03*
X1152900Y326300D03*
X1151600Y337426D03*
X1128900Y335300D03*
X1124200Y315800D03*
X1137300Y360800D03*
X1138000Y357400D03*
X1129300Y353400D03*
X1134100Y353800D03*
X1132050Y398850D03*
X1145700Y391800D03*
X1129500Y382500D03*
X1123800Y383100D03*
X1149444Y377200D03*
X1145700D03*
X1147447Y418347D03*
X1151800Y413900D03*
X1132982Y419892D03*
X1129402D03*
X1141500Y413200D03*
X1145863Y413937D03*
X1125100Y419800D03*
X1130400Y455800D03*
X1124600Y455000D03*
Y449000D03*
X1128500Y447600D03*
X1129257Y467300D03*
X1126728Y487872D03*
X1130900Y480300D03*
X1124557Y465700D03*
X1159900Y170500D03*
X1155900Y207300D03*
X1166200Y237500D03*
X1162900Y240400D03*
X1155900Y282700D03*
X1156650Y326250D03*
X1155344Y337426D03*
X1162200Y376500D03*
Y384900D03*
X1153706Y391206D03*
X1157300Y391700D03*
X1155000Y420300D03*
X1156800Y414400D03*
X1186700Y69100D03*
G54D12*
X70100Y29369D03*
Y52991D03*
G54D30*
X956475Y55803D03*
X1018325D03*
G54D21*
X456000Y228400D03*
X459507D03*
X490000Y230800D03*
X485941Y230248D03*
X501521Y236200D03*
X498014D03*
X646850Y235350D03*
X643343D03*
X643636Y277539D03*
X647143D03*
X643431Y317600D03*
X647100D03*
X730293Y235000D03*
X730393Y275400D03*
X730531Y317600D03*
X733800Y235000D03*
X733900Y275400D03*
X734200Y317600D03*
X820994Y232493D03*
X817487D03*
X818100Y274044D03*
X821607D03*
X822000Y317600D03*
X818331D03*
X936804Y232703D03*
X933297D03*
X933293Y282097D03*
X936800D03*
X937000Y317600D03*
X933331D03*
X1025106Y228402D03*
X1021599D03*
X1024491Y276800D03*
X1020984D03*
X1021131Y317600D03*
X1024800D03*
X1114700Y226400D03*
X1111193D03*
X1110993Y279400D03*
X1114500D03*
X1108031Y317200D03*
X1111700D03*
G54D13*
X88604Y41180D03*
G54D31*
X969900Y68795D03*
X999900D03*
X989900D03*
X979900D03*
X994900Y78795D03*
X984900D03*
X974900D03*
X1009900Y68795D03*
X1004900Y78795D03*
G54D22*
X492953Y52008D03*
X707047Y40000D03*
G54D32*
X964900Y78795D03*
G54D14*
X76400Y249400D03*
X76300Y263400D03*
X113200Y142100D03*
X131700D03*
X143000Y400000D03*
X155000D03*
Y388000D03*
X143000D03*
X179300Y95000D03*
Y119700D03*
X222000Y15700D03*
X222200Y29300D03*
X197100Y119500D03*
X200100Y192800D03*
X200200Y178800D03*
X200100Y249700D03*
X200000Y263700D03*
X369300Y438700D03*
X397900Y418000D03*
X384000D03*
X397900Y431900D03*
X384000D03*
X397900Y445800D03*
X383900D03*
X397900Y459700D03*
X383800D03*
X422100Y357500D03*
X422000Y371200D03*
X494200Y348100D03*
X494100Y361800D03*
X508700Y348100D03*
X508600Y361800D03*
X522000Y432400D03*
Y418500D03*
Y460200D03*
Y446300D03*
X508100Y438900D03*
X534700Y432600D03*
Y418700D03*
Y460400D03*
Y446500D03*
X699100Y373500D03*
Y360900D03*
Y386000D03*
X786500Y373500D03*
X786600Y360900D03*
Y386000D03*
X881300Y373500D03*
Y360900D03*
Y386000D03*
X908600Y66400D03*
X908000Y50200D03*
X989000Y373500D03*
Y360900D03*
Y386000D03*
X1069800Y42500D03*
X1069400Y29800D03*
X1069700Y55200D03*
X1077100Y373500D03*
Y360900D03*
Y386000D03*
X1108300Y123100D03*
X1120500Y123000D03*
Y136700D03*
X1136000Y141900D03*
X1148300Y141600D03*
X1148400Y155200D03*
X1170000Y42500D03*
X1183100Y42200D03*
X1169900Y55200D03*
X1171200Y373500D03*
Y360900D03*
X1171300Y386000D03*
G54D23*
X639400Y300500D03*
X629300Y316094D03*
X628000Y354500D03*
X625800Y369500D03*
X625900Y366300D03*
Y372600D03*
X626100Y357600D03*
X642800Y354000D03*
X626000Y378800D03*
X632806Y390506D03*
X639069Y466700D03*
X642519Y467000D03*
X654700Y300400D03*
X646500Y332600D03*
X646600Y329800D03*
X643700D03*
X646600Y332500D03*
Y329700D03*
X643700Y332600D03*
X667800Y315500D03*
X664200Y338900D03*
X656000Y342100D03*
X654500Y327300D03*
X658200Y367900D03*
X661000Y370600D03*
X658100Y370700D03*
X655300D03*
Y367900D03*
X661100Y367800D03*
X661000Y364900D03*
X658100Y365000D03*
X655200D03*
X656118Y344803D03*
X647500Y354100D03*
X643800Y362000D03*
X657400Y347400D03*
X663200Y400800D03*
X656900Y400900D03*
X662000Y381800D03*
X672389Y376010D03*
X656700Y381900D03*
X643500Y376800D03*
X667900Y393600D03*
X643300Y447300D03*
X672300Y462900D03*
X645894Y465706D03*
X671100Y466800D03*
X675100Y343094D03*
X685906Y352500D03*
Y369400D03*
X676600Y372300D03*
X680664Y352364D03*
X683500Y391000D03*
X674400Y374200D03*
X673100Y448700D03*
X726500Y300500D03*
X730800Y329800D03*
Y332600D03*
X714400Y316300D03*
X715100Y354500D03*
X712900Y369500D03*
X713000Y366300D03*
Y372600D03*
X729800Y354300D03*
X713700Y357100D03*
X730900Y362000D03*
X713100Y378800D03*
X719906Y390506D03*
X730500Y376800D03*
X730400Y447300D03*
X726169Y466700D03*
X732994Y465706D03*
X729619Y467000D03*
X741800Y300400D03*
X733700Y329800D03*
X733600Y332600D03*
X754900Y315500D03*
X751300Y338900D03*
X741600Y327300D03*
X743100Y342100D03*
X748000Y364600D03*
Y370300D03*
X745100Y370400D03*
X742300D03*
X748100Y367500D03*
X745200Y367600D03*
X742200Y364700D03*
X742300Y367600D03*
X745100Y364700D03*
X743218Y344803D03*
X744500Y347400D03*
X734600Y354100D03*
X760700Y344400D03*
X755000Y393600D03*
X759489Y376010D03*
X743800Y381900D03*
X761500Y374200D03*
X749100Y381800D03*
X744000Y400900D03*
X750300Y400800D03*
X760200Y448700D03*
X759400Y462900D03*
X758200Y466800D03*
X767764Y352364D03*
X763700Y372300D03*
X773006Y369400D03*
Y352300D03*
X770800Y391100D03*
X814300Y300500D03*
X821500Y329800D03*
X818600D03*
X821400Y332600D03*
X818600D03*
X802200Y316300D03*
X800800Y372600D03*
X800700Y369500D03*
X822400Y354100D03*
X817800D03*
X799700Y355800D03*
X818700Y362000D03*
X800800Y366300D03*
X802900Y354500D03*
X800900Y378800D03*
X807706Y390506D03*
X818800Y378100D03*
X818200Y447300D03*
X820794Y465706D03*
X813969Y466700D03*
X817419Y467000D03*
X829600Y300400D03*
X830900Y342100D03*
X839100Y338900D03*
X829400Y327300D03*
X842700Y315500D03*
X830100Y364700D03*
X835900Y370300D03*
X833000Y370400D03*
X830200D03*
Y367600D03*
X833100D03*
X836000Y367500D03*
X833000Y364700D03*
X835900Y364600D03*
X851500Y372300D03*
X848500Y344400D03*
X832300Y347400D03*
X831018Y344803D03*
X836900Y381800D03*
X831600Y381900D03*
X847289Y376010D03*
X842800Y393600D03*
X849300Y374200D03*
X838100Y400800D03*
X831800Y400900D03*
X848000Y448700D03*
X847200Y462900D03*
X846000Y466800D03*
X866800Y364300D03*
X866700Y357800D03*
X855564Y352364D03*
X860600Y389200D03*
X929300Y300500D03*
X936500Y329800D03*
X933600D03*
X936400Y332600D03*
X933600D03*
X917200Y316300D03*
X915700Y369500D03*
X933700Y362000D03*
X915700Y357400D03*
X917900Y354500D03*
X937400Y354100D03*
X915800Y372600D03*
X932800Y354000D03*
X915800Y366300D03*
X933600Y376100D03*
X915900Y378800D03*
X922706Y390506D03*
X933200Y447300D03*
X932419Y467000D03*
X935794Y465706D03*
X928969Y466700D03*
X944600Y300400D03*
X944400Y327300D03*
X954100Y338900D03*
X945900Y342100D03*
X957700Y315500D03*
X948100Y364700D03*
X951000Y370300D03*
X948100Y370400D03*
X945300D03*
Y367600D03*
X948200D03*
X951100Y367500D03*
X951000Y364600D03*
X945200Y364700D03*
X966500Y372300D03*
X946018Y344803D03*
X963500Y344400D03*
X947300Y347400D03*
X970564Y352364D03*
X962289Y376010D03*
X964300Y374200D03*
X957800Y393600D03*
X946800Y400900D03*
X951900Y381800D03*
X953100Y400800D03*
X946600Y381900D03*
X962200Y462900D03*
X963000Y448700D03*
X961000Y466800D03*
X975806Y369300D03*
Y352300D03*
X973600Y390800D03*
X1017100Y300500D03*
X1032400Y300400D03*
X1024300Y329800D03*
X1021400D03*
X1024200Y332600D03*
X1021400D03*
X1032200Y327300D03*
X1005000Y316300D03*
X1033000Y370500D03*
Y367700D03*
X1032900Y364800D03*
X1003900Y357100D03*
X1003600Y372600D03*
X1025200Y354100D03*
X1020600Y354000D03*
X1003600Y366300D03*
X1021500Y362000D03*
X1005700Y354500D03*
X1010506Y390506D03*
X1003700Y378800D03*
X1021700Y378500D03*
X1021000Y447300D03*
X1016769Y466700D03*
X1020219Y467000D03*
X1023594Y465706D03*
X1041900Y338900D03*
X1033700Y342100D03*
X1045500Y315500D03*
X1038700Y370400D03*
X1035800Y370500D03*
X1035900Y367700D03*
X1038800Y367600D03*
X1038700Y364700D03*
X1035800Y364800D03*
X1051300Y344400D03*
X1035100Y347400D03*
X1054300Y372300D03*
X1058364Y352364D03*
X1033818Y344803D03*
X1039700Y381800D03*
X1040900Y400800D03*
X1034600Y400900D03*
X1061600Y390900D03*
X1045600Y393600D03*
X1052100Y374200D03*
X1050089Y376010D03*
X1034400Y381900D03*
X1050000Y462900D03*
X1050800Y448700D03*
X1048800Y466800D03*
X1092200Y315500D03*
X1063606Y352600D03*
Y369300D03*
X1090500Y372200D03*
Y365900D03*
X1090400Y369100D03*
X1092600Y354100D03*
X1089700Y356500D03*
X1090600Y378400D03*
X1104000Y300100D03*
X1119300Y300000D03*
X1111400Y329800D03*
X1108500D03*
X1111300Y332600D03*
X1108500D03*
X1119100Y326900D03*
X1120600Y341700D03*
X1122900Y370400D03*
X1120100D03*
Y367600D03*
X1123000D03*
X1122900Y364700D03*
X1120000D03*
X1107300Y353700D03*
X1112100D03*
X1122000Y347000D03*
X1120718Y344403D03*
X1108400Y361600D03*
X1121500Y400500D03*
X1121300Y381500D03*
X1108000Y377300D03*
X1107900Y447300D03*
X1107119Y467000D03*
X1110494Y465706D03*
X1103669Y466700D03*
X1132400Y315100D03*
X1128800Y338500D03*
X1125800Y370300D03*
X1125900Y367500D03*
X1125800Y364600D03*
X1145264Y351964D03*
X1146827Y349755D03*
X1150506Y369000D03*
X1138200Y344000D03*
X1141200Y371900D03*
X1132500Y393200D03*
X1127800Y400400D03*
X1149700Y391200D03*
X1139000Y373800D03*
X1136989Y375610D03*
X1126600Y381400D03*
X1137700Y448700D03*
X1136900Y462900D03*
X1136300Y466200D03*
G54D24*
X637202Y432991D03*
X628049Y451101D03*
Y470786D03*
Y489290D03*
X656100Y432991D03*
X674998D03*
X684151Y451101D03*
Y489290D03*
Y470786D03*
X724302Y432991D03*
X715149Y451101D03*
Y470786D03*
Y489290D03*
X743200Y432991D03*
X762098D03*
X771251Y451101D03*
Y489290D03*
Y470786D03*
X812102Y432991D03*
X802949Y451101D03*
Y470786D03*
Y489290D03*
X831000Y432991D03*
X849898D03*
X859051Y451101D03*
Y489290D03*
Y470786D03*
X927202Y432991D03*
X918049Y451101D03*
Y470786D03*
Y489290D03*
X946100Y432991D03*
X964998D03*
X974151Y451101D03*
Y489290D03*
Y470786D03*
X1015002Y432991D03*
X1033900D03*
X1005849Y451101D03*
Y470786D03*
Y489290D03*
X1052798Y432991D03*
X1061951Y451101D03*
Y489290D03*
Y470786D03*
X1092749Y451301D03*
Y470986D03*
Y489490D03*
X1101902Y433191D03*
X1120800D03*
X1139698D03*
X1148851Y451301D03*
Y489490D03*
Y470986D03*
G54D15*
X90000Y551300D03*
X233800D03*
X377600D03*
X521400D03*
G54D33*
X1087200Y76500D03*
Y96000D03*
X1077200Y76500D03*
Y96000D03*
X1076800Y122300D03*
X1086800D03*
X1076900Y146600D03*
X1086900D03*
X1115400Y36100D03*
Y26100D03*
X1105400Y36100D03*
Y26100D03*
X1095400Y36100D03*
Y26100D03*
X1145400D03*
X1135400Y36100D03*
Y26100D03*
X1125400Y36100D03*
Y26100D03*
X1145400Y36100D03*
X1168300Y76500D03*
X1168400Y96000D03*
X1178300Y76500D03*
X1178400Y96000D03*
X1168500Y122300D03*
X1178500D03*
X1168400Y146600D03*
X1178400D03*
G54D34*
G01X76400Y245450D02*
Y249400D01*
G01D02*
Y253350D01*
G01X72450Y249400D02*
X76400D01*
G01D02*
X80350D01*
G01X90000Y547846D02*
Y551300D01*
G01D02*
Y554754D01*
G01X86546Y551300D02*
X90000D01*
G01D02*
X93454D01*
G01X80000Y564663D02*
Y571300D01*
G01D02*
Y577937D01*
G01X73363Y571300D02*
X80000D01*
G01D02*
X86637D01*
G01X131700Y138150D02*
Y142100D01*
G01D02*
Y146050D01*
G01X127750Y142100D02*
X131700D01*
G01D02*
X135650D01*
G01X120000Y564663D02*
Y571300D01*
G01D02*
Y577937D01*
G01X113363Y571300D02*
X120000D01*
G01D02*
X126637D01*
G01X155000Y384050D02*
Y388000D01*
G01D02*
Y391950D01*
G01X151050Y388000D02*
X155000D01*
G01D02*
X158950D01*
G01X143000Y384050D02*
Y388000D01*
G01D02*
Y391950D01*
G01X139050Y388000D02*
X143000D01*
G01D02*
X146950D01*
G01X218050Y15700D02*
X222000D01*
G01X197100Y115550D02*
Y119500D01*
G01D02*
Y123450D01*
G01X193150Y119500D02*
X197100D01*
G01D02*
X201050D01*
G01X200200Y174850D02*
Y178800D01*
G01D02*
Y182750D01*
G01X196250Y178800D02*
X200200D01*
G01D02*
X204150D01*
G01X200100Y245750D02*
Y249700D01*
G01D02*
Y253650D01*
G01X196150Y249700D02*
X200100D01*
G01D02*
X204050D01*
G01X217163Y571300D02*
X223800D01*
G01X222000Y11750D02*
Y15700D01*
G01D02*
Y19650D01*
G01Y15700D02*
X225950D01*
G01X233800Y547846D02*
Y551300D01*
G01D02*
Y554754D01*
G01X230346Y551300D02*
X233800D01*
G01D02*
X237254D01*
G01X223800Y564663D02*
Y571300D01*
G01D02*
Y577937D01*
G01Y571300D02*
X230437D01*
G01X263800Y564663D02*
Y571300D01*
G01D02*
Y577937D01*
G01X257163Y571300D02*
X263800D01*
G01D02*
X270437D01*
G01X369300Y434750D02*
Y438700D01*
G01D02*
Y442650D01*
G01X365350Y438700D02*
X369300D01*
G01D02*
X373250D01*
G01X367600Y564663D02*
Y571300D01*
G01D02*
Y577937D01*
G01X360963Y571300D02*
X367600D01*
G01D02*
X374237D01*
G01X377600Y547846D02*
Y551300D01*
G01D02*
Y554754D01*
G01X374146Y551300D02*
X377600D01*
G01D02*
X381054D01*
G01X400963Y571300D02*
X407600D01*
G01X422000Y367250D02*
Y371200D01*
G01D02*
Y375150D01*
G01X418050Y371200D02*
X422000D01*
G01D02*
X425950D01*
G01X407600Y564663D02*
Y571300D01*
G01D02*
Y577937D01*
G01Y571300D02*
X414237D01*
G01X490150Y361800D02*
X494100D01*
G01Y357850D02*
Y361800D01*
G01D02*
Y365750D01*
G01Y361800D02*
X498050D01*
G01X508600Y357850D02*
Y361800D01*
G01D02*
Y365750D01*
G01X504650Y361800D02*
X508600D01*
G01D02*
X512550D01*
G01X508100Y434950D02*
Y438900D01*
G01D02*
Y442850D01*
G01X504150Y438900D02*
X508100D01*
G01D02*
X512050D01*
G01X521400Y547846D02*
Y551300D01*
G01D02*
Y554754D01*
G01X517946Y551300D02*
X521400D01*
G01D02*
X524854D01*
G01X511400Y564663D02*
Y571300D01*
G01D02*
Y577937D01*
G01X504763Y571300D02*
X511400D01*
G01D02*
X518037D01*
G01X551400Y564663D02*
Y571300D01*
G01D02*
Y577937D01*
G01X544763Y571300D02*
X551400D01*
G01D02*
X558037D01*
G01X637202Y429419D02*
Y432991D01*
G01X628049Y447529D02*
Y451101D01*
G01D02*
Y454673D01*
G01X624477Y451101D02*
X628049D01*
G01D02*
X631621D01*
G01X628049Y436619D02*
Y441258D01*
G01D02*
Y445897D01*
G01X623410Y441258D02*
X628049D01*
G01D02*
X632688D01*
G01X637202Y432991D02*
Y436563D01*
G01X633630Y432991D02*
X637202D01*
G01D02*
X640774D01*
G01X628049Y485718D02*
Y489290D01*
G01D02*
Y492862D01*
G01X624477Y489290D02*
X628049D01*
G01D02*
X631621D01*
G01X628049Y475989D02*
Y480628D01*
G01D02*
Y485267D01*
G01X623410Y480628D02*
X628049D01*
G01D02*
X632688D01*
G01X628049Y467214D02*
Y470786D01*
G01D02*
Y474358D01*
G01X624477Y470786D02*
X628049D01*
G01D02*
X631621D01*
G01X628049Y515359D02*
Y519998D01*
G01D02*
Y524637D01*
G01X623410Y519998D02*
X628049D01*
G01D02*
X632688D01*
G01X640549Y495674D02*
Y500313D01*
G01D02*
Y504952D01*
G01X635910Y500313D02*
X640549D01*
G01D02*
X645188D01*
G01X628049Y554730D02*
Y559369D01*
G01D02*
Y564008D01*
G01X623410Y559369D02*
X628049D01*
G01D02*
X632688D01*
G01X656100Y429419D02*
Y432991D01*
G01X671426D02*
X674998D01*
G01X656100D02*
Y436563D01*
G01X652528Y432991D02*
X656100D01*
G01D02*
X659672D01*
G01X661809Y495674D02*
Y500313D01*
G01D02*
Y504952D01*
G01X657170Y500313D02*
X661809D01*
G01D02*
X666448D01*
G01X650391Y574415D02*
Y579054D01*
G01D02*
Y583693D01*
G01X645752Y579054D02*
X650391D01*
G01D02*
X655030D01*
G01X699100Y356950D02*
Y360900D01*
G01D02*
Y364850D01*
G01X695150Y360900D02*
X699100D01*
G01D02*
X703050D01*
G01X674998Y429419D02*
Y432991D01*
G01X684151Y457568D02*
Y460943D01*
G01D02*
Y464318D01*
G01X680776Y460943D02*
X684151D01*
G01D02*
X687526D01*
G01X684151Y447529D02*
Y451101D01*
G01D02*
Y454673D01*
G01X680579Y451101D02*
X684151D01*
G01D02*
X687723D01*
G01X674998Y432991D02*
Y436563D01*
G01Y432991D02*
X678570D01*
G01X684151Y467214D02*
Y470786D01*
G01D02*
Y474358D01*
G01X680579Y470786D02*
X684151D01*
G01D02*
X687723D01*
G01X684151Y485718D02*
Y489290D01*
G01D02*
Y492862D01*
G01X680579Y489290D02*
X684151D01*
G01D02*
X687723D01*
G01X684151Y495674D02*
Y500313D01*
G01D02*
Y504952D01*
G01X679512Y500313D02*
X684151D01*
G01D02*
X688790D01*
G01X684151Y535044D02*
Y539683D01*
G01D02*
Y544322D01*
G01X679512Y539683D02*
X684151D01*
G01D02*
X688790D01*
G01X684151Y574415D02*
Y579054D01*
G01D02*
Y583693D01*
G01X679512Y579054D02*
X684151D01*
G01D02*
X688790D01*
G01X724302Y429419D02*
Y432991D01*
G01D02*
Y436563D01*
G01X720730Y432991D02*
X724302D01*
G01D02*
X727874D01*
G01X715149Y447529D02*
Y451101D01*
G01D02*
Y454673D01*
G01X711577Y451101D02*
X715149D01*
G01D02*
X718721D01*
G01X715149Y436619D02*
Y441258D01*
G01D02*
Y445897D01*
G01X710510Y441258D02*
X715149D01*
G01D02*
X719788D01*
G01X715149Y467214D02*
Y470786D01*
G01D02*
Y474358D01*
G01X711577Y470786D02*
X715149D01*
G01D02*
X718721D01*
G01X715149Y485718D02*
Y489290D01*
G01D02*
Y492862D01*
G01X711577Y489290D02*
X715149D01*
G01D02*
X718721D01*
G01X715149Y475989D02*
Y480628D01*
G01D02*
Y485267D01*
G01X710510Y480628D02*
X715149D01*
G01D02*
X719788D01*
G01X715149Y515359D02*
Y519998D01*
G01D02*
Y524637D01*
G01X710510Y519998D02*
X715149D01*
G01D02*
X719788D01*
G01X727649Y495674D02*
Y500313D01*
G01D02*
Y504952D01*
G01X723010Y500313D02*
X727649D01*
G01D02*
X732288D01*
G01X715149Y554730D02*
Y559369D01*
G01D02*
Y564008D01*
G01X710510Y559369D02*
X715149D01*
G01D02*
X719788D01*
G01X743200Y429419D02*
Y432991D01*
G01D02*
Y436563D01*
G01X739628Y432991D02*
X743200D01*
G01D02*
X746772D01*
G01X758526D02*
X762098D01*
G01X748909Y495674D02*
Y500313D01*
G01D02*
Y504952D01*
G01X744270Y500313D02*
X748909D01*
G01D02*
X753548D01*
G01X737491Y574415D02*
Y579054D01*
G01D02*
Y583693D01*
G01X732852Y579054D02*
X737491D01*
G01D02*
X742130D01*
G01X786600Y356950D02*
Y360900D01*
G01D02*
Y364850D01*
G01X782650Y360900D02*
X786600D01*
G01D02*
X790550D01*
G01X762098Y429419D02*
Y432991D01*
G01X771251Y447529D02*
Y451101D01*
G01D02*
Y454673D01*
G01X767679Y451101D02*
X771251D01*
G01D02*
X774823D01*
G01X771251Y457568D02*
Y460943D01*
G01D02*
Y464318D01*
G01X767876Y460943D02*
X771251D01*
G01D02*
X774626D01*
G01X762098Y432991D02*
Y436563D01*
G01Y432991D02*
X765670D01*
G01X771251Y485718D02*
Y489290D01*
G01D02*
Y492862D01*
G01X767679Y489290D02*
X771251D01*
G01D02*
X774823D01*
G01X771251Y467214D02*
Y470786D01*
G01D02*
Y474358D01*
G01X767679Y470786D02*
X771251D01*
G01D02*
X774823D01*
G01X771251Y495674D02*
Y500313D01*
G01D02*
Y504952D01*
G01X766612Y500313D02*
X771251D01*
G01D02*
X775890D01*
G01X771251Y535044D02*
Y539683D01*
G01D02*
Y544322D01*
G01X766612Y539683D02*
X771251D01*
G01D02*
X775890D01*
G01X771251Y574415D02*
Y579054D01*
G01D02*
Y583693D01*
G01X766612Y579054D02*
X771251D01*
G01D02*
X775890D01*
G01X812102Y429419D02*
Y432991D01*
G01D02*
Y436563D01*
G01X808530Y432991D02*
X812102D01*
G01D02*
X815674D01*
G01X802949Y436619D02*
Y441258D01*
G01D02*
Y445897D01*
G01X798310Y441258D02*
X802949D01*
G01D02*
X807588D01*
G01X802949Y447529D02*
Y451101D01*
G01D02*
Y454673D01*
G01X799377Y451101D02*
X802949D01*
G01D02*
X806521D01*
G01X802949Y467214D02*
Y470786D01*
G01D02*
Y474358D01*
G01X799377Y470786D02*
X802949D01*
G01D02*
X806521D01*
G01X802949Y485718D02*
Y489290D01*
G01D02*
Y492862D01*
G01X799377Y489290D02*
X802949D01*
G01D02*
X806521D01*
G01X802949Y475989D02*
Y480628D01*
G01D02*
Y485267D01*
G01X798310Y480628D02*
X802949D01*
G01D02*
X807588D01*
G01X802949Y515359D02*
Y519998D01*
G01D02*
Y524637D01*
G01X798310Y519998D02*
X802949D01*
G01D02*
X807588D01*
G01X815449Y495674D02*
Y500313D01*
G01D02*
Y504952D01*
G01X810810Y500313D02*
X815449D01*
G01D02*
X820088D01*
G01X820652Y579054D02*
X825291D01*
G01X802949Y554730D02*
Y559369D01*
G01D02*
Y564008D01*
G01X798310Y559369D02*
X802949D01*
G01D02*
X807588D01*
G01X849898Y429419D02*
Y432991D01*
G01X831000Y429419D02*
Y432991D01*
G01X849898D02*
Y436563D01*
G01X846326Y432991D02*
X849898D01*
G01D02*
X853470D01*
G01X831000D02*
Y436563D01*
G01X827428Y432991D02*
X831000D01*
G01D02*
X834572D01*
G01X836709Y495674D02*
Y500313D01*
G01D02*
Y504952D01*
G01X832070Y500313D02*
X836709D01*
G01D02*
X841348D01*
G01X825291Y574415D02*
Y579054D01*
G01D02*
Y583693D01*
G01Y579054D02*
X829930D01*
G01X881300Y356950D02*
Y360900D01*
G01D02*
Y364850D01*
G01X877350Y360900D02*
X881300D01*
G01D02*
X885250D01*
G01X859051Y447529D02*
Y451101D01*
G01D02*
Y454673D01*
G01X855479Y451101D02*
X859051D01*
G01D02*
X862623D01*
G01X859051Y457568D02*
Y460943D01*
G01D02*
Y464318D01*
G01X855676Y460943D02*
X859051D01*
G01D02*
X862426D01*
G01X859051Y467214D02*
Y470786D01*
G01D02*
Y474358D01*
G01X855479Y470786D02*
X859051D01*
G01D02*
X862623D01*
G01X859051Y485718D02*
Y489290D01*
G01D02*
Y492862D01*
G01X855479Y489290D02*
X859051D01*
G01D02*
X862623D01*
G01X859051Y495674D02*
Y500313D01*
G01D02*
Y504952D01*
G01X854412Y500313D02*
X859051D01*
G01D02*
X863690D01*
G01X859051Y535044D02*
Y539683D01*
G01D02*
Y544322D01*
G01X854412Y539683D02*
X859051D01*
G01D02*
X863690D01*
G01X859051Y574415D02*
Y579054D01*
G01D02*
Y583693D01*
G01X854412Y579054D02*
X859051D01*
G01D02*
X863690D01*
G01X908000Y46250D02*
Y50200D01*
G01D02*
Y54150D01*
G01X904050Y50200D02*
X908000D01*
G01D02*
X911950D01*
G01X927202Y429419D02*
Y432991D01*
G01D02*
Y436563D01*
G01X923630Y432991D02*
X927202D01*
G01D02*
X930774D01*
G01X918049Y436619D02*
Y441258D01*
G01D02*
Y445897D01*
G01X913410Y441258D02*
X918049D01*
G01D02*
X922688D01*
G01X918049Y447529D02*
Y451101D01*
G01D02*
Y454673D01*
G01X914477Y451101D02*
X918049D01*
G01D02*
X921621D01*
G01X918049Y485718D02*
Y489290D01*
G01D02*
Y492862D01*
G01X914477Y489290D02*
X918049D01*
G01D02*
X921621D01*
G01X918049Y475989D02*
Y480628D01*
G01D02*
Y485267D01*
G01X913410Y480628D02*
X918049D01*
G01D02*
X922688D01*
G01X918049Y467214D02*
Y470786D01*
G01D02*
Y474358D01*
G01X914477Y470786D02*
X918049D01*
G01D02*
X921621D01*
G01X930549Y495674D02*
Y500313D01*
G01D02*
Y504952D01*
G01X925910Y500313D02*
X930549D01*
G01D02*
X935188D01*
G01X918049Y515359D02*
Y519998D01*
G01D02*
Y524637D01*
G01X913410Y519998D02*
X918049D01*
G01D02*
X922688D01*
G01X940391Y574415D02*
Y579054D01*
G01D02*
Y583693D01*
G01X935752Y579054D02*
X940391D01*
G01D02*
X945030D01*
G01X918049Y554730D02*
Y559369D01*
G01D02*
Y564008D01*
G01X913410Y559369D02*
X918049D01*
G01D02*
X922688D01*
G01X956475Y50140D02*
Y55803D01*
G01D02*
Y61466D01*
G01X950812Y55803D02*
X956475D01*
G01D02*
X962138D01*
G01X964998Y429419D02*
Y432991D01*
G01X946100Y429419D02*
Y432991D01*
G01X964998D02*
Y436563D01*
G01X961426Y432991D02*
X964998D01*
G01D02*
X968570D01*
G01X970579Y451101D02*
X974151D01*
G01X946100Y432991D02*
Y436563D01*
G01X942528Y432991D02*
X946100D01*
G01D02*
X949672D01*
G01X970776Y460943D02*
X974151D01*
G01X970579Y470786D02*
X974151D01*
G01X970579Y489290D02*
X974151D01*
G01X951809Y495674D02*
Y500313D01*
G01D02*
Y504952D01*
G01X947170Y500313D02*
X951809D01*
G01D02*
X956448D01*
G01X969512D02*
X974151D01*
G01X969512Y539683D02*
X974151D01*
G01X969512Y579054D02*
X974151D01*
G01X989000Y356950D02*
Y360900D01*
G01D02*
Y364850D01*
G01X985050Y360900D02*
X989000D01*
G01D02*
X992950D01*
G01X974151Y447529D02*
Y451101D01*
G01D02*
Y454673D01*
G01Y451101D02*
X977723D01*
G01X1001210Y441258D02*
X1005849D01*
G01X974151Y457568D02*
Y460943D01*
G01D02*
Y464318D01*
G01Y460943D02*
X977526D01*
G01X974151Y467214D02*
Y470786D01*
G01D02*
Y474358D01*
G01Y470786D02*
X977723D01*
G01X1001210Y480628D02*
X1005849D01*
G01X974151Y485718D02*
Y489290D01*
G01D02*
Y492862D01*
G01Y489290D02*
X977723D01*
G01X1001210Y519998D02*
X1005849D01*
G01X974151Y495674D02*
Y500313D01*
G01D02*
Y504952D01*
G01Y500313D02*
X978790D01*
G01X974151Y535044D02*
Y539683D01*
G01D02*
Y544322D01*
G01Y539683D02*
X978790D01*
G01X974151Y574415D02*
Y579054D01*
G01D02*
Y583693D01*
G01Y579054D02*
X978790D01*
G01X1001210Y559369D02*
X1005849D01*
G01X1009900Y65164D02*
Y68795D01*
G01D02*
Y72426D01*
G01X1006269Y68795D02*
X1009900D01*
G01D02*
X1013531D01*
G01X1018325Y50140D02*
Y55803D01*
G01D02*
Y61466D01*
G01X1012662Y55803D02*
X1018325D01*
G01D02*
X1023988D01*
G01X1015002Y429419D02*
Y432991D01*
G01D02*
Y436563D01*
G01X1011430Y432991D02*
X1015002D01*
G01D02*
X1018574D01*
G01X1005849Y436619D02*
Y441258D01*
G01D02*
Y445897D01*
G01Y441258D02*
X1010488D01*
G01X1005849Y447529D02*
Y451101D01*
G01D02*
Y454673D01*
G01X1002277Y451101D02*
X1005849D01*
G01D02*
X1009421D01*
G01X1030328Y432991D02*
X1033900D01*
G01X1005849Y467214D02*
Y470786D01*
G01D02*
Y474358D01*
G01X1002277Y470786D02*
X1005849D01*
G01D02*
X1009421D01*
G01X1005849Y485718D02*
Y489290D01*
G01D02*
Y492862D01*
G01X1002277Y489290D02*
X1005849D01*
G01D02*
X1009421D01*
G01X1005849Y475989D02*
Y480628D01*
G01D02*
Y485267D01*
G01Y480628D02*
X1010488D01*
G01X1018349Y495674D02*
Y500313D01*
G01D02*
Y504952D01*
G01X1013710Y500313D02*
X1018349D01*
G01D02*
X1022988D01*
G01X1005849Y515359D02*
Y519998D01*
G01D02*
Y524637D01*
G01Y519998D02*
X1010488D01*
G01X1028191Y574415D02*
Y579054D01*
G01D02*
Y583693D01*
G01X1023552Y579054D02*
X1028191D01*
G01D02*
X1032830D01*
G01X1005849Y554730D02*
Y559369D01*
G01D02*
Y564008D01*
G01Y559369D02*
X1010488D01*
G01X1052798Y429419D02*
Y432991D01*
G01X1033900Y429419D02*
Y432991D01*
G01X1058379Y451101D02*
X1061951D01*
G01X1058576Y460943D02*
X1061951D01*
G01X1052798Y432991D02*
Y436563D01*
G01X1049226Y432991D02*
X1052798D01*
G01D02*
X1056370D01*
G01X1033900D02*
Y436563D01*
G01Y432991D02*
X1037472D01*
G01X1058379Y489290D02*
X1061951D01*
G01X1058379Y470786D02*
X1061951D01*
G01X1039609Y495674D02*
Y500313D01*
G01D02*
Y504952D01*
G01X1034970Y500313D02*
X1039609D01*
G01D02*
X1044248D01*
G01X1057312D02*
X1061951D01*
G01X1057312Y539683D02*
X1061951D01*
G01X1057312Y579054D02*
X1061951D01*
G01X1091698Y26100D02*
X1095400D01*
G01X1069400Y25850D02*
Y29800D01*
G01D02*
Y33750D01*
G01X1065450Y29800D02*
X1069400D01*
G01D02*
X1073350D01*
G01X1077100Y356950D02*
Y360900D01*
G01D02*
Y364850D01*
G01X1073150Y360900D02*
X1077100D01*
G01D02*
X1081050D01*
G01X1088110Y441458D02*
X1092749D01*
G01X1061951Y447529D02*
Y451101D01*
G01D02*
Y454673D01*
G01Y451101D02*
X1065523D01*
G01X1061951Y457568D02*
Y460943D01*
G01D02*
Y464318D01*
G01Y460943D02*
X1065326D01*
G01X1089177Y451301D02*
X1092749D01*
G01X1089177Y489490D02*
X1092749D01*
G01X1061951Y485718D02*
Y489290D01*
G01D02*
Y492862D01*
G01Y489290D02*
X1065523D01*
G01X1061951Y467214D02*
Y470786D01*
G01D02*
Y474358D01*
G01Y470786D02*
X1065523D01*
G01X1088110Y480828D02*
X1092749D01*
G01X1089177Y470986D02*
X1092749D01*
G01X1061951Y495674D02*
Y500313D01*
G01D02*
Y504952D01*
G01Y500313D02*
X1066590D01*
G01X1088110Y520198D02*
X1092749D01*
G01X1061951Y535044D02*
Y539683D01*
G01D02*
Y544322D01*
G01Y539683D02*
X1066590D01*
G01X1061951Y574415D02*
Y579054D01*
G01D02*
Y583693D01*
G01Y579054D02*
X1066590D01*
G01X1088110Y559569D02*
X1092749D01*
G01X1095400Y22398D02*
Y26100D01*
G01D02*
Y29802D01*
G01Y26100D02*
X1099102D01*
G01X1121698D02*
X1125400D01*
G01X1115400Y22398D02*
Y26100D01*
G01D02*
Y29802D01*
G01X1111698Y26100D02*
X1115400D01*
G01D02*
X1119102D01*
G01X1105400Y22398D02*
Y26100D01*
G01D02*
Y29802D01*
G01X1101698Y26100D02*
X1105400D01*
G01D02*
X1109102D01*
G01X1120500Y132750D02*
Y136700D01*
G01D02*
Y140650D01*
G01X1116550Y136700D02*
X1120500D01*
G01D02*
X1124450D01*
G01X1120800Y429619D02*
Y433191D01*
G01X1101902Y429619D02*
Y433191D01*
G01X1092749Y436819D02*
Y441458D01*
G01D02*
Y446097D01*
G01Y441458D02*
X1097388D01*
G01X1120800Y433191D02*
Y436763D01*
G01X1117228Y433191D02*
X1120800D01*
G01D02*
X1124372D01*
G01X1101902D02*
Y436763D01*
G01X1098330Y433191D02*
X1101902D01*
G01D02*
X1105474D01*
G01X1092749Y447729D02*
Y451301D01*
G01D02*
Y454873D01*
G01Y451301D02*
X1096321D01*
G01X1092749Y485918D02*
Y489490D01*
G01D02*
Y493062D01*
G01Y489490D02*
X1096321D01*
G01X1092749Y476189D02*
Y480828D01*
G01D02*
Y485467D01*
G01Y480828D02*
X1097388D01*
G01X1092749Y467414D02*
Y470986D01*
G01D02*
Y474558D01*
G01Y470986D02*
X1096321D01*
G01X1092749Y515559D02*
Y520198D01*
G01D02*
Y524837D01*
G01Y520198D02*
X1097388D01*
G01X1105249Y495874D02*
Y500513D01*
G01D02*
Y505152D01*
G01X1100610Y500513D02*
X1105249D01*
G01D02*
X1109888D01*
G01X1092749Y554930D02*
Y559569D01*
G01D02*
Y564208D01*
G01Y559569D02*
X1097388D01*
G01X1115091Y574615D02*
Y579254D01*
G01D02*
Y583893D01*
G01X1110452Y579254D02*
X1115091D01*
G01D02*
X1119730D01*
G01X1135400Y22398D02*
Y26100D01*
G01D02*
Y29802D01*
G01X1131698Y26100D02*
X1135400D01*
G01D02*
X1139102D01*
G01X1125400Y22398D02*
Y26100D01*
G01D02*
Y29802D01*
G01Y26100D02*
X1129102D01*
G01X1145400Y22398D02*
Y26100D01*
G01D02*
Y29802D01*
G01X1141698Y26100D02*
X1145400D01*
G01D02*
X1149102D01*
G01X1148400Y151250D02*
Y155200D01*
G01D02*
Y159150D01*
G01X1144450Y155200D02*
X1148400D01*
G01D02*
X1152350D01*
G01X1139698Y429619D02*
Y433191D01*
G01X1148851Y447729D02*
Y451301D01*
G01D02*
Y454873D01*
G01X1145279Y451301D02*
X1148851D01*
G01D02*
X1152423D01*
G01X1148851Y457768D02*
Y461143D01*
G01D02*
Y464518D01*
G01X1145476Y461143D02*
X1148851D01*
G01D02*
X1152226D01*
G01X1139698Y433191D02*
Y436763D01*
G01X1136126Y433191D02*
X1139698D01*
G01D02*
X1143270D01*
G01X1148851Y485918D02*
Y489490D01*
G01D02*
Y493062D01*
G01X1145279Y489490D02*
X1148851D01*
G01D02*
X1152423D01*
G01X1148851Y467414D02*
Y470986D01*
G01D02*
Y474558D01*
G01X1145279Y470986D02*
X1148851D01*
G01D02*
X1152423D01*
G01X1126509Y495874D02*
Y500513D01*
G01D02*
Y505152D01*
G01X1121870Y500513D02*
X1126509D01*
G01D02*
X1131148D01*
G01X1148851Y495874D02*
Y500513D01*
G01D02*
Y505152D01*
G01X1144212Y500513D02*
X1148851D01*
G01D02*
X1153490D01*
G01X1148851Y535244D02*
Y539883D01*
G01D02*
Y544522D01*
G01X1144212Y539883D02*
X1148851D01*
G01D02*
X1153490D01*
G01X1148851Y574615D02*
Y579254D01*
G01D02*
Y583893D01*
G01X1144212Y579254D02*
X1148851D01*
G01D02*
X1153490D01*
G01X1179150Y42200D02*
X1183100D01*
G01X1171200Y356950D02*
Y360900D01*
G01D02*
Y364850D01*
G01X1167250Y360900D02*
X1171200D01*
G01D02*
X1175150D01*
G01X1183100Y38250D02*
Y42200D01*
G01D02*
Y46150D01*
G01Y42200D02*
X1187050D01*
G54D16*
X100000Y551300D03*
X243800D03*
X387600D03*
X531400D03*
G54D25*
X637202Y457400D03*
X674998D03*
X724302D03*
X762098D03*
X812102D03*
X849898D03*
X927202D03*
X964998D03*
X1015002D03*
X1052798D03*
X1101902Y457600D03*
X1139698D03*
G54D17*
X80000Y571300D03*
X120000D03*
X223800D03*
X263800D03*
X367600D03*
X407600D03*
X511400D03*
X551400D03*
G54D26*
X628049Y441258D03*
Y480628D03*
Y519998D03*
X640549Y500313D03*
X628049Y559369D03*
X661809Y500313D03*
X650391Y579054D03*
X684151Y500313D03*
Y539683D03*
Y579054D03*
X715149Y441258D03*
Y480628D03*
Y519998D03*
X727649Y500313D03*
X715149Y559369D03*
X748909Y500313D03*
X737491Y579054D03*
X771251Y500313D03*
Y539683D03*
Y579054D03*
X802949Y441258D03*
Y480628D03*
Y519998D03*
X815449Y500313D03*
X802949Y559369D03*
X825291Y579054D03*
X836709Y500313D03*
X859051D03*
Y539683D03*
Y579054D03*
X918049Y441258D03*
Y480628D03*
Y519998D03*
X930549Y500313D03*
X918049Y559369D03*
X940391Y579054D03*
X951809Y500313D03*
X974151D03*
Y539683D03*
Y579054D03*
X1005849Y441258D03*
Y480628D03*
Y519998D03*
X1018349Y500313D03*
X1005849Y559369D03*
X1028191Y579054D03*
X1039609Y500313D03*
X1061951D03*
Y539683D03*
Y579054D03*
X1092749Y441458D03*
Y480828D03*
Y520198D03*
Y559569D03*
X1105249Y500513D03*
X1115091Y579254D03*
X1126509Y500513D03*
X1148851D03*
Y539883D03*
Y579254D03*
G54D18*
X133974Y38800D03*
G54D27*
X684151Y460943D03*
X771251D03*
X859051D03*
X974151D03*
X1061951D03*
X1148851Y461143D03*
G54D28*
X964900Y43795D03*
X1009900D03*
G54D19*
X152084Y38800D03*
G54D29*
X971278Y27811D03*
X961239D03*
X1003522D03*
X1013561D03*
M02*
