%TF.GenerationSoftware,KiCad,Pcbnew,7.0.8*%
%TF.CreationDate,2026-06-09T11:33:23+01:00*%
%TF.ProjectId,PCB_Health.V5,5043425f-4865-4616-9c74-682e56352e6b,rev?*%
%TF.SameCoordinates,Original*%
%TF.FileFunction,Legend,Bot*%
%TF.FilePolarity,Positive*%
%FSLAX46Y46*%
G04 Gerber Fmt 4.6, Leading zero omitted, Abs format (unit mm)*
G04 Created by KiCad (PCBNEW 7.0.8) date 2026-06-09 11:33:23*
%MOMM*%
%LPD*%
G01*
G04 APERTURE LIST*
%ADD10C,0.254000*%
%ADD11C,0.100000*%
G04 APERTURE END LIST*
D10*
X172367381Y-117414318D02*
X172367381Y-116144318D01*
X172367381Y-116144318D02*
X172065000Y-116144318D01*
X172065000Y-116144318D02*
X171883571Y-116204794D01*
X171883571Y-116204794D02*
X171762619Y-116325746D01*
X171762619Y-116325746D02*
X171702142Y-116446699D01*
X171702142Y-116446699D02*
X171641666Y-116688603D01*
X171641666Y-116688603D02*
X171641666Y-116870032D01*
X171641666Y-116870032D02*
X171702142Y-117111937D01*
X171702142Y-117111937D02*
X171762619Y-117232889D01*
X171762619Y-117232889D02*
X171883571Y-117353842D01*
X171883571Y-117353842D02*
X172065000Y-117414318D01*
X172065000Y-117414318D02*
X172367381Y-117414318D01*
X170492619Y-116144318D02*
X171097381Y-116144318D01*
X171097381Y-116144318D02*
X171157857Y-116749080D01*
X171157857Y-116749080D02*
X171097381Y-116688603D01*
X171097381Y-116688603D02*
X170976428Y-116628127D01*
X170976428Y-116628127D02*
X170674047Y-116628127D01*
X170674047Y-116628127D02*
X170553095Y-116688603D01*
X170553095Y-116688603D02*
X170492619Y-116749080D01*
X170492619Y-116749080D02*
X170432142Y-116870032D01*
X170432142Y-116870032D02*
X170432142Y-117172413D01*
X170432142Y-117172413D02*
X170492619Y-117293365D01*
X170492619Y-117293365D02*
X170553095Y-117353842D01*
X170553095Y-117353842D02*
X170674047Y-117414318D01*
X170674047Y-117414318D02*
X170976428Y-117414318D01*
X170976428Y-117414318D02*
X171097381Y-117353842D01*
X171097381Y-117353842D02*
X171157857Y-117293365D01*
X182547381Y-117414318D02*
X182547381Y-116144318D01*
X182547381Y-116144318D02*
X182245000Y-116144318D01*
X182245000Y-116144318D02*
X182063571Y-116204794D01*
X182063571Y-116204794D02*
X181942619Y-116325746D01*
X181942619Y-116325746D02*
X181882142Y-116446699D01*
X181882142Y-116446699D02*
X181821666Y-116688603D01*
X181821666Y-116688603D02*
X181821666Y-116870032D01*
X181821666Y-116870032D02*
X181882142Y-117111937D01*
X181882142Y-117111937D02*
X181942619Y-117232889D01*
X181942619Y-117232889D02*
X182063571Y-117353842D01*
X182063571Y-117353842D02*
X182245000Y-117414318D01*
X182245000Y-117414318D02*
X182547381Y-117414318D01*
X180733095Y-116567651D02*
X180733095Y-117414318D01*
X181035476Y-116083842D02*
X181337857Y-116990984D01*
X181337857Y-116990984D02*
X180551666Y-116990984D01*
X162187381Y-117414318D02*
X162187381Y-116144318D01*
X162187381Y-116144318D02*
X161885000Y-116144318D01*
X161885000Y-116144318D02*
X161703571Y-116204794D01*
X161703571Y-116204794D02*
X161582619Y-116325746D01*
X161582619Y-116325746D02*
X161522142Y-116446699D01*
X161522142Y-116446699D02*
X161461666Y-116688603D01*
X161461666Y-116688603D02*
X161461666Y-116870032D01*
X161461666Y-116870032D02*
X161522142Y-117111937D01*
X161522142Y-117111937D02*
X161582619Y-117232889D01*
X161582619Y-117232889D02*
X161703571Y-117353842D01*
X161703571Y-117353842D02*
X161885000Y-117414318D01*
X161885000Y-117414318D02*
X162187381Y-117414318D01*
X160373095Y-116144318D02*
X160615000Y-116144318D01*
X160615000Y-116144318D02*
X160735952Y-116204794D01*
X160735952Y-116204794D02*
X160796428Y-116265270D01*
X160796428Y-116265270D02*
X160917381Y-116446699D01*
X160917381Y-116446699D02*
X160977857Y-116688603D01*
X160977857Y-116688603D02*
X160977857Y-117172413D01*
X160977857Y-117172413D02*
X160917381Y-117293365D01*
X160917381Y-117293365D02*
X160856904Y-117353842D01*
X160856904Y-117353842D02*
X160735952Y-117414318D01*
X160735952Y-117414318D02*
X160494047Y-117414318D01*
X160494047Y-117414318D02*
X160373095Y-117353842D01*
X160373095Y-117353842D02*
X160312619Y-117293365D01*
X160312619Y-117293365D02*
X160252142Y-117172413D01*
X160252142Y-117172413D02*
X160252142Y-116870032D01*
X160252142Y-116870032D02*
X160312619Y-116749080D01*
X160312619Y-116749080D02*
X160373095Y-116688603D01*
X160373095Y-116688603D02*
X160494047Y-116628127D01*
X160494047Y-116628127D02*
X160735952Y-116628127D01*
X160735952Y-116628127D02*
X160856904Y-116688603D01*
X160856904Y-116688603D02*
X160917381Y-116749080D01*
X160917381Y-116749080D02*
X160977857Y-116870032D01*
D11*
%TO.C,D5*%
X168380000Y-118880000D02*
X168380000Y-126980000D01*
X168380000Y-126980000D02*
X174480000Y-126980000D01*
X174480000Y-118880000D02*
X174480000Y-118880000D01*
X174480000Y-126980000D02*
X174480000Y-118880000D01*
%TO.C,D4*%
X178540000Y-118880000D02*
X178540000Y-126980000D01*
X178540000Y-126980000D02*
X184640000Y-126980000D01*
X184640000Y-118880000D02*
X184640000Y-118880000D01*
X184640000Y-126980000D02*
X184640000Y-118880000D01*
%TO.C,D6*%
X158220000Y-118880000D02*
X158220000Y-126980000D01*
X158220000Y-126980000D02*
X164320000Y-126980000D01*
X164320000Y-118880000D02*
X164320000Y-118880000D01*
X164320000Y-126980000D02*
X164320000Y-118880000D01*
%TD*%
M02*
