%TF.GenerationSoftware,KiCad,Pcbnew,7.0.8*%
%TF.CreationDate,2026-06-09T11:33:23+01:00*%
%TF.ProjectId,PCB_Health.V5,5043425f-4865-4616-9c74-682e56352e6b,rev?*%
%TF.SameCoordinates,Original*%
%TF.FileFunction,Soldermask,Bot*%
%TF.FilePolarity,Negative*%
%FSLAX46Y46*%
G04 Gerber Fmt 4.6, Leading zero omitted, Abs format (unit mm)*
G04 Created by KiCad (PCBNEW 7.0.8) date 2026-06-09 11:33:23*
%MOMM*%
%LPD*%
G01*
G04 APERTURE LIST*
G04 Aperture macros list*
%AMRoundRect*
0 Rectangle with rounded corners*
0 $1 Rounding radius*
0 $2 $3 $4 $5 $6 $7 $8 $9 X,Y pos of 4 corners*
0 Add a 4 corners polygon primitive as box body*
4,1,4,$2,$3,$4,$5,$6,$7,$8,$9,$2,$3,0*
0 Add four circle primitives for the rounded corners*
1,1,$1+$1,$2,$3*
1,1,$1+$1,$4,$5*
1,1,$1+$1,$6,$7*
1,1,$1+$1,$8,$9*
0 Add four rect primitives between the rounded corners*
20,1,$1+$1,$2,$3,$4,$5,0*
20,1,$1+$1,$4,$5,$6,$7,0*
20,1,$1+$1,$6,$7,$8,$9,0*
20,1,$1+$1,$8,$9,$2,$3,0*%
G04 Aperture macros list end*
%ADD10C,2.000000*%
%ADD11C,3.800000*%
%ADD12C,3.000000*%
%ADD13R,1.980000X3.960000*%
%ADD14O,1.980000X3.960000*%
%ADD15R,2.000000X2.000000*%
%ADD16R,2.200000X2.200000*%
%ADD17O,2.200000X2.200000*%
%ADD18RoundRect,0.675000X-0.675000X-0.675000X0.675000X-0.675000X0.675000X0.675000X-0.675000X0.675000X0*%
%ADD19C,2.700000*%
%ADD20R,2.032000X2.032000*%
%ADD21O,2.032000X2.032000*%
%ADD22R,1.600000X1.600000*%
%ADD23C,1.600000*%
%ADD24R,1.700000X1.700000*%
%ADD25O,1.700000X1.700000*%
%ADD26O,2.000000X3.000000*%
%ADD27R,3.000000X2.000000*%
%ADD28O,3.000000X2.000000*%
%ADD29C,3.200000*%
%ADD30R,2.200000X1.900000*%
%ADD31O,2.200000X1.900000*%
%ADD32R,1.500000X1.500000*%
%ADD33C,1.500000*%
%ADD34R,1.445000X1.445000*%
%ADD35C,1.445000*%
G04 APERTURE END LIST*
D10*
%TO.C,R4*%
X208250000Y-72410000D03*
X198090000Y-72410000D03*
%TD*%
%TO.C,R15*%
X208280000Y-120650000D03*
X208280000Y-110490000D03*
%TD*%
D11*
%TO.C,TC1*%
X127190000Y-125870000D03*
D12*
X131190000Y-115570000D03*
X123190000Y-115570000D03*
%TD*%
D13*
%TO.C,J3*%
X96590000Y-125730000D03*
D14*
X101590000Y-125730000D03*
%TD*%
D10*
%TO.C,R13*%
X195580000Y-120650000D03*
X195580000Y-110490000D03*
%TD*%
%TO.C,R3*%
X139700000Y-71120000D03*
X139700000Y-60960000D03*
%TD*%
D15*
%TO.C,U3*%
X208280000Y-82550000D03*
D10*
X208280000Y-85090000D03*
X208280000Y-87630000D03*
X215900000Y-87630000D03*
X215900000Y-85090000D03*
X215900000Y-82550000D03*
%TD*%
D16*
%TO.C,D2*%
X126365000Y-72390000D03*
D17*
X116205000Y-72390000D03*
%TD*%
D18*
%TO.C,F3*%
X86440000Y-100330000D03*
X91440000Y-100330000D03*
D19*
X101940000Y-100330000D03*
X106940000Y-100330000D03*
%TD*%
D18*
%TO.C,F1*%
X86440000Y-80010000D03*
X91440000Y-80010000D03*
D19*
X101940000Y-80010000D03*
X106940000Y-80010000D03*
%TD*%
D20*
%TO.C,D3*%
X132080000Y-92734000D03*
D21*
X139700000Y-92734000D03*
%TD*%
D22*
%TO.C,C2*%
X148590000Y-65960000D03*
D23*
X148590000Y-60960000D03*
%TD*%
D24*
%TO.C,J1*%
X187960000Y-72390000D03*
D25*
X190500000Y-72390000D03*
X193040000Y-72390000D03*
%TD*%
D24*
%TO.C,JP1*%
X149860000Y-55880000D03*
D25*
X152400000Y-55880000D03*
%TD*%
D10*
%TO.C,R6*%
X187930000Y-77490000D03*
X187930000Y-87650000D03*
%TD*%
%TO.C,R12*%
X189230000Y-120650000D03*
X189230000Y-110490000D03*
%TD*%
D26*
%TO.C,K1*%
X119400000Y-78860000D03*
X124440000Y-78860000D03*
X114360000Y-78860000D03*
X119400000Y-86360000D03*
X124440000Y-86360000D03*
X114360000Y-86360000D03*
D27*
X139700000Y-78860000D03*
D28*
X139700000Y-86360000D03*
%TD*%
D10*
%TO.C,R11*%
X222250000Y-104140000D03*
X222250000Y-93980000D03*
%TD*%
D15*
%TO.C,U4*%
X193040000Y-97790000D03*
D10*
X193040000Y-100330000D03*
X193040000Y-102870000D03*
X200660000Y-102870000D03*
X200660000Y-100330000D03*
X200660000Y-97790000D03*
%TD*%
%TO.C,R7*%
X222250000Y-87650000D03*
X222250000Y-77490000D03*
%TD*%
D24*
%TO.C,J5*%
X190500000Y-128270000D03*
D25*
X193040000Y-128270000D03*
X195580000Y-128270000D03*
X198120000Y-128270000D03*
%TD*%
D10*
%TO.C,R14*%
X201930000Y-120650000D03*
X201930000Y-110490000D03*
%TD*%
D13*
%TO.C,J2*%
X85090000Y-125730000D03*
D14*
X90090000Y-125730000D03*
%TD*%
D13*
%TO.C,J4*%
X108020000Y-125730000D03*
D14*
X113020000Y-125730000D03*
%TD*%
D16*
%TO.C,D1*%
X124460000Y-57785000D03*
D17*
X124460000Y-67945000D03*
%TD*%
D24*
%TO.C,J6*%
X205740000Y-128270000D03*
D25*
X208280000Y-128270000D03*
X210820000Y-128270000D03*
X213360000Y-128270000D03*
%TD*%
D10*
%TO.C,R10*%
X187960000Y-92710000D03*
X187960000Y-102870000D03*
%TD*%
%TO.C,R8*%
X127000000Y-92710000D03*
X116840000Y-92710000D03*
%TD*%
D29*
%TO.C,H5*%
X219710000Y-127000000D03*
%TD*%
%TO.C,H3*%
X100300000Y-62230000D03*
%TD*%
D10*
%TO.C,R2*%
X132080000Y-71120000D03*
X132080000Y-60960000D03*
%TD*%
%TO.C,R9*%
X152400000Y-96520000D03*
X152400000Y-86360000D03*
%TD*%
D15*
%TO.C,U5*%
X208280000Y-97790000D03*
D10*
X208280000Y-100330000D03*
X208280000Y-102870000D03*
X215900000Y-102870000D03*
X215900000Y-100330000D03*
X215900000Y-97790000D03*
%TD*%
D18*
%TO.C,F4*%
X86440000Y-110490000D03*
X91440000Y-110490000D03*
D19*
X101940000Y-110490000D03*
X106940000Y-110490000D03*
%TD*%
D10*
%TO.C,R1*%
X208250000Y-67330000D03*
X198090000Y-67330000D03*
%TD*%
D15*
%TO.C,A1*%
X157480000Y-85090000D03*
D10*
X157480000Y-87630000D03*
X157480000Y-90170000D03*
X157480000Y-92710000D03*
X157480000Y-95250000D03*
X157480000Y-97790000D03*
X157480000Y-100330000D03*
X157480000Y-102870000D03*
X157480000Y-105410000D03*
X157480000Y-107950000D03*
X182880000Y-107950000D03*
X182880000Y-105410000D03*
X182880000Y-102870000D03*
X182880000Y-100330000D03*
X182880000Y-97790000D03*
X182880000Y-95250000D03*
X182880000Y-92710000D03*
X182880000Y-90170000D03*
X182880000Y-87630000D03*
X182880000Y-85090000D03*
%TD*%
D18*
%TO.C,F2*%
X86440000Y-90170000D03*
X91440000Y-90170000D03*
D19*
X101940000Y-90170000D03*
X106940000Y-90170000D03*
%TD*%
D30*
%TO.C,U1*%
X118110000Y-64770000D03*
D31*
X118110000Y-62230000D03*
X118110000Y-59690000D03*
%TD*%
D15*
%TO.C,U2*%
X193010000Y-82550000D03*
D10*
X193010000Y-85090000D03*
X193010000Y-87630000D03*
X200630000Y-87630000D03*
X200630000Y-85090000D03*
X200630000Y-82550000D03*
%TD*%
%TO.C,R16*%
X214630000Y-120650000D03*
X214630000Y-110490000D03*
%TD*%
D11*
%TO.C,TC2*%
X146240000Y-125870000D03*
D12*
X150240000Y-115570000D03*
X142240000Y-115570000D03*
%TD*%
D29*
%TO.C,H4*%
X119380000Y-104140000D03*
%TD*%
D10*
%TO.C,C1*%
X136525000Y-55245000D03*
X141525000Y-55245000D03*
%TD*%
D29*
%TO.C,H2*%
X219710000Y-58420000D03*
%TD*%
D32*
%TO.C,Q1*%
X147320000Y-86360000D03*
D33*
X147320000Y-83820000D03*
X147320000Y-81280000D03*
%TD*%
D10*
%TO.C,R5*%
X152527000Y-81280000D03*
X152527000Y-71120000D03*
%TD*%
D29*
%TO.C,H1*%
X87630000Y-55880000D03*
%TD*%
D34*
%TO.C,D5*%
X170180000Y-119380000D03*
D35*
X172680000Y-119380000D03*
%TD*%
D34*
%TO.C,D4*%
X180340000Y-119380000D03*
D35*
X182840000Y-119380000D03*
%TD*%
D34*
%TO.C,D6*%
X160020000Y-119380000D03*
D35*
X162520000Y-119380000D03*
%TD*%
M02*
