M48
; DRILL file {KiCad 7.0.8} date Tue Jun  9 11:33:18 2026
; FORMAT={-:-/ absolute / metric / decimal}
; #@! TF.CreationDate,2026-06-09T11:33:18+01:00
; #@! TF.GenerationSoftware,Kicad,Pcbnew,7.0.8
; #@! TF.FileFunction,Plated,1,4,PTH
FMAT,2
METRIC
; #@! TA.AperFunction,Plated,PTH,ViaDrill
T1C0.400
; #@! TA.AperFunction,Plated,PTH,ComponentDrill
T2C0.800
; #@! TA.AperFunction,Plated,PTH,ComponentDrill
T3C0.889
; #@! TA.AperFunction,Plated,PTH,ComponentDrill
T4C1.000
; #@! TA.AperFunction,Plated,PTH,ComponentDrill
T5C1.016
; #@! TA.AperFunction,Plated,PTH,ComponentDrill
T6C1.100
; #@! TA.AperFunction,Plated,PTH,ComponentDrill
T7C1.300
; #@! TA.AperFunction,Plated,PTH,ComponentDrill
T8C1.320
; #@! TA.AperFunction,Plated,PTH,ComponentDrill
T9C1.500
; #@! TA.AperFunction,Plated,PTH,ComponentDrill
T10C1.700
; #@! TA.AperFunction,Plated,PTH,ComponentDrill
T11C3.700
%
G90
G05
T1
X133.35Y-102.87
X153.945Y-106.57
T2
X147.32Y-81.28
X147.32Y-83.82
X147.32Y-86.36
X148.59Y-60.96
X148.59Y-65.96
T3
X160.02Y-119.38
X162.52Y-119.38
X170.18Y-119.38
X172.68Y-119.38
X180.34Y-119.38
X182.84Y-119.38
T4
X116.84Y-92.71
X127.0Y-92.71
X132.08Y-60.96
X132.08Y-71.12
X136.525Y-55.245
X139.7Y-60.96
X139.7Y-71.12
X139.7Y-92.734
X141.525Y-55.245
X149.86Y-55.88
X152.4Y-55.88
X152.4Y-86.36
X152.4Y-96.52
X152.527Y-71.12
X152.527Y-81.28
X157.48Y-85.09
X157.48Y-87.63
X157.48Y-90.17
X157.48Y-92.71
X157.48Y-95.25
X157.48Y-97.79
X157.48Y-100.33
X157.48Y-102.87
X157.48Y-105.41
X157.48Y-107.95
X182.88Y-85.09
X182.88Y-87.63
X182.88Y-90.17
X182.88Y-92.71
X182.88Y-95.25
X182.88Y-97.79
X182.88Y-100.33
X182.88Y-102.87
X182.88Y-105.41
X182.88Y-107.95
X187.93Y-77.49
X187.93Y-87.65
X187.96Y-72.39
X187.96Y-92.71
X187.96Y-102.87
X189.23Y-110.49
X189.23Y-120.65
X190.5Y-72.39
X190.5Y-128.27
X193.01Y-82.55
X193.01Y-85.09
X193.01Y-87.63
X193.04Y-72.39
X193.04Y-97.79
X193.04Y-100.33
X193.04Y-102.87
X193.04Y-128.27
X195.58Y-110.49
X195.58Y-120.65
X195.58Y-128.27
X198.09Y-67.33
X198.09Y-72.41
X198.12Y-128.27
X200.63Y-82.55
X200.63Y-85.09
X200.63Y-87.63
X200.66Y-97.79
X200.66Y-100.33
X200.66Y-102.87
X201.93Y-110.49
X201.93Y-120.65
X205.74Y-128.27
X208.25Y-67.33
X208.25Y-72.41
X208.28Y-82.55
X208.28Y-85.09
X208.28Y-87.63
X208.28Y-97.79
X208.28Y-100.33
X208.28Y-102.87
X208.28Y-110.49
X208.28Y-120.65
X208.28Y-128.27
X210.82Y-128.27
X213.36Y-128.27
X214.63Y-110.49
X214.63Y-120.65
X215.9Y-82.55
X215.9Y-85.09
X215.9Y-87.63
X215.9Y-97.79
X215.9Y-100.33
X215.9Y-102.87
X222.25Y-77.49
X222.25Y-87.65
X222.25Y-93.98
X222.25Y-104.14
T5
X132.08Y-92.734
T6
X116.205Y-72.39
X118.11Y-59.69
X118.11Y-62.23
X118.11Y-64.77
X124.46Y-57.785
X124.46Y-67.945
X126.365Y-72.39
T7
X114.36Y-78.86
X114.36Y-86.36
X119.4Y-78.86
X119.4Y-86.36
X124.44Y-78.86
X124.44Y-86.36
X139.7Y-78.86
X139.7Y-86.36
T8
X85.09Y-125.73
X90.09Y-125.73
X96.59Y-125.73
X101.59Y-125.73
X108.02Y-125.73
X113.02Y-125.73
T9
X123.19Y-115.57
X131.19Y-115.57
X142.24Y-115.57
X150.24Y-115.57
T10
X86.44Y-80.01
X86.44Y-90.17
X86.44Y-100.33
X86.44Y-110.49
X91.44Y-80.01
X91.44Y-90.17
X91.44Y-100.33
X91.44Y-110.49
X101.94Y-80.01
X101.94Y-90.17
X101.94Y-100.33
X101.94Y-110.49
X106.94Y-80.01
X106.94Y-90.17
X106.94Y-100.33
X106.94Y-110.49
T11
X127.19Y-125.87
X146.24Y-125.87
T0
M30
