  0
SECTION
  2
HEADER
  9
$ACADVER
  1
AC1009
  9
$INSBASE
 10
0.000000
 20
0.000000
  9
$LIMMIN
 10
-12406.228000
 20
-11343.535000
  9
$LIMMAX
 10
16779.598000
 20
15154.732000
  9
$EXTMIN
 10
-12406.228000
 20
-11343.535000
  9
$EXTMAX
 10
16779.598000
 20
15154.732000
  9
$ATTMODE
 70
0
  9
$LUNITS
 70
2
  9
$LUPREC
 70
2
  9
$THICKNESS
 40
62.417323
  0
ENDSEC
  0
SECTION
  2
TABLES
  0
TABLE
  2
LTYPE
 70
1
  0
LTYPE
  3
Solid Line
  2
CONTINUOUS
 70
0
 72
65
 73
0
 40
0.000000
  0
ENDTAB
  0
TABLE
  2
LAYER
 70
3
  0
LAYER
  2
BG_OUTLINE
 70
0
 62
7
  6
CONTINUOUS
  0
LAYER
  2
PG_SILKSCREEN_BOTTOM
 70
0
 62
1
  6
CONTINUOUS
  0
LAYER
  2
PIN_BOTTOM
 70
0
 62
253
  6
CONTINUOUS
  0
ENDTAB
  0
TABLE
  2
STYLE
 70
1
  0
STYLE
  2
STANDARD
 70
0
 40
0.000000
 41
1.000000
 50
0.000000
 71
0
 42
0.200000
  3
txt
  0
ENDTAB
  0
ENDSEC
  0
SECTION
  2
BLOCKS
  0
BLOCK
  8
0
  2
FIGURE_CIRCLE
 70
0
 10
0.000000
 20
0.000000
  0
CIRCLE
  8
0
 10
0.000000
 20
0.000000
 40
0.500000
  0
ENDBLK
  0
BLOCK
  8
0
  2
FIGURE_SQUARE
 70
0
 10
0.000000
 20
0.000000
  0
POLYLINE
  8
0
 66
1
 70
1
 40
0.000000
 41
0.000000
 39
0.000000
  0
VERTEX
  8
0
 10
-0.500000
 20
-0.500000
 40
0.000000
 41
0.000000
 42
0.000000
  0
VERTEX
  8
0
 10
-0.500000
 20
0.500000
 40
0.000000
 41
0.000000
 42
0.000000
  0
VERTEX
  8
0
 10
0.500000
 20
0.500000
 40
0.000000
 41
0.000000
 42
0.000000
  0
VERTEX
  8
0
 10
0.500000
 20
-0.500000
 40
0.000000
 41
0.000000
 42
0.000000
  0
SEQEND
  0
ENDBLK
  0
BLOCK
  8
0
  2
FIGURE_HEX
 70
0
 10
0.000000
 20
0.000000
  0
POLYLINE
  8
0
 66
1
 70
1
 40
0.000000
 41
0.000000
 39
0.000000
  0
VERTEX
  8
0
 10
-0.500000
 20
0.000000
 40
0.000000
 41
0.000000
 42
0.000000
  0
VERTEX
  8
0
 10
-0.250000
 20
0.500000
 40
0.000000
 41
0.000000
 42
0.000000
  0
VERTEX
  8
0
 10
0.250000
 20
0.500000
 40
0.000000
 41
0.000000
 42
0.000000
  0
VERTEX
  8
0
 10
0.500000
 20
0.000000
 40
0.000000
 41
0.000000
 42
0.000000
  0
VERTEX
  8
0
 10
0.250000
 20
-0.500000
 40
0.000000
 41
0.000000
 42
0.000000
  0
VERTEX
  8
0
 10
-0.250000
 20
-0.500000
 40
0.000000
 41
0.000000
 42
0.000000
  0
SEQEND
  0
ENDBLK
  0
BLOCK
  8
0
  2
FIGURE_OCT
 70
0
 10
0.000000
 20
0.000000
  0
POLYLINE
  8
0
 66
1
 70
1
 40
0.000000
 41
0.000000
 39
0.000000
  0
VERTEX
  8
0
 10
-0.500000
 20
-0.207100
 40
0.000000
 41
0.000000
 42
0.000000
  0
VERTEX
  8
0
 10
-0.500000
 20
0.207100
 40
0.000000
 41
0.000000
 42
0.000000
  0
VERTEX
  8
0
 10
-0.207100
 20
0.500000
 40
0.000000
 41
0.000000
 42
0.000000
  0
VERTEX
  8
0
 10
0.207100
 20
0.500000
 40
0.000000
 41
0.000000
 42
0.000000
  0
VERTEX
  8
0
 10
0.500000
 20
0.207100
 40
0.000000
 41
0.000000
 42
0.000000
  0
VERTEX
  8
0
 10
0.500000
 20
-0.207100
 40
0.000000
 41
0.000000
 42
0.000000
  0
VERTEX
  8
0
 10
0.207100
 20
-0.500000
 40
0.000000
 41
0.000000
 42
0.000000
  0
VERTEX
  8
0
 10
-0.207100
 20
-0.500000
 40
0.000000
 41
0.000000
 42
0.000000
  0
SEQEND
  0
ENDBLK
  0
BLOCK
  8
0
  2
FIGURE_OBLONG
 70
0
 10
0.000000
 20
0.000000
  0
POLYLINE
  8
0
 66
1
 70
1
 40
0.000000
 41
0.000000
 39
0.000000
  0
VERTEX
  8
0
 10
-0.500000
 20
-0.125000
 40
0.000000
 41
0.000000
 42
0.000000
  0
VERTEX
  8
0
 10
-0.500000
 20
0.125000
 40
0.000000
 41
0.000000
 42
0.000000
  0
VERTEX
  8
0
 10
-0.416000
 20
0.375000
 40
0.000000
 41
0.000000
 42
0.000000
  0
VERTEX
  8
0
 10
-0.250000
 20
0.500000
 40
0.000000
 41
0.000000
 42
0.000000
  0
VERTEX
  8
0
 10
0.250000
 20
0.500000
 40
0.000000
 41
0.000000
 42
0.000000
  0
VERTEX
  8
0
 10
0.416000
 20
0.375000
 40
0.000000
 41
0.000000
 42
0.000000
  0
VERTEX
  8
0
 10
0.500000
 20
0.125000
 40
0.000000
 41
0.000000
 42
0.000000
  0
VERTEX
  8
0
 10
0.500000
 20
-0.125000
 40
0.000000
 41
0.000000
 42
0.000000
  0
VERTEX
  8
0
 10
0.416000
 20
-0.375000
 40
0.000000
 41
0.000000
 42
0.000000
  0
VERTEX
  8
0
 10
0.250000
 20
-0.500000
 40
0.000000
 41
0.000000
 42
0.000000
  0
VERTEX
  8
0
 10
-0.250000
 20
-0.500000
 40
0.000000
 41
0.000000
 42
0.000000
  0
VERTEX
  8
0
 10
-0.416000
 20
-0.375000
 40
0.000000
 41
0.000000
 42
0.000000
  0
SEQEND
  0
ENDBLK
  0
BLOCK
  8
0
  2
FIGURE_TRI
 70
0
 10
0.000000
 20
0.000000
  0
POLYLINE
  8
0
 66
1
 70
1
 40
0.000000
 41
0.000000
 39
0.000000
  0
VERTEX
  8
0
 10
-0.500000
 20
-0.500000
 40
0.000000
 41
0.000000
 42
0.000000
  0
VERTEX
  8
0
 10
0.000000
 20
0.500000
 40
0.000000
 41
0.000000
 42
0.000000
  0
VERTEX
  8
0
 10
0.500000
 20
-0.500000
 40
0.000000
 41
0.000000
 42
0.000000
  0
SEQEND
  0
ENDBLK
  0
BLOCK
  8
0
  2
FIGURE_CROSS
 70
0
 10
0.000000
 20
0.000000
  0
POLYLINE
  8
0
 66
1
 70
0
 40
0.000000
 41
0.000000
 39
0.000000
  0
VERTEX
  8
0
 10
-0.500000
 20
0.000000
 40
0.000000
 41
0.000000
 42
0.000000
  0
VERTEX
  8
0
 10
0.500000
 20
0.000000
 40
0.000000
 41
0.000000
 42
0.000000
  0
SEQEND
  0
POLYLINE
  8
0
 66
1
 70
0
 40
0.000000
 41
0.000000
 39
0.000000
  0
VERTEX
  8
0
 10
0.000000
 20
0.500000
 40
0.000000
 41
0.000000
 42
0.000000
  0
VERTEX
  8
0
 10
0.000000
 20
-0.500000
 40
0.000000
 41
0.000000
 42
0.000000
  0
SEQEND
  0
ENDBLK
  0
BLOCK
  8
0
  2
FIGURE_DIAMOND
 70
0
 10
0.000000
 20
0.000000
  0
POLYLINE
  8
0
 66
1
 70
1
 40
0.000000
 41
0.000000
 39
0.000000
  0
VERTEX
  8
0
 10
-0.500000
 20
0.000000
 40
0.000000
 41
0.000000
 42
0.000000
  0
VERTEX
  8
0
 10
0.000000
 20
0.500000
 40
0.000000
 41
0.000000
 42
0.000000
  0
VERTEX
  8
0
 10
0.500000
 20
0.000000
 40
0.000000
 41
0.000000
 42
0.000000
  0
VERTEX
  8
0
 10
0.000000
 20
-0.500000
 40
0.000000
 41
0.000000
 42
0.000000
  0
SEQEND
  0
ENDBLK
  0
ENDSEC
  0
SECTION
  2
ENTITIES
  0
CIRCLE
  8
PIN_BOTTOM
 10
303.150000
 20
2216.535000
 40
12.598500
  0
CIRCLE
  8
PIN_BOTTOM
 10
303.150000
 20
2166.535000
 40
12.598500
  0
CIRCLE
  8
PIN_BOTTOM
 10
303.150000
 20
2116.535000
 40
12.598500
  0
CIRCLE
  8
PIN_BOTTOM
 10
303.150000
 20
2066.535000
 40
12.598500
  0
CIRCLE
  8
PIN_BOTTOM
 10
303.150000
 20
2016.535000
 40
12.598500
  0
CIRCLE
  8
PIN_BOTTOM
 10
303.150000
 20
1966.535000
 40
12.598500
  0
CIRCLE
  8
PIN_BOTTOM
 10
303.150000
 20
1916.535000
 40
12.598500
  0
CIRCLE
  8
PIN_BOTTOM
 10
303.150000
 20
1866.535000
 40
12.598500
  0
CIRCLE
  8
PIN_BOTTOM
 10
303.150000
 20
1816.535000
 40
12.598500
  0
CIRCLE
  8
PIN_BOTTOM
 10
303.150000
 20
1766.535000
 40
12.598500
  0
CIRCLE
  8
PIN_BOTTOM
 10
303.150000
 20
1716.535000
 40
12.598500
  0
CIRCLE
  8
PIN_BOTTOM
 10
303.150000
 20
1666.535000
 40
12.598500
  0
CIRCLE
  8
PIN_BOTTOM
 10
303.150000
 20
1616.535000
 40
12.598500
  0
CIRCLE
  8
PIN_BOTTOM
 10
303.150000
 20
1566.535000
 40
12.598500
  0
CIRCLE
  8
PIN_BOTTOM
 10
303.150000
 20
1516.535000
 40
12.598500
  0
CIRCLE
  8
PIN_BOTTOM
 10
303.150000
 20
1466.535000
 40
12.598500
  0
CIRCLE
  8
PIN_BOTTOM
 10
303.150000
 20
1416.535000
 40
12.598500
  0
CIRCLE
  8
PIN_BOTTOM
 10
303.150000
 20
1366.535000
 40
12.598500
  0
CIRCLE
  8
PIN_BOTTOM
 10
303.150000
 20
1316.535000
 40
12.598500
  0
CIRCLE
  8
PIN_BOTTOM
 10
303.150000
 20
1266.535000
 40
12.598500
  0
CIRCLE
  8
PIN_BOTTOM
 10
303.150000
 20
1216.535000
 40
12.598500
  0
CIRCLE
  8
PIN_BOTTOM
 10
303.150000
 20
1166.535000
 40
12.598500
  0
CIRCLE
  8
PIN_BOTTOM
 10
303.150000
 20
1116.535000
 40
12.598500
  0
CIRCLE
  8
PIN_BOTTOM
 10
303.150000
 20
1066.535000
 40
12.598500
  0
CIRCLE
  8
PIN_BOTTOM
 10
303.150000
 20
1016.535000
 40
12.598500
  0
CIRCLE
  8
PIN_BOTTOM
 10
303.150000
 20
966.535000
 40
12.598500
  0
CIRCLE
  8
PIN_BOTTOM
 10
303.150000
 20
916.535000
 40
12.598500
  0
CIRCLE
  8
PIN_BOTTOM
 10
303.150000
 20
866.535000
 40
12.598500
  0
CIRCLE
  8
PIN_BOTTOM
 10
303.150000
 20
816.535000
 40
12.598500
  0
CIRCLE
  8
PIN_BOTTOM
 10
303.150000
 20
766.535000
 40
12.598500
  0
CIRCLE
  8
PIN_BOTTOM
 10
303.150000
 20
716.535000
 40
12.598500
  0
CIRCLE
  8
PIN_BOTTOM
 10
303.150000
 20
666.535000
 40
12.598500
  0
CIRCLE
  8
PIN_BOTTOM
 10
303.150000
 20
616.535000
 40
12.598500
  0
CIRCLE
  8
PIN_BOTTOM
 10
303.150000
 20
566.535000
 40
12.598500
  0
CIRCLE
  8
PIN_BOTTOM
 10
303.150000
 20
516.535000
 40
12.598500
  0
CIRCLE
  8
PIN_BOTTOM
 10
303.150000
 20
466.535000
 40
12.598500
  0
CIRCLE
  8
PIN_BOTTOM
 10
303.150000
 20
416.535000
 40
12.598500
  0
CIRCLE
  8
PIN_BOTTOM
 10
303.150000
 20
366.535000
 40
12.598500
  0
CIRCLE
  8
PIN_BOTTOM
 10
303.150000
 20
316.535000
 40
12.598500
  0
CIRCLE
  8
PIN_BOTTOM
 10
303.150000
 20
266.535000
 40
12.598500
  0
CIRCLE
  8
PIN_BOTTOM
 10
253.150000
 20
2216.535000
 40
12.598500
  0
CIRCLE
  8
PIN_BOTTOM
 10
253.150000
 20
2166.535000
 40
12.598500
  0
CIRCLE
  8
PIN_BOTTOM
 10
253.150000
 20
2116.535000
 40
12.598500
  0
CIRCLE
  8
PIN_BOTTOM
 10
253.150000
 20
2066.535000
 40
12.598500
  0
CIRCLE
  8
PIN_BOTTOM
 10
253.150000
 20
2016.535000
 40
12.598500
  0
CIRCLE
  8
PIN_BOTTOM
 10
253.150000
 20
1966.535000
 40
12.598500
  0
CIRCLE
  8
PIN_BOTTOM
 10
253.150000
 20
1916.535000
 40
12.598500
  0
CIRCLE
  8
PIN_BOTTOM
 10
253.150000
 20
1866.535000
 40
12.598500
  0
CIRCLE
  8
PIN_BOTTOM
 10
253.150000
 20
1816.535000
 40
12.598500
  0
CIRCLE
  8
PIN_BOTTOM
 10
253.150000
 20
1766.535000
 40
12.598500
  0
CIRCLE
  8
PIN_BOTTOM
 10
253.150000
 20
1716.535000
 40
12.598500
  0
CIRCLE
  8
PIN_BOTTOM
 10
253.150000
 20
1666.535000
 40
12.598500
  0
CIRCLE
  8
PIN_BOTTOM
 10
253.150000
 20
1616.535000
 40
12.598500
  0
CIRCLE
  8
PIN_BOTTOM
 10
253.150000
 20
1566.535000
 40
12.598500
  0
CIRCLE
  8
PIN_BOTTOM
 10
253.150000
 20
1516.535000
 40
12.598500
  0
CIRCLE
  8
PIN_BOTTOM
 10
253.150000
 20
1466.535000
 40
12.598500
  0
CIRCLE
  8
PIN_BOTTOM
 10
253.150000
 20
1416.535000
 40
12.598500
  0
CIRCLE
  8
PIN_BOTTOM
 10
253.150000
 20
1366.535000
 40
12.598500
  0
CIRCLE
  8
PIN_BOTTOM
 10
253.150000
 20
1316.535000
 40
12.598500
  0
CIRCLE
  8
PIN_BOTTOM
 10
253.150000
 20
1266.535000
 40
12.598500
  0
CIRCLE
  8
PIN_BOTTOM
 10
253.150000
 20
1216.535000
 40
12.598500
  0
CIRCLE
  8
PIN_BOTTOM
 10
253.150000
 20
1166.535000
 40
12.598500
  0
CIRCLE
  8
PIN_BOTTOM
 10
253.150000
 20
1116.535000
 40
12.598500
  0
CIRCLE
  8
PIN_BOTTOM
 10
253.150000
 20
1066.535000
 40
12.598500
  0
CIRCLE
  8
PIN_BOTTOM
 10
253.150000
 20
1016.535000
 40
12.598500
  0
CIRCLE
  8
PIN_BOTTOM
 10
253.150000
 20
966.535000
 40
12.598500
  0
CIRCLE
  8
PIN_BOTTOM
 10
253.150000
 20
916.535000
 40
12.598500
  0
CIRCLE
  8
PIN_BOTTOM
 10
253.150000
 20
866.535000
 40
12.598500
  0
CIRCLE
  8
PIN_BOTTOM
 10
253.150000
 20
816.535000
 40
12.598500
  0
CIRCLE
  8
PIN_BOTTOM
 10
253.150000
 20
766.535000
 40
12.598500
  0
CIRCLE
  8
PIN_BOTTOM
 10
253.150000
 20
716.535000
 40
12.598500
  0
CIRCLE
  8
PIN_BOTTOM
 10
253.150000
 20
666.535000
 40
12.598500
  0
CIRCLE
  8
PIN_BOTTOM
 10
253.150000
 20
616.535000
 40
12.598500
  0
CIRCLE
  8
PIN_BOTTOM
 10
253.150000
 20
566.535000
 40
12.598500
  0
CIRCLE
  8
PIN_BOTTOM
 10
253.150000
 20
516.535000
 40
12.598500
  0
CIRCLE
  8
PIN_BOTTOM
 10
253.150000
 20
466.535000
 40
12.598500
  0
CIRCLE
  8
PIN_BOTTOM
 10
253.150000
 20
416.535000
 40
12.598500
  0
CIRCLE
  8
PIN_BOTTOM
 10
253.150000
 20
366.535000
 40
12.598500
  0
CIRCLE
  8
PIN_BOTTOM
 10
253.150000
 20
316.535000
 40
12.598500
  0
CIRCLE
  8
PIN_BOTTOM
 10
253.150000
 20
266.535000
 40
12.598500
  0
CIRCLE
  8
PIN_BOTTOM
 10
203.150000
 20
2216.535000
 40
12.598500
  0
CIRCLE
  8
PIN_BOTTOM
 10
203.150000
 20
2166.535000
 40
12.598500
  0
CIRCLE
  8
PIN_BOTTOM
 10
203.150000
 20
2116.535000
 40
12.598500
  0
CIRCLE
  8
PIN_BOTTOM
 10
203.150000
 20
2066.535000
 40
12.598500
  0
CIRCLE
  8
PIN_BOTTOM
 10
203.150000
 20
2016.535000
 40
12.598500
  0
CIRCLE
  8
PIN_BOTTOM
 10
203.150000
 20
1966.535000
 40
12.598500
  0
CIRCLE
  8
PIN_BOTTOM
 10
203.150000
 20
1916.535000
 40
12.598500
  0
CIRCLE
  8
PIN_BOTTOM
 10
203.150000
 20
1866.535000
 40
12.598500
  0
CIRCLE
  8
PIN_BOTTOM
 10
203.150000
 20
1816.535000
 40
12.598500
  0
CIRCLE
  8
PIN_BOTTOM
 10
203.150000
 20
1766.535000
 40
12.598500
  0
CIRCLE
  8
PIN_BOTTOM
 10
203.150000
 20
1716.535000
 40
12.598500
  0
CIRCLE
  8
PIN_BOTTOM
 10
203.150000
 20
1666.535000
 40
12.598500
  0
CIRCLE
  8
PIN_BOTTOM
 10
203.150000
 20
1616.535000
 40
12.598500
  0
CIRCLE
  8
PIN_BOTTOM
 10
203.150000
 20
1566.535000
 40
12.598500
  0
CIRCLE
  8
PIN_BOTTOM
 10
203.150000
 20
1516.535000
 40
12.598500
  0
CIRCLE
  8
PIN_BOTTOM
 10
203.150000
 20
1466.535000
 40
12.598500
  0
CIRCLE
  8
PIN_BOTTOM
 10
203.150000
 20
1416.535000
 40
12.598500
  0
CIRCLE
  8
PIN_BOTTOM
 10
203.150000
 20
1366.535000
 40
12.598500
  0
CIRCLE
  8
PIN_BOTTOM
 10
203.150000
 20
1316.535000
 40
12.598500
  0
CIRCLE
  8
PIN_BOTTOM
 10
203.150000
 20
1266.535000
 40
12.598500
  0
CIRCLE
  8
PIN_BOTTOM
 10
203.150000
 20
1216.535000
 40
12.598500
  0
CIRCLE
  8
PIN_BOTTOM
 10
203.150000
 20
1166.535000
 40
12.598500
  0
CIRCLE
  8
PIN_BOTTOM
 10
203.150000
 20
1116.535000
 40
12.598500
  0
CIRCLE
  8
PIN_BOTTOM
 10
203.150000
 20
1066.535000
 40
12.598500
  0
CIRCLE
  8
PIN_BOTTOM
 10
203.150000
 20
1016.535000
 40
12.598500
  0
CIRCLE
  8
PIN_BOTTOM
 10
203.150000
 20
966.535000
 40
12.598500
  0
CIRCLE
  8
PIN_BOTTOM
 10
203.150000
 20
916.535000
 40
12.598500
  0
CIRCLE
  8
PIN_BOTTOM
 10
203.150000
 20
866.535000
 40
12.598500
  0
CIRCLE
  8
PIN_BOTTOM
 10
203.150000
 20
816.535000
 40
12.598500
  0
CIRCLE
  8
PIN_BOTTOM
 10
203.150000
 20
766.535000
 40
12.598500
  0
CIRCLE
  8
PIN_BOTTOM
 10
203.150000
 20
716.535000
 40
12.598500
  0
CIRCLE
  8
PIN_BOTTOM
 10
203.150000
 20
666.535000
 40
12.598500
  0
CIRCLE
  8
PIN_BOTTOM
 10
203.150000
 20
616.535000
 40
12.598500
  0
CIRCLE
  8
PIN_BOTTOM
 10
203.150000
 20
566.535000
 40
12.598500
  0
CIRCLE
  8
PIN_BOTTOM
 10
203.150000
 20
516.535000
 40
12.598500
  0
CIRCLE
  8
PIN_BOTTOM
 10
203.150000
 20
466.535000
 40
12.598500
  0
CIRCLE
  8
PIN_BOTTOM
 10
203.150000
 20
416.535000
 40
12.598500
  0
CIRCLE
  8
PIN_BOTTOM
 10
203.150000
 20
366.535000
 40
12.598500
  0
CIRCLE
  8
PIN_BOTTOM
 10
203.150000
 20
316.535000
 40
12.598500
  0
CIRCLE
  8
PIN_BOTTOM
 10
203.150000
 20
266.535000
 40
12.598500
  0
CIRCLE
  8
PIN_BOTTOM
 10
153.150000
 20
2216.535000
 40
12.598500
  0
CIRCLE
  8
PIN_BOTTOM
 10
153.150000
 20
2166.535000
 40
12.598500
  0
CIRCLE
  8
PIN_BOTTOM
 10
153.150000
 20
2116.535000
 40
12.598500
  0
CIRCLE
  8
PIN_BOTTOM
 10
153.150000
 20
2066.535000
 40
12.598500
  0
CIRCLE
  8
PIN_BOTTOM
 10
153.150000
 20
2016.535000
 40
12.598500
  0
CIRCLE
  8
PIN_BOTTOM
 10
153.150000
 20
1966.535000
 40
12.598500
  0
CIRCLE
  8
PIN_BOTTOM
 10
153.150000
 20
1916.535000
 40
12.598500
  0
CIRCLE
  8
PIN_BOTTOM
 10
153.150000
 20
1866.535000
 40
12.598500
  0
CIRCLE
  8
PIN_BOTTOM
 10
153.150000
 20
1816.535000
 40
12.598500
  0
CIRCLE
  8
PIN_BOTTOM
 10
153.150000
 20
1766.535000
 40
12.598500
  0
CIRCLE
  8
PIN_BOTTOM
 10
153.150000
 20
1716.535000
 40
12.598500
  0
CIRCLE
  8
PIN_BOTTOM
 10
153.150000
 20
1666.535000
 40
12.598500
  0
CIRCLE
  8
PIN_BOTTOM
 10
153.150000
 20
1616.535000
 40
12.598500
  0
CIRCLE
  8
PIN_BOTTOM
 10
153.150000
 20
1566.535000
 40
12.598500
  0
CIRCLE
  8
PIN_BOTTOM
 10
153.150000
 20
1516.535000
 40
12.598500
  0
CIRCLE
  8
PIN_BOTTOM
 10
153.150000
 20
1466.535000
 40
12.598500
  0
CIRCLE
  8
PIN_BOTTOM
 10
153.150000
 20
1416.535000
 40
12.598500
  0
CIRCLE
  8
PIN_BOTTOM
 10
153.150000
 20
1366.535000
 40
12.598500
  0
CIRCLE
  8
PIN_BOTTOM
 10
153.150000
 20
1316.535000
 40
12.598500
  0
CIRCLE
  8
PIN_BOTTOM
 10
153.150000
 20
1266.535000
 40
12.598500
  0
CIRCLE
  8
PIN_BOTTOM
 10
153.150000
 20
1216.535000
 40
12.598500
  0
CIRCLE
  8
PIN_BOTTOM
 10
153.150000
 20
1166.535000
 40
12.598500
  0
CIRCLE
  8
PIN_BOTTOM
 10
153.150000
 20
1116.535000
 40
12.598500
  0
CIRCLE
  8
PIN_BOTTOM
 10
153.150000
 20
1066.535000
 40
12.598500
  0
CIRCLE
  8
PIN_BOTTOM
 10
153.150000
 20
1016.535000
 40
12.598500
  0
CIRCLE
  8
PIN_BOTTOM
 10
153.150000
 20
966.535000
 40
12.598500
  0
CIRCLE
  8
PIN_BOTTOM
 10
153.150000
 20
916.535000
 40
12.598500
  0
CIRCLE
  8
PIN_BOTTOM
 10
153.150000
 20
866.535000
 40
12.598500
  0
CIRCLE
  8
PIN_BOTTOM
 10
153.150000
 20
816.535000
 40
12.598500
  0
CIRCLE
  8
PIN_BOTTOM
 10
153.150000
 20
766.535000
 40
12.598500
  0
CIRCLE
  8
PIN_BOTTOM
 10
153.150000
 20
716.535000
 40
12.598500
  0
CIRCLE
  8
PIN_BOTTOM
 10
153.150000
 20
666.535000
 40
12.598500
  0
CIRCLE
  8
PIN_BOTTOM
 10
153.150000
 20
616.535000
 40
12.598500
  0
CIRCLE
  8
PIN_BOTTOM
 10
153.150000
 20
566.535000
 40
12.598500
  0
CIRCLE
  8
PIN_BOTTOM
 10
153.150000
 20
516.535000
 40
12.598500
  0
CIRCLE
  8
PIN_BOTTOM
 10
153.150000
 20
466.535000
 40
12.598500
  0
CIRCLE
  8
PIN_BOTTOM
 10
153.150000
 20
416.535000
 40
12.598500
  0
CIRCLE
  8
PIN_BOTTOM
 10
153.150000
 20
366.535000
 40
12.598500
  0
CIRCLE
  8
PIN_BOTTOM
 10
153.150000
 20
316.535000
 40
12.598500
  0
CIRCLE
  8
PIN_BOTTOM
 10
153.150000
 20
266.535000
 40
12.598500
  0
CIRCLE
  8
PIN_BOTTOM
 10
103.150000
 20
2216.535000
 40
12.598500
  0
CIRCLE
  8
PIN_BOTTOM
 10
103.150000
 20
2166.535000
 40
12.598500
  0
CIRCLE
  8
PIN_BOTTOM
 10
103.150000
 20
2116.535000
 40
12.598500
  0
CIRCLE
  8
PIN_BOTTOM
 10
103.150000
 20
2066.535000
 40
12.598500
  0
CIRCLE
  8
PIN_BOTTOM
 10
103.150000
 20
2016.535000
 40
12.598500
  0
CIRCLE
  8
PIN_BOTTOM
 10
103.150000
 20
1966.535000
 40
12.598500
  0
CIRCLE
  8
PIN_BOTTOM
 10
103.150000
 20
1916.535000
 40
12.598500
  0
CIRCLE
  8
PIN_BOTTOM
 10
103.150000
 20
1866.535000
 40
12.598500
  0
CIRCLE
  8
PIN_BOTTOM
 10
103.150000
 20
1816.535000
 40
12.598500
  0
CIRCLE
  8
PIN_BOTTOM
 10
103.150000
 20
1766.535000
 40
12.598500
  0
CIRCLE
  8
PIN_BOTTOM
 10
103.150000
 20
1716.535000
 40
12.598500
  0
CIRCLE
  8
PIN_BOTTOM
 10
103.150000
 20
1666.535000
 40
12.598500
  0
CIRCLE
  8
PIN_BOTTOM
 10
103.150000
 20
1616.535000
 40
12.598500
  0
CIRCLE
  8
PIN_BOTTOM
 10
103.150000
 20
1566.535000
 40
12.598500
  0
CIRCLE
  8
PIN_BOTTOM
 10
103.150000
 20
1516.535000
 40
12.598500
  0
CIRCLE
  8
PIN_BOTTOM
 10
103.150000
 20
1466.535000
 40
12.598500
  0
CIRCLE
  8
PIN_BOTTOM
 10
103.150000
 20
1416.535000
 40
12.598500
  0
CIRCLE
  8
PIN_BOTTOM
 10
103.150000
 20
1366.535000
 40
12.598500
  0
CIRCLE
  8
PIN_BOTTOM
 10
103.150000
 20
1316.535000
 40
12.598500
  0
CIRCLE
  8
PIN_BOTTOM
 10
103.150000
 20
1266.535000
 40
12.598500
  0
CIRCLE
  8
PIN_BOTTOM
 10
103.150000
 20
1216.535000
 40
12.598500
  0
CIRCLE
  8
PIN_BOTTOM
 10
103.150000
 20
1166.535000
 40
12.598500
  0
CIRCLE
  8
PIN_BOTTOM
 10
103.150000
 20
1116.535000
 40
12.598500
  0
CIRCLE
  8
PIN_BOTTOM
 10
103.150000
 20
1066.535000
 40
12.598500
  0
CIRCLE
  8
PIN_BOTTOM
 10
103.150000
 20
1016.535000
 40
12.598500
  0
CIRCLE
  8
PIN_BOTTOM
 10
103.150000
 20
966.535000
 40
12.598500
  0
CIRCLE
  8
PIN_BOTTOM
 10
103.150000
 20
916.535000
 40
12.598500
  0
CIRCLE
  8
PIN_BOTTOM
 10
103.150000
 20
866.535000
 40
12.598500
  0
CIRCLE
  8
PIN_BOTTOM
 10
103.150000
 20
816.535000
 40
12.598500
  0
CIRCLE
  8
PIN_BOTTOM
 10
103.150000
 20
766.535000
 40
12.598500
  0
CIRCLE
  8
PIN_BOTTOM
 10
103.150000
 20
716.535000
 40
12.598500
  0
CIRCLE
  8
PIN_BOTTOM
 10
103.150000
 20
666.535000
 40
12.598500
  0
CIRCLE
  8
PIN_BOTTOM
 10
103.150000
 20
616.535000
 40
12.598500
  0
CIRCLE
  8
PIN_BOTTOM
 10
103.150000
 20
566.535000
 40
12.598500
  0
CIRCLE
  8
PIN_BOTTOM
 10
103.150000
 20
516.535000
 40
12.598500
  0
CIRCLE
  8
PIN_BOTTOM
 10
103.150000
 20
466.535000
 40
12.598500
  0
CIRCLE
  8
PIN_BOTTOM
 10
103.150000
 20
416.535000
 40
12.598500
  0
CIRCLE
  8
PIN_BOTTOM
 10
103.150000
 20
366.535000
 40
12.598500
  0
CIRCLE
  8
PIN_BOTTOM
 10
103.150000
 20
316.535000
 40
12.598500
  0
CIRCLE
  8
PIN_BOTTOM
 10
103.150000
 20
266.535000
 40
12.598500
  0
CIRCLE
  8
PIN_BOTTOM
 10
53.150000
 20
2216.535000
 40
12.598500
  0
CIRCLE
  8
PIN_BOTTOM
 10
53.150000
 20
2166.535000
 40
12.598500
  0
CIRCLE
  8
PIN_BOTTOM
 10
53.150000
 20
2116.535000
 40
12.598500
  0
CIRCLE
  8
PIN_BOTTOM
 10
53.150000
 20
2066.535000
 40
12.598500
  0
CIRCLE
  8
PIN_BOTTOM
 10
53.150000
 20
2016.535000
 40
12.598500
  0
CIRCLE
  8
PIN_BOTTOM
 10
53.150000
 20
1966.535000
 40
12.598500
  0
CIRCLE
  8
PIN_BOTTOM
 10
53.150000
 20
1916.535000
 40
12.598500
  0
CIRCLE
  8
PIN_BOTTOM
 10
53.150000
 20
1866.535000
 40
12.598500
  0
CIRCLE
  8
PIN_BOTTOM
 10
53.150000
 20
1816.535000
 40
12.598500
  0
CIRCLE
  8
PIN_BOTTOM
 10
53.150000
 20
1766.535000
 40
12.598500
  0
CIRCLE
  8
PIN_BOTTOM
 10
53.150000
 20
1716.535000
 40
12.598500
  0
CIRCLE
  8
PIN_BOTTOM
 10
53.150000
 20
1666.535000
 40
12.598500
  0
CIRCLE
  8
PIN_BOTTOM
 10
53.150000
 20
1616.535000
 40
12.598500
  0
CIRCLE
  8
PIN_BOTTOM
 10
53.150000
 20
1566.535000
 40
12.598500
  0
CIRCLE
  8
PIN_BOTTOM
 10
53.150000
 20
1516.535000
 40
12.598500
  0
CIRCLE
  8
PIN_BOTTOM
 10
53.150000
 20
1466.535000
 40
12.598500
  0
CIRCLE
  8
PIN_BOTTOM
 10
53.150000
 20
1416.535000
 40
12.598500
  0
CIRCLE
  8
PIN_BOTTOM
 10
53.150000
 20
1366.535000
 40
12.598500
  0
CIRCLE
  8
PIN_BOTTOM
 10
53.150000
 20
1316.535000
 40
12.598500
  0
CIRCLE
  8
PIN_BOTTOM
 10
53.150000
 20
1266.535000
 40
12.598500
  0
CIRCLE
  8
PIN_BOTTOM
 10
53.150000
 20
1216.535000
 40
12.598500
  0
CIRCLE
  8
PIN_BOTTOM
 10
53.150000
 20
1166.535000
 40
12.598500
  0
CIRCLE
  8
PIN_BOTTOM
 10
53.150000
 20
1116.535000
 40
12.598500
  0
CIRCLE
  8
PIN_BOTTOM
 10
53.150000
 20
1066.535000
 40
12.598500
  0
CIRCLE
  8
PIN_BOTTOM
 10
53.150000
 20
1016.535000
 40
12.598500
  0
CIRCLE
  8
PIN_BOTTOM
 10
53.150000
 20
966.535000
 40
12.598500
  0
CIRCLE
  8
PIN_BOTTOM
 10
53.150000
 20
916.535000
 40
12.598500
  0
CIRCLE
  8
PIN_BOTTOM
 10
53.150000
 20
866.535000
 40
12.598500
  0
CIRCLE
  8
PIN_BOTTOM
 10
53.150000
 20
816.535000
 40
12.598500
  0
CIRCLE
  8
PIN_BOTTOM
 10
53.150000
 20
766.535000
 40
12.598500
  0
CIRCLE
  8
PIN_BOTTOM
 10
53.150000
 20
716.535000
 40
12.598500
  0
CIRCLE
  8
PIN_BOTTOM
 10
53.150000
 20
666.535000
 40
12.598500
  0
CIRCLE
  8
PIN_BOTTOM
 10
53.150000
 20
616.535000
 40
12.598500
  0
CIRCLE
  8
PIN_BOTTOM
 10
53.150000
 20
566.535000
 40
12.598500
  0
CIRCLE
  8
PIN_BOTTOM
 10
53.150000
 20
516.535000
 40
12.598500
  0
CIRCLE
  8
PIN_BOTTOM
 10
53.150000
 20
466.535000
 40
12.598500
  0
CIRCLE
  8
PIN_BOTTOM
 10
53.150000
 20
416.535000
 40
12.598500
  0
CIRCLE
  8
PIN_BOTTOM
 10
53.150000
 20
366.535000
 40
12.598500
  0
CIRCLE
  8
PIN_BOTTOM
 10
53.150000
 20
316.535000
 40
12.598500
  0
CIRCLE
  8
PIN_BOTTOM
 10
53.150000
 20
266.535000
 40
12.598500
  0
CIRCLE
  8
PIN_BOTTOM
 10
3.150000
 20
2216.535000
 40
12.598500
  0
CIRCLE
  8
PIN_BOTTOM
 10
3.150000
 20
2166.535000
 40
12.598500
  0
CIRCLE
  8
PIN_BOTTOM
 10
3.150000
 20
2116.535000
 40
12.598500
  0
CIRCLE
  8
PIN_BOTTOM
 10
3.150000
 20
2066.535000
 40
12.598500
  0
CIRCLE
  8
PIN_BOTTOM
 10
3.150000
 20
2016.535000
 40
12.598500
  0
CIRCLE
  8
PIN_BOTTOM
 10
3.150000
 20
1966.535000
 40
12.598500
  0
CIRCLE
  8
PIN_BOTTOM
 10
3.150000
 20
1916.535000
 40
12.598500
  0
CIRCLE
  8
PIN_BOTTOM
 10
3.150000
 20
1866.535000
 40
12.598500
  0
CIRCLE
  8
PIN_BOTTOM
 10
3.150000
 20
1816.535000
 40
12.598500
  0
CIRCLE
  8
PIN_BOTTOM
 10
3.150000
 20
1766.535000
 40
12.598500
  0
CIRCLE
  8
PIN_BOTTOM
 10
3.150000
 20
1716.535000
 40
12.598500
  0
CIRCLE
  8
PIN_BOTTOM
 10
3.150000
 20
1666.535000
 40
12.598500
  0
CIRCLE
  8
PIN_BOTTOM
 10
3.150000
 20
1616.535000
 40
12.598500
  0
CIRCLE
  8
PIN_BOTTOM
 10
3.150000
 20
1566.535000
 40
12.598500
  0
CIRCLE
  8
PIN_BOTTOM
 10
3.150000
 20
1516.535000
 40
12.598500
  0
CIRCLE
  8
PIN_BOTTOM
 10
3.150000
 20
1466.535000
 40
12.598500
  0
CIRCLE
  8
PIN_BOTTOM
 10
3.150000
 20
1416.535000
 40
12.598500
  0
CIRCLE
  8
PIN_BOTTOM
 10
3.150000
 20
1366.535000
 40
12.598500
  0
CIRCLE
  8
PIN_BOTTOM
 10
3.150000
 20
1316.535000
 40
12.598500
  0
CIRCLE
  8
PIN_BOTTOM
 10
3.150000
 20
1266.535000
 40
12.598500
  0
CIRCLE
  8
PIN_BOTTOM
 10
3.150000
 20
1216.535000
 40
12.598500
  0
CIRCLE
  8
PIN_BOTTOM
 10
3.150000
 20
1166.535000
 40
12.598500
  0
CIRCLE
  8
PIN_BOTTOM
 10
3.150000
 20
1116.535000
 40
12.598500
  0
CIRCLE
  8
PIN_BOTTOM
 10
3.150000
 20
1066.535000
 40
12.598500
  0
CIRCLE
  8
PIN_BOTTOM
 10
3.150000
 20
1016.535000
 40
12.598500
  0
CIRCLE
  8
PIN_BOTTOM
 10
3.150000
 20
966.535000
 40
12.598500
  0
CIRCLE
  8
PIN_BOTTOM
 10
3.150000
 20
916.535000
 40
12.598500
  0
CIRCLE
  8
PIN_BOTTOM
 10
3.150000
 20
866.535000
 40
12.598500
  0
CIRCLE
  8
PIN_BOTTOM
 10
3.150000
 20
816.535000
 40
12.598500
  0
CIRCLE
  8
PIN_BOTTOM
 10
3.150000
 20
766.535000
 40
12.598500
  0
CIRCLE
  8
PIN_BOTTOM
 10
3.150000
 20
716.535000
 40
12.598500
  0
CIRCLE
  8
PIN_BOTTOM
 10
3.150000
 20
666.535000
 40
12.598500
  0
CIRCLE
  8
PIN_BOTTOM
 10
3.150000
 20
616.535000
 40
12.598500
  0
CIRCLE
  8
PIN_BOTTOM
 10
3.150000
 20
566.535000
 40
12.598500
  0
CIRCLE
  8
PIN_BOTTOM
 10
3.150000
 20
516.535000
 40
12.598500
  0
CIRCLE
  8
PIN_BOTTOM
 10
3.150000
 20
466.535000
 40
12.598500
  0
CIRCLE
  8
PIN_BOTTOM
 10
3.150000
 20
416.535000
 40
12.598500
  0
CIRCLE
  8
PIN_BOTTOM
 10
3.150000
 20
366.535000
 40
12.598500
  0
CIRCLE
  8
PIN_BOTTOM
 10
3.150000
 20
316.535000
 40
12.598500
  0
CIRCLE
  8
PIN_BOTTOM
 10
3.150000
 20
266.535000
 40
12.598500
  0
CIRCLE
  8
PIN_BOTTOM
 10
-46.850000
 20
2216.535000
 40
12.598500
  0
CIRCLE
  8
PIN_BOTTOM
 10
-46.850000
 20
2166.535000
 40
12.598500
  0
CIRCLE
  8
PIN_BOTTOM
 10
-46.850000
 20
2116.535000
 40
12.598500
  0
CIRCLE
  8
PIN_BOTTOM
 10
-46.850000
 20
2066.535000
 40
12.598500
  0
CIRCLE
  8
PIN_BOTTOM
 10
-46.850000
 20
2016.535000
 40
12.598500
  0
CIRCLE
  8
PIN_BOTTOM
 10
-46.850000
 20
1966.535000
 40
12.598500
  0
CIRCLE
  8
PIN_BOTTOM
 10
-46.850000
 20
1916.535000
 40
12.598500
  0
CIRCLE
  8
PIN_BOTTOM
 10
-46.850000
 20
1866.535000
 40
12.598500
  0
CIRCLE
  8
PIN_BOTTOM
 10
-46.850000
 20
1816.535000
 40
12.598500
  0
CIRCLE
  8
PIN_BOTTOM
 10
-46.850000
 20
1766.535000
 40
12.598500
  0
CIRCLE
  8
PIN_BOTTOM
 10
-46.850000
 20
1716.535000
 40
12.598500
  0
CIRCLE
  8
PIN_BOTTOM
 10
-46.850000
 20
1666.535000
 40
12.598500
  0
CIRCLE
  8
PIN_BOTTOM
 10
-46.850000
 20
1616.535000
 40
12.598500
  0
CIRCLE
  8
PIN_BOTTOM
 10
-46.850000
 20
1566.535000
 40
12.598500
  0
CIRCLE
  8
PIN_BOTTOM
 10
-46.850000
 20
1516.535000
 40
12.598500
  0
CIRCLE
  8
PIN_BOTTOM
 10
-46.850000
 20
1466.535000
 40
12.598500
  0
CIRCLE
  8
PIN_BOTTOM
 10
-46.850000
 20
1416.535000
 40
12.598500
  0
CIRCLE
  8
PIN_BOTTOM
 10
-46.850000
 20
1366.535000
 40
12.598500
  0
CIRCLE
  8
PIN_BOTTOM
 10
-46.850000
 20
1316.535000
 40
12.598500
  0
CIRCLE
  8
PIN_BOTTOM
 10
-46.850000
 20
1266.535000
 40
12.598500
  0
CIRCLE
  8
PIN_BOTTOM
 10
-46.850000
 20
1216.535000
 40
12.598500
  0
CIRCLE
  8
PIN_BOTTOM
 10
-46.850000
 20
1166.535000
 40
12.598500
  0
CIRCLE
  8
PIN_BOTTOM
 10
-46.850000
 20
1116.535000
 40
12.598500
  0
CIRCLE
  8
PIN_BOTTOM
 10
-46.850000
 20
1066.535000
 40
12.598500
  0
CIRCLE
  8
PIN_BOTTOM
 10
-46.850000
 20
1016.535000
 40
12.598500
  0
CIRCLE
  8
PIN_BOTTOM
 10
-46.850000
 20
966.535000
 40
12.598500
  0
CIRCLE
  8
PIN_BOTTOM
 10
-46.850000
 20
916.535000
 40
12.598500
  0
CIRCLE
  8
PIN_BOTTOM
 10
-46.850000
 20
866.535000
 40
12.598500
  0
CIRCLE
  8
PIN_BOTTOM
 10
-46.850000
 20
816.535000
 40
12.598500
  0
CIRCLE
  8
PIN_BOTTOM
 10
-46.850000
 20
766.535000
 40
12.598500
  0
CIRCLE
  8
PIN_BOTTOM
 10
-46.850000
 20
716.535000
 40
12.598500
  0
CIRCLE
  8
PIN_BOTTOM
 10
-46.850000
 20
666.535000
 40
12.598500
  0
CIRCLE
  8
PIN_BOTTOM
 10
-46.850000
 20
616.535000
 40
12.598500
  0
CIRCLE
  8
PIN_BOTTOM
 10
-46.850000
 20
566.535000
 40
12.598500
  0
CIRCLE
  8
PIN_BOTTOM
 10
-46.850000
 20
516.535000
 40
12.598500
  0
CIRCLE
  8
PIN_BOTTOM
 10
-46.850000
 20
466.535000
 40
12.598500
  0
CIRCLE
  8
PIN_BOTTOM
 10
-46.850000
 20
416.535000
 40
12.598500
  0
CIRCLE
  8
PIN_BOTTOM
 10
-46.850000
 20
366.535000
 40
12.598500
  0
CIRCLE
  8
PIN_BOTTOM
 10
-46.850000
 20
316.535000
 40
12.598500
  0
CIRCLE
  8
PIN_BOTTOM
 10
-46.850000
 20
266.535000
 40
12.598500
  0
CIRCLE
  8
PIN_BOTTOM
 10
-96.850000
 20
2216.535000
 40
12.598500
  0
CIRCLE
  8
PIN_BOTTOM
 10
-96.850000
 20
2166.535000
 40
12.598500
  0
CIRCLE
  8
PIN_BOTTOM
 10
-96.850000
 20
2116.535000
 40
12.598500
  0
CIRCLE
  8
PIN_BOTTOM
 10
-96.850000
 20
2066.535000
 40
12.598500
  0
CIRCLE
  8
PIN_BOTTOM
 10
-96.850000
 20
2016.535000
 40
12.598500
  0
CIRCLE
  8
PIN_BOTTOM
 10
-96.850000
 20
1966.535000
 40
12.598500
  0
CIRCLE
  8
PIN_BOTTOM
 10
-96.850000
 20
1916.535000
 40
12.598500
  0
CIRCLE
  8
PIN_BOTTOM
 10
-96.850000
 20
1866.535000
 40
12.598500
  0
CIRCLE
  8
PIN_BOTTOM
 10
-96.850000
 20
1816.535000
 40
12.598500
  0
CIRCLE
  8
PIN_BOTTOM
 10
-96.850000
 20
1766.535000
 40
12.598500
  0
CIRCLE
  8
PIN_BOTTOM
 10
-96.850000
 20
1716.535000
 40
12.598500
  0
CIRCLE
  8
PIN_BOTTOM
 10
-96.850000
 20
1666.535000
 40
12.598500
  0
CIRCLE
  8
PIN_BOTTOM
 10
-96.850000
 20
1616.535000
 40
12.598500
  0
CIRCLE
  8
PIN_BOTTOM
 10
-96.850000
 20
1566.535000
 40
12.598500
  0
CIRCLE
  8
PIN_BOTTOM
 10
-96.850000
 20
1516.535000
 40
12.598500
  0
CIRCLE
  8
PIN_BOTTOM
 10
-96.850000
 20
1466.535000
 40
12.598500
  0
CIRCLE
  8
PIN_BOTTOM
 10
-96.850000
 20
1416.535000
 40
12.598500
  0
CIRCLE
  8
PIN_BOTTOM
 10
-96.850000
 20
1366.535000
 40
12.598500
  0
CIRCLE
  8
PIN_BOTTOM
 10
-96.850000
 20
1316.535000
 40
12.598500
  0
CIRCLE
  8
PIN_BOTTOM
 10
-96.850000
 20
1266.535000
 40
12.598500
  0
CIRCLE
  8
PIN_BOTTOM
 10
-96.850000
 20
1216.535000
 40
12.598500
  0
CIRCLE
  8
PIN_BOTTOM
 10
-96.850000
 20
1166.535000
 40
12.598500
  0
CIRCLE
  8
PIN_BOTTOM
 10
-96.850000
 20
1116.535000
 40
12.598500
  0
CIRCLE
  8
PIN_BOTTOM
 10
-96.850000
 20
1066.535000
 40
12.598500
  0
CIRCLE
  8
PIN_BOTTOM
 10
-96.850000
 20
1016.535000
 40
12.598500
  0
CIRCLE
  8
PIN_BOTTOM
 10
-96.850000
 20
966.535000
 40
12.598500
  0
CIRCLE
  8
PIN_BOTTOM
 10
-96.850000
 20
916.535000
 40
12.598500
  0
CIRCLE
  8
PIN_BOTTOM
 10
-96.850000
 20
866.535000
 40
12.598500
  0
CIRCLE
  8
PIN_BOTTOM
 10
-96.850000
 20
816.535000
 40
12.598500
  0
CIRCLE
  8
PIN_BOTTOM
 10
-96.850000
 20
766.535000
 40
12.598500
  0
CIRCLE
  8
PIN_BOTTOM
 10
-96.850000
 20
716.535000
 40
12.598500
  0
CIRCLE
  8
PIN_BOTTOM
 10
-96.850000
 20
666.535000
 40
12.598500
  0
CIRCLE
  8
PIN_BOTTOM
 10
-96.850000
 20
616.535000
 40
12.598500
  0
CIRCLE
  8
PIN_BOTTOM
 10
-96.850000
 20
566.535000
 40
12.598500
  0
CIRCLE
  8
PIN_BOTTOM
 10
-96.850000
 20
516.535000
 40
12.598500
  0
CIRCLE
  8
PIN_BOTTOM
 10
-96.850000
 20
466.535000
 40
12.598500
  0
CIRCLE
  8
PIN_BOTTOM
 10
-96.850000
 20
416.535000
 40
12.598500
  0
CIRCLE
  8
PIN_BOTTOM
 10
-96.850000
 20
366.535000
 40
12.598500
  0
CIRCLE
  8
PIN_BOTTOM
 10
-96.850000
 20
316.535000
 40
12.598500
  0
CIRCLE
  8
PIN_BOTTOM
 10
-96.850000
 20
266.535000
 40
12.598500
  0
CIRCLE
  8
PIN_BOTTOM
 10
-146.850000
 20
2216.535000
 40
12.598500
  0
CIRCLE
  8
PIN_BOTTOM
 10
-146.850000
 20
2166.535000
 40
12.598500
  0
CIRCLE
  8
PIN_BOTTOM
 10
-146.850000
 20
2116.535000
 40
12.598500
  0
CIRCLE
  8
PIN_BOTTOM
 10
-146.850000
 20
2016.535000
 40
12.598500
  0
CIRCLE
  8
PIN_BOTTOM
 10
-146.850000
 20
1966.535000
 40
12.598500
  0
CIRCLE
  8
PIN_BOTTOM
 10
-146.850000
 20
1916.535000
 40
12.598500
  0
CIRCLE
  8
PIN_BOTTOM
 10
-146.850000
 20
1866.535000
 40
12.598500
  0
CIRCLE
  8
PIN_BOTTOM
 10
-146.850000
 20
1816.535000
 40
12.598500
  0
CIRCLE
  8
PIN_BOTTOM
 10
-146.850000
 20
1766.535000
 40
12.598500
  0
CIRCLE
  8
PIN_BOTTOM
 10
-146.850000
 20
1716.535000
 40
12.598500
  0
CIRCLE
  8
PIN_BOTTOM
 10
-146.850000
 20
1666.535000
 40
12.598500
  0
CIRCLE
  8
PIN_BOTTOM
 10
-146.850000
 20
1616.535000
 40
12.598500
  0
CIRCLE
  8
PIN_BOTTOM
 10
-146.850000
 20
1566.535000
 40
12.598500
  0
CIRCLE
  8
PIN_BOTTOM
 10
-146.850000
 20
1516.535000
 40
12.598500
  0
CIRCLE
  8
PIN_BOTTOM
 10
-146.850000
 20
1466.535000
 40
12.598500
  0
CIRCLE
  8
PIN_BOTTOM
 10
-146.850000
 20
1416.535000
 40
12.598500
  0
CIRCLE
  8
PIN_BOTTOM
 10
-146.850000
 20
1366.535000
 40
12.598500
  0
CIRCLE
  8
PIN_BOTTOM
 10
-146.850000
 20
1316.535000
 40
12.598500
  0
CIRCLE
  8
PIN_BOTTOM
 10
-146.850000
 20
1266.535000
 40
12.598500
  0
CIRCLE
  8
PIN_BOTTOM
 10
-146.850000
 20
1216.535000
 40
12.598500
  0
CIRCLE
  8
PIN_BOTTOM
 10
-146.850000
 20
1166.535000
 40
12.598500
  0
CIRCLE
  8
PIN_BOTTOM
 10
-146.850000
 20
1116.535000
 40
12.598500
  0
CIRCLE
  8
PIN_BOTTOM
 10
-146.850000
 20
1066.535000
 40
12.598500
  0
CIRCLE
  8
PIN_BOTTOM
 10
-146.850000
 20
1016.535000
 40
12.598500
  0
CIRCLE
  8
PIN_BOTTOM
 10
-146.850000
 20
966.535000
 40
12.598500
  0
CIRCLE
  8
PIN_BOTTOM
 10
-146.850000
 20
916.535000
 40
12.598500
  0
CIRCLE
  8
PIN_BOTTOM
 10
-146.850000
 20
866.535000
 40
12.598500
  0
CIRCLE
  8
PIN_BOTTOM
 10
-146.850000
 20
816.535000
 40
12.598500
  0
CIRCLE
  8
PIN_BOTTOM
 10
-146.850000
 20
766.535000
 40
12.598500
  0
CIRCLE
  8
PIN_BOTTOM
 10
-146.850000
 20
716.535000
 40
12.598500
  0
CIRCLE
  8
PIN_BOTTOM
 10
-146.850000
 20
666.535000
 40
12.598500
  0
CIRCLE
  8
PIN_BOTTOM
 10
-146.850000
 20
616.535000
 40
12.598500
  0
CIRCLE
  8
PIN_BOTTOM
 10
-146.850000
 20
566.535000
 40
12.598500
  0
CIRCLE
  8
PIN_BOTTOM
 10
-146.850000
 20
516.535000
 40
12.598500
  0
CIRCLE
  8
PIN_BOTTOM
 10
-146.850000
 20
466.535000
 40
12.598500
  0
CIRCLE
  8
PIN_BOTTOM
 10
-146.850000
 20
416.535000
 40
12.598500
  0
CIRCLE
  8
PIN_BOTTOM
 10
-146.850000
 20
366.535000
 40
12.598500
  0
CIRCLE
  8
PIN_BOTTOM
 10
-146.850000
 20
316.535000
 40
12.598500
  0
CIRCLE
  8
PIN_BOTTOM
 10
-146.850000
 20
266.535000
 40
12.598500
  0
CIRCLE
  8
PIN_BOTTOM
 10
78.150000
 20
2312.007000
 40
19.685000
  0
CIRCLE
  8
PIN_BOTTOM
 10
-41.929000
 20
171.063000
 40
19.685000
  0
POLYLINE
  8
PG_SILKSCREEN_BOTTOM
 66
1
 70
0
 40
0.000000
 41
0.000000
 39
0.000000
  0
VERTEX
  8
PG_SILKSCREEN_BOTTOM
 10
-187.598000
 20
143.110000
 40
7.874000
 41
7.874000
 42
0.000000
  0
VERTEX
  8
PG_SILKSCREEN_BOTTOM
 10
-211.220000
 20
166.732000
 40
7.874000
 41
7.874000
 42
0.000000
  0
SEQEND
  0
POLYLINE
  8
PG_SILKSCREEN_BOTTOM
 66
1
 70
0
 40
0.000000
 41
0.000000
 39
0.000000
  0
VERTEX
  8
PG_SILKSCREEN_BOTTOM
 10
367.520000
 20
2316.339000
 40
7.874000
 41
7.874000
 42
0.000000
  0
VERTEX
  8
PG_SILKSCREEN_BOTTOM
 10
367.520000
 20
166.732000
 40
7.874000
 41
7.874000
 42
0.000000
  0
VERTEX
  8
PG_SILKSCREEN_BOTTOM
 10
343.898000
 20
143.110000
 40
7.874000
 41
7.874000
 42
0.000000
  0
VERTEX
  8
PG_SILKSCREEN_BOTTOM
 10
-187.598000
 20
143.110000
 40
7.874000
 41
7.874000
 42
0.000000
  0
SEQEND
  0
POLYLINE
  8
PG_SILKSCREEN_BOTTOM
 66
1
 70
0
 40
0.000000
 41
0.000000
 39
0.000000
  0
VERTEX
  8
PG_SILKSCREEN_BOTTOM
 10
-211.220000
 20
166.732000
 40
7.874000
 41
7.874000
 42
0.000000
  0
VERTEX
  8
PG_SILKSCREEN_BOTTOM
 10
-211.220000
 20
2316.339000
 40
7.874000
 41
7.874000
 42
0.000000
  0
VERTEX
  8
PG_SILKSCREEN_BOTTOM
 10
-187.598000
 20
2339.961000
 40
7.874000
 41
7.874000
 42
0.000000
  0
VERTEX
  8
PG_SILKSCREEN_BOTTOM
 10
48.622000
 20
2339.961000
 40
7.874000
 41
7.874000
 42
0.000000
  0
SEQEND
  0
POLYLINE
  8
PG_SILKSCREEN_BOTTOM
 66
1
 70
0
 40
0.000000
 41
0.000000
 39
0.000000
  0
VERTEX
  8
PG_SILKSCREEN_BOTTOM
 10
330.118000
 20
170.669000
 40
7.874000
 41
7.874000
 42
0.000000
  0
VERTEX
  8
PG_SILKSCREEN_BOTTOM
 10
330.118000
 20
2312.402000
 40
7.874000
 41
7.874000
 42
0.000000
  0
VERTEX
  8
PG_SILKSCREEN_BOTTOM
 10
-173.819000
 20
2312.402000
 40
7.874000
 41
7.874000
 42
0.000000
  0
VERTEX
  8
PG_SILKSCREEN_BOTTOM
 10
-173.819000
 20
170.669000
 40
7.874000
 41
7.874000
 42
0.000000
  0
VERTEX
  8
PG_SILKSCREEN_BOTTOM
 10
330.118000
 20
170.669000
 40
7.874000
 41
7.874000
 42
0.000000
  0
SEQEND
  0
POLYLINE
  8
PG_SILKSCREEN_BOTTOM
 66
1
 70
0
 40
0.000000
 41
0.000000
 39
0.000000
  0
VERTEX
  8
PG_SILKSCREEN_BOTTOM
 10
108.071000
 20
2339.567000
 40
7.874000
 41
7.874000
 42
0.000000
  0
VERTEX
  8
PG_SILKSCREEN_BOTTOM
 10
108.071000
 20
2374.606000
 40
7.874000
 41
7.874000
 42
0.000000
  0
VERTEX
  8
PG_SILKSCREEN_BOTTOM
 10
48.228000
 20
2374.606000
 40
7.874000
 41
7.874000
 42
0.000000
  0
VERTEX
  8
PG_SILKSCREEN_BOTTOM
 10
48.228000
 20
2339.567000
 40
7.874000
 41
7.874000
 42
0.000000
  0
SEQEND
  0
POLYLINE
  8
PG_SILKSCREEN_BOTTOM
 66
1
 70
0
 40
0.000000
 41
0.000000
 39
0.000000
  0
VERTEX
  8
PG_SILKSCREEN_BOTTOM
 10
367.520000
 20
2316.339000
 40
7.874000
 41
7.874000
 42
0.000000
  0
VERTEX
  8
PG_SILKSCREEN_BOTTOM
 10
343.898000
 20
2339.961000
 40
7.874000
 41
7.874000
 42
0.000000
  0
SEQEND
  0
POLYLINE
  8
PG_SILKSCREEN_BOTTOM
 66
1
 70
0
 40
0.000000
 41
0.000000
 39
0.000000
  0
VERTEX
  8
PG_SILKSCREEN_BOTTOM
 10
107.677000
 20
2339.961000
 40
7.874000
 41
7.874000
 42
0.000000
  0
VERTEX
  8
PG_SILKSCREEN_BOTTOM
 10
343.898000
 20
2339.961000
 40
7.874000
 41
7.874000
 42
0.000000
  0
SEQEND
  0
POLYLINE
  8
PG_SILKSCREEN_BOTTOM
 66
1
 70
0
 40
0.000000
 41
0.000000
 39
0.000000
  0
VERTEX
  8
PG_SILKSCREEN_BOTTOM
 10
383.268000
 20
2221.457000
 40
9.843000
 41
9.843000
 42
0.999956
  0
VERTEX
  8
PG_SILKSCREEN_BOTTOM
 10
383.267000
 20
2211.614000
 40
9.843000
 41
9.843000
 42
1.000044
  0
VERTEX
  8
PG_SILKSCREEN_BOTTOM
 10
383.268000
 20
2221.457000
 40
9.843000
 41
9.843000
 42
0.000000
  0
SEQEND
  0
CIRCLE
  8
PIN_BOTTOM
 10
0.000000
 20
0.000000
 40
65.000000
  0
CIRCLE
  8
PIN_BOTTOM
 10
0.000000
 20
2480.315000
 40
65.000000
  0
POLYLINE
  8
BG_OUTLINE
 66
1
 70
0
 40
0.000000
 41
0.000000
 39
0.000000
  0
VERTEX
  8
BG_OUTLINE
 10
429.134000
 20
2598.425000
 40
0.000000
 41
0.000000
 42
0.000000
  0
VERTEX
  8
BG_OUTLINE
 10
429.134000
 20
-118.110000
 40
0.000000
 41
0.000000
 42
0.000000
  0
SEQEND
  0
POLYLINE
  8
BG_OUTLINE
 66
1
 70
1
 40
0.000000
 41
0.000000
 39
0.000000
  0
VERTEX
  8
BG_OUTLINE
 10
429.134000
 20
2598.425000
 40
0.000000
 41
0.000000
 42
0.000000
  0
VERTEX
  8
BG_OUTLINE
 10
-1515.748000
 20
2598.425000
 40
0.000000
 41
0.000000
 42
0.000000
  0
VERTEX
  8
BG_OUTLINE
 10
-1515.748000
 20
2507.874000
 40
0.000000
 41
0.000000
 42
-0.414213
  0
VERTEX
  8
BG_OUTLINE
 10
-1555.118000
 20
2468.504000
 40
0.000000
 41
0.000000
 42
0.000000
  0
VERTEX
  8
BG_OUTLINE
 10
-2582.677000
 20
2468.504000
 40
0.000000
 41
0.000000
 42
0.000000
  0
VERTEX
  8
BG_OUTLINE
 10
-2582.677000
 20
66.929000
 40
0.000000
 41
0.000000
 42
0.000000
  0
VERTEX
  8
BG_OUTLINE
 10
-2169.291000
 20
66.929000
 40
0.000000
 41
0.000000
 42
-0.414212
  0
VERTEX
  8
BG_OUTLINE
 10
-2129.921000
 20
27.559000
 40
0.000000
 41
0.000000
 42
0.000000
  0
VERTEX
  8
BG_OUTLINE
 10
-2129.921000
 20
-15.748000
 40
0.000000
 41
0.000000
 42
0.000000
  0
VERTEX
  8
BG_OUTLINE
 10
-1748.031000
 20
-15.748000
 40
0.000000
 41
0.000000
 42
-0.414210
  0
VERTEX
  8
BG_OUTLINE
 10
-1708.661000
 20
-55.118000
 40
0.000000
 41
0.000000
 42
0.000000
  0
VERTEX
  8
BG_OUTLINE
 10
-1708.661000
 20
-118.110000
 40
0.000000
 41
0.000000
 42
0.000000
  0
VERTEX
  8
BG_OUTLINE
 10
429.134000
 20
-118.110000
 40
0.000000
 41
0.000000
 42
0.000000
  0
SEQEND
  0
ENDSEC
  0
EOF
