G04 ================== begin FILE IDENTIFICATION RECORD ==================*
G04 Layout Name:  C:/SPB_DATA/GPS_INTERFACE_BOARD/allegro/GPS_INTERFACE_BOARDv30.brd*
G04 Film Name:    Silk_Top*
G04 File Format:  Gerber RS274X*
G04 File Origin:  Cadence Allegro 17.2-S064*
G04 Origin Date:  Wed Jun 17 02:43:49 2020*
G04 *
G04 Layer:  REF DES/SILKSCREEN_TOP*
G04 Layer:  PACKAGE GEOMETRY/SILKSCREEN_TOP*
G04 Layer:  BOARD GEOMETRY/SILKSCREEN_TOP*
G04 *
G04 Offset:    (0.00 0.00)*
G04 Mirror:    No*
G04 Mode:      Positive*
G04 Rotation:  0*
G04 FullContactRelief:  No*
G04 UndefLineWidth:     0.00*
G04 ================== end FILE IDENTIFICATION RECORD ====================*
%FSLAX25Y25*MOIN*%
%IR0*IPPOS*OFA0.00000B0.00000*MIA0B0*SFA1.00000B1.00000*%
%ADD10C,.02362*%
%ADD11C,.01575*%
%ADD12C,.002*%
%ADD13C,.003*%
%ADD14C,.004*%
%ADD15C,.005*%
%ADD16C,.006*%
%ADD17C,.008*%
%ADD18C,.00591*%
%ADD19C,.00394*%
%ADD20C,.00984*%
%ADD21C,.00787*%
G75*
%LPD*%
G75*
G36*
G01X94500Y250400D02*
Y248900D01*
X96000Y250400D01*
X94500D01*
G37*
G36*
G01X93118Y248900D02*
G03I-1118J0D01*
G37*
G36*
G01X218300Y179800D02*
Y178300D01*
X219800Y179800D01*
X218300D01*
G37*
G36*
G01X216918Y178300D02*
G03I-1118J0D01*
G37*
G36*
G01X246000Y263100D02*
X247500D01*
X246000Y264600D01*
Y263100D01*
G37*
G36*
G01X248618Y260600D02*
G03I-1118J0D01*
G37*
G36*
G01X431100Y450800D02*
Y445800D01*
X433600Y448300D01*
X431100Y450800D01*
G37*
G36*
G01X467600Y529800D02*
X468600Y530800D01*
X466600D01*
X467600Y529800D01*
G37*
G36*
G01X1074700Y65500D02*
X1079700D01*
X1077200Y68000D01*
X1074700Y65500D01*
G37*
G36*
G01Y85000D02*
X1079700D01*
X1077200Y87500D01*
X1074700Y85000D01*
G37*
G36*
G01X1089300Y133300D02*
X1084300D01*
X1086800Y130800D01*
X1089300Y133300D01*
G37*
G36*
G01X1089400Y157600D02*
X1084400D01*
X1086900Y155100D01*
X1089400Y157600D01*
G37*
G36*
G01X1180800Y87500D02*
X1175800D01*
X1178300Y85000D01*
X1180800Y87500D01*
G37*
G36*
G01X1180900Y107000D02*
X1175900D01*
X1178400Y104500D01*
X1180900Y107000D01*
G37*
G36*
G01X1181000Y133300D02*
X1176000D01*
X1178500Y130800D01*
X1181000Y133300D01*
G37*
G36*
G01X1180900Y157600D02*
X1175900D01*
X1178400Y155100D01*
X1180900Y157600D01*
G37*
G54D10*
G01X424016Y37706D02*
G03I-1181J0D01*
G01X410279Y120754D02*
G03I-1181J0D01*
G54D20*
G01X52682Y130100D02*
G03I-492J0D01*
G01X70002Y299700D02*
G03I-492J0D01*
G01X193302Y226300D02*
G03I-492J0D01*
G01X193602Y358100D02*
G03I-492J0D01*
G01X282492Y47210D02*
G03I-492J0D01*
G01X256492D02*
G03I-492J0D01*
G01X269292D02*
G03I-492J0D01*
G01X342878Y40612D02*
G03I-491J0D01*
G01X328402Y56300D02*
G03I-492J0D01*
G01X362178Y40612D02*
G03I-491J0D01*
G01X348302Y56300D02*
G03I-492J0D01*
G01X367002Y56200D02*
G03I-492J0D01*
G01X353000Y529790D02*
G03I-491J0D01*
G01X381478Y40712D02*
G03I-491J0D01*
G01X412697Y42627D02*
G03I-492J0D01*
G01X403684Y110517D02*
G03I-492J0D01*
G01X405702Y269700D02*
G03I-492J0D01*
G01Y278800D02*
G03I-492J0D01*
G01X430245Y329264D02*
G02I-492J0D01*
G01X410482Y383300D02*
G03I-492J0D01*
G01X457122Y138586D02*
G02I-492J0D01*
G01X636931Y334153D02*
G02I-492J0D01*
G01X637692Y414610D02*
G03I-492J0D01*
G01X665992Y293310D02*
G03I-492J0D01*
G01X650792Y293610D02*
G03I-492J0D01*
G01X672274Y360810D02*
G02I-491J0D01*
G01X675492Y414610D02*
G03I-492J0D01*
G01X724031Y334153D02*
G02I-492J0D01*
G01X724792Y414610D02*
G03I-492J0D01*
G01X753092Y293310D02*
G03I-492J0D01*
G01X737892Y293610D02*
G03I-492J0D01*
G01X759374Y360810D02*
G02I-491J0D01*
G01X762592Y414610D02*
G03I-492J0D01*
G01X811874Y43671D02*
G02I-491J0D01*
G01X811831Y334153D02*
G02I-492J0D01*
G01X812592Y414610D02*
G03I-492J0D01*
G01X840892Y293310D02*
G03I-492J0D01*
G01X825692Y293610D02*
G03I-492J0D01*
G01X847174Y360810D02*
G02I-491J0D01*
G01X850392Y414610D02*
G03I-492J0D01*
G01X875774Y44171D02*
G02I-491J0D01*
G01X933404Y14613D02*
G03I-492J0D01*
G01X940692Y293610D02*
G03I-492J0D01*
G01X926831Y334153D02*
G02I-492J0D01*
G01X927692Y414610D02*
G03I-492J0D01*
G01X955892Y293310D02*
G03I-492J0D01*
G01X962174Y360810D02*
G02I-491J0D01*
G01X965492Y414610D02*
G03I-492J0D01*
G01X1028492Y293610D02*
G03I-492J0D01*
G01X1014631Y334153D02*
G02I-492J0D01*
G01X1015492Y414610D02*
G03I-492J0D01*
G01X1041380Y28787D02*
G03I-492J0D01*
G01X1043692Y293310D02*
G03I-492J0D01*
G01X1049974Y360810D02*
G02I-491J0D01*
G01X1053292Y414610D02*
G03I-492J0D01*
G01X1109283Y88810D02*
G03I-492J0D01*
G01X1115392Y293210D02*
G03I-492J0D01*
G01X1101531Y333753D02*
G02I-492J0D01*
G01X1102392Y414610D02*
G03I-492J0D01*
G01X1136883Y88710D02*
G03I-492J0D01*
G01X1130592Y292910D02*
G03I-492J0D01*
G01X1136874Y360410D02*
G02I-491J0D01*
G01X1140192Y414610D02*
G03I-492J0D01*
G54D11*
G01X70888Y59290D02*
G03I-788J0D01*
G01X670174Y479841D02*
G03I-787J0D01*
G01X757274D02*
G03I-787J0D01*
G01X845074D02*
G03I-787J0D01*
G01X960174D02*
G03I-787J0D01*
G01X1047974D02*
G03I-787J0D01*
G01X1134874Y480041D02*
G03I-787J0D01*
G54D21*
G01X36351Y168376D02*
G03I-394J0D01*
G01X63662Y168146D02*
Y162631D01*
X63682Y162611D01*
X99918D01*
Y167902D01*
G01X63662Y190418D02*
Y196076D01*
X99816D01*
X99855Y196036D01*
Y190784D01*
G01X100394Y546969D02*
G03I-394J0D01*
G01X134367Y50611D02*
G03I-393J0D01*
G01X133297Y101787D02*
G03I-394J0D01*
G01X244194Y546969D02*
G03I-394J0D01*
G01X397566Y337002D02*
G03I-394J0D01*
G01X387994Y546969D02*
G03I-394J0D01*
G01X436157Y132385D02*
Y118015D01*
X455843D01*
Y132385D01*
X436157D01*
G01X452889Y128448D02*
G03I-983J0D01*
G01X434083Y297374D02*
Y296783D01*
X434674D01*
G01X434083Y331626D02*
Y331744D01*
X434556Y332217D01*
X434674D01*
G01X469517Y297374D02*
Y296783D01*
X468926D01*
G01X469517Y331626D02*
Y332217D01*
X468926D01*
G01X531794Y546969D02*
G03I-394J0D01*
G01X639194Y336121D02*
Y336318D01*
X639982Y337106D01*
X640179D01*
G01X639194Y326279D02*
Y325294D01*
X640179D01*
G01X651006Y336121D02*
Y337106D01*
X650021D01*
G01X651006Y326279D02*
Y325294D01*
X650021D01*
G01X668043Y358842D02*
Y358645D01*
X667255Y357857D01*
X667058D01*
G01X648357Y358842D02*
Y357857D01*
X649342D01*
G01X668043Y376558D02*
Y377543D01*
X667058D01*
G01X648357Y376558D02*
Y377543D01*
X649342D01*
G01X726294Y336121D02*
Y336318D01*
X727082Y337106D01*
X727279D01*
G01X726294Y326279D02*
Y325294D01*
X727279D01*
G01X738106Y336121D02*
Y337106D01*
X737121D01*
G01X738106Y326279D02*
Y325294D01*
X737121D01*
G01X755143Y358842D02*
Y358645D01*
X754355Y357857D01*
X754158D01*
G01X735457Y358842D02*
Y357857D01*
X736442D01*
G01X755143Y376558D02*
Y377543D01*
X754158D01*
G01X735457Y376558D02*
Y377543D01*
X736442D01*
G01X805182Y75954D02*
X790418D01*
Y45246D01*
X805182D01*
Y75954D01*
G01X802229Y49183D02*
G03I-984J0D01*
G01X814094Y336121D02*
Y336318D01*
X814882Y337106D01*
X815079D01*
G01X814094Y326279D02*
Y325294D01*
X815079D01*
G01X825906Y336121D02*
Y337106D01*
X824921D01*
G01X825906Y326279D02*
Y325294D01*
X824921D01*
G01X842943Y358842D02*
Y358645D01*
X842155Y357857D01*
X841958D01*
G01X823257Y358842D02*
Y357857D01*
X824242D01*
G01X842943Y376558D02*
Y377543D01*
X841958D01*
G01X823257Y376558D02*
Y377543D01*
X824242D01*
G01X869082Y76454D02*
X854318D01*
Y45746D01*
X869082D01*
Y76454D01*
G01X866129Y49683D02*
G03I-984J0D01*
G01X929094Y336121D02*
Y336318D01*
X929882Y337106D01*
X930079D01*
G01X940906Y336121D02*
Y337106D01*
X939921D01*
G01X929094Y326279D02*
Y325294D01*
X930079D01*
G01X940906Y326279D02*
Y325294D01*
X939921D01*
G01X938257Y358842D02*
Y357857D01*
X939242D01*
G01X938257Y376558D02*
Y377543D01*
X939242D01*
G01X953483Y78795D02*
G03I-394J0D01*
G01X957943Y358842D02*
Y358645D01*
X957155Y357857D01*
X956958D01*
G01X957943Y376558D02*
Y377543D01*
X956958D01*
G01X1016894Y336121D02*
Y336318D01*
X1017682Y337106D01*
X1017879D01*
G01X1028706Y336121D02*
Y337106D01*
X1027721D01*
G01X1016894Y326279D02*
Y325294D01*
X1017879D01*
G01X1028706Y326279D02*
Y325294D01*
X1027721D01*
G01X1026057Y358842D02*
Y357857D01*
X1027042D01*
G01X1026057Y376558D02*
Y377543D01*
X1027042D01*
G01X1045743Y358842D02*
Y358645D01*
X1044955Y357857D01*
X1044758D01*
G01X1045743Y376558D02*
Y377543D01*
X1044758D01*
G01X1103794Y335721D02*
Y335918D01*
X1104582Y336706D01*
X1104779D01*
G01X1115606Y335721D02*
Y336706D01*
X1114621D01*
G01X1103794Y325879D02*
Y324894D01*
X1104779D01*
G01X1115606Y325879D02*
Y324894D01*
X1114621D01*
G01X1112957Y358442D02*
Y357457D01*
X1113942D01*
G01X1112957Y376158D02*
Y377143D01*
X1113942D01*
G01X1132643Y358442D02*
Y358245D01*
X1131855Y357457D01*
X1131658D01*
G01X1132643Y376158D02*
Y377143D01*
X1131658D01*
G54D12*
G01X57312Y268100D02*
G03I-412J0D01*
G01X142512Y524300D02*
G03I-412J0D01*
G01X181212Y197600D02*
G03I-412J0D01*
G01X181112Y268500D02*
G03I-412J0D01*
G01X181012Y327000D02*
G03I-412J0D01*
G01X258712Y524100D02*
G03I-412J0D01*
G01X373112Y17200D02*
G03I-412J0D01*
G01X397512Y327100D02*
G03I-412J0D01*
G01X390912Y350000D02*
G03I-412J0D01*
G01X468712Y526300D02*
G03I-412J0D01*
G54D13*
G01X90400Y249500D02*
X87600D01*
Y243300D01*
X90400D01*
Y249500D01*
G01X87600Y235200D02*
X90400D01*
Y241400D01*
X87600D01*
Y235200D01*
G01X149600Y422300D02*
X146800D01*
Y416100D01*
X149600D01*
Y422300D01*
G01X153000D02*
X150200D01*
Y416100D01*
X153000D01*
Y422300D01*
G01X146900Y447700D02*
Y444900D01*
X153100D01*
Y447700D01*
X146900D01*
G01X214200Y178900D02*
X211400D01*
Y172700D01*
X214200D01*
Y178900D01*
G01X211400Y164200D02*
X214200D01*
Y170400D01*
X211400D01*
Y164200D01*
G01X249100Y257100D02*
Y254300D01*
X255300D01*
Y257100D01*
X249100D01*
G01X337900Y521500D02*
X335100D01*
Y515300D01*
X337900D01*
Y521500D01*
G01X362100Y16800D02*
X359300D01*
Y10600D01*
X362100D01*
Y16800D01*
G01X353000Y10700D02*
X355800D01*
Y16900D01*
X353000D01*
Y10700D01*
G01X422700Y299000D02*
Y296200D01*
X428900D01*
Y299000D01*
X422700D01*
G01X437200Y338500D02*
Y341300D01*
X431000D01*
Y338500D01*
X437200D01*
G01X451400Y286500D02*
X454200D01*
Y292700D01*
X451400D01*
Y286500D01*
G01X435600Y286200D02*
X438400D01*
Y292400D01*
X435600D01*
Y286200D01*
G01X439600D02*
X442400D01*
Y292400D01*
X439600D01*
Y286200D01*
G01X445000Y338500D02*
Y341300D01*
X438800D01*
Y338500D01*
X445000D01*
G01X460500Y346400D02*
X463300D01*
Y352600D01*
X460500D01*
Y346400D01*
G01X480200Y310200D02*
Y313000D01*
X474000D01*
Y310200D01*
X480200D01*
G01X480000Y328000D02*
Y330800D01*
X473800D01*
Y328000D01*
X480000D01*
G01X464100Y346400D02*
X466900D01*
Y352600D01*
X464100D01*
Y346400D01*
G01X641200Y369300D02*
Y372100D01*
X635000D01*
Y369300D01*
X641200D01*
G01X673400Y341700D02*
X670600D01*
Y335500D01*
X673400D01*
Y341700D01*
G01X670600Y318200D02*
X673400D01*
Y324400D01*
X670600D01*
Y318200D01*
G01X666400Y335500D02*
X669200D01*
Y341700D01*
X666400D01*
Y335500D01*
G01X669200Y324400D02*
X666400D01*
Y318200D01*
X669200D01*
Y324400D01*
G01X663400Y390900D02*
X660600D01*
Y384700D01*
X663400D01*
Y390900D01*
G01X725200Y369100D02*
Y371900D01*
X719000D01*
Y369100D01*
X725200D01*
G01X760500Y341700D02*
X757700D01*
Y335500D01*
X760500D01*
Y341700D01*
G01X757700Y318200D02*
X760500D01*
Y324400D01*
X757700D01*
Y318200D01*
G01X753500Y335500D02*
X756300D01*
Y341700D01*
X753500D01*
Y335500D01*
G01X756300Y324400D02*
X753500D01*
Y318200D01*
X756300D01*
Y324400D01*
G01X750500Y390900D02*
X747700D01*
Y384700D01*
X750500D01*
Y390900D01*
G01X773200Y55800D02*
X770400D01*
Y49600D01*
X773200D01*
Y55800D01*
G01X823000Y50700D02*
X820200D01*
Y44500D01*
X823000D01*
Y50700D01*
G01X815900Y369200D02*
Y372000D01*
X809700D01*
Y369200D01*
X815900D01*
G01X839800Y55800D02*
X837000D01*
Y49600D01*
X839800D01*
Y55800D01*
G01X848300Y341700D02*
X845500D01*
Y335500D01*
X848300D01*
Y341700D01*
G01X845500Y318200D02*
X848300D01*
Y324400D01*
X845500D01*
Y318200D01*
G01X841300Y335500D02*
X844100D01*
Y341700D01*
X841300D01*
Y335500D01*
G01X844100Y324400D02*
X841300D01*
Y318200D01*
X844100D01*
Y324400D01*
G01X838300Y390900D02*
X835500D01*
Y384700D01*
X838300D01*
Y390900D01*
G01X888600Y50700D02*
X885800D01*
Y44500D01*
X888600D01*
Y50700D01*
G01X930900Y369200D02*
Y372000D01*
X924700D01*
Y369200D01*
X930900D01*
G01X963300Y341700D02*
X960500D01*
Y335500D01*
X963300D01*
Y341700D01*
G01X960500Y318200D02*
X963300D01*
Y324400D01*
X960500D01*
Y318200D01*
G01X956300Y335500D02*
X959100D01*
Y341700D01*
X956300D01*
Y335500D01*
G01X959100Y324400D02*
X956300D01*
Y318200D01*
X959100D01*
Y324400D01*
G01X953300Y390900D02*
X950500D01*
Y384700D01*
X953300D01*
Y390900D01*
G01X1018700Y369300D02*
Y372100D01*
X1012500D01*
Y369300D01*
X1018700D01*
G01X1051100Y341700D02*
X1048300D01*
Y335500D01*
X1051100D01*
Y341700D01*
G01X1048300Y318200D02*
X1051100D01*
Y324400D01*
X1048300D01*
Y318200D01*
G01X1044100Y335500D02*
X1046900D01*
Y341700D01*
X1044100D01*
Y335500D01*
G01X1046900Y324400D02*
X1044100D01*
Y318200D01*
X1046900D01*
Y324400D01*
G01X1041100Y390900D02*
X1038300D01*
Y384700D01*
X1041100D01*
Y390900D01*
G01X1105600Y368800D02*
Y371600D01*
X1099400D01*
Y368800D01*
X1105600D01*
G01X1138000Y341300D02*
X1135200D01*
Y335100D01*
X1138000D01*
Y341300D01*
G01X1135200Y317800D02*
X1138000D01*
Y324000D01*
X1135200D01*
Y317800D01*
G01X1131000Y335100D02*
X1133800D01*
Y341300D01*
X1131000D01*
Y335100D01*
G01X1133800Y324000D02*
X1131000D01*
Y317800D01*
X1133800D01*
Y324000D01*
G01X1128000Y390500D02*
X1125200D01*
Y384300D01*
X1128000D01*
Y390500D01*
G54D14*
G01X429600Y306600D02*
Y307800D01*
X422400D01*
Y304200D01*
X429600D01*
Y305400D01*
G01X429500Y302300D02*
Y303500D01*
X422300D01*
Y299900D01*
X429500D01*
Y301100D01*
G01X430400Y332300D02*
Y333500D01*
X423200D01*
Y329900D01*
X430400D01*
Y331100D01*
G01Y327900D02*
Y329100D01*
X423200D01*
Y325500D01*
X430400D01*
Y326700D01*
G01X432300Y343100D02*
X433500D01*
Y350300D01*
X429900D01*
Y343100D01*
X431100D01*
G01X461000Y343900D02*
X459800D01*
Y336700D01*
X463400D01*
Y343900D01*
X462200D01*
G01X436500Y343100D02*
X437700D01*
Y350300D01*
X434100D01*
Y343100D01*
X435300D01*
G01X444900D02*
X446100D01*
Y350300D01*
X442500D01*
Y343100D01*
X443700D01*
G01X440700D02*
X441900D01*
Y350300D01*
X438300D01*
Y343100D01*
X439500D01*
G01X465400Y343900D02*
X464200D01*
Y336700D01*
X467800D01*
Y343900D01*
X466600D01*
G01X673600Y332800D02*
Y334000D01*
X666400D01*
Y330400D01*
X673600D01*
Y331600D01*
G01Y328500D02*
Y329700D01*
X666400D01*
Y326100D01*
X673600D01*
Y327300D01*
G01X649700Y386000D02*
Y384800D01*
X656900D01*
Y388400D01*
X649700D01*
Y387200D01*
G01X667300Y384400D02*
X668500D01*
Y391600D01*
X664900D01*
Y384400D01*
X666100D01*
G01X682300Y362700D02*
Y363900D01*
X675100D01*
Y360300D01*
X682300D01*
Y361500D01*
G01X760700Y332800D02*
Y334000D01*
X753500D01*
Y330400D01*
X760700D01*
Y331600D01*
G01Y328500D02*
Y329700D01*
X753500D01*
Y326100D01*
X760700D01*
Y327300D01*
G01X736800Y386000D02*
Y384800D01*
X744000D01*
Y388400D01*
X736800D01*
Y387200D01*
G01X754400Y384400D02*
X755600D01*
Y391600D01*
X752000D01*
Y384400D01*
X753200D01*
G01X769400Y362700D02*
Y363900D01*
X762200D01*
Y360300D01*
X769400D01*
Y361500D01*
G01X848500Y332800D02*
Y334000D01*
X841300D01*
Y330400D01*
X848500D01*
Y331600D01*
G01Y328500D02*
Y329700D01*
X841300D01*
Y326100D01*
X848500D01*
Y327300D01*
G01X857200Y362700D02*
Y363900D01*
X850000D01*
Y360300D01*
X857200D01*
Y361500D01*
G01X824600Y386000D02*
Y384800D01*
X831800D01*
Y388400D01*
X824600D01*
Y387200D01*
G01X842200Y384400D02*
X843400D01*
Y391600D01*
X839800D01*
Y384400D01*
X841000D01*
G01X939600Y386000D02*
Y384800D01*
X946800D01*
Y388400D01*
X939600D01*
Y387200D01*
G01X963500Y332800D02*
Y334000D01*
X956300D01*
Y330400D01*
X963500D01*
Y331600D01*
G01Y328500D02*
Y329700D01*
X956300D01*
Y326100D01*
X963500D01*
Y327300D01*
G01X972200Y362700D02*
Y363900D01*
X965000D01*
Y360300D01*
X972200D01*
Y361500D01*
G01X957200Y384400D02*
X958400D01*
Y391600D01*
X954800D01*
Y384400D01*
X956000D01*
G01X1027400Y386000D02*
Y384800D01*
X1034600D01*
Y388400D01*
X1027400D01*
Y387200D01*
G01X1051300Y332800D02*
Y334000D01*
X1044100D01*
Y330400D01*
X1051300D01*
Y331600D01*
G01Y328500D02*
Y329700D01*
X1044100D01*
Y326100D01*
X1051300D01*
Y327300D01*
G01X1060000Y362700D02*
Y363900D01*
X1052800D01*
Y360300D01*
X1060000D01*
Y361500D01*
G01X1045000Y384400D02*
X1046200D01*
Y391600D01*
X1042600D01*
Y384400D01*
X1043800D01*
G01X1114300Y385600D02*
Y384400D01*
X1121500D01*
Y388000D01*
X1114300D01*
Y386800D01*
G01X1138200Y332400D02*
Y333600D01*
X1131000D01*
Y330000D01*
X1138200D01*
Y331200D01*
G01Y328100D02*
Y329300D01*
X1131000D01*
Y325700D01*
X1138200D01*
Y326900D01*
G01X1146900Y362300D02*
Y363500D01*
X1139700D01*
Y359900D01*
X1146900D01*
Y361100D01*
G01X1131900Y384000D02*
X1133100D01*
Y391200D01*
X1129500D01*
Y384000D01*
X1130700D01*
G54D15*
G01X32808Y185896D02*
Y188455D01*
X35170D01*
G01X35367Y170345D02*
X32808D01*
Y172904D01*
G01X87817Y34290D02*
Y-946D01*
X52383D01*
Y55746D01*
X63998D01*
G01X58792Y185896D02*
Y188455D01*
X56430D01*
G01Y170345D02*
X58792D01*
Y172904D01*
G01X106496Y547363D02*
X128937D01*
Y580040D01*
X71063D01*
Y547363D01*
X84843D01*
G01X75809Y55746D02*
X87817D01*
Y48463D01*
G01X78346Y581300D02*
Y635473D01*
X121654D01*
Y581300D01*
G01X81102Y636300D02*
Y684765D01*
X118898D01*
Y636300D01*
G01X114486Y48820D02*
X189682D01*
Y6340D01*
X114486D01*
Y48820D01*
G01X131086Y96767D02*
Y117633D01*
G01X115338Y96767D02*
X125862D01*
G01X110114Y117633D02*
Y96767D01*
G01X125862Y117633D02*
X115338D01*
G01X220083Y283907D02*
X220333Y284287D01*
X220500Y284730D01*
Y285237D01*
X220250Y285807D01*
X219833Y286250D01*
X219333Y286567D01*
X218500Y286820D01*
X217750Y286883D01*
X217000Y286757D01*
X216500Y286567D01*
X216000Y286187D01*
X215667Y285743D01*
X215500Y285300D01*
Y284857D01*
X215667Y284413D01*
X215917Y284033D01*
X216250Y283717D01*
G01X217583Y281403D02*
X218167Y280960D01*
X218500Y280580D01*
X218667Y280073D01*
X218500Y279630D01*
X218167Y279313D01*
X217667Y279060D01*
X217083Y278997D01*
X216583Y279060D01*
X216083Y279313D01*
X215667Y279693D01*
X215500Y280137D01*
X215667Y280643D01*
X216167Y281087D01*
X216917Y281340D01*
X217750Y281403D01*
X218833Y281277D01*
X219417Y281087D01*
X220000Y280770D01*
X220417Y280327D01*
X220500Y279883D01*
X220333Y279440D01*
X219917Y279123D01*
G01X217583Y276303D02*
X218167Y275860D01*
X218500Y275480D01*
X218667Y274973D01*
X218500Y274530D01*
X218167Y274213D01*
X217667Y273960D01*
X217083Y273897D01*
X216583Y273960D01*
X216083Y274213D01*
X215667Y274593D01*
X215500Y275037D01*
X215667Y275543D01*
X216167Y275987D01*
X216917Y276240D01*
X217750Y276303D01*
X218833Y276177D01*
X219417Y275987D01*
X220000Y275670D01*
X220417Y275227D01*
X220500Y274783D01*
X220333Y274340D01*
X219917Y274023D01*
G01X219783Y318807D02*
X220033Y319187D01*
X220200Y319630D01*
Y320137D01*
X219950Y320707D01*
X219533Y321150D01*
X219033Y321467D01*
X218200Y321720D01*
X217450Y321783D01*
X216700Y321657D01*
X216200Y321467D01*
X215700Y321087D01*
X215367Y320643D01*
X215200Y320200D01*
Y319757D01*
X215367Y319313D01*
X215617Y318933D01*
X215950Y318617D01*
G01X217283Y316303D02*
X217867Y315860D01*
X218200Y315480D01*
X218367Y314973D01*
X218200Y314530D01*
X217867Y314213D01*
X217367Y313960D01*
X216783Y313897D01*
X216283Y313960D01*
X215783Y314213D01*
X215367Y314593D01*
X215200Y315037D01*
X215367Y315543D01*
X215867Y315987D01*
X216617Y316240D01*
X217450Y316303D01*
X218533Y316177D01*
X219117Y315987D01*
X219700Y315670D01*
X220117Y315227D01*
X220200Y314783D01*
X220033Y314340D01*
X219617Y314023D01*
G01X215200Y310127D02*
X216283Y310000D01*
X217200Y309810D01*
X218033Y309557D01*
X218950Y309240D01*
X220200Y308733D01*
Y311267D01*
G01X250296Y547363D02*
X272737D01*
Y580040D01*
X214863D01*
Y547363D01*
X228643D01*
G01X231917Y205393D02*
X231667Y205013D01*
X231500Y204570D01*
Y204063D01*
X231750Y203493D01*
X232167Y203050D01*
X232667Y202733D01*
X233500Y202480D01*
X234250Y202417D01*
X235000Y202543D01*
X235500Y202733D01*
X236000Y203113D01*
X236333Y203557D01*
X236500Y204000D01*
Y204443D01*
X236333Y204887D01*
X236083Y205267D01*
X235750Y205583D01*
G01X236500Y209100D02*
X236417Y209543D01*
X236167Y210050D01*
X235750Y210367D01*
X235167Y210493D01*
X234583Y210367D01*
X234083Y209987D01*
X233833Y209417D01*
Y208783D01*
X233667Y208403D01*
X233250Y208087D01*
X232667Y207960D01*
X232083Y208150D01*
X231667Y208593D01*
X231500Y209100D01*
X231667Y209607D01*
X232083Y210050D01*
X232667Y210240D01*
X233250Y210113D01*
X233667Y209797D01*
X233833Y209417D01*
Y208783D01*
X234083Y208213D01*
X234583Y207833D01*
X235167Y207707D01*
X235750Y207833D01*
X236167Y208150D01*
X236417Y208657D01*
X236500Y209100D01*
G01X232333Y212997D02*
X231833Y213377D01*
X231583Y213820D01*
X231500Y214327D01*
X231667Y214960D01*
X232083Y215403D01*
X232583Y215530D01*
X233083Y215467D01*
X233500Y215213D01*
X234333Y213947D01*
X234917Y213377D01*
X235750Y212997D01*
X236500Y212870D01*
Y215530D01*
G01X222146Y581300D02*
Y635473D01*
X265454D01*
Y581300D01*
G01X224902Y636300D02*
Y684765D01*
X262698D01*
Y636300D01*
G01X255517Y204793D02*
X255267Y204413D01*
X255100Y203970D01*
Y203463D01*
X255350Y202893D01*
X255767Y202450D01*
X256267Y202133D01*
X257100Y201880D01*
X257850Y201817D01*
X258600Y201943D01*
X259100Y202133D01*
X259600Y202513D01*
X259933Y202957D01*
X260100Y203400D01*
Y203843D01*
X259933Y204287D01*
X259683Y204667D01*
X259350Y204983D01*
G01X260100Y208500D02*
X260017Y208943D01*
X259767Y209450D01*
X259350Y209767D01*
X258767Y209893D01*
X258183Y209767D01*
X257683Y209387D01*
X257433Y208817D01*
Y208183D01*
X257267Y207803D01*
X256850Y207487D01*
X256267Y207360D01*
X255683Y207550D01*
X255267Y207993D01*
X255100Y208500D01*
X255267Y209007D01*
X255683Y209450D01*
X256267Y209640D01*
X256850Y209513D01*
X257267Y209197D01*
X257433Y208817D01*
Y208183D01*
X257683Y207613D01*
X258183Y207233D01*
X258767Y207107D01*
X259350Y207233D01*
X259767Y207550D01*
X260017Y208057D01*
X260100Y208500D01*
G01Y213600D02*
X255100D01*
X256100Y212840D01*
G01X260100D02*
Y214360D01*
G01X394096Y547363D02*
X416537D01*
Y580040D01*
X358663D01*
Y547363D01*
X372443D01*
G01X365946Y581300D02*
Y635473D01*
X409254D01*
Y581300D01*
G01X368702Y636300D02*
Y684765D01*
X406498D01*
Y636300D01*
G01X376661Y324680D02*
Y297120D01*
G01X396739Y324680D02*
Y297120D01*
G01X537896Y547363D02*
X560337D01*
Y580040D01*
X502463D01*
Y547363D01*
X516243D01*
G01X509746Y581300D02*
Y635473D01*
X553054D01*
Y581300D01*
G01X512502Y636300D02*
Y684765D01*
X550298D01*
Y636300D01*
G01X648000Y408867D02*
X643000D01*
Y406333D01*
G01Y402500D02*
X648000D01*
X647000Y403260D01*
G01X643000D02*
Y401740D01*
G01Y397527D02*
X644083Y397400D01*
X645000Y397210D01*
X645833Y396957D01*
X646750Y396640D01*
X648000Y396133D01*
Y398667D01*
G01X684643Y428857D02*
X627557D01*
G01X684643Y598148D02*
Y624723D01*
X627557D01*
Y598148D01*
G01X671600Y409967D02*
X666600D01*
Y407433D01*
G01Y403600D02*
X671600D01*
X670600Y404360D01*
G01X666600D02*
Y402840D01*
G01Y398500D02*
X666683Y398057D01*
X666933Y397550D01*
X667350Y397233D01*
X667933Y397107D01*
X668517Y397233D01*
X669017Y397613D01*
X669267Y398183D01*
Y398817D01*
X669433Y399197D01*
X669850Y399513D01*
X670433Y399640D01*
X671017Y399450D01*
X671433Y399007D01*
X671600Y398500D01*
X671433Y397993D01*
X671017Y397550D01*
X670433Y397360D01*
X669850Y397487D01*
X669433Y397803D01*
X669267Y398183D01*
Y398817D01*
X669017Y399387D01*
X668517Y399767D01*
X667933Y399893D01*
X667350Y399767D01*
X666933Y399450D01*
X666683Y398943D01*
X666600Y398500D01*
G01X734900Y409067D02*
X729900D01*
Y406533D01*
G01Y402700D02*
X734900D01*
X733900Y403460D01*
G01X729900D02*
Y401940D01*
G01X730650Y398993D02*
X730233Y398613D01*
X729983Y398170D01*
X729900Y397600D01*
X730067Y397030D01*
X730400Y396587D01*
X730983Y396270D01*
X731650Y396207D01*
X732317Y396333D01*
X732733Y396650D01*
X733067Y397093D01*
X733150Y397537D01*
X733067Y397980D01*
X732733Y398550D01*
X734900Y398360D01*
Y396650D01*
G01X771743Y428857D02*
X714657D01*
G01X771743Y598148D02*
Y624723D01*
X714657D01*
Y598148D01*
G01X759000Y409767D02*
X754000D01*
Y407233D01*
G01Y403400D02*
X759000D01*
X758000Y404160D01*
G01X754000D02*
Y402640D01*
G01X756083Y399503D02*
X756667Y399060D01*
X757000Y398680D01*
X757167Y398173D01*
X757000Y397730D01*
X756667Y397413D01*
X756167Y397160D01*
X755583Y397097D01*
X755083Y397160D01*
X754583Y397413D01*
X754167Y397793D01*
X754000Y398237D01*
X754167Y398743D01*
X754667Y399187D01*
X755417Y399440D01*
X756250Y399503D01*
X757333Y399377D01*
X757917Y399187D01*
X758500Y398870D01*
X758917Y398427D01*
X759000Y397983D01*
X758833Y397540D01*
X758417Y397223D01*
G01X822300Y409067D02*
X817300D01*
Y406533D01*
G01Y402700D02*
X822300D01*
X821300Y403460D01*
G01X817300D02*
Y401940D01*
G01X818300Y398993D02*
X817717Y398613D01*
X817383Y398107D01*
X817300Y397537D01*
X817383Y397030D01*
X817800Y396523D01*
X818300Y396207D01*
X818800Y396143D01*
X819383Y396270D01*
X819800Y396713D01*
X819967Y397157D01*
Y397727D01*
G01Y397157D02*
X820217Y396777D01*
X820633Y396460D01*
X821133Y396333D01*
X821633Y396460D01*
X822050Y396777D01*
X822300Y397347D01*
X822217Y397917D01*
X821883Y398487D01*
G01X859543Y428857D02*
X802457D01*
G01X859543Y598148D02*
Y624723D01*
X802457D01*
Y598148D01*
G01X847100Y409767D02*
X842100D01*
Y407233D01*
G01Y403400D02*
X847100D01*
X846100Y404160D01*
G01X842100D02*
Y402640D01*
G01Y397540D02*
X847100D01*
X843517Y399883D01*
Y396717D01*
G01X937400Y409167D02*
X932400D01*
Y406633D01*
G01Y402800D02*
X937400D01*
X936400Y403560D01*
G01X932400D02*
Y402040D01*
G01Y397700D02*
X937400D01*
X936400Y398460D01*
G01X932400D02*
Y396940D01*
G01X974643Y428857D02*
X917557D01*
G01X974643Y598148D02*
Y624723D01*
X917557D01*
Y598148D01*
G01X956101Y1472D02*
G02X949132Y12004I7788J12725D01*
G01Y27752D01*
G01X1018699Y49543D02*
Y1472D01*
X956101D01*
Y49543D01*
G01X1018699Y62024D02*
Y85528D01*
X956101D01*
Y62024D01*
G01X962200Y409567D02*
X957200D01*
Y407033D01*
G01Y403200D02*
X962200D01*
X961200Y403960D01*
G01X957200D02*
Y402440D01*
G01X961367Y399303D02*
X961867Y398923D01*
X962117Y398480D01*
X962200Y397973D01*
X962033Y397340D01*
X961617Y396897D01*
X961117Y396770D01*
X960617Y396833D01*
X960200Y397087D01*
X959367Y398353D01*
X958783Y398923D01*
X957950Y399303D01*
X957200Y399430D01*
Y396770D01*
G01X1018699Y1472D02*
G03X1025668Y12004I-7788J12725D01*
G01Y27752D01*
G01X1025600Y409267D02*
X1020600D01*
Y406733D01*
G01X1021183Y403977D02*
X1020767Y403533D01*
X1020600Y403027D01*
X1020767Y402520D01*
X1021267Y402077D01*
X1022017Y401760D01*
X1022767Y401633D01*
X1023683D01*
X1024433Y401760D01*
X1025100Y402077D01*
X1025433Y402457D01*
X1025600Y402900D01*
X1025433Y403407D01*
X1025100Y403787D01*
X1024600Y404040D01*
X1023933Y404167D01*
X1023350Y404040D01*
X1022767Y403723D01*
X1022433Y403343D01*
X1022350Y402900D01*
X1022517Y402393D01*
X1022933Y402013D01*
X1023683Y401633D01*
G01X1062443Y428857D02*
X1005357D01*
G01X1062443Y598148D02*
Y624723D01*
X1005357D01*
Y598148D01*
G01X1049600Y409767D02*
X1044600D01*
Y407233D01*
G01Y403400D02*
X1049600D01*
X1048600Y404160D01*
G01X1044600D02*
Y402640D01*
G01X1049600Y398300D02*
X1049433Y398807D01*
X1049017Y399187D01*
X1048517Y399440D01*
X1047850Y399630D01*
X1047100Y399693D01*
X1046350Y399630D01*
X1045683Y399440D01*
X1045183Y399187D01*
X1044767Y398807D01*
X1044600Y398300D01*
X1044767Y397793D01*
X1045183Y397413D01*
X1045683Y397160D01*
X1046350Y396970D01*
X1047100Y396907D01*
X1047850Y396970D01*
X1048517Y397160D01*
X1049017Y397413D01*
X1049433Y397793D01*
X1049600Y398300D01*
G01X1112500Y408467D02*
X1107500D01*
Y405933D01*
G01Y402227D02*
X1108583Y402100D01*
X1109500Y401910D01*
X1110333Y401657D01*
X1111250Y401340D01*
X1112500Y400833D01*
Y403367D01*
G01X1149343Y429057D02*
X1092257D01*
G01X1149343Y598348D02*
Y624923D01*
X1092257D01*
Y598348D01*
G01X1136800Y409167D02*
X1131800D01*
Y406633D01*
G01Y402800D02*
X1131883Y402357D01*
X1132133Y401850D01*
X1132550Y401533D01*
X1133133Y401407D01*
X1133717Y401533D01*
X1134217Y401913D01*
X1134467Y402483D01*
Y403117D01*
X1134633Y403497D01*
X1135050Y403813D01*
X1135633Y403940D01*
X1136217Y403750D01*
X1136633Y403307D01*
X1136800Y402800D01*
X1136633Y402293D01*
X1136217Y401850D01*
X1135633Y401660D01*
X1135050Y401787D01*
X1134633Y402103D01*
X1134467Y402483D01*
Y403117D01*
X1134217Y403687D01*
X1133717Y404067D01*
X1133133Y404193D01*
X1132550Y404067D01*
X1132133Y403750D01*
X1131883Y403243D01*
X1131800Y402800D01*
G54D16*
G01X372633Y10247D02*
X378767D01*
G01Y18153D02*
X372633D01*
G01X449599Y458985D02*
Y455402D01*
X449832Y454652D01*
X450299Y454152D01*
X450882Y453985D01*
X451465Y454152D01*
X451932Y454652D01*
X452165Y455402D01*
Y458985D01*
G01X455182Y453985D02*
Y458985D01*
X454482Y457985D01*
G01Y453985D02*
X455882D01*
G01X458490Y454568D02*
X458899Y454152D01*
X459365Y453985D01*
X459832Y454152D01*
X460240Y454652D01*
X460532Y455402D01*
X460649Y456152D01*
Y457068D01*
X460532Y457818D01*
X460240Y458485D01*
X459890Y458818D01*
X459482Y458985D01*
X459015Y458818D01*
X458665Y458485D01*
X458432Y457985D01*
X458315Y457318D01*
X458432Y456735D01*
X458724Y456152D01*
X459074Y455818D01*
X459482Y455735D01*
X459949Y455902D01*
X460299Y456318D01*
X460649Y457068D01*
G01X454600Y515900D02*
X453700D01*
Y527700D01*
X454700D01*
G01X477700Y516493D02*
X474117D01*
X473367Y516240D01*
X472867Y515733D01*
X472700Y515100D01*
X472867Y514467D01*
X473367Y513960D01*
X474117Y513707D01*
X477700D01*
G01X472700Y510000D02*
X477700D01*
X476700Y510760D01*
G01X472700D02*
Y509240D01*
G01X468500Y527700D02*
X469400D01*
Y515900D01*
X468400D01*
G01X1073083Y84100D02*
X1073375Y83600D01*
X1073725Y83267D01*
X1074133Y83100D01*
X1074600Y83267D01*
X1074950Y83600D01*
X1075300Y84100D01*
X1075417Y84767D01*
Y88100D01*
G01X1078550Y83100D02*
Y88100D01*
X1077850Y87100D01*
G01Y83100D02*
X1079250D01*
G01X1082850D02*
Y88100D01*
X1082150Y87100D01*
G01Y83100D02*
X1083550D01*
G01X1073083Y103900D02*
X1073375Y103400D01*
X1073725Y103067D01*
X1074133Y102900D01*
X1074600Y103067D01*
X1074950Y103400D01*
X1075300Y103900D01*
X1075417Y104567D01*
Y107900D01*
G01X1078550Y102900D02*
Y107900D01*
X1077850Y106900D01*
G01Y102900D02*
X1079250D01*
G01X1081742Y107067D02*
X1082092Y107567D01*
X1082500Y107817D01*
X1082967Y107900D01*
X1083550Y107733D01*
X1083958Y107317D01*
X1084075Y106817D01*
X1084017Y106317D01*
X1083783Y105900D01*
X1082617Y105067D01*
X1082092Y104483D01*
X1081742Y103650D01*
X1081625Y102900D01*
X1084075D01*
G01X1073083Y130200D02*
X1073375Y129700D01*
X1073725Y129367D01*
X1074133Y129200D01*
X1074600Y129367D01*
X1074950Y129700D01*
X1075300Y130200D01*
X1075417Y130867D01*
Y134200D01*
G01X1077558Y129783D02*
X1077967Y129367D01*
X1078433Y129200D01*
X1078900Y129367D01*
X1079308Y129867D01*
X1079600Y130617D01*
X1079717Y131367D01*
Y132283D01*
X1079600Y133033D01*
X1079308Y133700D01*
X1078958Y134033D01*
X1078550Y134200D01*
X1078083Y134033D01*
X1077733Y133700D01*
X1077500Y133200D01*
X1077383Y132533D01*
X1077500Y131950D01*
X1077792Y131367D01*
X1078142Y131033D01*
X1078550Y130950D01*
X1079017Y131117D01*
X1079367Y131533D01*
X1079717Y132283D01*
G01X1073083Y154200D02*
X1073375Y153700D01*
X1073725Y153367D01*
X1074133Y153200D01*
X1074600Y153367D01*
X1074950Y153700D01*
X1075300Y154200D01*
X1075417Y154867D01*
Y158200D01*
G01X1078550Y153200D02*
Y158200D01*
X1077850Y157200D01*
G01Y153200D02*
X1079250D01*
G01X1082850Y158200D02*
X1082383Y158033D01*
X1082033Y157617D01*
X1081800Y157117D01*
X1081625Y156450D01*
X1081567Y155700D01*
X1081625Y154950D01*
X1081800Y154283D01*
X1082033Y153783D01*
X1082383Y153367D01*
X1082850Y153200D01*
X1083317Y153367D01*
X1083667Y153783D01*
X1083900Y154283D01*
X1084075Y154950D01*
X1084133Y155700D01*
X1084075Y156450D01*
X1083900Y157117D01*
X1083667Y157617D01*
X1083317Y158033D01*
X1082850Y158200D01*
G01X1163983Y84000D02*
X1164275Y83500D01*
X1164625Y83167D01*
X1165033Y83000D01*
X1165500Y83167D01*
X1165850Y83500D01*
X1166200Y84000D01*
X1166317Y84667D01*
Y88000D01*
G01X1169450Y83000D02*
Y88000D01*
X1168750Y87000D01*
G01Y83000D02*
X1170150D01*
G01X1172467Y83750D02*
X1172817Y83333D01*
X1173225Y83083D01*
X1173750Y83000D01*
X1174275Y83167D01*
X1174683Y83500D01*
X1174975Y84083D01*
X1175033Y84750D01*
X1174917Y85417D01*
X1174625Y85833D01*
X1174217Y86167D01*
X1173808Y86250D01*
X1173400Y86167D01*
X1172875Y85833D01*
X1173050Y88000D01*
X1174625D01*
G01X1163983Y104000D02*
X1164275Y103500D01*
X1164625Y103167D01*
X1165033Y103000D01*
X1165500Y103167D01*
X1165850Y103500D01*
X1166200Y104000D01*
X1166317Y104667D01*
Y108000D01*
G01X1169450Y103000D02*
Y108000D01*
X1168750Y107000D01*
G01Y103000D02*
X1170150D01*
G01X1172642Y105083D02*
X1173050Y105667D01*
X1173400Y106000D01*
X1173867Y106167D01*
X1174275Y106000D01*
X1174567Y105667D01*
X1174800Y105167D01*
X1174858Y104583D01*
X1174800Y104083D01*
X1174567Y103583D01*
X1174217Y103167D01*
X1173808Y103000D01*
X1173342Y103167D01*
X1172933Y103667D01*
X1172700Y104417D01*
X1172642Y105250D01*
X1172758Y106333D01*
X1172933Y106917D01*
X1173225Y107500D01*
X1173633Y107917D01*
X1174042Y108000D01*
X1174450Y107833D01*
X1174742Y107417D01*
G01X1163983Y131200D02*
X1164275Y130700D01*
X1164625Y130367D01*
X1165033Y130200D01*
X1165500Y130367D01*
X1165850Y130700D01*
X1166200Y131200D01*
X1166317Y131867D01*
Y135200D01*
G01X1168342Y134367D02*
X1168692Y134867D01*
X1169100Y135117D01*
X1169567Y135200D01*
X1170150Y135033D01*
X1170558Y134617D01*
X1170675Y134117D01*
X1170617Y133617D01*
X1170383Y133200D01*
X1169217Y132367D01*
X1168692Y131783D01*
X1168342Y130950D01*
X1168225Y130200D01*
X1170675D01*
G01X1172467Y130950D02*
X1172817Y130533D01*
X1173225Y130283D01*
X1173750Y130200D01*
X1174275Y130367D01*
X1174683Y130700D01*
X1174975Y131283D01*
X1175033Y131950D01*
X1174917Y132617D01*
X1174625Y133033D01*
X1174217Y133367D01*
X1173808Y133450D01*
X1173400Y133367D01*
X1172875Y133033D01*
X1173050Y135200D01*
X1174625D01*
G01X1163983Y154800D02*
X1164275Y154300D01*
X1164625Y153967D01*
X1165033Y153800D01*
X1165500Y153967D01*
X1165850Y154300D01*
X1166200Y154800D01*
X1166317Y155467D01*
Y158800D01*
G01X1168342Y157967D02*
X1168692Y158467D01*
X1169100Y158717D01*
X1169567Y158800D01*
X1170150Y158633D01*
X1170558Y158217D01*
X1170675Y157717D01*
X1170617Y157217D01*
X1170383Y156800D01*
X1169217Y155967D01*
X1168692Y155383D01*
X1168342Y154550D01*
X1168225Y153800D01*
X1170675D01*
G01X1174450D02*
Y158800D01*
X1172292Y155217D01*
X1175208D01*
G54D17*
G01X55157Y127900D02*
Y132900D01*
X56423D01*
X56930Y132650D01*
X57310Y132317D01*
X57627Y131817D01*
X57880Y131233D01*
X57943Y130400D01*
X57880Y129567D01*
X57627Y128983D01*
X57310Y128483D01*
X56930Y128150D01*
X56423Y127900D01*
X55157D01*
G01X62410D02*
Y132900D01*
X60067Y129317D01*
X63233D01*
G01X45300Y128722D02*
Y131478D01*
G01X69850Y241600D02*
Y236600D01*
G01X68393Y241600D02*
X71307D01*
G01X73683Y236600D02*
Y241600D01*
X75203D01*
X75710Y241350D01*
X76090Y240767D01*
X76217Y240100D01*
X76090Y239433D01*
X75773Y238933D01*
X75203Y238683D01*
X73683D01*
G01X80050Y236600D02*
Y241600D01*
X79290Y240600D01*
G01Y236600D02*
X80810D01*
G01X83947Y238683D02*
X84390Y239267D01*
X84770Y239600D01*
X85277Y239767D01*
X85720Y239600D01*
X86037Y239267D01*
X86290Y238767D01*
X86353Y238183D01*
X86290Y237683D01*
X86037Y237183D01*
X85657Y236767D01*
X85213Y236600D01*
X84707Y236767D01*
X84263Y237267D01*
X84010Y238017D01*
X83947Y238850D01*
X84073Y239933D01*
X84263Y240517D01*
X84580Y241100D01*
X85023Y241517D01*
X85467Y241600D01*
X85910Y241433D01*
X86227Y241017D01*
G01X81400Y249400D02*
G03I-5000J0D01*
G01X81300Y263400D02*
G03I-5000J0D01*
G01X84750Y266200D02*
Y261200D01*
G01X83293Y266200D02*
X86207D01*
G01X88583Y261200D02*
Y266200D01*
X90103D01*
X90610Y265950D01*
X90990Y265367D01*
X91117Y264700D01*
X90990Y264033D01*
X90673Y263533D01*
X90103Y263283D01*
X88583D01*
G01X94950Y261200D02*
Y266200D01*
X94190Y265200D01*
G01Y261200D02*
X95710D01*
G01X98657Y261950D02*
X99037Y261533D01*
X99480Y261283D01*
X100050Y261200D01*
X100620Y261367D01*
X101063Y261700D01*
X101380Y262283D01*
X101443Y262950D01*
X101317Y263617D01*
X101000Y264033D01*
X100557Y264367D01*
X100113Y264450D01*
X99670Y264367D01*
X99100Y264033D01*
X99290Y266200D01*
X101000D01*
G01X75857Y304400D02*
Y309400D01*
X77123D01*
X77630Y309150D01*
X78010Y308817D01*
X78327Y308317D01*
X78580Y307733D01*
X78643Y306900D01*
X78580Y306067D01*
X78327Y305483D01*
X78010Y304983D01*
X77630Y304650D01*
X77123Y304400D01*
X75857D01*
G01X80957Y305150D02*
X81337Y304733D01*
X81780Y304483D01*
X82350Y304400D01*
X82920Y304567D01*
X83363Y304900D01*
X83680Y305483D01*
X83743Y306150D01*
X83617Y306817D01*
X83300Y307233D01*
X82857Y307567D01*
X82413Y307650D01*
X81970Y307567D01*
X81400Y307233D01*
X81590Y309400D01*
X83300D01*
G01X76400Y301078D02*
Y298322D01*
G01X118200Y142100D02*
G03I-5000J0D01*
G01X136700D02*
G03I-5000J0D01*
G01X148000Y400000D02*
G03I-5000J0D01*
G01X160000D02*
G03I-5000J0D01*
G01Y388000D02*
G03I-5000J0D01*
G01X148000D02*
G03I-5000J0D01*
G01X187550Y97100D02*
Y92100D01*
G01X186093Y97100D02*
X189007D01*
G01X191383Y92100D02*
Y97100D01*
X192903D01*
X193410Y96850D01*
X193790Y96267D01*
X193917Y95600D01*
X193790Y94933D01*
X193473Y94433D01*
X192903Y94183D01*
X191383D01*
G01X197750Y92100D02*
Y97100D01*
X196990Y96100D01*
G01Y92100D02*
X198510D01*
G01X202850Y97100D02*
X202343Y96933D01*
X201963Y96517D01*
X201710Y96017D01*
X201520Y95350D01*
X201457Y94600D01*
X201520Y93850D01*
X201710Y93183D01*
X201963Y92683D01*
X202343Y92267D01*
X202850Y92100D01*
X203357Y92267D01*
X203737Y92683D01*
X203990Y93183D01*
X204180Y93850D01*
X204243Y94600D01*
X204180Y95350D01*
X203990Y96017D01*
X203737Y96517D01*
X203357Y96933D01*
X202850Y97100D01*
G01X184300Y95000D02*
G03I-5000J0D01*
G01X172900Y131800D02*
Y126800D01*
G01X171443Y131800D02*
X174357D01*
G01X176733Y126800D02*
Y131800D01*
X178253D01*
X178760Y131550D01*
X179140Y130967D01*
X179267Y130300D01*
X179140Y129633D01*
X178823Y129133D01*
X178253Y128883D01*
X176733D01*
G01X182023Y127383D02*
X182467Y126967D01*
X182973Y126800D01*
X183480Y126967D01*
X183923Y127467D01*
X184240Y128217D01*
X184367Y128967D01*
Y129883D01*
X184240Y130633D01*
X183923Y131300D01*
X183543Y131633D01*
X183100Y131800D01*
X182593Y131633D01*
X182213Y131300D01*
X181960Y130800D01*
X181833Y130133D01*
X181960Y129550D01*
X182277Y128967D01*
X182657Y128633D01*
X183100Y128550D01*
X183607Y128717D01*
X183987Y129133D01*
X184367Y129883D01*
G01X184300Y119700D02*
G03I-5000J0D01*
G01X189750Y131200D02*
Y126200D01*
G01X188293Y131200D02*
X191207D01*
G01X193583Y126200D02*
Y131200D01*
X195103D01*
X195610Y130950D01*
X195990Y130367D01*
X196117Y129700D01*
X195990Y129033D01*
X195673Y128533D01*
X195103Y128283D01*
X193583D01*
G01X199950Y126200D02*
Y131200D01*
X199190Y130200D01*
G01Y126200D02*
X200710D01*
G01X203657Y127200D02*
X204037Y126617D01*
X204543Y126283D01*
X205113Y126200D01*
X205620Y126283D01*
X206127Y126700D01*
X206443Y127200D01*
X206507Y127700D01*
X206380Y128283D01*
X205937Y128700D01*
X205493Y128867D01*
X204923D01*
G01X205493D02*
X205873Y129117D01*
X206190Y129533D01*
X206317Y130033D01*
X206190Y130533D01*
X205873Y130950D01*
X205303Y131200D01*
X204733Y131117D01*
X204163Y130783D01*
G01X193650Y171800D02*
Y166800D01*
G01X192193Y171800D02*
X195107D01*
G01X197483Y166800D02*
Y171800D01*
X199003D01*
X199510Y171550D01*
X199890Y170967D01*
X200017Y170300D01*
X199890Y169633D01*
X199573Y169133D01*
X199003Y168883D01*
X197483D01*
G01X202647Y170967D02*
X203027Y171467D01*
X203470Y171717D01*
X203977Y171800D01*
X204610Y171633D01*
X205053Y171217D01*
X205180Y170717D01*
X205117Y170217D01*
X204863Y169800D01*
X203597Y168967D01*
X203027Y168383D01*
X202647Y167550D01*
X202520Y166800D01*
X205180D01*
G01X208950Y171800D02*
X208443Y171633D01*
X208063Y171217D01*
X207810Y170717D01*
X207620Y170050D01*
X207557Y169300D01*
X207620Y168550D01*
X207810Y167883D01*
X208063Y167383D01*
X208443Y166967D01*
X208950Y166800D01*
X209457Y166967D01*
X209837Y167383D01*
X210090Y167883D01*
X210280Y168550D01*
X210343Y169300D01*
X210280Y170050D01*
X210090Y170717D01*
X209837Y171217D01*
X209457Y171633D01*
X208950Y171800D01*
G01X193550Y241900D02*
Y236900D01*
G01X192093Y241900D02*
X195007D01*
G01X197383Y236900D02*
Y241900D01*
X198903D01*
X199410Y241650D01*
X199790Y241067D01*
X199917Y240400D01*
X199790Y239733D01*
X199473Y239233D01*
X198903Y238983D01*
X197383D01*
G01X203750Y236900D02*
Y241900D01*
X202990Y240900D01*
G01Y236900D02*
X204510D01*
G01X208850D02*
X209293Y236983D01*
X209800Y237233D01*
X210117Y237650D01*
X210243Y238233D01*
X210117Y238817D01*
X209737Y239317D01*
X209167Y239567D01*
X208533D01*
X208153Y239733D01*
X207837Y240150D01*
X207710Y240733D01*
X207900Y241317D01*
X208343Y241733D01*
X208850Y241900D01*
X209357Y241733D01*
X209800Y241317D01*
X209990Y240733D01*
X209863Y240150D01*
X209547Y239733D01*
X209167Y239567D01*
X208533D01*
X207963Y239317D01*
X207583Y238817D01*
X207457Y238233D01*
X207583Y237650D01*
X207900Y237233D01*
X208407Y236983D01*
X208850Y236900D01*
G01X198050Y18100D02*
Y13100D01*
G01X196593Y18100D02*
X199507D01*
G01X201883Y13100D02*
Y18100D01*
X203403D01*
X203910Y17850D01*
X204290Y17267D01*
X204417Y16600D01*
X204290Y15933D01*
X203973Y15433D01*
X203403Y15183D01*
X201883D01*
G01X208123Y13100D02*
X208250Y14183D01*
X208440Y15100D01*
X208693Y15933D01*
X209010Y16850D01*
X209517Y18100D01*
X206983D01*
G01X211957Y13850D02*
X212337Y13433D01*
X212780Y13183D01*
X213350Y13100D01*
X213920Y13267D01*
X214363Y13600D01*
X214680Y14183D01*
X214743Y14850D01*
X214617Y15517D01*
X214300Y15933D01*
X213857Y16267D01*
X213413Y16350D01*
X212970Y16267D01*
X212400Y15933D01*
X212590Y18100D01*
X214300D01*
G01X227000Y15700D02*
G03I-5000J0D01*
G01X198550Y31800D02*
Y26800D01*
G01X197093Y31800D02*
X200007D01*
G01X202383Y26800D02*
Y31800D01*
X203903D01*
X204410Y31550D01*
X204790Y30967D01*
X204917Y30300D01*
X204790Y29633D01*
X204473Y29133D01*
X203903Y28883D01*
X202383D01*
G01X208750Y26800D02*
Y31800D01*
X207990Y30800D01*
G01Y26800D02*
X209510D01*
G01X214610D02*
Y31800D01*
X212267Y28217D01*
X215433D01*
G01X227200Y29300D02*
G03I-5000J0D01*
G01X202100Y119500D02*
G03I-5000J0D01*
G01X208550Y195600D02*
Y190600D01*
G01X207093Y195600D02*
X210007D01*
G01X212383Y190600D02*
Y195600D01*
X213903D01*
X214410Y195350D01*
X214790Y194767D01*
X214917Y194100D01*
X214790Y193433D01*
X214473Y192933D01*
X213903Y192683D01*
X212383D01*
G01X218750Y190600D02*
Y195600D01*
X217990Y194600D01*
G01Y190600D02*
X219510D01*
G01X222773Y191183D02*
X223217Y190767D01*
X223723Y190600D01*
X224230Y190767D01*
X224673Y191267D01*
X224990Y192017D01*
X225117Y192767D01*
Y193683D01*
X224990Y194433D01*
X224673Y195100D01*
X224293Y195433D01*
X223850Y195600D01*
X223343Y195433D01*
X222963Y195100D01*
X222710Y194600D01*
X222583Y193933D01*
X222710Y193350D01*
X223027Y192767D01*
X223407Y192433D01*
X223850Y192350D01*
X224357Y192517D01*
X224737Y192933D01*
X225117Y193683D01*
G01X205100Y192800D02*
G03I-5000J0D01*
G01X205200Y178800D02*
G03I-5000J0D01*
G01X196057Y230100D02*
Y235100D01*
X197323D01*
X197830Y234850D01*
X198210Y234517D01*
X198527Y234017D01*
X198780Y233433D01*
X198843Y232600D01*
X198780Y231767D01*
X198527Y231183D01*
X198210Y230683D01*
X197830Y230350D01*
X197323Y230100D01*
X196057D01*
G01X202423D02*
X202550Y231183D01*
X202740Y232100D01*
X202993Y232933D01*
X203310Y233850D01*
X203817Y235100D01*
X201283D01*
G01X199700Y227678D02*
Y224922D01*
G01X205100Y249700D02*
G03I-5000J0D01*
G01X208450Y266500D02*
Y261500D01*
G01X206993Y266500D02*
X209907D01*
G01X212283Y261500D02*
Y266500D01*
X213803D01*
X214310Y266250D01*
X214690Y265667D01*
X214817Y265000D01*
X214690Y264333D01*
X214373Y263833D01*
X213803Y263583D01*
X212283D01*
G01X218650Y261500D02*
Y266500D01*
X217890Y265500D01*
G01Y261500D02*
X219410D01*
G01X223623D02*
X223750Y262583D01*
X223940Y263500D01*
X224193Y264333D01*
X224510Y265250D01*
X225017Y266500D01*
X222483D01*
G01X205000Y263700D02*
G03I-5000J0D01*
G01X199257Y362300D02*
Y367300D01*
X200523D01*
X201030Y367050D01*
X201410Y366717D01*
X201727Y366217D01*
X201980Y365633D01*
X202043Y364800D01*
X201980Y363967D01*
X201727Y363383D01*
X201410Y362883D01*
X201030Y362550D01*
X200523Y362300D01*
X199257D01*
G01X204547Y364383D02*
X204990Y364967D01*
X205370Y365300D01*
X205877Y365467D01*
X206320Y365300D01*
X206637Y364967D01*
X206890Y364467D01*
X206953Y363883D01*
X206890Y363383D01*
X206637Y362883D01*
X206257Y362467D01*
X205813Y362300D01*
X205307Y362467D01*
X204863Y362967D01*
X204610Y363717D01*
X204547Y364550D01*
X204673Y365633D01*
X204863Y366217D01*
X205180Y366800D01*
X205623Y367217D01*
X206067Y367300D01*
X206510Y367133D01*
X206827Y366717D01*
G01X200000Y359478D02*
Y356722D01*
G01X251600Y47907D02*
X246600D01*
Y49173D01*
X246850Y49680D01*
X247183Y50060D01*
X247683Y50377D01*
X248267Y50630D01*
X249100Y50693D01*
X249933Y50630D01*
X250517Y50377D01*
X251017Y50060D01*
X251350Y49680D01*
X251600Y49173D01*
Y47907D01*
G01Y54400D02*
X246600D01*
X247600Y53640D01*
G01X251600D02*
Y55160D01*
G01Y59500D02*
X246600D01*
X247600Y58740D01*
G01X251600D02*
Y60260D01*
G01X278200Y48007D02*
X273200D01*
Y49273D01*
X273450Y49780D01*
X273783Y50160D01*
X274283Y50477D01*
X274867Y50730D01*
X275700Y50793D01*
X276533Y50730D01*
X277117Y50477D01*
X277617Y50160D01*
X277950Y49780D01*
X278200Y49273D01*
Y48007D01*
G01Y54500D02*
X273200D01*
X274200Y53740D01*
G01X278200D02*
Y55260D01*
G01X273200Y59600D02*
X273367Y59093D01*
X273783Y58713D01*
X274283Y58460D01*
X274950Y58270D01*
X275700Y58207D01*
X276450Y58270D01*
X277117Y58460D01*
X277617Y58713D01*
X278033Y59093D01*
X278200Y59600D01*
X278033Y60107D01*
X277617Y60487D01*
X277117Y60740D01*
X276450Y60930D01*
X275700Y60993D01*
X274950Y60930D01*
X274283Y60740D01*
X273783Y60487D01*
X273367Y60107D01*
X273200Y59600D01*
G01X280622Y54100D02*
X283378D01*
G01X254622D02*
X257378D01*
G01X265000Y48007D02*
X260000D01*
Y49273D01*
X260250Y49780D01*
X260583Y50160D01*
X261083Y50477D01*
X261667Y50730D01*
X262500Y50793D01*
X263333Y50730D01*
X263917Y50477D01*
X264417Y50160D01*
X264750Y49780D01*
X265000Y49273D01*
Y48007D01*
G01Y54500D02*
X260000D01*
X261000Y53740D01*
G01X265000D02*
Y55260D01*
G01X260833Y58397D02*
X260333Y58777D01*
X260083Y59220D01*
X260000Y59727D01*
X260167Y60360D01*
X260583Y60803D01*
X261083Y60930D01*
X261583Y60867D01*
X262000Y60613D01*
X262833Y59347D01*
X263417Y58777D01*
X264250Y58397D01*
X265000Y58270D01*
Y60930D01*
G01X267422Y54100D02*
X270178D01*
G01X332050Y21400D02*
X331543Y21483D01*
X331100Y21817D01*
X330720Y22317D01*
X330467Y22900D01*
X330340Y23567D01*
Y24233D01*
X330467Y24900D01*
X330720Y25483D01*
X331100Y25983D01*
X331543Y26317D01*
X332050Y26400D01*
X332557Y26317D01*
X333000Y25983D01*
X333380Y25483D01*
X333633Y24900D01*
X333760Y24233D01*
Y23567D01*
X333633Y22900D01*
X333380Y22317D01*
X333000Y21817D01*
X332557Y21483D01*
X332050Y21400D01*
G01X332557Y22733D02*
X333317Y21400D01*
G01X337150D02*
X337593Y21483D01*
X338100Y21733D01*
X338417Y22150D01*
X338543Y22733D01*
X338417Y23317D01*
X338037Y23817D01*
X337467Y24067D01*
X336833D01*
X336453Y24233D01*
X336137Y24650D01*
X336010Y25233D01*
X336200Y25817D01*
X336643Y26233D01*
X337150Y26400D01*
X337657Y26233D01*
X338100Y25817D01*
X338290Y25233D01*
X338163Y24650D01*
X337847Y24233D01*
X337467Y24067D01*
X336833D01*
X336263Y23817D01*
X335883Y23317D01*
X335757Y22733D01*
X335883Y22150D01*
X336200Y21733D01*
X336707Y21483D01*
X337150Y21400D01*
G01X329394Y36281D02*
Y33919D01*
X341206D01*
Y36281D01*
X329394D01*
G01X333457Y60600D02*
Y65600D01*
X334723D01*
X335230Y65350D01*
X335610Y65017D01*
X335927Y64517D01*
X336180Y63933D01*
X336243Y63100D01*
X336180Y62267D01*
X335927Y61683D01*
X335610Y61183D01*
X335230Y60850D01*
X334723Y60600D01*
X333457D01*
G01X338873Y61183D02*
X339317Y60767D01*
X339823Y60600D01*
X340330Y60767D01*
X340773Y61267D01*
X341090Y62017D01*
X341217Y62767D01*
Y63683D01*
X341090Y64433D01*
X340773Y65100D01*
X340393Y65433D01*
X339950Y65600D01*
X339443Y65433D01*
X339063Y65100D01*
X338810Y64600D01*
X338683Y63933D01*
X338810Y63350D01*
X339127Y62767D01*
X339507Y62433D01*
X339950Y62350D01*
X340457Y62517D01*
X340837Y62933D01*
X341217Y63683D01*
G01X334800Y57678D02*
Y54922D01*
G01X349900Y21600D02*
X349393Y21683D01*
X348950Y22017D01*
X348570Y22517D01*
X348317Y23100D01*
X348190Y23767D01*
Y24433D01*
X348317Y25100D01*
X348570Y25683D01*
X348950Y26183D01*
X349393Y26517D01*
X349900Y26600D01*
X350407Y26517D01*
X350850Y26183D01*
X351230Y25683D01*
X351483Y25100D01*
X351610Y24433D01*
Y23767D01*
X351483Y23100D01*
X351230Y22517D01*
X350850Y22017D01*
X350407Y21683D01*
X349900Y21600D01*
G01X350407Y22933D02*
X351167Y21600D01*
G01X355000D02*
Y26600D01*
X354240Y25600D01*
G01Y21600D02*
X355760D01*
G01X360100D02*
Y26600D01*
X359340Y25600D01*
G01Y21600D02*
X360860D01*
G01X348694Y36281D02*
Y33919D01*
X360506D01*
Y36281D01*
X348694D01*
G01X368900Y21800D02*
X368393Y21883D01*
X367950Y22217D01*
X367570Y22717D01*
X367317Y23300D01*
X367190Y23967D01*
Y24633D01*
X367317Y25300D01*
X367570Y25883D01*
X367950Y26383D01*
X368393Y26717D01*
X368900Y26800D01*
X369407Y26717D01*
X369850Y26383D01*
X370230Y25883D01*
X370483Y25300D01*
X370610Y24633D01*
Y23967D01*
X370483Y23300D01*
X370230Y22717D01*
X369850Y22217D01*
X369407Y21883D01*
X368900Y21800D01*
G01X369407Y23133D02*
X370167Y21800D01*
G01X374000D02*
Y26800D01*
X373240Y25800D01*
G01Y21800D02*
X374760D01*
G01X377897Y25967D02*
X378277Y26467D01*
X378720Y26717D01*
X379227Y26800D01*
X379860Y26633D01*
X380303Y26217D01*
X380430Y25717D01*
X380367Y25217D01*
X380113Y24800D01*
X378847Y23967D01*
X378277Y23383D01*
X377897Y22550D01*
X377770Y21800D01*
X380430D01*
G01X367994Y36381D02*
Y34019D01*
X379806D01*
Y36381D01*
X367994D01*
G01X352207Y60600D02*
Y65600D01*
X353473D01*
X353980Y65350D01*
X354360Y65017D01*
X354677Y64517D01*
X354930Y63933D01*
X354993Y63100D01*
X354930Y62267D01*
X354677Y61683D01*
X354360Y61183D01*
X353980Y60850D01*
X353473Y60600D01*
X352207D01*
G01X358700D02*
Y65600D01*
X357940Y64600D01*
G01Y60600D02*
X359460D01*
G01X364560D02*
Y65600D01*
X362217Y62017D01*
X365383D01*
G01X354700Y57678D02*
Y54922D01*
G01X371507Y60300D02*
Y65300D01*
X372773D01*
X373280Y65050D01*
X373660Y64717D01*
X373977Y64217D01*
X374230Y63633D01*
X374293Y62800D01*
X374230Y61967D01*
X373977Y61383D01*
X373660Y60883D01*
X373280Y60550D01*
X372773Y60300D01*
X371507D01*
G01X378000D02*
Y65300D01*
X377240Y64300D01*
G01Y60300D02*
X378760D01*
G01X381707Y61050D02*
X382087Y60633D01*
X382530Y60383D01*
X383100Y60300D01*
X383670Y60467D01*
X384113Y60800D01*
X384430Y61383D01*
X384493Y62050D01*
X384367Y62717D01*
X384050Y63133D01*
X383607Y63467D01*
X383163Y63550D01*
X382720Y63467D01*
X382150Y63133D01*
X382340Y65300D01*
X384050D01*
G01X360650Y420200D02*
Y415200D01*
G01X359193Y420200D02*
X362107D01*
G01X364483Y415200D02*
Y420200D01*
X366003D01*
X366510Y419950D01*
X366890Y419367D01*
X367017Y418700D01*
X366890Y418033D01*
X366573Y417533D01*
X366003Y417283D01*
X364483D01*
G01X369457Y416200D02*
X369837Y415617D01*
X370343Y415283D01*
X370913Y415200D01*
X371420Y415283D01*
X371927Y415700D01*
X372243Y416200D01*
X372307Y416700D01*
X372180Y417283D01*
X371737Y417700D01*
X371293Y417867D01*
X370723D01*
G01X371293D02*
X371673Y418117D01*
X371990Y418533D01*
X372117Y419033D01*
X371990Y419533D01*
X371673Y419950D01*
X371103Y420200D01*
X370533Y420117D01*
X369963Y419783D01*
G01X374873Y415783D02*
X375317Y415367D01*
X375823Y415200D01*
X376330Y415367D01*
X376773Y415867D01*
X377090Y416617D01*
X377217Y417367D01*
Y418283D01*
X377090Y419033D01*
X376773Y419700D01*
X376393Y420033D01*
X375950Y420200D01*
X375443Y420033D01*
X375063Y419700D01*
X374810Y419200D01*
X374683Y418533D01*
X374810Y417950D01*
X375127Y417367D01*
X375507Y417033D01*
X375950Y416950D01*
X376457Y417117D01*
X376837Y417533D01*
X377217Y418283D01*
G01X361650Y431900D02*
Y426900D01*
G01X360193Y431900D02*
X363107D01*
G01X365483Y426900D02*
Y431900D01*
X367003D01*
X367510Y431650D01*
X367890Y431067D01*
X368017Y430400D01*
X367890Y429733D01*
X367573Y429233D01*
X367003Y428983D01*
X365483D01*
G01X372610Y426900D02*
Y431900D01*
X370267Y428317D01*
X373433D01*
G01X376950Y426900D02*
Y431900D01*
X376190Y430900D01*
G01Y426900D02*
X377710D01*
G01X360450Y450000D02*
Y445000D01*
G01X358993Y450000D02*
X361907D01*
G01X364283Y445000D02*
Y450000D01*
X365803D01*
X366310Y449750D01*
X366690Y449167D01*
X366817Y448500D01*
X366690Y447833D01*
X366373Y447333D01*
X365803Y447083D01*
X364283D01*
G01X371410Y445000D02*
Y450000D01*
X369067Y446417D01*
X372233D01*
G01X374357Y446000D02*
X374737Y445417D01*
X375243Y445083D01*
X375813Y445000D01*
X376320Y445083D01*
X376827Y445500D01*
X377143Y446000D01*
X377207Y446500D01*
X377080Y447083D01*
X376637Y447500D01*
X376193Y447667D01*
X375623D01*
G01X376193D02*
X376573Y447917D01*
X376890Y448333D01*
X377017Y448833D01*
X376890Y449333D01*
X376573Y449750D01*
X376003Y450000D01*
X375433Y449917D01*
X374863Y449583D01*
G01X360250Y462000D02*
Y457000D01*
G01X358793Y462000D02*
X361707D01*
G01X364083Y457000D02*
Y462000D01*
X365603D01*
X366110Y461750D01*
X366490Y461167D01*
X366617Y460500D01*
X366490Y459833D01*
X366173Y459333D01*
X365603Y459083D01*
X364083D01*
G01X371210Y457000D02*
Y462000D01*
X368867Y458417D01*
X372033D01*
G01X374157Y457750D02*
X374537Y457333D01*
X374980Y457083D01*
X375550Y457000D01*
X376120Y457167D01*
X376563Y457500D01*
X376880Y458083D01*
X376943Y458750D01*
X376817Y459417D01*
X376500Y459833D01*
X376057Y460167D01*
X375613Y460250D01*
X375170Y460167D01*
X374600Y459833D01*
X374790Y462000D01*
X376500D01*
G01X345950Y441400D02*
Y436400D01*
G01X344493Y441400D02*
X347407D01*
G01X349783Y436400D02*
Y441400D01*
X351303D01*
X351810Y441150D01*
X352190Y440567D01*
X352317Y439900D01*
X352190Y439233D01*
X351873Y438733D01*
X351303Y438483D01*
X349783D01*
G01X354947Y440567D02*
X355327Y441067D01*
X355770Y441317D01*
X356277Y441400D01*
X356910Y441233D01*
X357353Y440817D01*
X357480Y440317D01*
X357417Y439817D01*
X357163Y439400D01*
X355897Y438567D01*
X355327Y437983D01*
X354947Y437150D01*
X354820Y436400D01*
X357480D01*
G01X359857Y437400D02*
X360237Y436817D01*
X360743Y436483D01*
X361313Y436400D01*
X361820Y436483D01*
X362327Y436900D01*
X362643Y437400D01*
X362707Y437900D01*
X362580Y438483D01*
X362137Y438900D01*
X361693Y439067D01*
X361123D01*
G01X361693D02*
X362073Y439317D01*
X362390Y439733D01*
X362517Y440233D01*
X362390Y440733D01*
X362073Y441150D01*
X361503Y441400D01*
X360933Y441317D01*
X360363Y440983D01*
G01X374300Y438700D02*
G03I-5000J0D01*
G01X358900Y523193D02*
X355317D01*
X354567Y522940D01*
X354067Y522433D01*
X353900Y521800D01*
X354067Y521167D01*
X354567Y520660D01*
X355317Y520407D01*
X358900D01*
G01X353900Y515940D02*
X358900D01*
X355317Y518283D01*
Y515117D01*
G01X353900Y511727D02*
X354983Y511600D01*
X355900Y511410D01*
X356733Y511157D01*
X357650Y510840D01*
X358900Y510333D01*
Y512867D01*
G01X342666Y526050D02*
Y519750D01*
X350934D01*
Y526050D01*
X342666D01*
G01X349753D02*
X350934Y524869D01*
G01X350146Y526050D02*
X350934Y525262D01*
G01X350540Y526050D02*
X350934Y525656D01*
G01X347391Y526050D02*
X350934Y522506D01*
G01X347784Y526050D02*
X350934Y522900D01*
G01X348178Y526050D02*
X350934Y523294D01*
G01X348572Y526050D02*
X350934Y523687D01*
G01X348965Y526050D02*
X350934Y524081D01*
G01X349359Y526050D02*
X350934Y524475D01*
G01X373400Y57578D02*
Y54822D01*
G01X402090Y131101D02*
X398506Y131096D01*
X397757Y130841D01*
X397258Y130334D01*
X397092Y129700D01*
X397260Y129067D01*
X397760Y128561D01*
X398511Y128309D01*
X402094Y128314D01*
G01X397100Y124600D02*
X402100Y124608D01*
X401099Y125366D01*
G01X397099Y125360D02*
X397101Y123840D01*
G01X397108Y119500D02*
X397192Y119057D01*
X397443Y118551D01*
X397860Y118234D01*
X398443Y118109D01*
X399026Y118236D01*
X399526Y118617D01*
X399775Y119187D01*
X399774Y119821D01*
X399940Y120201D01*
X400356Y120518D01*
X400939Y120646D01*
X401523Y120457D01*
X401941Y120014D01*
X402108Y119508D01*
X401942Y119001D01*
X401526Y118557D01*
X400943Y118366D01*
X400359Y118492D01*
X399942Y118808D01*
X399775Y119187D01*
X399774Y119821D01*
X399523Y120390D01*
X399023Y120770D01*
X398439Y120895D01*
X397856Y120768D01*
X397440Y120450D01*
X397191Y119943D01*
X397108Y119500D01*
G01X402900Y418000D02*
G03I-5000J0D01*
G01X389000D02*
G03I-5000J0D01*
G01X402900Y431900D02*
G03I-5000J0D01*
G01X389000D02*
G03I-5000J0D01*
G01X402900Y445800D02*
G03I-5000J0D01*
G01X388900D02*
G03I-5000J0D01*
G01X402900Y459700D02*
G03I-5000J0D01*
G01X388800D02*
G03I-5000J0D01*
G01X418898Y21957D02*
X431102D01*
Y41643D01*
X418898D01*
Y21957D01*
G01X426433Y53234D02*
X426414Y49651D01*
X426663Y48899D01*
X427167Y48397D01*
X427800Y48227D01*
X428434Y48390D01*
X428944Y48887D01*
X429201Y49636D01*
X429220Y53219D01*
G01X433660Y48196D02*
X433687Y53196D01*
X431324Y49625D01*
X434491Y49608D01*
G01X436926Y48762D02*
X437367Y48343D01*
X437873Y48174D01*
X438381Y48338D01*
X438827Y48835D01*
X439148Y49584D01*
X439278Y50333D01*
X439283Y51249D01*
X439160Y52000D01*
X438847Y52668D01*
X438469Y53004D01*
X438026Y53173D01*
X437519Y53009D01*
X437137Y52678D01*
X436881Y52179D01*
X436751Y51513D01*
X436875Y50929D01*
X437188Y50344D01*
X437566Y50008D01*
X438009Y49923D01*
X438517Y50087D01*
X438899Y50501D01*
X439283Y51249D01*
G01X425239Y116817D02*
Y131383D01*
X405161D01*
Y116817D01*
X425239D01*
G01X422057Y267400D02*
Y272400D01*
X423323D01*
X423830Y272150D01*
X424210Y271817D01*
X424527Y271317D01*
X424780Y270733D01*
X424843Y269900D01*
X424780Y269067D01*
X424527Y268483D01*
X424210Y267983D01*
X423830Y267650D01*
X423323Y267400D01*
X422057D01*
G01X428550D02*
Y272400D01*
X427790Y271400D01*
G01Y267400D02*
X429310D01*
G01X412100Y271078D02*
Y268322D01*
G01X422057Y276600D02*
Y281600D01*
X423323D01*
X423830Y281350D01*
X424210Y281017D01*
X424527Y280517D01*
X424780Y279933D01*
X424843Y279100D01*
X424780Y278267D01*
X424527Y277683D01*
X424210Y277183D01*
X423830Y276850D01*
X423323Y276600D01*
X422057D01*
G01X427347Y280767D02*
X427727Y281267D01*
X428170Y281517D01*
X428677Y281600D01*
X429310Y281433D01*
X429753Y281017D01*
X429880Y280517D01*
X429817Y280017D01*
X429563Y279600D01*
X428297Y278767D01*
X427727Y278183D01*
X427347Y277350D01*
X427220Y276600D01*
X429880D01*
G01X412100Y280178D02*
Y277422D01*
G01X427100Y357500D02*
G03I-5000J0D01*
G01X427000Y371200D02*
G03I-5000J0D01*
G01X412057Y381000D02*
Y386000D01*
X413323D01*
X413830Y385750D01*
X414210Y385417D01*
X414527Y384917D01*
X414780Y384333D01*
X414843Y383500D01*
X414780Y382667D01*
X414527Y382083D01*
X414210Y381583D01*
X413830Y381250D01*
X413323Y381000D01*
X412057D01*
G01X418550D02*
X418993Y381083D01*
X419500Y381333D01*
X419817Y381750D01*
X419943Y382333D01*
X419817Y382917D01*
X419437Y383417D01*
X418867Y383667D01*
X418233D01*
X417853Y383833D01*
X417537Y384250D01*
X417410Y384833D01*
X417600Y385417D01*
X418043Y385833D01*
X418550Y386000D01*
X419057Y385833D01*
X419500Y385417D01*
X419690Y384833D01*
X419563Y384250D01*
X419247Y383833D01*
X418867Y383667D01*
X418233D01*
X417663Y383417D01*
X417283Y382917D01*
X417157Y382333D01*
X417283Y381750D01*
X417600Y381333D01*
X418107Y381083D01*
X418550Y381000D01*
G01X403100Y381922D02*
Y384678D01*
G01X405950Y420400D02*
Y415400D01*
G01X404493Y420400D02*
X407407D01*
G01X409783Y415400D02*
Y420400D01*
X411303D01*
X411810Y420150D01*
X412190Y419567D01*
X412317Y418900D01*
X412190Y418233D01*
X411873Y417733D01*
X411303Y417483D01*
X409783D01*
G01X414757Y416400D02*
X415137Y415817D01*
X415643Y415483D01*
X416213Y415400D01*
X416720Y415483D01*
X417227Y415900D01*
X417543Y416400D01*
X417607Y416900D01*
X417480Y417483D01*
X417037Y417900D01*
X416593Y418067D01*
X416023D01*
G01X416593D02*
X416973Y418317D01*
X417290Y418733D01*
X417417Y419233D01*
X417290Y419733D01*
X416973Y420150D01*
X416403Y420400D01*
X415833Y420317D01*
X415263Y419983D01*
G01X421250Y415400D02*
X421693Y415483D01*
X422200Y415733D01*
X422517Y416150D01*
X422643Y416733D01*
X422517Y417317D01*
X422137Y417817D01*
X421567Y418067D01*
X420933D01*
X420553Y418233D01*
X420237Y418650D01*
X420110Y419233D01*
X420300Y419817D01*
X420743Y420233D01*
X421250Y420400D01*
X421757Y420233D01*
X422200Y419817D01*
X422390Y419233D01*
X422263Y418650D01*
X421947Y418233D01*
X421567Y418067D01*
X420933D01*
X420363Y417817D01*
X419983Y417317D01*
X419857Y416733D01*
X419983Y416150D01*
X420300Y415733D01*
X420807Y415483D01*
X421250Y415400D01*
G01X405950Y434600D02*
Y429600D01*
G01X404493Y434600D02*
X407407D01*
G01X409783Y429600D02*
Y434600D01*
X411303D01*
X411810Y434350D01*
X412190Y433767D01*
X412317Y433100D01*
X412190Y432433D01*
X411873Y431933D01*
X411303Y431683D01*
X409783D01*
G01X416910Y429600D02*
Y434600D01*
X414567Y431017D01*
X417733D01*
G01X421250Y434600D02*
X420743Y434433D01*
X420363Y434017D01*
X420110Y433517D01*
X419920Y432850D01*
X419857Y432100D01*
X419920Y431350D01*
X420110Y430683D01*
X420363Y430183D01*
X420743Y429767D01*
X421250Y429600D01*
X421757Y429767D01*
X422137Y430183D01*
X422390Y430683D01*
X422580Y431350D01*
X422643Y432100D01*
X422580Y432850D01*
X422390Y433517D01*
X422137Y434017D01*
X421757Y434433D01*
X421250Y434600D01*
G01X405750Y448700D02*
Y443700D01*
G01X404293Y448700D02*
X407207D01*
G01X409583Y443700D02*
Y448700D01*
X411103D01*
X411610Y448450D01*
X411990Y447867D01*
X412117Y447200D01*
X411990Y446533D01*
X411673Y446033D01*
X411103Y445783D01*
X409583D01*
G01X416710Y443700D02*
Y448700D01*
X414367Y445117D01*
X417533D01*
G01X419847Y447867D02*
X420227Y448367D01*
X420670Y448617D01*
X421177Y448700D01*
X421810Y448533D01*
X422253Y448117D01*
X422380Y447617D01*
X422317Y447117D01*
X422063Y446700D01*
X420797Y445867D01*
X420227Y445283D01*
X419847Y444450D01*
X419720Y443700D01*
X422380D01*
G01X405750Y462500D02*
Y457500D01*
G01X404293Y462500D02*
X407207D01*
G01X409583Y457500D02*
Y462500D01*
X411103D01*
X411610Y462250D01*
X411990Y461667D01*
X412117Y461000D01*
X411990Y460333D01*
X411673Y459833D01*
X411103Y459583D01*
X409583D01*
G01X416710Y457500D02*
Y462500D01*
X414367Y458917D01*
X417533D01*
G01X421810Y457500D02*
Y462500D01*
X419467Y458917D01*
X422633D01*
G01X444407Y418749D02*
X457793D01*
G01D02*
Y449851D01*
G01D02*
X446907D01*
X444407Y447351D01*
Y418749D01*
G01X499200Y348100D02*
G03I-5000J0D01*
G01X499100Y361800D02*
G03I-5000J0D01*
G01X485650Y441300D02*
Y436300D01*
G01X484193Y441300D02*
X487107D01*
G01X489483Y436300D02*
Y441300D01*
X491003D01*
X491510Y441050D01*
X491890Y440467D01*
X492017Y439800D01*
X491890Y439133D01*
X491573Y438633D01*
X491003Y438383D01*
X489483D01*
G01X494647Y440467D02*
X495027Y440967D01*
X495470Y441217D01*
X495977Y441300D01*
X496610Y441133D01*
X497053Y440717D01*
X497180Y440217D01*
X497117Y439717D01*
X496863Y439300D01*
X495597Y438467D01*
X495027Y437883D01*
X494647Y437050D01*
X494520Y436300D01*
X497180D01*
G01X500950D02*
Y441300D01*
X500190Y440300D01*
G01Y436300D02*
X501710D01*
G01X513700Y348100D02*
G03I-5000J0D01*
G01X513600Y361800D02*
G03I-5000J0D01*
G01X500050Y432500D02*
Y427500D01*
G01X498593Y432500D02*
X501507D01*
G01X503883Y427500D02*
Y432500D01*
X505403D01*
X505910Y432250D01*
X506290Y431667D01*
X506417Y431000D01*
X506290Y430333D01*
X505973Y429833D01*
X505403Y429583D01*
X503883D01*
G01X508857Y428500D02*
X509237Y427917D01*
X509743Y427583D01*
X510313Y427500D01*
X510820Y427583D01*
X511327Y428000D01*
X511643Y428500D01*
X511707Y429000D01*
X511580Y429583D01*
X511137Y430000D01*
X510693Y430167D01*
X510123D01*
G01X510693D02*
X511073Y430417D01*
X511390Y430833D01*
X511517Y431333D01*
X511390Y431833D01*
X511073Y432250D01*
X510503Y432500D01*
X509933Y432417D01*
X509363Y432083D01*
G01X515350Y427500D02*
Y432500D01*
X514590Y431500D01*
G01Y427500D02*
X516110D01*
G01X527000Y432400D02*
G03I-5000J0D01*
G01X498750Y420600D02*
Y415600D01*
G01X497293Y420600D02*
X500207D01*
G01X502583Y415600D02*
Y420600D01*
X504103D01*
X504610Y420350D01*
X504990Y419767D01*
X505117Y419100D01*
X504990Y418433D01*
X504673Y417933D01*
X504103Y417683D01*
X502583D01*
G01X507557Y416600D02*
X507937Y416017D01*
X508443Y415683D01*
X509013Y415600D01*
X509520Y415683D01*
X510027Y416100D01*
X510343Y416600D01*
X510407Y417100D01*
X510280Y417683D01*
X509837Y418100D01*
X509393Y418267D01*
X508823D01*
G01X509393D02*
X509773Y418517D01*
X510090Y418933D01*
X510217Y419433D01*
X510090Y419933D01*
X509773Y420350D01*
X509203Y420600D01*
X508633Y420517D01*
X508063Y420183D01*
G01X512657Y416600D02*
X513037Y416017D01*
X513543Y415683D01*
X514113Y415600D01*
X514620Y415683D01*
X515127Y416100D01*
X515443Y416600D01*
X515507Y417100D01*
X515380Y417683D01*
X514937Y418100D01*
X514493Y418267D01*
X513923D01*
G01X514493D02*
X514873Y418517D01*
X515190Y418933D01*
X515317Y419433D01*
X515190Y419933D01*
X514873Y420350D01*
X514303Y420600D01*
X513733Y420517D01*
X513163Y420183D01*
G01X527000Y418500D02*
G03I-5000J0D01*
G01X498550Y462700D02*
Y457700D01*
G01X497093Y462700D02*
X500007D01*
G01X502383Y457700D02*
Y462700D01*
X503903D01*
X504410Y462450D01*
X504790Y461867D01*
X504917Y461200D01*
X504790Y460533D01*
X504473Y460033D01*
X503903Y459783D01*
X502383D01*
G01X507547Y461867D02*
X507927Y462367D01*
X508370Y462617D01*
X508877Y462700D01*
X509510Y462533D01*
X509953Y462117D01*
X510080Y461617D01*
X510017Y461117D01*
X509763Y460700D01*
X508497Y459867D01*
X507927Y459283D01*
X507547Y458450D01*
X507420Y457700D01*
X510080D01*
G01X512457Y458450D02*
X512837Y458033D01*
X513280Y457783D01*
X513850Y457700D01*
X514420Y457867D01*
X514863Y458200D01*
X515180Y458783D01*
X515243Y459450D01*
X515117Y460117D01*
X514800Y460533D01*
X514357Y460867D01*
X513913Y460950D01*
X513470Y460867D01*
X512900Y460533D01*
X513090Y462700D01*
X514800D01*
G01X527000Y460200D02*
G03I-5000J0D01*
G01X498550Y450200D02*
Y445200D01*
G01X497093Y450200D02*
X500007D01*
G01X502383Y445200D02*
Y450200D01*
X503903D01*
X504410Y449950D01*
X504790Y449367D01*
X504917Y448700D01*
X504790Y448033D01*
X504473Y447533D01*
X503903Y447283D01*
X502383D01*
G01X507357Y446200D02*
X507737Y445617D01*
X508243Y445283D01*
X508813Y445200D01*
X509320Y445283D01*
X509827Y445700D01*
X510143Y446200D01*
X510207Y446700D01*
X510080Y447283D01*
X509637Y447700D01*
X509193Y447867D01*
X508623D01*
G01X509193D02*
X509573Y448117D01*
X509890Y448533D01*
X510017Y449033D01*
X509890Y449533D01*
X509573Y449950D01*
X509003Y450200D01*
X508433Y450117D01*
X507863Y449783D01*
G01X514610Y445200D02*
Y450200D01*
X512267Y446617D01*
X515433D01*
G01X527000Y446300D02*
G03I-5000J0D01*
G01X513100Y438900D02*
G03I-5000J0D01*
G01X542550Y434800D02*
Y429800D01*
G01X541093Y434800D02*
X544007D01*
G01X546383Y429800D02*
Y434800D01*
X547903D01*
X548410Y434550D01*
X548790Y433967D01*
X548917Y433300D01*
X548790Y432633D01*
X548473Y432133D01*
X547903Y431883D01*
X546383D01*
G01X551357Y430800D02*
X551737Y430217D01*
X552243Y429883D01*
X552813Y429800D01*
X553320Y429883D01*
X553827Y430300D01*
X554143Y430800D01*
X554207Y431300D01*
X554080Y431883D01*
X553637Y432300D01*
X553193Y432467D01*
X552623D01*
G01X553193D02*
X553573Y432717D01*
X553890Y433133D01*
X554017Y433633D01*
X553890Y434133D01*
X553573Y434550D01*
X553003Y434800D01*
X552433Y434717D01*
X551863Y434383D01*
G01X557850Y434800D02*
X557343Y434633D01*
X556963Y434217D01*
X556710Y433717D01*
X556520Y433050D01*
X556457Y432300D01*
X556520Y431550D01*
X556710Y430883D01*
X556963Y430383D01*
X557343Y429967D01*
X557850Y429800D01*
X558357Y429967D01*
X558737Y430383D01*
X558990Y430883D01*
X559180Y431550D01*
X559243Y432300D01*
X559180Y433050D01*
X558990Y433717D01*
X558737Y434217D01*
X558357Y434633D01*
X557850Y434800D01*
G01X539700Y432600D02*
G03I-5000J0D01*
G01X542850Y421200D02*
Y416200D01*
G01X541393Y421200D02*
X544307D01*
G01X546683Y416200D02*
Y421200D01*
X548203D01*
X548710Y420950D01*
X549090Y420367D01*
X549217Y419700D01*
X549090Y419033D01*
X548773Y418533D01*
X548203Y418283D01*
X546683D01*
G01X551657Y417200D02*
X552037Y416617D01*
X552543Y416283D01*
X553113Y416200D01*
X553620Y416283D01*
X554127Y416700D01*
X554443Y417200D01*
X554507Y417700D01*
X554380Y418283D01*
X553937Y418700D01*
X553493Y418867D01*
X552923D01*
G01X553493D02*
X553873Y419117D01*
X554190Y419533D01*
X554317Y420033D01*
X554190Y420533D01*
X553873Y420950D01*
X553303Y421200D01*
X552733Y421117D01*
X552163Y420783D01*
G01X556947Y420367D02*
X557327Y420867D01*
X557770Y421117D01*
X558277Y421200D01*
X558910Y421033D01*
X559353Y420617D01*
X559480Y420117D01*
X559417Y419617D01*
X559163Y419200D01*
X557897Y418367D01*
X557327Y417783D01*
X556947Y416950D01*
X556820Y416200D01*
X559480D01*
G01X539700Y418700D02*
G03I-5000J0D01*
G01X542650Y462800D02*
Y457800D01*
G01X541193Y462800D02*
X544107D01*
G01X546483Y457800D02*
Y462800D01*
X548003D01*
X548510Y462550D01*
X548890Y461967D01*
X549017Y461300D01*
X548890Y460633D01*
X548573Y460133D01*
X548003Y459883D01*
X546483D01*
G01X551647Y461967D02*
X552027Y462467D01*
X552470Y462717D01*
X552977Y462800D01*
X553610Y462633D01*
X554053Y462217D01*
X554180Y461717D01*
X554117Y461217D01*
X553863Y460800D01*
X552597Y459967D01*
X552027Y459383D01*
X551647Y458550D01*
X551520Y457800D01*
X554180D01*
G01X556747Y459883D02*
X557190Y460467D01*
X557570Y460800D01*
X558077Y460967D01*
X558520Y460800D01*
X558837Y460467D01*
X559090Y459967D01*
X559153Y459383D01*
X559090Y458883D01*
X558837Y458383D01*
X558457Y457967D01*
X558013Y457800D01*
X557507Y457967D01*
X557063Y458467D01*
X556810Y459217D01*
X556747Y460050D01*
X556873Y461133D01*
X557063Y461717D01*
X557380Y462300D01*
X557823Y462717D01*
X558267Y462800D01*
X558710Y462633D01*
X559027Y462217D01*
G01X539700Y460400D02*
G03I-5000J0D01*
G01X542750Y448900D02*
Y443900D01*
G01X541293Y448900D02*
X544207D01*
G01X546583Y443900D02*
Y448900D01*
X548103D01*
X548610Y448650D01*
X548990Y448067D01*
X549117Y447400D01*
X548990Y446733D01*
X548673Y446233D01*
X548103Y445983D01*
X546583D01*
G01X551557Y444900D02*
X551937Y444317D01*
X552443Y443983D01*
X553013Y443900D01*
X553520Y443983D01*
X554027Y444400D01*
X554343Y444900D01*
X554407Y445400D01*
X554280Y445983D01*
X553837Y446400D01*
X553393Y446567D01*
X552823D01*
G01X553393D02*
X553773Y446817D01*
X554090Y447233D01*
X554217Y447733D01*
X554090Y448233D01*
X553773Y448650D01*
X553203Y448900D01*
X552633Y448817D01*
X552063Y448483D01*
G01X556657Y444650D02*
X557037Y444233D01*
X557480Y443983D01*
X558050Y443900D01*
X558620Y444067D01*
X559063Y444400D01*
X559380Y444983D01*
X559443Y445650D01*
X559317Y446317D01*
X559000Y446733D01*
X558557Y447067D01*
X558113Y447150D01*
X557670Y447067D01*
X557100Y446733D01*
X557290Y448900D01*
X559000D01*
G01X539700Y446500D02*
G03I-5000J0D01*
G01X641300Y305993D02*
X646300D01*
Y304727D01*
X646050Y304220D01*
X645717Y303840D01*
X645217Y303523D01*
X644633Y303270D01*
X643800Y303207D01*
X642967Y303270D01*
X642383Y303523D01*
X641883Y303840D01*
X641550Y304220D01*
X641300Y304727D01*
Y305993D01*
G01X642300Y300893D02*
X641717Y300513D01*
X641383Y300007D01*
X641300Y299437D01*
X641383Y298930D01*
X641800Y298423D01*
X642300Y298107D01*
X642800Y298043D01*
X643383Y298170D01*
X643800Y298613D01*
X643967Y299057D01*
Y299627D01*
G01Y299057D02*
X644217Y298677D01*
X644633Y298360D01*
X645133Y298233D01*
X645633Y298360D01*
X646050Y298677D01*
X646300Y299247D01*
X646217Y299817D01*
X645883Y300387D01*
G01X643383Y295603D02*
X643967Y295160D01*
X644300Y294780D01*
X644467Y294273D01*
X644300Y293830D01*
X643967Y293513D01*
X643467Y293260D01*
X642883Y293197D01*
X642383Y293260D01*
X641883Y293513D01*
X641467Y293893D01*
X641300Y294337D01*
X641467Y294843D01*
X641967Y295287D01*
X642717Y295540D01*
X643550Y295603D01*
X644633Y295477D01*
X645217Y295287D01*
X645800Y294970D01*
X646217Y294527D01*
X646300Y294083D01*
X646133Y293640D01*
X645717Y293323D01*
G01X628100Y426993D02*
X633100D01*
Y425727D01*
X632850Y425220D01*
X632517Y424840D01*
X632017Y424523D01*
X631433Y424270D01*
X630600Y424207D01*
X629767Y424270D01*
X629183Y424523D01*
X628683Y424840D01*
X628350Y425220D01*
X628100Y425727D01*
Y426993D01*
G01X629100Y421893D02*
X628517Y421513D01*
X628183Y421007D01*
X628100Y420437D01*
X628183Y419930D01*
X628600Y419423D01*
X629100Y419107D01*
X629600Y419043D01*
X630183Y419170D01*
X630600Y419613D01*
X630767Y420057D01*
Y420627D01*
G01Y420057D02*
X631017Y419677D01*
X631433Y419360D01*
X631933Y419233D01*
X632433Y419360D01*
X632850Y419677D01*
X633100Y420247D01*
X633017Y420817D01*
X632683Y421387D01*
G01X628100Y415527D02*
X629183Y415400D01*
X630100Y415210D01*
X630933Y414957D01*
X631850Y414640D01*
X633100Y414133D01*
Y416667D01*
G01X635822Y421500D02*
X638578D01*
G01X656500Y305693D02*
X661500D01*
Y304427D01*
X661250Y303920D01*
X660917Y303540D01*
X660417Y303223D01*
X659833Y302970D01*
X659000Y302907D01*
X658167Y302970D01*
X657583Y303223D01*
X657083Y303540D01*
X656750Y303920D01*
X656500Y304427D01*
Y305693D01*
G01X657500Y300593D02*
X656917Y300213D01*
X656583Y299707D01*
X656500Y299137D01*
X656583Y298630D01*
X657000Y298123D01*
X657500Y297807D01*
X658000Y297743D01*
X658583Y297870D01*
X659000Y298313D01*
X659167Y298757D01*
Y299327D01*
G01Y298757D02*
X659417Y298377D01*
X659833Y298060D01*
X660333Y297933D01*
X660833Y298060D01*
X661250Y298377D01*
X661500Y298947D01*
X661417Y299517D01*
X661083Y300087D01*
G01X656500Y294100D02*
X656583Y293657D01*
X656833Y293150D01*
X657250Y292833D01*
X657833Y292707D01*
X658417Y292833D01*
X658917Y293213D01*
X659167Y293783D01*
Y294417D01*
X659333Y294797D01*
X659750Y295113D01*
X660333Y295240D01*
X660917Y295050D01*
X661333Y294607D01*
X661500Y294100D01*
X661333Y293593D01*
X660917Y293150D01*
X660333Y292960D01*
X659750Y293087D01*
X659333Y293403D01*
X659167Y293783D01*
Y294417D01*
X658917Y294987D01*
X658417Y295367D01*
X657833Y295493D01*
X657250Y295367D01*
X656833Y295050D01*
X656583Y294543D01*
X656500Y294100D01*
G01X664122Y300200D02*
X666878D01*
G01X648922Y300500D02*
X651678D01*
G01X666000Y426793D02*
X671000D01*
Y425527D01*
X670750Y425020D01*
X670417Y424640D01*
X669917Y424323D01*
X669333Y424070D01*
X668500Y424007D01*
X667667Y424070D01*
X667083Y424323D01*
X666583Y424640D01*
X666250Y425020D01*
X666000Y425527D01*
Y426793D01*
G01X667000Y421693D02*
X666417Y421313D01*
X666083Y420807D01*
X666000Y420237D01*
X666083Y419730D01*
X666500Y419223D01*
X667000Y418907D01*
X667500Y418843D01*
X668083Y418970D01*
X668500Y419413D01*
X668667Y419857D01*
Y420427D01*
G01Y419857D02*
X668917Y419477D01*
X669333Y419160D01*
X669833Y419033D01*
X670333Y419160D01*
X670750Y419477D01*
X671000Y420047D01*
X670917Y420617D01*
X670583Y421187D01*
G01X666583Y416277D02*
X666167Y415833D01*
X666000Y415327D01*
X666167Y414820D01*
X666667Y414377D01*
X667417Y414060D01*
X668167Y413933D01*
X669083D01*
X669833Y414060D01*
X670500Y414377D01*
X670833Y414757D01*
X671000Y415200D01*
X670833Y415707D01*
X670500Y416087D01*
X670000Y416340D01*
X669333Y416467D01*
X668750Y416340D01*
X668167Y416023D01*
X667833Y415643D01*
X667750Y415200D01*
X667917Y414693D01*
X668333Y414313D01*
X669083Y413933D01*
G01X691450Y375547D02*
Y370547D01*
G01X689993Y375547D02*
X692907D01*
G01X695283Y370547D02*
Y375547D01*
X696803D01*
X697310Y375297D01*
X697690Y374714D01*
X697817Y374047D01*
X697690Y373380D01*
X697373Y372880D01*
X696803Y372630D01*
X695283D01*
G01X700447D02*
X700890Y373214D01*
X701270Y373547D01*
X701777Y373714D01*
X702220Y373547D01*
X702537Y373214D01*
X702790Y372714D01*
X702853Y372130D01*
X702790Y371630D01*
X702537Y371130D01*
X702157Y370714D01*
X701713Y370547D01*
X701207Y370714D01*
X700763Y371214D01*
X700510Y371964D01*
X700447Y372797D01*
X700573Y373880D01*
X700763Y374464D01*
X701080Y375047D01*
X701523Y375464D01*
X701967Y375547D01*
X702410Y375380D01*
X702727Y374964D01*
G01X706750Y370547D02*
Y375547D01*
X705990Y374547D01*
G01Y370547D02*
X707510D01*
G01X704100Y373500D02*
G03I-5000J0D01*
G01X691050Y354200D02*
Y349200D01*
G01X689593Y354200D02*
X692507D01*
G01X694883Y349200D02*
Y354200D01*
X696403D01*
X696910Y353950D01*
X697290Y353367D01*
X697417Y352700D01*
X697290Y352033D01*
X696973Y351533D01*
X696403Y351283D01*
X694883D01*
G01X701123Y349200D02*
X701250Y350283D01*
X701440Y351200D01*
X701693Y352033D01*
X702010Y352950D01*
X702517Y354200D01*
X699983D01*
G01X705147Y353367D02*
X705527Y353867D01*
X705970Y354117D01*
X706477Y354200D01*
X707110Y354033D01*
X707553Y353617D01*
X707680Y353117D01*
X707617Y352617D01*
X707363Y352200D01*
X706097Y351367D01*
X705527Y350783D01*
X705147Y349950D01*
X705020Y349200D01*
X707680D01*
G01X704100Y360900D02*
G03I-5000J0D01*
G01Y386000D02*
G03I-5000J0D01*
G01X673622Y421500D02*
X676378D01*
G01X728200Y305993D02*
X733200D01*
Y304727D01*
X732950Y304220D01*
X732617Y303840D01*
X732117Y303523D01*
X731533Y303270D01*
X730700Y303207D01*
X729867Y303270D01*
X729283Y303523D01*
X728783Y303840D01*
X728450Y304220D01*
X728200Y304727D01*
Y305993D01*
G01X729200Y300893D02*
X728617Y300513D01*
X728283Y300007D01*
X728200Y299437D01*
X728283Y298930D01*
X728700Y298423D01*
X729200Y298107D01*
X729700Y298043D01*
X730283Y298170D01*
X730700Y298613D01*
X730867Y299057D01*
Y299627D01*
G01Y299057D02*
X731117Y298677D01*
X731533Y298360D01*
X732033Y298233D01*
X732533Y298360D01*
X732950Y298677D01*
X733200Y299247D01*
X733117Y299817D01*
X732783Y300387D01*
G01X732367Y295603D02*
X732867Y295223D01*
X733117Y294780D01*
X733200Y294273D01*
X733033Y293640D01*
X732617Y293197D01*
X732117Y293070D01*
X731617Y293133D01*
X731200Y293387D01*
X730367Y294653D01*
X729783Y295223D01*
X728950Y295603D01*
X728200Y295730D01*
Y293070D01*
G01X706550Y389200D02*
Y384200D01*
G01X705093Y389200D02*
X708007D01*
G01X710383Y384200D02*
Y389200D01*
X711903D01*
X712410Y388950D01*
X712790Y388367D01*
X712917Y387700D01*
X712790Y387033D01*
X712473Y386533D01*
X711903Y386283D01*
X710383D01*
G01X715357Y384950D02*
X715737Y384533D01*
X716180Y384283D01*
X716750Y384200D01*
X717320Y384367D01*
X717763Y384700D01*
X718080Y385283D01*
X718143Y385950D01*
X718017Y386617D01*
X717700Y387033D01*
X717257Y387367D01*
X716813Y387450D01*
X716370Y387367D01*
X715800Y387033D01*
X715990Y389200D01*
X717700D01*
G01X720457Y384950D02*
X720837Y384533D01*
X721280Y384283D01*
X721850Y384200D01*
X722420Y384367D01*
X722863Y384700D01*
X723180Y385283D01*
X723243Y385950D01*
X723117Y386617D01*
X722800Y387033D01*
X722357Y387367D01*
X721913Y387450D01*
X721470Y387367D01*
X720900Y387033D01*
X721090Y389200D01*
X722800D01*
G01X715200Y426993D02*
X720200D01*
Y425727D01*
X719950Y425220D01*
X719617Y424840D01*
X719117Y424523D01*
X718533Y424270D01*
X717700Y424207D01*
X716867Y424270D01*
X716283Y424523D01*
X715783Y424840D01*
X715450Y425220D01*
X715200Y425727D01*
Y426993D01*
G01X716200Y421893D02*
X715617Y421513D01*
X715283Y421007D01*
X715200Y420437D01*
X715283Y419930D01*
X715700Y419423D01*
X716200Y419107D01*
X716700Y419043D01*
X717283Y419170D01*
X717700Y419613D01*
X717867Y420057D01*
Y420627D01*
G01Y420057D02*
X718117Y419677D01*
X718533Y419360D01*
X719033Y419233D01*
X719533Y419360D01*
X719950Y419677D01*
X720200Y420247D01*
X720117Y420817D01*
X719783Y421387D01*
G01X716200Y416793D02*
X715617Y416413D01*
X715283Y415907D01*
X715200Y415337D01*
X715283Y414830D01*
X715700Y414323D01*
X716200Y414007D01*
X716700Y413943D01*
X717283Y414070D01*
X717700Y414513D01*
X717867Y414957D01*
Y415527D01*
G01Y414957D02*
X718117Y414577D01*
X718533Y414260D01*
X719033Y414133D01*
X719533Y414260D01*
X719950Y414577D01*
X720200Y415147D01*
X720117Y415717D01*
X719783Y416287D01*
G01X722922Y421500D02*
X725678D01*
G01X743400Y305693D02*
X748400D01*
Y304427D01*
X748150Y303920D01*
X747817Y303540D01*
X747317Y303223D01*
X746733Y302970D01*
X745900Y302907D01*
X745067Y302970D01*
X744483Y303223D01*
X743983Y303540D01*
X743650Y303920D01*
X743400Y304427D01*
Y305693D01*
G01X744400Y300593D02*
X743817Y300213D01*
X743483Y299707D01*
X743400Y299137D01*
X743483Y298630D01*
X743900Y298123D01*
X744400Y297807D01*
X744900Y297743D01*
X745483Y297870D01*
X745900Y298313D01*
X746067Y298757D01*
Y299327D01*
G01Y298757D02*
X746317Y298377D01*
X746733Y298060D01*
X747233Y297933D01*
X747733Y298060D01*
X748150Y298377D01*
X748400Y298947D01*
X748317Y299517D01*
X747983Y300087D01*
G01X743400Y293340D02*
X748400D01*
X744817Y295683D01*
Y292517D01*
G01X751222Y300200D02*
X753978D01*
G01X736022Y300500D02*
X738778D01*
G01X752600Y427093D02*
X757600D01*
Y425827D01*
X757350Y425320D01*
X757017Y424940D01*
X756517Y424623D01*
X755933Y424370D01*
X755100Y424307D01*
X754267Y424370D01*
X753683Y424623D01*
X753183Y424940D01*
X752850Y425320D01*
X752600Y425827D01*
Y427093D01*
G01X753600Y421993D02*
X753017Y421613D01*
X752683Y421107D01*
X752600Y420537D01*
X752683Y420030D01*
X753100Y419523D01*
X753600Y419207D01*
X754100Y419143D01*
X754683Y419270D01*
X755100Y419713D01*
X755267Y420157D01*
Y420727D01*
G01Y420157D02*
X755517Y419777D01*
X755933Y419460D01*
X756433Y419333D01*
X756933Y419460D01*
X757350Y419777D01*
X757600Y420347D01*
X757517Y420917D01*
X757183Y421487D01*
G01X753350Y416893D02*
X752933Y416513D01*
X752683Y416070D01*
X752600Y415500D01*
X752767Y414930D01*
X753100Y414487D01*
X753683Y414170D01*
X754350Y414107D01*
X755017Y414233D01*
X755433Y414550D01*
X755767Y414993D01*
X755850Y415437D01*
X755767Y415880D01*
X755433Y416450D01*
X757600Y416260D01*
Y414550D01*
G01X760722Y421500D02*
X763478D01*
G01X778850Y375547D02*
Y370547D01*
G01X777393Y375547D02*
X780307D01*
G01X782683Y370547D02*
Y375547D01*
X784203D01*
X784710Y375297D01*
X785090Y374714D01*
X785217Y374047D01*
X785090Y373380D01*
X784773Y372880D01*
X784203Y372630D01*
X782683D01*
G01X787847D02*
X788290Y373214D01*
X788670Y373547D01*
X789177Y373714D01*
X789620Y373547D01*
X789937Y373214D01*
X790190Y372714D01*
X790253Y372130D01*
X790190Y371630D01*
X789937Y371130D01*
X789557Y370714D01*
X789113Y370547D01*
X788607Y370714D01*
X788163Y371214D01*
X787910Y371964D01*
X787847Y372797D01*
X787973Y373880D01*
X788163Y374464D01*
X788480Y375047D01*
X788923Y375464D01*
X789367Y375547D01*
X789810Y375380D01*
X790127Y374964D01*
G01X794150Y375547D02*
X793643Y375380D01*
X793263Y374964D01*
X793010Y374464D01*
X792820Y373797D01*
X792757Y373047D01*
X792820Y372297D01*
X793010Y371630D01*
X793263Y371130D01*
X793643Y370714D01*
X794150Y370547D01*
X794657Y370714D01*
X795037Y371130D01*
X795290Y371630D01*
X795480Y372297D01*
X795543Y373047D01*
X795480Y373797D01*
X795290Y374464D01*
X795037Y374964D01*
X794657Y375380D01*
X794150Y375547D01*
G01X791500Y373500D02*
G03I-5000J0D01*
G01X780150Y354300D02*
Y349300D01*
G01X778693Y354300D02*
X781607D01*
G01X783983Y349300D02*
Y354300D01*
X785503D01*
X786010Y354050D01*
X786390Y353467D01*
X786517Y352800D01*
X786390Y352133D01*
X786073Y351633D01*
X785503Y351383D01*
X783983D01*
G01X790223Y349300D02*
X790350Y350383D01*
X790540Y351300D01*
X790793Y352133D01*
X791110Y353050D01*
X791617Y354300D01*
X789083D01*
G01X795450D02*
X794943Y354133D01*
X794563Y353717D01*
X794310Y353217D01*
X794120Y352550D01*
X794057Y351800D01*
X794120Y351050D01*
X794310Y350383D01*
X794563Y349883D01*
X794943Y349467D01*
X795450Y349300D01*
X795957Y349467D01*
X796337Y349883D01*
X796590Y350383D01*
X796780Y351050D01*
X796843Y351800D01*
X796780Y352550D01*
X796590Y353217D01*
X796337Y353717D01*
X795957Y354133D01*
X795450Y354300D01*
G01X791600Y360900D02*
G03I-5000J0D01*
G01Y386000D02*
G03I-5000J0D01*
G01X816200Y306093D02*
X821200D01*
Y304827D01*
X820950Y304320D01*
X820617Y303940D01*
X820117Y303623D01*
X819533Y303370D01*
X818700Y303307D01*
X817867Y303370D01*
X817283Y303623D01*
X816783Y303940D01*
X816450Y304320D01*
X816200Y304827D01*
Y306093D01*
G01X820367Y300803D02*
X820867Y300423D01*
X821117Y299980D01*
X821200Y299473D01*
X821033Y298840D01*
X820617Y298397D01*
X820117Y298270D01*
X819617Y298333D01*
X819200Y298587D01*
X818367Y299853D01*
X817783Y300423D01*
X816950Y300803D01*
X816200Y300930D01*
Y298270D01*
G01Y294500D02*
X816283Y294057D01*
X816533Y293550D01*
X816950Y293233D01*
X817533Y293107D01*
X818117Y293233D01*
X818617Y293613D01*
X818867Y294183D01*
Y294817D01*
X819033Y295197D01*
X819450Y295513D01*
X820033Y295640D01*
X820617Y295450D01*
X821033Y295007D01*
X821200Y294500D01*
X821033Y293993D01*
X820617Y293550D01*
X820033Y293360D01*
X819450Y293487D01*
X819033Y293803D01*
X818867Y294183D01*
Y294817D01*
X818617Y295387D01*
X818117Y295767D01*
X817533Y295893D01*
X816950Y295767D01*
X816533Y295450D01*
X816283Y294943D01*
X816200Y294500D01*
G01X794350Y389300D02*
Y384300D01*
G01X792893Y389300D02*
X795807D01*
G01X798183Y384300D02*
Y389300D01*
X799703D01*
X800210Y389050D01*
X800590Y388467D01*
X800717Y387800D01*
X800590Y387133D01*
X800273Y386633D01*
X799703Y386383D01*
X798183D01*
G01X803157Y385050D02*
X803537Y384633D01*
X803980Y384383D01*
X804550Y384300D01*
X805120Y384467D01*
X805563Y384800D01*
X805880Y385383D01*
X805943Y386050D01*
X805817Y386717D01*
X805500Y387133D01*
X805057Y387467D01*
X804613Y387550D01*
X804170Y387467D01*
X803600Y387133D01*
X803790Y389300D01*
X805500D01*
G01X810410Y384300D02*
Y389300D01*
X808067Y385717D01*
X811233D01*
G01X803000Y426993D02*
X808000D01*
Y425727D01*
X807750Y425220D01*
X807417Y424840D01*
X806917Y424523D01*
X806333Y424270D01*
X805500Y424207D01*
X804667Y424270D01*
X804083Y424523D01*
X803583Y424840D01*
X803250Y425220D01*
X803000Y425727D01*
Y426993D01*
G01X807167Y421703D02*
X807667Y421323D01*
X807917Y420880D01*
X808000Y420373D01*
X807833Y419740D01*
X807417Y419297D01*
X806917Y419170D01*
X806417Y419233D01*
X806000Y419487D01*
X805167Y420753D01*
X804583Y421323D01*
X803750Y421703D01*
X803000Y421830D01*
Y419170D01*
G01X803583Y416477D02*
X803167Y416033D01*
X803000Y415527D01*
X803167Y415020D01*
X803667Y414577D01*
X804417Y414260D01*
X805167Y414133D01*
X806083D01*
X806833Y414260D01*
X807500Y414577D01*
X807833Y414957D01*
X808000Y415400D01*
X807833Y415907D01*
X807500Y416287D01*
X807000Y416540D01*
X806333Y416667D01*
X805750Y416540D01*
X805167Y416223D01*
X804833Y415843D01*
X804750Y415400D01*
X804917Y414893D01*
X805333Y414513D01*
X806083Y414133D01*
G01X810722Y421500D02*
X813478D01*
G01X831200Y305793D02*
X836200D01*
Y304527D01*
X835950Y304020D01*
X835617Y303640D01*
X835117Y303323D01*
X834533Y303070D01*
X833700Y303007D01*
X832867Y303070D01*
X832283Y303323D01*
X831783Y303640D01*
X831450Y304020D01*
X831200Y304527D01*
Y305793D01*
G01X832200Y300693D02*
X831617Y300313D01*
X831283Y299807D01*
X831200Y299237D01*
X831283Y298730D01*
X831700Y298223D01*
X832200Y297907D01*
X832700Y297843D01*
X833283Y297970D01*
X833700Y298413D01*
X833867Y298857D01*
Y299427D01*
G01Y298857D02*
X834117Y298477D01*
X834533Y298160D01*
X835033Y298033D01*
X835533Y298160D01*
X835950Y298477D01*
X836200Y299047D01*
X836117Y299617D01*
X835783Y300187D01*
G01X836200Y294200D02*
X836033Y294707D01*
X835617Y295087D01*
X835117Y295340D01*
X834450Y295530D01*
X833700Y295593D01*
X832950Y295530D01*
X832283Y295340D01*
X831783Y295087D01*
X831367Y294707D01*
X831200Y294200D01*
X831367Y293693D01*
X831783Y293313D01*
X832283Y293060D01*
X832950Y292870D01*
X833700Y292807D01*
X834450Y292870D01*
X835117Y293060D01*
X835617Y293313D01*
X836033Y293693D01*
X836200Y294200D01*
G01X839022Y300200D02*
X841778D01*
G01X823822Y300500D02*
X826578D01*
G01X840700Y427093D02*
X845700D01*
Y425827D01*
X845450Y425320D01*
X845117Y424940D01*
X844617Y424623D01*
X844033Y424370D01*
X843200Y424307D01*
X842367Y424370D01*
X841783Y424623D01*
X841283Y424940D01*
X840950Y425320D01*
X840700Y425827D01*
Y427093D01*
G01X841700Y421993D02*
X841117Y421613D01*
X840783Y421107D01*
X840700Y420537D01*
X840783Y420030D01*
X841200Y419523D01*
X841700Y419207D01*
X842200Y419143D01*
X842783Y419270D01*
X843200Y419713D01*
X843367Y420157D01*
Y420727D01*
G01Y420157D02*
X843617Y419777D01*
X844033Y419460D01*
X844533Y419333D01*
X845033Y419460D01*
X845450Y419777D01*
X845700Y420347D01*
X845617Y420917D01*
X845283Y421487D01*
G01X840700Y415500D02*
X845700D01*
X844700Y416260D01*
G01X840700D02*
Y414740D01*
G01X848522Y421500D02*
X851278D01*
G01X873650Y375547D02*
Y370547D01*
G01X872193Y375547D02*
X875107D01*
G01X877483Y370547D02*
Y375547D01*
X879003D01*
X879510Y375297D01*
X879890Y374714D01*
X880017Y374047D01*
X879890Y373380D01*
X879573Y372880D01*
X879003Y372630D01*
X877483D01*
G01X882457Y371297D02*
X882837Y370880D01*
X883280Y370630D01*
X883850Y370547D01*
X884420Y370714D01*
X884863Y371047D01*
X885180Y371630D01*
X885243Y372297D01*
X885117Y372964D01*
X884800Y373380D01*
X884357Y373714D01*
X883913Y373797D01*
X883470Y373714D01*
X882900Y373380D01*
X883090Y375547D01*
X884800D01*
G01X887873Y371130D02*
X888317Y370714D01*
X888823Y370547D01*
X889330Y370714D01*
X889773Y371214D01*
X890090Y371964D01*
X890217Y372714D01*
Y373630D01*
X890090Y374380D01*
X889773Y375047D01*
X889393Y375380D01*
X888950Y375547D01*
X888443Y375380D01*
X888063Y375047D01*
X887810Y374547D01*
X887683Y373880D01*
X887810Y373297D01*
X888127Y372714D01*
X888507Y372380D01*
X888950Y372297D01*
X889457Y372464D01*
X889837Y372880D01*
X890217Y373630D01*
G01X886300Y373500D02*
G03I-5000J0D01*
G01X874050Y354500D02*
Y349500D01*
G01X872593Y354500D02*
X875507D01*
G01X877883Y349500D02*
Y354500D01*
X879403D01*
X879910Y354250D01*
X880290Y353667D01*
X880417Y353000D01*
X880290Y352333D01*
X879973Y351833D01*
X879403Y351583D01*
X877883D01*
G01X883047D02*
X883490Y352167D01*
X883870Y352500D01*
X884377Y352667D01*
X884820Y352500D01*
X885137Y352167D01*
X885390Y351667D01*
X885453Y351083D01*
X885390Y350583D01*
X885137Y350083D01*
X884757Y349667D01*
X884313Y349500D01*
X883807Y349667D01*
X883363Y350167D01*
X883110Y350917D01*
X883047Y351750D01*
X883173Y352833D01*
X883363Y353417D01*
X883680Y354000D01*
X884123Y354417D01*
X884567Y354500D01*
X885010Y354333D01*
X885327Y353917D01*
G01X889350Y349500D02*
X889793Y349583D01*
X890300Y349833D01*
X890617Y350250D01*
X890743Y350833D01*
X890617Y351417D01*
X890237Y351917D01*
X889667Y352167D01*
X889033D01*
X888653Y352333D01*
X888337Y352750D01*
X888210Y353333D01*
X888400Y353917D01*
X888843Y354333D01*
X889350Y354500D01*
X889857Y354333D01*
X890300Y353917D01*
X890490Y353333D01*
X890363Y352750D01*
X890047Y352333D01*
X889667Y352167D01*
X889033D01*
X888463Y351917D01*
X888083Y351417D01*
X887957Y350833D01*
X888083Y350250D01*
X888400Y349833D01*
X888907Y349583D01*
X889350Y349500D01*
G01X886300Y360900D02*
G03I-5000J0D01*
G01X874450Y397000D02*
Y392000D01*
G01X872993Y397000D02*
X875907D01*
G01X878283Y392000D02*
Y397000D01*
X879803D01*
X880310Y396750D01*
X880690Y396167D01*
X880817Y395500D01*
X880690Y394833D01*
X880373Y394333D01*
X879803Y394083D01*
X878283D01*
G01X883257Y392750D02*
X883637Y392333D01*
X884080Y392083D01*
X884650Y392000D01*
X885220Y392167D01*
X885663Y392500D01*
X885980Y393083D01*
X886043Y393750D01*
X885917Y394417D01*
X885600Y394833D01*
X885157Y395167D01*
X884713Y395250D01*
X884270Y395167D01*
X883700Y394833D01*
X883890Y397000D01*
X885600D01*
G01X888357Y393000D02*
X888737Y392417D01*
X889243Y392083D01*
X889813Y392000D01*
X890320Y392083D01*
X890827Y392500D01*
X891143Y393000D01*
X891207Y393500D01*
X891080Y394083D01*
X890637Y394500D01*
X890193Y394667D01*
X889623D01*
G01X890193D02*
X890573Y394917D01*
X890890Y395333D01*
X891017Y395833D01*
X890890Y396333D01*
X890573Y396750D01*
X890003Y397000D01*
X889433Y396917D01*
X888863Y396583D01*
G01X886300Y386000D02*
G03I-5000J0D01*
G01X913600Y66400D02*
G03I-5000J0D01*
G01X913000Y50200D02*
G03I-5000J0D01*
G01X921600Y7747D02*
X921094Y7835D01*
X920654Y8173D01*
X920279Y8676D01*
X920031Y9262D01*
X919910Y9930D01*
X919916Y10596D01*
X920049Y11262D01*
X920308Y11843D01*
X920693Y12339D01*
X921139Y12668D01*
X921646Y12747D01*
X922152Y12659D01*
X922593Y12322D01*
X922968Y11818D01*
X923216Y11232D01*
X923336Y10565D01*
X923330Y9898D01*
X923197Y9232D01*
X922938Y8651D01*
X922554Y8155D01*
X922107Y7826D01*
X921600Y7747D01*
G01X922119Y9076D02*
X922867Y7735D01*
G01X926700Y7699D02*
X926746Y12699D01*
X925977Y11706D01*
G01X925940Y7706D02*
X927460Y7692D01*
G01X931846Y12651D02*
X931338Y12489D01*
X930954Y12076D01*
X930696Y11578D01*
X930500Y10913D01*
X930430Y10164D01*
X930486Y9414D01*
X930670Y8745D01*
X930919Y8243D01*
X931295Y7823D01*
X931800Y7651D01*
X932308Y7813D01*
X932692Y8226D01*
X932950Y8724D01*
X933146Y9389D01*
X933216Y10138D01*
X933160Y10889D01*
X932976Y11557D01*
X932728Y12059D01*
X932352Y12480D01*
X931846Y12651D01*
G01X928581Y27606D02*
X926219D01*
Y15794D01*
X928581D01*
Y27606D01*
G01X917250Y68500D02*
Y63500D01*
G01X915793Y68500D02*
X918707D01*
G01X921083Y63500D02*
Y68500D01*
X922603D01*
X923110Y68250D01*
X923490Y67667D01*
X923617Y67000D01*
X923490Y66333D01*
X923173Y65833D01*
X922603Y65583D01*
X921083D01*
G01X926247Y67667D02*
X926627Y68167D01*
X927070Y68417D01*
X927577Y68500D01*
X928210Y68333D01*
X928653Y67917D01*
X928780Y67417D01*
X928717Y66917D01*
X928463Y66500D01*
X927197Y65667D01*
X926627Y65083D01*
X926247Y64250D01*
X926120Y63500D01*
X928780D01*
G01X932423D02*
X932550Y64583D01*
X932740Y65500D01*
X932993Y66333D01*
X933310Y67250D01*
X933817Y68500D01*
X931283D01*
G01X917450Y52500D02*
Y47500D01*
G01X915993Y52500D02*
X918907D01*
G01X921283Y47500D02*
Y52500D01*
X922803D01*
X923310Y52250D01*
X923690Y51667D01*
X923817Y51000D01*
X923690Y50333D01*
X923373Y49833D01*
X922803Y49583D01*
X921283D01*
G01X926447Y51667D02*
X926827Y52167D01*
X927270Y52417D01*
X927777Y52500D01*
X928410Y52333D01*
X928853Y51917D01*
X928980Y51417D01*
X928917Y50917D01*
X928663Y50500D01*
X927397Y49667D01*
X926827Y49083D01*
X926447Y48250D01*
X926320Y47500D01*
X928980D01*
G01X932750D02*
X933193Y47583D01*
X933700Y47833D01*
X934017Y48250D01*
X934143Y48833D01*
X934017Y49417D01*
X933637Y49917D01*
X933067Y50167D01*
X932433D01*
X932053Y50333D01*
X931737Y50750D01*
X931610Y51333D01*
X931800Y51917D01*
X932243Y52333D01*
X932750Y52500D01*
X933257Y52333D01*
X933700Y51917D01*
X933890Y51333D01*
X933763Y50750D01*
X933447Y50333D01*
X933067Y50167D01*
X932433D01*
X931863Y49917D01*
X931483Y49417D01*
X931357Y48833D01*
X931483Y48250D01*
X931800Y47833D01*
X932307Y47583D01*
X932750Y47500D01*
G01X931000Y305893D02*
X936000D01*
Y304627D01*
X935750Y304120D01*
X935417Y303740D01*
X934917Y303423D01*
X934333Y303170D01*
X933500Y303107D01*
X932667Y303170D01*
X932083Y303423D01*
X931583Y303740D01*
X931250Y304120D01*
X931000Y304627D01*
Y305893D01*
G01X935167Y300603D02*
X935667Y300223D01*
X935917Y299780D01*
X936000Y299273D01*
X935833Y298640D01*
X935417Y298197D01*
X934917Y298070D01*
X934417Y298133D01*
X934000Y298387D01*
X933167Y299653D01*
X932583Y300223D01*
X931750Y300603D01*
X931000Y300730D01*
Y298070D01*
G01Y293540D02*
X936000D01*
X932417Y295883D01*
Y292717D01*
G01X938822Y300500D02*
X941578D01*
G01X918200Y426893D02*
X923200D01*
Y425627D01*
X922950Y425120D01*
X922617Y424740D01*
X922117Y424423D01*
X921533Y424170D01*
X920700Y424107D01*
X919867Y424170D01*
X919283Y424423D01*
X918783Y424740D01*
X918450Y425120D01*
X918200Y425627D01*
Y426893D01*
G01X922367Y421603D02*
X922867Y421223D01*
X923117Y420780D01*
X923200Y420273D01*
X923033Y419640D01*
X922617Y419197D01*
X922117Y419070D01*
X921617Y419133D01*
X921200Y419387D01*
X920367Y420653D01*
X919783Y421223D01*
X918950Y421603D01*
X918200Y421730D01*
Y419070D01*
G01X918950Y416693D02*
X918533Y416313D01*
X918283Y415870D01*
X918200Y415300D01*
X918367Y414730D01*
X918700Y414287D01*
X919283Y413970D01*
X919950Y413907D01*
X920617Y414033D01*
X921033Y414350D01*
X921367Y414793D01*
X921450Y415237D01*
X921367Y415680D01*
X921033Y416250D01*
X923200Y416060D01*
Y414350D01*
G01X925822Y421500D02*
X928578D01*
G01X946000Y305693D02*
X951000D01*
Y304427D01*
X950750Y303920D01*
X950417Y303540D01*
X949917Y303223D01*
X949333Y302970D01*
X948500Y302907D01*
X947667Y302970D01*
X947083Y303223D01*
X946583Y303540D01*
X946250Y303920D01*
X946000Y304427D01*
Y305693D01*
G01X950167Y300403D02*
X950667Y300023D01*
X950917Y299580D01*
X951000Y299073D01*
X950833Y298440D01*
X950417Y297997D01*
X949917Y297870D01*
X949417Y297933D01*
X949000Y298187D01*
X948167Y299453D01*
X947583Y300023D01*
X946750Y300403D01*
X946000Y300530D01*
Y297870D01*
G01X948083Y295303D02*
X948667Y294860D01*
X949000Y294480D01*
X949167Y293973D01*
X949000Y293530D01*
X948667Y293213D01*
X948167Y292960D01*
X947583Y292897D01*
X947083Y292960D01*
X946583Y293213D01*
X946167Y293593D01*
X946000Y294037D01*
X946167Y294543D01*
X946667Y294987D01*
X947417Y295240D01*
X948250Y295303D01*
X949333Y295177D01*
X949917Y294987D01*
X950500Y294670D01*
X950917Y294227D01*
X951000Y293783D01*
X950833Y293340D01*
X950417Y293023D01*
G01X954022Y300200D02*
X956778D01*
G01X955800Y427093D02*
X960800D01*
Y425827D01*
X960550Y425320D01*
X960217Y424940D01*
X959717Y424623D01*
X959133Y424370D01*
X958300Y424307D01*
X957467Y424370D01*
X956883Y424623D01*
X956383Y424940D01*
X956050Y425320D01*
X955800Y425827D01*
Y427093D01*
G01X959967Y421803D02*
X960467Y421423D01*
X960717Y420980D01*
X960800Y420473D01*
X960633Y419840D01*
X960217Y419397D01*
X959717Y419270D01*
X959217Y419333D01*
X958800Y419587D01*
X957967Y420853D01*
X957383Y421423D01*
X956550Y421803D01*
X955800Y421930D01*
Y419270D01*
G01Y415627D02*
X956883Y415500D01*
X957800Y415310D01*
X958633Y415057D01*
X959550Y414740D01*
X960800Y414233D01*
Y416767D01*
G01X963622Y421500D02*
X966378D01*
G01X981350Y375547D02*
Y370547D01*
G01X979893Y375547D02*
X982807D01*
G01X985183Y370547D02*
Y375547D01*
X986703D01*
X987210Y375297D01*
X987590Y374714D01*
X987717Y374047D01*
X987590Y373380D01*
X987273Y372880D01*
X986703Y372630D01*
X985183D01*
G01X990157Y371297D02*
X990537Y370880D01*
X990980Y370630D01*
X991550Y370547D01*
X992120Y370714D01*
X992563Y371047D01*
X992880Y371630D01*
X992943Y372297D01*
X992817Y372964D01*
X992500Y373380D01*
X992057Y373714D01*
X991613Y373797D01*
X991170Y373714D01*
X990600Y373380D01*
X990790Y375547D01*
X992500D01*
G01X996650Y370547D02*
X997093Y370630D01*
X997600Y370880D01*
X997917Y371297D01*
X998043Y371880D01*
X997917Y372464D01*
X997537Y372964D01*
X996967Y373214D01*
X996333D01*
X995953Y373380D01*
X995637Y373797D01*
X995510Y374380D01*
X995700Y374964D01*
X996143Y375380D01*
X996650Y375547D01*
X997157Y375380D01*
X997600Y374964D01*
X997790Y374380D01*
X997663Y373797D01*
X997347Y373380D01*
X996967Y373214D01*
X996333D01*
X995763Y372964D01*
X995383Y372464D01*
X995257Y371880D01*
X995383Y371297D01*
X995700Y370880D01*
X996207Y370630D01*
X996650Y370547D01*
G01X994000Y373500D02*
G03I-5000J0D01*
G01X981850Y354200D02*
Y349200D01*
G01X980393Y354200D02*
X983307D01*
G01X985683Y349200D02*
Y354200D01*
X987203D01*
X987710Y353950D01*
X988090Y353367D01*
X988217Y352700D01*
X988090Y352033D01*
X987773Y351533D01*
X987203Y351283D01*
X985683D01*
G01X990847D02*
X991290Y351867D01*
X991670Y352200D01*
X992177Y352367D01*
X992620Y352200D01*
X992937Y351867D01*
X993190Y351367D01*
X993253Y350783D01*
X993190Y350283D01*
X992937Y349783D01*
X992557Y349367D01*
X992113Y349200D01*
X991607Y349367D01*
X991163Y349867D01*
X990910Y350617D01*
X990847Y351450D01*
X990973Y352533D01*
X991163Y353117D01*
X991480Y353700D01*
X991923Y354117D01*
X992367Y354200D01*
X992810Y354033D01*
X993127Y353617D01*
G01X995947Y351283D02*
X996390Y351867D01*
X996770Y352200D01*
X997277Y352367D01*
X997720Y352200D01*
X998037Y351867D01*
X998290Y351367D01*
X998353Y350783D01*
X998290Y350283D01*
X998037Y349783D01*
X997657Y349367D01*
X997213Y349200D01*
X996707Y349367D01*
X996263Y349867D01*
X996010Y350617D01*
X995947Y351450D01*
X996073Y352533D01*
X996263Y353117D01*
X996580Y353700D01*
X997023Y354117D01*
X997467Y354200D01*
X997910Y354033D01*
X998227Y353617D01*
G01X994000Y360900D02*
G03I-5000J0D01*
G01X996450Y389400D02*
Y384400D01*
G01X994993Y389400D02*
X997907D01*
G01X1000283Y384400D02*
Y389400D01*
X1001803D01*
X1002310Y389150D01*
X1002690Y388567D01*
X1002817Y387900D01*
X1002690Y387233D01*
X1002373Y386733D01*
X1001803Y386483D01*
X1000283D01*
G01X1005257Y385150D02*
X1005637Y384733D01*
X1006080Y384483D01*
X1006650Y384400D01*
X1007220Y384567D01*
X1007663Y384900D01*
X1007980Y385483D01*
X1008043Y386150D01*
X1007917Y386817D01*
X1007600Y387233D01*
X1007157Y387567D01*
X1006713Y387650D01*
X1006270Y387567D01*
X1005700Y387233D01*
X1005890Y389400D01*
X1007600D01*
G01X1010547Y388567D02*
X1010927Y389067D01*
X1011370Y389317D01*
X1011877Y389400D01*
X1012510Y389233D01*
X1012953Y388817D01*
X1013080Y388317D01*
X1013017Y387817D01*
X1012763Y387400D01*
X1011497Y386567D01*
X1010927Y385983D01*
X1010547Y385150D01*
X1010420Y384400D01*
X1013080D01*
G01X994000Y386000D02*
G03I-5000J0D01*
G01X1018900Y305893D02*
X1023900D01*
Y304627D01*
X1023650Y304120D01*
X1023317Y303740D01*
X1022817Y303423D01*
X1022233Y303170D01*
X1021400Y303107D01*
X1020567Y303170D01*
X1019983Y303423D01*
X1019483Y303740D01*
X1019150Y304120D01*
X1018900Y304627D01*
Y305893D01*
G01X1023067Y300603D02*
X1023567Y300223D01*
X1023817Y299780D01*
X1023900Y299273D01*
X1023733Y298640D01*
X1023317Y298197D01*
X1022817Y298070D01*
X1022317Y298133D01*
X1021900Y298387D01*
X1021067Y299653D01*
X1020483Y300223D01*
X1019650Y300603D01*
X1018900Y300730D01*
Y298070D01*
G01X1023900Y294300D02*
X1023733Y294807D01*
X1023317Y295187D01*
X1022817Y295440D01*
X1022150Y295630D01*
X1021400Y295693D01*
X1020650Y295630D01*
X1019983Y295440D01*
X1019483Y295187D01*
X1019067Y294807D01*
X1018900Y294300D01*
X1019067Y293793D01*
X1019483Y293413D01*
X1019983Y293160D01*
X1020650Y292970D01*
X1021400Y292907D01*
X1022150Y292970D01*
X1022817Y293160D01*
X1023317Y293413D01*
X1023733Y293793D01*
X1023900Y294300D01*
G01X1026622Y300500D02*
X1029378D01*
G01X1006000Y426993D02*
X1011000D01*
Y425727D01*
X1010750Y425220D01*
X1010417Y424840D01*
X1009917Y424523D01*
X1009333Y424270D01*
X1008500Y424207D01*
X1007667Y424270D01*
X1007083Y424523D01*
X1006583Y424840D01*
X1006250Y425220D01*
X1006000Y425727D01*
Y426993D01*
G01X1010167Y421703D02*
X1010667Y421323D01*
X1010917Y420880D01*
X1011000Y420373D01*
X1010833Y419740D01*
X1010417Y419297D01*
X1009917Y419170D01*
X1009417Y419233D01*
X1009000Y419487D01*
X1008167Y420753D01*
X1007583Y421323D01*
X1006750Y421703D01*
X1006000Y421830D01*
Y419170D01*
G01Y415400D02*
X1011000D01*
X1010000Y416160D01*
G01X1006000D02*
Y414640D01*
G01X1013622Y421500D02*
X1016378D01*
G01X1041100Y7800D02*
X1040593Y7883D01*
X1040150Y8217D01*
X1039770Y8717D01*
X1039517Y9300D01*
X1039390Y9967D01*
Y10633D01*
X1039517Y11300D01*
X1039770Y11883D01*
X1040150Y12383D01*
X1040593Y12717D01*
X1041100Y12800D01*
X1041607Y12717D01*
X1042050Y12383D01*
X1042430Y11883D01*
X1042683Y11300D01*
X1042810Y10633D01*
Y9967D01*
X1042683Y9300D01*
X1042430Y8717D01*
X1042050Y8217D01*
X1041607Y7883D01*
X1041100Y7800D01*
G01X1041607Y9133D02*
X1042367Y7800D01*
G01X1046200D02*
Y12800D01*
X1045440Y11800D01*
G01Y7800D02*
X1046960D01*
G01X1052060D02*
Y12800D01*
X1049717Y9217D01*
X1052883D01*
G01X1045219Y15794D02*
X1047581D01*
Y27606D01*
X1045219D01*
Y15794D01*
G01X1033900Y305593D02*
X1038900D01*
Y304327D01*
X1038650Y303820D01*
X1038317Y303440D01*
X1037817Y303123D01*
X1037233Y302870D01*
X1036400Y302807D01*
X1035567Y302870D01*
X1034983Y303123D01*
X1034483Y303440D01*
X1034150Y303820D01*
X1033900Y304327D01*
Y305593D01*
G01X1038067Y300303D02*
X1038567Y299923D01*
X1038817Y299480D01*
X1038900Y298973D01*
X1038733Y298340D01*
X1038317Y297897D01*
X1037817Y297770D01*
X1037317Y297833D01*
X1036900Y298087D01*
X1036067Y299353D01*
X1035483Y299923D01*
X1034650Y300303D01*
X1033900Y300430D01*
Y297770D01*
G01X1038067Y295203D02*
X1038567Y294823D01*
X1038817Y294380D01*
X1038900Y293873D01*
X1038733Y293240D01*
X1038317Y292797D01*
X1037817Y292670D01*
X1037317Y292733D01*
X1036900Y292987D01*
X1036067Y294253D01*
X1035483Y294823D01*
X1034650Y295203D01*
X1033900Y295330D01*
Y292670D01*
G01X1041822Y300200D02*
X1044578D01*
G01X1043700Y426793D02*
X1048700D01*
Y425527D01*
X1048450Y425020D01*
X1048117Y424640D01*
X1047617Y424323D01*
X1047033Y424070D01*
X1046200Y424007D01*
X1045367Y424070D01*
X1044783Y424323D01*
X1044283Y424640D01*
X1043950Y425020D01*
X1043700Y425527D01*
Y426793D01*
G01X1047867Y421503D02*
X1048367Y421123D01*
X1048617Y420680D01*
X1048700Y420173D01*
X1048533Y419540D01*
X1048117Y419097D01*
X1047617Y418970D01*
X1047117Y419033D01*
X1046700Y419287D01*
X1045867Y420553D01*
X1045283Y421123D01*
X1044450Y421503D01*
X1043700Y421630D01*
Y418970D01*
G01X1044700Y416593D02*
X1044117Y416213D01*
X1043783Y415707D01*
X1043700Y415137D01*
X1043783Y414630D01*
X1044200Y414123D01*
X1044700Y413807D01*
X1045200Y413743D01*
X1045783Y413870D01*
X1046200Y414313D01*
X1046367Y414757D01*
Y415327D01*
G01Y414757D02*
X1046617Y414377D01*
X1047033Y414060D01*
X1047533Y413933D01*
X1048033Y414060D01*
X1048450Y414377D01*
X1048700Y414947D01*
X1048617Y415517D01*
X1048283Y416087D01*
G01X1051422Y421500D02*
X1054178D01*
G01X1074800Y42500D02*
G03I-5000J0D01*
G01X1074400Y29800D02*
G03I-5000J0D01*
G01X1072200Y81500D02*
Y71500D01*
G01D02*
X1092200D01*
G01D02*
X1072200D01*
G01D02*
Y81500D01*
G01X1074700Y55200D02*
G03I-5000J0D01*
G01X1092200Y81500D02*
X1072200D01*
G01D02*
X1092200D01*
G01X1072200Y101000D02*
Y91000D01*
G01D02*
X1092200D01*
G01Y101000D02*
X1072200D01*
G01D02*
X1092200D01*
G01Y91000D02*
X1072200D01*
G01D02*
Y101000D01*
G01X1091800Y117300D02*
Y127300D01*
G01D02*
X1071800D01*
G01D02*
Y117300D01*
G01D02*
X1091800D01*
G01D02*
X1071800D01*
G01D02*
Y127300D01*
G01D02*
X1091800D01*
G01D02*
Y117300D01*
G01X1091900Y151600D02*
X1071900D01*
G01D02*
Y141600D01*
G01D02*
X1091900D01*
G01D02*
X1071900D01*
G01D02*
Y151600D01*
G01D02*
X1091900D01*
G01X1069450Y375547D02*
Y370547D01*
G01X1067993Y375547D02*
X1070907D01*
G01X1073283Y370547D02*
Y375547D01*
X1074803D01*
X1075310Y375297D01*
X1075690Y374714D01*
X1075817Y374047D01*
X1075690Y373380D01*
X1075373Y372880D01*
X1074803Y372630D01*
X1073283D01*
G01X1078257Y371297D02*
X1078637Y370880D01*
X1079080Y370630D01*
X1079650Y370547D01*
X1080220Y370714D01*
X1080663Y371047D01*
X1080980Y371630D01*
X1081043Y372297D01*
X1080917Y372964D01*
X1080600Y373380D01*
X1080157Y373714D01*
X1079713Y373797D01*
X1079270Y373714D01*
X1078700Y373380D01*
X1078890Y375547D01*
X1080600D01*
G01X1084623Y370547D02*
X1084750Y371630D01*
X1084940Y372547D01*
X1085193Y373380D01*
X1085510Y374297D01*
X1086017Y375547D01*
X1083483D01*
G01X1082100Y373500D02*
G03I-5000J0D01*
G01X1070050Y354600D02*
Y349600D01*
G01X1068593Y354600D02*
X1071507D01*
G01X1073883Y349600D02*
Y354600D01*
X1075403D01*
X1075910Y354350D01*
X1076290Y353767D01*
X1076417Y353100D01*
X1076290Y352433D01*
X1075973Y351933D01*
X1075403Y351683D01*
X1073883D01*
G01X1079047D02*
X1079490Y352267D01*
X1079870Y352600D01*
X1080377Y352767D01*
X1080820Y352600D01*
X1081137Y352267D01*
X1081390Y351767D01*
X1081453Y351183D01*
X1081390Y350683D01*
X1081137Y350183D01*
X1080757Y349767D01*
X1080313Y349600D01*
X1079807Y349767D01*
X1079363Y350267D01*
X1079110Y351017D01*
X1079047Y351850D01*
X1079173Y352933D01*
X1079363Y353517D01*
X1079680Y354100D01*
X1080123Y354517D01*
X1080567Y354600D01*
X1081010Y354433D01*
X1081327Y354017D01*
G01X1086110Y349600D02*
Y354600D01*
X1083767Y351017D01*
X1086933D01*
G01X1082100Y360900D02*
G03I-5000J0D01*
G01X1084350Y389500D02*
Y384500D01*
G01X1082893Y389500D02*
X1085807D01*
G01X1088183Y384500D02*
Y389500D01*
X1089703D01*
X1090210Y389250D01*
X1090590Y388667D01*
X1090717Y388000D01*
X1090590Y387333D01*
X1090273Y386833D01*
X1089703Y386583D01*
X1088183D01*
G01X1093157Y385250D02*
X1093537Y384833D01*
X1093980Y384583D01*
X1094550Y384500D01*
X1095120Y384667D01*
X1095563Y385000D01*
X1095880Y385583D01*
X1095943Y386250D01*
X1095817Y386917D01*
X1095500Y387333D01*
X1095057Y387667D01*
X1094613Y387750D01*
X1094170Y387667D01*
X1093600Y387333D01*
X1093790Y389500D01*
X1095500D01*
G01X1099650Y384500D02*
Y389500D01*
X1098890Y388500D01*
G01Y384500D02*
X1100410D01*
G01X1082100Y386000D02*
G03I-5000J0D01*
G01X1092800Y427093D02*
X1097800D01*
Y425827D01*
X1097550Y425320D01*
X1097217Y424940D01*
X1096717Y424623D01*
X1096133Y424370D01*
X1095300Y424307D01*
X1094467Y424370D01*
X1093883Y424623D01*
X1093383Y424940D01*
X1093050Y425320D01*
X1092800Y425827D01*
Y427093D01*
G01Y420600D02*
X1097800D01*
X1096800Y421360D01*
G01X1092800D02*
Y419840D01*
G01Y415627D02*
X1093883Y415500D01*
X1094800Y415310D01*
X1095633Y415057D01*
X1096550Y414740D01*
X1097800Y414233D01*
Y416767D01*
G01X1092200Y71500D02*
Y81500D01*
G01D02*
Y71500D01*
G01Y91000D02*
Y101000D01*
G01D02*
Y91000D01*
G01X1105600Y102693D02*
X1102017D01*
X1101267Y102440D01*
X1100767Y101933D01*
X1100600Y101300D01*
X1100767Y100667D01*
X1101267Y100160D01*
X1102017Y99907D01*
X1105600D01*
G01X1101350Y97593D02*
X1100933Y97213D01*
X1100683Y96770D01*
X1100600Y96200D01*
X1100767Y95630D01*
X1101100Y95187D01*
X1101683Y94870D01*
X1102350Y94807D01*
X1103017Y94933D01*
X1103433Y95250D01*
X1103767Y95693D01*
X1103850Y96137D01*
X1103767Y96580D01*
X1103433Y97150D01*
X1105600Y96960D01*
Y95250D01*
G01Y91100D02*
X1105433Y91607D01*
X1105017Y91987D01*
X1104517Y92240D01*
X1103850Y92430D01*
X1103100Y92493D01*
X1102350Y92430D01*
X1101683Y92240D01*
X1101183Y91987D01*
X1100767Y91607D01*
X1100600Y91100D01*
X1100767Y90593D01*
X1101183Y90213D01*
X1101683Y89960D01*
X1102350Y89770D01*
X1103100Y89707D01*
X1103850Y89770D01*
X1104517Y89960D01*
X1105017Y90213D01*
X1105433Y90593D01*
X1105600Y91100D01*
G01X1111547Y92550D02*
X1110366Y93731D01*
G01X1111154Y92550D02*
X1110366Y93338D01*
G01X1110760Y92550D02*
X1110366Y92944D01*
G01X1113909Y92550D02*
X1110366Y96094D01*
G01X1113516Y92550D02*
X1110366Y95700D01*
G01X1113122Y92550D02*
X1110366Y95306D01*
G01X1112728Y92550D02*
X1110366Y94913D01*
G01X1112335Y92550D02*
X1110366Y94519D01*
G01X1111941Y92550D02*
X1110366Y94125D01*
G01X1118634Y92550D02*
Y98850D01*
X1110366D01*
Y92550D01*
X1118634D01*
G01X1113300Y123100D02*
G03I-5000J0D01*
G01X1125500Y123000D02*
G03I-5000J0D01*
G01Y136700D02*
G03I-5000J0D01*
G01X1091900Y141600D02*
Y151600D01*
G01D02*
Y141600D01*
G01X1121000Y305293D02*
X1126000D01*
Y304027D01*
X1125750Y303520D01*
X1125417Y303140D01*
X1124917Y302823D01*
X1124333Y302570D01*
X1123500Y302507D01*
X1122667Y302570D01*
X1122083Y302823D01*
X1121583Y303140D01*
X1121250Y303520D01*
X1121000Y304027D01*
Y305293D01*
G01Y298800D02*
X1126000D01*
X1125000Y299560D01*
G01X1121000D02*
Y298040D01*
G01Y293700D02*
X1121083Y293257D01*
X1121333Y292750D01*
X1121750Y292433D01*
X1122333Y292307D01*
X1122917Y292433D01*
X1123417Y292813D01*
X1123667Y293383D01*
Y294017D01*
X1123833Y294397D01*
X1124250Y294713D01*
X1124833Y294840D01*
X1125417Y294650D01*
X1125833Y294207D01*
X1126000Y293700D01*
X1125833Y293193D01*
X1125417Y292750D01*
X1124833Y292560D01*
X1124250Y292687D01*
X1123833Y293003D01*
X1123667Y293383D01*
Y294017D01*
X1123417Y294587D01*
X1122917Y294967D01*
X1122333Y295093D01*
X1121750Y294967D01*
X1121333Y294650D01*
X1121083Y294143D01*
X1121000Y293700D01*
G01X1105900Y305593D02*
X1110900D01*
Y304327D01*
X1110650Y303820D01*
X1110317Y303440D01*
X1109817Y303123D01*
X1109233Y302870D01*
X1108400Y302807D01*
X1107567Y302870D01*
X1106983Y303123D01*
X1106483Y303440D01*
X1106150Y303820D01*
X1105900Y304327D01*
Y305593D01*
G01Y299100D02*
X1110900D01*
X1109900Y299860D01*
G01X1105900D02*
Y298340D01*
G01X1107983Y295203D02*
X1108567Y294760D01*
X1108900Y294380D01*
X1109067Y293873D01*
X1108900Y293430D01*
X1108567Y293113D01*
X1108067Y292860D01*
X1107483Y292797D01*
X1106983Y292860D01*
X1106483Y293113D01*
X1106067Y293493D01*
X1105900Y293937D01*
X1106067Y294443D01*
X1106567Y294887D01*
X1107317Y295140D01*
X1108150Y295203D01*
X1109233Y295077D01*
X1109817Y294887D01*
X1110400Y294570D01*
X1110817Y294127D01*
X1110900Y293683D01*
X1110733Y293240D01*
X1110317Y292923D01*
G01X1113522Y300100D02*
X1116278D01*
G01X1100522Y421500D02*
X1103278D01*
G01X1134400Y102693D02*
X1130817D01*
X1130067Y102440D01*
X1129567Y101933D01*
X1129400Y101300D01*
X1129567Y100667D01*
X1130067Y100160D01*
X1130817Y99907D01*
X1134400D01*
G01X1130150Y97593D02*
X1129733Y97213D01*
X1129483Y96770D01*
X1129400Y96200D01*
X1129567Y95630D01*
X1129900Y95187D01*
X1130483Y94870D01*
X1131150Y94807D01*
X1131817Y94933D01*
X1132233Y95250D01*
X1132567Y95693D01*
X1132650Y96137D01*
X1132567Y96580D01*
X1132233Y97150D01*
X1134400Y96960D01*
Y95250D01*
G01X1129400Y91100D02*
X1134400D01*
X1133400Y91860D01*
G01X1129400D02*
Y90340D01*
G01X1139147Y92450D02*
X1137966Y93631D01*
G01X1138754Y92450D02*
X1137966Y93238D01*
G01X1138360Y92450D02*
X1137966Y92844D01*
G01X1141509Y92450D02*
X1137966Y95994D01*
G01X1141116Y92450D02*
X1137966Y95600D01*
G01X1140722Y92450D02*
X1137966Y95206D01*
G01X1140328Y92450D02*
X1137966Y94813D01*
G01X1139935Y92450D02*
X1137966Y94419D01*
G01X1139541Y92450D02*
X1137966Y94025D01*
G01X1146234Y92450D02*
Y98750D01*
X1137966D01*
Y92450D01*
X1146234D01*
G01X1141000Y141900D02*
G03I-5000J0D01*
G01X1153300Y141600D02*
G03I-5000J0D01*
G01X1153400Y155200D02*
G03I-5000J0D01*
G01X1128722Y299800D02*
X1131478D01*
G01X1130800Y426893D02*
X1135800D01*
Y425627D01*
X1135550Y425120D01*
X1135217Y424740D01*
X1134717Y424423D01*
X1134133Y424170D01*
X1133300Y424107D01*
X1132467Y424170D01*
X1131883Y424423D01*
X1131383Y424740D01*
X1131050Y425120D01*
X1130800Y425627D01*
Y426893D01*
G01Y420400D02*
X1135800D01*
X1134800Y421160D01*
G01X1130800D02*
Y419640D01*
G01X1131383Y416377D02*
X1130967Y415933D01*
X1130800Y415427D01*
X1130967Y414920D01*
X1131467Y414477D01*
X1132217Y414160D01*
X1132967Y414033D01*
X1133883D01*
X1134633Y414160D01*
X1135300Y414477D01*
X1135633Y414857D01*
X1135800Y415300D01*
X1135633Y415807D01*
X1135300Y416187D01*
X1134800Y416440D01*
X1134133Y416567D01*
X1133550Y416440D01*
X1132967Y416123D01*
X1132633Y415743D01*
X1132550Y415300D01*
X1132717Y414793D01*
X1133133Y414413D01*
X1133883Y414033D01*
G01X1138322Y421500D02*
X1141078D01*
G01X1175000Y42500D02*
G03I-5000J0D01*
G01X1188100Y42200D02*
G03I-5000J0D01*
G01X1163300Y81500D02*
Y71500D01*
G01D02*
X1183300D01*
G01D02*
X1163300D01*
G01D02*
Y81500D01*
G01X1174900Y55200D02*
G03I-5000J0D01*
G01X1183300Y81500D02*
X1163300D01*
G01D02*
X1183300D01*
G01X1183400Y101000D02*
X1163400D01*
G01D02*
Y91000D01*
G01D02*
X1183400D01*
G01D02*
X1163400D01*
G01D02*
Y101000D01*
G01D02*
X1183400D01*
G01X1183500Y127300D02*
X1163500D01*
G01D02*
Y117300D01*
G01D02*
X1183500D01*
G01D02*
X1163500D01*
G01D02*
Y127300D01*
G01D02*
X1183500D01*
G01X1183400Y151600D02*
X1163400D01*
G01D02*
Y141600D01*
G01D02*
X1183400D01*
G01D02*
X1163400D01*
G01D02*
Y151600D01*
G01D02*
X1183400D01*
G01X1176200Y373500D02*
G03I-5000J0D01*
G01X1164550Y354300D02*
Y349300D01*
G01X1163093Y354300D02*
X1166007D01*
G01X1168383Y349300D02*
Y354300D01*
X1169903D01*
X1170410Y354050D01*
X1170790Y353467D01*
X1170917Y352800D01*
X1170790Y352133D01*
X1170473Y351633D01*
X1169903Y351383D01*
X1168383D01*
G01X1173547D02*
X1173990Y351967D01*
X1174370Y352300D01*
X1174877Y352467D01*
X1175320Y352300D01*
X1175637Y351967D01*
X1175890Y351467D01*
X1175953Y350883D01*
X1175890Y350383D01*
X1175637Y349883D01*
X1175257Y349467D01*
X1174813Y349300D01*
X1174307Y349467D01*
X1173863Y349967D01*
X1173610Y350717D01*
X1173547Y351550D01*
X1173673Y352633D01*
X1173863Y353217D01*
X1174180Y353800D01*
X1174623Y354217D01*
X1175067Y354300D01*
X1175510Y354133D01*
X1175827Y353717D01*
G01X1178647Y353467D02*
X1179027Y353967D01*
X1179470Y354217D01*
X1179977Y354300D01*
X1180610Y354133D01*
X1181053Y353717D01*
X1181180Y353217D01*
X1181117Y352717D01*
X1180863Y352300D01*
X1179597Y351467D01*
X1179027Y350883D01*
X1178647Y350050D01*
X1178520Y349300D01*
X1181180D01*
G01X1176200Y360900D02*
G03I-5000J0D01*
G01X1164050Y397300D02*
Y392300D01*
G01X1162593Y397300D02*
X1165507D01*
G01X1167883Y392300D02*
Y397300D01*
X1169403D01*
X1169910Y397050D01*
X1170290Y396467D01*
X1170417Y395800D01*
X1170290Y395133D01*
X1169973Y394633D01*
X1169403Y394383D01*
X1167883D01*
G01X1172857Y393050D02*
X1173237Y392633D01*
X1173680Y392383D01*
X1174250Y392300D01*
X1174820Y392467D01*
X1175263Y392800D01*
X1175580Y393383D01*
X1175643Y394050D01*
X1175517Y394717D01*
X1175200Y395133D01*
X1174757Y395467D01*
X1174313Y395550D01*
X1173870Y395467D01*
X1173300Y395133D01*
X1173490Y397300D01*
X1175200D01*
G01X1179350D02*
X1178843Y397133D01*
X1178463Y396717D01*
X1178210Y396217D01*
X1178020Y395550D01*
X1177957Y394800D01*
X1178020Y394050D01*
X1178210Y393383D01*
X1178463Y392883D01*
X1178843Y392467D01*
X1179350Y392300D01*
X1179857Y392467D01*
X1180237Y392883D01*
X1180490Y393383D01*
X1180680Y394050D01*
X1180743Y394800D01*
X1180680Y395550D01*
X1180490Y396217D01*
X1180237Y396717D01*
X1179857Y397133D01*
X1179350Y397300D01*
G01X1176300Y386000D02*
G03I-5000J0D01*
G01X1183300Y71500D02*
Y81500D01*
G01D02*
Y71500D01*
G01X1183400Y91000D02*
Y101000D01*
G01D02*
Y91000D01*
G01X1183500Y117300D02*
Y127300D01*
G01D02*
Y117300D01*
G01X1183400Y141600D02*
Y151600D01*
G01D02*
Y141600D01*
G54D18*
G01X671073Y383906D02*
Y379673D01*
X671335Y378787D01*
X671860Y378197D01*
X672516Y378000D01*
X673173Y378197D01*
X673698Y378787D01*
X673960Y379673D01*
Y383906D01*
G01X678087Y378000D02*
Y383906D01*
X675659Y379673D01*
X678940D01*
G01X680639Y379181D02*
X681033Y378492D01*
X681557Y378098D01*
X682148Y378000D01*
X682673Y378098D01*
X683198Y378590D01*
X683526Y379181D01*
X683592Y379772D01*
X683460Y380461D01*
X683001Y380953D01*
X682542Y381150D01*
X681951D01*
G01X682542D02*
X682936Y381445D01*
X683264Y381937D01*
X683395Y382528D01*
X683264Y383119D01*
X682936Y383611D01*
X682345Y383906D01*
X681754Y383808D01*
X681164Y383414D01*
G01X758173Y383906D02*
Y379673D01*
X758435Y378787D01*
X758960Y378197D01*
X759616Y378000D01*
X760273Y378197D01*
X760798Y378787D01*
X761060Y379673D01*
Y383906D01*
G01X762956Y379181D02*
X763350Y378492D01*
X763874Y378098D01*
X764465Y378000D01*
X764990Y378098D01*
X765515Y378590D01*
X765843Y379181D01*
X765909Y379772D01*
X765777Y380461D01*
X765318Y380953D01*
X764859Y381150D01*
X764268D01*
G01X764859D02*
X765253Y381445D01*
X765581Y381937D01*
X765712Y382528D01*
X765581Y383119D01*
X765253Y383611D01*
X764662Y383906D01*
X764071Y383808D01*
X763481Y383414D01*
G01X768067Y378689D02*
X768526Y378197D01*
X769051Y378000D01*
X769576Y378197D01*
X770036Y378787D01*
X770364Y379673D01*
X770495Y380559D01*
Y381642D01*
X770364Y382528D01*
X770036Y383315D01*
X769642Y383709D01*
X769182Y383906D01*
X768657Y383709D01*
X768264Y383315D01*
X768001Y382725D01*
X767870Y381937D01*
X768001Y381248D01*
X768329Y380559D01*
X768723Y380165D01*
X769182Y380067D01*
X769707Y380264D01*
X770101Y380756D01*
X770495Y381642D01*
G01X845873Y383806D02*
Y379573D01*
X846135Y378687D01*
X846660Y378097D01*
X847316Y377900D01*
X847973Y378097D01*
X848498Y378687D01*
X848760Y379573D01*
Y383806D01*
G01X850656Y379081D02*
X851050Y378392D01*
X851574Y377998D01*
X852165Y377900D01*
X852690Y377998D01*
X853215Y378490D01*
X853543Y379081D01*
X853609Y379672D01*
X853477Y380361D01*
X853018Y380853D01*
X852559Y381050D01*
X851968D01*
G01X852559D02*
X852953Y381345D01*
X853281Y381837D01*
X853412Y382428D01*
X853281Y383019D01*
X852953Y383511D01*
X852362Y383806D01*
X851771Y383708D01*
X851181Y383314D01*
G01X855439Y378786D02*
X855833Y378294D01*
X856292Y377998D01*
X856882Y377900D01*
X857473Y378097D01*
X857932Y378490D01*
X858260Y379180D01*
X858326Y379967D01*
X858195Y380754D01*
X857867Y381247D01*
X857407Y381640D01*
X856948Y381739D01*
X856489Y381640D01*
X855898Y381247D01*
X856095Y383806D01*
X857867D01*
G01X961273Y383606D02*
Y379373D01*
X961535Y378487D01*
X962060Y377897D01*
X962716Y377700D01*
X963373Y377897D01*
X963898Y378487D01*
X964160Y379373D01*
Y383606D01*
G01X966056Y378881D02*
X966450Y378192D01*
X966974Y377798D01*
X967565Y377700D01*
X968090Y377798D01*
X968615Y378290D01*
X968943Y378881D01*
X969009Y379472D01*
X968877Y380161D01*
X968418Y380653D01*
X967959Y380850D01*
X967368D01*
G01X967959D02*
X968353Y381145D01*
X968681Y381637D01*
X968812Y382228D01*
X968681Y382819D01*
X968353Y383311D01*
X967762Y383606D01*
X967171Y383508D01*
X966581Y383114D01*
G01X972282Y377700D02*
Y383606D01*
X971495Y382425D01*
G01Y377700D02*
X973070D01*
G01X1049173Y383606D02*
Y379373D01*
X1049435Y378487D01*
X1049960Y377897D01*
X1050616Y377700D01*
X1051273Y377897D01*
X1051798Y378487D01*
X1052060Y379373D01*
Y383606D01*
G01X1054153Y382622D02*
X1054546Y383212D01*
X1055006Y383508D01*
X1055531Y383606D01*
X1056187Y383409D01*
X1056646Y382917D01*
X1056777Y382326D01*
X1056712Y381736D01*
X1056449Y381244D01*
X1055137Y380259D01*
X1054546Y379570D01*
X1054153Y378586D01*
X1054022Y377700D01*
X1056777D01*
G01X1060051D02*
X1060182Y378980D01*
X1060379Y380062D01*
X1060642Y381047D01*
X1060970Y382129D01*
X1061495Y383606D01*
X1058870D01*
G01X1136173Y383306D02*
Y379073D01*
X1136435Y378187D01*
X1136960Y377597D01*
X1137616Y377400D01*
X1138273Y377597D01*
X1138798Y378187D01*
X1139060Y379073D01*
Y383306D01*
G01X1141153Y382322D02*
X1141546Y382912D01*
X1142006Y383208D01*
X1142531Y383306D01*
X1143187Y383109D01*
X1143646Y382617D01*
X1143777Y382026D01*
X1143712Y381436D01*
X1143449Y380944D01*
X1142137Y379959D01*
X1141546Y379270D01*
X1141153Y378286D01*
X1141022Y377400D01*
X1143777D01*
G01X1145739Y378581D02*
X1146133Y377892D01*
X1146657Y377498D01*
X1147248Y377400D01*
X1147773Y377498D01*
X1148298Y377990D01*
X1148626Y378581D01*
X1148692Y379172D01*
X1148560Y379861D01*
X1148101Y380353D01*
X1147642Y380550D01*
X1147051D01*
G01X1147642D02*
X1148036Y380845D01*
X1148364Y381337D01*
X1148495Y381928D01*
X1148364Y382519D01*
X1148036Y383011D01*
X1147445Y383306D01*
X1146854Y383208D01*
X1146264Y382814D01*
G54D19*
G01X32338Y193788D02*
Y204812D01*
X37062D01*
Y193788D01*
X32338D01*
G01X36087Y249513D02*
X38843D01*
Y263687D01*
X31757D01*
Y249513D01*
X34119D01*
G01X35145Y290606D02*
X36759D01*
Y278794D01*
X31641D01*
Y290606D01*
X33531D01*
G01X56506Y152055D02*
Y150441D01*
X44694D01*
Y155559D01*
X56506D01*
Y153669D01*
G01X56406Y158455D02*
Y156841D01*
X44594D01*
Y161959D01*
X56406D01*
Y160069D01*
G01X56506Y197455D02*
Y195841D01*
X44694D01*
Y200959D01*
X56506D01*
Y199069D01*
G01X44555Y250894D02*
X42941D01*
Y262706D01*
X48059D01*
Y250894D01*
X46169D01*
G01X54855Y250794D02*
X53241D01*
Y262606D01*
X58359D01*
Y250794D01*
X56469D01*
G01X66487Y249713D02*
X69243D01*
Y263887D01*
X62157D01*
Y249713D01*
X64519D01*
G01X67545Y279406D02*
X69159D01*
Y267594D01*
X64041D01*
Y279406D01*
X65931D01*
G01X76913Y154113D02*
Y151357D01*
X91087D01*
Y158443D01*
X76913D01*
Y156081D01*
G01X76713Y202913D02*
Y200157D01*
X90887D01*
Y207243D01*
X76713D01*
Y204881D01*
G01X76401Y277850D02*
Y271550D01*
X88999D01*
Y277850D01*
X76401D01*
G01X89488Y343362D02*
X100512D01*
Y338638D01*
X89488D01*
Y343362D01*
G01X114794Y89845D02*
Y91459D01*
X126606D01*
Y86341D01*
X114794D01*
Y88231D01*
G01X113513Y125513D02*
Y122757D01*
X127687D01*
Y129843D01*
X113513D01*
Y127481D01*
G01X142012Y416038D02*
X130988D01*
Y420762D01*
X142012D01*
Y416038D01*
G01X130012Y495638D02*
X118988D01*
Y500362D01*
X130012D01*
Y495638D01*
G01X159887Y178913D02*
X162643D01*
Y193087D01*
X155557D01*
Y178913D01*
X157919D01*
G01X158945Y220006D02*
X160559D01*
Y208194D01*
X155441D01*
Y220006D01*
X157331D01*
G01X159787Y249813D02*
X162543D01*
Y263987D01*
X155457D01*
Y249813D01*
X157819D01*
G01X158845Y290906D02*
X160459D01*
Y279094D01*
X155341D01*
Y290906D01*
X157231D01*
G01X159687Y308313D02*
X162443D01*
Y322487D01*
X155357D01*
Y308313D01*
X157719D01*
G01X158745Y349406D02*
X160359D01*
Y337594D01*
X155241D01*
Y349406D01*
X157131D01*
G01X146255Y426594D02*
X144641D01*
Y438406D01*
X149759D01*
Y426594D01*
X147869D01*
G01X152055D02*
X150441D01*
Y438406D01*
X155559D01*
Y426594D01*
X153669D01*
G01X157488Y420762D02*
X168512D01*
Y416038D01*
X157488D01*
Y420762D01*
G01X142162Y506512D02*
Y495488D01*
X137438D01*
Y506512D01*
X142162D01*
G01X136562D02*
Y495488D01*
X131838D01*
Y506512D01*
X136562D01*
G01X143788Y500362D02*
X154812D01*
Y495638D01*
X143788D01*
Y500362D01*
G01X168355Y180294D02*
X166741D01*
Y192106D01*
X171859D01*
Y180294D01*
X169969D01*
G01X178655Y180194D02*
X177041D01*
Y192006D01*
X182159D01*
Y180194D01*
X180269D01*
G01X190287Y179113D02*
X193043D01*
Y193287D01*
X185957D01*
Y179113D01*
X188319D01*
G01X191345Y208806D02*
X192959D01*
Y196994D01*
X187841D01*
Y208806D01*
X189731D01*
G01X168255Y251194D02*
X166641D01*
Y263006D01*
X171759D01*
Y251194D01*
X169869D01*
G01X178555Y251094D02*
X176941D01*
Y262906D01*
X182059D01*
Y251094D01*
X180169D01*
G01X190187Y250013D02*
X192943D01*
Y264187D01*
X185857D01*
Y250013D01*
X188219D01*
G01X191245Y279706D02*
X192859D01*
Y267894D01*
X187741D01*
Y279706D01*
X189631D01*
G01X168155Y309694D02*
X166541D01*
Y321506D01*
X171659D01*
Y309694D01*
X169769D01*
G01X178455Y309594D02*
X176841D01*
Y321406D01*
X181959D01*
Y309594D01*
X180069D01*
G01X190087Y308513D02*
X192843D01*
Y322687D01*
X185757D01*
Y308513D01*
X188119D01*
G01X191145Y338206D02*
X192759D01*
Y326394D01*
X187641D01*
Y338206D01*
X189531D01*
G01X220919Y63249D02*
X217376D01*
Y44351D01*
X226824D01*
Y63249D01*
X224069D01*
G01X200201Y207350D02*
Y201050D01*
X212799D01*
Y207350D01*
X200201D01*
G01X199901Y277350D02*
Y271050D01*
X212499D01*
Y277350D01*
X199901D01*
G01X215401Y301650D02*
Y295350D01*
X227999D01*
Y301650D01*
X215401D01*
G01X212599Y323650D02*
Y329950D01*
X200001D01*
Y323650D01*
X212599D01*
G01X252762Y506512D02*
Y495488D01*
X248038D01*
Y506512D01*
X252762D01*
G01X246212Y495438D02*
X235188D01*
Y500162D01*
X246212D01*
Y495438D01*
G01X258162Y506512D02*
Y495488D01*
X253438D01*
Y506512D01*
X258162D01*
G01X260188Y500162D02*
X271212D01*
Y495438D01*
X260188D01*
Y500162D01*
G01X372513Y369911D02*
X374127Y369920D01*
X374191Y358108D01*
X369073Y358080D01*
X369009Y369892D01*
X370899Y369902D01*
G01X404012Y9238D02*
X392988D01*
Y13962D01*
X404012D01*
Y9238D01*
G01X392988Y19462D02*
X404012D01*
Y14738D01*
X392988D01*
Y19462D01*
G01Y33662D02*
X404012D01*
Y28938D01*
X392988D01*
Y33662D01*
G01X404012Y23338D02*
X392988D01*
Y28062D01*
X404012D01*
Y23338D01*
G01X403912Y36438D02*
X392888D01*
Y41162D01*
X403912D01*
Y36438D01*
G01X392888Y46762D02*
X403912D01*
Y42038D01*
X392888D01*
Y46762D01*
G01X400145Y363806D02*
X401759D01*
Y351994D01*
X396641D01*
Y363806D01*
X398531D01*
G01X406745D02*
X408359D01*
Y351994D01*
X403241D01*
Y363806D01*
X405131D01*
G01X462337Y129052D02*
X459515D01*
X458925Y128877D01*
X458531Y128527D01*
X458400Y128089D01*
X458531Y127651D01*
X458925Y127301D01*
X459515Y127126D01*
X462337D01*
G01X458400Y124900D02*
X462337D01*
X461550Y125425D01*
G01X458400D02*
Y124375D01*
G01Y121799D02*
X459253Y121711D01*
X459975Y121580D01*
X460631Y121405D01*
X461353Y121186D01*
X462337Y120836D01*
Y122586D01*
G01X463312Y355138D02*
X452288D01*
Y359862D01*
X463312D01*
Y355138D01*
G01X443838Y513588D02*
Y524612D01*
X448562D01*
Y513588D01*
X443838D01*
G01X473148Y337937D02*
Y335115D01*
X473323Y334525D01*
X473673Y334131D01*
X474111Y334000D01*
X474549Y334131D01*
X474899Y334525D01*
X475074Y335115D01*
Y337937D01*
G01X477825Y334000D02*
Y337937D01*
X476206Y335115D01*
X478394D01*
G01X480489Y334000D02*
X480795Y334066D01*
X481145Y334262D01*
X481364Y334590D01*
X481452Y335050D01*
X481364Y335509D01*
X481102Y335903D01*
X480708Y336100D01*
X480270D01*
X480008Y336231D01*
X479789Y336559D01*
X479701Y337018D01*
X479833Y337478D01*
X480139Y337806D01*
X480489Y337937D01*
X480839Y337806D01*
X481145Y337478D01*
X481277Y337018D01*
X481189Y336559D01*
X480970Y336231D01*
X480708Y336100D01*
X480270D01*
X479876Y335903D01*
X479614Y335509D01*
X479526Y335050D01*
X479614Y334590D01*
X479833Y334262D01*
X480183Y334066D01*
X480489Y334000D01*
G01X464188Y359962D02*
X475212D01*
Y355238D01*
X464188D01*
Y359962D01*
G01X507513Y16913D02*
Y14157D01*
X521687D01*
Y21243D01*
X507513D01*
Y18881D01*
G01X492751Y100519D02*
Y96976D01*
X511649D01*
Y106424D01*
X492751D01*
Y103669D01*
G01Y86719D02*
Y83176D01*
X511649D01*
Y92624D01*
X492751D01*
Y89869D01*
G01X497113Y75413D02*
Y72657D01*
X511287D01*
Y79743D01*
X497113D01*
Y77381D01*
G01X552687Y18487D02*
Y21243D01*
X538513D01*
Y14157D01*
X552687D01*
Y16519D01*
G01X626548Y336537D02*
Y333715D01*
X626723Y333125D01*
X627073Y332731D01*
X627511Y332600D01*
X627949Y332731D01*
X628299Y333125D01*
X628474Y333715D01*
Y336537D01*
G01X631225Y332600D02*
Y336537D01*
X629606Y333715D01*
X631794D01*
G01X633057Y335881D02*
X633320Y336274D01*
X633626Y336471D01*
X633977Y336537D01*
X634414Y336406D01*
X634721Y336078D01*
X634808Y335684D01*
X634764Y335290D01*
X634589Y334962D01*
X633714Y334306D01*
X633320Y333847D01*
X633057Y333190D01*
X632970Y332600D01*
X634808D01*
G01X631588Y346762D02*
X642612D01*
Y342038D01*
X631588D01*
Y346762D01*
G01X661962Y341512D02*
Y330488D01*
X657238D01*
Y341512D01*
X661962D01*
G01X657238Y318988D02*
Y330012D01*
X661962D01*
Y318988D01*
X657238D01*
G01X654612Y342038D02*
X643588D01*
Y346762D01*
X654612D01*
Y342038D01*
G01X713548Y336237D02*
Y333415D01*
X713723Y332825D01*
X714073Y332431D01*
X714511Y332300D01*
X714949Y332431D01*
X715299Y332825D01*
X715474Y333415D01*
Y336237D01*
G01X716737Y333087D02*
X717000Y332628D01*
X717350Y332366D01*
X717744Y332300D01*
X718094Y332366D01*
X718444Y332694D01*
X718663Y333087D01*
X718707Y333481D01*
X718619Y333940D01*
X718313Y334268D01*
X718006Y334400D01*
X717612D01*
G01X718006D02*
X718269Y334597D01*
X718488Y334925D01*
X718575Y335318D01*
X718488Y335712D01*
X718269Y336040D01*
X717875Y336237D01*
X717481Y336171D01*
X717087Y335909D01*
G01X720889Y332300D02*
X721195Y332366D01*
X721545Y332562D01*
X721764Y332890D01*
X721852Y333350D01*
X721764Y333809D01*
X721502Y334203D01*
X721108Y334400D01*
X720670D01*
X720408Y334531D01*
X720189Y334859D01*
X720101Y335318D01*
X720233Y335778D01*
X720539Y336106D01*
X720889Y336237D01*
X721239Y336106D01*
X721545Y335778D01*
X721677Y335318D01*
X721589Y334859D01*
X721370Y334531D01*
X721108Y334400D01*
X720670D01*
X720276Y334203D01*
X720014Y333809D01*
X719926Y333350D01*
X720014Y332890D01*
X720233Y332562D01*
X720583Y332366D01*
X720889Y332300D01*
G01X741712Y342038D02*
X730688D01*
Y346762D01*
X741712D01*
Y342038D01*
G01X718688Y346762D02*
X729712D01*
Y342038D01*
X718688D01*
Y346762D01*
G01X749062Y341512D02*
Y330488D01*
X744338D01*
Y341512D01*
X749062D01*
G01X744338Y318988D02*
Y330012D01*
X749062D01*
Y318988D01*
X744338D01*
G01X788648Y83637D02*
Y80815D01*
X788823Y80225D01*
X789173Y79831D01*
X789611Y79700D01*
X790049Y79831D01*
X790399Y80225D01*
X790574Y80815D01*
Y83637D01*
G01X791837Y80290D02*
X792100Y79962D01*
X792406Y79766D01*
X792800Y79700D01*
X793194Y79831D01*
X793500Y80094D01*
X793719Y80553D01*
X793763Y81078D01*
X793675Y81603D01*
X793456Y81931D01*
X793150Y82193D01*
X792844Y82259D01*
X792537Y82193D01*
X792144Y81931D01*
X792275Y83637D01*
X793456D01*
G01X795157Y82981D02*
X795420Y83374D01*
X795726Y83571D01*
X796077Y83637D01*
X796514Y83506D01*
X796821Y83178D01*
X796908Y82784D01*
X796864Y82390D01*
X796689Y82062D01*
X795814Y81406D01*
X795420Y80947D01*
X795157Y80290D01*
X795070Y79700D01*
X796908D01*
G01X800948Y336337D02*
Y333515D01*
X801123Y332925D01*
X801473Y332531D01*
X801911Y332400D01*
X802349Y332531D01*
X802699Y332925D01*
X802874Y333515D01*
Y336337D01*
G01X804137Y333187D02*
X804400Y332728D01*
X804750Y332466D01*
X805144Y332400D01*
X805494Y332466D01*
X805844Y332794D01*
X806063Y333187D01*
X806107Y333581D01*
X806019Y334040D01*
X805713Y334368D01*
X805406Y334500D01*
X805012D01*
G01X805406D02*
X805669Y334697D01*
X805888Y335025D01*
X805975Y335418D01*
X805888Y335812D01*
X805669Y336140D01*
X805275Y336337D01*
X804881Y336271D01*
X804487Y336009D01*
G01X808814Y332400D02*
Y336337D01*
X807195Y333515D01*
X809383D01*
G01X829512Y342038D02*
X818488D01*
Y346762D01*
X829512D01*
Y342038D01*
G01X806488Y346762D02*
X817512D01*
Y342038D01*
X806488D01*
Y346762D01*
G01X836862Y341512D02*
Y330488D01*
X832138D01*
Y341512D01*
X836862D01*
G01X832138Y318988D02*
Y330012D01*
X836862D01*
Y318988D01*
X832138D01*
G01X852348Y83437D02*
Y80615D01*
X852523Y80025D01*
X852873Y79631D01*
X853311Y79500D01*
X853749Y79631D01*
X854099Y80025D01*
X854274Y80615D01*
Y83437D01*
G01X855537Y80090D02*
X855800Y79762D01*
X856106Y79566D01*
X856500Y79500D01*
X856894Y79631D01*
X857200Y79894D01*
X857419Y80353D01*
X857463Y80878D01*
X857375Y81403D01*
X857156Y81731D01*
X856850Y81993D01*
X856544Y82059D01*
X856237Y81993D01*
X855844Y81731D01*
X855975Y83437D01*
X857156D01*
G01X858726Y80287D02*
X858989Y79828D01*
X859339Y79566D01*
X859733Y79500D01*
X860083Y79566D01*
X860433Y79894D01*
X860652Y80287D01*
X860696Y80681D01*
X860608Y81140D01*
X860302Y81468D01*
X859995Y81600D01*
X859601D01*
G01X859995D02*
X860258Y81797D01*
X860477Y82125D01*
X860564Y82518D01*
X860477Y82912D01*
X860258Y83240D01*
X859864Y83437D01*
X859470Y83371D01*
X859076Y83109D01*
G01X921801Y41950D02*
Y35650D01*
X934399D01*
Y41950D01*
X921801D01*
G01X916148Y335937D02*
Y333115D01*
X916323Y332525D01*
X916673Y332131D01*
X917111Y332000D01*
X917549Y332131D01*
X917899Y332525D01*
X918074Y333115D01*
Y335937D01*
G01X919337Y332787D02*
X919600Y332328D01*
X919950Y332066D01*
X920344Y332000D01*
X920694Y332066D01*
X921044Y332394D01*
X921263Y332787D01*
X921307Y333181D01*
X921219Y333640D01*
X920913Y333968D01*
X920606Y334100D01*
X920212D01*
G01X920606D02*
X920869Y334297D01*
X921088Y334625D01*
X921175Y335018D01*
X921088Y335412D01*
X920869Y335740D01*
X920475Y335937D01*
X920081Y335871D01*
X919687Y335609D01*
G01X923489Y335937D02*
X923139Y335806D01*
X922876Y335478D01*
X922701Y335084D01*
X922570Y334559D01*
X922526Y333968D01*
X922570Y333378D01*
X922701Y332853D01*
X922876Y332459D01*
X923139Y332131D01*
X923489Y332000D01*
X923839Y332131D01*
X924102Y332459D01*
X924277Y332853D01*
X924408Y333378D01*
X924452Y333968D01*
X924408Y334559D01*
X924277Y335084D01*
X924102Y335478D01*
X923839Y335806D01*
X923489Y335937D01*
G01X944512Y342038D02*
X933488D01*
Y346762D01*
X944512D01*
Y342038D01*
G01X921488Y346762D02*
X932512D01*
Y342038D01*
X921488D01*
Y346762D01*
G01X951862Y341512D02*
Y330488D01*
X947138D01*
Y341512D01*
X951862D01*
G01X947138Y318988D02*
Y330012D01*
X951862D01*
Y318988D01*
X947138D01*
G01X1004148Y336537D02*
Y333715D01*
X1004323Y333125D01*
X1004673Y332731D01*
X1005111Y332600D01*
X1005549Y332731D01*
X1005899Y333125D01*
X1006074Y333715D01*
Y336537D01*
G01X1007468Y335881D02*
X1007731Y336274D01*
X1008037Y336471D01*
X1008388Y336537D01*
X1008825Y336406D01*
X1009132Y336078D01*
X1009219Y335684D01*
X1009175Y335290D01*
X1009000Y334962D01*
X1008125Y334306D01*
X1007731Y333847D01*
X1007468Y333190D01*
X1007381Y332600D01*
X1009219D01*
G01X1010657Y334240D02*
X1010964Y334700D01*
X1011226Y334962D01*
X1011577Y335093D01*
X1011883Y334962D01*
X1012102Y334700D01*
X1012277Y334306D01*
X1012321Y333847D01*
X1012277Y333453D01*
X1012102Y333059D01*
X1011839Y332731D01*
X1011533Y332600D01*
X1011183Y332731D01*
X1010876Y333125D01*
X1010701Y333715D01*
X1010657Y334372D01*
X1010745Y335225D01*
X1010876Y335684D01*
X1011095Y336143D01*
X1011401Y336471D01*
X1011708Y336537D01*
X1012014Y336406D01*
X1012233Y336078D01*
G01X1032312Y342038D02*
X1021288D01*
Y346762D01*
X1032312D01*
Y342038D01*
G01X1009288Y346762D02*
X1020312D01*
Y342038D01*
X1009288D01*
Y346762D01*
G01X1052399Y36750D02*
Y43050D01*
X1039801D01*
Y36750D01*
X1052399D01*
G01X1039662Y341512D02*
Y330488D01*
X1034938D01*
Y341512D01*
X1039662D01*
G01X1034938Y318988D02*
Y330012D01*
X1039662D01*
Y318988D01*
X1034938D01*
G01X1090648Y336637D02*
Y333815D01*
X1090823Y333225D01*
X1091173Y332831D01*
X1091611Y332700D01*
X1092049Y332831D01*
X1092399Y333225D01*
X1092574Y333815D01*
Y336637D01*
G01X1093968Y335981D02*
X1094231Y336374D01*
X1094537Y336571D01*
X1094888Y336637D01*
X1095325Y336506D01*
X1095632Y336178D01*
X1095719Y335784D01*
X1095675Y335390D01*
X1095500Y335062D01*
X1094625Y334406D01*
X1094231Y333947D01*
X1093968Y333290D01*
X1093881Y332700D01*
X1095719D01*
G01X1097157Y335981D02*
X1097420Y336374D01*
X1097726Y336571D01*
X1098077Y336637D01*
X1098514Y336506D01*
X1098821Y336178D01*
X1098908Y335784D01*
X1098864Y335390D01*
X1098689Y335062D01*
X1097814Y334406D01*
X1097420Y333947D01*
X1097157Y333290D01*
X1097070Y332700D01*
X1098908D01*
G01X1115088Y69662D02*
X1126112D01*
Y64938D01*
X1115088D01*
Y69662D01*
G01X1113912Y64938D02*
X1102888D01*
Y69662D01*
X1113912D01*
Y64938D01*
G01X1119212Y341638D02*
X1108188D01*
Y346362D01*
X1119212D01*
Y341638D01*
G01X1096188Y346362D02*
X1107212D01*
Y341638D01*
X1096188D01*
Y346362D01*
G01X1142588Y69662D02*
X1153612D01*
Y64938D01*
X1142588D01*
Y69662D01*
G01X1141612Y64938D02*
X1130588D01*
Y69662D01*
X1141612D01*
Y64938D01*
G01X1126562Y341112D02*
Y330088D01*
X1121838D01*
Y341112D01*
X1126562D01*
G01X1121838Y318588D02*
Y329612D01*
X1126562D01*
Y318588D01*
X1121838D01*
M02*
