G04 ================== begin FILE IDENTIFICATION RECORD ==================*
G04 Layout Name:  C:/SPB_DATA/GPS_INTERFACE_BOARD/allegro/GPS_INTERFACE_BOARDv30.brd*
G04 Film Name:    Sold_Bottom*
G04 File Format:  Gerber RS274X*
G04 File Origin:  Cadence Allegro 17.2-S064*
G04 Origin Date:  Wed Jun 17 02:43:49 2020*
G04 *
G04 Layer:  VIA CLASS/SOLDERMASK_BOTTOM*
G04 Layer:  PIN/SOLDERMASK_BOTTOM*
G04 Layer:  PACKAGE GEOMETRY/SOLDERMASK_BOTTOM*
G04 Layer:  BOARD GEOMETRY/OUTLINE*
G04 Layer:  BOARD GEOMETRY/SOLDERMASK_BOTTOM*
G04 *
G04 Offset:    (0.00 0.00)*
G04 Mirror:    No*
G04 Mode:      Positive*
G04 Rotation:  0*
G04 FullContactRelief:  No*
G04 UndefLineWidth:     0.00*
G04 ================== end FILE IDENTIFICATION RECORD ====================*
%FSLAX25Y25*MOIN*%
%IR0*IPPOS*OFA0.00000B0.00000*MIA0B0*SFA1.00000B1.00000*%
%ADD34C,.01*%
%ADD11C,.021*%
%ADD29C,.042*%
%ADD49C,.07*%
%ADD36C,.0512*%
%ADD40C,.06103*%
%ADD37C,.03504*%
%ADD50R,.07X.07*%
%ADD22C,.05504*%
%ADD39C,.0574*%
%ADD42C,.05346*%
%ADD45C,.09921*%
%ADD23R,.05504X.05504*%
%ADD19C,.06496*%
%ADD46C,.05858*%
%ADD44C,.07559*%
%ADD26C,.09764*%
%ADD18O,.05937X.11874*%
%ADD17O,.11874X.05937*%
%ADD47R,.05858X.05858*%
%ADD41R,.07874X.07874*%
%ADD25R,.09764X.09764*%
%ADD48R,.024X.02*%
%ADD38R,.028X.04*%
%ADD43C,.13111*%
%ADD35R,.027X.025*%
%ADD21R,.025X.027*%
%ADD10C,.163*%
%ADD14R,.04331X.05512*%
%ADD12R,.04252X.04134*%
%ADD24C,.1187*%
%ADD20R,.04134X.04252*%
%ADD31R,.02362X.0374*%
%ADD28R,.02362X.02165*%
%ADD27R,.02165X.02362*%
%ADD16R,.0374X.0374*%
%ADD15R,.0374X.02362*%
%ADD13R,.0374X.0374*%
%ADD30R,.05906X.05118*%
%ADD32R,.05118X.05906*%
%ADD33R,.05906X.07874*%
%LPD*%
G75*
G54D10*
X20000Y20000D03*
Y580000D03*
X310000Y20000D03*
Y580000D03*
X462600Y40000D03*
X600000Y580000D03*
X739800Y40000D03*
X890000Y20000D03*
Y580000D03*
X1180000Y20000D03*
Y580000D03*
G54D20*
X97594Y255300D03*
X104406D03*
X220394Y180700D03*
X195694Y526400D03*
X202506D03*
X227206Y180700D03*
X234606Y255500D03*
X227794D03*
X248794Y255600D03*
X255606D03*
X373394Y272700D03*
X373294Y255900D03*
X343694Y516900D03*
X350506D03*
X343794Y528500D03*
X350606D03*
X380206Y272700D03*
X380106Y255900D03*
X432994Y501400D03*
X439806D03*
X497894Y307900D03*
X504706D03*
X504606Y291600D03*
X497794D03*
X631694Y360000D03*
X638506D03*
X631694Y372600D03*
X638506D03*
Y366300D03*
X631694D03*
X632806Y396200D03*
X625994D03*
X638506Y378800D03*
X631694D03*
X652706Y460400D03*
X645894D03*
X659994Y460500D03*
X666806D03*
X685906Y364300D03*
X679094D03*
Y357800D03*
X685906D03*
X682294Y396700D03*
X689106D03*
X718794Y360000D03*
X725606D03*
X718794Y372600D03*
X725606D03*
Y366300D03*
X718794D03*
X719906Y396200D03*
X713094D03*
X725606Y378800D03*
X718794D03*
X732994Y460400D03*
X747094Y460500D03*
X753906D03*
X739806Y460400D03*
X773006Y364300D03*
X766194D03*
Y357800D03*
X773006D03*
X769394Y396700D03*
X776206D03*
X806594Y360000D03*
X813406D03*
X806594Y372600D03*
X813406D03*
Y366300D03*
X806594D03*
X807706Y396200D03*
X800894D03*
X813406Y378800D03*
X806594D03*
X820794Y460400D03*
X834894Y460500D03*
X841706D03*
X827606Y460400D03*
X860806Y364300D03*
X853994D03*
Y357800D03*
X860806D03*
X857194Y396700D03*
X864006D03*
X928406Y366300D03*
X921594D03*
Y372600D03*
X928406D03*
X921594Y360000D03*
X928406D03*
X922706Y396200D03*
X915894D03*
X928406Y378800D03*
X921594D03*
X942606Y460400D03*
X935794D03*
X968994Y357800D03*
Y364300D03*
X972194Y396700D03*
X949894Y460500D03*
X956706D03*
X975806Y357800D03*
Y364300D03*
X979006Y396700D03*
X1009394Y360000D03*
X1016206D03*
X1009394Y372600D03*
X1016206D03*
Y366300D03*
X1009394D03*
X1010506Y396200D03*
X1003694D03*
X1016206Y378800D03*
X1009394D03*
X1030406Y460400D03*
X1023594D03*
X1056794Y364300D03*
Y357800D03*
X1059994Y396700D03*
X1037694Y460500D03*
X1044506D03*
X1063606Y364300D03*
Y357800D03*
X1090594Y395800D03*
X1066806Y396700D03*
X1117906Y84200D03*
X1111094D03*
X1117806Y107400D03*
X1110994D03*
X1096294Y372200D03*
X1103106D03*
X1096294Y359600D03*
X1103106D03*
Y365900D03*
X1096294D03*
X1097406Y395800D03*
X1103106Y378400D03*
X1096294D03*
X1117306Y460400D03*
X1110494D03*
X1138794Y84000D03*
X1145606D03*
X1145406Y107100D03*
X1138594D03*
X1150506Y363900D03*
X1143694D03*
Y357400D03*
X1150506D03*
X1146894Y396300D03*
X1124594Y460500D03*
X1131406D03*
X1153706Y396300D03*
G54D11*
X13090Y142081D03*
X40960Y120660D03*
X36500Y123700D03*
X39500Y146894D03*
X34500Y159700D03*
X14200Y133800D03*
X23800Y156600D03*
Y150900D03*
X23600Y161600D03*
X39391Y142107D03*
X35692Y142195D03*
X32090Y142181D03*
X20391Y142007D03*
X16692Y142095D03*
X14600Y150900D03*
X19100D03*
X19000Y156400D03*
X14600Y156300D03*
X14800Y161600D03*
X19100D03*
X41200Y156400D03*
Y152200D03*
Y160500D03*
X13647Y190253D03*
X25400Y167100D03*
X25700Y176100D03*
X26692Y181491D03*
X39727Y176792D03*
Y182008D03*
X34300Y167100D03*
X14400Y203000D03*
X14600Y208300D03*
X23400D03*
X13990Y218181D03*
X17592Y218195D03*
X40291Y218207D03*
X14400Y197600D03*
X36592Y218295D03*
X32990Y218281D03*
X23600Y203300D03*
X21291Y218107D03*
X23600Y197600D03*
X18900Y208300D03*
X42000Y203700D03*
Y199900D03*
X41900Y207300D03*
X18800Y203100D03*
X18900Y197600D03*
X26690Y238281D03*
X30292Y238295D03*
X33991Y238207D03*
X24700Y270800D03*
X20400D03*
X20200Y260100D03*
X24700D03*
X29400D03*
X20200Y265500D03*
X24600Y265600D03*
X29200Y270800D03*
X29400Y265800D03*
X24592Y289095D03*
X28291Y289007D03*
X20990Y289081D03*
X32100Y325600D03*
X36200Y434300D03*
Y437700D03*
X16300Y434400D03*
Y437800D03*
Y456300D03*
Y459700D03*
X36100Y456400D03*
Y459800D03*
X26000Y447000D03*
X48450Y122250D03*
X58491Y142107D03*
X54792Y142195D03*
X51190Y142181D03*
X72600Y148700D03*
X72400Y138000D03*
Y143400D03*
X51873Y176792D03*
X45800D03*
X44900Y192800D03*
X45800Y182008D03*
X44800Y165100D03*
X51873Y182008D03*
X71900Y215600D03*
X59391Y218207D03*
X55692Y218295D03*
X52090Y218281D03*
X71900Y210200D03*
X72100Y220900D03*
X47200Y207100D03*
X47300Y203600D03*
X72091Y238307D03*
X68392Y238395D03*
X64790Y238381D03*
X52991Y238307D03*
X49292Y238395D03*
X45690Y238381D03*
X61500Y270500D03*
X72206Y276906D03*
X52800Y277400D03*
X48100Y274700D03*
Y272200D03*
Y277300D03*
X52700Y272200D03*
X52800Y274800D03*
Y295900D03*
X45400Y311500D03*
X71090Y289081D03*
X51000Y315700D03*
X60850Y334800D03*
X53700Y341000D03*
X45400Y350900D03*
X71200Y361700D03*
X51000Y356000D03*
X60149Y431800D03*
X56250D03*
X85900Y123800D03*
X99600Y123900D03*
X90600Y118800D03*
X90400Y123800D03*
X81600D03*
X95300Y123900D03*
X85900Y113100D03*
X81400Y118500D03*
X85800Y118600D03*
X99500Y118700D03*
X90600Y113100D03*
X95100Y113200D03*
X81400Y113100D03*
X95100Y118600D03*
X99600Y113200D03*
X81600Y143700D03*
Y138000D03*
X76900D03*
X76800Y143500D03*
X81400Y148700D03*
X76900D03*
X94300Y151300D03*
Y158000D03*
Y154700D03*
X87300Y162800D03*
X76300Y215700D03*
X80900Y220900D03*
X76400D03*
Y210200D03*
X81100D03*
Y215900D03*
X82900Y233500D03*
X97100Y234200D03*
X98800Y246100D03*
X102200Y242800D03*
X102300Y246100D03*
X89000Y233300D03*
Y251400D03*
X101950Y234150D03*
X98700Y242800D03*
X83000Y283200D03*
X91000Y255300D03*
X97200Y262500D03*
X101700Y273200D03*
X88400Y262500D03*
X92700Y267900D03*
X101900Y262500D03*
Y268200D03*
X92900Y273200D03*
X88400Y268000D03*
X97100D03*
X97200Y273200D03*
X92700Y262500D03*
X86440Y299740D03*
X73250Y307550D03*
X74692Y289095D03*
X78391Y289007D03*
X88400Y358400D03*
X97953Y346847D03*
X96000Y447000D03*
X86000Y456300D03*
Y459700D03*
Y434600D03*
Y438000D03*
X121600Y9200D03*
X104100Y123900D03*
X104300Y118900D03*
Y113200D03*
X106200Y181400D03*
Y189400D03*
Y168600D03*
Y172900D03*
Y177200D03*
Y164400D03*
Y185400D03*
Y193500D03*
X114100Y238888D03*
X116600Y242431D03*
X110400Y255300D03*
X109200Y296000D03*
X114100Y311500D03*
X106100Y309100D03*
X116600Y315700D03*
X121600Y325600D03*
X109200Y353600D03*
X106700Y456300D03*
Y459700D03*
Y434600D03*
Y438000D03*
X121547Y503053D03*
X151500Y124000D03*
X160300D03*
X155800D03*
X146500Y119000D03*
X137300Y113300D03*
X137500Y124000D03*
X141800Y113300D03*
X151300D03*
X146500D03*
X155800D03*
X137300Y118700D03*
X155700Y118800D03*
X146300Y124000D03*
X160500Y113300D03*
X141800Y124000D03*
X151300Y118700D03*
X141700Y118800D03*
X160500Y119000D03*
X153200Y189600D03*
X148500D03*
X144000D03*
X150400Y208200D03*
X144990Y218181D03*
X148592Y218195D03*
X144000Y195000D03*
X153200Y195300D03*
X152291Y218107D03*
X153000Y200300D03*
X148500D03*
X144200D03*
X148400Y195100D03*
X157491Y238507D03*
X153792Y238595D03*
X150190Y238581D03*
X152200Y279000D03*
X153000Y265900D03*
X144000Y270900D03*
X148200Y265700D03*
X152800Y270900D03*
X143800Y260200D03*
Y265600D03*
X148300Y260200D03*
Y270900D03*
X153000Y260200D03*
X158291Y295307D03*
X150990Y295381D03*
X154592Y295395D03*
X152000Y337400D03*
X148300Y318900D03*
X144000Y329600D03*
X148300D03*
X143800Y318900D03*
X148200Y324400D03*
X153000Y318900D03*
X152800Y329600D03*
X153000Y324600D03*
X143800Y324300D03*
X151991Y347807D03*
X148292Y347895D03*
X144690Y347881D03*
X133547Y423753D03*
X138790Y443700D03*
X135210D03*
X148026Y462574D03*
X151715D03*
X152253Y503853D03*
X151300Y539900D03*
X139700Y530700D03*
X146106Y526494D03*
X188850Y134650D03*
X181600Y215400D03*
X177500Y216300D03*
X184500Y211600D03*
X171500Y216000D03*
X163763Y208037D03*
X171900Y204100D03*
Y201600D03*
Y206700D03*
X176500Y201600D03*
X176600Y204200D03*
Y206800D03*
X168200Y216000D03*
X168300Y227600D03*
X180300D03*
X172300Y227500D03*
X188400Y226300D03*
X176300Y227600D03*
X191892Y238695D03*
X188290Y238681D03*
X176491Y238607D03*
X172792Y238695D03*
X169190Y238681D03*
X184800Y281900D03*
X163737Y278937D03*
X171800Y277600D03*
X176500Y275100D03*
X176400Y272500D03*
X171800D03*
Y275000D03*
X176500Y277700D03*
X171000Y285800D03*
X181200Y285500D03*
X168300Y296800D03*
X172300D03*
X167700Y285200D03*
X180100Y296900D03*
X177100Y286100D03*
X176200Y296900D03*
X189090Y295481D03*
X192692Y295495D03*
X176500Y331100D03*
D03*
X171700Y331200D03*
X176400Y333600D03*
X171600Y335900D03*
X176500Y336000D03*
X171600Y333600D03*
X184400Y339800D03*
X163737Y337437D03*
X176100Y358100D03*
X170800Y345700D03*
X177100Y345300D03*
X180233Y344700D03*
X180100Y358200D03*
X172100D03*
X168100D03*
X167467Y345200D03*
X165953Y423653D03*
X207500Y110100D03*
X215700Y161700D03*
X222800Y184800D03*
X220900Y163600D03*
X212800Y180800D03*
X222500Y172200D03*
X222600Y175500D03*
X212200Y191900D03*
X221000D03*
X216500D03*
X215000Y183900D03*
X196600Y208000D03*
X210900Y211700D03*
X212200Y197400D03*
X220900D03*
X216500Y197300D03*
X195690Y218481D03*
X202991Y218407D03*
X199292Y218495D03*
X211040Y226240D03*
X195591Y238607D03*
X208100Y230300D03*
X217300Y269100D03*
X204200Y281800D03*
X195900Y278900D03*
X222600Y253500D03*
X196391Y295407D03*
X204200Y340100D03*
X196000Y337500D03*
X210040Y358140D03*
X196850Y365450D03*
X202091Y347807D03*
X194790Y347881D03*
X198392Y347895D03*
X195700Y552000D03*
X205200Y552700D03*
X208900Y526400D03*
X212806Y537694D03*
X249947Y29800D03*
X243300Y191900D03*
X247800D03*
X252400Y191800D03*
X239200Y191900D03*
X235000Y180700D03*
X225750Y163550D03*
X226000Y172200D03*
X226100Y175500D03*
X225700Y191900D03*
X252900Y197400D03*
X239200D03*
X243800D03*
X248300D03*
X233700Y222500D03*
X231800Y211700D03*
X225700Y197400D03*
X226400Y263200D03*
X235600D03*
X230900D03*
X241900Y269100D03*
X243700Y257800D03*
X241400Y255500D03*
X250300Y270800D03*
X250200Y267500D03*
X241200Y298500D03*
X241000Y303500D03*
X236400Y298300D03*
X232200Y303500D03*
X232000Y292800D03*
Y298200D03*
X227700Y292800D03*
X241200D03*
X236500Y303500D03*
Y292800D03*
X225500Y333200D03*
X234700D03*
X230000D03*
X229000Y341800D03*
X229700Y367900D03*
X234500Y354400D03*
X251310Y421400D03*
X237747Y502853D03*
X274760Y29560D03*
X262947Y29647D03*
X268800Y42900D03*
X282000Y43600D03*
X268800Y65700D03*
X256000Y43500D03*
X281960Y64960D03*
X256100Y110100D03*
X272900Y171800D03*
X268500Y168288D03*
X259400Y232600D03*
X264400Y235500D03*
X268500Y271600D03*
X272900Y274600D03*
Y279700D03*
X262600Y265700D03*
X261000Y255600D03*
X253700Y267500D03*
X253800Y270800D03*
X262500Y269100D03*
X268500Y283300D03*
X254890Y421400D03*
X268600Y459700D03*
X272900Y463700D03*
X268653Y502753D03*
X256300Y530600D03*
X262300Y529800D03*
X289440Y65260D03*
X285700Y89600D03*
X326272Y30572D03*
X331650Y71450D03*
X334940Y178700D03*
X331360D03*
X343000Y210800D03*
X319340Y194000D03*
X315760D03*
Y425600D03*
X331160Y411600D03*
X334740D03*
X319340Y425600D03*
X331872Y520172D03*
X343000Y499300D03*
X341100Y509800D03*
X335900Y528500D03*
X338200Y526100D03*
X344200Y37600D03*
X346300Y30572D03*
X365700Y30672D03*
X367800Y14000D03*
X354400Y20200D03*
X344500Y62900D03*
X359800Y46600D03*
X370250Y70050D03*
X351550Y69850D03*
X364600Y62900D03*
X353918Y157982D03*
X357300Y161700D03*
X350543Y150643D03*
X361200Y166000D03*
X365400Y264200D03*
X366800Y272700D03*
X367000Y255900D03*
X370400Y352700D03*
X368000Y387100D03*
X370900Y398900D03*
X350543Y378100D03*
X370400Y485200D03*
X364400D03*
X357300Y490339D03*
X353918Y508800D03*
X350506Y503100D03*
X361200Y531143D03*
X343800Y539500D03*
X356202Y528802D03*
X388100Y12500D03*
X387900Y32200D03*
X388900Y25700D03*
X388100Y37300D03*
X389000Y17100D03*
X379800Y19300D03*
X388500Y44400D03*
X384800Y62600D03*
X389600Y153900D03*
X392100Y248500D03*
X382000Y278000D03*
X396447Y258147D03*
Y278847D03*
X402400Y268600D03*
Y278800D03*
X384800Y285900D03*
X373600Y311200D03*
Y306600D03*
X393900Y285900D03*
X373600Y302100D03*
Y297500D03*
Y293000D03*
X399700Y292000D03*
X389400Y285900D03*
X375700D03*
X380300D03*
X373600Y329400D03*
Y324800D03*
Y320300D03*
Y315700D03*
X375700Y336000D03*
X399900Y331900D03*
X393900Y336000D03*
X389300D03*
X384800D03*
X380200D03*
X376300Y359400D03*
X376400Y362300D03*
X374700Y352600D03*
X394900Y355700D03*
X373300Y356300D03*
X383700Y356400D03*
X386900Y356300D03*
X383700Y359000D03*
X387000D03*
X383600Y353600D03*
X386900D03*
X392500Y390000D03*
X391760Y383360D03*
X382400Y485200D03*
X376300D03*
X425800Y15100D03*
X424100Y26300D03*
X414370Y17030D03*
X420636Y45764D03*
X429300Y60400D03*
X431800Y67400D03*
X416480Y89980D03*
X413920Y86780D03*
X421598Y95698D03*
X411361Y83561D03*
X406243Y79900D03*
X419039Y92661D03*
X420628Y122328D03*
X425900Y106200D03*
X413664Y126364D03*
X408800Y104700D03*
X413664Y122036D03*
X411361Y161639D03*
X413900Y157982D03*
X416480Y153780D03*
X421543Y150643D03*
X425900Y142400D03*
X408800Y143500D03*
X406243Y166057D03*
X413460Y252240D03*
X420053Y274447D03*
X425400Y263600D03*
X405400Y295500D03*
X427300Y310900D03*
X407900Y303900D03*
X412400Y308500D03*
X418200Y310900D03*
X423700Y292800D03*
X419800Y297600D03*
X427600Y293700D03*
X422000Y286300D03*
X418250Y290250D03*
X419300Y301000D03*
X419000Y306000D03*
X404100Y329500D03*
X407700Y325300D03*
X412300Y321000D03*
X427300Y318400D03*
X418200D03*
X420800Y323300D03*
X421300Y329145D03*
X418500Y331700D03*
Y327300D03*
X410500Y353000D03*
X413500Y355700D03*
X410500D03*
X413500Y353000D03*
X429000Y388200D03*
X429100Y382100D03*
X429500Y393400D03*
X430300Y399100D03*
X425800Y378100D03*
X406250Y398750D03*
X428700Y404400D03*
X430200Y408300D03*
X430975Y420225D03*
X432200Y450800D03*
X415800Y450300D03*
Y455700D03*
X425800Y443257D03*
X429300Y447300D03*
X424300Y485200D03*
X412800D03*
X418500D03*
X407000D03*
X432900Y473000D03*
X425400Y490339D03*
X443700Y39400D03*
X455800Y18700D03*
X458500Y56300D03*
X456400Y66100D03*
X437300Y56500D03*
X451118Y58900D03*
X448600Y63700D03*
X446000Y73000D03*
X455200Y85100D03*
X461200Y100800D03*
X443441Y76341D03*
X449236Y123400D03*
X441872Y123928D03*
X455600Y106600D03*
X449236Y127400D03*
X435400Y107000D03*
X461200Y148400D03*
X446000Y146800D03*
X443441Y154700D03*
X455300Y142700D03*
X435900Y143900D03*
X460700Y283200D03*
X446900D03*
X438800Y311200D03*
X439200Y307610D03*
X439005Y300700D03*
X448500Y301200D03*
X454700Y301153D03*
X439100Y304100D03*
X452800Y284200D03*
X437000D03*
X441000Y284100D03*
X444300Y312200D03*
X449200Y312300D03*
X454000D03*
X459200D03*
X444400Y307700D03*
X449300Y307800D03*
X454100D03*
X459300D03*
Y301200D03*
X438378Y322091D03*
X439400Y325300D03*
X438900Y318500D03*
X454100Y316800D03*
X444300Y321200D03*
X449200Y321300D03*
X444400Y316700D03*
X449300Y316800D03*
X454000Y321300D03*
X453000Y328050D03*
X443150Y327350D03*
X459200Y321300D03*
X459300Y316800D03*
X449800Y357500D03*
X461778Y372000D03*
X448212Y347688D03*
X450900Y346700D03*
X441700Y475100D03*
X449094Y488406D03*
X457440Y501460D03*
X439647Y522053D03*
X453751Y501460D03*
X457100Y520300D03*
X446100Y501400D03*
X461778Y503900D03*
X461600Y520300D03*
X451200Y540100D03*
X461700Y523600D03*
X460616Y535684D03*
X457400Y534200D03*
X457100Y523600D03*
X485200Y59400D03*
X493000Y74700D03*
X486800Y85200D03*
X463803Y104100D03*
X466300Y107400D03*
X463800Y151700D03*
X466300Y157200D03*
X466600Y283200D03*
X484200Y299800D03*
X484700Y311100D03*
X463600Y301400D03*
X475636Y295300D03*
X483525Y313975D03*
X483800Y325300D03*
X482900Y329300D03*
X487300Y328800D03*
X464616Y313516D03*
X464700Y325300D03*
X465300Y328100D03*
X477300Y357600D03*
X465358Y372000D03*
X471398Y344702D03*
X490300Y410700D03*
X470080Y435580D03*
X472361Y438139D03*
X482700Y440600D03*
X470500D03*
X472400Y450700D03*
X466100Y520300D03*
X467900Y508800D03*
X480206Y520294D03*
X481000Y508800D03*
X465358Y503900D03*
X476500Y541700D03*
X465100Y537300D03*
X479700Y531143D03*
X468143Y533600D03*
X466200Y523600D03*
X494100Y18700D03*
X503200Y20300D03*
X514900Y29900D03*
X502500Y42800D03*
X514100Y42500D03*
X518220Y40800D03*
X507500Y37100D03*
X521800Y40800D03*
X510300Y23000D03*
X500500Y22800D03*
X505700Y62700D03*
X509700Y57600D03*
X496294Y109106D03*
X509740Y180900D03*
X506160D03*
X514660Y200300D03*
X506000Y197100D03*
X502420D03*
X518240Y200300D03*
X497894Y312900D03*
X510200Y291700D03*
X504706Y312800D03*
X512600Y298400D03*
X512460Y315600D03*
X516040D03*
X509300Y322600D03*
X504100Y410500D03*
X497200Y410700D03*
X495700Y448600D03*
X501700Y435600D03*
X508900Y470500D03*
X523800Y23100D03*
X526000Y38200D03*
X536200Y22600D03*
X525400Y43200D03*
X548700Y40700D03*
X525000Y30000D03*
X539400Y38100D03*
X549300Y23100D03*
X543050Y39550D03*
X540600Y23100D03*
X540900Y42800D03*
X531400Y22500D03*
X534200Y36600D03*
X536100Y56500D03*
X524600Y57300D03*
X530843Y99800D03*
X545700Y103700D03*
X534584D03*
X540060Y141200D03*
X543640D03*
X526200Y154700D03*
X549160Y167300D03*
X552740D03*
X526160Y252240D03*
X551700Y243800D03*
X546200Y237600D03*
X534600Y367400D03*
X530900Y367500D03*
X546200Y404400D03*
X551700Y408300D03*
X538400Y480300D03*
X523300Y477400D03*
X541400Y475200D03*
X579900Y36000D03*
X581840Y39400D03*
X556800Y16600D03*
X553800Y22800D03*
X559500Y15600D03*
X576000Y22900D03*
X565200Y22300D03*
X578260Y39400D03*
X555800Y42800D03*
X561900Y21500D03*
X565700Y38500D03*
X570700Y22400D03*
X557100Y22500D03*
X559500Y40400D03*
X575100Y38200D03*
X556500Y36700D03*
X571650Y36650D03*
X554900Y57500D03*
X565430Y56730D03*
X571700Y73100D03*
X563250Y72900D03*
X556700Y99800D03*
X568200Y89980D03*
X571700Y111008D03*
X562077Y157517D03*
X582560Y140100D03*
X565657Y157517D03*
X574160Y149100D03*
X577740D03*
X583220Y197900D03*
X564700Y247800D03*
X558700Y244300D03*
X571200Y251900D03*
X582600Y259300D03*
X576600Y256000D03*
X571400Y382100D03*
X576600Y388200D03*
X558700Y393400D03*
X564600Y399100D03*
X582600Y425400D03*
X568700Y468900D03*
X561500D03*
X554400D03*
X596900Y38900D03*
X610600Y39000D03*
X607020D03*
X588000Y41300D03*
X604300Y36300D03*
X585100Y37600D03*
X609700Y21900D03*
X591000Y36200D03*
X599160Y43000D03*
X584100Y23100D03*
X604400D03*
X593320Y38900D03*
X602740Y43000D03*
X591600Y42300D03*
X598600Y22500D03*
X598400Y57600D03*
X585800Y57800D03*
X605950Y44050D03*
X583900Y102500D03*
X588000Y86600D03*
X609700Y92661D03*
X589040Y127740D03*
X611867Y108993D03*
X593320Y132600D03*
X596900D03*
X585460Y127740D03*
X613000Y118100D03*
X605060Y146900D03*
X586140Y140100D03*
X608640Y146900D03*
X597320Y186200D03*
X600900D03*
X586800Y197900D03*
X612900Y210900D03*
X612100Y216900D03*
X588600Y262500D03*
X596700Y265000D03*
X604300Y268800D03*
X607800Y424100D03*
X612450Y423450D03*
X588600Y418600D03*
X604100Y432700D03*
X596700Y439700D03*
X619860Y40300D03*
X638300Y36800D03*
X615200Y22600D03*
X636300Y39300D03*
X616600Y39000D03*
X618200Y43200D03*
X639200Y22300D03*
X643220Y37800D03*
X623440Y40300D03*
X638325Y41662D03*
X620200Y30200D03*
X641600Y41800D03*
X640100Y29900D03*
X628100Y21600D03*
X621900Y36800D03*
X624400Y23100D03*
X635100Y21900D03*
X635500Y50000D03*
X617400Y59200D03*
X625000Y57500D03*
X635060Y83400D03*
X638640D03*
X629200Y95698D03*
X628100Y83561D03*
X632000Y79900D03*
X627367Y117893D03*
X630947D03*
X615447Y108993D03*
X635620Y132300D03*
X639200D03*
X641049Y155589D03*
X619860Y171400D03*
X623440D03*
X620920Y200900D03*
X630400Y207300D03*
X624500Y200900D03*
X626820Y207300D03*
X613700Y214500D03*
X622520Y281700D03*
X626100D03*
X627520Y276900D03*
X631100D03*
X639040Y276672D03*
X635460D03*
X624300Y304800D03*
X633400Y311300D03*
X614700Y331100D03*
X628600Y327500D03*
X625412Y327888D03*
X637352Y313525D03*
X640608Y313600D03*
X640700Y322400D03*
X636400Y335300D03*
Y326701D03*
X627700Y344400D03*
X643000Y364747D03*
X623000Y363500D03*
Y360200D03*
X637500Y391300D03*
X623700Y389400D03*
X625994Y390894D03*
X629453Y419700D03*
X623547Y420253D03*
X623700Y412600D03*
X640000Y411700D03*
X628800Y412900D03*
X635300Y412600D03*
X638497Y442700D03*
X634753D03*
X642828Y487872D03*
X648300Y43100D03*
X644200Y22700D03*
X656400Y36400D03*
X656500Y18200D03*
X656200Y23000D03*
X666000Y37100D03*
X667400Y42600D03*
X663820D03*
X647100Y17900D03*
X659200Y39300D03*
X655620D03*
X660400Y42700D03*
X646800Y37800D03*
X643700Y57400D03*
X670700Y57700D03*
X660900Y56600D03*
X648800Y93100D03*
X655660Y89900D03*
X645220Y93100D03*
X659240Y89900D03*
X661060Y78500D03*
X664640D03*
X651000Y89600D03*
X653900Y76341D03*
X663660Y130000D03*
X667240D03*
X647249Y124611D03*
X650829D03*
X671660Y133800D03*
X651476Y155700D03*
X644629Y155589D03*
X655056Y155700D03*
X665500Y309800D03*
X650300Y310200D03*
X650553Y291047D03*
X665453Y291147D03*
X659600Y316200D03*
X664300Y335700D03*
X672000Y315400D03*
X654800Y338100D03*
X649800Y322400D03*
X655200Y353600D03*
X672700Y361200D03*
X643800Y358900D03*
X664700Y353800D03*
X669500Y354200D03*
X645032Y382232D03*
X664900Y382900D03*
X659200Y383500D03*
X643700Y373300D03*
X668382Y420860D03*
X664802D03*
X660500Y421100D03*
X657731Y417600D03*
X648750Y432950D03*
X665600Y449300D03*
X653100Y449200D03*
X652706Y455100D03*
X660000Y455000D03*
Y449000D03*
X665800Y455800D03*
X666300Y480300D03*
X650600Y480500D03*
X662128Y487872D03*
X657972D03*
X659957Y465700D03*
X647500Y480500D03*
X664657Y467300D03*
X653900Y480500D03*
X686400Y37000D03*
X696100Y42200D03*
X684000Y42700D03*
X691840Y40400D03*
X674700Y37100D03*
X688260Y40400D03*
X684400Y22600D03*
X676500Y42000D03*
X696000Y23100D03*
X675900Y22000D03*
X694000Y36900D03*
X685400Y57200D03*
X689260Y91500D03*
X692840D03*
X675240Y133800D03*
X692940Y188700D03*
X689360D03*
X680760Y175100D03*
X684340D03*
X699000Y201700D03*
X695220Y209500D03*
X691700Y207400D03*
X697300Y212200D03*
Y204800D03*
X691700Y281300D03*
X679200Y311300D03*
X681312Y308200D03*
X702600Y334700D03*
X690750Y317250D03*
X676728Y340372D03*
X688300Y326700D03*
X687000Y337826D03*
X690744D03*
X673400Y357800D03*
X679700Y391800D03*
X693200Y391700D03*
X689106Y390194D03*
X684844Y377600D03*
X681100D03*
X682647Y418353D03*
X688553Y420353D03*
X693500Y414000D03*
X676400Y412600D03*
X689137Y414500D03*
X681263Y414337D03*
X723400Y17000D03*
X726450Y21250D03*
X704500Y16600D03*
X726500Y65900D03*
X723400Y63200D03*
X715700Y99200D03*
X719700Y86600D03*
X713000Y76200D03*
X733200Y107300D03*
X725440Y104200D03*
X721860D03*
X704860Y140200D03*
X708440D03*
X715700Y139800D03*
X719700Y136900D03*
X716260Y194800D03*
X719840D03*
X709760Y279500D03*
X713340D03*
X725540Y274708D03*
X721960D03*
X719540Y284900D03*
X715960D03*
X711400Y304800D03*
X720700Y311300D03*
X723500Y335300D03*
X727708Y313600D03*
X715700Y327500D03*
X727800Y322400D03*
X724452Y313525D03*
X712512Y327888D03*
X723500Y326701D03*
X714800Y344400D03*
X730100Y364747D03*
X711223Y358452D03*
X730900Y358900D03*
X711500Y362500D03*
X712600Y389400D03*
X724400Y391400D03*
X730400Y373400D03*
X715600Y390600D03*
X710647Y420053D03*
X716553Y418347D03*
X713387Y415920D03*
X726000Y411900D03*
X720637Y413837D03*
X714900Y413600D03*
X725597Y442700D03*
X721853D03*
X729928Y487872D03*
X758850Y40200D03*
X733600Y70500D03*
X763000Y43800D03*
X737600Y68400D03*
X750100Y64700D03*
X758800Y72200D03*
X755800Y69700D03*
X761550Y53500D03*
X747200Y66500D03*
X753000Y67300D03*
X744900Y64600D03*
X742200Y63000D03*
Y104300D03*
X753000Y212200D03*
X755800Y214500D03*
X747200Y207400D03*
X758800Y216900D03*
X742200Y201700D03*
X750100Y209500D03*
X744700Y204800D03*
X762900Y276100D03*
X752600Y309800D03*
X737400Y310200D03*
X737653Y291047D03*
X752553Y291147D03*
X746700Y316200D03*
X751400Y335700D03*
X759100Y315400D03*
X736900Y322400D03*
X741900Y338100D03*
X760500Y357800D03*
X742300Y353600D03*
X756600Y354200D03*
X759800Y361200D03*
X751800Y353800D03*
X755800Y396900D03*
X733300Y382300D03*
X746300Y383500D03*
X752000Y382900D03*
X751912Y422211D03*
X755492D03*
X762800Y413600D03*
X747600Y420300D03*
X744831Y420400D03*
X735850Y432950D03*
X747100Y455000D03*
X752900Y455800D03*
X751500Y448100D03*
X747100Y449000D03*
X739806Y455100D03*
X740200Y449200D03*
X747057Y465700D03*
X751757Y467300D03*
X734600Y480500D03*
X741000D03*
X753400Y480300D03*
X737700Y480500D03*
X749228Y487872D03*
X745072D03*
X788979Y35200D03*
X786300Y31900D03*
X765900Y50928D03*
X768700Y49100D03*
X775600Y76600D03*
X764500Y87500D03*
X779200Y86300D03*
X783400Y90100D03*
X771300Y78700D03*
X791819Y149630D03*
X772600Y217200D03*
X779200Y210000D03*
X783400Y207300D03*
X775600Y214200D03*
X786900Y264900D03*
X784000Y268800D03*
X773800Y278200D03*
X766300Y311300D03*
X768412Y308200D03*
X790300Y332200D03*
X777250Y316700D03*
X766200Y319000D03*
X763828Y340372D03*
X777844Y337826D03*
X774100D03*
X775400Y326700D03*
X767000Y392000D03*
X780500Y391600D03*
X771944Y377600D03*
X768200D03*
X776206Y390194D03*
X769847Y418347D03*
X775753Y420353D03*
X781100Y414100D03*
X776237Y414300D03*
X768363Y414337D03*
X821600Y42100D03*
X800500Y17300D03*
X794800Y40800D03*
X810300Y22400D03*
X816800D03*
X809414Y40900D03*
X794800Y61500D03*
X820400Y72200D03*
X823000Y54500D03*
X820100Y67300D03*
X820500Y62200D03*
X817900Y51300D03*
X823000Y69700D03*
X818500Y76400D03*
X810460Y116700D03*
X814040D03*
X795399Y149408D03*
X801020Y149100D03*
X804600D03*
X801140Y277973D03*
X797560D03*
X814040Y274500D03*
X810460D03*
X802920Y283400D03*
X806500D03*
X799200Y304800D03*
X808200Y311300D03*
X815508Y313600D03*
X812252Y313525D03*
X815600Y322400D03*
X811300Y335300D03*
X800312Y327888D03*
X803500Y327500D03*
X811300Y326701D03*
X798491Y358832D03*
X798500Y362900D03*
X802600Y344400D03*
X818950Y359150D03*
X818597Y364820D03*
X812200Y391400D03*
X798600Y388900D03*
X800894Y390894D03*
X819600Y382700D03*
X818100Y373500D03*
X798447Y420353D03*
X804353Y418347D03*
X798100Y415400D03*
X813700Y411900D03*
X808437Y413837D03*
X800563Y413100D03*
X809653Y442700D03*
X813397D03*
X817728Y487872D03*
X822400Y480500D03*
X839300Y28800D03*
X842200Y25600D03*
X829300Y20200D03*
X834500Y49200D03*
X829100Y57061D03*
X839600Y72800D03*
X828100Y64800D03*
X823800Y64700D03*
X833300Y67600D03*
X830800Y62600D03*
X836100Y70200D03*
X823400Y59600D03*
X840200Y80700D03*
X836100Y200200D03*
X840200Y196900D03*
X843900Y193900D03*
X833300Y203800D03*
X850200Y274600D03*
X825200Y310200D03*
X840400Y309800D03*
X825453Y291047D03*
X840353Y291147D03*
X852700Y318400D03*
X851628Y340372D03*
X846900Y315400D03*
X824700Y322400D03*
X839200Y335700D03*
X829700Y338100D03*
X834500Y316200D03*
X844400Y354200D03*
X839600Y353800D03*
X848300Y357800D03*
X830100Y353600D03*
X847600Y361200D03*
X843800Y397100D03*
X839800Y382900D03*
X834100Y383500D03*
X843282Y421760D03*
X849500Y413600D03*
X823650Y432950D03*
X835400Y419400D03*
X832631Y419500D03*
X839702Y421760D03*
X827606Y455100D03*
X838900Y447700D03*
X834900Y455000D03*
X828000Y449200D03*
X834900Y449000D03*
X840700Y455800D03*
X841200Y480300D03*
X837028Y487872D03*
X832872D03*
X825500Y480500D03*
X828800D03*
X839557Y467300D03*
X834857Y465700D03*
X862500Y9200D03*
X873200Y39600D03*
X857400Y15000D03*
X873400Y20300D03*
X866900Y40900D03*
X858800Y40200D03*
X867000Y20700D03*
X858800Y60500D03*
X882143Y52243D03*
X873314Y80386D03*
X880800Y81600D03*
X867000Y85300D03*
X863100Y82400D03*
X867000Y191400D03*
X881000Y182100D03*
X863100Y188000D03*
X866900Y217200D03*
X871400Y262300D03*
X873500Y259300D03*
X866900Y283200D03*
X854100Y311300D03*
X856212Y308200D03*
X865100Y316600D03*
X863200Y326700D03*
X865644Y337826D03*
X861900D03*
X855600Y391900D03*
X867800Y391600D03*
X864006Y390194D03*
X859744Y377600D03*
X856000D03*
X871100Y377400D03*
X857547Y418353D03*
X863453Y420453D03*
X871100Y424700D03*
X867600Y413800D03*
X856163Y414337D03*
X864037Y414200D03*
X906000Y32700D03*
X888400Y65200D03*
X884300Y68200D03*
X892800Y63300D03*
X901120Y173300D03*
X884300Y184900D03*
X892800Y176900D03*
X913000Y171700D03*
X904700Y173300D03*
X888400Y179600D03*
X909420Y171700D03*
X905300Y200200D03*
X904800Y203800D03*
X912360Y281116D03*
X904800Y331400D03*
X913100Y358700D03*
X941800Y9200D03*
X913600Y21700D03*
X917500Y38800D03*
X930900Y67000D03*
X937400D03*
X922200Y91200D03*
X918580Y87300D03*
X925047Y86400D03*
X925934Y122086D03*
X929514D03*
X922200Y170500D03*
X918580Y173600D03*
X915940Y281116D03*
X922840Y274700D03*
X930040Y279400D03*
X926460D03*
X919260Y274700D03*
X914200Y304800D03*
X922800Y311300D03*
X940453Y291047D03*
X940200Y310200D03*
X918500Y327500D03*
X927252Y313525D03*
X930508Y313600D03*
X915312Y327888D03*
X926300Y335300D03*
X939700Y322400D03*
X926300Y326701D03*
X930600Y322400D03*
X933300Y358500D03*
X933400Y372600D03*
X913500Y362400D03*
X932900Y364747D03*
X917600Y344400D03*
X913600Y388600D03*
X927200Y391400D03*
X935800Y382800D03*
X915894Y390894D03*
X913547Y420447D03*
X938650Y432950D03*
X928600Y411700D03*
X913283Y414983D03*
X915563Y413300D03*
X923437Y413837D03*
X919453Y418353D03*
X943000Y449200D03*
X942606Y455100D03*
X924653Y442700D03*
X928397D03*
X937400Y480500D03*
X940500D03*
X932728Y487872D03*
X943600Y67000D03*
X949100Y80900D03*
X971840Y94700D03*
X968260D03*
X972500Y102000D03*
X972800Y115300D03*
X972700Y193900D03*
X967020Y197000D03*
Y276280D03*
X955353Y291147D03*
X971212Y308200D03*
X969100Y311300D03*
X955400Y309800D03*
X967200Y318000D03*
X954200Y335700D03*
X944700Y338100D03*
X966628Y340372D03*
X961900Y315400D03*
X949500Y316200D03*
X954600Y353800D03*
X962600Y361200D03*
X963300Y357800D03*
X945100Y353600D03*
X959400Y354200D03*
X969800Y392000D03*
X957800Y397700D03*
X949100Y383500D03*
X954800Y382900D03*
X971000Y377600D03*
X954702Y421860D03*
X972747Y418347D03*
X958282Y421860D03*
X965300Y412300D03*
X971163Y414337D03*
X947631Y418400D03*
X950400Y418600D03*
X949900Y455000D03*
X954150Y447950D03*
X949900Y449000D03*
X955700Y455800D03*
X947872Y487872D03*
X952028D03*
X956200Y480300D03*
X943800Y480500D03*
X954557Y467300D03*
X949857Y465700D03*
X977860Y98700D03*
X981549D03*
X986660Y165460D03*
X993600Y188000D03*
X990240Y165460D03*
X997060Y164100D03*
X993100Y191400D03*
X1000640Y164100D03*
X981600Y214200D03*
X989900Y251900D03*
X998660Y276000D03*
X1002240D03*
X981600Y278800D03*
X987000Y256000D03*
X1002000Y304800D03*
X993100Y331900D03*
X981950Y326450D03*
X976900Y337826D03*
X980644D03*
X1003112Y327888D03*
X978200Y326700D03*
X1000600Y362100D03*
X1000400Y359000D03*
X1000300Y391400D03*
X983200Y391500D03*
X977800Y391100D03*
X974744Y377600D03*
X978653Y420147D03*
X1001347Y420247D03*
X983200Y413700D03*
X1000600Y415300D03*
X976800Y413800D03*
X1008920Y126600D03*
X1012500D03*
X1005860Y282416D03*
X1009440D03*
X1014800Y273400D03*
X1011220D03*
X1028253Y291047D03*
X1010800Y311300D03*
X1028000Y310200D03*
X1006300Y327500D03*
X1015052Y313525D03*
X1018308Y313600D03*
X1032500Y338100D03*
X1018400Y322400D03*
X1027500D03*
X1014100Y335300D03*
Y326701D03*
X1003800Y369300D03*
X1020700Y364747D03*
X1032900Y353600D03*
X1021750Y358650D03*
X1005400Y344400D03*
X1015100Y391200D03*
X1003694Y390894D03*
X1023900Y382800D03*
X1021000Y373400D03*
X1007253Y418353D03*
X1026450Y432950D03*
X1016400Y412500D03*
X1003363Y413200D03*
X1011237Y413837D03*
X1030406Y455100D03*
X1012453Y442700D03*
X1030800Y449200D03*
X1016197Y442700D03*
X1020528Y487872D03*
X1028300Y480500D03*
X1025200D03*
X1031600D03*
X1035400Y25300D03*
X1057700Y21700D03*
X1057200Y39900D03*
X1038000Y81600D03*
X1054500Y184900D03*
X1060000Y182100D03*
X1054500Y276700D03*
X1043200Y309800D03*
X1043153Y291147D03*
X1059012Y308200D03*
X1056900Y311300D03*
X1054500Y316050D03*
X1054428Y340372D03*
X1049700Y315400D03*
X1037300Y316200D03*
X1042000Y335700D03*
X1051100Y357800D03*
X1050400Y361200D03*
X1042400Y353800D03*
X1047200Y354200D03*
X1057600Y391900D03*
X1045200Y398100D03*
X1062544Y377600D03*
X1058800D03*
X1042600Y382900D03*
X1036900Y383500D03*
X1046082Y419892D03*
X1042502D03*
X1053400Y412500D03*
X1038200Y419300D03*
X1035431D03*
X1058963Y414337D03*
X1060547Y418347D03*
X1037700Y449000D03*
X1041750Y447750D03*
X1043500Y455800D03*
X1037700Y455000D03*
X1039828Y487872D03*
X1044000Y480300D03*
X1035672Y487872D03*
X1037657Y465700D03*
X1042357Y467300D03*
X1067600Y68700D03*
X1090660Y159800D03*
X1085140Y164500D03*
X1081560D03*
X1076600Y179600D03*
X1080400Y176900D03*
X1069500Y210000D03*
X1074000Y247800D03*
X1076400Y244300D03*
X1090640Y275800D03*
X1087060D03*
X1069500Y281700D03*
X1088900Y304400D03*
X1079900Y332200D03*
X1069750Y326550D03*
X1068444Y337826D03*
X1066000Y326700D03*
X1064700Y337826D03*
X1093200Y327100D03*
X1090012Y327488D03*
X1073800Y347000D03*
X1092300Y344000D03*
X1087300Y361200D03*
X1087100Y357800D03*
X1066500Y384700D03*
X1092200Y390800D03*
X1071400Y391900D03*
X1087600Y391100D03*
X1066806Y390194D03*
X1090263Y413437D03*
X1071700Y413200D03*
X1087900Y415400D03*
X1066453Y420247D03*
X1088247Y419847D03*
X1066837Y414300D03*
X1100100Y60800D03*
X1095500Y62600D03*
X1105447Y62447D03*
X1105000Y84600D03*
X1105950Y105650D03*
X1110740Y139500D03*
X1094240Y159800D03*
X1106925Y140595D03*
X1099340Y280960D03*
X1095760D03*
X1105685Y276200D03*
X1109265D03*
X1101952Y313125D03*
X1105208Y313200D03*
X1115153Y290647D03*
X1114900Y309800D03*
X1098000Y310900D03*
X1119400Y337700D03*
X1105300Y322000D03*
X1114400D03*
X1101000Y334900D03*
Y326301D03*
X1108400Y358500D03*
X1108100Y372700D03*
X1119800Y353200D03*
X1107600Y364347D03*
X1097406Y390906D03*
X1102400Y391400D03*
X1110400Y382000D03*
X1113350Y432950D03*
X1094153Y418347D03*
X1098137Y413363D03*
X1104000Y411700D03*
X1122300Y418425D03*
X1099353Y442700D03*
X1117700Y449200D03*
X1117306Y455100D03*
X1103097Y442700D03*
X1115200Y480500D03*
X1122572Y487872D03*
X1112100Y480500D03*
X1118500D03*
X1107428Y487872D03*
X1133147Y62453D03*
X1151053Y62447D03*
X1123553Y62653D03*
X1123398Y89598D03*
X1131800Y84000D03*
X1124900Y99500D03*
X1149002Y89398D03*
X1151800Y84100D03*
X1123300Y84200D03*
X1133200Y105800D03*
X1151200Y107100D03*
X1124100Y107400D03*
X1140700Y173600D03*
Y275800D03*
X1130053Y290747D03*
X1143800Y310900D03*
X1130100Y309400D03*
X1145912Y307800D03*
X1140700Y315500D03*
X1136600Y315000D03*
X1141328Y339972D03*
X1152900Y326300D03*
X1151600Y337426D03*
X1128900Y335300D03*
X1124200Y315800D03*
X1137300Y360800D03*
X1138000Y357400D03*
X1129300Y353400D03*
X1134100Y353800D03*
X1132050Y398850D03*
X1145700Y391800D03*
X1129500Y382500D03*
X1123800Y383100D03*
X1149444Y377200D03*
X1145700D03*
X1147447Y418347D03*
X1151800Y413900D03*
X1132982Y419892D03*
X1129402D03*
X1141500Y413200D03*
X1145863Y413937D03*
X1125100Y419800D03*
X1130400Y455800D03*
X1124600Y455000D03*
Y449000D03*
X1128500Y447600D03*
X1129257Y467300D03*
X1126728Y487872D03*
X1130900Y480300D03*
X1124557Y465700D03*
X1159900Y170500D03*
X1155900Y207300D03*
X1166200Y237500D03*
X1162900Y240400D03*
X1155900Y282700D03*
X1156650Y326250D03*
X1155344Y337426D03*
X1162200Y376500D03*
Y384900D03*
X1153706Y391206D03*
X1157300Y391700D03*
X1155000Y420300D03*
X1156800Y414400D03*
X1186700Y69100D03*
G54D30*
X195700Y536563D03*
Y544437D03*
X432900Y489437D03*
Y481563D03*
G54D12*
X13300Y177006D03*
Y170194D03*
X34500Y146894D03*
Y153706D03*
X89000Y238994D03*
Y245806D03*
X151300Y526494D03*
Y533306D03*
X212800Y168394D03*
Y175206D03*
X205200Y544506D03*
Y537694D03*
X441700Y488406D03*
Y481594D03*
X474000Y520294D03*
Y527106D03*
X651500Y342894D03*
X668100Y343094D03*
X661500D03*
X645200Y342894D03*
X651500Y349706D03*
X668100Y349906D03*
X661500D03*
X645200Y349706D03*
X656900Y394606D03*
Y387794D03*
X663200D03*
Y394606D03*
X732300Y342894D03*
Y349706D03*
X738600Y342894D03*
X755200Y343094D03*
X748600D03*
X738600Y349706D03*
X755200Y349906D03*
X748600D03*
X744000Y394606D03*
Y387794D03*
X750300D03*
Y394606D03*
X794800Y47194D03*
Y54006D03*
X820100Y342894D03*
Y349706D03*
X826400Y342894D03*
X843000Y343094D03*
X836400D03*
X826400Y349706D03*
X843000Y349906D03*
X836400D03*
X831800Y394606D03*
Y387794D03*
X838100D03*
Y394606D03*
X858800Y47594D03*
Y54406D03*
X935100Y342894D03*
X941400D03*
X935100Y349706D03*
X941400D03*
X951400Y343094D03*
X958000D03*
X951400Y349906D03*
X958000D03*
X953100Y387794D03*
Y394606D03*
X946800D03*
Y387794D03*
X1029200Y342894D03*
X1022900D03*
X1029200Y349706D03*
X1022900D03*
X1038000Y68994D03*
Y75806D03*
X1045800Y343094D03*
X1039200D03*
X1045800Y349906D03*
X1039200D03*
X1034600Y394606D03*
Y387794D03*
X1040900D03*
Y394606D03*
X1095500Y55606D03*
Y48794D03*
X1105400Y55606D03*
Y48794D03*
X1116100Y342494D03*
X1109800D03*
X1116100Y349306D03*
X1109800D03*
X1121500Y394206D03*
Y387394D03*
X1132700Y342694D03*
X1126100D03*
X1132700Y349506D03*
X1126100D03*
X1127800Y387394D03*
Y394206D03*
G54D21*
X80464Y361700D03*
X76536D03*
X420636Y39900D03*
X424564D03*
X409736Y117400D03*
X413664D03*
Y130800D03*
X409736D03*
X428164Y301000D03*
X424236D03*
X428164Y305600D03*
X424236D03*
X453164Y131200D03*
X449236D03*
Y119400D03*
X453164D03*
X456736Y540100D03*
X460664D03*
X475636Y299800D03*
X479564D03*
X475736Y325300D03*
X479664D03*
X475636Y313600D03*
X479564D03*
X468336Y455700D03*
X472264D03*
X484836Y534000D03*
X488764D03*
G54D13*
X22847Y130500D03*
X28753D03*
X64753Y288900D03*
X58847D03*
X58747Y295900D03*
X64653D03*
X98953Y283200D03*
X93047D03*
X222953Y210100D03*
X217047D03*
X221953Y341800D03*
X216047D03*
X249947Y35800D03*
X255853D03*
X262947D03*
X268853D03*
X396447Y264000D03*
X402353D03*
X396447Y273100D03*
X402353D03*
X376847Y398900D03*
X382753D03*
X414147Y264000D03*
X420053D03*
X490647Y441000D03*
Y435600D03*
X488753Y551400D03*
X482847D03*
Y541700D03*
X488753D03*
X496553Y441000D03*
Y435600D03*
X521653Y470500D03*
X515747D03*
X534647Y470600D03*
X540553D03*
X623547Y424800D03*
X629453D03*
X644647Y300500D03*
X650553D03*
X659547Y300400D03*
X665453D03*
X688553Y424800D03*
X682647D03*
X731747Y300500D03*
X710647Y424800D03*
X716553D03*
X737653Y300500D03*
X746647Y300400D03*
X752553D03*
X775753Y424800D03*
X769847D03*
X819547Y300500D03*
X798447Y424800D03*
X804353D03*
X825453Y300500D03*
X834447Y300400D03*
X840353D03*
X863453Y424800D03*
X857547D03*
X925047Y80900D03*
X930953D03*
X943353D03*
X937447D03*
X934547Y300500D03*
X940453D03*
X913547Y424800D03*
X919453D03*
X949447Y300400D03*
X955353D03*
X972747Y424800D03*
X978653D03*
X1001347D03*
X1022347Y300500D03*
X1028253D03*
X1007253Y424800D03*
X1037247Y300400D03*
X1043153D03*
X1060547Y424800D03*
X1088247D03*
X1066453D03*
X1109247Y300100D03*
X1115153D03*
X1094153Y424800D03*
X1124147Y300000D03*
X1130053D03*
X1153353Y424800D03*
X1147447D03*
G54D31*
X281960Y72272D03*
X289440D03*
X285700Y81328D03*
G54D22*
X90000Y551300D03*
X233800D03*
X377600D03*
X521400D03*
G54D40*
X637202Y457400D03*
X674998D03*
X724302D03*
X762098D03*
X812102D03*
X849898D03*
X927202D03*
X964998D03*
X1015002D03*
X1052798D03*
X1101902Y457600D03*
X1139698D03*
G54D32*
X372263Y264200D03*
X380137D03*
X468863Y56300D03*
X476737D03*
X497763Y299700D03*
X505637D03*
X633537Y406900D03*
X625663D03*
X681263Y407600D03*
X689137D03*
X720637Y406900D03*
X712763D03*
X768363Y407600D03*
X776237D03*
X808437Y406900D03*
X800563D03*
X856163Y407600D03*
X864037D03*
X923437Y406900D03*
X915563D03*
X971163Y407600D03*
X979037D03*
X1003363Y406900D03*
X1011237D03*
X1058963Y407600D03*
X1090263Y406500D03*
X1066837Y407600D03*
X1098137Y406500D03*
X1145863Y407200D03*
X1153737D03*
G54D14*
X40960Y113800D03*
X48440D03*
X100440Y309100D03*
X92960D03*
X216460Y237200D03*
X223140Y367900D03*
X215660D03*
X223940Y237200D03*
X274760Y36000D03*
X282240D03*
X339140Y62900D03*
X331660D03*
X359040D03*
X351560D03*
X370160Y62600D03*
X377640D03*
X398860Y390000D03*
X406340D03*
G54D41*
X628049Y441258D03*
Y480628D03*
Y519998D03*
X640549Y500313D03*
X628049Y559369D03*
X661809Y500313D03*
X650391Y579054D03*
X684151Y500313D03*
Y539683D03*
Y579054D03*
X715149Y441258D03*
Y480628D03*
Y519998D03*
X727649Y500313D03*
X715149Y559369D03*
X748909Y500313D03*
X737491Y579054D03*
X771251Y500313D03*
Y539683D03*
Y579054D03*
X802949Y441258D03*
Y480628D03*
Y519998D03*
X815449Y500313D03*
X802949Y559369D03*
X825291Y579054D03*
X836709Y500313D03*
X859051D03*
Y539683D03*
Y579054D03*
X918049Y441258D03*
Y480628D03*
Y519998D03*
X930549Y500313D03*
X918049Y559369D03*
X940391Y579054D03*
X951809Y500313D03*
X974151D03*
Y539683D03*
Y579054D03*
X1005849Y441258D03*
Y480628D03*
Y519998D03*
X1018349Y500313D03*
X1005849Y559369D03*
X1028191Y579054D03*
X1039609Y500313D03*
X1061951D03*
Y539683D03*
Y579054D03*
X1092749Y441458D03*
Y480828D03*
Y520198D03*
Y559569D03*
X1105249Y500513D03*
X1115091Y579254D03*
X1126509Y500513D03*
X1148851D03*
Y539883D03*
Y579254D03*
G54D23*
X100000Y551300D03*
X243800D03*
X387600D03*
X531400D03*
G54D50*
X1077200Y76500D03*
Y96000D03*
X1086800Y122300D03*
X1086900Y146600D03*
X1145400Y36100D03*
X1178300Y76500D03*
X1178400Y96000D03*
X1178500Y122300D03*
X1178400Y146600D03*
G54D33*
X434094Y18700D03*
X434194Y32200D03*
Y47700D03*
X445906Y18700D03*
X446006Y32200D03*
Y47700D03*
X464494Y68400D03*
X476306D03*
X464494Y81300D03*
X476306D03*
G54D15*
X19572Y116900D03*
X28628Y113160D03*
Y120640D03*
X102228Y296000D03*
X93172Y299740D03*
Y292260D03*
X216972Y218760D03*
Y226240D03*
X216172Y358140D03*
Y350660D03*
X226028Y222500D03*
X225228Y354400D03*
X396672Y248500D03*
X373672Y387100D03*
X382728Y383360D03*
Y390840D03*
X405728Y244760D03*
Y252240D03*
X1055472Y126000D03*
X1064528Y122260D03*
Y129740D03*
X1146472Y125800D03*
X1155528Y122060D03*
Y129540D03*
G54D24*
X80000Y571300D03*
X120000D03*
X223800D03*
X263800D03*
X367600D03*
X407600D03*
X511400D03*
X551400D03*
G54D42*
X684151Y460943D03*
X771251D03*
X859051D03*
X974151D03*
X1061951D03*
X1148851Y461143D03*
G54D16*
X20400Y176153D03*
Y170247D03*
Y190253D03*
Y184347D03*
X364400Y473747D03*
Y479653D03*
X370400Y473747D03*
Y479653D03*
X376300Y473747D03*
Y479653D03*
X382400Y473747D03*
Y479653D03*
X424300Y473747D03*
Y479653D03*
X418500Y473747D03*
Y479653D03*
X412800Y473747D03*
Y479653D03*
X407000Y473747D03*
Y479653D03*
X490300Y416147D03*
Y422053D03*
X504100Y416147D03*
Y422053D03*
X497200Y416147D03*
Y422053D03*
X568700Y457647D03*
X561500D03*
X554400D03*
X568700Y463553D03*
X561500D03*
X554400D03*
X816800Y27247D03*
Y33153D03*
X810300Y27247D03*
Y33153D03*
X873400Y27247D03*
Y33153D03*
X867000Y27247D03*
Y33153D03*
G54D43*
X964900Y43795D03*
X1009900D03*
G54D25*
X133974Y38800D03*
G54D34*
X456000Y228400D03*
X459507D03*
X490000Y230800D03*
X485941Y230248D03*
X501521Y236200D03*
X498014D03*
X646850Y235350D03*
X643343D03*
X643636Y277539D03*
X647143D03*
X643431Y317600D03*
X647100D03*
X730293Y235000D03*
X730393Y275400D03*
X730531Y317600D03*
X733800Y235000D03*
X733900Y275400D03*
X734200Y317600D03*
X820994Y232493D03*
X817487D03*
X818100Y274044D03*
X821607D03*
X822000Y317600D03*
X818331D03*
X936804Y232703D03*
X933297D03*
X933293Y282097D03*
X936800D03*
X937000Y317600D03*
X933331D03*
X1025106Y228402D03*
X1021599D03*
X1024491Y276800D03*
X1020984D03*
X1021131Y317600D03*
X1024800D03*
X1114700Y226400D03*
X1111193D03*
X1110993Y279400D03*
X1114500D03*
X1108031Y317200D03*
X1111700D03*
G54D35*
X460700Y290764D03*
Y286836D03*
X446900Y290764D03*
Y286836D03*
X444900Y338436D03*
Y342364D03*
X450900Y338436D03*
Y342364D03*
X466600Y290764D03*
Y286836D03*
X466300Y338436D03*
Y342364D03*
X937400Y70736D03*
X930900D03*
X937400Y74664D03*
X930900D03*
X943600Y70836D03*
Y74764D03*
G54D17*
X70100Y29369D03*
Y52991D03*
G54D26*
X152084Y38800D03*
G54D44*
X971278Y27811D03*
X961239D03*
X1003522D03*
X1013561D03*
G54D27*
X156128Y208200D03*
X159672D03*
X156028Y279000D03*
X159572D03*
X156028Y337400D03*
X159572D03*
X192172Y208000D03*
X188628D03*
X192072Y278900D03*
X188528D03*
X191872Y337500D03*
X188328D03*
X420628Y117800D03*
X424172D03*
X428572Y323300D03*
X425028D03*
X428572Y327400D03*
X425028D03*
X420328Y455700D03*
X423872D03*
X420328Y450300D03*
X423872D03*
X441872Y119800D03*
X438328D03*
X479072Y440600D03*
X475528D03*
X476272Y508800D03*
X472728D03*
X632828Y354500D03*
X636372D03*
X647028Y306700D03*
X650572D03*
X668972Y306400D03*
X665428D03*
X719928Y354500D03*
X723472D03*
X734128Y306700D03*
X737672D03*
X756072Y306400D03*
X752528D03*
X821928Y306700D03*
X807728Y354500D03*
X811272D03*
X825472Y306700D03*
X843872Y306400D03*
X840328D03*
X936928Y306700D03*
X940472D03*
X922728Y354500D03*
X926272D03*
X958872Y306400D03*
X955328D03*
X1024728Y306700D03*
X1028272D03*
X1010528Y354500D03*
X1014072D03*
X1046672Y306400D03*
X1043128D03*
X1111628Y306300D03*
X1115172D03*
X1097428Y354100D03*
X1100972D03*
X1133572Y306000D03*
X1130028D03*
G54D18*
X88604Y41180D03*
G54D45*
X956475Y55803D03*
X1018325D03*
G54D36*
X492953Y52008D03*
X707047Y40000D03*
G54D28*
X180300Y220228D03*
X176300D03*
X172300D03*
X168300D03*
X180300Y223772D03*
X176300D03*
X172300D03*
X168300D03*
X180100Y292672D03*
Y289128D03*
X168300Y292672D03*
Y289128D03*
X176200Y292672D03*
Y289128D03*
X172300Y292672D03*
Y289128D03*
X180100Y353272D03*
Y349728D03*
X176100Y353272D03*
Y349728D03*
X172100Y353272D03*
Y349728D03*
X168100Y353272D03*
Y349728D03*
X666300Y484328D03*
Y487872D03*
X653900Y484328D03*
Y487872D03*
X650300Y484328D03*
Y487872D03*
X646600Y484328D03*
Y487872D03*
X753400Y484328D03*
Y487872D03*
X733700Y484328D03*
Y487872D03*
X741000Y484328D03*
Y487872D03*
X737400Y484328D03*
Y487872D03*
X821500Y484328D03*
Y487872D03*
X841200Y484328D03*
Y487872D03*
X828800Y484328D03*
Y487872D03*
X825200Y484328D03*
Y487872D03*
X936500Y484328D03*
Y487872D03*
X940200Y484328D03*
Y487872D03*
X956200Y484328D03*
Y487872D03*
X943800Y484328D03*
Y487872D03*
X1029600Y72572D03*
Y69028D03*
X1024300Y484328D03*
Y487872D03*
X1031600Y484328D03*
Y487872D03*
X1028000Y484328D03*
Y487872D03*
X1044000Y484328D03*
Y487872D03*
X1067600Y73028D03*
Y76572D03*
Y99472D03*
Y95928D03*
X1111200Y484328D03*
Y487872D03*
X1118500Y484328D03*
Y487872D03*
X1114900Y484328D03*
Y487872D03*
X1130900Y484328D03*
Y487872D03*
X1186700Y72928D03*
Y76472D03*
X1186600Y99472D03*
Y95928D03*
G54D46*
X969900Y68795D03*
X999900D03*
X989900D03*
X979900D03*
X994900Y78795D03*
X984900D03*
X974900D03*
X1009900Y68795D03*
X1004900Y78795D03*
G54D19*
X76400Y249400D03*
X76300Y263400D03*
X113200Y142100D03*
X131700D03*
X143000Y400000D03*
X155000D03*
Y388000D03*
X143000D03*
X179300Y95000D03*
Y119700D03*
X222000Y15700D03*
X222200Y29300D03*
X197100Y119500D03*
X200100Y192800D03*
X200200Y178800D03*
X200100Y249700D03*
X200000Y263700D03*
X369300Y438700D03*
X397900Y418000D03*
X384000D03*
X397900Y431900D03*
X384000D03*
X397900Y445800D03*
X383900D03*
X397900Y459700D03*
X383800D03*
X422100Y357500D03*
X422000Y371200D03*
X494200Y348100D03*
X494100Y361800D03*
X508700Y348100D03*
X508600Y361800D03*
X522000Y432400D03*
Y418500D03*
Y460200D03*
Y446300D03*
X508100Y438900D03*
X534700Y432600D03*
Y418700D03*
Y460400D03*
Y446500D03*
X699100Y373500D03*
Y360900D03*
Y386000D03*
X786500Y373500D03*
X786600Y360900D03*
Y386000D03*
X881300Y373500D03*
Y360900D03*
Y386000D03*
X908600Y66400D03*
X908000Y50200D03*
X989000Y373500D03*
Y360900D03*
Y386000D03*
X1069800Y42500D03*
X1069400Y29800D03*
X1069700Y55200D03*
X1077100Y373500D03*
Y360900D03*
Y386000D03*
X1108300Y123100D03*
X1120500Y123000D03*
Y136700D03*
X1136000Y141900D03*
X1148300Y141600D03*
X1148400Y155200D03*
X1170000Y42500D03*
X1183100Y42200D03*
X1169900Y55200D03*
X1171200Y373500D03*
Y360900D03*
X1171300Y386000D03*
G54D37*
X522500Y27500D03*
X517500D03*
X512500D03*
X507500D03*
X502500D03*
X522500Y32500D03*
X517500D03*
X512500D03*
X507500D03*
X502500D03*
X522500Y47500D03*
X517500D03*
X512500D03*
X507500D03*
X502500D03*
X522500Y52500D03*
X517500D03*
X512500D03*
X507500D03*
X502500D03*
X552500Y27500D03*
X547500D03*
X542500D03*
X537500D03*
X532500D03*
X527500D03*
X552500Y32500D03*
X547500D03*
X542500D03*
X537500D03*
X532500D03*
X527500D03*
X552500Y47500D03*
X547500D03*
X542500D03*
X537500D03*
X532500D03*
X527500D03*
X552500Y52500D03*
X547500D03*
X542500D03*
X537500D03*
X532500D03*
X527500D03*
X582500Y27500D03*
X577500D03*
X572500D03*
X567500D03*
X562500D03*
X557500D03*
X582500Y32500D03*
X577500D03*
X572500D03*
X567500D03*
X562500D03*
X557500D03*
X582500Y47500D03*
X577500D03*
X572500D03*
X567500D03*
X562500D03*
X557500D03*
X582500Y52500D03*
X577500D03*
X572500D03*
X567500D03*
X562500D03*
X557500D03*
X612500Y27500D03*
X607500D03*
X602500D03*
X597500D03*
X592500D03*
X587500D03*
X612500Y32500D03*
X607500D03*
X602500D03*
X597500D03*
X592500D03*
X587500D03*
X612500Y47500D03*
X607500D03*
X602500D03*
X597500D03*
X592500D03*
X587500D03*
X612500Y52500D03*
X607500D03*
X602500D03*
X597500D03*
X592500D03*
X587500D03*
X642500Y27500D03*
X637500D03*
X632500D03*
X627500D03*
X622500D03*
X617500D03*
X642500Y32500D03*
X637500D03*
X632500D03*
X627500D03*
X622500D03*
X617500D03*
X642500Y47500D03*
X637500D03*
X632500D03*
X627500D03*
X622500D03*
X617500D03*
X642500Y52500D03*
X637500D03*
X632500D03*
X627500D03*
X622500D03*
X617500D03*
X672500Y27500D03*
X667500D03*
X662500D03*
X657500D03*
X652500D03*
X647500D03*
X672500Y32500D03*
X667500D03*
X662500D03*
X657500D03*
X652500D03*
X647500D03*
X672500Y47500D03*
X667500D03*
X662500D03*
X657500D03*
X652500D03*
X647500D03*
X672500Y52500D03*
X667500D03*
X662500D03*
X657500D03*
X652500D03*
X647500D03*
X697500Y27500D03*
X692500D03*
X687500D03*
X682500D03*
X677500D03*
X697500Y32500D03*
X692500D03*
X687500D03*
X682500D03*
X677500D03*
X697500Y47500D03*
X692500D03*
X687500D03*
X682500D03*
X677500D03*
X697500Y52500D03*
X692500D03*
X687500D03*
X682500D03*
X677500D03*
G54D38*
X621850Y311300D03*
X629350D03*
Y321500D03*
X625600D03*
X621850D03*
X684550Y311300D03*
X692050D03*
Y321500D03*
X688300D03*
X684550D03*
X708950Y311300D03*
X716450D03*
Y321500D03*
X712700D03*
X708950D03*
X771650Y311300D03*
X779150D03*
Y321500D03*
X775400D03*
X771650D03*
X796750Y311300D03*
X804250D03*
Y321500D03*
X800500D03*
X796750D03*
X859450Y311300D03*
X866950D03*
Y321500D03*
X863200D03*
X859450D03*
X911750Y311300D03*
Y321500D03*
X919250Y311300D03*
Y321500D03*
X915500D03*
X974450Y311300D03*
X981950D03*
X999550D03*
X981950Y321500D03*
X978200D03*
X974450D03*
X1003300D03*
X999550D03*
X1007050Y311300D03*
Y321500D03*
X1062250Y311300D03*
Y321500D03*
X1086450Y310900D03*
X1069750Y311300D03*
X1090200Y321100D03*
X1086450D03*
X1069750Y321500D03*
X1066000D03*
X1093950Y310900D03*
Y321100D03*
X1149150Y310900D03*
X1152900Y321100D03*
X1149150D03*
X1156650Y310900D03*
Y321100D03*
G54D47*
X964900Y78795D03*
G54D29*
X223940Y244640D03*
X468336Y460164D03*
X887200Y41100D03*
G54D48*
X969000Y106300D03*
Y108900D03*
Y111500D03*
X976000D03*
Y108900D03*
Y106300D03*
G54D39*
X637202Y432991D03*
X628049Y451101D03*
Y470786D03*
Y489290D03*
X656100Y432991D03*
X674998D03*
X684151Y451101D03*
Y489290D03*
Y470786D03*
X724302Y432991D03*
X715149Y451101D03*
Y470786D03*
Y489290D03*
X743200Y432991D03*
X762098D03*
X771251Y451101D03*
Y489290D03*
Y470786D03*
X812102Y432991D03*
X802949Y451101D03*
Y470786D03*
Y489290D03*
X831000Y432991D03*
X849898D03*
X859051Y451101D03*
Y489290D03*
Y470786D03*
X927202Y432991D03*
X918049Y451101D03*
Y470786D03*
Y489290D03*
X946100Y432991D03*
X964998D03*
X974151Y451101D03*
Y489290D03*
Y470786D03*
X1015002Y432991D03*
X1033900D03*
X1005849Y451101D03*
Y470786D03*
Y489290D03*
X1052798Y432991D03*
X1061951Y451101D03*
Y489290D03*
Y470786D03*
X1092749Y451301D03*
Y470986D03*
Y489490D03*
X1101902Y433191D03*
X1120800D03*
X1139698D03*
X1148851Y451301D03*
Y489490D03*
Y470986D03*
G54D49*
X1087200Y76500D03*
Y96000D03*
X1076800Y122300D03*
X1076900Y146600D03*
X1115400Y36100D03*
Y26100D03*
X1105400Y36100D03*
Y26100D03*
X1095400Y36100D03*
Y26100D03*
X1145400D03*
X1135400Y36100D03*
Y26100D03*
X1125400Y36100D03*
Y26100D03*
X1168300Y76500D03*
X1168400Y96000D03*
X1168500Y122300D03*
X1168400Y146600D03*
M02*
