M48
; DRILL file {KiCad 7.0.8} date Fri Jun 27 13:18:54 2025
; FORMAT={-:-/ absolute / metric / decimal}
; #@! TF.CreationDate,2025-06-27T13:18:54+01:00
; #@! TF.GenerationSoftware,Kicad,Pcbnew,7.0.8
; #@! TF.FileFunction,Plated,1,2,PTH
FMAT,2
METRIC
; #@! TA.AperFunction,Plated,PTH,ViaDrill
T1C0.800
; #@! TA.AperFunction,Plated,PTH,ComponentDrill
T2C0.800
; #@! TA.AperFunction,Plated,PTH,ComponentDrill
T3C1.000
; #@! TA.AperFunction,Plated,PTH,ComponentDrill
T4C1.016
; #@! TA.AperFunction,Plated,PTH,ComponentDrill
T5C1.100
; #@! TA.AperFunction,Plated,PTH,ComponentDrill
T6C1.300
; #@! TA.AperFunction,Plated,PTH,ComponentDrill
T7C1.320
; #@! TA.AperFunction,Plated,PTH,ComponentDrill
T8C1.350
; #@! TA.AperFunction,Plated,PTH,ComponentDrill
T9C1.500
; #@! TA.AperFunction,Plated,PTH,ComponentDrill
T10C3.700
%
G90
G05
T1
X96.012Y-66.04
X99.568Y-86.868
X104.14Y-66.04
X111.76Y-85.344
X114.808Y-66.04
X122.936Y-66.04
T2
X129.54Y-98.044
X129.54Y-103.044
X139.954Y-104.648
X142.494Y-104.648
X145.034Y-104.648
T3
X108.244Y-89.916
X112.268Y-95.885
X112.268Y-106.045
X113.244Y-89.916
X119.888Y-95.885
X119.888Y-106.045
X140.208Y-96.52
X141.224Y-111.76
X151.384Y-111.76
X157.48Y-92.44
X157.48Y-94.98
X157.48Y-97.52
X157.48Y-100.06
X157.48Y-102.6
X157.48Y-105.14
X157.48Y-107.68
X157.48Y-110.22
X157.48Y-112.76
X157.48Y-115.3
X182.88Y-92.44
X182.88Y-94.98
X182.88Y-97.52
X182.88Y-100.06
X182.88Y-102.6
X182.88Y-105.14
X182.88Y-107.68
X182.88Y-110.22
X182.88Y-112.76
X182.88Y-115.3
X187.96Y-63.5
X187.96Y-73.66
X187.96Y-82.296
X187.96Y-92.456
X187.96Y-100.076
X187.96Y-110.236
X190.754Y-50.546
X193.04Y-71.064
X193.04Y-73.604
X193.04Y-76.144
X193.04Y-86.36
X193.04Y-88.9
X193.04Y-91.44
X193.04Y-101.6
X193.04Y-104.14
X193.04Y-106.68
X193.04Y-116.84
X193.04Y-119.38
X193.04Y-121.92
X193.294Y-50.546
X195.834Y-50.546
X198.374Y-50.546
X200.66Y-71.064
X200.66Y-73.604
X200.66Y-76.144
X200.66Y-86.36
X200.66Y-88.9
X200.66Y-91.44
X200.66Y-101.6
X200.66Y-104.14
X200.66Y-106.68
X200.66Y-116.84
X200.66Y-119.38
X200.66Y-121.92
X213.868Y-50.8
X213.868Y-86.36
X213.868Y-94.488
X213.868Y-102.616
X213.868Y-110.744
X213.868Y-118.872
X216.408Y-50.8
X218.948Y-50.8
X221.488Y-50.8
X224.028Y-86.36
X224.028Y-94.488
X224.028Y-102.616
X224.028Y-110.744
X224.028Y-118.872
T4
X147.828Y-96.52
T5
X98.044Y-94.488
X98.044Y-97.028
X98.044Y-99.568
X104.648Y-96.012
X104.648Y-106.172
T6
X140.328Y-62.544
X140.328Y-67.584
X140.328Y-72.624
X140.328Y-87.884
X147.828Y-62.544
X147.828Y-67.584
X147.828Y-72.624
X147.828Y-87.884
T7
X133.0Y-50.5
X138.0Y-50.5
X144.5Y-50.5
X149.5Y-50.5
X156.0Y-50.5
X161.0Y-50.5
T8
X66.0Y-115.0
X66.0Y-125.16
X83.0Y-115.0
X83.0Y-125.16
X100.0Y-115.0
X100.0Y-125.16
X117.0Y-115.0
X117.0Y-125.16
T9
X96.0Y-60.3
X104.0Y-60.3
X115.0Y-60.3
X123.0Y-60.3
T10
X100.0Y-50.0
X119.0Y-50.0
T0
M30
