%TF.GenerationSoftware,KiCad,Pcbnew,9.0.4*%
%TF.CreationDate,2025-10-09T09:57:25+01:00*%
%TF.ProjectId,PCB_Health.V2,5043425f-4865-4616-9c74-682e56322e6b,rev?*%
%TF.SameCoordinates,Original*%
%TF.FileFunction,Drillmap*%
%TF.FilePolarity,Positive*%
%FSLAX45Y45*%
G04 Gerber Fmt 4.5, Leading zero omitted, Abs format (unit mm)*
G04 Created by KiCad (PCBNEW 9.0.4) date 2025-10-09 09:57:25*
%MOMM*%
%LPD*%
G01*
G04 APERTURE LIST*
%ADD10C,0.100000*%
%ADD11C,0.200000*%
%ADD12C,0.320000*%
G04 APERTURE END LIST*
D10*
X5650000Y-4400000D02*
X23000000Y-4400000D01*
X23000000Y-14000000D01*
X5650000Y-14000000D01*
X5650000Y-4400000D01*
D11*
D12*
X6340000Y-5040000D02*
X6660000Y-5360000D01*
X6660000Y-5040000D02*
X6340000Y-5360000D01*
X7968000Y-9542800D02*
X8288000Y-9862800D01*
X8288000Y-9542800D02*
X7968000Y-9862800D01*
X13440000Y-11740000D02*
X13760000Y-12060000D01*
X13760000Y-11740000D02*
X13440000Y-12060000D01*
X17090000Y-5040000D02*
X17410000Y-5360000D01*
X17410000Y-5040000D02*
X17090000Y-5360000D01*
X22040000Y-13040000D02*
X22360000Y-13360000D01*
X22360000Y-13040000D02*
X22040000Y-13360000D01*
D11*
X5905777Y-14316484D02*
X5905777Y-14116484D01*
X5905777Y-14116484D02*
X5953396Y-14116484D01*
X5953396Y-14116484D02*
X5981967Y-14126008D01*
X5981967Y-14126008D02*
X6001015Y-14145055D01*
X6001015Y-14145055D02*
X6010539Y-14164103D01*
X6010539Y-14164103D02*
X6020062Y-14202198D01*
X6020062Y-14202198D02*
X6020062Y-14230769D01*
X6020062Y-14230769D02*
X6010539Y-14268865D01*
X6010539Y-14268865D02*
X6001015Y-14287912D01*
X6001015Y-14287912D02*
X5981967Y-14306960D01*
X5981967Y-14306960D02*
X5953396Y-14316484D01*
X5953396Y-14316484D02*
X5905777Y-14316484D01*
X6105777Y-14316484D02*
X6105777Y-14183150D01*
X6105777Y-14221246D02*
X6115301Y-14202198D01*
X6115301Y-14202198D02*
X6124824Y-14192674D01*
X6124824Y-14192674D02*
X6143872Y-14183150D01*
X6143872Y-14183150D02*
X6162920Y-14183150D01*
X6229586Y-14316484D02*
X6229586Y-14183150D01*
X6229586Y-14116484D02*
X6220062Y-14126008D01*
X6220062Y-14126008D02*
X6229586Y-14135531D01*
X6229586Y-14135531D02*
X6239110Y-14126008D01*
X6239110Y-14126008D02*
X6229586Y-14116484D01*
X6229586Y-14116484D02*
X6229586Y-14135531D01*
X6353396Y-14316484D02*
X6334348Y-14306960D01*
X6334348Y-14306960D02*
X6324824Y-14287912D01*
X6324824Y-14287912D02*
X6324824Y-14116484D01*
X6458158Y-14316484D02*
X6439110Y-14306960D01*
X6439110Y-14306960D02*
X6429586Y-14287912D01*
X6429586Y-14287912D02*
X6429586Y-14116484D01*
X6686729Y-14316484D02*
X6686729Y-14116484D01*
X6686729Y-14116484D02*
X6753396Y-14259341D01*
X6753396Y-14259341D02*
X6820062Y-14116484D01*
X6820062Y-14116484D02*
X6820062Y-14316484D01*
X7001015Y-14316484D02*
X7001015Y-14211722D01*
X7001015Y-14211722D02*
X6991491Y-14192674D01*
X6991491Y-14192674D02*
X6972443Y-14183150D01*
X6972443Y-14183150D02*
X6934348Y-14183150D01*
X6934348Y-14183150D02*
X6915301Y-14192674D01*
X7001015Y-14306960D02*
X6981967Y-14316484D01*
X6981967Y-14316484D02*
X6934348Y-14316484D01*
X6934348Y-14316484D02*
X6915301Y-14306960D01*
X6915301Y-14306960D02*
X6905777Y-14287912D01*
X6905777Y-14287912D02*
X6905777Y-14268865D01*
X6905777Y-14268865D02*
X6915301Y-14249817D01*
X6915301Y-14249817D02*
X6934348Y-14240293D01*
X6934348Y-14240293D02*
X6981967Y-14240293D01*
X6981967Y-14240293D02*
X7001015Y-14230769D01*
X7096253Y-14183150D02*
X7096253Y-14383150D01*
X7096253Y-14192674D02*
X7115301Y-14183150D01*
X7115301Y-14183150D02*
X7153396Y-14183150D01*
X7153396Y-14183150D02*
X7172443Y-14192674D01*
X7172443Y-14192674D02*
X7181967Y-14202198D01*
X7181967Y-14202198D02*
X7191491Y-14221246D01*
X7191491Y-14221246D02*
X7191491Y-14278388D01*
X7191491Y-14278388D02*
X7181967Y-14297436D01*
X7181967Y-14297436D02*
X7172443Y-14306960D01*
X7172443Y-14306960D02*
X7153396Y-14316484D01*
X7153396Y-14316484D02*
X7115301Y-14316484D01*
X7115301Y-14316484D02*
X7096253Y-14306960D01*
X7277205Y-14297436D02*
X7286729Y-14306960D01*
X7286729Y-14306960D02*
X7277205Y-14316484D01*
X7277205Y-14316484D02*
X7267682Y-14306960D01*
X7267682Y-14306960D02*
X7277205Y-14297436D01*
X7277205Y-14297436D02*
X7277205Y-14316484D01*
X7277205Y-14192674D02*
X7286729Y-14202198D01*
X7286729Y-14202198D02*
X7277205Y-14211722D01*
X7277205Y-14211722D02*
X7267682Y-14202198D01*
X7267682Y-14202198D02*
X7277205Y-14192674D01*
X7277205Y-14192674D02*
X7277205Y-14211722D01*
X5445000Y-14545000D02*
X5645000Y-14745000D01*
X5645000Y-14545000D02*
X5445000Y-14745000D01*
X5886729Y-14536484D02*
X6010539Y-14536484D01*
X6010539Y-14536484D02*
X5943872Y-14612674D01*
X5943872Y-14612674D02*
X5972443Y-14612674D01*
X5972443Y-14612674D02*
X5991491Y-14622198D01*
X5991491Y-14622198D02*
X6001015Y-14631722D01*
X6001015Y-14631722D02*
X6010539Y-14650769D01*
X6010539Y-14650769D02*
X6010539Y-14698388D01*
X6010539Y-14698388D02*
X6001015Y-14717436D01*
X6001015Y-14717436D02*
X5991491Y-14726960D01*
X5991491Y-14726960D02*
X5972443Y-14736484D01*
X5972443Y-14736484D02*
X5915301Y-14736484D01*
X5915301Y-14736484D02*
X5896253Y-14726960D01*
X5896253Y-14726960D02*
X5886729Y-14717436D01*
X6096253Y-14717436D02*
X6105777Y-14726960D01*
X6105777Y-14726960D02*
X6096253Y-14736484D01*
X6096253Y-14736484D02*
X6086729Y-14726960D01*
X6086729Y-14726960D02*
X6096253Y-14717436D01*
X6096253Y-14717436D02*
X6096253Y-14736484D01*
X6181967Y-14555531D02*
X6191491Y-14546008D01*
X6191491Y-14546008D02*
X6210539Y-14536484D01*
X6210539Y-14536484D02*
X6258158Y-14536484D01*
X6258158Y-14536484D02*
X6277205Y-14546008D01*
X6277205Y-14546008D02*
X6286729Y-14555531D01*
X6286729Y-14555531D02*
X6296253Y-14574579D01*
X6296253Y-14574579D02*
X6296253Y-14593627D01*
X6296253Y-14593627D02*
X6286729Y-14622198D01*
X6286729Y-14622198D02*
X6172443Y-14736484D01*
X6172443Y-14736484D02*
X6296253Y-14736484D01*
X6420062Y-14536484D02*
X6439110Y-14536484D01*
X6439110Y-14536484D02*
X6458158Y-14546008D01*
X6458158Y-14546008D02*
X6467682Y-14555531D01*
X6467682Y-14555531D02*
X6477205Y-14574579D01*
X6477205Y-14574579D02*
X6486729Y-14612674D01*
X6486729Y-14612674D02*
X6486729Y-14660293D01*
X6486729Y-14660293D02*
X6477205Y-14698388D01*
X6477205Y-14698388D02*
X6467682Y-14717436D01*
X6467682Y-14717436D02*
X6458158Y-14726960D01*
X6458158Y-14726960D02*
X6439110Y-14736484D01*
X6439110Y-14736484D02*
X6420062Y-14736484D01*
X6420062Y-14736484D02*
X6401015Y-14726960D01*
X6401015Y-14726960D02*
X6391491Y-14717436D01*
X6391491Y-14717436D02*
X6381967Y-14698388D01*
X6381967Y-14698388D02*
X6372443Y-14660293D01*
X6372443Y-14660293D02*
X6372443Y-14612674D01*
X6372443Y-14612674D02*
X6381967Y-14574579D01*
X6381967Y-14574579D02*
X6391491Y-14555531D01*
X6391491Y-14555531D02*
X6401015Y-14546008D01*
X6401015Y-14546008D02*
X6420062Y-14536484D01*
X6610539Y-14536484D02*
X6629586Y-14536484D01*
X6629586Y-14536484D02*
X6648634Y-14546008D01*
X6648634Y-14546008D02*
X6658158Y-14555531D01*
X6658158Y-14555531D02*
X6667682Y-14574579D01*
X6667682Y-14574579D02*
X6677205Y-14612674D01*
X6677205Y-14612674D02*
X6677205Y-14660293D01*
X6677205Y-14660293D02*
X6667682Y-14698388D01*
X6667682Y-14698388D02*
X6658158Y-14717436D01*
X6658158Y-14717436D02*
X6648634Y-14726960D01*
X6648634Y-14726960D02*
X6629586Y-14736484D01*
X6629586Y-14736484D02*
X6610539Y-14736484D01*
X6610539Y-14736484D02*
X6591491Y-14726960D01*
X6591491Y-14726960D02*
X6581967Y-14717436D01*
X6581967Y-14717436D02*
X6572443Y-14698388D01*
X6572443Y-14698388D02*
X6562920Y-14660293D01*
X6562920Y-14660293D02*
X6562920Y-14612674D01*
X6562920Y-14612674D02*
X6572443Y-14574579D01*
X6572443Y-14574579D02*
X6581967Y-14555531D01*
X6581967Y-14555531D02*
X6591491Y-14546008D01*
X6591491Y-14546008D02*
X6610539Y-14536484D01*
X6762920Y-14736484D02*
X6762920Y-14603150D01*
X6762920Y-14622198D02*
X6772443Y-14612674D01*
X6772443Y-14612674D02*
X6791491Y-14603150D01*
X6791491Y-14603150D02*
X6820063Y-14603150D01*
X6820063Y-14603150D02*
X6839110Y-14612674D01*
X6839110Y-14612674D02*
X6848634Y-14631722D01*
X6848634Y-14631722D02*
X6848634Y-14736484D01*
X6848634Y-14631722D02*
X6858158Y-14612674D01*
X6858158Y-14612674D02*
X6877205Y-14603150D01*
X6877205Y-14603150D02*
X6905777Y-14603150D01*
X6905777Y-14603150D02*
X6924824Y-14612674D01*
X6924824Y-14612674D02*
X6934348Y-14631722D01*
X6934348Y-14631722D02*
X6934348Y-14736484D01*
X7029586Y-14736484D02*
X7029586Y-14603150D01*
X7029586Y-14622198D02*
X7039110Y-14612674D01*
X7039110Y-14612674D02*
X7058158Y-14603150D01*
X7058158Y-14603150D02*
X7086729Y-14603150D01*
X7086729Y-14603150D02*
X7105777Y-14612674D01*
X7105777Y-14612674D02*
X7115301Y-14631722D01*
X7115301Y-14631722D02*
X7115301Y-14736484D01*
X7115301Y-14631722D02*
X7124824Y-14612674D01*
X7124824Y-14612674D02*
X7143872Y-14603150D01*
X7143872Y-14603150D02*
X7172443Y-14603150D01*
X7172443Y-14603150D02*
X7191491Y-14612674D01*
X7191491Y-14612674D02*
X7201015Y-14631722D01*
X7201015Y-14631722D02*
X7201015Y-14736484D01*
X7591491Y-14526960D02*
X7420063Y-14784103D01*
X7848634Y-14536484D02*
X7867682Y-14536484D01*
X7867682Y-14536484D02*
X7886729Y-14546008D01*
X7886729Y-14546008D02*
X7896253Y-14555531D01*
X7896253Y-14555531D02*
X7905777Y-14574579D01*
X7905777Y-14574579D02*
X7915301Y-14612674D01*
X7915301Y-14612674D02*
X7915301Y-14660293D01*
X7915301Y-14660293D02*
X7905777Y-14698388D01*
X7905777Y-14698388D02*
X7896253Y-14717436D01*
X7896253Y-14717436D02*
X7886729Y-14726960D01*
X7886729Y-14726960D02*
X7867682Y-14736484D01*
X7867682Y-14736484D02*
X7848634Y-14736484D01*
X7848634Y-14736484D02*
X7829586Y-14726960D01*
X7829586Y-14726960D02*
X7820063Y-14717436D01*
X7820063Y-14717436D02*
X7810539Y-14698388D01*
X7810539Y-14698388D02*
X7801015Y-14660293D01*
X7801015Y-14660293D02*
X7801015Y-14612674D01*
X7801015Y-14612674D02*
X7810539Y-14574579D01*
X7810539Y-14574579D02*
X7820063Y-14555531D01*
X7820063Y-14555531D02*
X7829586Y-14546008D01*
X7829586Y-14546008D02*
X7848634Y-14536484D01*
X8001015Y-14717436D02*
X8010539Y-14726960D01*
X8010539Y-14726960D02*
X8001015Y-14736484D01*
X8001015Y-14736484D02*
X7991491Y-14726960D01*
X7991491Y-14726960D02*
X8001015Y-14717436D01*
X8001015Y-14717436D02*
X8001015Y-14736484D01*
X8201015Y-14736484D02*
X8086729Y-14736484D01*
X8143872Y-14736484D02*
X8143872Y-14536484D01*
X8143872Y-14536484D02*
X8124825Y-14565055D01*
X8124825Y-14565055D02*
X8105777Y-14584103D01*
X8105777Y-14584103D02*
X8086729Y-14593627D01*
X8277206Y-14555531D02*
X8286729Y-14546008D01*
X8286729Y-14546008D02*
X8305777Y-14536484D01*
X8305777Y-14536484D02*
X8353396Y-14536484D01*
X8353396Y-14536484D02*
X8372444Y-14546008D01*
X8372444Y-14546008D02*
X8381967Y-14555531D01*
X8381967Y-14555531D02*
X8391491Y-14574579D01*
X8391491Y-14574579D02*
X8391491Y-14593627D01*
X8391491Y-14593627D02*
X8381967Y-14622198D01*
X8381967Y-14622198D02*
X8267682Y-14736484D01*
X8267682Y-14736484D02*
X8391491Y-14736484D01*
X8562920Y-14536484D02*
X8524825Y-14536484D01*
X8524825Y-14536484D02*
X8505777Y-14546008D01*
X8505777Y-14546008D02*
X8496253Y-14555531D01*
X8496253Y-14555531D02*
X8477206Y-14584103D01*
X8477206Y-14584103D02*
X8467682Y-14622198D01*
X8467682Y-14622198D02*
X8467682Y-14698388D01*
X8467682Y-14698388D02*
X8477206Y-14717436D01*
X8477206Y-14717436D02*
X8486729Y-14726960D01*
X8486729Y-14726960D02*
X8505777Y-14736484D01*
X8505777Y-14736484D02*
X8543872Y-14736484D01*
X8543872Y-14736484D02*
X8562920Y-14726960D01*
X8562920Y-14726960D02*
X8572444Y-14717436D01*
X8572444Y-14717436D02*
X8581968Y-14698388D01*
X8581968Y-14698388D02*
X8581968Y-14650769D01*
X8581968Y-14650769D02*
X8572444Y-14631722D01*
X8572444Y-14631722D02*
X8562920Y-14622198D01*
X8562920Y-14622198D02*
X8543872Y-14612674D01*
X8543872Y-14612674D02*
X8505777Y-14612674D01*
X8505777Y-14612674D02*
X8486729Y-14622198D01*
X8486729Y-14622198D02*
X8477206Y-14631722D01*
X8477206Y-14631722D02*
X8467682Y-14650769D01*
X8705777Y-14536484D02*
X8724825Y-14536484D01*
X8724825Y-14536484D02*
X8743872Y-14546008D01*
X8743872Y-14546008D02*
X8753396Y-14555531D01*
X8753396Y-14555531D02*
X8762920Y-14574579D01*
X8762920Y-14574579D02*
X8772444Y-14612674D01*
X8772444Y-14612674D02*
X8772444Y-14660293D01*
X8772444Y-14660293D02*
X8762920Y-14698388D01*
X8762920Y-14698388D02*
X8753396Y-14717436D01*
X8753396Y-14717436D02*
X8743872Y-14726960D01*
X8743872Y-14726960D02*
X8724825Y-14736484D01*
X8724825Y-14736484D02*
X8705777Y-14736484D01*
X8705777Y-14736484D02*
X8686729Y-14726960D01*
X8686729Y-14726960D02*
X8677206Y-14717436D01*
X8677206Y-14717436D02*
X8667682Y-14698388D01*
X8667682Y-14698388D02*
X8658158Y-14660293D01*
X8658158Y-14660293D02*
X8658158Y-14612674D01*
X8658158Y-14612674D02*
X8667682Y-14574579D01*
X8667682Y-14574579D02*
X8677206Y-14555531D01*
X8677206Y-14555531D02*
X8686729Y-14546008D01*
X8686729Y-14546008D02*
X8705777Y-14536484D01*
X8848634Y-14536484D02*
X8848634Y-14574579D01*
X8924825Y-14536484D02*
X8924825Y-14574579D01*
X9220063Y-14812674D02*
X9210539Y-14803150D01*
X9210539Y-14803150D02*
X9191491Y-14774579D01*
X9191491Y-14774579D02*
X9181968Y-14755531D01*
X9181968Y-14755531D02*
X9172444Y-14726960D01*
X9172444Y-14726960D02*
X9162920Y-14679341D01*
X9162920Y-14679341D02*
X9162920Y-14641246D01*
X9162920Y-14641246D02*
X9172444Y-14593627D01*
X9172444Y-14593627D02*
X9181968Y-14565055D01*
X9181968Y-14565055D02*
X9191491Y-14546008D01*
X9191491Y-14546008D02*
X9210539Y-14517436D01*
X9210539Y-14517436D02*
X9220063Y-14507912D01*
X9391491Y-14536484D02*
X9296253Y-14536484D01*
X9296253Y-14536484D02*
X9286730Y-14631722D01*
X9286730Y-14631722D02*
X9296253Y-14622198D01*
X9296253Y-14622198D02*
X9315301Y-14612674D01*
X9315301Y-14612674D02*
X9362920Y-14612674D01*
X9362920Y-14612674D02*
X9381968Y-14622198D01*
X9381968Y-14622198D02*
X9391491Y-14631722D01*
X9391491Y-14631722D02*
X9401015Y-14650769D01*
X9401015Y-14650769D02*
X9401015Y-14698388D01*
X9401015Y-14698388D02*
X9391491Y-14717436D01*
X9391491Y-14717436D02*
X9381968Y-14726960D01*
X9381968Y-14726960D02*
X9362920Y-14736484D01*
X9362920Y-14736484D02*
X9315301Y-14736484D01*
X9315301Y-14736484D02*
X9296253Y-14726960D01*
X9296253Y-14726960D02*
X9286730Y-14717436D01*
X9639111Y-14736484D02*
X9639111Y-14536484D01*
X9724825Y-14736484D02*
X9724825Y-14631722D01*
X9724825Y-14631722D02*
X9715301Y-14612674D01*
X9715301Y-14612674D02*
X9696253Y-14603150D01*
X9696253Y-14603150D02*
X9667682Y-14603150D01*
X9667682Y-14603150D02*
X9648634Y-14612674D01*
X9648634Y-14612674D02*
X9639111Y-14622198D01*
X9848634Y-14736484D02*
X9829587Y-14726960D01*
X9829587Y-14726960D02*
X9820063Y-14717436D01*
X9820063Y-14717436D02*
X9810539Y-14698388D01*
X9810539Y-14698388D02*
X9810539Y-14641246D01*
X9810539Y-14641246D02*
X9820063Y-14622198D01*
X9820063Y-14622198D02*
X9829587Y-14612674D01*
X9829587Y-14612674D02*
X9848634Y-14603150D01*
X9848634Y-14603150D02*
X9877206Y-14603150D01*
X9877206Y-14603150D02*
X9896253Y-14612674D01*
X9896253Y-14612674D02*
X9905777Y-14622198D01*
X9905777Y-14622198D02*
X9915301Y-14641246D01*
X9915301Y-14641246D02*
X9915301Y-14698388D01*
X9915301Y-14698388D02*
X9905777Y-14717436D01*
X9905777Y-14717436D02*
X9896253Y-14726960D01*
X9896253Y-14726960D02*
X9877206Y-14736484D01*
X9877206Y-14736484D02*
X9848634Y-14736484D01*
X10029587Y-14736484D02*
X10010539Y-14726960D01*
X10010539Y-14726960D02*
X10001015Y-14707912D01*
X10001015Y-14707912D02*
X10001015Y-14536484D01*
X10181968Y-14726960D02*
X10162920Y-14736484D01*
X10162920Y-14736484D02*
X10124825Y-14736484D01*
X10124825Y-14736484D02*
X10105777Y-14726960D01*
X10105777Y-14726960D02*
X10096253Y-14707912D01*
X10096253Y-14707912D02*
X10096253Y-14631722D01*
X10096253Y-14631722D02*
X10105777Y-14612674D01*
X10105777Y-14612674D02*
X10124825Y-14603150D01*
X10124825Y-14603150D02*
X10162920Y-14603150D01*
X10162920Y-14603150D02*
X10181968Y-14612674D01*
X10181968Y-14612674D02*
X10191492Y-14631722D01*
X10191492Y-14631722D02*
X10191492Y-14650769D01*
X10191492Y-14650769D02*
X10096253Y-14669817D01*
X10267682Y-14726960D02*
X10286730Y-14736484D01*
X10286730Y-14736484D02*
X10324825Y-14736484D01*
X10324825Y-14736484D02*
X10343873Y-14726960D01*
X10343873Y-14726960D02*
X10353396Y-14707912D01*
X10353396Y-14707912D02*
X10353396Y-14698388D01*
X10353396Y-14698388D02*
X10343873Y-14679341D01*
X10343873Y-14679341D02*
X10324825Y-14669817D01*
X10324825Y-14669817D02*
X10296253Y-14669817D01*
X10296253Y-14669817D02*
X10277206Y-14660293D01*
X10277206Y-14660293D02*
X10267682Y-14641246D01*
X10267682Y-14641246D02*
X10267682Y-14631722D01*
X10267682Y-14631722D02*
X10277206Y-14612674D01*
X10277206Y-14612674D02*
X10296253Y-14603150D01*
X10296253Y-14603150D02*
X10324825Y-14603150D01*
X10324825Y-14603150D02*
X10343873Y-14612674D01*
X10420063Y-14812674D02*
X10429587Y-14803150D01*
X10429587Y-14803150D02*
X10448634Y-14774579D01*
X10448634Y-14774579D02*
X10458158Y-14755531D01*
X10458158Y-14755531D02*
X10467682Y-14726960D01*
X10467682Y-14726960D02*
X10477206Y-14679341D01*
X10477206Y-14679341D02*
X10477206Y-14641246D01*
X10477206Y-14641246D02*
X10467682Y-14593627D01*
X10467682Y-14593627D02*
X10458158Y-14565055D01*
X10458158Y-14565055D02*
X10448634Y-14546008D01*
X10448634Y-14546008D02*
X10429587Y-14517436D01*
X10429587Y-14517436D02*
X10420063Y-14507912D01*
X10781968Y-14812674D02*
X10772444Y-14803150D01*
X10772444Y-14803150D02*
X10753396Y-14774579D01*
X10753396Y-14774579D02*
X10743873Y-14755531D01*
X10743873Y-14755531D02*
X10734349Y-14726960D01*
X10734349Y-14726960D02*
X10724825Y-14679341D01*
X10724825Y-14679341D02*
X10724825Y-14641246D01*
X10724825Y-14641246D02*
X10734349Y-14593627D01*
X10734349Y-14593627D02*
X10743873Y-14565055D01*
X10743873Y-14565055D02*
X10753396Y-14546008D01*
X10753396Y-14546008D02*
X10772444Y-14517436D01*
X10772444Y-14517436D02*
X10781968Y-14507912D01*
X10858158Y-14603150D02*
X10858158Y-14736484D01*
X10858158Y-14622198D02*
X10867682Y-14612674D01*
X10867682Y-14612674D02*
X10886730Y-14603150D01*
X10886730Y-14603150D02*
X10915301Y-14603150D01*
X10915301Y-14603150D02*
X10934349Y-14612674D01*
X10934349Y-14612674D02*
X10943873Y-14631722D01*
X10943873Y-14631722D02*
X10943873Y-14736484D01*
X11067682Y-14736484D02*
X11048634Y-14726960D01*
X11048634Y-14726960D02*
X11039111Y-14717436D01*
X11039111Y-14717436D02*
X11029587Y-14698388D01*
X11029587Y-14698388D02*
X11029587Y-14641246D01*
X11029587Y-14641246D02*
X11039111Y-14622198D01*
X11039111Y-14622198D02*
X11048634Y-14612674D01*
X11048634Y-14612674D02*
X11067682Y-14603150D01*
X11067682Y-14603150D02*
X11096254Y-14603150D01*
X11096254Y-14603150D02*
X11115301Y-14612674D01*
X11115301Y-14612674D02*
X11124825Y-14622198D01*
X11124825Y-14622198D02*
X11134349Y-14641246D01*
X11134349Y-14641246D02*
X11134349Y-14698388D01*
X11134349Y-14698388D02*
X11124825Y-14717436D01*
X11124825Y-14717436D02*
X11115301Y-14726960D01*
X11115301Y-14726960D02*
X11096254Y-14736484D01*
X11096254Y-14736484D02*
X11067682Y-14736484D01*
X11191492Y-14603150D02*
X11267682Y-14603150D01*
X11220063Y-14536484D02*
X11220063Y-14707912D01*
X11220063Y-14707912D02*
X11229587Y-14726960D01*
X11229587Y-14726960D02*
X11248634Y-14736484D01*
X11248634Y-14736484D02*
X11267682Y-14736484D01*
X11486730Y-14603150D02*
X11486730Y-14803150D01*
X11486730Y-14612674D02*
X11505777Y-14603150D01*
X11505777Y-14603150D02*
X11543873Y-14603150D01*
X11543873Y-14603150D02*
X11562920Y-14612674D01*
X11562920Y-14612674D02*
X11572444Y-14622198D01*
X11572444Y-14622198D02*
X11581968Y-14641246D01*
X11581968Y-14641246D02*
X11581968Y-14698388D01*
X11581968Y-14698388D02*
X11572444Y-14717436D01*
X11572444Y-14717436D02*
X11562920Y-14726960D01*
X11562920Y-14726960D02*
X11543873Y-14736484D01*
X11543873Y-14736484D02*
X11505777Y-14736484D01*
X11505777Y-14736484D02*
X11486730Y-14726960D01*
X11696253Y-14736484D02*
X11677206Y-14726960D01*
X11677206Y-14726960D02*
X11667682Y-14707912D01*
X11667682Y-14707912D02*
X11667682Y-14536484D01*
X11858158Y-14736484D02*
X11858158Y-14631722D01*
X11858158Y-14631722D02*
X11848634Y-14612674D01*
X11848634Y-14612674D02*
X11829587Y-14603150D01*
X11829587Y-14603150D02*
X11791492Y-14603150D01*
X11791492Y-14603150D02*
X11772444Y-14612674D01*
X11858158Y-14726960D02*
X11839111Y-14736484D01*
X11839111Y-14736484D02*
X11791492Y-14736484D01*
X11791492Y-14736484D02*
X11772444Y-14726960D01*
X11772444Y-14726960D02*
X11762920Y-14707912D01*
X11762920Y-14707912D02*
X11762920Y-14688865D01*
X11762920Y-14688865D02*
X11772444Y-14669817D01*
X11772444Y-14669817D02*
X11791492Y-14660293D01*
X11791492Y-14660293D02*
X11839111Y-14660293D01*
X11839111Y-14660293D02*
X11858158Y-14650769D01*
X11924825Y-14603150D02*
X12001015Y-14603150D01*
X11953396Y-14536484D02*
X11953396Y-14707912D01*
X11953396Y-14707912D02*
X11962920Y-14726960D01*
X11962920Y-14726960D02*
X11981968Y-14736484D01*
X11981968Y-14736484D02*
X12001015Y-14736484D01*
X12143873Y-14726960D02*
X12124825Y-14736484D01*
X12124825Y-14736484D02*
X12086730Y-14736484D01*
X12086730Y-14736484D02*
X12067682Y-14726960D01*
X12067682Y-14726960D02*
X12058158Y-14707912D01*
X12058158Y-14707912D02*
X12058158Y-14631722D01*
X12058158Y-14631722D02*
X12067682Y-14612674D01*
X12067682Y-14612674D02*
X12086730Y-14603150D01*
X12086730Y-14603150D02*
X12124825Y-14603150D01*
X12124825Y-14603150D02*
X12143873Y-14612674D01*
X12143873Y-14612674D02*
X12153396Y-14631722D01*
X12153396Y-14631722D02*
X12153396Y-14650769D01*
X12153396Y-14650769D02*
X12058158Y-14669817D01*
X12324825Y-14736484D02*
X12324825Y-14536484D01*
X12324825Y-14726960D02*
X12305777Y-14736484D01*
X12305777Y-14736484D02*
X12267682Y-14736484D01*
X12267682Y-14736484D02*
X12248634Y-14726960D01*
X12248634Y-14726960D02*
X12239111Y-14717436D01*
X12239111Y-14717436D02*
X12229587Y-14698388D01*
X12229587Y-14698388D02*
X12229587Y-14641246D01*
X12229587Y-14641246D02*
X12239111Y-14622198D01*
X12239111Y-14622198D02*
X12248634Y-14612674D01*
X12248634Y-14612674D02*
X12267682Y-14603150D01*
X12267682Y-14603150D02*
X12305777Y-14603150D01*
X12305777Y-14603150D02*
X12324825Y-14612674D01*
X12401015Y-14812674D02*
X12410539Y-14803150D01*
X12410539Y-14803150D02*
X12429587Y-14774579D01*
X12429587Y-14774579D02*
X12439111Y-14755531D01*
X12439111Y-14755531D02*
X12448634Y-14726960D01*
X12448634Y-14726960D02*
X12458158Y-14679341D01*
X12458158Y-14679341D02*
X12458158Y-14641246D01*
X12458158Y-14641246D02*
X12448634Y-14593627D01*
X12448634Y-14593627D02*
X12439111Y-14565055D01*
X12439111Y-14565055D02*
X12429587Y-14546008D01*
X12429587Y-14546008D02*
X12410539Y-14517436D01*
X12410539Y-14517436D02*
X12401015Y-14507912D01*
M02*
