%TF.GenerationSoftware,KiCad,Pcbnew,9.0.4*%
%TF.CreationDate,2025-10-09T09:49:17+01:00*%
%TF.ProjectId,PCB_Health.V2,5043425f-4865-4616-9c74-682e56322e6b,rev?*%
%TF.SameCoordinates,Original*%
%TF.FileFunction,Soldermask,Bot*%
%TF.FilePolarity,Negative*%
%FSLAX46Y46*%
G04 Gerber Fmt 4.6, Leading zero omitted, Abs format (unit mm)*
G04 Created by KiCad (PCBNEW 9.0.4) date 2025-10-09 09:49:17*
%MOMM*%
%LPD*%
G01*
G04 APERTURE LIST*
G04 Aperture macros list*
%AMRoundRect*
0 Rectangle with rounded corners*
0 $1 Rounding radius*
0 $2 $3 $4 $5 $6 $7 $8 $9 X,Y pos of 4 corners*
0 Add a 4 corners polygon primitive as box body*
4,1,4,$2,$3,$4,$5,$6,$7,$8,$9,$2,$3,0*
0 Add four circle primitives for the rounded corners*
1,1,$1+$1,$2,$3*
1,1,$1+$1,$4,$5*
1,1,$1+$1,$6,$7*
1,1,$1+$1,$8,$9*
0 Add four rect primitives between the rounded corners*
20,1,$1+$1,$2,$3,$4,$5,0*
20,1,$1+$1,$4,$5,$6,$7,0*
20,1,$1+$1,$6,$7,$8,$9,0*
20,1,$1+$1,$8,$9,$2,$3,0*%
G04 Aperture macros list end*
%ADD10C,2.000000*%
%ADD11C,2.200000*%
%ADD12RoundRect,0.249999X0.850001X0.850001X-0.850001X0.850001X-0.850001X-0.850001X0.850001X-0.850001X0*%
%ADD13RoundRect,0.250000X0.620000X0.845000X-0.620000X0.845000X-0.620000X-0.845000X0.620000X-0.845000X0*%
%ADD14O,1.740000X2.190000*%
%ADD15C,3.800000*%
%ADD16C,3.000000*%
%ADD17R,1.980000X3.960000*%
%ADD18O,1.980000X3.960000*%
%ADD19R,2.000000X2.000000*%
%ADD20C,3.200000*%
%ADD21R,1.600000X1.600000*%
%ADD22C,1.600000*%
%ADD23O,3.000000X2.000000*%
%ADD24R,2.000000X3.000000*%
%ADD25O,2.000000X3.000000*%
%ADD26R,2.200000X2.200000*%
%ADD27O,2.200000X2.200000*%
%ADD28R,2.200000X1.900000*%
%ADD29O,2.200000X1.900000*%
%ADD30R,1.500000X1.500000*%
%ADD31C,1.500000*%
G04 APERTURE END LIST*
D10*
%TO.C,R10*%
X112268000Y-106045000D03*
X112268000Y-95885000D03*
%TD*%
D11*
%TO.C,D1*%
X140540000Y-96500000D03*
D12*
X150700000Y-96500000D03*
%TD*%
D13*
%TO.C,J4*%
X221488000Y-50800000D03*
D14*
X218948000Y-50800000D03*
X216408000Y-50800000D03*
X213868000Y-50800000D03*
%TD*%
D13*
%TO.C,J3*%
X198374000Y-50546000D03*
D14*
X195834000Y-50546000D03*
X193294000Y-50546000D03*
X190754000Y-50546000D03*
%TD*%
D10*
%TO.C,R3*%
X189200000Y-96560000D03*
X189200000Y-86400000D03*
%TD*%
D13*
%TO.C,J6*%
X184400000Y-50600000D03*
D14*
X181860000Y-50600000D03*
X179320000Y-50600000D03*
%TD*%
D10*
%TO.C,R6*%
X213868000Y-102616000D03*
X224028000Y-102616000D03*
%TD*%
D15*
%TO.C,TC2*%
X119000000Y-50000000D03*
D16*
X115000000Y-60300000D03*
X123000000Y-60300000D03*
%TD*%
D17*
%TO.C,J1*%
X138000000Y-50500000D03*
D18*
X133000000Y-50500000D03*
%TD*%
D10*
%TO.C,R4*%
X213868000Y-94488000D03*
X224028000Y-94488000D03*
%TD*%
%TO.C,R11*%
X119888000Y-106045000D03*
X119888000Y-95885000D03*
%TD*%
D19*
%TO.C,U1*%
X193040000Y-71064000D03*
D10*
X193040000Y-73604000D03*
X193040000Y-76144000D03*
X200660000Y-76144000D03*
X200660000Y-73604000D03*
X200660000Y-71064000D03*
%TD*%
D20*
%TO.C,H1*%
X136000000Y-119000000D03*
%TD*%
D21*
%TO.C,C10*%
X129540000Y-103044000D03*
D22*
X129540000Y-98044000D03*
%TD*%
D23*
%TO.C,K1*%
X147828000Y-67584000D03*
X147828000Y-72624000D03*
X147828000Y-62544000D03*
X140328000Y-67584000D03*
X140328000Y-72624000D03*
X140328000Y-62544000D03*
D24*
X147828000Y-87884000D03*
D25*
X140328000Y-87884000D03*
%TD*%
D10*
%TO.C,R9*%
X213868000Y-118872000D03*
X224028000Y-118872000D03*
%TD*%
D19*
%TO.C,U5*%
X193040000Y-101600000D03*
D10*
X193040000Y-104140000D03*
X193040000Y-106680000D03*
X200660000Y-106680000D03*
X200660000Y-104140000D03*
X200660000Y-101600000D03*
%TD*%
%TO.C,R2*%
X213868000Y-86360000D03*
X224028000Y-86360000D03*
%TD*%
%TO.C,R1*%
X187960000Y-73660000D03*
X187960000Y-63500000D03*
%TD*%
D17*
%TO.C,J2*%
X161000000Y-50500000D03*
D18*
X156000000Y-50500000D03*
%TD*%
D17*
%TO.C,J5*%
X149500000Y-50500000D03*
D18*
X144500000Y-50500000D03*
%TD*%
D16*
%TO.C,F4*%
X66000000Y-115000000D03*
X66000000Y-125160000D03*
%TD*%
D26*
%TO.C,D2*%
X104648000Y-96012000D03*
D27*
X104648000Y-106172000D03*
%TD*%
D10*
%TO.C,R5*%
X187960000Y-100076000D03*
X187960000Y-110236000D03*
%TD*%
D20*
%TO.C,H2*%
X222000000Y-132000000D03*
%TD*%
%TO.C,H1*%
X81280000Y-97028000D03*
%TD*%
D10*
%TO.C,R7*%
X151384000Y-111760000D03*
X141224000Y-111760000D03*
%TD*%
D19*
%TO.C,U7*%
X193040000Y-116840000D03*
D10*
X193040000Y-119380000D03*
X193040000Y-121920000D03*
X200660000Y-121920000D03*
X200660000Y-119380000D03*
X200660000Y-116840000D03*
%TD*%
D19*
%TO.C,A1*%
X157480000Y-92440000D03*
D10*
X157480000Y-94980000D03*
X157480000Y-97520000D03*
X157480000Y-100060000D03*
X157480000Y-102600000D03*
X157480000Y-105140000D03*
X157480000Y-107680000D03*
X157480000Y-110220000D03*
X157480000Y-112760000D03*
X157480000Y-115300000D03*
X182880000Y-115300000D03*
X182880000Y-112760000D03*
X182880000Y-110220000D03*
X182880000Y-107680000D03*
X182880000Y-105140000D03*
X182880000Y-102600000D03*
X182880000Y-100060000D03*
X182880000Y-97520000D03*
X182880000Y-94980000D03*
X182880000Y-92440000D03*
%TD*%
D16*
%TO.C,F2*%
X100000000Y-115000000D03*
X100000000Y-125160000D03*
%TD*%
D28*
%TO.C,U6*%
X98044000Y-99568000D03*
D29*
X98044000Y-97028000D03*
X98044000Y-94488000D03*
%TD*%
D19*
%TO.C,U4*%
X193040000Y-86360000D03*
D10*
X193040000Y-88900000D03*
X193040000Y-91440000D03*
X200660000Y-91440000D03*
X200660000Y-88900000D03*
X200660000Y-86360000D03*
%TD*%
%TO.C,R8*%
X213868000Y-110744000D03*
X224028000Y-110744000D03*
%TD*%
D15*
%TO.C,TC1*%
X100000000Y-50000000D03*
D16*
X96000000Y-60300000D03*
X104000000Y-60300000D03*
%TD*%
D20*
%TO.C,H4*%
X172500000Y-52000000D03*
%TD*%
D16*
%TO.C,F1*%
X83000000Y-115000000D03*
X83000000Y-125160000D03*
%TD*%
D30*
%TO.C,Q1*%
X139954000Y-104648000D03*
D31*
X142494000Y-104648000D03*
X145034000Y-104648000D03*
%TD*%
D16*
%TO.C,F3*%
X117000000Y-115000000D03*
X117000000Y-125160000D03*
%TD*%
D20*
%TO.C,H3*%
X65000000Y-52000000D03*
%TD*%
M02*
