G04 ================== begin FILE IDENTIFICATION RECORD ==================*
G04 Layout Name:  C:/SPB_Data/GPS_INTERFACE_BOARD/allegro/GPS_INTERFACE_BOARDv25.brd*
G04 Film Name:    L4*
G04 File Format:  Gerber RS274X*
G04 File Origin:  Cadence Allegro 17.2-S064*
G04 Origin Date:  Tue Jun 09 11:53:02 2020*
G04 *
G04 Layer:  ETCH/L4*
G04 Layer:  PIN/L4*
G04 Layer:  VIA CLASS/L4*
G04 *
G04 Offset:    (0.00 0.00)*
G04 Mirror:    No*
G04 Mode:      Positive*
G04 Rotation:  0*
G04 FullContactRelief:  No*
G04 UndefLineWidth:     0.00*
G04 ================== end FILE IDENTIFICATION RECORD ====================*
%FSLAX25Y25*MOIN*%
%IR0*IPPOS*OFA0.00000B0.00000*MIA0B0*SFA1.00000B1.00000*%
%ADD22C,.02*%
%ADD21C,.03*%
%ADD11C,.021*%
%ADD20C,.032*%
%ADD34C,.06*%
%ADD24C,.02205*%
%ADD27C,.06103*%
%ADD16C,.05504*%
%ADD25C,.0574*%
%ADD23C,.0394*%
%ADD28C,.05346*%
%ADD31C,.09921*%
%ADD19R,.05504X.05504*%
%ADD14C,.06496*%
%ADD32C,.05858*%
%ADD29C,.07559*%
%ADD18C,.09764*%
%ADD13O,.05937X.11874*%
%ADD12O,.11874X.05937*%
%ADD33R,.05858X.05858*%
%ADD26R,.07874X.07874*%
%ADD15R,.09764X.09764*%
%ADD30C,.13111*%
%ADD10C,.175*%
%ADD17C,.1187*%
%ADD35C,.0065*%
%ADD47C,.07004*%
%ADD36C,.075*%
%ADD37C,.04072*%
%ADD39C,.0635*%
%ADD51C,.0953*%
%ADD50C,.0783*%
%ADD46C,.06508*%
%ADD44C,.06724*%
%ADD40C,.08074*%
%ADD38C,.06744*%
%ADD54C,.04972*%
%ADD52C,.06862*%
%ADD43C,.07972*%
%ADD42C,.08468*%
%ADD53C,.15082*%
%ADD49C,.10924*%
%ADD45C,.11736*%
%ADD48C,.12874*%
%ADD41C,.19472*%
G75*
%LPD*%
G75*
G36*
G01X939943Y8364D02*
G02X939579Y7800I-365J-164D01*
G01X864721D01*
G02X864357Y8364I1J400D01*
G03X864536Y9198I-1857J835D01*
G01Y9200D01*
G03X860464I-2036J0D01*
G01Y9198D01*
G03X860643Y8364I2036J1D01*
G02X860279Y7800I-365J-164D01*
G01X123821D01*
G02X123457Y8364I1J400D01*
G03X123636Y9198I-1857J835D01*
G01Y9200D01*
G03X119564I-2036J0D01*
G01Y9198D01*
G03X119743Y8364I2036J1D01*
G02X119379Y7800I-365J-164D01*
G01X7800D01*
Y592400D01*
X1192600D01*
Y7800D01*
X944021D01*
G02X943657Y8364I1J400D01*
G03X943836Y9198I-1857J835D01*
G01Y9200D01*
G03X939764I-2036J0D01*
G01Y9198D01*
G03X939943Y8364I2036J1D01*
G37*
%LPC*%
G75*
G36*
G01X1130898Y421273D02*
G03X1131486I294J271D01*
G02X1132982Y421928I1496J-1381D01*
G02Y417856I0J-2036D01*
G02X1131486Y418511I0J2036D01*
G03X1130898I-294J-271D01*
G02X1129402Y417856I-1496J1381D01*
G02X1127625Y418899I0J2035D01*
G03X1126918Y418884I-350J-195D01*
G02X1125100Y417764I-1818J916D01*
G02X1124468Y417864I-2J2036D01*
G03X1124218Y417742I-62J-190D01*
G02X1122300Y416389I-1918J683D01*
G02Y420461I0J2036D01*
G02X1122932Y420361I2J-2036D01*
G03X1123182Y420483I62J190D01*
G02X1125100Y421836I1918J-683D01*
G02X1126877Y420793I0J-2035D01*
G03X1127584Y420808I350J195D01*
G02X1129402Y421928I1818J-916D01*
G02X1130898Y421273I0J-2036D01*
G37*
G36*
G01X1153779Y336123D02*
G03X1153165I-307J-256D01*
G02X1151600Y335390I-1565J1304D01*
G02Y339462I0J2036D01*
G02X1153165Y338729I0J-2037D01*
G03X1153779I307J256D01*
G02X1155344Y339462I1565J-1304D01*
G02Y335390I0J-2036D01*
G02X1153779Y336123I0J2037D01*
G37*
G36*
G01X1085730Y359306D02*
G03X1085763Y359865I-269J296D01*
G02X1085264Y361200I1536J1335D01*
G02X1089336I2036J0D01*
G02X1088670Y359694I-2036J0D01*
G03X1088637Y359135I269J-296D01*
G02X1089136Y357800I-1536J-1335D01*
G02X1085064I-2036J0D01*
G02X1085730Y359306I2036J0D01*
G37*
G36*
G01X999029Y360506D02*
G03X999047Y360783I-134J148D01*
G02X998564Y362100I1554J1317D01*
G02X1002636I2036J0D01*
G02X1001971Y360594I-2036J-1D01*
G03X1001953Y360317I134J-148D01*
G02X1002436Y359000I-1554J-1317D01*
G02X998364I-2036J0D01*
G02X999029Y360506I2036J1D01*
G37*
G36*
G01X911961Y360387D02*
G03X912026Y360995I-224J331D01*
G02X911464Y362400I1475J1405D01*
G02X915536I2036J0D01*
G02X914639Y360713I-2035J0D01*
G03X914574Y360105I224J-331D01*
G02X915136Y358700I-1475J-1405D01*
G02X911064I-2036J0D01*
G02X911961Y360387I2035J0D01*
G37*
G36*
G01X714912Y388684D02*
G03X714420Y388487I-135J-377D01*
G02X712600Y387364I-1820J913D01*
G02Y391436I0J2036D01*
G02X713288Y391316I-1J-2036D01*
G03X713780Y391513I135J377D01*
G02X715600Y392636I1820J-913D01*
G02Y388564I0J-2036D01*
G02X714912Y388684I1J2036D01*
G37*
G36*
G01X710214Y360221D02*
G03X710260Y360885I-198J347D01*
G02X709464Y362500I1240J1615D01*
G02X713536I2036J0D01*
G02X712509Y360731I-2037J0D01*
G03X712463Y360067I198J-347D01*
G02X713259Y358452I-1240J-1615D01*
G02X709187I-2036J0D01*
G02X710214Y360221I2037J0D01*
G37*
G36*
G01X666298Y422241D02*
G03X666886I294J271D01*
G02X668382Y422896I1496J-1381D01*
G02Y418824I0J-2036D01*
G02X666886Y419479I0J2036D01*
G03X666298I-294J-271D01*
G02X664802Y418824I-1496J1381D01*
G02X663193Y419612I0J2037D01*
G03X662487Y419455I-316J-245D01*
G02X660500Y417864I-1987J445D01*
G02X660219Y417883I-3J2036D01*
G03X659765Y417506I-55J-396D01*
G02X657731Y415564I-2034J94D01*
G02Y419636I0J2036D01*
G02X658012Y419617I3J-2036D01*
G03X658466Y419994I55J396D01*
G02X660500Y421936I2034J-94D01*
G02X662109Y421148I0J-2037D01*
G03X662815Y421305I316J245D01*
G02X664802Y422896I1987J-445D01*
G02X666298Y422241I0J-2036D01*
G37*
G36*
G01X841786Y420379D02*
G03X841198I-294J-271D01*
G02X839702Y419724I-1496J1381D01*
G02Y423796I0J2036D01*
G02X841198Y423141I0J-2036D01*
G03X841786I294J271D01*
G02X843282Y423796I1496J-1381D01*
G02Y419724I0J-2036D01*
G02X841786Y420379I0J2036D01*
G37*
G36*
G01X832631Y421536D02*
G02X834069Y420941I0J-2035D01*
G02X835400Y421436I1331J-1542D01*
G02Y417364I0J-2036D01*
G02X833962Y417959I0J2035D01*
G02X832631Y417464I-1331J1542D01*
G02Y421536I0J2036D01*
G37*
G36*
G01X1043998Y421273D02*
G03X1044586I294J271D01*
G02X1046082Y421928I1496J-1381D01*
G02Y417856I0J-2036D01*
G02X1044586Y418511I0J2036D01*
G03X1043998I-294J-271D01*
G02X1042502Y417856I-1496J1381D01*
G02X1040830Y418730I0J2036D01*
G03X1040124Y418633I-328J-228D01*
G02X1038200Y417264I-1924J667D01*
G02X1036816Y417807I0J2035D01*
G02X1035432Y417264I-1384J1493D01*
G01X1035431D01*
G02Y421336I0J2036D01*
G01X1035432D01*
G02X1036816Y420793I0J-2036D01*
G02X1038200Y421336I1384J-1492D01*
G02X1039872Y420462I0J-2036D01*
G03X1040578Y420559I328J228D01*
G02X1042502Y421928I1924J-667D01*
G02X1043998Y421273I0J-2036D01*
G37*
G36*
G01X659709Y486810D02*
G02X657972Y485836I-1737J1062D01*
G02Y489908I0J2036D01*
G02X659709Y488934I0J-2036D01*
G03X660391I341J209D01*
G02X662128Y489908I1737J-1062D01*
G02Y485836I0J-2036D01*
G02X660391Y486810I0J2036D01*
G03X659709I-341J-209D01*
G37*
G36*
G01X623610Y445195D02*
G02X624112Y445696I502J-1D01*
G01X631986D01*
G02X632488Y445195I1J-501D01*
G01Y444266D01*
G03X633194Y444009I400J0D01*
G02X634753Y444736I1559J-1308D01*
G02X636318Y444003I0J-2037D01*
G03X636932I307J256D01*
G02X638497Y444736I1565J-1304D01*
G02Y440664I0J-2036D01*
G02X636932Y441397I0J2037D01*
G03X636318I-307J-256D01*
G02X634753Y440664I-1565J1304D01*
G02X633194Y441391I0J2035D01*
G03X632488Y441134I-306J-257D01*
G01Y437321D01*
G02X631986Y436820I-502J1D01*
G01X624112D01*
G02X623610Y437321I-1J501D01*
G01Y445195D01*
G37*
G36*
G01X648911Y481967D02*
G03X649189I139J145D01*
G02X650600Y482536I1412J-1467D01*
G02X651979Y481998I0J-2036D01*
G03X652521I271J294D01*
G02X653900Y482536I1379J-1498D01*
G02Y478464I0J-2036D01*
G02X652521Y479002I0J2036D01*
G03X651979I-271J-294D01*
G02X650600Y478464I-1379J1498D01*
G02X649189Y479033I1J2036D01*
G03X648911I-139J-145D01*
G02X647500Y478464I-1412J1467D01*
G02Y482536I0J2036D01*
G02X648911Y481967I-1J-2036D01*
G37*
G36*
G01X679712Y496376D02*
Y504250D01*
G02X680214Y504752I502J0D01*
G01X688088D01*
G02X688590Y504250I0J-502D01*
G01Y496376D01*
G02X688088Y495874I-502J0D01*
G01X680214D01*
G02X679712Y496376I0J502D01*
G37*
G36*
G01Y535746D02*
Y543620D01*
G02X680214Y544122I502J0D01*
G01X688088D01*
G02X688590Y543620I0J-502D01*
G01Y535746D01*
G02X688088Y535244I-502J0D01*
G01X680214D01*
G02X679712Y535746I0J502D01*
G37*
G36*
G01Y575117D02*
Y582991D01*
G02X680214Y583492I502J-1D01*
G01X688088D01*
G02X688590Y582991I1J-501D01*
G01Y575117D01*
G02X688088Y574616I-502J1D01*
G01X680214D01*
G02X679712Y575117I-1J501D01*
G37*
G36*
G01X657370Y496376D02*
Y504250D01*
G02X657872Y504752I502J0D01*
G01X665746D01*
G02X666248Y504250I0J-502D01*
G01Y496376D01*
G02X665746Y495874I-502J0D01*
G01X657872D01*
G02X657370Y496376I0J502D01*
G37*
G36*
G01X645952Y575117D02*
Y582991D01*
G02X646454Y583492I502J-1D01*
G01X654328D01*
G02X654830Y582991I1J-501D01*
G01Y575117D01*
G02X654328Y574616I-502J1D01*
G01X646454D01*
G02X645952Y575117I-1J501D01*
G37*
G36*
G01X636110Y496376D02*
Y504250D01*
G02X636612Y504752I502J0D01*
G01X644486D01*
G02X644988Y504250I0J-502D01*
G01Y496376D01*
G02X644486Y495874I-502J0D01*
G01X636612D01*
G02X636110Y496376I0J502D01*
G37*
G36*
G01X623610Y555432D02*
Y563306D01*
G02X624112Y563808I502J0D01*
G01X631986D01*
G02X632488Y563306I0J-502D01*
G01Y555432D01*
G02X631986Y554930I-502J0D01*
G01X624112D01*
G02X623610Y555432I0J502D01*
G37*
G36*
G01Y516061D02*
Y523935D01*
G02X624112Y524436I502J-1D01*
G01X631986D01*
G02X632488Y523935I1J-501D01*
G01Y516061D01*
G02X631986Y515560I-502J1D01*
G01X624112D01*
G02X623610Y516061I-1J501D01*
G37*
G36*
G01Y476691D02*
Y484565D01*
G02X624112Y485066I502J-1D01*
G01X631986D01*
G02X632488Y484565I1J-501D01*
G01Y476691D01*
G02X631986Y476190I-502J1D01*
G01X624112D01*
G02X623610Y476691I-1J501D01*
G37*
G36*
G01X834609Y486810D02*
G02X832872Y485836I-1737J1062D01*
G02Y489908I0J2036D01*
G02X834609Y488934I0J-2036D01*
G03X835291I341J209D01*
G02X837028Y489908I1737J-1062D01*
G02Y485836I0J-2036D01*
G02X835291Y486810I0J2036D01*
G03X834609I-341J-209D01*
G37*
G36*
G01X798510Y445195D02*
G02X799012Y445696I502J-1D01*
G01X806886D01*
G02X807388Y445195I1J-501D01*
G01Y444266D01*
G03X808094Y444009I400J0D01*
G02X809653Y444736I1559J-1308D01*
G02X811218Y444003I0J-2037D01*
G03X811832I307J256D01*
G02X813397Y444736I1565J-1304D01*
G02Y440664I0J-2036D01*
G02X811832Y441397I0J2037D01*
G03X811218I-307J-256D01*
G02X809653Y440664I-1565J1304D01*
G02X808094Y441391I0J2035D01*
G03X807388Y441134I-306J-257D01*
G01Y437321D01*
G02X806886Y436820I-502J1D01*
G01X799012D01*
G02X798510Y437321I-1J501D01*
G01Y445195D01*
G37*
G36*
G01X823811Y481967D02*
G03X824089I139J145D01*
G02X825500Y482536I1412J-1467D01*
G02X826879Y481998I0J-2036D01*
G03X827421I271J294D01*
G02X828800Y482536I1379J-1498D01*
G02Y478464I0J-2036D01*
G02X827421Y479002I0J2036D01*
G03X826879I-271J-294D01*
G02X825500Y478464I-1379J1498D01*
G02X824089Y479033I1J2036D01*
G03X823811I-139J-145D01*
G02X822400Y478464I-1412J1467D01*
G02Y482536I0J2036D01*
G02X823811Y481967I-1J-2036D01*
G37*
G36*
G01X854612Y496376D02*
Y504250D01*
G02X855114Y504752I502J0D01*
G01X862988D01*
G02X863490Y504250I0J-502D01*
G01Y496376D01*
G02X862988Y495874I-502J0D01*
G01X855114D01*
G02X854612Y496376I0J502D01*
G37*
G36*
G01Y535746D02*
Y543620D01*
G02X855114Y544122I502J0D01*
G01X862988D01*
G02X863490Y543620I0J-502D01*
G01Y535746D01*
G02X862988Y535244I-502J0D01*
G01X855114D01*
G02X854612Y535746I0J502D01*
G37*
G36*
G01Y575117D02*
Y582991D01*
G02X855114Y583492I502J-1D01*
G01X862988D01*
G02X863490Y582991I1J-501D01*
G01Y575117D01*
G02X862988Y574616I-502J1D01*
G01X855114D01*
G02X854612Y575117I-1J501D01*
G37*
G36*
G01X832270Y496376D02*
Y504250D01*
G02X832772Y504752I502J0D01*
G01X840646D01*
G02X841148Y504250I0J-502D01*
G01Y496376D01*
G02X840646Y495874I-502J0D01*
G01X832772D01*
G02X832270Y496376I0J502D01*
G37*
G36*
G01X820852Y575117D02*
Y582991D01*
G02X821354Y583492I502J-1D01*
G01X829228D01*
G02X829730Y582991I1J-501D01*
G01Y575117D01*
G02X829228Y574616I-502J1D01*
G01X821354D01*
G02X820852Y575117I-1J501D01*
G37*
G36*
G01X811010Y496376D02*
Y504250D01*
G02X811512Y504752I502J0D01*
G01X819386D01*
G02X819888Y504250I0J-502D01*
G01Y496376D01*
G02X819386Y495874I-502J0D01*
G01X811512D01*
G02X811010Y496376I0J502D01*
G37*
G36*
G01X798510Y555432D02*
Y563306D01*
G02X799012Y563808I502J0D01*
G01X806886D01*
G02X807388Y563306I0J-502D01*
G01Y555432D01*
G02X806886Y554930I-502J0D01*
G01X799012D01*
G02X798510Y555432I0J502D01*
G37*
G36*
G01Y516061D02*
Y523935D01*
G02X799012Y524436I502J-1D01*
G01X806886D01*
G02X807388Y523935I1J-501D01*
G01Y516061D01*
G02X806886Y515560I-502J1D01*
G01X799012D01*
G02X798510Y516061I-1J501D01*
G37*
G36*
G01Y476691D02*
Y484565D01*
G02X799012Y485066I502J-1D01*
G01X806886D01*
G02X807388Y484565I1J-501D01*
G01Y476691D01*
G02X806886Y476190I-502J1D01*
G01X799012D01*
G02X798510Y476691I-1J501D01*
G37*
G36*
G01X1037409Y486810D02*
G02X1035672Y485836I-1737J1062D01*
G02Y489908I0J2036D01*
G02X1037409Y488934I0J-2036D01*
G03X1038091I341J209D01*
G02X1039828Y489908I1737J-1062D01*
G02Y485836I0J-2036D01*
G02X1038091Y486810I0J2036D01*
G03X1037409I-341J-209D01*
G37*
G36*
G01X1001310Y445195D02*
G02X1001812Y445696I502J-1D01*
G01X1009686D01*
G02X1010188Y445195I1J-501D01*
G01Y444266D01*
G03X1010894Y444009I400J0D01*
G02X1012453Y444736I1559J-1308D01*
G02X1014018Y444003I0J-2037D01*
G03X1014632I307J256D01*
G02X1016197Y444736I1565J-1304D01*
G02Y440664I0J-2036D01*
G02X1014632Y441397I0J2037D01*
G03X1014018I-307J-256D01*
G02X1012453Y440664I-1565J1304D01*
G02X1010894Y441391I0J2035D01*
G03X1010188Y441134I-306J-257D01*
G01Y437321D01*
G02X1009686Y436820I-502J1D01*
G01X1001812D01*
G02X1001310Y437321I-1J501D01*
G01Y445195D01*
G37*
G36*
G01X1026611Y481967D02*
G03X1026889I139J145D01*
G02X1028300Y482536I1412J-1467D01*
G02X1029679Y481998I0J-2036D01*
G03X1030221I271J294D01*
G02X1031600Y482536I1379J-1498D01*
G02Y478464I0J-2036D01*
G02X1030221Y479002I0J2036D01*
G03X1029679I-271J-294D01*
G02X1028300Y478464I-1379J1498D01*
G02X1026889Y479033I1J2036D01*
G03X1026611I-139J-145D01*
G02X1025200Y478464I-1412J1467D01*
G02Y482536I0J2036D01*
G02X1026611Y481967I-1J-2036D01*
G37*
G36*
G01X1057412Y496376D02*
Y504250D01*
G02X1057914Y504752I502J0D01*
G01X1065788D01*
G02X1066290Y504250I0J-502D01*
G01Y496376D01*
G02X1065788Y495874I-502J0D01*
G01X1057914D01*
G02X1057412Y496376I0J502D01*
G37*
G36*
G01Y535746D02*
Y543620D01*
G02X1057914Y544122I502J0D01*
G01X1065788D01*
G02X1066290Y543620I0J-502D01*
G01Y535746D01*
G02X1065788Y535244I-502J0D01*
G01X1057914D01*
G02X1057412Y535746I0J502D01*
G37*
G36*
G01Y575117D02*
Y582991D01*
G02X1057914Y583492I502J-1D01*
G01X1065788D01*
G02X1066290Y582991I1J-501D01*
G01Y575117D01*
G02X1065788Y574616I-502J1D01*
G01X1057914D01*
G02X1057412Y575117I-1J501D01*
G37*
G36*
G01X1035070Y496376D02*
Y504250D01*
G02X1035572Y504752I502J0D01*
G01X1043446D01*
G02X1043948Y504250I0J-502D01*
G01Y496376D01*
G02X1043446Y495874I-502J0D01*
G01X1035572D01*
G02X1035070Y496376I0J502D01*
G37*
G36*
G01X1023652Y575117D02*
Y582991D01*
G02X1024154Y583492I502J-1D01*
G01X1032028D01*
G02X1032530Y582991I1J-501D01*
G01Y575117D01*
G02X1032028Y574616I-502J1D01*
G01X1024154D01*
G02X1023652Y575117I-1J501D01*
G37*
G36*
G01X1013810Y496376D02*
Y504250D01*
G02X1014312Y504752I502J0D01*
G01X1022186D01*
G02X1022688Y504250I0J-502D01*
G01Y496376D01*
G02X1022186Y495874I-502J0D01*
G01X1014312D01*
G02X1013810Y496376I0J502D01*
G37*
G36*
G01X1001310Y555432D02*
Y563306D01*
G02X1001812Y563808I502J0D01*
G01X1009686D01*
G02X1010188Y563306I0J-502D01*
G01Y555432D01*
G02X1009686Y554930I-502J0D01*
G01X1001812D01*
G02X1001310Y555432I0J502D01*
G37*
G36*
G01Y516061D02*
Y523935D01*
G02X1001812Y524436I502J-1D01*
G01X1009686D01*
G02X1010188Y523935I1J-501D01*
G01Y516061D01*
G02X1009686Y515560I-502J1D01*
G01X1001812D01*
G02X1001310Y516061I-1J501D01*
G37*
G36*
G01Y476691D02*
Y484565D01*
G02X1001812Y485066I502J-1D01*
G01X1009686D01*
G02X1010188Y484565I1J-501D01*
G01Y476691D01*
G02X1009686Y476190I-502J1D01*
G01X1001812D01*
G02X1001310Y476691I-1J501D01*
G37*
G36*
G01X1155983Y390147D02*
G03X1155393Y390066I-259J-305D01*
G02X1153706Y389170I-1687J1140D01*
G02Y393242I0J2036D01*
G02X1155023Y392759I0J-2037D01*
G03X1155613Y392840I259J305D01*
G02X1157300Y393736I1687J-1140D01*
G02Y389664I0J-2036D01*
G02X1155983Y390147I0J2037D01*
G37*
G36*
G01X1143898Y414469D02*
G02X1145863Y415973I1965J-532D01*
G02Y411901I0J-2036D01*
G02X1144182Y412789I0J2035D01*
G03X1143465Y412668I-331J-225D01*
G02X1141500Y411164I-1965J532D01*
G02Y415236I0J2036D01*
G02X1143181Y414348I0J-2035D01*
G03X1143898Y414469I331J225D01*
G37*
G36*
G01X1136308Y358533D02*
G03X1136193Y359091I-332J222D01*
G02X1135264Y360800I1107J1709D01*
G02X1139336I2036J0D01*
G02X1138992Y359667I-2036J-1D01*
G03X1139107Y359109I332J-222D01*
G02X1140036Y357400I-1107J-1709D01*
G02X1135964I-2036J0D01*
G02X1136308Y358533I2036J1D01*
G37*
G36*
G01X137062Y548548D02*
Y554052D01*
G02X138048Y555038I986J0D01*
G01X143552D01*
G02X144538Y554052I0J-986D01*
G01Y548548D01*
G02X143552Y547562I-986J0D01*
G01X138048D01*
G02X137062Y548548I0J986D01*
G37*
G36*
G01X253462D02*
Y554052D01*
G02X254448Y555038I986J0D01*
G01X259952D01*
G02X260938Y554052I0J-986D01*
G01Y548548D01*
G02X259952Y547562I-986J0D01*
G01X254448D01*
G02X253462Y548548I0J986D01*
G37*
G36*
G01X348962D02*
Y554052D01*
G02X349948Y555038I986J0D01*
G01X355452D01*
G02X356438Y554052I0J-986D01*
G01Y548548D01*
G02X355452Y547562I-986J0D01*
G01X349948D01*
G02X348962Y548548I0J986D01*
G37*
G36*
G01X465362D02*
Y554052D01*
G02X466348Y555038I986J0D01*
G01X471852D01*
G02X472838Y554052I0J-986D01*
G01Y548548D01*
G02X471852Y547562I-986J0D01*
G01X466348D01*
G02X465362Y548548I0J986D01*
G37*
G36*
G01X960986Y75866D02*
Y81724D01*
G02X961971Y82710I985J1D01*
G01X967829D01*
G02X968814Y81724I-1J-986D01*
G01Y75866D01*
G02X967829Y74880I-985J-1D01*
G01X961971D01*
G02X960986Y75866I1J986D01*
G37*
G36*
G01X67132Y56945D02*
X73068D01*
G02Y49037I0J-3954D01*
G01X67132D01*
G02Y56945I0J3954D01*
G37*
G36*
G01Y33323D02*
X73068D01*
G02Y25415I0J-3954D01*
G01X67132D01*
G02Y33323I0J3954D01*
G37*
G36*
G01X84650Y38212D02*
Y44148D01*
G02X92558I3954J0D01*
G01Y38212D01*
G02X84650I-3954J0D01*
G37*
G36*
G01X128106Y33918D02*
Y43682D01*
G02X129092Y44668I986J0D01*
G01X138856D01*
G02X139842Y43682I0J-986D01*
G01Y33918D01*
G02X138856Y32932I-986J0D01*
G01X129092D01*
G02X128106Y33918I0J986D01*
G37*
G36*
G01X595404Y37519D02*
G03X594816I-294J-271D01*
G02X593320Y36864I-1496J1381D01*
G02Y40936I0J2036D01*
G02X594816Y40281I0J-2036D01*
G03X595404I294J271D01*
G02X596900Y40936I1496J-1381D01*
G02Y36864I0J-2036D01*
G02X595404Y37519I0J2036D01*
G37*
G36*
G01X609104Y37619D02*
G03X608516I-294J-271D01*
G02X607020Y36964I-1496J1381D01*
G02Y41036I0J2036D01*
G02X608516Y40381I0J-2036D01*
G03X609104I294J271D01*
G02X610600Y41036I1496J-1381D01*
G02Y36964I0J-2036D01*
G02X609104Y37619I0J2036D01*
G37*
G36*
G01X657704Y37919D02*
G03X657116I-294J-271D01*
G02X655620Y37264I-1496J1381D01*
G02Y41336I0J2036D01*
G02X657116Y40681I0J-2036D01*
G03X657704I294J271D01*
G02X659200Y41336I1496J-1381D01*
G02Y37264I0J-2036D01*
G02X657704Y37919I0J2036D01*
G37*
G36*
G01X575900Y40072D02*
G03X576419Y40269I157J368D01*
G02X578260Y41436I1841J-869D01*
G02X579756Y40781I0J-2036D01*
G03X580344I294J271D01*
G02X581840Y41436I1496J-1381D01*
G02X583837Y39797I0J-2036D01*
G03X584372Y39501I392J78D01*
G02X585100Y39636I729J-1901D01*
G02Y35564I0J-2036D01*
G02X583103Y37203I0J2036D01*
G03X582568Y37499I-392J-78D01*
G02X581840Y37364I-729J1901D01*
G02X580344Y38019I0J2036D01*
G03X579756I-294J-271D01*
G02X578260Y37364I-1496J1381D01*
G02X577460Y37528I1J2036D01*
G03X576941Y37331I-157J-368D01*
G02X575100Y36164I-1841J869D01*
G02X574184Y36382I1J2036D01*
G03X573618Y36127I-179J-357D01*
G02X571650Y34614I-1968J523D01*
G02Y38686I0J2036D01*
G02X572566Y38468I-1J-2036D01*
G03X573132Y38723I179J357D01*
G02X575100Y40236I1968J-523D01*
G02X575900Y40072I-1J-2036D01*
G37*
G36*
G01X540481Y39826D02*
G03X541080Y40064I212J339D01*
G02X543050Y41586I1970J-514D01*
G02Y37514I0J-2036D01*
G02X541969Y37824I-1J2036D01*
G03X541370Y37586I-212J-339D01*
G02X539400Y36064I-1970J514D01*
G02Y40136I0J2036D01*
G02X540481Y39826I1J-2036D01*
G37*
G36*
G01X617439Y40855D02*
G03X617975Y41068I166J364D01*
G02X619860Y42336I1885J-767D01*
G02X621356Y41681I0J-2036D01*
G03X621944I294J271D01*
G02X623440Y42336I1496J-1381D01*
G02X625476Y40300I0J-2036D01*
G02X623951Y38329I-2036J0D01*
G03X623698Y37755I101J-387D01*
G02X623936Y36800I-1797J-955D01*
G02X619864I-2036J0D01*
G02X620070Y37693I2036J1D01*
G03X619735Y38268I-359J176D01*
G02X619021Y38445I125J2032D01*
G03X618485Y38232I-166J-364D01*
G02X616600Y36964I-1885J767D01*
G02Y41036I0J2036D01*
G02X617439Y40855I0J-2035D01*
G37*
G36*
G01X690344Y39019D02*
G03X689756I-294J-271D01*
G02X688260Y38364I-1496J1381D01*
G02Y42436I0J2036D01*
G02X689756Y41781I0J-2036D01*
G03X690344I294J271D01*
G02X691840Y42436I1496J-1381D01*
G02Y38364I0J-2036D01*
G02X690344Y39019I0J2036D01*
G37*
G36*
G01X520304Y39419D02*
G03X519716I-294J-271D01*
G02X518220Y38764I-1496J1381D01*
G02Y42836I0J2036D01*
G02X519716Y42181I0J-2036D01*
G03X520304I294J271D01*
G02X521800Y42836I1496J-1381D01*
G02Y38764I0J-2036D01*
G02X520304Y39419I0J2036D01*
G37*
G36*
G01X665904Y41219D02*
G03X665316I-294J-271D01*
G02X663820Y40564I-1496J1381D01*
G02Y44636I0J2036D01*
G02X665316Y43981I0J-2036D01*
G03X665904I294J271D01*
G02X667400Y44636I1496J-1381D01*
G02Y40564I0J-2036D01*
G02X665904Y41219I0J2036D01*
G37*
G36*
G01X601244Y41619D02*
G03X600656I-294J-271D01*
G02X599160Y40964I-1496J1381D01*
G02Y45036I0J2036D01*
G02X600656Y44381I0J-2036D01*
G03X601244I294J271D01*
G02X602740Y45036I1496J-1381D01*
G02Y40964I0J-2036D01*
G02X601244Y41619I0J2036D01*
G37*
G36*
G01X766720Y48624D02*
G03X766261Y48924I-389J-94D01*
G02X765900Y48892I-360J2004D01*
G02Y52964I0J2036D01*
G02X767880Y51404I0J-2037D01*
G03X768339Y51104I389J94D01*
G02X768700Y51136I360J-2004D01*
G02Y47064I0J-2036D01*
G02X766720Y48624I0J2037D01*
G37*
G36*
G01X449138Y61175D02*
G03X448725Y61668I-389J94D01*
G02X448600Y61664I-128J2032D01*
G02X450636Y63700I0J2036D01*
G02X450580Y63225I-2036J-1D01*
G03X450993Y62732I389J-94D01*
G02X451118Y62736I128J-2032D01*
G02X449082Y60700I0J-2036D01*
G02X449138Y61175I2036J1D01*
G37*
G36*
G01X756274Y71680D02*
G03X756767Y72090I94J389D01*
G02X756764Y72200I2033J110D01*
G02X758800Y70164I2036J0D01*
G02X758326Y70220I0J2036D01*
G03X757833Y69810I-94J-389D01*
G02X757836Y69700I-2033J-110D01*
G02X755800Y67664I-2036J0D01*
G02X755496Y67687I1J2036D01*
G03X755036Y67293I-60J-396D01*
G02X753000Y65264I-2036J7D01*
G02X752605Y65303I2J2036D01*
G03X752128Y64876I-78J-392D01*
G02X752136Y64700I-2028J-180D01*
G02X750100Y62664I-2036J0D01*
G02X748122Y64218I0J2036D01*
G03X747646Y64513I-388J-95D01*
G02X747200Y64464I-444J1987D01*
G02X747119Y64466I10J2036D01*
G03X746913Y64296I-8J-200D01*
G02X744900Y62564I-2013J304D01*
G02X744410Y62624I1J2036D01*
G03X744169Y62481I-48J-194D01*
G02X742200Y60964I-1969J519D01*
G02Y65036I0J2036D01*
G02X742690Y64976I-1J-2036D01*
G03X742931Y65119I48J194D01*
G02X744900Y66636I1969J-519D01*
G02X744981Y66634I-10J-2036D01*
G03X745187Y66804I8J200D01*
G02X747200Y68536I2013J-304D01*
G02X749178Y66982I0J-2036D01*
G03X749654Y66687I388J95D01*
G02X750100Y66736I444J-1987D01*
G02X750495Y66697I-2J-2036D01*
G03X750972Y67124I78J392D01*
G02X750964Y67300I2028J180D01*
G02X753000Y69336I2036J0D01*
G02X753304Y69313I-1J-2036D01*
G03X753764Y69707I60J396D01*
G02X755800Y71736I2036J-7D01*
G02X756274Y71680I0J-2036D01*
G37*
G36*
G01X820965Y69758D02*
G03X820538Y70169I-400J12D01*
G02X820400Y70164I-143J2031D01*
G02X822436Y72200I0J2036D01*
G02X822435Y72142I-2036J6D01*
G03X822862Y71731I400J-12D01*
G02X823000Y71736I143J-2031D01*
G02Y67664I0J-2036D01*
G02X822612Y67701I-2J2036D01*
G03X822136Y67307I-76J-393D01*
G01Y67300D01*
G02X820100Y69336I-2036J0D01*
G02X820488Y69299I2J-2036D01*
G03X820964Y69693I76J393D01*
G01Y69700D01*
G02X820965Y69758I2036J-6D01*
G37*
G36*
G01X663144Y77119D02*
G03X662556I-294J-271D01*
G02X661060Y76464I-1496J1381D01*
G02Y80536I0J2036D01*
G02X662556Y79881I0J-2036D01*
G03X663144I294J271D01*
G02X664640Y80536I1496J-1381D01*
G02Y76464I0J-2036D01*
G02X663144Y77119I0J2036D01*
G37*
G36*
G01X637144Y82019D02*
G03X636556I-294J-271D01*
G02X635060Y81364I-1496J1381D01*
G02Y85436I0J2036D01*
G02X636556Y84781I0J-2036D01*
G03X637144I294J271D01*
G02X638640Y85436I1496J-1381D01*
G02Y81364I0J-2036D01*
G02X637144Y82019I0J2036D01*
G37*
G36*
G01X657744Y88519D02*
G03X657156I-294J-271D01*
G02X655660Y87864I-1496J1381D01*
G02Y91936I0J2036D01*
G02X657156Y91281I0J-2036D01*
G03X657744I294J271D01*
G02X659240Y91936I1496J-1381D01*
G02Y87864I0J-2036D01*
G02X657744Y88519I0J2036D01*
G37*
G36*
G01X691344Y90119D02*
G03X690756I-294J-271D01*
G02X689260Y89464I-1496J1381D01*
G02Y93536I0J2036D01*
G02X690756Y92881I0J-2036D01*
G03X691344I294J271D01*
G02X692840Y93536I1496J-1381D01*
G02Y89464I0J-2036D01*
G02X691344Y90119I0J2036D01*
G37*
G36*
G01X970344Y93319D02*
G03X969756I-294J-271D01*
G02X968260Y92664I-1496J1381D01*
G02Y96736I0J2036D01*
G02X969756Y96081I0J-2036D01*
G03X970344I294J271D01*
G02X971840Y96736I1496J-1381D01*
G02Y92664I0J-2036D01*
G02X970344Y93319I0J2036D01*
G37*
G36*
G01X980007Y97370D02*
G03X979402I-302J-261D01*
G02X977860Y96664I-1542J1331D01*
G02Y100736I0J2036D01*
G02X979402Y100030I0J-2037D01*
G03X980007I302J261D01*
G02X981549Y100736I1542J-1331D01*
G02Y96664I0J-2036D01*
G02X980007Y97370I0J2037D01*
G37*
G36*
G01X723944Y102819D02*
G03X723356I-294J-271D01*
G02X721860Y102164I-1496J1381D01*
G02Y106236I0J2036D01*
G02X723356Y105581I0J-2036D01*
G03X723944I294J271D01*
G02X725440Y106236I1496J-1381D01*
G02Y102164I0J-2036D01*
G02X723944Y102819I0J2036D01*
G37*
G36*
G01X461769Y102142D02*
G03X461342Y102569I-399J28D01*
G02X461200Y102564I-143J2031D01*
G02X463236Y104600I0J2036D01*
G02X463231Y104458I-2036J1D01*
G03X463658Y104031I399J-28D01*
G02X463800Y104036I143J-2031D01*
G02X465836Y102000I0J-2036D01*
G02X465798Y101610I-2036J2D01*
G03X466209Y101134I393J-76D01*
G02X466300Y101136I90J-2034D01*
G02X464264Y99100I0J-2036D01*
G02X464302Y99490I2036J-2D01*
G03X463891Y99966I-393J76D01*
G02X463800Y99964I-90J2034D01*
G02X461764Y102000I0J2036D01*
G02X461769Y102142I2036J-1D01*
G37*
G36*
G01X613951Y107612D02*
G03X613363I-294J-271D01*
G02X611867Y106957I-1496J1381D01*
G02Y111029I0J2036D01*
G02X613363Y110374I0J-2036D01*
G03X613951I294J271D01*
G02X615447Y111029I1496J-1381D01*
G02Y106957I0J-2036D01*
G02X613951Y107612I0J2036D01*
G37*
G36*
G01X812544Y115319D02*
G03X811956I-294J-271D01*
G02X810460Y114664I-1496J1381D01*
G02Y118736I0J2036D01*
G02X811956Y118081I0J-2036D01*
G03X812544I294J271D01*
G02X814040Y118736I1496J-1381D01*
G02Y114664I0J-2036D01*
G02X812544Y115319I0J2036D01*
G37*
G36*
G01X629451Y116512D02*
G03X628863I-294J-271D01*
G02X627367Y115857I-1496J1381D01*
G02Y119929I0J2036D01*
G02X628863Y119274I0J-2036D01*
G03X629451I294J271D01*
G02X630947Y119929I1496J-1381D01*
G02Y115857I0J-2036D01*
G02X629451Y116512I0J2036D01*
G37*
G36*
G01X928018Y120705D02*
G03X927430I-294J-271D01*
G02X925934Y120050I-1496J1381D01*
G02Y124122I0J2036D01*
G02X927430Y123467I0J-2036D01*
G03X928018I294J271D01*
G02X929514Y124122I1496J-1381D01*
G02Y120050I0J-2036D01*
G02X928018Y120705I0J2036D01*
G37*
G36*
G01X649333Y123230D02*
G03X648745I-294J-271D01*
G02X647249Y122575I-1496J1381D01*
G02Y126647I0J2036D01*
G02X648745Y125992I0J-2036D01*
G03X649333I294J271D01*
G02X650829Y126647I1496J-1381D01*
G02Y122575I0J-2036D01*
G02X649333Y123230I0J2036D01*
G37*
G36*
G01X1011004Y125219D02*
G03X1010416I-294J-271D01*
G02X1008920Y124564I-1496J1381D01*
G02Y128636I0J2036D01*
G02X1010416Y127981I0J-2036D01*
G03X1011004I294J271D01*
G02X1012500Y128636I1496J-1381D01*
G02Y124564I0J-2036D01*
G02X1011004Y125219I0J2036D01*
G37*
G36*
G01X587544Y126359D02*
G03X586956I-294J-271D01*
G02X585460Y125704I-1496J1381D01*
G02Y129776I0J2036D01*
G02X586956Y129121I0J-2036D01*
G03X587544I294J271D01*
G02X589040Y129776I1496J-1381D01*
G02Y125704I0J-2036D01*
G02X587544Y126359I0J2036D01*
G37*
G36*
G01X665744Y128619D02*
G03X665156I-294J-271D01*
G02X663660Y127964I-1496J1381D01*
G02Y132036I0J2036D01*
G02X665156Y131381I0J-2036D01*
G03X665744I294J271D01*
G02X667240Y132036I1496J-1381D01*
G02Y127964I0J-2036D01*
G02X665744Y128619I0J2036D01*
G37*
G36*
G01X637704Y130919D02*
G03X637116I-294J-271D01*
G02X635620Y130264I-1496J1381D01*
G02Y134336I0J2036D01*
G02X637116Y133681I0J-2036D01*
G03X637704I294J271D01*
G02X639200Y134336I1496J-1381D01*
G02Y130264I0J-2036D01*
G02X637704Y130919I0J2036D01*
G37*
G36*
G01X595404Y131219D02*
G03X594816I-294J-271D01*
G02X593320Y130564I-1496J1381D01*
G02Y134636I0J2036D01*
G02X594816Y133981I0J-2036D01*
G03X595404I294J271D01*
G02X596900Y134636I1496J-1381D01*
G02Y130564I0J-2036D01*
G02X595404Y131219I0J2036D01*
G37*
G36*
G01X673744Y132419D02*
G03X673156I-294J-271D01*
G02X671660Y131764I-1496J1381D01*
G02Y135836I0J2036D01*
G02X673156Y135181I0J-2036D01*
G03X673744I294J271D01*
G02X675240Y135836I1496J-1381D01*
G02Y131764I0J-2036D01*
G02X673744Y132419I0J2036D01*
G37*
G36*
G01X584644Y138719D02*
G03X584056I-294J-271D01*
G02X582560Y138064I-1496J1381D01*
G02Y142136I0J2036D01*
G02X584056Y141481I0J-2036D01*
G03X584644I294J271D01*
G02X586140Y142136I1496J-1381D01*
G02Y138064I0J-2036D01*
G02X584644Y138719I0J2036D01*
G37*
G36*
G01X706944Y138819D02*
G03X706356I-294J-271D01*
G02X704860Y138164I-1496J1381D01*
G02Y142236I0J2036D01*
G02X706356Y141581I0J-2036D01*
G03X706944I294J271D01*
G02X708440Y142236I1496J-1381D01*
G02Y138164I0J-2036D01*
G02X706944Y138819I0J2036D01*
G37*
G36*
G01X1108820Y138823D02*
G03X1108194Y139003I-377J-133D01*
G02X1106925Y138559I-1269J1591D01*
G02Y142631I0J2036D01*
G02X1108845Y141272I0J-2036D01*
G03X1109471Y141092I377J133D01*
G02X1110740Y141536I1269J-1591D01*
G02Y137464I0J-2036D01*
G02X1108820Y138823I0J2036D01*
G37*
G36*
G01X542144Y139819D02*
G03X541556I-294J-271D01*
G02X540060Y139164I-1496J1381D01*
G02Y143236I0J2036D01*
G02X541556Y142581I0J-2036D01*
G03X542144I294J271D01*
G02X543640Y143236I1496J-1381D01*
G02Y139164I0J-2036D01*
G02X542144Y139819I0J2036D01*
G37*
G36*
G01X607144Y145519D02*
G03X606556I-294J-271D01*
G02X605060Y144864I-1496J1381D01*
G02Y148936I0J2036D01*
G02X606556Y148281I0J-2036D01*
G03X607144I294J271D01*
G02X608640Y148936I1496J-1381D01*
G02Y144864I0J-2036D01*
G02X607144Y145519I0J2036D01*
G37*
G36*
G01X576244Y147719D02*
G03X575656I-294J-271D01*
G02X574160Y147064I-1496J1381D01*
G02Y151136I0J2036D01*
G02X575656Y150481I0J-2036D01*
G03X576244I294J271D01*
G02X577740Y151136I1496J-1381D01*
G02Y147064I0J-2036D01*
G02X576244Y147719I0J2036D01*
G37*
G36*
G01X803104D02*
G03X802516I-294J-271D01*
G02X801020Y147064I-1496J1381D01*
G02Y151136I0J2036D01*
G02X802516Y150481I0J-2036D01*
G03X803104I294J271D01*
G02X804600Y151136I1496J-1381D01*
G02Y147064I0J-2036D01*
G02X803104Y147719I0J2036D01*
G37*
G36*
G01X793818Y148126D02*
G03X793230Y148162I-311J-252D01*
G02X791819Y147594I-1411J1469D01*
G02Y151666I0J2036D01*
G02X793400Y150912I-1J-2036D01*
G03X793988Y150876I311J252D01*
G02X795399Y151444I1411J-1469D01*
G02Y147372I0J-2036D01*
G02X793818Y148126I1J2036D01*
G37*
G36*
G01X643133Y154208D02*
G03X642545I-294J-271D01*
G02X641049Y153553I-1496J1381D01*
G02Y157625I0J2036D01*
G02X642545Y156970I0J-2036D01*
G03X643133I294J271D01*
G02X644629Y157625I1496J-1381D01*
G02Y153553I0J-2036D01*
G02X643133Y154208I0J2036D01*
G37*
G36*
G01X653560Y154319D02*
G03X652972I-294J-271D01*
G02X651476Y153664I-1496J1381D01*
G02Y157736I0J2036D01*
G02X652972Y157081I0J-2036D01*
G03X653560I294J271D01*
G02X655056Y157736I1496J-1381D01*
G02Y153664I0J-2036D01*
G02X653560Y154319I0J2036D01*
G37*
G36*
G01X564161Y156136D02*
G03X563573I-294J-271D01*
G02X562077Y155481I-1496J1381D01*
G02Y159553I0J2036D01*
G02X563573Y158898I0J-2036D01*
G03X564161I294J271D01*
G02X565657Y159553I1496J-1381D01*
G02Y155481I0J-2036D01*
G02X564161Y156136I0J2036D01*
G37*
G36*
G01X92802Y156079D02*
G03Y156621I-294J271D01*
G02X92264Y158000I1498J1379D01*
G02X96336I2036J0D01*
G02X95798Y156621I-2036J0D01*
G03Y156079I294J-271D01*
G02X96336Y154700I-1498J-1379D01*
G02X95758Y153279I-2036J0D01*
G03Y152721I287J-279D01*
G02X96336Y151300I-1458J-1421D01*
G02X92264I-2036J0D01*
G02X92842Y152721I2036J0D01*
G03Y153279I-287J279D01*
G02X92264Y154700I1458J1421D01*
G02X92802Y156079I2036J0D01*
G37*
G36*
G01X1092744Y158419D02*
G03X1092156I-294J-271D01*
G02X1090660Y157764I-1496J1381D01*
G02Y161836I0J2036D01*
G02X1092156Y161181I0J-2036D01*
G03X1092744I294J271D01*
G02X1094240Y161836I1496J-1381D01*
G02Y157764I0J-2036D01*
G02X1092744Y158419I0J2036D01*
G37*
G36*
G01X999144Y162719D02*
G03X998556I-294J-271D01*
G02X997060Y162064I-1496J1381D01*
G02Y166136I0J2036D01*
G02X998556Y165481I0J-2036D01*
G03X999144I294J271D01*
G02X1000640Y166136I1496J-1381D01*
G02Y162064I0J-2036D01*
G02X999144Y162719I0J2036D01*
G37*
G36*
G01X1083644Y163119D02*
G03X1083056I-294J-271D01*
G02X1081560Y162464I-1496J1381D01*
G02Y166536I0J2036D01*
G02X1083056Y165881I0J-2036D01*
G03X1083644I294J271D01*
G02X1085140Y166536I1496J-1381D01*
G02Y162464I0J-2036D01*
G02X1083644Y163119I0J2036D01*
G37*
G36*
G01X988744Y164079D02*
G03X988156I-294J-271D01*
G02X986660Y163424I-1496J1381D01*
G02Y167496I0J2036D01*
G02X988156Y166841I0J-2036D01*
G03X988744I294J271D01*
G02X990240Y167496I1496J-1381D01*
G02Y163424I0J-2036D01*
G02X988744Y164079I0J2036D01*
G37*
G36*
G01X551244Y165919D02*
G03X550656I-294J-271D01*
G02X549160Y165264I-1496J1381D01*
G02Y169336I0J2036D01*
G02X550656Y168681I0J-2036D01*
G03X551244I294J271D01*
G02X552740Y169336I1496J-1381D01*
G02Y165264I0J-2036D01*
G02X551244Y165919I0J2036D01*
G37*
G36*
G01X621944Y170019D02*
G03X621356I-294J-271D01*
G02X619860Y169364I-1496J1381D01*
G02Y173436I0J2036D01*
G02X621356Y172781I0J-2036D01*
G03X621944I294J271D01*
G02X623440Y173436I1496J-1381D01*
G02Y169364I0J-2036D01*
G02X621944Y170019I0J2036D01*
G37*
G36*
G01X911504Y170319D02*
G03X910916I-294J-271D01*
G02X909420Y169664I-1496J1381D01*
G02Y173736I0J2036D01*
G02X910916Y173081I0J-2036D01*
G03X911504I294J271D01*
G02X913000Y173736I1496J-1381D01*
G02Y169664I0J-2036D01*
G02X911504Y170319I0J2036D01*
G37*
G36*
G01X903204Y171919D02*
G03X902616I-294J-271D01*
G02X901120Y171264I-1496J1381D01*
G02Y175336I0J2036D01*
G02X902616Y174681I0J-2036D01*
G03X903204I294J271D01*
G02X904700Y175336I1496J-1381D01*
G02Y171264I0J-2036D01*
G02X903204Y171919I0J2036D01*
G37*
G36*
G01X682844Y173719D02*
G03X682256I-294J-271D01*
G02X680760Y173064I-1496J1381D01*
G02Y177136I0J2036D01*
G02X682256Y176481I0J-2036D01*
G03X682844I294J271D01*
G02X684340Y177136I1496J-1381D01*
G02Y173064I0J-2036D01*
G02X682844Y173719I0J2036D01*
G37*
G36*
G01X333444Y177319D02*
G03X332856I-294J-271D01*
G02X331360Y176664I-1496J1381D01*
G02Y180736I0J2036D01*
G02X332856Y180081I0J-2036D01*
G03X333444I294J271D01*
G02X334940Y180736I1496J-1381D01*
G02Y176664I0J-2036D01*
G02X333444Y177319I0J2036D01*
G37*
G36*
G01X508244Y179519D02*
G03X507656I-294J-271D01*
G02X506160Y178864I-1496J1381D01*
G02Y182936I0J2036D01*
G02X507656Y182281I0J-2036D01*
G03X508244I294J271D01*
G02X509740Y182936I1496J-1381D01*
G02Y178864I0J-2036D01*
G02X508244Y179519I0J2036D01*
G37*
G36*
G01X212681Y182833D02*
G03X213042Y183342I-23J399D01*
G02X212964Y183900I1957J558D01*
G02X217036I2036J0D01*
G02X215119Y181867I-2037J0D01*
G03X214758Y181358I23J-399D01*
G02X214836Y180800I-1957J-558D01*
G02X210764I-2036J0D01*
G02X212681Y182833I2037J0D01*
G37*
G36*
G01X599404Y184819D02*
G03X598816I-294J-271D01*
G02X597320Y184164I-1496J1381D01*
G02Y188236I0J2036D01*
G02X598816Y187581I0J-2036D01*
G03X599404I294J271D01*
G02X600900Y188236I1496J-1381D01*
G02Y184164I0J-2036D01*
G02X599404Y184819I0J2036D01*
G37*
G36*
G01X691444Y187319D02*
G03X690856I-294J-271D01*
G02X689360Y186664I-1496J1381D01*
G02Y190736I0J2036D01*
G02X690856Y190081I0J-2036D01*
G03X691444I294J271D01*
G02X692940Y190736I1496J-1381D01*
G02Y186664I0J-2036D01*
G02X691444Y187319I0J2036D01*
G37*
G36*
G01X991963Y189211D02*
G03X991881Y189769I-321J238D01*
G02X991064Y191400I1220J1631D01*
G02X995136I2036J0D01*
G02X994737Y190189I-2037J0D01*
G03X994819Y189631I321J-238D01*
G02X995636Y188000I-1220J-1631D01*
G02X991564I-2036J0D01*
G02X991963Y189211I2037J0D01*
G37*
G36*
G01X317844Y192619D02*
G03X317256I-294J-271D01*
G02X315760Y191964I-1496J1381D01*
G02Y196036I0J2036D01*
G02X317256Y195381I0J-2036D01*
G03X317844I294J271D01*
G02X319340Y196036I1496J-1381D01*
G02Y191964I0J-2036D01*
G02X317844Y192619I0J2036D01*
G37*
G36*
G01X718344Y193419D02*
G03X717756I-294J-271D01*
G02X716260Y192764I-1496J1381D01*
G02Y196836I0J2036D01*
G02X717756Y196181I0J-2036D01*
G03X718344I294J271D01*
G02X719840Y196836I1496J-1381D01*
G02Y192764I0J-2036D01*
G02X718344Y193419I0J2036D01*
G37*
G36*
G01X504504Y195719D02*
G03X503916I-294J-271D01*
G02X502420Y195064I-1496J1381D01*
G02Y199136I0J2036D01*
G02X503916Y198481I0J-2036D01*
G03X504504I294J271D01*
G02X506000Y199136I1496J-1381D01*
G02Y195064I0J-2036D01*
G02X504504Y195719I0J2036D01*
G37*
G36*
G01X585304Y196519D02*
G03X584716I-294J-271D01*
G02X583220Y195864I-1496J1381D01*
G02Y199936I0J2036D01*
G02X584716Y199281I0J-2036D01*
G03X585304I294J271D01*
G02X586800Y199936I1496J-1381D01*
G02Y195864I0J-2036D01*
G02X585304Y196519I0J2036D01*
G37*
G36*
G01X516744Y198919D02*
G03X516156I-294J-271D01*
G02X514660Y198264I-1496J1381D01*
G02Y202336I0J2036D01*
G02X516156Y201681I0J-2036D01*
G03X516744I294J271D01*
G02X518240Y202336I1496J-1381D01*
G02Y198264I0J-2036D01*
G02X516744Y198919I0J2036D01*
G37*
G36*
G01X623004Y199519D02*
G03X622416I-294J-271D01*
G02X620920Y198864I-1496J1381D01*
G02Y202936I0J2036D01*
G02X622416Y202281I0J-2036D01*
G03X623004I294J271D01*
G02X624500Y202936I1496J-1381D01*
G02Y198864I0J-2036D01*
G02X623004Y199519I0J2036D01*
G37*
G36*
G01X903748Y201518D02*
G03X903666Y202109I-305J259D01*
G02X902764Y203800I1134J1691D01*
G02X906836I2036J0D01*
G02X906352Y202482I-2037J0D01*
G03X906434Y201891I305J-259D01*
G02X907336Y200200I-1134J-1691D01*
G02X903264I-2036J0D01*
G02X903748Y201518I2037J0D01*
G37*
G36*
G01X697061Y202322D02*
G03X696782Y202831I-381J122D01*
G02X695264Y204800I518J1969D01*
G02X699336I2036J0D01*
G02X699239Y204178I-2036J-1D01*
G03X699518Y203669I381J-122D01*
G02X701036Y201700I-518J-1969D01*
G02X696964I-2036J0D01*
G02X697061Y202322I2036J1D01*
G37*
G36*
G01X45843Y205022D02*
G03X45827Y205597I-286J280D01*
G02X45164Y207100I1372J1503D01*
G02X49236I2036J0D01*
G02X48657Y205678I-2036J0D01*
G03X48673Y205103I286J-280D01*
G02X49336Y203600I-1372J-1503D01*
G02X45264I-2036J0D01*
G02X45843Y205022I2036J0D01*
G37*
G36*
G01X40588Y205166D02*
G03X40571Y205757I-278J288D01*
G02X39864Y207300I1330J1543D01*
G02X43936I2036J0D01*
G02X43312Y205834I-2036J1D01*
G03X43329Y205243I278J-288D01*
G02X44036Y203700I-1330J-1543D01*
G02X43274Y202112I-2036J0D01*
G03Y201488I250J-312D01*
G02X44036Y199900I-1274J-1588D01*
G02X39964I-2036J0D01*
G02X40726Y201488I2036J0D01*
G03Y202112I-250J312D01*
G02X39964Y203700I1274J1588D01*
G02X40588Y205166I2036J-1D01*
G37*
G36*
G01X628904Y205919D02*
G03X628316I-294J-271D01*
G02X626820Y205264I-1496J1381D01*
G02Y209336I0J2036D01*
G02X628316Y208681I0J-2036D01*
G03X628904I294J271D01*
G02X630400Y209336I1496J-1381D01*
G02Y205264I0J-2036D01*
G02X628904Y205919I0J2036D01*
G37*
G36*
G01X170121Y214502D02*
G03X169579I-271J-294D01*
G02X168200Y213964I-1379J1498D01*
G02Y218036I0J2036D01*
G02X169579Y217498I0J-2036D01*
G03X170121I271J294D01*
G02X171500Y218036I1379J-1498D01*
G02Y213964I0J-2036D01*
G02X170121Y214502I0J2036D01*
G37*
G36*
G01X612067Y213284D02*
G02X611664Y214500I1633J1216D01*
G02X611704Y214903I2036J1D01*
G02X610064Y216900I396J1997D01*
G02X614136I2036J0D01*
G02X614096Y216497I-2036J-1D01*
G02X615736Y214500I-396J-1997D01*
G02X614664Y212707I-2035J0D01*
G03X614533Y212116I190J-352D01*
G02X614936Y210900I-1633J-1216D01*
G02X610864I-2036J0D01*
G02X611936Y212693I2035J0D01*
G03X612067Y213284I-190J352D01*
G37*
G36*
G01X756272Y216481D02*
G03X756764Y216875I92J389D01*
G01Y216900D01*
G02X758800Y214864I2036J0D01*
G02X758328Y214919I-2J2036D01*
G03X757836Y214525I-92J-389D01*
G01Y214500D01*
G02X755800Y212464I-2036J0D01*
G02X755494Y212487I-1J2036D01*
G03X755034Y212110I-60J-395D01*
G02X753000Y210164I-2034J90D01*
G02X752595Y210205I2J2036D01*
G03X752119Y209761I-79J-392D01*
G02X752136Y209500I-2019J-263D01*
G02X750100Y207464I-2036J0D01*
G02X749698Y207504I0J2036D01*
G03X749222Y207159I-79J-392D01*
G02X747200Y205364I-2022J241D01*
G02X747142Y205365I6J2036D01*
G03X746731Y204938I-12J-400D01*
G02X746736Y204800I-2031J-143D01*
G02X744700Y202764I-2036J0D01*
G02X744568Y202768I-4J2036D01*
G03X744158Y202259I-26J-399D01*
G02X744236Y201700I-1958J-558D01*
G02X742200Y203736I-2036J0D01*
G02X742332Y203732I4J-2036D01*
G03X742742Y204241I26J399D01*
G02X742664Y204800I1958J558D01*
G02X744700Y206836I2036J0D01*
G02X744758Y206835I-6J-2036D01*
G03X745169Y207262I12J400D01*
G02X745164Y207400I2031J143D01*
G02X747200Y209436I2036J0D01*
G02X747602Y209396I0J-2036D01*
G03X748078Y209741I79J392D01*
G02X750100Y211536I2022J-241D01*
G02X750505Y211495I-2J-2036D01*
G03X750981Y211939I79J392D01*
G02X750964Y212200I2019J263D01*
G02X753000Y214236I2036J0D01*
G02X753306Y214213I1J-2036D01*
G03X753766Y214590I60J395D01*
G02X755800Y216536I2034J-90D01*
G02X756272Y216481I2J-2036D01*
G37*
G36*
G01X1113240Y225053D02*
G03X1112653I-294J-271D01*
G02X1111193Y224414I-1459J1347D01*
G02Y228386I0J1986D01*
G02X1112653Y227747I1J-1986D01*
G03X1113240I293J271D01*
G02X1114700Y228386I1459J-1347D01*
G02Y224414I0J-1986D01*
G02X1113240Y225053I-1J1986D01*
G37*
G36*
G01X458047Y227053D02*
G03X457460I-293J-271D01*
G02X456000Y226414I-1459J1347D01*
G02Y230386I0J1986D01*
G02X457460Y229747I1J-1986D01*
G03X458047I293J271D01*
G02X459507Y230386I1459J-1347D01*
G02Y226414I0J-1986D01*
G02X458047Y227053I-1J1986D01*
G37*
G36*
G01X1023646Y227055D02*
G03X1023059I-293J-271D01*
G02X1021599Y226416I-1459J1347D01*
G02Y230388I0J1986D01*
G02X1023059Y229749I1J-1986D01*
G03X1023646I293J271D01*
G02X1025106Y230388I1459J-1347D01*
G02Y226416I0J-1986D01*
G02X1023646Y227055I-1J1986D01*
G37*
G36*
G01X819534Y231146D02*
G03X818947I-293J-271D01*
G02X817487Y230507I-1459J1347D01*
G02Y234479I0J1986D01*
G02X818947Y233840I1J-1986D01*
G03X819534I294J271D01*
G02X820994Y234479I1459J-1347D01*
G02Y230507I0J-1986D01*
G02X819534Y231146I-1J1986D01*
G37*
G36*
G01X935344Y231356D02*
G03X934757I-294J-271D01*
G02X933297Y230717I-1459J1347D01*
G02Y234689I0J1986D01*
G02X934757Y234050I1J-1986D01*
G03X935344I294J271D01*
G02X936804Y234689I1459J-1347D01*
G02Y230717I0J-1986D01*
G02X935344Y231356I-1J1986D01*
G37*
G36*
G01X732340Y233653D02*
G03X731753I-293J-271D01*
G02X730293Y233014I-1459J1347D01*
G02Y236986I0J1986D01*
G02X731753Y236347I1J-1986D01*
G03X732340I294J271D01*
G02X733800Y236986I1459J-1347D01*
G02Y233014I0J-1986D01*
G02X732340Y233653I-1J1986D01*
G37*
G36*
G01X645390Y234003D02*
G03X644803I-293J-271D01*
G02X643343Y233364I-1459J1347D01*
G02Y237336I0J1986D01*
G02X644803Y236697I1J-1986D01*
G03X645390I293J271D01*
G02X646850Y237336I1459J-1347D01*
G02Y233364I0J-1986D01*
G02X645390Y234003I-1J1986D01*
G37*
G36*
G01X500061Y234853D02*
G03X499474I-293J-271D01*
G02X498014Y234214I-1459J1347D01*
G02Y238186I0J1986D01*
G02X499474Y237547I1J-1986D01*
G03X500061I293J271D01*
G02X501521Y238186I1459J-1347D01*
G02Y234214I0J-1986D01*
G02X500061Y234853I-1J1986D01*
G37*
G36*
G01X241289Y257533D02*
G03X241667Y257911I-21J399D01*
G02X243700Y259836I2033J-111D01*
G02X245736Y257800I0J-2036D01*
G02X243811Y255767I-2036J0D01*
G03X243433Y255389I21J-399D01*
G02X241400Y253464I-2033J111D01*
G02X239364Y255500I0J2036D01*
G02X241289Y257533I2036J0D01*
G37*
G36*
G01X871522Y259784D02*
G03X871177Y260276I-388J95D01*
G02X869364Y262300I223J2024D01*
G02X873436I2036J0D01*
G02X873378Y261816I-2036J-1D01*
G03X873723Y261324I388J-95D01*
G02X875536Y259300I-223J-2024D01*
G02X871464I-2036J0D01*
G02X871522Y259784I2036J1D01*
G37*
G36*
G01X1013304Y272019D02*
G03X1012716I-294J-271D01*
G02X1011220Y271364I-1496J1381D01*
G02Y275436I0J2036D01*
G02X1012716Y274781I0J-2036D01*
G03X1013304I294J271D01*
G02X1014800Y275436I1496J-1381D01*
G02Y271364I0J-2036D01*
G02X1013304Y272019I0J2036D01*
G37*
G36*
G01X921344Y273319D02*
G03X920756I-294J-271D01*
G02X919260Y272664I-1496J1381D01*
G02Y276736I0J2036D01*
G02X920756Y276081I0J-2036D01*
G03X921344I294J271D01*
G02X922840Y276736I1496J-1381D01*
G02Y272664I0J-2036D01*
G02X921344Y273319I0J2036D01*
G37*
G36*
G01X724044Y273327D02*
G03X723456I-294J-271D01*
G02X721960Y272672I-1496J1381D01*
G02Y276744I0J2036D01*
G02X723456Y276089I0J-2036D01*
G03X724044I294J271D01*
G02X725540Y276744I1496J-1381D01*
G02Y272672I0J-2036D01*
G02X724044Y273327I0J2036D01*
G37*
G36*
G01X732440Y274053D02*
G03X731853I-293J-271D01*
G02X730393Y273414I-1459J1347D01*
G02Y277386I0J1986D01*
G02X731853Y276747I1J-1986D01*
G03X732440I293J271D01*
G02X733900Y277386I1459J-1347D01*
G02Y273414I0J-1986D01*
G02X732440Y274053I-1J1986D01*
G37*
G36*
G01X1089144Y274419D02*
G03X1088556I-294J-271D01*
G02X1087060Y273764I-1496J1381D01*
G02Y277836I0J2036D01*
G02X1088556Y277181I0J-2036D01*
G03X1089144I294J271D01*
G02X1090640Y277836I1496J-1381D01*
G02Y273764I0J-2036D01*
G02X1089144Y274419I0J2036D01*
G37*
G36*
G01X1000744Y274619D02*
G03X1000156I-294J-271D01*
G02X998660Y273964I-1496J1381D01*
G02Y278036I0J2036D01*
G02X1000156Y277381I0J-2036D01*
G03X1000744I294J271D01*
G02X1002240Y278036I1496J-1381D01*
G02Y273964I0J-2036D01*
G02X1000744Y274619I0J2036D01*
G37*
G36*
G01X1023031Y275453D02*
G03X1022444I-293J-271D01*
G02X1020984Y274814I-1459J1347D01*
G02Y278786I0J1986D01*
G02X1022444Y278147I1J-1986D01*
G03X1023031I293J271D01*
G02X1024491Y278786I1459J-1347D01*
G02Y274814I0J-1986D01*
G02X1023031Y275453I-1J1986D01*
G37*
G36*
G01X645683Y276192D02*
G03X645096I-293J-271D01*
G02X643636Y275553I-1459J1347D01*
G02Y279525I0J1986D01*
G02X645096Y278886I1J-1986D01*
G03X645683I293J271D01*
G02X647143Y279525I1459J-1347D01*
G02Y275553I0J-1986D01*
G02X645683Y276192I-1J1986D01*
G37*
G36*
G01X799644Y276592D02*
G03X799056I-294J-271D01*
G02X797560Y275937I-1496J1381D01*
G02Y280009I0J2036D01*
G02X799056Y279354I0J-2036D01*
G03X799644I294J271D01*
G02X801140Y280009I1496J-1381D01*
G02Y275937I0J-2036D01*
G02X799644Y276592I0J2036D01*
G37*
G36*
G01X1108836Y278190D02*
G03X1109128Y278719I-84J391D01*
G02X1109007Y279400I1865J683D01*
G02X1110993Y281386I1986J0D01*
G02X1112453Y280747I1J-1986D01*
G03X1113040I294J271D01*
G02X1114500Y281386I1459J-1347D01*
G02Y277414I0J-1986D01*
G02X1113040Y278053I-1J1986D01*
G03X1112453I-293J-271D01*
G02X1111446Y277466I-1460J1347D01*
G03X1111164Y276933I91J-389D01*
G02X1111301Y276200I-1899J-734D01*
G02X1109265Y274164I-2036J0D01*
G02X1107769Y274819I0J2036D01*
G03X1107181I-294J-271D01*
G02X1105685Y274164I-1496J1381D01*
G02Y278236I0J2036D01*
G02X1107181Y277581I0J-2036D01*
G03X1107769I294J271D01*
G02X1108836Y278190I1496J-1381D01*
G37*
G36*
G01X711844Y278119D02*
G03X711256I-294J-271D01*
G02X709760Y277464I-1496J1381D01*
G02Y281536I0J2036D01*
G02X711256Y280881I0J-2036D01*
G03X711844I294J271D01*
G02X713340Y281536I1496J-1381D01*
G02Y277464I0J-2036D01*
G02X711844Y278119I0J2036D01*
G37*
G36*
G01X1097844Y279579D02*
G03X1097256I-294J-271D01*
G02X1095760Y278924I-1496J1381D01*
G02Y282996I0J2036D01*
G02X1097256Y282341I0J-2036D01*
G03X1097844I294J271D01*
G02X1099340Y282996I1496J-1381D01*
G02Y278924I0J-2036D01*
G02X1097844Y279579I0J2036D01*
G37*
G36*
G01X914444Y279735D02*
G03X913856I-294J-271D01*
G02X912360Y279080I-1496J1381D01*
G02Y283152I0J2036D01*
G02X913856Y282497I0J-2036D01*
G03X914444I294J271D01*
G02X915940Y283152I1496J-1381D01*
G02Y279080I0J-2036D01*
G02X914444Y279735I0J2036D01*
G37*
G36*
G01X624604Y280319D02*
G03X624016I-294J-271D01*
G02X622520Y279664I-1496J1381D01*
G02Y283736I0J2036D01*
G02X624016Y283081I0J-2036D01*
G03X624604I294J271D01*
G02X626100Y283736I1496J-1381D01*
G02Y279664I0J-2036D01*
G02X624604Y280319I0J2036D01*
G37*
G36*
G01X1007944Y281035D02*
G03X1007356I-294J-271D01*
G02X1005860Y280380I-1496J1381D01*
G02Y284452I0J2036D01*
G02X1007356Y283797I0J-2036D01*
G03X1007944I294J271D01*
G02X1009440Y284452I1496J-1381D01*
G02Y280380I0J-2036D01*
G02X1007944Y281035I0J2036D01*
G37*
G36*
G01X805004Y282019D02*
G03X804416I-294J-271D01*
G02X802920Y281364I-1496J1381D01*
G02Y285436I0J2036D01*
G02X804416Y284781I0J-2036D01*
G03X805004I294J271D01*
G02X806500Y285436I1496J-1381D01*
G02Y281364I0J-2036D01*
G02X805004Y282019I0J2036D01*
G37*
G36*
G01X718044Y283519D02*
G03X717456I-294J-271D01*
G02X715960Y282864I-1496J1381D01*
G02Y286936I0J2036D01*
G02X717456Y286281I0J-2036D01*
G03X718044I294J271D01*
G02X719540Y286936I1496J-1381D01*
G02Y282864I0J-2036D01*
G02X718044Y283519I0J2036D01*
G37*
G36*
G01X169885Y284096D02*
G03X169343Y283998I-219J-334D01*
G02X167700Y283164I-1643J1201D01*
G02Y287236I0J2036D01*
G02X168815Y286904I1J-2036D01*
G03X169357Y287002I219J334D01*
G02X171000Y287836I1643J-1201D01*
G02Y283764I0J-2036D01*
G02X169885Y284096I-1J2036D01*
G37*
G36*
G01X679356Y308764D02*
G03X679009Y309273I-384J111D01*
G02X677164Y311300I191J2027D01*
G02X681236I2036J0D01*
G02X681156Y310736I-2036J1D01*
G03X681503Y310227I384J-111D01*
G02X683348Y308200I-191J-2027D01*
G02X679276I-2036J0D01*
G02X679356Y308764I2036J-1D01*
G37*
G36*
G01X766456D02*
G03X766109Y309273I-384J111D01*
G02X764264Y311300I191J2027D01*
G02X768336I2036J0D01*
G02X768256Y310736I-2036J1D01*
G03X768603Y310227I384J-111D01*
G02X770448Y308200I-191J-2027D01*
G02X766376I-2036J0D01*
G02X766456Y308764I2036J-1D01*
G37*
G36*
G01X854256D02*
G03X853909Y309273I-384J111D01*
G02X852064Y311300I191J2027D01*
G02X856136I2036J0D01*
G02X856056Y310736I-2036J1D01*
G03X856403Y310227I384J-111D01*
G02X858248Y308200I-191J-2027D01*
G02X854176I-2036J0D01*
G02X854256Y308764I2036J-1D01*
G37*
G36*
G01X969256D02*
G03X968909Y309273I-384J111D01*
G02X967064Y311300I191J2027D01*
G02X971136I2036J0D01*
G02X971056Y310736I-2036J1D01*
G03X971403Y310227I384J-111D01*
G02X973248Y308200I-191J-2027D01*
G02X969176I-2036J0D01*
G02X969256Y308764I2036J-1D01*
G37*
G36*
G01X1057056D02*
G03X1056709Y309273I-384J111D01*
G02X1054864Y311300I191J2027D01*
G02X1058936I2036J0D01*
G02X1058856Y310736I-2036J1D01*
G03X1059203Y310227I384J-111D01*
G02X1061048Y308200I-191J-2027D01*
G02X1056976I-2036J0D01*
G02X1057056Y308764I2036J-1D01*
G37*
G36*
G01X436875Y310146D02*
G03X436911Y310410I-130J152D01*
G02X436564Y311547I1689J1137D01*
G02X440636I2036J0D01*
G02X439925Y310001I-2036J0D01*
G03X439889Y309737I130J-152D01*
G02X440236Y308600I-1689J-1137D01*
G02X439865Y307428I-2037J0D01*
G03X439895Y307163I163J-116D01*
G02X440578Y305642I-1352J-1521D01*
G02X436506I-2036J0D01*
G02X436877Y306814I2037J0D01*
G03X436847Y307079I-163J116D01*
G02X436164Y308600I1352J1521D01*
G02X436875Y310146I2036J0D01*
G37*
G36*
G01X639282Y312055D02*
G03X638748Y312043I-260J-304D01*
G02X637352Y311489I-1396J1482D01*
G02Y315561I0J2036D01*
G02X638678Y315070I0J-2036D01*
G03X639212Y315082I260J304D01*
G02X640608Y315636I1396J-1482D01*
G02Y311564I0J-2036D01*
G02X639282Y312055I0J2036D01*
G37*
G36*
G01X726382D02*
G03X725848Y312043I-260J-304D01*
G02X724452Y311489I-1396J1482D01*
G02Y315561I0J2036D01*
G02X725778Y315070I0J-2036D01*
G03X726312Y315082I260J304D01*
G02X727708Y315636I1396J-1482D01*
G02Y311564I0J-2036D01*
G02X726382Y312055I0J2036D01*
G37*
G36*
G01X814182D02*
G03X813648Y312043I-260J-304D01*
G02X812252Y311489I-1396J1482D01*
G02Y315561I0J2036D01*
G02X813578Y315070I0J-2036D01*
G03X814112Y315082I260J304D01*
G02X815508Y315636I1396J-1482D01*
G02Y311564I0J-2036D01*
G02X814182Y312055I0J2036D01*
G37*
G36*
G01X929182D02*
G03X928648Y312043I-260J-304D01*
G02X927252Y311489I-1396J1482D01*
G02Y315561I0J2036D01*
G02X928578Y315070I0J-2036D01*
G03X929112Y315082I260J304D01*
G02X930508Y315636I1396J-1482D01*
G02Y311564I0J-2036D01*
G02X929182Y312055I0J2036D01*
G37*
G36*
G01X1016982D02*
G03X1016448Y312043I-260J-304D01*
G02X1015052Y311489I-1396J1482D01*
G02Y315561I0J2036D01*
G02X1016378Y315070I0J-2036D01*
G03X1016912Y315082I260J304D01*
G02X1018308Y315636I1396J-1482D01*
G02Y311564I0J-2036D01*
G02X1016982Y312055I0J2036D01*
G37*
G36*
G01X514544Y314219D02*
G03X513956I-294J-271D01*
G02X512460Y313564I-1496J1381D01*
G02Y317636I0J2036D01*
G02X513956Y316981I0J-2036D01*
G03X514544I294J271D01*
G02X516040Y317636I1496J-1381D01*
G02Y313564I0J-2036D01*
G02X514544Y314219I0J2036D01*
G37*
G36*
G01X645573Y316330D02*
G03X644958I-307J-256D01*
G02X643431Y315614I-1527J1270D01*
G02Y319586I0J1986D01*
G02X644958Y318870I0J-1986D01*
G03X645573I307J256D01*
G02X647100Y319586I1527J-1270D01*
G02Y315614I0J-1986D01*
G02X645573Y316330I0J1986D01*
G37*
G36*
G01X732673D02*
G03X732058I-307J-256D01*
G02X730531Y315614I-1527J1270D01*
G02Y319586I0J1986D01*
G02X732058Y318870I0J-1986D01*
G03X732673I307J256D01*
G02X734200Y319586I1527J-1270D01*
G02Y315614I0J-1986D01*
G02X732673Y316330I0J1986D01*
G37*
G36*
G01X820473D02*
G03X819858I-307J-256D01*
G02X818331Y315614I-1527J1270D01*
G02Y319586I0J1986D01*
G02X819858Y318870I0J-1986D01*
G03X820473I308J256D01*
G02X822000Y319586I1527J-1270D01*
G02Y315614I0J-1986D01*
G02X820473Y316330I0J1986D01*
G37*
G36*
G01X935473D02*
G03X934858I-307J-256D01*
G02X933331Y315614I-1527J1270D01*
G02Y319586I0J1986D01*
G02X934858Y318870I0J-1986D01*
G03X935473I308J256D01*
G02X937000Y319586I1527J-1270D01*
G02Y315614I0J-1986D01*
G02X935473Y316330I0J1986D01*
G37*
G36*
G01X1023273D02*
G03X1022658I-307J-256D01*
G02X1021131Y315614I-1527J1270D01*
G02Y319586I0J1986D01*
G02X1022658Y318870I0J-1986D01*
G03X1023273I308J256D01*
G02X1024800Y319586I1527J-1270D01*
G02Y315614I0J-1986D01*
G02X1023273Y316330I0J1986D01*
G37*
G36*
G01X437321Y318993D02*
G03X437345Y319575I-262J302D01*
G02X436764Y321000I1455J1424D01*
G02X440836I2036J0D01*
G02X440132Y319460I-2036J0D01*
G03X440108Y318878I262J-302D01*
G02X440689Y317453I-1455J-1424D01*
G02X436617I-2036J0D01*
G02X437321Y318993I2036J0D01*
G37*
G36*
G01X627083Y326142D02*
G03X626559Y326206I-298J-266D01*
G02X625412Y325852I-1147J1681D01*
G02Y329924I0J2036D01*
G02X626929Y329246I0J-2036D01*
G03X627453Y329182I298J266D01*
G02X628600Y329536I1147J-1681D01*
G02Y325464I0J-2036D01*
G02X627083Y326142I0J2036D01*
G37*
G36*
G01X714183D02*
G03X713659Y326206I-298J-266D01*
G02X712512Y325852I-1147J1681D01*
G02Y329924I0J2036D01*
G02X714029Y329246I0J-2036D01*
G03X714553Y329182I298J266D01*
G02X715700Y329536I1147J-1681D01*
G02Y325464I0J-2036D01*
G02X714183Y326142I0J2036D01*
G37*
G36*
G01X801983D02*
G03X801459Y326206I-298J-266D01*
G02X800312Y325852I-1147J1681D01*
G02Y329924I0J2036D01*
G02X801829Y329246I0J-2036D01*
G03X802353Y329182I298J266D01*
G02X803500Y329536I1147J-1681D01*
G02Y325464I0J-2036D01*
G02X801983Y326142I0J2036D01*
G37*
G36*
G01X916983D02*
G03X916459Y326206I-298J-266D01*
G02X915312Y325852I-1147J1681D01*
G02Y329924I0J2036D01*
G02X916829Y329246I0J-2036D01*
G03X917353Y329182I298J266D01*
G02X918500Y329536I1147J-1681D01*
G02Y325464I0J-2036D01*
G02X916983Y326142I0J2036D01*
G37*
G36*
G01X1004783D02*
G03X1004259Y326206I-298J-266D01*
G02X1003112Y325852I-1147J1681D01*
G02Y329924I0J2036D01*
G02X1004629Y329246I0J-2036D01*
G03X1005153Y329182I298J266D01*
G02X1006300Y329536I1147J-1681D01*
G02Y325464I0J-2036D01*
G02X1004783Y326142I0J2036D01*
G37*
G36*
G01X466415Y326397D02*
G02X466736Y325300I-1714J-1097D01*
G02X462664I-2036J0D01*
G02X463585Y327003I2035J0D01*
G02X463264Y328100I1714J1097D01*
G02X467336I2036J0D01*
G02X466415Y326397I-2035J0D01*
G37*
G36*
G01X689179Y336523D02*
G03X688565I-307J-256D01*
G02X687000Y335790I-1565J1304D01*
G02Y339862I0J2036D01*
G02X688565Y339129I0J-2037D01*
G03X689179I307J256D01*
G02X690744Y339862I1565J-1304D01*
G02Y335790I0J-2036D01*
G02X689179Y336523I0J2037D01*
G37*
G36*
G01X776279D02*
G03X775665I-307J-256D01*
G02X774100Y335790I-1565J1304D01*
G02Y339862I0J2036D01*
G02X775665Y339129I0J-2037D01*
G03X776279I307J256D01*
G02X777844Y339862I1565J-1304D01*
G02Y335790I0J-2036D01*
G02X776279Y336523I0J2037D01*
G37*
G36*
G01X864079D02*
G03X863465I-307J-256D01*
G02X861900Y335790I-1565J1304D01*
G02Y339862I0J2036D01*
G02X863465Y339129I0J-2037D01*
G03X864079I307J256D01*
G02X865644Y339862I1565J-1304D01*
G02Y335790I0J-2036D01*
G02X864079Y336523I0J2037D01*
G37*
G36*
G01X979079D02*
G03X978465I-307J-256D01*
G02X976900Y335790I-1565J1304D01*
G02Y339862I0J2036D01*
G02X978465Y339129I0J-2037D01*
G03X979079I307J256D01*
G02X980644Y339862I1565J-1304D01*
G02Y335790I0J-2036D01*
G02X979079Y336523I0J2037D01*
G37*
G36*
G01X1066879D02*
G03X1066265I-307J-256D01*
G02X1064700Y335790I-1565J1304D01*
G02Y339862I0J2036D01*
G02X1066265Y339129I0J-2037D01*
G03X1066879I307J256D01*
G02X1068444Y339862I1565J-1304D01*
G02Y335790I0J-2036D01*
G02X1066879Y336523I0J2037D01*
G37*
G36*
G01X178634Y343439D02*
G03X178120Y343538I-314J-247D01*
G02X177100Y343264I-1020J1762D01*
G02Y347336I0J2036D01*
G02X178699Y346561I0J-2037D01*
G03X179213Y346462I314J247D01*
G02X180233Y346736I1020J-1762D01*
G02Y342664I0J-2036D01*
G02X178634Y343439I0J2037D01*
G37*
G36*
G01X169625Y344037D02*
G03X169078Y343955I-231J-327D01*
G02X167467Y343164I-1611J1245D01*
G02Y347236I0J2036D01*
G02X168642Y346863I0J-2037D01*
G03X169189Y346945I231J327D01*
G02X170800Y347736I1611J-1245D01*
G02Y343664I0J-2036D01*
G02X169625Y344037I0J2037D01*
G37*
G36*
G01X411866Y351490D02*
G02X410500Y350964I-1366J1511D01*
G02X408464Y353000I0J2036D01*
G02X408976Y354350I2036J0D01*
G02X408464Y355700I1524J1350D01*
G02X410500Y357736I2036J0D01*
G02X411866Y357210I0J-2037D01*
G03X412134I134J148D01*
G02X413500Y357736I1366J-1511D01*
G02X415536Y355700I0J-2036D01*
G02X415024Y354350I-2036J0D01*
G02X415536Y353000I-1524J-1350D01*
G02X413500Y350964I-2036J0D01*
G02X412134Y351490I0J2037D01*
G03X411866I-134J-148D01*
G37*
G36*
G01X671708Y358933D02*
G03X671593Y359491I-332J222D01*
G02X670664Y361200I1107J1709D01*
G02X674736I2036J0D01*
G02X674392Y360067I-2036J-1D01*
G03X674507Y359509I332J-222D01*
G02X675436Y357800I-1107J-1709D01*
G02X671364I-2036J0D01*
G02X671708Y358933I2036J1D01*
G37*
G36*
G01X758808D02*
G03X758693Y359491I-332J222D01*
G02X757764Y361200I1107J1709D01*
G02X761836I2036J0D01*
G02X761492Y360067I-2036J-1D01*
G03X761607Y359509I332J-222D01*
G02X762536Y357800I-1107J-1709D01*
G02X758464I-2036J0D01*
G02X758808Y358933I2036J1D01*
G37*
G36*
G01X846608D02*
G03X846493Y359491I-332J222D01*
G02X845564Y361200I1107J1709D01*
G02X849636I2036J0D01*
G02X849292Y360067I-2036J-1D01*
G03X849407Y359509I332J-222D01*
G02X850336Y357800I-1107J-1709D01*
G02X846264I-2036J0D01*
G02X846608Y358933I2036J1D01*
G37*
G36*
G01X961608D02*
G03X961493Y359491I-332J222D01*
G02X960564Y361200I1107J1709D01*
G02X964636I2036J0D01*
G02X964292Y360067I-2036J-1D01*
G03X964407Y359509I332J-222D01*
G02X965336Y357800I-1107J-1709D01*
G02X961264I-2036J0D01*
G02X961608Y358933I2036J1D01*
G37*
G36*
G01X1049408D02*
G03X1049293Y359491I-332J222D01*
G02X1048364Y361200I1107J1709D01*
G02X1052436I2036J0D01*
G02X1052092Y360067I-2036J-1D01*
G03X1052207Y359509I332J-222D01*
G02X1053136Y357800I-1107J-1709D01*
G02X1049064I-2036J0D01*
G02X1049408Y358933I2036J1D01*
G37*
G36*
G01X533018Y366118D02*
G03X532410Y366135I-311J-251D01*
G02X530900Y365464I-1511J1365D01*
G02Y369536I0J2036D01*
G02X532482Y368782I0J-2037D01*
G03X533090Y368765I311J251D01*
G02X534600Y369436I1511J-1365D01*
G02Y365364I0J-2036D01*
G02X533018Y366118I0J2037D01*
G37*
G36*
G01X463862Y370619D02*
G03X463274I-294J-271D01*
G02X461778Y369964I-1496J1381D01*
G02Y374036I0J2036D01*
G02X463274Y373381I0J-2036D01*
G03X463862I294J271D01*
G02X465358Y374036I1496J-1381D01*
G02Y369964I0J-2036D01*
G02X463862Y370619I0J2036D01*
G37*
G36*
G01X683279Y376297D02*
G03X682665I-307J-256D01*
G02X681100Y375564I-1565J1304D01*
G02Y379636I0J2036D01*
G02X682665Y378903I0J-2037D01*
G03X683279I307J256D01*
G02X684844Y379636I1565J-1304D01*
G02Y375564I0J-2036D01*
G02X683279Y376297I0J2037D01*
G37*
G36*
G01X770379D02*
G03X769765I-307J-256D01*
G02X768200Y375564I-1565J1304D01*
G02Y379636I0J2036D01*
G02X769765Y378903I0J-2037D01*
G03X770379I307J256D01*
G02X771944Y379636I1565J-1304D01*
G02Y375564I0J-2036D01*
G02X770379Y376297I0J2037D01*
G37*
G36*
G01X858179D02*
G03X857565I-307J-256D01*
G02X856000Y375564I-1565J1304D01*
G02Y379636I0J2036D01*
G02X857565Y378903I0J-2037D01*
G03X858179I307J256D01*
G02X859744Y379636I1565J-1304D01*
G02Y375564I0J-2036D01*
G02X858179Y376297I0J2037D01*
G37*
G36*
G01X973179D02*
G03X972565I-307J-256D01*
G02X971000Y375564I-1565J1304D01*
G02Y379636I0J2036D01*
G02X972565Y378903I0J-2037D01*
G03X973179I307J256D01*
G02X974744Y379636I1565J-1304D01*
G02Y375564I0J-2036D01*
G02X973179Y376297I0J2037D01*
G37*
G36*
G01X1060979D02*
G03X1060365I-307J-256D01*
G02X1058800Y375564I-1565J1304D01*
G02Y379636I0J2036D01*
G02X1060365Y378903I0J-2037D01*
G03X1060979I307J256D01*
G02X1062544Y379636I1565J-1304D01*
G02Y375564I0J-2036D01*
G02X1060979Y376297I0J2037D01*
G37*
G36*
G01X624024Y391410D02*
G02X625994Y392930I1970J-517D01*
G02Y388858I0J-2036D01*
G02X625670Y388884I0J2036D01*
G02X623700Y387364I-1970J517D01*
G02Y391436I0J2036D01*
G02X624024Y391410I0J-2036D01*
G37*
G36*
G01X800829Y388859D02*
G03X800624Y388681I-6J-200D01*
G02X798600Y386864I-2024J219D01*
G02Y390936I0J2036D01*
G02X798665Y390935I1J-2036D01*
G03X798870Y391113I6J200D01*
G02X800894Y392930I2024J-219D01*
G02Y388858I0J-2036D01*
G02X800829Y388859I-1J2036D01*
G37*
G36*
G01X913485Y390633D02*
G03X913861Y391009I-23J399D01*
G02X915894Y392930I2033J-115D01*
G02X917930Y390894I0J-2036D01*
G02X916009Y388861I-2036J0D01*
G03X915633Y388485I23J-399D01*
G02X913600Y386564I-2033J115D01*
G02X911564Y388600I0J2036D01*
G02X913485Y390633I2036J0D01*
G37*
G36*
G01X1002063Y389676D02*
G03X1001505Y389759I-321J-239D01*
G02X1000300Y389364I-1205J1641D01*
G02Y393436I0J2036D01*
G02X1001931Y392618I0J-2035D01*
G03X1002489Y392535I321J239D01*
G02X1003694Y392930I1205J-1641D01*
G02Y388858I0J-2036D01*
G02X1002063Y389676I0J2035D01*
G37*
G36*
G01X865197Y391845D02*
G03X865820Y392076I234J324D01*
G02X867800Y393636I1980J-477D01*
G02Y389564I0J-2036D01*
G02X866609Y389949I0J2035D01*
G03X865986Y389718I-234J-324D01*
G02X864006Y388158I-1980J477D01*
G02Y392230I0J2036D01*
G02X865197Y391845I0J-2035D01*
G37*
G36*
G01X333244Y410219D02*
G03X332656I-294J-271D01*
G02X331160Y409564I-1496J1381D01*
G02Y413636I0J2036D01*
G02X332656Y412981I0J-2036D01*
G03X333244I294J271D01*
G02X334740Y413636I1496J-1381D01*
G02Y409564I0J-2036D01*
G02X333244Y410219I0J2036D01*
G37*
G36*
G01X253394Y420019D02*
G03X252806I-294J-271D01*
G02X251310Y419364I-1496J1381D01*
G02Y423436I0J2036D01*
G02X252806Y422781I0J-2036D01*
G03X253394I294J271D01*
G02X254890Y423436I1496J-1381D01*
G02Y419364I0J-2036D01*
G02X253394Y420019I0J2036D01*
G37*
G36*
G01X317844Y424219D02*
G03X317256I-294J-271D01*
G02X315760Y423564I-1496J1381D01*
G02Y427636I0J2036D01*
G02X317256Y426981I0J-2036D01*
G03X317844I294J271D01*
G02X319340Y427636I1496J-1381D01*
G02Y423564I0J-2036D01*
G02X317844Y424219I0J2036D01*
G37*
G36*
G01X58520Y430579D02*
G03X57879I-321J-240D01*
G02X56250Y429764I-1629J1221D01*
G02Y433836I0J2036D01*
G02X57879Y433021I0J-2036D01*
G03X58520I321J240D01*
G02X60149Y433836I1629J-1221D01*
G02Y429764I0J-2036D01*
G02X58520Y430579I0J2036D01*
G37*
G36*
G01X470338Y438371D02*
G03X470172Y438591I-199J23D01*
G02X468464Y440600I328J2009D01*
G02X472536I2036J0D01*
G02X472523Y440368I-2036J-2D01*
G03X472689Y440148I199J-23D01*
G02X474397Y438139I-328J-2009D01*
G02X472488Y436107I-2036J0D01*
G03X472113Y435687I25J-399D01*
G02X472116Y435580I-2033J-111D01*
G02X468044I-2036J0D01*
G02X469953Y437612I2036J0D01*
G03X470328Y438032I-25J399D01*
G02X470325Y438139I2033J111D01*
G02X470338Y438371I2036J2D01*
G37*
G36*
G01X137294Y442319D02*
G03X136706I-294J-271D01*
G02X135210Y441664I-1496J1381D01*
G02Y445736I0J2036D01*
G02X136706Y445081I0J-2036D01*
G03X137294I294J271D01*
G02X138790Y445736I1496J-1381D01*
G02Y441664I0J-2036D01*
G02X137294Y442319I0J2036D01*
G37*
G36*
G01X150173Y461244D02*
G03X149568I-303J-261D01*
G02X148026Y460538I-1542J1331D01*
G02Y464610I0J2036D01*
G02X149568Y463904I0J-2037D01*
G03X150173I302J261D01*
G02X151715Y464610I1542J-1331D01*
G02Y460538I0J-2036D01*
G02X150173Y461244I0J2037D01*
G37*
G36*
G01X455898Y500130D02*
G03X455293I-303J-261D01*
G02X453751Y499424I-1542J1331D01*
G02Y503496I0J2036D01*
G02X455293Y502790I0J-2037D01*
G03X455898I302J261D01*
G02X457440Y503496I1542J-1331D01*
G02Y499424I0J-2036D01*
G02X455898Y500130I0J2037D01*
G37*
G36*
G01X463862Y502519D02*
G03X463274I-294J-271D01*
G02X461778Y501864I-1496J1381D01*
G02Y505936I0J2036D01*
G02X463274Y505281I0J-2036D01*
G03X463862I294J271D01*
G02X465358Y505936I1496J-1381D01*
G02Y501864I0J-2036D01*
G02X463862Y502519I0J2036D01*
G37*
G36*
G01X839814Y26830D02*
G02X839300Y26764I-514J1970D01*
G02X841336Y28800I0J2036D01*
G02X841210Y28096I-2036J1D01*
G03X841686Y27570I375J-139D01*
G02X842200Y27636I514J-1970D01*
G02X840164Y25600I0J-2036D01*
G02X840290Y26304I2036J-1D01*
G03X839814Y26830I-375J139D01*
G37*
G36*
G01X787087Y34448D02*
G02X786943Y35200I1892J752D01*
G02X788979Y33164I2036J0D01*
G02X788632Y33194I1J2036D01*
G03X788192Y32652I-68J-394D01*
G02X788336Y31900I-1892J-752D01*
G02X786300Y33936I-2036J0D01*
G02X786647Y33906I-1J-2036D01*
G03X787087Y34448I68J394D01*
G37*
G36*
G01X639630Y43225D02*
G03X640168Y43247I257J307D01*
G02X641600Y43836I1432J-1446D01*
G02X643636Y41800I0J-2036D01*
G02X643153Y40483I-2037J0D01*
G03X643419Y39826I305J-259D01*
G02X644716Y39181I-199J-2026D01*
G03X645304I294J271D01*
G02X646800Y39836I1496J-1381D01*
G02Y35764I0J-2036D01*
G02X645304Y36419I0J2036D01*
G03X644716I-294J-271D01*
G02X643220Y35764I-1496J1381D01*
G02X641184Y37800I0J2036D01*
G02X641667Y39117I2037J0D01*
G03X641401Y39774I-305J259D01*
G02X640295Y40237I198J2026D01*
G03X639757Y40215I-257J-307D01*
G02X638513Y39635I-1432J1447D01*
G03X638332Y39423I19J-199D01*
G02X638336Y39300I-2032J-128D01*
G02X638334Y39214I-2036J4D01*
G03X638663Y38803I400J-17D01*
G02X640336Y36800I-363J-2003D01*
G02X636264I-2036J0D01*
G02X636266Y36886I2036J-4D01*
G03X635937Y37297I-400J17D01*
G02X634264Y39300I363J2003D01*
G02X636112Y41327I2036J0D01*
G03X636293Y41539I-19J199D01*
G02X636289Y41662I2032J128D01*
G02X638325Y43698I2036J0D01*
G02X639630Y43225I0J-2037D01*
G37*
G36*
G01X821773Y64511D02*
G02X821764Y64700I2027J191D01*
G02X823800Y66736I2036J0D01*
G02X825575Y65698I0J-2037D01*
G03X826281Y65714I349J196D01*
G02X828100Y66836I1819J-913D01*
G02X830128Y64984I0J-2036D01*
G03X830571Y64623I398J36D01*
G02X830800Y64636I230J-2023D01*
G02Y60564I0J-2036D01*
G02X828772Y62416I0J2036D01*
G03X828329Y62777I-398J-36D01*
G02X828100Y62764I-230J2023D01*
G02X826325Y63802I0J2037D01*
G03X825619Y63786I-349J-196D01*
G02X823800Y62664I-1819J913D01*
G02X823069Y62800I1J2036D01*
G03X822527Y62389I-144J-373D01*
G02X822536Y62200I-2027J-191D01*
G02X822528Y62024I-2036J4D01*
G03X823005Y61597I399J-35D01*
G02X823400Y61636I397J-1997D01*
G02X821364Y59600I0J-2036D01*
G02X821372Y59776I2036J-4D01*
G03X820895Y60203I-399J35D01*
G02X820500Y60164I-397J1997D01*
G02Y64236I0J2036D01*
G02X821231Y64100I-1J-2036D01*
G03X821773Y64511I144J373D01*
G37*
G36*
G01X724487Y65596D02*
G02X724464Y65900I2013J305D01*
G02X726500Y63864I2036J0D01*
G02X725922Y63948I1J2036D01*
G03X725413Y63504I-113J-384D01*
G02X725436Y63200I-2013J-305D01*
G02X723400Y65236I-2036J0D01*
G02X723978Y65152I-1J-2036D01*
G03X724487Y65596I113J384D01*
G37*
G36*
G01X837596Y72443D02*
G02X837564Y72800I2004J360D01*
G02X839600Y70764I2036J0D01*
G02X838679Y70984I0J2036D01*
G03X838104Y70557I-181J-357D01*
G02X838136Y70200I-2004J-360D01*
G02X836100Y68164I-2036J0D01*
G02X835789Y68188I1J2036D01*
G03X835330Y67761I-60J-395D01*
G02X835336Y67600I-2030J-156D01*
G02X833300Y69636I-2036J0D01*
G02X833611Y69612I-1J-2036D01*
G03X834070Y70039I60J395D01*
G02X834064Y70200I2030J156D01*
G02X836100Y72236I2036J0D01*
G02X837021Y72016I0J-2036D01*
G03X837596Y72443I181J357D01*
G37*
G36*
G01X443696Y74321D02*
G02X443441Y74305I-255J2020D01*
G02X445477Y76341I0J2036D01*
G02X445325Y75569I-2036J0D01*
G03X445745Y75020I370J-152D01*
G02X446000Y75036I255J-2020D01*
G02X443964Y73000I0J-2036D01*
G02X444116Y73772I2036J0D01*
G03X443696Y74321I-370J152D01*
G37*
G36*
G01X646716Y94481D02*
G03X647304I294J271D01*
G02X648800Y95136I1496J-1381D01*
G02X650836Y93100I0J-2036D01*
G02X650631Y92211I-2036J1D01*
G03X650993Y91636I360J-175D01*
G01X651000D01*
G02X648964Y89600I0J-2036D01*
G02X649169Y90489I2036J-1D01*
G03X648807Y91064I-360J175D01*
G01X648800D01*
G02X647304Y91719I0J2036D01*
G03X646716I-294J-271D01*
G02X645220Y91064I-1496J1381D01*
G02Y95136I0J2036D01*
G02X646716Y94481I0J-2036D01*
G37*
G36*
G01X419627Y95189D02*
G02X419562Y95698I1971J510D01*
G02X421598Y93662I2036J0D01*
G02X421430Y93669I1J2036D01*
G03X421010Y93170I-33J-399D01*
G02X421075Y92661I-1971J-510D01*
G02X419039Y90625I-2036J0D01*
G02X418926Y90628I-2J2036D01*
G03X418505Y90188I-23J-399D01*
G02X418516Y89980I-2025J-211D01*
G02X416480Y87944I-2036J0D01*
G02X416270Y87955I1J2036D01*
G03X415850Y87429I-41J-398D01*
G02X415956Y86780I-1930J-648D01*
G02X413920Y84744I-2036J0D01*
G02X413705Y84755I-4J2036D01*
G03X413285Y84227I-42J-398D01*
G02X413397Y83561I-1924J-666D01*
G02X411361Y85597I-2036J0D01*
G02X411576Y85586I4J-2036D01*
G03X411996Y86114I42J398D01*
G02X411884Y86780I1924J666D01*
G02X413920Y88816I2036J0D01*
G02X414130Y88805I-1J-2036D01*
G03X414550Y89331I41J398D01*
G02X414444Y89980I1930J648D01*
G02X416480Y92016I2036J0D01*
G02X416593Y92013I2J-2036D01*
G03X417014Y92453I23J399D01*
G02X417003Y92661I2025J211D01*
G02X419039Y94697I2036J0D01*
G02X419207Y94690I-1J-2036D01*
G03X419627Y95189I33J399D01*
G37*
G36*
G01X139159Y117869D02*
G02X137300Y116664I-1859J831D01*
G02Y120736I0J2036D01*
G02X139119Y119615I0J-2036D01*
G03X139841Y119631I357J180D01*
G02X141700Y120836I1859J-831D01*
G02Y116764I0J-2036D01*
G02X139881Y117885I0J2036D01*
G03X139159Y117869I-357J-180D01*
G37*
G36*
G01X153159D02*
G02X151300Y116664I-1859J831D01*
G02Y120736I0J2036D01*
G02X153119Y119615I0J-2036D01*
G03X153841Y119631I357J180D01*
G02X155700Y120836I1859J-831D01*
G02Y116764I0J-2036D01*
G02X153881Y117885I0J2036D01*
G03X153159Y117869I-357J-180D01*
G37*
G36*
G01X139297Y123043D02*
G02X137500Y121964I-1797J957D01*
G02Y126036I0J2036D01*
G02X139297Y124957I0J-2036D01*
G03X140003I353J188D01*
G02X141800Y126036I1797J-957D01*
G02Y121964I0J-2036D01*
G02X140003Y123043I0J2036D01*
G03X139297I-353J-188D01*
G37*
G36*
G01X153297D02*
G02X151500Y121964I-1797J957D01*
G02Y126036I0J2036D01*
G02X153297Y124957I0J-2036D01*
G03X154003I353J188D01*
G02X155800Y126036I1797J-957D01*
G02Y121964I0J-2036D01*
G02X154003Y123043I0J2036D01*
G03X153297I-353J-188D01*
G37*
G36*
G01X461904Y150959D02*
G02X461764Y151700I1896J742D01*
G02X463800Y149664I2036J0D01*
G02X463523Y149683I0J2036D01*
G03X463096Y149141I-54J-396D01*
G02X463236Y148400I-1896J-742D01*
G02X461200Y150436I-2036J0D01*
G02X461477Y150417I0J-2036D01*
G03X461904Y150959I54J396D01*
G37*
G36*
G01X40100Y158787D02*
G02X39164Y160500I1100J1713D01*
G02X43236I2036J0D01*
G02X42300Y158787I-2036J0D01*
G03Y158113I216J-337D01*
G02X43236Y156400I-1100J-1713D01*
G02X42232Y154645I-2036J0D01*
G03Y153955I202J-345D01*
G02X43236Y152200I-1032J-1755D01*
G02X39164I-2036J0D01*
G02X40168Y153955I2036J0D01*
G03Y154645I-202J345D01*
G02X39164Y156400I1032J1755D01*
G02X40100Y158113I2036J0D01*
G03Y158787I-216J337D01*
G37*
G36*
G01X411743Y159639D02*
G02X411361Y159603I-381J2000D01*
G02X413397Y161639I0J2036D01*
G02X413101Y160582I-2035J0D01*
G03X413518Y159982I342J-207D01*
G02X413900Y160018I381J-2000D01*
G02X411864Y157982I0J-2036D01*
G02X412160Y159039I2035J0D01*
G03X411743Y159639I-342J207D01*
G37*
G36*
G01X882316Y184443D02*
G02X882264Y184900I1984J457D01*
G02X884300Y182864I2036J0D01*
G02X883526Y183017I0J2036D01*
G03X882984Y182557I-152J-370D01*
G02X883036Y182100I-1984J-457D01*
G02X881000Y184136I-2036J0D01*
G02X881774Y183983I0J-2036D01*
G03X882316Y184443I152J370D01*
G37*
G36*
G01X213997Y190943D02*
G02X212200Y189864I-1797J957D01*
G02Y193936I0J2036D01*
G02X213997Y192857I0J-2036D01*
G03X214703I353J188D01*
G02X216500Y193936I1797J-957D01*
G02Y189864I0J-2036D01*
G02X214703Y190943I0J2036D01*
G03X213997I-353J-188D01*
G37*
G36*
G01X240913Y190800D02*
G02X239200Y189864I-1713J1100D01*
G02Y193936I0J2036D01*
G02X240913Y193000I0J-2036D01*
G03X241587I337J216D01*
G02X243300Y193936I1713J-1100D01*
G02Y189864I0J-2036D01*
G02X241587Y190800I0J2036D01*
G03X240913I-337J-216D01*
G37*
G36*
G01X105100Y191787D02*
G02X104164Y193500I1100J1713D01*
G02X108236I2036J0D01*
G02X107300Y191787I-2036J0D01*
G03Y191113I216J-337D01*
G02X108236Y189400I-1100J-1713D01*
G02X107362Y187728I-2036J0D01*
G03Y187072I229J-328D01*
G02Y183728I-1162J-1672D01*
G03Y183072I229J-328D01*
G02X108236Y181400I-1162J-1672D01*
G02X107232Y179645I-2036J0D01*
G03Y178955I202J-345D01*
G02X108236Y177200I-1032J-1755D01*
G02X107157Y175403I-2036J0D01*
G03Y174697I188J-353D01*
G02Y171103I-957J-1797D01*
G03Y170397I188J-353D01*
G02X108236Y168600I-957J-1797D01*
G02X107232Y166845I-2036J0D01*
G03Y166155I202J-345D01*
G02X108236Y164400I-1032J-1755D01*
G02X104164I-2036J0D01*
G02X105168Y166155I2036J0D01*
G03Y166845I-202J345D01*
G02X104164Y168600I1032J1755D01*
G02X105243Y170397I2036J0D01*
G03Y171103I-188J353D01*
G02Y174697I957J1797D01*
G03Y175403I-188J353D01*
G02X104164Y177200I957J1797D01*
G02X105168Y178955I2036J0D01*
G03Y179645I-202J345D01*
G02X104164Y181400I1032J1755D01*
G02X105038Y183072I2036J0D01*
G03Y183728I-229J328D01*
G02Y187072I1162J1672D01*
G03Y187728I-229J328D01*
G02X104164Y189400I1162J1672D01*
G02X105100Y191113I2036J0D01*
G03Y191787I-216J337D01*
G37*
G36*
G01X145859Y194169D02*
G02X144000Y192964I-1859J831D01*
G02Y197036I0J2036D01*
G02X145819Y195915I0J-2036D01*
G03X146541Y195931I357J180D01*
G02X148400Y197136I1859J-831D01*
G02Y193064I0J-2036D01*
G02X146581Y194185I0J2036D01*
G03X145859Y194169I-357J-180D01*
G37*
G36*
G01X214725Y198298D02*
G02X216500Y199336I1775J-999D01*
G02X218319Y198215I0J-2036D01*
G03X219041Y198231I357J180D01*
G02X220900Y199436I1859J-831D01*
G02Y195364I0J-2036D01*
G02X219081Y196485I0J2036D01*
G03X218359Y196469I-357J-180D01*
G02X216500Y195264I-1859J831D01*
G02X214681Y196386I0J2035D01*
G03X213975Y196402I-357J-180D01*
G02X212200Y195364I-1775J999D01*
G02Y199436I0J2036D01*
G02X214019Y198314I0J-2035D01*
G03X214725Y198298I357J180D01*
G37*
G36*
G01X145997Y199343D02*
G02X144200Y198264I-1797J957D01*
G02Y202336I0J2036D01*
G02X145997Y201257I0J-2036D01*
G03X146703I353J188D01*
G02X148500Y202336I1797J-957D01*
G02Y198264I0J-2036D01*
G02X146703Y199343I0J2036D01*
G03X145997I-353J-188D01*
G37*
G36*
G01X695278Y211960D02*
G02X695264Y212200I2022J238D01*
G02X699336I2036J0D01*
G02X697583Y210184I-2036J0D01*
G03X697242Y209740I56J-396D01*
G02X697256Y209500I-2022J-238D01*
G02X695220Y207464I-2036J0D01*
G02X694313Y207677I0J2036D01*
G03X693735Y207332I-178J-358D01*
G02X691700Y205364I-2035J68D01*
G02Y209436I0J2036D01*
G02X692607Y209223I0J-2036D01*
G03X693185Y209568I178J358D01*
G02X694937Y211516I2035J-68D01*
G03X695278Y211960I-56J396D01*
G37*
G36*
G01X178992Y214914D02*
G02X177500Y214264I-1492J1387D01*
G02Y218336I0J2036D01*
G02X179435Y216933I0J-2036D01*
G03X180108Y216786I380J125D01*
G02X181600Y217436I1492J-1387D01*
G02Y213364I0J-2036D01*
G02X179665Y214767I0J2036D01*
G03X178992Y214914I-380J-125D01*
G37*
G36*
G01X773146Y215239D02*
G02X772600Y215164I-547J1961D01*
G02X774636Y217200I0J2036D01*
G02X774561Y216654I-2036J1D01*
G03X775054Y216161I386J-107D01*
G02X775600Y216236I547J-1961D01*
G02X773564Y214200I0J-2036D01*
G02X773639Y214746I2036J-1D01*
G03X773146Y215239I-386J107D01*
G37*
G36*
G01X487768Y229468D02*
G02X485941Y228262I-1827J781D01*
G02Y232234I0J1986D01*
G02X487493Y231487I0J-1986D01*
G03X488173Y231580I312J250D01*
G02X490000Y232786I1827J-781D01*
G02Y228814I0J-1986D01*
G02X488448Y229561I0J1986D01*
G03X487768Y229468I-312J-250D01*
G37*
G36*
G01X1163698Y238527D02*
G02X1162900Y238364I-798J1872D01*
G02X1164936Y240400I0J2036D01*
G02X1164860Y239849I-2035J0D01*
G03X1165402Y239373I385J-108D01*
G02X1166200Y239536I798J-1872D01*
G02X1164164Y237500I0J-2036D01*
G02X1164240Y238051I2035J0D01*
G03X1163698Y238527I-385J108D01*
G37*
G36*
G01X114797Y241485D02*
G02X114564Y242431I1804J946D01*
G02X116600Y240395I2036J0D01*
G02X116314Y240415I-1J2036D01*
G03X115903Y239834I-57J-396D01*
G02X116136Y238888I-1804J-946D01*
G02X114100Y240924I-2036J0D01*
G02X114386Y240904I1J-2036D01*
G03X114797Y241485I57J396D01*
G37*
G36*
G01X1074178Y245772D02*
G02X1074000Y245764I-180J2028D01*
G02X1076036Y247800I0J2036D01*
G02X1075828Y246903I-2036J0D01*
G03X1076222Y246328I359J-177D01*
G02X1076400Y246336I180J-2028D01*
G02X1074364Y244300I0J-2036D01*
G02X1074572Y245197I2036J0D01*
G03X1074178Y245772I-359J177D01*
G37*
G36*
G01X89373Y254076D02*
G02X88964Y255300I1627J1224D01*
G02X91000Y253264I2036J0D01*
G01X90955D01*
G03X90627Y252624I-8J-400D01*
G02X91036Y251400I-1627J-1224D01*
G02X89000Y253436I-2036J0D01*
G01X89045D01*
G03X89373Y254076I8J400D01*
G37*
G36*
G01X90197Y261543D02*
G02X88400Y260464I-1797J957D01*
G02Y264536I0J2036D01*
G02X90197Y263457I0J-2036D01*
G03X90903I353J188D01*
G02X92700Y264536I1797J-957D01*
G02Y260464I0J-2036D01*
G02X90903Y261543I0J2036D01*
G03X90197I-353J-188D01*
G37*
G36*
G01X22059Y264669D02*
G02X20200Y263464I-1859J831D01*
G02Y267536I0J2036D01*
G02X22019Y266415I0J-2036D01*
G03X22741Y266431I357J180D01*
G02X24600Y267636I1859J-831D01*
G02Y263564I0J-2036D01*
G02X22781Y264685I0J2036D01*
G03X22059Y264669I-357J-180D01*
G37*
G36*
G01X145659Y264769D02*
G02X143800Y263564I-1859J831D01*
G02Y267636I0J2036D01*
G02X145619Y266515I0J-2036D01*
G03X146341Y266531I357J180D01*
G02X148200Y267736I1859J-831D01*
G02Y263664I0J-2036D01*
G02X146381Y264785I0J2036D01*
G03X145659Y264769I-357J-180D01*
G37*
G36*
G01X90925Y268898D02*
G02X92700Y269936I1775J-999D01*
G02X94519Y268815I0J-2036D01*
G03X95241Y268831I357J180D01*
G02X97100Y270036I1859J-831D01*
G02Y265964I0J-2036D01*
G02X95281Y267085I0J2036D01*
G03X94559Y267069I-357J-180D01*
G02X92700Y265864I-1859J831D01*
G02X90881Y266986I0J2035D01*
G03X90175Y267002I-357J-180D01*
G02X88400Y265964I-1775J999D01*
G02Y270036I0J2036D01*
G02X90219Y268914I0J-2035D01*
G03X90925Y268898I357J180D01*
G37*
G36*
G01X22197Y269843D02*
G02X20400Y268764I-1797J957D01*
G02Y272836I0J2036D01*
G02X22197Y271757I0J-2036D01*
G03X22903I353J188D01*
G02X24700Y272836I1797J-957D01*
G02Y268764I0J-2036D01*
G02X22903Y269843I0J2036D01*
G03X22197I-353J-188D01*
G37*
G36*
G01X145797Y269943D02*
G02X144000Y268864I-1797J957D01*
G02Y272936I0J2036D01*
G02X145797Y271857I0J-2036D01*
G03X146503I353J188D01*
G02X148300Y272936I1797J-957D01*
G02Y268864I0J-2036D01*
G02X146503Y269943I0J2036D01*
G03X145797I-353J-188D01*
G37*
G36*
G01X94697Y272243D02*
G02X92900Y271164I-1797J957D01*
G02Y275236I0J2036D01*
G02X94697Y274157I0J-2036D01*
G03X95403I353J188D01*
G02X97200Y275236I1797J-957D01*
G02Y271164I0J-2036D01*
G02X95403Y272243I0J2036D01*
G03X94697I-353J-188D01*
G37*
G36*
G01X811956Y275881D02*
G03X812544I294J271D01*
G02X814040Y276536I1496J-1381D01*
G02X815881Y275370I0J-2036D01*
G03X816554Y275290I362J171D01*
G02X818100Y276030I1546J-1245D01*
G02X819560Y275391I1J-1986D01*
G03X820147I293J271D01*
G02X821607Y276030I1459J-1347D01*
G02Y272058I0J-1986D01*
G02X820147Y272697I-1J1986D01*
G03X819560I-293J-271D01*
G02X818100Y272058I-1459J1347D01*
G02X816316Y273172I0J1985D01*
G03X815642Y273243I-359J-176D01*
G02X814040Y272464I-1602J1258D01*
G02X812544Y273119I0J2036D01*
G03X811956I-294J-271D01*
G02X810460Y272464I-1496J1381D01*
G02Y276536I0J2036D01*
G02X811956Y275881I0J-2036D01*
G37*
G36*
G01X629016Y278281D02*
G03X629604I294J271D01*
G02X631100Y278936I1496J-1381D01*
G02X632969Y277707I0J-2036D01*
G03X633685Y277670I367J159D01*
G02X635460Y278708I1775J-999D01*
G02X636956Y278053I0J-2036D01*
G03X637544I294J271D01*
G02X639040Y278708I1496J-1381D01*
G02Y274636I0J-2036D01*
G02X637544Y275291I0J2036D01*
G03X636956I-294J-271D01*
G02X635460Y274636I-1496J1381D01*
G02X633591Y275865I0J2036D01*
G03X632875Y275902I-367J-159D01*
G02X631100Y274864I-1775J999D01*
G02X629604Y275519I0J2036D01*
G03X629016I-294J-271D01*
G02X627520Y274864I-1496J1381D01*
G02Y278936I0J2036D01*
G02X629016Y278281I0J-2036D01*
G37*
G36*
G01X934753Y283444D02*
G03X935340I293J271D01*
G02X936800Y284083I1459J-1347D01*
G02Y280111I0J-1986D01*
G02X935340Y280750I-1J1986D01*
G03X934753I-294J-271D01*
G02X933293Y280111I-1459J1347D01*
G02X932574Y280246I1J1986D01*
G03X932037Y279795I-144J-373D01*
G02X932076Y279400I-1997J-397D01*
G02X930040Y277364I-2036J0D01*
G02X928544Y278019I0J2036D01*
G03X927956I-294J-271D01*
G02X926460Y277364I-1496J1381D01*
G02Y281436I0J2036D01*
G02X927956Y280781I0J-2036D01*
G03X928544I294J271D01*
G02X930040Y281436I1496J-1381D01*
G02X930798Y281290I1J-2036D01*
G03X931340Y281734I149J371D01*
G02X931307Y282097I1953J361D01*
G02X933293Y284083I1986J0D01*
G02X934753Y283444I1J-1986D01*
G37*
G36*
G01X178658Y284790D02*
G02X177100Y284064I-1558J1309D01*
G02Y288136I0J2036D01*
G02X178968Y286909I0J-2035D01*
G03X179642Y286810I368J158D01*
G02X181200Y287536I1558J-1309D01*
G02Y283464I0J-2036D01*
G02X179332Y284691I0J2035D01*
G03X178658Y284790I-368J-158D01*
G37*
G36*
G01X229497Y291843D02*
G02X227700Y290764I-1797J957D01*
G02Y294836I0J2036D01*
G02X229497Y293757I0J-2036D01*
G03X230203I353J188D01*
G02X232000Y294836I1797J-957D01*
G02Y290764I0J-2036D01*
G02X230203Y291843I0J2036D01*
G03X229497I-353J-188D01*
G37*
G36*
G01X233859Y297369D02*
G02X232000Y296164I-1859J831D01*
G02Y300236I0J2036D01*
G02X233819Y299115I0J-2036D01*
G03X234541Y299131I357J180D01*
G02X236400Y300336I1859J-831D01*
G02Y296264I0J-2036D01*
G02X234581Y297385I0J2036D01*
G03X233859Y297369I-357J-180D01*
G37*
G36*
G01X461141Y300331D02*
G02X459300Y299164I-1841J869D01*
G02Y303236I0J2036D01*
G02X461053Y302236I0J-2037D01*
G03X461759Y302269I344J204D01*
G02X463600Y303436I1841J-869D01*
G02Y299364I0J-2036D01*
G02X461847Y300364I0J2037D01*
G03X461141Y300331I-344J-204D01*
G37*
G36*
G01X233997Y302543D02*
G02X232200Y301464I-1797J957D01*
G02Y305536I0J2036D01*
G02X233997Y304457I0J-2036D01*
G03X234703I353J188D01*
G02X236500Y305536I1797J-957D01*
G02Y301464I0J-2036D01*
G02X234703Y302543I0J2036D01*
G03X233997I-353J-188D01*
G37*
G36*
G01X145659Y323469D02*
G02X143800Y322264I-1859J831D01*
G02Y326336I0J2036D01*
G02X145619Y325215I0J-2036D01*
G03X146341Y325231I357J180D01*
G02X148200Y326436I1859J-831D01*
G02Y322364I0J-2036D01*
G02X146381Y323485I0J2036D01*
G03X145659Y323469I-357J-180D01*
G37*
G36*
G01X145797Y328643D02*
G02X144000Y327564I-1797J957D01*
G02Y331636I0J2036D01*
G02X145797Y330557I0J-2036D01*
G03X146503I353J188D01*
G02X148300Y331636I1797J-957D01*
G02Y327564I0J-2036D01*
G02X146503Y328643I0J2036D01*
G03X145797I-353J-188D01*
G37*
G36*
G01X691176Y391922D02*
G02X693200Y393736I2024J-222D01*
G02Y389664I0J-2036D01*
G02X691802Y390220I0J2036D01*
G03X691130Y389972I-274J-291D01*
G02X689106Y388158I-2024J222D01*
G02Y392230I0J2036D01*
G02X690504Y391674I0J-2036D01*
G03X691176Y391922I274J291D01*
G37*
G36*
G01X428596Y407046D02*
G02X428164Y408300I1604J1254D01*
G02X432236I2036J0D01*
G02X430550Y406294I-2036J0D01*
G03X430304Y405654I69J-394D01*
G02X430736Y404400I-1604J-1254D01*
G02X426664I-2036J0D01*
G02X428350Y406406I2036J0D01*
G03X428596Y407046I-69J394D01*
G37*
G36*
G01X1143876Y307800D02*
G02X1143956Y308364I2036J-1D01*
G03X1143609Y308873I-384J111D01*
G02X1141764Y310900I191J2027D01*
G02X1145836I2036J0D01*
G02X1145756Y310336I-2036J1D01*
G03X1146103Y309827I384J-111D01*
G02X1147948Y307800I-191J-2027D01*
G02X1143876I-2036J0D01*
G37*
G36*
G01X1138444Y314137D02*
G02X1136600Y312964I-1844J863D01*
G02Y317036I0J2036D01*
G02X1138183Y316281I0J-2037D01*
G03X1138856Y316363I311J252D01*
G02X1140700Y317536I1844J-863D01*
G02Y313464I0J-2036D01*
G02X1139117Y314219I0J2037D01*
G03X1138444Y314137I-311J-252D01*
G37*
G36*
G01X1091683Y325742D02*
G03X1091159Y325806I-298J-266D01*
G02X1090012Y325452I-1147J1681D01*
G02Y329524I0J2036D01*
G02X1091529Y328846I0J-2036D01*
G03X1092053Y328782I298J266D01*
G02X1093200Y329136I1147J-1681D01*
G02Y325064I0J-2036D01*
G02X1091683Y325742I0J2036D01*
G37*
G36*
G01X1088210Y476691D02*
Y484565D01*
G02X1088712Y485066I502J-1D01*
G01X1096586D01*
G02X1097088Y484565I1J-501D01*
G01Y476691D01*
G02X1096586Y476190I-502J1D01*
G01X1088712D01*
G02X1088210Y476691I-1J501D01*
G37*
G36*
G01Y516061D02*
Y523935D01*
G02X1088712Y524436I502J-1D01*
G01X1096586D01*
G02X1097088Y523935I1J-501D01*
G01Y516061D01*
G02X1096586Y515560I-502J1D01*
G01X1088712D01*
G02X1088210Y516061I-1J501D01*
G37*
G36*
G01Y555432D02*
Y563306D01*
G02X1088712Y563808I502J0D01*
G01X1096586D01*
G02X1097088Y563306I0J-502D01*
G01Y555432D01*
G02X1096586Y554930I-502J0D01*
G01X1088712D01*
G02X1088210Y555432I0J502D01*
G37*
G36*
G01X1100710Y496376D02*
Y504250D01*
G02X1101212Y504752I502J0D01*
G01X1109086D01*
G02X1109588Y504250I0J-502D01*
G01Y496376D01*
G02X1109086Y495874I-502J0D01*
G01X1101212D01*
G02X1100710Y496376I0J502D01*
G37*
G36*
G01X1110552Y575117D02*
Y582991D01*
G02X1111054Y583492I502J-1D01*
G01X1118928D01*
G02X1119430Y582991I1J-501D01*
G01Y575117D01*
G02X1118928Y574616I-502J1D01*
G01X1111054D01*
G02X1110552Y575117I-1J501D01*
G37*
G36*
G01X1121970Y496376D02*
Y504250D01*
G02X1122472Y504752I502J0D01*
G01X1130346D01*
G02X1130848Y504250I0J-502D01*
G01Y496376D01*
G02X1130346Y495874I-502J0D01*
G01X1122472D01*
G02X1121970Y496376I0J502D01*
G37*
G36*
G01X1144312Y575117D02*
Y582991D01*
G02X1144814Y583492I502J-1D01*
G01X1152688D01*
G02X1153190Y582991I1J-501D01*
G01Y575117D01*
G02X1152688Y574616I-502J1D01*
G01X1144814D01*
G02X1144312Y575117I-1J501D01*
G37*
G36*
G01Y535746D02*
Y543620D01*
G02X1144814Y544122I502J0D01*
G01X1152688D01*
G02X1153190Y543620I0J-502D01*
G01Y535746D01*
G02X1152688Y535244I-502J0D01*
G01X1144814D01*
G02X1144312Y535746I0J502D01*
G37*
G36*
G01Y496376D02*
Y504250D01*
G02X1144814Y504752I502J0D01*
G01X1152688D01*
G02X1153190Y504250I0J-502D01*
G01Y496376D01*
G02X1152688Y495874I-502J0D01*
G01X1144814D01*
G02X1144312Y496376I0J502D01*
G37*
G36*
G01X1113511Y481967D02*
G03X1113789I139J145D01*
G02X1115200Y482536I1412J-1467D01*
G02X1116579Y481998I0J-2036D01*
G03X1117121I271J294D01*
G02X1118500Y482536I1379J-1498D01*
G02Y478464I0J-2036D01*
G02X1117121Y479002I0J2036D01*
G03X1116579I-271J-294D01*
G02X1115200Y478464I-1379J1498D01*
G02X1113789Y479033I1J2036D01*
G03X1113511I-139J-145D01*
G02X1112100Y478464I-1412J1467D01*
G02Y482536I0J2036D01*
G02X1113511Y481967I-1J-2036D01*
G37*
G36*
G01X1088210Y445195D02*
G02X1088712Y445696I502J-1D01*
G01X1096586D01*
G02X1097088Y445195I1J-501D01*
G01Y444266D01*
G03X1097794Y444009I400J0D01*
G02X1099353Y444736I1559J-1308D01*
G02X1100918Y444003I0J-2037D01*
G03X1101532I307J256D01*
G02X1103097Y444736I1565J-1304D01*
G02Y440664I0J-2036D01*
G02X1101532Y441397I0J2037D01*
G03X1100918I-307J-256D01*
G02X1099353Y440664I-1565J1304D01*
G02X1097794Y441391I0J2035D01*
G03X1097088Y441134I-306J-257D01*
G01Y437321D01*
G02X1096586Y436820I-502J1D01*
G01X1088712D01*
G02X1088210Y437321I-1J501D01*
G01Y445195D01*
G37*
G36*
G01X1124309Y486810D02*
G02X1122572Y485836I-1737J1062D01*
G02Y489908I0J2036D01*
G02X1124309Y488934I0J-2036D01*
G03X1124991I341J209D01*
G02X1126728Y489908I1737J-1062D01*
G02Y485836I0J-2036D01*
G02X1124991Y486810I0J2036D01*
G03X1124309I-341J-209D01*
G37*
G36*
G01X913510Y476691D02*
Y484565D01*
G02X914012Y485066I502J-1D01*
G01X921886D01*
G02X922388Y484565I1J-501D01*
G01Y476691D01*
G02X921886Y476190I-502J1D01*
G01X914012D01*
G02X913510Y476691I-1J501D01*
G37*
G36*
G01Y516061D02*
Y523935D01*
G02X914012Y524436I502J-1D01*
G01X921886D01*
G02X922388Y523935I1J-501D01*
G01Y516061D01*
G02X921886Y515560I-502J1D01*
G01X914012D01*
G02X913510Y516061I-1J501D01*
G37*
G36*
G01Y555432D02*
Y563306D01*
G02X914012Y563808I502J0D01*
G01X921886D01*
G02X922388Y563306I0J-502D01*
G01Y555432D01*
G02X921886Y554930I-502J0D01*
G01X914012D01*
G02X913510Y555432I0J502D01*
G37*
G36*
G01X926010Y496376D02*
Y504250D01*
G02X926512Y504752I502J0D01*
G01X934386D01*
G02X934888Y504250I0J-502D01*
G01Y496376D01*
G02X934386Y495874I-502J0D01*
G01X926512D01*
G02X926010Y496376I0J502D01*
G37*
G36*
G01X935852Y575117D02*
Y582991D01*
G02X936354Y583492I502J-1D01*
G01X944228D01*
G02X944730Y582991I1J-501D01*
G01Y575117D01*
G02X944228Y574616I-502J1D01*
G01X936354D01*
G02X935852Y575117I-1J501D01*
G37*
G36*
G01X947270Y496376D02*
Y504250D01*
G02X947772Y504752I502J0D01*
G01X955646D01*
G02X956148Y504250I0J-502D01*
G01Y496376D01*
G02X955646Y495874I-502J0D01*
G01X947772D01*
G02X947270Y496376I0J502D01*
G37*
G36*
G01X969612Y575117D02*
Y582991D01*
G02X970114Y583492I502J-1D01*
G01X977988D01*
G02X978490Y582991I1J-501D01*
G01Y575117D01*
G02X977988Y574616I-502J1D01*
G01X970114D01*
G02X969612Y575117I-1J501D01*
G37*
G36*
G01Y535746D02*
Y543620D01*
G02X970114Y544122I502J0D01*
G01X977988D01*
G02X978490Y543620I0J-502D01*
G01Y535746D01*
G02X977988Y535244I-502J0D01*
G01X970114D01*
G02X969612Y535746I0J502D01*
G37*
G36*
G01Y496376D02*
Y504250D01*
G02X970114Y504752I502J0D01*
G01X977988D01*
G02X978490Y504250I0J-502D01*
G01Y496376D01*
G02X977988Y495874I-502J0D01*
G01X970114D01*
G02X969612Y496376I0J502D01*
G37*
G36*
G01X938811Y481967D02*
G03X939089I139J145D01*
G02X940500Y482536I1412J-1467D01*
G02X941879Y481998I0J-2036D01*
G03X942421I271J294D01*
G02X943800Y482536I1379J-1498D01*
G02Y478464I0J-2036D01*
G02X942421Y479002I0J2036D01*
G03X941879I-271J-294D01*
G02X940500Y478464I-1379J1498D01*
G02X939089Y479033I1J2036D01*
G03X938811I-139J-145D01*
G02X937400Y478464I-1412J1467D01*
G02Y482536I0J2036D01*
G02X938811Y481967I-1J-2036D01*
G37*
G36*
G01X913510Y445195D02*
G02X914012Y445696I502J-1D01*
G01X921886D01*
G02X922388Y445195I1J-501D01*
G01Y444266D01*
G03X923094Y444009I400J0D01*
G02X924653Y444736I1559J-1308D01*
G02X926218Y444003I0J-2037D01*
G03X926832I307J256D01*
G02X928397Y444736I1565J-1304D01*
G02Y440664I0J-2036D01*
G02X926832Y441397I0J2037D01*
G03X926218I-307J-256D01*
G02X924653Y440664I-1565J1304D01*
G02X923094Y441391I0J2035D01*
G03X922388Y441134I-306J-257D01*
G01Y437321D01*
G02X921886Y436820I-502J1D01*
G01X914012D01*
G02X913510Y437321I-1J501D01*
G01Y445195D01*
G37*
G36*
G01X949609Y486810D02*
G02X947872Y485836I-1737J1062D01*
G02Y489908I0J2036D01*
G02X949609Y488934I0J-2036D01*
G03X950291I341J209D01*
G02X952028Y489908I1737J-1062D01*
G02Y485836I0J-2036D01*
G02X950291Y486810I0J2036D01*
G03X949609I-341J-209D01*
G37*
G36*
G01X710710Y476691D02*
Y484565D01*
G02X711212Y485066I502J-1D01*
G01X719086D01*
G02X719588Y484565I1J-501D01*
G01Y476691D01*
G02X719086Y476190I-502J1D01*
G01X711212D01*
G02X710710Y476691I-1J501D01*
G37*
G36*
G01Y516061D02*
Y523935D01*
G02X711212Y524436I502J-1D01*
G01X719086D01*
G02X719588Y523935I1J-501D01*
G01Y516061D01*
G02X719086Y515560I-502J1D01*
G01X711212D01*
G02X710710Y516061I-1J501D01*
G37*
G36*
G01Y555432D02*
Y563306D01*
G02X711212Y563808I502J0D01*
G01X719086D01*
G02X719588Y563306I0J-502D01*
G01Y555432D01*
G02X719086Y554930I-502J0D01*
G01X711212D01*
G02X710710Y555432I0J502D01*
G37*
G36*
G01X723210Y496376D02*
Y504250D01*
G02X723712Y504752I502J0D01*
G01X731586D01*
G02X732088Y504250I0J-502D01*
G01Y496376D01*
G02X731586Y495874I-502J0D01*
G01X723712D01*
G02X723210Y496376I0J502D01*
G37*
G36*
G01X733052Y575117D02*
Y582991D01*
G02X733554Y583492I502J-1D01*
G01X741428D01*
G02X741930Y582991I1J-501D01*
G01Y575117D01*
G02X741428Y574616I-502J1D01*
G01X733554D01*
G02X733052Y575117I-1J501D01*
G37*
G36*
G01X744470Y496376D02*
Y504250D01*
G02X744972Y504752I502J0D01*
G01X752846D01*
G02X753348Y504250I0J-502D01*
G01Y496376D01*
G02X752846Y495874I-502J0D01*
G01X744972D01*
G02X744470Y496376I0J502D01*
G37*
G36*
G01X766812Y575117D02*
Y582991D01*
G02X767314Y583492I502J-1D01*
G01X775188D01*
G02X775690Y582991I1J-501D01*
G01Y575117D01*
G02X775188Y574616I-502J1D01*
G01X767314D01*
G02X766812Y575117I-1J501D01*
G37*
G36*
G01Y535746D02*
Y543620D01*
G02X767314Y544122I502J0D01*
G01X775188D01*
G02X775690Y543620I0J-502D01*
G01Y535746D01*
G02X775188Y535244I-502J0D01*
G01X767314D01*
G02X766812Y535746I0J502D01*
G37*
G36*
G01Y496376D02*
Y504250D01*
G02X767314Y504752I502J0D01*
G01X775188D01*
G02X775690Y504250I0J-502D01*
G01Y496376D01*
G02X775188Y495874I-502J0D01*
G01X767314D01*
G02X766812Y496376I0J502D01*
G37*
G36*
G01X736011Y481967D02*
G03X736289I139J145D01*
G02X737700Y482536I1412J-1467D01*
G02X739079Y481998I0J-2036D01*
G03X739621I271J294D01*
G02X741000Y482536I1379J-1498D01*
G02Y478464I0J-2036D01*
G02X739621Y479002I0J2036D01*
G03X739079I-271J-294D01*
G02X737700Y478464I-1379J1498D01*
G02X736289Y479033I1J2036D01*
G03X736011I-139J-145D01*
G02X734600Y478464I-1412J1467D01*
G02Y482536I0J2036D01*
G02X736011Y481967I-1J-2036D01*
G37*
G36*
G01X710710Y445195D02*
G02X711212Y445696I502J-1D01*
G01X719086D01*
G02X719588Y445195I1J-501D01*
G01Y444266D01*
G03X720294Y444009I400J0D01*
G02X721853Y444736I1559J-1308D01*
G02X723418Y444003I0J-2037D01*
G03X724032I307J256D01*
G02X725597Y444736I1565J-1304D01*
G02Y440664I0J-2036D01*
G02X724032Y441397I0J2037D01*
G03X723418I-307J-256D01*
G02X721853Y440664I-1565J1304D01*
G02X720294Y441391I0J2035D01*
G03X719588Y441134I-306J-257D01*
G01Y437321D01*
G02X719086Y436820I-502J1D01*
G01X711212D01*
G02X710710Y437321I-1J501D01*
G01Y445195D01*
G37*
G36*
G01X746809Y486810D02*
G02X745072Y485836I-1737J1062D01*
G02Y489908I0J2036D01*
G02X746809Y488934I0J-2036D01*
G03X747491I341J209D01*
G02X749228Y489908I1737J-1062D01*
G02Y485836I0J-2036D01*
G02X747491Y486810I0J2036D01*
G03X746809I-341J-209D01*
G37*
G36*
G01X947631Y420436D02*
G02X948908Y419986I0J-2037D01*
G02X950400Y420636I1492J-1387D01*
G02Y416564I0J-2036D01*
G02X949123Y417014I0J2037D01*
G02X947631Y416364I-1492J1387D01*
G02Y420436I0J2036D01*
G37*
G36*
G01X956786Y420479D02*
G03X956198I-294J-271D01*
G02X954702Y419824I-1496J1381D01*
G02Y423896I0J2036D01*
G02X956198Y423241I0J-2036D01*
G03X956786I294J271D01*
G02X958282Y423896I1496J-1381D01*
G02Y419824I0J-2036D01*
G02X956786Y420479I0J2036D01*
G37*
G36*
G01X744831Y422436D02*
G02X746269Y421841I0J-2035D01*
G02X747600Y422336I1331J-1542D01*
G02Y418264I0J-2036D01*
G02X746162Y418859I0J2035D01*
G02X744831Y418364I-1331J1542D01*
G02Y422436I0J2036D01*
G37*
G36*
G01X753996Y420830D02*
G03X753408I-294J-271D01*
G02X751912Y420175I-1496J1381D01*
G02Y424247I0J2036D01*
G02X753408Y423592I0J-2036D01*
G03X753996I294J271D01*
G02X755492Y424247I1496J-1381D01*
G02Y420175I0J-2036D01*
G02X753996Y420830I0J2036D01*
G37*
G36*
G01X621502Y361579D02*
G03Y362121I-294J271D01*
G02X620964Y363500I1498J1379D01*
G02X625036I2036J0D01*
G02X624498Y362121I-2036J0D01*
G03Y361579I294J-271D01*
G02X625036Y360200I-1498J-1379D01*
G02X620964I-2036J0D01*
G02X621502Y361579I2036J0D01*
G37*
G36*
G01X797137Y361387D02*
G02X796464Y362900I1364J1513D01*
G02X800536I2036J0D01*
G02X799194Y360986I-2036J0D01*
G03X799063Y360313I137J-376D01*
G02X799736Y358800I-1364J-1513D01*
G02X795664I-2036J0D01*
G02X797006Y360714I2036J0D01*
G03X797137Y361387I-137J376D01*
G37*
G36*
G01X1147879Y375897D02*
G03X1147265I-307J-256D01*
G02X1145700Y375164I-1565J1304D01*
G02Y379236I0J2036D01*
G02X1147265Y378503I0J-2037D01*
G03X1147879I307J256D01*
G02X1149444Y379236I1565J-1304D01*
G02Y375164I0J-2036D01*
G02X1147879Y375897I0J2037D01*
G37*
G36*
G01X1103882Y311655D02*
G03X1103348Y311643I-260J-304D01*
G02X1101952Y311089I-1396J1482D01*
G02Y315161I0J2036D01*
G02X1103278Y314670I0J-2036D01*
G03X1103812Y314682I260J304D01*
G02X1105208Y315236I1396J-1482D01*
G02Y311164I0J-2036D01*
G02X1103882Y311655I0J2036D01*
G37*
G36*
G01X1110173Y315930D02*
G03X1109558I-307J-256D01*
G02X1108031Y315214I-1527J1270D01*
G02Y319186I0J1986D01*
G02X1109558Y318470I0J-1986D01*
G03X1110173I308J256D01*
G02X1111700Y319186I1527J-1270D01*
G02Y315214I0J-1986D01*
G02X1110173Y315930I0J1986D01*
G37*
G54D47*
X1105400Y26100D03*
X1095400D03*
X1145400D03*
X1135400D03*
X1125400D03*
X1115400D03*
G54D36*
X1183100Y42200D03*
X494100Y361800D03*
X508600D03*
X143000Y388000D03*
X131700Y142100D03*
X76400Y249400D03*
X197100Y119500D03*
X200200Y178800D03*
X155000Y388000D03*
X369300Y438700D03*
X200100Y249700D03*
X1148400Y155200D03*
X699100Y360900D03*
X222000Y15700D03*
X989000Y360900D03*
X1069400Y29800D03*
X1120500Y136700D03*
X422000Y371200D03*
X1077100Y360900D03*
X908000Y50200D03*
X1171200Y360900D03*
X786600D03*
X881300D03*
X508100Y438900D03*
G54D37*
X1107600Y364347D03*
X1152900Y326300D03*
X1145700Y391800D03*
X1110400Y382000D03*
X1021000Y373400D03*
X1023900Y382800D03*
X935800D03*
X855600Y391900D03*
X818100Y373500D03*
X819600Y382700D03*
X733300Y382300D03*
X643700Y373300D03*
X659957Y465700D03*
X665800Y455800D03*
X664657Y467300D03*
X653100Y449200D03*
X660000Y449000D03*
X652706Y455100D03*
X660000Y455000D03*
X642828Y487872D03*
X666300Y480300D03*
X834857Y465700D03*
X840700Y455800D03*
X839557Y467300D03*
X828000Y449200D03*
X834900Y449000D03*
X827606Y455100D03*
X834900Y455000D03*
X817728Y487872D03*
X841200Y480300D03*
X1037657Y465700D03*
X1043500Y455800D03*
X1042357Y467300D03*
X1030800Y449200D03*
X1037700Y449000D03*
X1030406Y455100D03*
X1037700Y455000D03*
X1020528Y487872D03*
X1044000Y480300D03*
X1087900Y415400D03*
X1104000Y411700D03*
X1101000Y326301D03*
Y334900D03*
X1114400Y322000D03*
X1105300D03*
X1108400Y358500D03*
X1129300Y353400D03*
X1119400Y337700D03*
X1129500Y382500D03*
X1123800Y383100D03*
X1134100Y353800D03*
X1092300Y344000D03*
X1128900Y335300D03*
X1124200Y315800D03*
X1099700Y291000D03*
X1114900Y309800D03*
X1130100Y309400D03*
X1145900Y290700D03*
X1115153Y290647D03*
X1119800Y353200D03*
X1130053Y290747D03*
X1141328Y339972D03*
X1088900Y304400D03*
X160500Y119000D03*
X144000Y189600D03*
X87300Y162800D03*
X949500Y316200D03*
X776206Y390194D03*
X1042000Y335700D03*
X1037300Y316200D03*
X1012800Y291400D03*
X1028000Y310200D03*
X1005400Y344400D03*
X978200Y326700D03*
X1002000Y304800D03*
X856200Y291100D03*
X834500Y316200D03*
X752000Y382900D03*
X1043153Y291147D03*
X1049700Y315400D03*
X1047200Y354200D03*
X1042400Y353800D03*
X1036900Y383500D03*
X1032900Y353600D03*
X829700Y338100D03*
X1020700Y364747D03*
X1066000Y326700D03*
X1014100Y326701D03*
Y335300D03*
X1027500Y322400D03*
X1018400D03*
X1032500Y338100D03*
X955400Y309800D03*
X730900Y358900D03*
X834100Y383500D03*
X811300Y326701D03*
X751800Y353800D03*
X723500Y326701D03*
X839800Y382900D03*
X741900Y338100D03*
X840353Y291147D03*
X775400Y326700D03*
X746300Y383500D03*
X1059000Y291100D03*
X940200Y310200D03*
X930600Y322400D03*
X825453Y291047D03*
X926300Y326701D03*
X961900Y315400D03*
X971200Y291100D03*
X966628Y340372D03*
X939700Y322400D03*
X926300Y335300D03*
X1058963Y414337D03*
X1011237Y413837D03*
X1066806Y390194D03*
X34300Y167100D03*
X840400Y309800D03*
X160500Y113300D03*
X830100Y353600D03*
X727800Y322400D03*
X856163Y414337D03*
X839200Y335700D03*
X1042600Y382900D03*
X768363Y414337D03*
X720637Y413837D03*
X940453Y291047D03*
X925000Y309600D03*
X146300Y124000D03*
X839600Y353800D03*
X756600Y354200D03*
X825200Y310200D03*
X802600Y344400D03*
X44800Y165100D03*
X811300Y335300D03*
X44900Y192800D03*
X1043200Y309800D03*
X815600Y322400D03*
X742300Y353600D03*
X824700Y322400D03*
X1054428Y340372D03*
X844400Y354200D03*
X810000Y309600D03*
X736900Y322400D03*
X730100Y364747D03*
X925000Y291400D03*
X863200Y326700D03*
X846900Y315400D03*
X954800Y382900D03*
X808437Y413837D03*
X799200Y304800D03*
X1012800Y309600D03*
X944700Y338100D03*
X1028253Y291047D03*
X810000Y291400D03*
X851628Y340372D03*
X723500Y335300D03*
X917600Y344400D03*
X954200Y335700D03*
X932900Y364747D03*
X923437Y413837D03*
X959400Y354200D03*
X914200Y304800D03*
X669500Y354200D03*
X664700Y353800D03*
X643800Y358900D03*
X659200Y383500D03*
X655200Y353600D03*
X664900Y382900D03*
X643000Y364747D03*
X688300Y326700D03*
X636400Y326701D03*
Y335300D03*
X649800Y322400D03*
X640700D03*
X654800Y338100D03*
X289440Y65260D03*
X681263Y414337D03*
X635300Y412600D03*
X676728Y340372D03*
X665453Y291147D03*
X672000Y315400D03*
X635100Y309600D03*
X650553Y291047D03*
X624300Y304800D03*
X681300Y291100D03*
X664300Y335700D03*
X659600Y316200D03*
X627700Y344400D03*
X635100Y291400D03*
X650300Y310200D03*
X665500Y309800D03*
X763828Y340372D03*
X752553Y291147D03*
X759100Y315400D03*
X722200Y309600D03*
X737653Y291047D03*
X711400Y304800D03*
X768400Y291100D03*
X751400Y335700D03*
X746700Y316200D03*
X714800Y344400D03*
X722200Y291400D03*
X737400Y310200D03*
X752600Y309800D03*
X435400Y107000D03*
X51000Y356000D03*
X945100Y353600D03*
X949100Y383500D03*
X933400Y372600D03*
X954600Y353800D03*
X971163Y414337D03*
X955353Y291147D03*
X101900Y268200D03*
Y262500D03*
X29400Y265800D03*
X1133200Y105800D03*
X1151800Y84100D03*
X1105000Y84600D03*
X1105950Y105650D03*
X153000Y324600D03*
X101700Y273200D03*
X408800Y104700D03*
X97200Y262500D03*
X379800Y19300D03*
X425900Y106200D03*
X109200Y353600D03*
X148500Y189600D03*
X455600Y106600D03*
X475636Y295300D03*
X29200Y270800D03*
X566700Y399100D03*
X441872Y123928D03*
X351550Y69850D03*
X236500Y292800D03*
X374500Y319100D03*
X420628Y122328D03*
X408800Y143500D03*
X155800Y113300D03*
X365700Y30672D03*
X346300Y30572D03*
X146500Y113300D03*
X455300Y142700D03*
X370250Y70050D03*
X833300Y203800D03*
X151300Y113300D03*
X972800Y115300D03*
X141800Y113300D03*
X153200Y189600D03*
X29400Y260100D03*
X153000Y260200D03*
X632000Y79900D03*
X208100Y230300D03*
X809414Y40900D03*
X925047Y86400D03*
X1057700Y21700D03*
X913600D03*
X152800Y329600D03*
X562700Y393400D03*
X1155900Y282700D03*
X762900Y276100D03*
X241200Y292800D03*
X153000Y200300D03*
X24700Y260100D03*
X840200Y80700D03*
X640000Y411700D03*
X443150Y327350D03*
X153200Y195300D03*
X464616Y313516D03*
X153000Y318900D03*
X512600Y298400D03*
X504706Y312800D03*
X453000Y328050D03*
X487300Y328800D03*
X148300Y260200D03*
X484700Y311100D03*
X374400Y356300D03*
X393400Y305900D03*
X393200Y313200D03*
X384700Y304700D03*
X241000Y303500D03*
X454700Y301153D03*
X448500Y301200D03*
X867000Y20700D03*
X558900Y408300D03*
X817900Y51300D03*
X472400Y450700D03*
X863100Y82400D03*
X241200Y298500D03*
X225700Y197400D03*
X221000Y191900D03*
X225700D03*
X406243Y79900D03*
X771300Y78700D03*
X137300Y113300D03*
X20200Y260100D03*
X222800Y184800D03*
X823000Y54500D03*
X146500Y119000D03*
X143800Y260200D03*
X152800Y270900D03*
X573600Y256000D03*
X691700Y281300D03*
X1159900Y170500D03*
X863100Y188000D03*
X987000Y256000D03*
X569800Y251900D03*
X1155900Y207300D03*
X441147Y301400D03*
X783400Y207300D03*
X766200Y319000D03*
X981600Y214200D03*
X143800Y318900D03*
X443441Y154700D03*
X967020Y276280D03*
X918580Y173600D03*
X779200Y210000D03*
X554600Y404400D03*
X867000Y85300D03*
X160300Y124000D03*
X153000Y265900D03*
X148300Y318900D03*
X967020Y197000D03*
X562600Y244300D03*
X350543Y150643D03*
X981600Y278800D03*
X590500Y268800D03*
X989900Y251900D03*
X1080400Y176900D03*
X918580Y87300D03*
X628100Y83561D03*
X418250Y290250D03*
X761550Y53500D03*
X573600Y388200D03*
X1069500Y281700D03*
X888400Y179600D03*
X326272Y30572D03*
X1076600Y179600D03*
X577800Y259300D03*
X1069500Y210000D03*
X843900Y193900D03*
X773800Y278200D03*
X590500Y432700D03*
X1054500Y276700D03*
X554700Y237500D03*
X840200Y196900D03*
X629200Y95698D03*
X653900Y76341D03*
X836100Y200200D03*
X586000Y264900D03*
X781100Y414100D03*
X783400Y90100D03*
X866900Y283200D03*
X967200Y318000D03*
X563250Y72900D03*
X1140700Y173600D03*
X566700Y247800D03*
X558900Y240400D03*
X268500Y168288D03*
X609700Y92661D03*
X1060000Y182100D03*
X272900Y171800D03*
X1054500Y184900D03*
X972700Y193900D03*
X779200Y86300D03*
X922200Y91200D03*
X892800Y63300D03*
X880800Y81600D03*
X356202Y528802D03*
X884300Y68200D03*
X568200Y89980D03*
X586000Y439700D03*
X581700Y418600D03*
X922200Y170500D03*
X581700Y262300D03*
X892800Y176900D03*
X867000Y191400D03*
X764500Y87500D03*
X829100Y57061D03*
X784000Y268800D03*
X577800Y425400D03*
X1140700Y275800D03*
X852700Y318400D03*
X786900Y264900D03*
X850200Y274600D03*
X1054500Y316050D03*
X775600Y76600D03*
X866900Y217200D03*
X888400Y65200D03*
X268600Y459700D03*
X241900Y269100D03*
X421543Y150643D03*
X272800Y286300D03*
X509300Y322600D03*
X264400Y235500D03*
X262300Y529800D03*
X446000Y146800D03*
X272900Y274600D03*
X268500Y271600D03*
X350543Y378100D03*
X429300Y447300D03*
X259400Y232600D03*
X268500Y290000D03*
X425800Y443257D03*
X272900Y463700D03*
X425400Y263600D03*
X443100Y279500D03*
X534584Y103700D03*
X422000Y286300D03*
X545700Y103700D03*
X530843Y99800D03*
X556700D03*
X526200Y154700D03*
X416480Y153780D03*
X392900Y321600D03*
X389600Y153900D03*
X88400Y358400D03*
X388100Y12500D03*
X196850Y365450D03*
X285700Y89600D03*
X163737Y337437D03*
X425400Y490339D03*
X73250Y307550D03*
X432900Y473000D03*
X32100Y325600D03*
X121600D03*
X45400Y311500D03*
X343000Y499300D03*
X858800Y40200D03*
X866900Y40900D03*
X406243Y166057D03*
X163737Y278937D03*
X45400Y350900D03*
X816800Y22400D03*
X146106Y526494D03*
X813700Y411900D03*
X357300Y490339D03*
X431800Y67400D03*
X1124900Y99500D03*
X468143Y533600D03*
X205200Y552700D03*
X26692Y181491D03*
X429300Y60400D03*
X195700Y552000D03*
X613000Y118100D03*
X231800Y211700D03*
X281960Y64960D03*
X479700Y531143D03*
X497200Y410700D03*
X810300Y22400D03*
X331872Y520172D03*
X873400Y20300D03*
X116600Y315700D03*
X460616Y535684D03*
X361200Y166000D03*
X163763Y208037D03*
X343000Y210800D03*
X51000Y315700D03*
X388700Y36500D03*
X350506Y503100D03*
X207500Y110100D03*
X467900Y508800D03*
X256100Y110100D03*
X361200Y531143D03*
X882143Y52243D03*
X184500Y211600D03*
X211040Y226240D03*
X501700Y435600D03*
X353918Y508800D03*
X388900Y25700D03*
X794800Y40800D03*
X114100Y311500D03*
X357300Y161700D03*
X353918Y157982D03*
X441700Y475100D03*
X268800Y42900D03*
X256000Y43500D03*
X233700Y222500D03*
X210040Y358140D03*
X229000Y341800D03*
X83000Y283200D03*
X86440Y299740D03*
X188400Y226300D03*
X268800Y65700D03*
X36500Y123700D03*
X282000Y43600D03*
X48450Y122250D03*
X184800Y281900D03*
X14200Y133800D03*
X800500Y17300D03*
X248300Y197400D03*
X234500Y354400D03*
X210900Y211700D03*
X109200Y296000D03*
X204200Y281800D03*
X184400Y339800D03*
X204200Y340100D03*
X188850Y134650D03*
X713000Y76200D03*
X243800Y197400D03*
X331650Y71450D03*
X239200Y197400D03*
X34500Y159700D03*
X364400Y485200D03*
X541400Y475200D03*
X719700Y86600D03*
X252400Y191800D03*
X737600Y68400D03*
X508900Y470500D03*
X554400Y468900D03*
X857400Y15000D03*
X247800Y191900D03*
X588000Y86600D03*
X719700Y136900D03*
X466300Y157200D03*
X571700Y73100D03*
X561500Y468900D03*
X25700Y176100D03*
X715700Y139800D03*
X571700Y111008D03*
X583900Y99200D03*
X755800Y396900D03*
X715700Y99200D03*
X635100Y21900D03*
X432200Y450800D03*
X407000Y485200D03*
X1035400Y25300D03*
X733200Y107300D03*
X906000Y32700D03*
X559500Y40400D03*
X742200Y104300D03*
X370900Y398900D03*
X368000Y387100D03*
X391760Y383360D03*
X873200Y39600D03*
X495700Y448600D03*
X829300Y20200D03*
X344200Y37600D03*
X406250Y398750D03*
X25400Y167100D03*
X252900Y197400D03*
X370400Y485200D03*
X392100Y248500D03*
X568700Y468900D03*
X376300Y485200D03*
X425800Y378100D03*
X382400Y485200D03*
X418500D03*
X523300Y477400D03*
X504100Y410500D03*
X430300Y399100D03*
X490300Y410700D03*
X538400Y480300D03*
X429500Y393400D03*
X412800Y485200D03*
X424300D03*
X569800Y382100D03*
X429100D03*
X429000Y388200D03*
X420053Y274447D03*
X72206Y276906D03*
X402400Y278800D03*
X61500Y270500D03*
X526160Y252240D03*
X402400Y268600D03*
X413460Y252240D03*
X1045200Y398100D03*
X217300Y269100D03*
X957800Y397700D03*
X843800Y397100D03*
X965300Y412300D03*
X676400Y412600D03*
X849500Y413600D03*
X704500Y16600D03*
X724400Y391400D03*
X913283Y414983D03*
X798100Y415400D03*
X763000Y43800D03*
X758850Y40200D03*
X647100Y17900D03*
X570700Y22400D03*
X628100Y21600D03*
X780500Y391600D03*
X359800Y46600D03*
X969800Y392000D03*
X1000600Y415300D03*
X465100Y537300D03*
X726450Y21250D03*
X693500Y414000D03*
X1053400Y412500D03*
X726000Y411900D03*
X485200Y59400D03*
X767000Y392000D03*
X928600Y411700D03*
X1016400Y412500D03*
X1071400Y391900D03*
X927200Y391400D03*
X609700Y21900D03*
X623700Y412600D03*
X637500Y391300D03*
X762800Y413600D03*
X867600Y413800D03*
X1102400Y391400D03*
X1057600Y391900D03*
X1071700Y413200D03*
X679700Y391800D03*
X983200Y413700D03*
X549300Y23100D03*
X394900Y355700D03*
X812200Y391400D03*
X565200Y22300D03*
X548700Y40700D03*
X505700Y62700D03*
X1015100Y391200D03*
X559500Y15600D03*
X588000Y41300D03*
X723400Y17000D03*
X553800Y22800D03*
X656500Y18200D03*
X733600Y70500D03*
X526000Y38200D03*
X474000Y17600D03*
X435600Y46800D03*
X494300Y17600D03*
X523800Y23100D03*
X1132050Y398850D03*
X1098137Y413363D03*
X1092200Y390800D03*
X1156800Y414400D03*
X1087600Y391100D03*
X1130900Y480300D03*
X1107428Y487872D03*
X1124600Y455000D03*
X1117306Y455100D03*
X1124600Y449000D03*
X1117700Y449200D03*
X1129257Y467300D03*
X1130400Y455800D03*
X1124557Y465700D03*
X956200Y480300D03*
X932728Y487872D03*
X949900Y455000D03*
X942606Y455100D03*
X949900Y449000D03*
X943000Y449200D03*
X954557Y467300D03*
X955700Y455800D03*
X949857Y465700D03*
X753400Y480300D03*
X729928Y487872D03*
X747100Y455000D03*
X739806Y455100D03*
X747100Y449000D03*
X740200Y449200D03*
X751757Y467300D03*
X752900Y455800D03*
X747057Y465700D03*
X645032Y382232D03*
X730400Y373400D03*
X713387Y415920D03*
X818950Y359150D03*
X818597Y364820D03*
X977800Y391100D03*
X983200Y391500D03*
X933300Y358500D03*
X1021750Y358650D03*
X1108100Y372700D03*
X1099700Y309200D03*
G54D39*
X684151Y460943D03*
X859051D03*
X1061851D03*
X1148751D03*
X974051D03*
X771251D03*
G54D51*
X1013561Y27811D03*
X1003522D03*
X971278D03*
X961239D03*
G54D50*
X1004900Y78795D03*
X999900Y68795D03*
X994900Y78795D03*
X989900Y68795D03*
X984900Y78795D03*
X979900Y68795D03*
X974900Y78795D03*
X969900Y68795D03*
G54D46*
X459100Y551300D03*
X342700D03*
X247200D03*
X130800D03*
G54D44*
X707047Y40000D03*
X492953Y52008D03*
G54D40*
X674998Y457400D03*
X637202D03*
X849898D03*
X812102D03*
X1052698D03*
X1014902D03*
X1101802D03*
X1139598D03*
X927102D03*
X964898D03*
X724302D03*
X762098D03*
G54D38*
X628049Y470786D03*
Y451101D03*
X637202Y432991D03*
X656100D03*
X674998D03*
X684151Y489290D03*
Y470786D03*
Y451101D03*
X628049Y489290D03*
X802949Y470786D03*
Y451101D03*
X812102Y432991D03*
X831000D03*
X849898D03*
X859051Y489290D03*
Y470786D03*
Y451101D03*
X802949Y489290D03*
X1005749Y470786D03*
Y451101D03*
X1014902Y432991D03*
X1033800D03*
X1052698D03*
X1061851Y489290D03*
Y470786D03*
Y451101D03*
X1005749Y489290D03*
X1092649D03*
X1148751Y451101D03*
Y470786D03*
Y489290D03*
X1139598Y432991D03*
X1120700D03*
X1101802D03*
X1092649Y451101D03*
Y470786D03*
X917949Y489290D03*
X974051Y451101D03*
Y470786D03*
Y489290D03*
X964898Y432991D03*
X946000D03*
X927102D03*
X917949Y451101D03*
Y470786D03*
X715149Y489290D03*
X771251Y451101D03*
Y470786D03*
Y489290D03*
X762098Y432991D03*
X743200D03*
X724302D03*
X715149Y451101D03*
Y470786D03*
G54D54*
X370100Y352800D03*
G54D52*
X1009900Y68795D03*
G54D43*
X1168400Y146600D03*
X1168500Y122300D03*
X1145400Y36100D03*
X1095400D03*
X1135400D03*
X1125400D03*
X1115400D03*
X1105400D03*
X1087200Y96000D03*
X1077200D03*
X1087200Y76500D03*
X1077200D03*
X1076900Y146600D03*
X1086900D03*
X1076800Y122300D03*
X1086800D03*
X1168400Y96000D03*
X1178400D03*
X1168300Y76500D03*
X1178300D03*
X1178500Y122300D03*
X1178400Y146600D03*
G54D42*
X494200Y348100D03*
X508700D03*
X200000Y263700D03*
X179300Y119700D03*
X76300Y263400D03*
X113200Y142100D03*
X222200Y29300D03*
X155000Y400000D03*
X200100Y192800D03*
X179300Y95000D03*
X143000Y400000D03*
X522000Y460200D03*
X1169900Y55200D03*
X1170000Y42500D03*
X699100Y373500D03*
Y386000D03*
X422100Y357500D03*
X786600Y386000D03*
X1171300D03*
X1077100D03*
X989000D03*
X881300D03*
X534700Y460400D03*
X1136000Y141900D03*
X1148300Y141600D03*
X1108300Y123100D03*
X1120500Y123000D03*
X908600Y66400D03*
X881300Y373500D03*
X786500D03*
X989000D03*
X1077100D03*
X1171200D03*
X1069700Y55200D03*
X1069800Y42500D03*
X383800Y459700D03*
X397900D03*
X383900Y445800D03*
X397900D03*
X384000Y431900D03*
X397900D03*
X384000Y418000D03*
X397900D03*
X534700Y446500D03*
X522000Y446300D03*
Y418500D03*
X534700Y418700D03*
X522000Y432400D03*
X534700Y432600D03*
G54D53*
X1009900Y43795D03*
X964900D03*
G54D49*
X956475Y55803D03*
X1018325D03*
G54D45*
X152084Y38800D03*
G54D48*
X489100Y571300D03*
X372700D03*
X332700D03*
X449100D03*
X237200D03*
X277200D03*
X160800D03*
X120800D03*
G54D41*
X20000Y20000D03*
X890000D03*
X20000Y580000D03*
X310000D03*
X600000D03*
X476900Y40000D03*
X744100D03*
X890000Y580000D03*
X310000Y20000D03*
X1180000Y580000D03*
Y20000D03*
%LPD*%
G75*
G54D10*
X20000Y20000D03*
Y580000D03*
X310000Y20000D03*
Y580000D03*
X476900Y40000D03*
X600000Y580000D03*
X744100Y40000D03*
X890000Y20000D03*
Y580000D03*
X1180000Y20000D03*
Y580000D03*
G54D20*
X223940Y244640D03*
X231700Y367900D03*
X391400Y390000D03*
X468336Y460164D03*
X887200Y41100D03*
G54D11*
X13090Y142081D03*
X40960Y120660D03*
X36500Y123700D03*
X14800Y161600D03*
X19100D03*
X23600D03*
X23800Y156600D03*
X19000Y156400D03*
X14600Y156300D03*
Y150900D03*
X19100D03*
X23800D03*
X16692Y142095D03*
X20391Y142007D03*
X32090Y142181D03*
X35692Y142195D03*
X39391Y142107D03*
X39500Y146894D03*
X14200Y133800D03*
X41200Y156400D03*
Y152200D03*
Y160500D03*
X34500Y159700D03*
X34300Y167100D03*
X25400D03*
X39727Y182008D03*
Y176792D03*
X13647Y190253D03*
X25700Y176100D03*
X26692Y181491D03*
X40291Y218207D03*
X36592Y218295D03*
X32990Y218281D03*
X21291Y218107D03*
X17592Y218195D03*
X13990Y218181D03*
X14600Y208300D03*
X18900D03*
X23400D03*
X14400Y203000D03*
X18800Y203100D03*
X23600Y203300D03*
X14400Y197600D03*
X18900D03*
X23600D03*
X42000Y199900D03*
Y203700D03*
X41900Y207300D03*
X33991Y238207D03*
X30292Y238295D03*
X26690Y238281D03*
X29400Y260100D03*
X24700D03*
X20200D03*
X29400Y265800D03*
X24600Y265600D03*
X20200Y265500D03*
X29200Y270800D03*
X24700D03*
X20400D03*
X20990Y289081D03*
X24592Y289095D03*
X28291Y289007D03*
X32100Y325600D03*
X36100Y459800D03*
Y456400D03*
X16300Y459700D03*
Y456300D03*
Y437800D03*
Y434400D03*
X36200Y437700D03*
Y434300D03*
X48450Y122250D03*
X51190Y142181D03*
X54792Y142195D03*
X58491Y142107D03*
X72600Y148700D03*
X72400Y138000D03*
Y143400D03*
X51873Y182008D03*
Y176792D03*
X45800Y182008D03*
Y176792D03*
X44900Y192800D03*
X44800Y165100D03*
X71900Y215600D03*
X59391Y218207D03*
X55692Y218295D03*
X52090Y218281D03*
X72100Y220900D03*
X71900Y210200D03*
X47200Y207100D03*
X47300Y203600D03*
X72091Y238307D03*
X68392Y238395D03*
X64790Y238381D03*
X52991Y238307D03*
X49292Y238395D03*
X45690Y238381D03*
X48100Y274700D03*
Y272200D03*
Y277300D03*
X52700Y272200D03*
X52800Y274800D03*
Y277400D03*
X61500Y270500D03*
X72206Y276906D03*
X71090Y289081D03*
X52800Y295900D03*
X45400Y311500D03*
X53700Y341000D03*
X60850Y334800D03*
X51000Y315700D03*
X71200Y361700D03*
X51000Y356000D03*
X45400Y350900D03*
X60149Y431800D03*
X56250D03*
X99600Y113200D03*
X95100D03*
X99500Y118700D03*
X95100Y118600D03*
X99600Y123900D03*
X95300D03*
X90600Y113100D03*
X85900D03*
X81400D03*
X90600Y118800D03*
X85800Y118600D03*
X81400Y118500D03*
X90400Y123800D03*
X85900D03*
X81600D03*
X87300Y162800D03*
X94300Y158000D03*
Y154700D03*
Y151300D03*
X76900Y148700D03*
X81400D03*
X81600Y143700D03*
X76900Y138000D03*
X81600D03*
X76800Y143500D03*
X81100Y210200D03*
Y215900D03*
X76300Y215700D03*
X76400Y220900D03*
X80900D03*
X76400Y210200D03*
X98800Y246100D03*
X102300D03*
X98700Y242800D03*
X102200D03*
X101950Y234150D03*
X97100Y234200D03*
X89000Y233300D03*
X82900Y233500D03*
X89000Y251400D03*
X92900Y273200D03*
X97200D03*
X101700D03*
X92700Y267900D03*
X97100Y268000D03*
X101900Y268200D03*
X88400Y268000D03*
X92700Y262500D03*
X97200D03*
X101900D03*
X88400D03*
X91000Y255300D03*
X83000Y283200D03*
X74692Y289095D03*
X78391Y289007D03*
X86440Y299740D03*
X73250Y307550D03*
X97953Y346847D03*
X88400Y358400D03*
X86000Y438000D03*
Y434600D03*
Y459700D03*
Y456300D03*
X121600Y9200D03*
X104300Y113200D03*
Y118900D03*
X104100Y123900D03*
X106200Y189400D03*
Y185400D03*
Y164400D03*
Y168600D03*
Y172900D03*
Y181400D03*
Y177200D03*
Y193500D03*
X116600Y242431D03*
X114100Y238888D03*
X110400Y255300D03*
X106100Y309100D03*
X109200Y296000D03*
X114100Y311500D03*
X116600Y315700D03*
X121600Y325600D03*
X109200Y353600D03*
X106700Y438000D03*
Y434600D03*
Y459700D03*
Y456300D03*
X121547Y503053D03*
X146500Y113300D03*
X141800D03*
X137300D03*
X146500Y119000D03*
X141700Y118800D03*
X137300Y118700D03*
X146300Y124000D03*
X141800D03*
X137500D03*
X160500Y113300D03*
X155800D03*
X151300D03*
X160500Y119000D03*
X155700Y118800D03*
X151300Y118700D03*
X160300Y124000D03*
X155800D03*
X151500D03*
X153200Y189600D03*
X148500D03*
X144000D03*
X153200Y195300D03*
X148400Y195100D03*
X144000Y195000D03*
X153000Y200300D03*
X148500D03*
X144200D03*
X144990Y218181D03*
X148592Y218195D03*
X152291Y218107D03*
X150400Y208200D03*
X150190Y238581D03*
X153792Y238595D03*
X157491Y238507D03*
X153000Y260200D03*
X148300D03*
X143800D03*
X153000Y265900D03*
X148200Y265700D03*
X143800Y265600D03*
X152800Y270900D03*
X148300D03*
X144000D03*
X152200Y279000D03*
X150990Y295381D03*
X154592Y295395D03*
X158291Y295307D03*
X153000Y318900D03*
X148300D03*
X143800D03*
X153000Y324600D03*
X148200Y324400D03*
X143800Y324300D03*
X152800Y329600D03*
X148300D03*
X144000D03*
X152000Y337400D03*
X151991Y347807D03*
X148292Y347895D03*
X144690Y347881D03*
X133547Y423753D03*
X148026Y462574D03*
X151715D03*
X135210Y443700D03*
X138790D03*
X152253Y503853D03*
X151300Y539900D03*
X139700Y530700D03*
X146106Y526494D03*
X188850Y134650D03*
X171900Y204100D03*
Y201600D03*
Y206700D03*
X176500Y201600D03*
X176600Y204200D03*
Y206800D03*
X181600Y215400D03*
X177500Y216300D03*
X171500Y216000D03*
X168200D03*
X163763Y208037D03*
X184500Y211600D03*
X191892Y238695D03*
X188290Y238681D03*
X176491Y238607D03*
X169190Y238681D03*
X172792Y238695D03*
X168300Y227600D03*
X172300Y227500D03*
X176300Y227600D03*
X180300D03*
X188400Y226300D03*
X171800Y275000D03*
Y272500D03*
Y277600D03*
X176400Y272500D03*
X176500Y275100D03*
Y277700D03*
X163737Y278937D03*
X184800Y281900D03*
X192692Y295495D03*
X189090Y295481D03*
X168300Y296800D03*
X172300D03*
X176200Y296900D03*
X180100D03*
X181200Y285500D03*
X167700Y285200D03*
X177100Y286100D03*
X171000Y285800D03*
X171700Y331200D03*
X171600Y335900D03*
Y333600D03*
X176500Y336000D03*
X176400Y333600D03*
X176500Y331100D03*
D03*
X184400Y339800D03*
X163737Y337437D03*
X168100Y358200D03*
X172100D03*
X176100Y358100D03*
X180100Y358200D03*
X180233Y344700D03*
X177100Y345300D03*
X167467Y345200D03*
X170800Y345700D03*
X165953Y423653D03*
X207500Y110100D03*
X215700Y161700D03*
X222600Y175500D03*
X222500Y172200D03*
X220900Y163600D03*
X215000Y183900D03*
X222800Y184800D03*
X212800Y180800D03*
X216500Y191900D03*
X221000D03*
X212200D03*
X202991Y218407D03*
X199292Y218495D03*
X195690Y218481D03*
X196600Y208000D03*
X210900Y211700D03*
X216500Y197300D03*
X220900Y197400D03*
X212200D03*
X195591Y238607D03*
X208100Y230300D03*
X211040Y226240D03*
X222600Y253500D03*
X195900Y278900D03*
X217300Y269100D03*
X204200Y281800D03*
X196391Y295407D03*
X196000Y337500D03*
X204200Y340100D03*
X202091Y347807D03*
X198392Y347895D03*
X194790Y347881D03*
X210040Y358140D03*
X196850Y365450D03*
X212806Y537694D03*
X208900Y526400D03*
X205200Y552700D03*
X195700Y552000D03*
X249947Y29800D03*
X226100Y175500D03*
X226000Y172200D03*
X225750Y163550D03*
X235000Y180700D03*
X225700Y191900D03*
X239200D03*
X243300D03*
X247800D03*
X252400Y191800D03*
X233700Y222500D03*
X231800Y211700D03*
X225700Y197400D03*
X239200D03*
X243800D03*
X248300D03*
X252900D03*
X250300Y270800D03*
X250200Y267500D03*
X235600Y263200D03*
X230900D03*
X226400D03*
X241900Y269100D03*
X241400Y255500D03*
X243700Y257800D03*
X232200Y303500D03*
X236500D03*
X241000D03*
X232000Y298200D03*
X236400Y298300D03*
X241200Y298500D03*
X232000Y292800D03*
X236500D03*
X241200D03*
X227700D03*
X234700Y333200D03*
X230000D03*
X225500D03*
X229000Y341800D03*
X234500Y354400D03*
X251310Y421400D03*
X237747Y502853D03*
X262947Y29647D03*
X274760Y29560D03*
X268800Y42900D03*
Y65700D03*
X256000Y43500D03*
X282000Y43600D03*
X281960Y64960D03*
X256100Y110100D03*
X272900Y171800D03*
X268500Y168288D03*
X264400Y235500D03*
X259400Y232600D03*
X253800Y270800D03*
X253700Y267500D03*
X261000Y255600D03*
X262600Y265700D03*
X262500Y269100D03*
X272900Y274600D03*
X268500Y271600D03*
X272800Y286300D03*
X268500Y290000D03*
X254890Y421400D03*
X268600Y459700D03*
X272900Y463700D03*
X268653Y502753D03*
X256300Y530600D03*
X262300Y529800D03*
X289440Y65260D03*
X285700Y89600D03*
X326272Y30572D03*
X331650Y71450D03*
X331360Y178700D03*
X334940D03*
X343000Y210800D03*
X315760Y194000D03*
X319340D03*
X331160Y411600D03*
X334740D03*
X315760Y425600D03*
X319340D03*
X341100Y509800D03*
X343000Y499300D03*
X331872Y520172D03*
X335900Y528500D03*
X338200Y526100D03*
X354400Y20200D03*
X367800Y14000D03*
X344200Y37600D03*
X346300Y30572D03*
X365700Y30672D03*
X364600Y62900D03*
X344500D03*
X370250Y70050D03*
X351550Y69850D03*
X359800Y46600D03*
X353918Y157982D03*
X357300Y161700D03*
X350543Y150643D03*
X361200Y166000D03*
X368000Y387100D03*
X370900Y398900D03*
X350543Y378100D03*
X357300Y490339D03*
X370400Y485200D03*
X364400D03*
X353918Y508800D03*
X350506Y503100D03*
X343800Y539500D03*
X361200Y531143D03*
X356202Y528802D03*
X388100Y12500D03*
X388200Y33500D03*
X389000Y17100D03*
X388700Y36500D03*
X388900Y25700D03*
X379800Y19300D03*
X384800Y62600D03*
X389400Y47100D03*
X389600Y153900D03*
X392100Y248500D03*
X396447Y278847D03*
Y258147D03*
X402400Y268600D03*
Y278800D03*
X395900Y298100D03*
X393200Y313200D03*
X393400Y305900D03*
X384700Y304700D03*
X392900Y321600D03*
X374500Y319100D03*
X386900Y353600D03*
X383600D03*
X387000Y359000D03*
X383700D03*
X386900Y356300D03*
X383700Y356400D03*
X394900Y355700D03*
X374400Y356300D03*
X391760Y383360D03*
X382400Y485200D03*
X376300D03*
X414370Y17030D03*
X420800Y46800D03*
X431800Y67400D03*
X429300Y60400D03*
X416480Y89980D03*
X406243Y79900D03*
X419039Y92661D03*
X411361Y83561D03*
X413920Y86780D03*
X421598Y95698D03*
X413664Y126364D03*
Y122036D03*
X408800Y104700D03*
X420628Y122328D03*
X425900Y106200D03*
Y142400D03*
X413900Y157982D03*
X411361Y161639D03*
X408800Y143500D03*
X416480Y153780D03*
X421543Y150643D03*
X406243Y166057D03*
X413460Y252240D03*
X425400Y263600D03*
X420053Y274447D03*
X420800Y308900D03*
X417000Y306800D03*
X419300Y301000D03*
X422000Y286300D03*
X418250Y290250D03*
X419900Y327300D03*
X420100Y331700D03*
X407200Y319000D03*
X421600Y323300D03*
Y319800D03*
X410500Y355700D03*
X413500D03*
X410500Y353000D03*
X413500D03*
X429100Y382100D03*
X429500Y393400D03*
X430300Y399100D03*
X429000Y388200D03*
X406250Y398750D03*
X425800Y378100D03*
X430975Y420225D03*
X430200Y408300D03*
X428700Y404400D03*
X415800Y450300D03*
Y455700D03*
X429300Y447300D03*
X432200Y450800D03*
X425800Y443257D03*
X425400Y490339D03*
X432900Y473000D03*
X424300Y485200D03*
X418500D03*
X412800D03*
X407000D03*
X438900Y14600D03*
X441200Y29700D03*
X458500Y56300D03*
X457600Y65559D03*
X444900Y51100D03*
X435600Y46800D03*
X446000Y73000D03*
X448600Y63700D03*
X451118Y60700D03*
X455200Y85100D03*
X443441Y76341D03*
X449236Y123400D03*
Y127400D03*
X441872Y123928D03*
X455600Y106600D03*
X461200Y104600D03*
X435400Y107000D03*
X435900Y143900D03*
X455300Y142700D03*
X446000Y146800D03*
X461200Y148400D03*
X443441Y154700D03*
X446900Y283200D03*
X460700D03*
X443100Y279500D03*
X459300Y307800D03*
X454100D03*
X449300D03*
X444400Y307700D03*
X459200Y312300D03*
X454000D03*
X449200D03*
X444300Y312200D03*
X441000Y284100D03*
X437000Y284200D03*
X452800D03*
X454700Y301153D03*
X448500Y301200D03*
X459300D03*
X438542Y305642D03*
X438200Y308600D03*
X438600Y311547D03*
X441147Y301400D03*
X459300Y316800D03*
X454100D03*
X459200Y321300D03*
X454000D03*
X449300Y316800D03*
X444400Y316700D03*
X449200Y321300D03*
X444300Y321200D03*
X453000Y328050D03*
X443150Y327350D03*
X438800Y321000D03*
X438653Y317453D03*
X450900Y346700D03*
X448212Y347688D03*
X449800Y357500D03*
X461778Y372000D03*
X449094Y488406D03*
X441700Y475100D03*
X446100Y501400D03*
X439647Y522053D03*
X457100Y520300D03*
X461600D03*
X461778Y503900D03*
X453751Y501460D03*
X457440D03*
X457400Y534200D03*
X451200Y540100D03*
X457100Y523600D03*
X461700D03*
X460616Y535684D03*
X474000Y17600D03*
X485200Y59400D03*
X493000Y74700D03*
X486800Y85200D03*
X463800Y102000D03*
X466300Y99100D03*
X463800Y151700D03*
X466300Y157200D03*
X466600Y283200D03*
X484200Y299800D03*
X475636Y295300D03*
X463600Y301400D03*
X484700Y311100D03*
X483800Y325300D03*
X483525Y313975D03*
X482900Y329300D03*
X465300Y328100D03*
X487300Y328800D03*
X464616Y313516D03*
X464700Y325300D03*
X471398Y344702D03*
X477300Y357600D03*
X465358Y372000D03*
X490300Y410700D03*
X482700Y440600D03*
X472400Y450700D03*
X470080Y435580D03*
X470500Y440600D03*
X472361Y438139D03*
X480206Y520294D03*
X481000Y508800D03*
X466100Y520300D03*
X467900Y508800D03*
X465358Y503900D03*
X466200Y523600D03*
X476500Y541700D03*
X465100Y537300D03*
X479700Y531143D03*
X468143Y533600D03*
X502500Y42800D03*
X514100Y42500D03*
X510300Y23000D03*
X514900Y29900D03*
X507500Y37100D03*
X500500Y22800D03*
X503200Y20300D03*
X494300Y17600D03*
X518220Y40800D03*
X521800D03*
X509700Y57600D03*
X505700Y62700D03*
X496294Y109106D03*
X506160Y180900D03*
X509740D03*
X502420Y197100D03*
X506000D03*
X514660Y200300D03*
X518240D03*
X510200Y291700D03*
X497894Y312900D03*
X504706Y312800D03*
X512600Y298400D03*
X512460Y315600D03*
X516040D03*
X509300Y322600D03*
X504100Y410500D03*
X497200Y410700D03*
X501700Y435600D03*
X495700Y448600D03*
X508900Y470500D03*
X525400Y43200D03*
X540900Y42800D03*
X540600Y23100D03*
X536200Y22600D03*
X531400Y22500D03*
X534200Y36600D03*
X525000Y30000D03*
X523800Y23100D03*
X539400Y38100D03*
X526000Y38200D03*
X549300Y23100D03*
X548700Y40700D03*
X543050Y39550D03*
X524600Y57300D03*
X536100Y56500D03*
X530843Y99800D03*
X545700Y103700D03*
X534584D03*
X540060Y141200D03*
X543640D03*
X526200Y154700D03*
X552740Y167300D03*
X549160D03*
X526160Y252240D03*
X530900Y367500D03*
X534600Y367400D03*
X541400Y475200D03*
X523300Y477400D03*
X538400Y480300D03*
X555800Y42800D03*
X565700Y38500D03*
X576000Y22900D03*
X579900Y36000D03*
X561900Y21500D03*
X556500Y36700D03*
X557100Y22500D03*
X556800Y16600D03*
X581840Y39400D03*
X578260D03*
X571650Y36650D03*
X575100Y38200D03*
X570700Y22400D03*
X565200Y22300D03*
X553800Y22800D03*
X559500Y15600D03*
Y40400D03*
X554900Y57500D03*
X565430Y56730D03*
X571700Y73100D03*
X563250Y72900D03*
X568200Y89980D03*
X556700Y99800D03*
X571700Y111008D03*
X574160Y149100D03*
X562077Y157517D03*
X565657D03*
X577740Y149100D03*
X582560Y140100D03*
X583220Y197900D03*
X569800Y251900D03*
X558900Y240400D03*
X562600Y244300D03*
X566700Y247800D03*
X554700Y237500D03*
X581700Y262300D03*
X577800Y259300D03*
X573600Y256000D03*
X569800Y382100D03*
X562700Y393400D03*
X566700Y399100D03*
X573600Y388200D03*
X581700Y418600D03*
X558900Y408300D03*
X554600Y404400D03*
X577800Y425400D03*
X554400Y468900D03*
X561500D03*
X568700D03*
X591600Y42300D03*
X604300Y36300D03*
X604400Y23100D03*
X598600Y22500D03*
X591000Y36200D03*
X584100Y23100D03*
X593320Y38900D03*
X596900D03*
X607020Y39000D03*
X610600D03*
X599160Y43000D03*
X602740D03*
X585100Y37600D03*
X588000Y41300D03*
X609700Y21900D03*
X585800Y57800D03*
X598400Y57600D03*
X605950Y44050D03*
X583900Y99200D03*
X588000Y86600D03*
X609700Y92661D03*
X589040Y127740D03*
X585460D03*
X611867Y108993D03*
X613000Y118100D03*
X593320Y132600D03*
X596900D03*
X586140Y140100D03*
X605060Y146900D03*
X608640D03*
X597320Y186200D03*
X600900D03*
X612900Y210900D03*
X612100Y216900D03*
X586800Y197900D03*
X590500Y268800D03*
X586000Y264900D03*
X590500Y432700D03*
X586000Y439700D03*
X618200Y43200D03*
X639200Y22300D03*
X640100Y29900D03*
X624400Y23100D03*
X615200Y22600D03*
X620200Y30200D03*
X616600Y39000D03*
X623440Y40300D03*
X641600Y41800D03*
X638325Y41662D03*
X619860Y40300D03*
X635100Y21900D03*
X636300Y39300D03*
X628100Y21600D03*
X638300Y36800D03*
X643220Y37800D03*
X621900Y36800D03*
X617400Y59200D03*
X625000Y57500D03*
X635500Y50000D03*
X638640Y83400D03*
X635060D03*
X632000Y79900D03*
X628100Y83561D03*
X629200Y95698D03*
X615447Y108993D03*
X635620Y132300D03*
X639200D03*
X630947Y117893D03*
X627367D03*
X641049Y155589D03*
X623440Y171400D03*
X619860D03*
X613700Y214500D03*
X626820Y207300D03*
X630400D03*
X624500Y200900D03*
X620920D03*
X635460Y276672D03*
X639040D03*
X627520Y276900D03*
X631100D03*
X626100Y281700D03*
X622520D03*
X635100Y309600D03*
X624300Y304800D03*
X635100Y291400D03*
X637352Y313525D03*
X640608Y313600D03*
X640700Y322400D03*
X636400Y326701D03*
Y335300D03*
X625412Y327888D03*
X628600Y327500D03*
X643000Y364747D03*
X627700Y344400D03*
X623000Y363500D03*
Y360200D03*
X625994Y390894D03*
X623700Y389400D03*
X637500Y391300D03*
X628800Y412900D03*
X623700Y412600D03*
X635300D03*
X640000Y411700D03*
X638497Y442700D03*
X634753D03*
X642828Y487872D03*
X648300Y43100D03*
X660400Y42700D03*
X666000Y37100D03*
X656200Y23000D03*
X656400Y36400D03*
X644200Y22700D03*
X655620Y39300D03*
X659200D03*
X647100Y17900D03*
X656500Y18200D03*
X646800Y37800D03*
X663820Y42600D03*
X667400D03*
X643700Y57400D03*
X660900Y56600D03*
X670700Y57700D03*
X655660Y89900D03*
X659240D03*
X651000Y89600D03*
X653900Y76341D03*
X648800Y93100D03*
X661060Y78500D03*
X645220Y93100D03*
X664640Y78500D03*
X663660Y130000D03*
X647249Y124611D03*
X650829D03*
X667240Y130000D03*
X671660Y133800D03*
X644629Y155589D03*
X651476Y155700D03*
X655056D03*
X650300Y310200D03*
X665500Y309800D03*
X665453Y291147D03*
X650553Y291047D03*
X649800Y322400D03*
X672000Y315400D03*
X659600Y316200D03*
X664300Y335700D03*
X654800Y338100D03*
X655200Y353600D03*
X669500Y354200D03*
X664700Y353800D03*
X672700Y361200D03*
X643800Y358900D03*
X645032Y382232D03*
X659200Y383500D03*
X664900Y382900D03*
X643700Y373300D03*
X648750Y432950D03*
X668382Y420860D03*
X664802D03*
X660500Y419900D03*
X657731Y417600D03*
X665600Y449300D03*
X660000Y449000D03*
Y455000D03*
X653100Y449200D03*
X652706Y455100D03*
X665800Y455800D03*
X664657Y467300D03*
X650600Y480500D03*
X653900D03*
X666300Y480300D03*
X647500Y480500D03*
X662128Y487872D03*
X657972D03*
X659957Y465700D03*
X676500Y42000D03*
X684000Y42700D03*
X696100Y42200D03*
X694000Y36900D03*
X686400Y37000D03*
X696000Y23100D03*
X684400Y22600D03*
X675900Y22000D03*
X674700Y37100D03*
X688260Y40400D03*
X691840D03*
X685400Y57200D03*
X689260Y91500D03*
X692840D03*
X675240Y133800D03*
X680760Y175100D03*
X684340D03*
X689360Y188700D03*
X692940D03*
X691700Y207400D03*
X697300Y204800D03*
X699000Y201700D03*
X695220Y209500D03*
X697300Y212200D03*
X691700Y281300D03*
X679200Y311300D03*
X681300Y291100D03*
X681312Y308200D03*
X690750Y317250D03*
X690744Y337826D03*
X687000D03*
X688300Y326700D03*
X676728Y340372D03*
X673400Y357800D03*
X684844Y377600D03*
X681100D03*
X689106Y390194D03*
X693200Y391700D03*
X679700Y391800D03*
X689137Y414500D03*
X693500Y414000D03*
X681263Y414337D03*
X676400Y412600D03*
X704500Y16600D03*
X723400Y17000D03*
X726450Y21250D03*
X723400Y63200D03*
X726500Y65900D03*
X715700Y99200D03*
X713000Y76200D03*
X719700Y86600D03*
X721860Y104200D03*
X725440D03*
X733200Y107300D03*
X704860Y140200D03*
X708440D03*
X715700Y139800D03*
X719700Y136900D03*
X716260Y194800D03*
X719840D03*
X721960Y274708D03*
X725540D03*
X709760Y279500D03*
X713340D03*
X722200Y309600D03*
X715960Y284900D03*
X711400Y304800D03*
X719540Y284900D03*
X722200Y291400D03*
X724452Y313525D03*
X727708Y313600D03*
X712512Y327888D03*
X715700Y327500D03*
X727800Y322400D03*
X723500Y326701D03*
Y335300D03*
X730100Y364747D03*
X730900Y358900D03*
X714800Y344400D03*
X711223Y358452D03*
X711500Y362500D03*
X730400Y373400D03*
X715600Y390600D03*
X712600Y389400D03*
X724400Y391400D03*
X714900Y413600D03*
X713387Y415920D03*
X720637Y413837D03*
X726000Y411900D03*
X725597Y442700D03*
X721853D03*
X729928Y487872D03*
X758850Y40200D03*
X747200Y66500D03*
X761550Y53500D03*
X744900Y64600D03*
X742200Y63000D03*
X750100Y64700D03*
X753000Y67300D03*
X758800Y72200D03*
X755800Y69700D03*
X733600Y70500D03*
X737600Y68400D03*
X763000Y43800D03*
X742200Y104300D03*
X747200Y207400D03*
X744700Y204800D03*
X742200Y201700D03*
X750100Y209500D03*
X753000Y212200D03*
X758800Y216900D03*
X755800Y214500D03*
X762900Y276100D03*
X737400Y310200D03*
X752600Y309800D03*
X752553Y291147D03*
X737653Y291047D03*
X759100Y315400D03*
X736900Y322400D03*
X746700Y316200D03*
X751400Y335700D03*
X741900Y338100D03*
X742300Y353600D03*
X760500Y357800D03*
X756600Y354200D03*
X751800Y353800D03*
X759800Y361200D03*
X733300Y382300D03*
X746300Y383500D03*
X752000Y382900D03*
X755800Y396900D03*
X735850Y432950D03*
X755492Y422211D03*
X751912D03*
X762800Y413600D03*
X744831Y420400D03*
X747600Y420300D03*
X751500Y448100D03*
X747100Y449000D03*
Y455000D03*
X740200Y449200D03*
X739806Y455100D03*
X752900Y455800D03*
X751757Y467300D03*
X737700Y480500D03*
X741000D03*
X753400Y480300D03*
X734600Y480500D03*
X749228Y487872D03*
X745072D03*
X747057Y465700D03*
X786300Y31900D03*
X788979Y35200D03*
X768700Y49100D03*
X765900Y50928D03*
X783400Y90100D03*
X771300Y78700D03*
X764500Y87500D03*
X779200Y86300D03*
X775600Y76600D03*
X791819Y149630D03*
X783400Y207300D03*
X772600Y217200D03*
X779200Y210000D03*
X775600Y214200D03*
X773800Y278200D03*
X784000Y268800D03*
X786900Y264900D03*
X766300Y311300D03*
X768400Y291100D03*
X768412Y308200D03*
X777250Y316700D03*
X777844Y337826D03*
X774100D03*
X766200Y319000D03*
X775400Y326700D03*
X763828Y340372D03*
X771944Y377600D03*
X768200D03*
X776206Y390194D03*
X780500Y391600D03*
X767000Y392000D03*
X776237Y414300D03*
X781100Y414100D03*
X768363Y414337D03*
X821600Y42100D03*
X794800Y40800D03*
X810300Y22400D03*
X816800D03*
X800500Y17300D03*
X809414Y40900D03*
X794800Y61500D03*
X823000Y54500D03*
X820500Y62200D03*
X820100Y67300D03*
X820400Y72200D03*
X823000Y69700D03*
X817900Y51300D03*
X818500Y76400D03*
X810460Y116700D03*
X814040D03*
X801020Y149100D03*
X804600D03*
X795399Y149408D03*
X810460Y274500D03*
X814040D03*
X797560Y277973D03*
X801140D03*
X810000Y309600D03*
X799200Y304800D03*
X802920Y283400D03*
X806500D03*
X810000Y291400D03*
X812252Y313525D03*
X815508Y313600D03*
X815600Y322400D03*
X811300Y326701D03*
Y335300D03*
X800312Y327888D03*
X803500Y327500D03*
X818597Y364820D03*
X818950Y359150D03*
X802600Y344400D03*
X797700Y358800D03*
X798500Y362900D03*
X819600Y382700D03*
X818100Y373500D03*
X800894Y390894D03*
X798600Y388900D03*
X812200Y391400D03*
X800563Y413100D03*
X798100Y415400D03*
X808437Y413837D03*
X813700Y411900D03*
X813397Y442700D03*
X809653D03*
X822400Y480500D03*
X817728Y487872D03*
X842200Y25600D03*
X839300Y28800D03*
X829300Y20200D03*
X834500Y49200D03*
X839600Y72800D03*
X833300Y67600D03*
X836100Y70200D03*
X828100Y64800D03*
X830800Y62600D03*
X829100Y57061D03*
X823400Y59600D03*
X823800Y64700D03*
X840200Y80700D03*
Y196900D03*
X843900Y193900D03*
X833300Y203800D03*
X836100Y200200D03*
X850200Y274600D03*
X825200Y310200D03*
X840400Y309800D03*
X840353Y291147D03*
X825453Y291047D03*
X824700Y322400D03*
X852700Y318400D03*
X846900Y315400D03*
X851628Y340372D03*
X834500Y316200D03*
X839200Y335700D03*
X829700Y338100D03*
X830100Y353600D03*
X848300Y357800D03*
X844400Y354200D03*
X839600Y353800D03*
X847600Y361200D03*
X834100Y383500D03*
X839800Y382900D03*
X843800Y397100D03*
X823650Y432950D03*
X843282Y421760D03*
X839702D03*
X849500Y413600D03*
X832631Y419500D03*
X835400Y419400D03*
X838900Y447700D03*
X834900Y449000D03*
Y455000D03*
X828000Y449200D03*
X827606Y455100D03*
X840700Y455800D03*
X839557Y467300D03*
X825500Y480500D03*
X828800D03*
X841200Y480300D03*
X837028Y487872D03*
X832872D03*
X834857Y465700D03*
X862500Y9200D03*
X858800Y40200D03*
X873400Y20300D03*
X867000Y20700D03*
X866900Y40900D03*
X857400Y15000D03*
X873200Y39600D03*
X858800Y60500D03*
X882143Y52243D03*
X873314Y80386D03*
X867000Y85300D03*
X863100Y82400D03*
X880800Y81600D03*
X867000Y191400D03*
X863100Y188000D03*
X881000Y182100D03*
X866900Y217200D03*
Y283200D03*
X871400Y262300D03*
X873500Y259300D03*
X854100Y311300D03*
X856200Y291100D03*
X856212Y308200D03*
X865100Y316600D03*
X865644Y337826D03*
X861900D03*
X863200Y326700D03*
X859744Y377600D03*
X856000D03*
X864006Y390194D03*
X867800Y391600D03*
X855600Y391900D03*
X864037Y414200D03*
X867600Y413800D03*
X856163Y414337D03*
X906000Y32700D03*
X884300Y68200D03*
X888400Y65200D03*
X892800Y63300D03*
X884300Y184900D03*
X888400Y179600D03*
X892800Y176900D03*
X904700Y173300D03*
X913000Y171700D03*
X901120Y173300D03*
X909420Y171700D03*
X904800Y203800D03*
X905300Y200200D03*
X912360Y281116D03*
X913100Y358700D03*
X941800Y9200D03*
X917500Y38800D03*
X913600Y21700D03*
X930900Y67000D03*
X937400D03*
X918580Y87300D03*
X922200Y91200D03*
X925047Y86400D03*
X929514Y122086D03*
X925934D03*
X918580Y173600D03*
X922200Y170500D03*
X930040Y279400D03*
X926460D03*
X915940Y281116D03*
X922840Y274700D03*
X919260D03*
X925000Y309600D03*
X940200Y310200D03*
X914200Y304800D03*
X925000Y291400D03*
X940453Y291047D03*
X930508Y313600D03*
X927252Y313525D03*
X939700Y322400D03*
X930600D03*
X926300Y326701D03*
Y335300D03*
X915312Y327888D03*
X918500Y327500D03*
X932900Y364747D03*
X933400Y372600D03*
X933300Y358500D03*
X917600Y344400D03*
X913500Y362400D03*
X935800Y382800D03*
X915894Y390894D03*
X913600Y388600D03*
X927200Y391400D03*
X915563Y413300D03*
X938650Y432950D03*
X913283Y414983D03*
X923437Y413837D03*
X928600Y411700D03*
X928397Y442700D03*
X924653D03*
X943000Y449200D03*
X942606Y455100D03*
X940500Y480500D03*
X937400D03*
X932728Y487872D03*
X943600Y67000D03*
X972500Y102000D03*
X949100Y80900D03*
X971840Y94700D03*
X968260D03*
X972800Y115300D03*
X967020Y197000D03*
X972700Y193900D03*
X967020Y276280D03*
X955400Y309800D03*
X969100Y311300D03*
X971200Y291100D03*
X955353Y291147D03*
X971212Y308200D03*
X967200Y318000D03*
X961900Y315400D03*
X966628Y340372D03*
X949500Y316200D03*
X944700Y338100D03*
X954200Y335700D03*
X945100Y353600D03*
X954600Y353800D03*
X959400Y354200D03*
X963300Y357800D03*
X962600Y361200D03*
X971000Y377600D03*
X954800Y382900D03*
X949100Y383500D03*
X969800Y392000D03*
X957800Y397700D03*
X958282Y421860D03*
X954702D03*
X971163Y414337D03*
X965300Y412300D03*
X950400Y418600D03*
X947631Y418400D03*
X954150Y447950D03*
X949900Y449000D03*
Y455000D03*
X955700Y455800D03*
X954557Y467300D03*
X943800Y480500D03*
X956200Y480300D03*
X952028Y487872D03*
X947872D03*
X949857Y465700D03*
X977860Y98700D03*
X981549D03*
X993100Y191400D03*
X993600Y188000D03*
X990240Y165460D03*
X997060Y164100D03*
X986660Y165460D03*
X1000640Y164100D03*
X981600Y214200D03*
X989900Y251900D03*
X981600Y278800D03*
X1002240Y276000D03*
X998660D03*
X987000Y256000D03*
X1002000Y304800D03*
X981950Y326450D03*
X1003112Y327888D03*
X980644Y337826D03*
X976900D03*
X978200Y326700D03*
X1000600Y362100D03*
X1000400Y359000D03*
X974744Y377600D03*
X977800Y391100D03*
X983200Y391500D03*
X1000300Y391400D03*
X976800Y413800D03*
X983200Y413700D03*
X1000600Y415300D03*
X1012500Y126600D03*
X1008920D03*
X1014800Y273400D03*
X1011220D03*
X1005860Y282416D03*
X1009440D03*
X1012800Y309600D03*
X1028000Y310200D03*
X1012800Y291400D03*
X1028253Y291047D03*
X1018308Y313600D03*
X1015052Y313525D03*
X1006300Y327500D03*
X1027500Y322400D03*
X1018400D03*
X1014100Y326701D03*
Y335300D03*
X1032500Y338100D03*
X1003800Y369300D03*
X1020700Y364747D03*
X1032900Y353600D03*
X1021750Y358650D03*
X1005400Y344400D03*
X1023900Y382800D03*
X1021000Y373400D03*
X1003694Y390894D03*
X1015100Y391200D03*
X1003363Y413200D03*
X1026450Y432950D03*
X1011237Y413837D03*
X1016400Y412500D03*
X1016197Y442700D03*
X1012453D03*
X1030800Y449200D03*
X1030406Y455100D03*
X1025200Y480500D03*
X1028300D03*
X1031600D03*
X1020528Y487872D03*
X1057200Y39900D03*
X1057700Y21700D03*
X1035400Y25300D03*
X1038000Y81600D03*
X1054500Y184900D03*
X1060000Y182100D03*
X1054500Y276700D03*
X1043200Y309800D03*
X1056900Y311300D03*
X1059000Y291100D03*
X1043153Y291147D03*
X1059012Y308200D03*
X1054500Y316050D03*
X1049700Y315400D03*
X1054428Y340372D03*
X1037300Y316200D03*
X1042000Y335700D03*
X1042400Y353800D03*
X1047200Y354200D03*
X1051100Y357800D03*
X1050400Y361200D03*
X1062544Y377600D03*
X1058800D03*
X1042600Y382900D03*
X1036900Y383500D03*
X1057600Y391900D03*
X1045200Y398100D03*
X1046082Y419892D03*
X1042502D03*
X1058963Y414337D03*
X1053400Y412500D03*
X1038200Y419300D03*
X1035431D03*
X1041750Y447750D03*
X1037700Y449000D03*
Y455000D03*
X1043500Y455800D03*
X1042357Y467300D03*
X1044000Y480300D03*
X1039828Y487872D03*
X1035672D03*
X1037657Y465700D03*
X1067600Y68700D03*
X1090660Y159800D03*
X1076600Y179600D03*
X1080400Y176900D03*
X1081560Y164500D03*
X1085140D03*
X1069500Y210000D03*
X1076400Y244300D03*
X1074000Y247800D03*
X1069500Y281700D03*
X1087060Y275800D03*
X1090640D03*
X1088900Y304400D03*
X1069750Y326550D03*
X1066000Y326700D03*
X1090012Y327488D03*
X1093200Y327100D03*
X1068444Y337826D03*
X1064700D03*
X1092300Y344000D03*
X1087100Y357800D03*
X1087300Y361200D03*
X1066806Y390194D03*
X1071400Y391900D03*
X1087600Y391100D03*
X1092200Y390800D03*
X1066837Y414300D03*
X1090263Y413437D03*
X1071700Y413200D03*
X1087900Y415400D03*
X1105447Y62447D03*
X1095500Y62600D03*
X1100100Y60800D03*
X1105000Y84600D03*
X1105950Y105650D03*
X1106925Y140595D03*
X1110740Y139500D03*
X1094240Y159800D03*
X1105685Y276200D03*
X1109265D03*
X1095760Y280960D03*
X1099340D03*
X1101952Y313125D03*
X1105208Y313200D03*
X1099700Y309200D03*
X1114900Y309800D03*
X1099700Y291000D03*
X1115153Y290647D03*
X1105300Y322000D03*
X1114400D03*
X1101000Y334900D03*
Y326301D03*
X1119400Y337700D03*
X1119800Y353200D03*
X1107600Y364347D03*
X1108100Y372700D03*
X1108400Y358500D03*
X1097406Y390906D03*
X1110400Y382000D03*
X1102400Y391400D03*
X1113350Y432950D03*
X1104000Y411700D03*
X1098137Y413363D03*
X1122300Y418425D03*
X1103097Y442700D03*
X1099353D03*
X1117700Y449200D03*
X1117306Y455100D03*
X1115200Y480500D03*
X1118500D03*
X1112100D03*
X1122572Y487872D03*
X1107428D03*
X1133147Y62453D03*
X1123553Y62653D03*
X1151053Y62447D03*
X1123300Y84200D03*
X1131800Y84000D03*
X1123398Y89598D03*
X1149002Y89398D03*
X1151800Y84100D03*
X1124900Y99500D03*
X1124100Y107400D03*
X1151200Y107100D03*
X1133200Y105800D03*
X1140700Y173600D03*
Y275800D03*
X1130100Y309400D03*
X1143800Y310900D03*
X1145900Y290700D03*
X1130053Y290747D03*
X1145912Y307800D03*
X1151600Y337426D03*
X1140700Y315500D03*
X1152900Y326300D03*
X1136600Y315000D03*
X1141328Y339972D03*
X1124200Y315800D03*
X1128900Y335300D03*
X1134100Y353800D03*
X1138000Y357400D03*
X1129300Y353400D03*
X1137300Y360800D03*
X1149444Y377200D03*
X1145700D03*
X1123800Y383100D03*
X1129500Y382500D03*
X1145700Y391800D03*
X1132050Y398850D03*
X1151800Y413900D03*
X1129402Y419892D03*
X1132982D03*
X1141500Y413200D03*
X1145863Y413937D03*
X1125100Y419800D03*
X1128500Y447600D03*
X1124600Y449000D03*
Y455000D03*
X1130400Y455800D03*
X1129257Y467300D03*
X1130900Y480300D03*
X1126728Y487872D03*
X1124557Y465700D03*
X1159900Y170500D03*
X1155900Y207300D03*
X1162900Y240400D03*
X1166200Y237500D03*
X1155900Y282700D03*
X1156650Y326250D03*
X1155344Y337426D03*
X1157300Y391700D03*
X1153706Y391206D03*
X1156800Y414400D03*
X1186700Y69100D03*
G54D30*
X964900Y43795D03*
X1009900D03*
G54D12*
X70100Y29369D03*
Y52991D03*
G54D21*
X370100Y352800D03*
G54D13*
X88604Y41180D03*
G54D31*
X956475Y55803D03*
X1018325D03*
G54D22*
X456000Y228400D03*
X459507D03*
X485941Y230248D03*
X490000Y230800D03*
X501521Y236200D03*
X498014D03*
X643343Y235350D03*
X646850D03*
X643636Y277539D03*
X647143D03*
X643431Y317600D03*
X647100D03*
X730293Y235000D03*
X730393Y275400D03*
X730531Y317600D03*
X733800Y235000D03*
X733900Y275400D03*
X734200Y317600D03*
X820994Y232493D03*
X817487D03*
X821607Y274044D03*
X818100D03*
X822000Y317600D03*
X818331D03*
X933297Y232703D03*
X936804D03*
X933293Y282097D03*
X936800D03*
X933331Y317600D03*
X937000D03*
X1025106Y228402D03*
X1021599D03*
X1024491Y276800D03*
X1020984D03*
X1024800Y317600D03*
X1021131D03*
X1114700Y226400D03*
X1111193D03*
X1114500Y279400D03*
X1110993D03*
X1111700Y317200D03*
X1108031D03*
G54D32*
X969900Y68795D03*
X999900D03*
X989900D03*
X979900D03*
X994900Y78795D03*
X984900D03*
X974900D03*
X1009900Y68795D03*
X1004900Y78795D03*
G54D14*
X76400Y249400D03*
X76300Y263400D03*
X113200Y142100D03*
X131700D03*
X143000Y400000D03*
X155000D03*
Y388000D03*
X143000D03*
X179300Y95000D03*
Y119700D03*
X222000Y15700D03*
X222200Y29300D03*
X197100Y119500D03*
X200100Y192800D03*
X200200Y178800D03*
X200100Y249700D03*
X200000Y263700D03*
X369300Y438700D03*
X397900Y418000D03*
X384000D03*
X397900Y431900D03*
X384000D03*
X397900Y445800D03*
X383900D03*
X397900Y459700D03*
X383800D03*
X422100Y357500D03*
X422000Y371200D03*
X494200Y348100D03*
X494100Y361800D03*
X508700Y348100D03*
X508600Y361800D03*
X522000Y432400D03*
Y418500D03*
Y460200D03*
Y446300D03*
X508100Y438900D03*
X534700Y432600D03*
Y418700D03*
Y460400D03*
Y446500D03*
X699100Y373500D03*
Y360900D03*
Y386000D03*
X786500Y373500D03*
X786600Y360900D03*
Y386000D03*
X881300Y373500D03*
Y360900D03*
Y386000D03*
X908600Y66400D03*
X908000Y50200D03*
X989000Y373500D03*
Y360900D03*
Y386000D03*
X1069800Y42500D03*
X1069400Y29800D03*
X1069700Y55200D03*
X1077100Y373500D03*
Y360900D03*
Y386000D03*
X1108300Y123100D03*
X1120500Y123000D03*
Y136700D03*
X1136000Y141900D03*
X1148300Y141600D03*
X1148400Y155200D03*
X1170000Y42500D03*
X1183100Y42200D03*
X1169900Y55200D03*
X1171200Y373500D03*
Y360900D03*
X1171300Y386000D03*
G54D23*
X492953Y52008D03*
X707047Y40000D03*
G54D15*
X133974Y38800D03*
G54D33*
X964900Y78795D03*
G54D24*
X639400Y300500D03*
X624000Y300600D03*
X627300Y316300D03*
X625800Y369500D03*
X628000Y354500D03*
X642800Y354000D03*
X625900Y366300D03*
X626100Y357600D03*
X625900Y372600D03*
X626000Y378800D03*
X632806Y390506D03*
X639069Y466700D03*
X642519Y467000D03*
X654700Y300400D03*
X670000D03*
X664200Y338900D03*
X667800Y315500D03*
X656000Y342100D03*
X654500Y327300D03*
X643700Y332600D03*
X646500D03*
X643700Y329800D03*
X646600D03*
Y332500D03*
Y329700D03*
X656118Y344803D03*
X647500Y354100D03*
X657400Y347400D03*
X643800Y362000D03*
X655200Y365000D03*
X658100D03*
X661000Y364900D03*
X661100Y367800D03*
X658200Y367900D03*
X655300D03*
Y370700D03*
X658100D03*
X661000Y370600D03*
X663200Y400800D03*
X656900Y400900D03*
X662000Y381800D03*
X667900Y393600D03*
X643500Y376800D03*
X656700Y381900D03*
X672389Y376010D03*
X672300Y462900D03*
X643300Y447300D03*
X645894Y465706D03*
X671100Y466800D03*
X685906Y352500D03*
X675100Y343094D03*
X685906Y369400D03*
X680664Y352364D03*
X676600Y372300D03*
X683500Y391000D03*
X674400Y374200D03*
X673100Y448700D03*
X726500Y300500D03*
X711100Y300600D03*
X714400Y316300D03*
X730800Y332600D03*
Y329800D03*
X712900Y369500D03*
X715100Y354500D03*
X729800Y354300D03*
X713000Y366300D03*
X713700Y357100D03*
X713000Y372600D03*
X730900Y362000D03*
X713100Y378800D03*
X719906Y390506D03*
X730500Y376800D03*
X730400Y447300D03*
X732994Y465706D03*
X726169Y466700D03*
X729619Y467000D03*
X741800Y300400D03*
X757100D03*
X751300Y338900D03*
X754900Y315500D03*
X743100Y342100D03*
X741600Y327300D03*
X733600Y332600D03*
X733700Y329800D03*
X743218Y344803D03*
X734600Y354100D03*
X760700Y344400D03*
X744500Y347400D03*
X742200Y364700D03*
X745100D03*
X748000Y364600D03*
X748100Y367500D03*
X745200Y367600D03*
X742300D03*
Y370400D03*
X745100D03*
X748000Y370300D03*
X750300Y400800D03*
X744000Y400900D03*
X749100Y381800D03*
X755000Y393600D03*
X743800Y381900D03*
X759489Y376010D03*
X761500Y374200D03*
X759400Y462900D03*
X760200Y448700D03*
X758200Y466800D03*
X773006Y352300D03*
Y369400D03*
X767764Y352364D03*
X763700Y372300D03*
X770800Y391100D03*
X814300Y300500D03*
X798900Y300600D03*
X802200Y316300D03*
X818600Y332600D03*
X821400D03*
X818600Y329800D03*
X821500D03*
X800700Y369500D03*
X802900Y354500D03*
X822400Y354100D03*
X817800D03*
X800800Y366300D03*
Y372600D03*
X799200Y356100D03*
X818700Y362000D03*
X800900Y378800D03*
X807706Y390506D03*
X818800Y378100D03*
X818200Y447300D03*
X820794Y465706D03*
X813969Y466700D03*
X817419Y467000D03*
X829600Y300400D03*
X844900D03*
X839100Y338900D03*
X842700Y315500D03*
X830900Y342100D03*
X829400Y327300D03*
X831018Y344803D03*
X848500Y344400D03*
X832300Y347400D03*
X851500Y372300D03*
X830100Y364700D03*
X833000D03*
X835900Y364600D03*
X836000Y367500D03*
X833100Y367600D03*
X830200D03*
Y370400D03*
X833000D03*
X835900Y370300D03*
X838100Y400800D03*
X831800Y400900D03*
X836900Y381800D03*
X842800Y393600D03*
X831600Y381900D03*
X847289Y376010D03*
X849300Y374200D03*
X847200Y462900D03*
X848000Y448700D03*
X846000Y466800D03*
X866700Y357800D03*
X866800Y364300D03*
X855564Y352364D03*
X860600Y389200D03*
X929300Y300500D03*
X913900Y300600D03*
X917200Y316300D03*
X933600Y332600D03*
X936400D03*
X933600Y329800D03*
X936500D03*
X915700Y369500D03*
X917900Y354500D03*
X937400Y354100D03*
X932800Y354000D03*
X915800Y366300D03*
X915700Y357400D03*
X915800Y372600D03*
X933700Y362000D03*
X915900Y378800D03*
X922706Y390506D03*
X933600Y376100D03*
X933200Y447300D03*
X935794Y465706D03*
X928969Y466700D03*
X932419Y467000D03*
X944600Y300400D03*
X959900D03*
X954100Y338900D03*
X957700Y315500D03*
X945900Y342100D03*
X944400Y327300D03*
X946018Y344803D03*
X963500Y344400D03*
X970564Y352364D03*
X947300Y347400D03*
X966500Y372300D03*
X945200Y364700D03*
X948100D03*
X951000Y364600D03*
X951100Y367500D03*
X948200Y367600D03*
X945300D03*
Y370400D03*
X948100D03*
X951000Y370300D03*
X953100Y400800D03*
X946800Y400900D03*
X951900Y381800D03*
X957800Y393600D03*
X946600Y381900D03*
X962289Y376010D03*
X964300Y374200D03*
X962200Y462900D03*
X963000Y448700D03*
X961000Y466800D03*
X1001700Y300600D03*
X975806Y352300D03*
Y369300D03*
X973600Y390800D03*
X1032400Y300400D03*
X1017100Y300500D03*
X1005000Y316300D03*
X1032200Y327300D03*
X1021400Y332600D03*
X1024200D03*
X1021400Y329800D03*
X1024300D03*
X1005700Y354500D03*
X1025200Y354100D03*
X1020600Y354000D03*
X1003600Y366300D03*
X1003900Y357100D03*
X1003600Y372600D03*
X1021500Y362000D03*
X1032900Y364800D03*
X1033000Y367700D03*
Y370500D03*
X1003700Y378800D03*
X1010506Y390506D03*
X1021700Y378500D03*
X1021000Y447300D03*
X1023594Y465706D03*
X1016769Y466700D03*
X1020219Y467000D03*
X1047700Y300400D03*
X1041900Y338900D03*
X1045500Y315500D03*
X1033700Y342100D03*
X1033818Y344803D03*
X1051300Y344400D03*
X1058364Y352364D03*
X1035100Y347400D03*
X1054300Y372300D03*
X1035800Y364800D03*
X1038700Y364700D03*
X1038800Y367600D03*
X1035900Y367700D03*
X1035800Y370500D03*
X1038700Y370400D03*
X1040900Y400800D03*
X1034600Y400900D03*
X1061600Y390900D03*
X1039700Y381800D03*
X1045600Y393600D03*
X1034400Y381900D03*
X1050089Y376010D03*
X1052100Y374200D03*
X1050000Y462900D03*
X1050800Y448700D03*
X1048800Y466800D03*
X1088600Y300200D03*
X1063606Y352600D03*
Y369300D03*
X1090400Y369100D03*
X1092600Y354100D03*
X1090500Y365900D03*
Y372200D03*
X1089700Y356500D03*
X1090600Y378400D03*
X1104000Y300100D03*
X1119300Y300000D03*
X1108500Y332600D03*
X1111300D03*
X1108500Y329800D03*
X1111400D03*
X1096500Y315500D03*
X1120600Y341700D03*
X1119100Y326900D03*
X1120000Y364700D03*
X1122900D03*
X1123000Y367600D03*
X1120100D03*
Y370400D03*
X1122900D03*
X1108400Y361600D03*
X1107300Y353700D03*
X1112100D03*
X1122000Y347000D03*
X1120718Y344403D03*
X1108000Y377300D03*
X1121300Y381500D03*
X1121500Y400500D03*
X1107900Y447300D03*
X1110494Y465706D03*
X1103669Y466700D03*
X1107119Y467000D03*
X1134600Y300000D03*
X1128800Y338500D03*
X1132400Y315100D03*
X1125800Y364600D03*
X1125900Y367500D03*
X1125800Y370300D03*
X1141200Y371900D03*
X1138200Y344000D03*
X1146827Y349755D03*
X1145264Y351964D03*
X1150506Y369000D03*
X1126600Y381400D03*
X1139000Y373800D03*
X1136989Y375610D03*
X1127800Y400400D03*
X1132500Y393200D03*
X1149700Y391200D03*
X1136900Y462900D03*
X1137700Y448700D03*
X1135700Y466800D03*
G54D25*
X637202Y432991D03*
X628049Y451101D03*
Y470786D03*
Y489290D03*
X656100Y432991D03*
X674998D03*
X684151Y451101D03*
Y489290D03*
Y470786D03*
X724302Y432991D03*
X715149Y451101D03*
Y470786D03*
Y489290D03*
X743200Y432991D03*
X762098D03*
X771251Y451101D03*
Y489290D03*
Y470786D03*
X812102Y432991D03*
X802949Y451101D03*
Y470786D03*
Y489290D03*
X831000Y432991D03*
X849898D03*
X859051Y451101D03*
Y489290D03*
Y470786D03*
X927102Y432991D03*
X917949Y451101D03*
Y470786D03*
Y489290D03*
X946000Y432991D03*
X964898D03*
X974051Y451101D03*
Y489290D03*
Y470786D03*
X1014902Y432991D03*
X1033800D03*
X1005749Y451101D03*
Y470786D03*
Y489290D03*
X1052698Y432991D03*
X1061851Y451101D03*
Y489290D03*
Y470786D03*
X1092649Y451101D03*
Y470786D03*
Y489290D03*
X1101802Y432991D03*
X1120700D03*
X1139598D03*
X1148751Y451101D03*
Y489290D03*
Y470786D03*
G54D16*
X130800Y551300D03*
X247200D03*
X342700D03*
X459100D03*
G54D34*
X1077200Y76500D03*
X1087200D03*
X1077200Y96000D03*
X1087200D03*
X1086800Y122300D03*
X1076800D03*
X1086900Y146600D03*
X1076900D03*
X1115400Y36100D03*
Y26100D03*
X1105400Y36100D03*
Y26100D03*
X1095400Y36100D03*
Y26100D03*
X1145400Y36100D03*
Y26100D03*
X1135400Y36100D03*
Y26100D03*
X1125400Y36100D03*
Y26100D03*
X1178300Y76500D03*
X1168300D03*
X1178400Y96000D03*
X1168400D03*
X1178500Y122300D03*
X1168500D03*
X1178400Y146600D03*
X1168400D03*
G54D35*
G01X76400Y245450D02*
Y249400D01*
G01D02*
Y253350D01*
G01X72450Y249400D02*
X76400D01*
G01D02*
X80350D01*
G01X131700Y138150D02*
Y142100D01*
G01D02*
Y146050D01*
G01X127750Y142100D02*
X131700D01*
G01D02*
X135650D01*
G01X130800Y547846D02*
Y551300D01*
G01D02*
Y554754D01*
G01X127346Y551300D02*
X130800D01*
G01D02*
X134254D01*
G01X120800Y564663D02*
Y571300D01*
G01D02*
Y577937D01*
G01X114163Y571300D02*
X120800D01*
G01D02*
X127437D01*
G01X155000Y384050D02*
Y388000D01*
G01D02*
Y391950D01*
G01X151050Y388000D02*
X155000D01*
G01D02*
X158950D01*
G01X143000Y384050D02*
Y388000D01*
G01D02*
Y391950D01*
G01X139050Y388000D02*
X143000D01*
G01D02*
X146950D01*
G01X160800Y564663D02*
Y571300D01*
G01D02*
Y577937D01*
G01X154163Y571300D02*
X160800D01*
G01D02*
X167437D01*
G01X218050Y15700D02*
X222000D01*
G01X197100Y115550D02*
Y119500D01*
G01D02*
Y123450D01*
G01X193150Y119500D02*
X197100D01*
G01D02*
X201050D01*
G01X200200Y174850D02*
Y178800D01*
G01D02*
Y182750D01*
G01X196250Y178800D02*
X200200D01*
G01D02*
X204150D01*
G01X200100Y245750D02*
Y249700D01*
G01D02*
Y253650D01*
G01X196150Y249700D02*
X200100D01*
G01D02*
X204050D01*
G01X222000Y11750D02*
Y15700D01*
G01D02*
Y19650D01*
G01Y15700D02*
X225950D01*
G01X247200Y547846D02*
Y551300D01*
G01D02*
Y554754D01*
G01X243746Y551300D02*
X247200D01*
G01D02*
X250654D01*
G01X237200Y564663D02*
Y571300D01*
G01D02*
Y577937D01*
G01X230563Y571300D02*
X237200D01*
G01D02*
X243837D01*
G01X277200Y564663D02*
Y571300D01*
G01D02*
Y577937D01*
G01X270563Y571300D02*
X277200D01*
G01D02*
X283837D01*
G01X339246Y551300D02*
X342700D01*
G01X332700Y564663D02*
Y571300D01*
G01D02*
Y577937D01*
G01X326063Y571300D02*
X332700D01*
G01D02*
X339337D01*
G01X369300Y434750D02*
Y438700D01*
G01D02*
Y442650D01*
G01X365350Y438700D02*
X369300D01*
G01D02*
X373250D01*
G01X342700Y547846D02*
Y551300D01*
G01D02*
Y554754D01*
G01Y551300D02*
X346154D01*
G01X366063Y571300D02*
X372700D01*
G01Y564663D02*
Y571300D01*
G01D02*
Y577937D01*
G01Y571300D02*
X379337D01*
G01X422000Y367250D02*
Y371200D01*
G01D02*
Y375150D01*
G01X418050Y371200D02*
X422000D01*
G01D02*
X425950D01*
G01X459100Y547846D02*
Y551300D01*
G01D02*
Y554754D01*
G01X455646Y551300D02*
X459100D01*
G01D02*
X462554D01*
G01X449100Y564663D02*
Y571300D01*
G01D02*
Y577937D01*
G01X442463Y571300D02*
X449100D01*
G01D02*
X455737D01*
G01X490150Y361800D02*
X494100D01*
G01X489100Y564663D02*
Y571300D01*
G01D02*
Y577937D01*
G01X482463Y571300D02*
X489100D01*
G01D02*
X495737D01*
G01X494100Y357850D02*
Y361800D01*
G01D02*
Y365750D01*
G01Y361800D02*
X498050D01*
G01X508600Y357850D02*
Y361800D01*
G01D02*
Y365750D01*
G01X504650Y361800D02*
X508600D01*
G01D02*
X512550D01*
G01X508100Y434950D02*
Y438900D01*
G01D02*
Y442850D01*
G01X504150Y438900D02*
X508100D01*
G01D02*
X512050D01*
G01X637202Y429419D02*
Y432991D01*
G01X628049Y436619D02*
Y441258D01*
G01D02*
Y445897D01*
G01X623410Y441258D02*
X628049D01*
G01D02*
X632688D01*
G01X637202Y432991D02*
Y436563D01*
G01X633630Y432991D02*
X637202D01*
G01D02*
X640774D01*
G01X628049Y447529D02*
Y451101D01*
G01D02*
Y454673D01*
G01X624477Y451101D02*
X628049D01*
G01D02*
X631621D01*
G01X628049Y467214D02*
Y470786D01*
G01D02*
Y474358D01*
G01X624477Y470786D02*
X628049D01*
G01D02*
X631621D01*
G01X628049Y475989D02*
Y480628D01*
G01D02*
Y485267D01*
G01X623410Y480628D02*
X628049D01*
G01D02*
X632688D01*
G01X628049Y485718D02*
Y489290D01*
G01D02*
Y492862D01*
G01X624477Y489290D02*
X628049D01*
G01D02*
X631621D01*
G01X628049Y515359D02*
Y519998D01*
G01D02*
Y524637D01*
G01X623410Y519998D02*
X628049D01*
G01D02*
X632688D01*
G01X640549Y495674D02*
Y500313D01*
G01D02*
Y504952D01*
G01X635910Y500313D02*
X640549D01*
G01D02*
X645188D01*
G01X628049Y554730D02*
Y559369D01*
G01D02*
Y564008D01*
G01X623410Y559369D02*
X628049D01*
G01D02*
X632688D01*
G01X656100Y429419D02*
Y432991D01*
G01X671426D02*
X674998D01*
G01X656100D02*
Y436563D01*
G01X652528Y432991D02*
X656100D01*
G01D02*
X659672D01*
G01X661809Y495674D02*
Y500313D01*
G01D02*
Y504952D01*
G01X657170Y500313D02*
X661809D01*
G01D02*
X666448D01*
G01X650391Y574415D02*
Y579054D01*
G01D02*
Y583693D01*
G01X645752Y579054D02*
X650391D01*
G01D02*
X655030D01*
G01X699100Y356950D02*
Y360900D01*
G01D02*
Y364850D01*
G01X695150Y360900D02*
X699100D01*
G01D02*
X703050D01*
G01X674998Y429419D02*
Y432991D01*
G01X684151Y457568D02*
Y460943D01*
G01D02*
Y464318D01*
G01X680776Y460943D02*
X684151D01*
G01D02*
X687526D01*
G01X684151Y447529D02*
Y451101D01*
G01D02*
Y454673D01*
G01X680579Y451101D02*
X684151D01*
G01D02*
X687723D01*
G01X674998Y432991D02*
Y436563D01*
G01Y432991D02*
X678570D01*
G01X684151Y467214D02*
Y470786D01*
G01D02*
Y474358D01*
G01X680579Y470786D02*
X684151D01*
G01D02*
X687723D01*
G01X684151Y485718D02*
Y489290D01*
G01D02*
Y492862D01*
G01X680579Y489290D02*
X684151D01*
G01D02*
X687723D01*
G01X684151Y495674D02*
Y500313D01*
G01D02*
Y504952D01*
G01X679512Y500313D02*
X684151D01*
G01D02*
X688790D01*
G01X684151Y535044D02*
Y539683D01*
G01D02*
Y544322D01*
G01X679512Y539683D02*
X684151D01*
G01D02*
X688790D01*
G01X684151Y574415D02*
Y579054D01*
G01D02*
Y583693D01*
G01X679512Y579054D02*
X684151D01*
G01D02*
X688790D01*
G01X724302Y429419D02*
Y432991D01*
G01X715149Y436619D02*
Y441258D01*
G01D02*
Y445897D01*
G01X710510Y441258D02*
X715149D01*
G01D02*
X719788D01*
G01X724302Y432991D02*
Y436563D01*
G01X720730Y432991D02*
X724302D01*
G01D02*
X727874D01*
G01X715149Y447529D02*
Y451101D01*
G01D02*
Y454673D01*
G01X711577Y451101D02*
X715149D01*
G01D02*
X718721D01*
G01X715149Y485718D02*
Y489290D01*
G01D02*
Y492862D01*
G01X711577Y489290D02*
X715149D01*
G01D02*
X718721D01*
G01X715149Y475989D02*
Y480628D01*
G01D02*
Y485267D01*
G01X710510Y480628D02*
X715149D01*
G01D02*
X719788D01*
G01X715149Y467214D02*
Y470786D01*
G01D02*
Y474358D01*
G01X711577Y470786D02*
X715149D01*
G01D02*
X718721D01*
G01X727649Y495674D02*
Y500313D01*
G01D02*
Y504952D01*
G01X723010Y500313D02*
X727649D01*
G01D02*
X732288D01*
G01X715149Y515359D02*
Y519998D01*
G01D02*
Y524637D01*
G01X710510Y519998D02*
X715149D01*
G01D02*
X719788D01*
G01X715149Y554730D02*
Y559369D01*
G01D02*
Y564008D01*
G01X710510Y559369D02*
X715149D01*
G01D02*
X719788D01*
G01X743200Y429419D02*
Y432991D01*
G01X758526D02*
X762098D01*
G01X743200D02*
Y436563D01*
G01X739628Y432991D02*
X743200D01*
G01D02*
X746772D01*
G01X748909Y495674D02*
Y500313D01*
G01D02*
Y504952D01*
G01X744270Y500313D02*
X748909D01*
G01D02*
X753548D01*
G01X737491Y574415D02*
Y579054D01*
G01D02*
Y583693D01*
G01X732852Y579054D02*
X737491D01*
G01D02*
X742130D01*
G01X786600Y356950D02*
Y360900D01*
G01D02*
Y364850D01*
G01X782650Y360900D02*
X786600D01*
G01D02*
X790550D01*
G01X762098Y429419D02*
Y432991D01*
G01D02*
Y436563D01*
G01Y432991D02*
X765670D01*
G01X771251Y457568D02*
Y460943D01*
G01D02*
Y464318D01*
G01X767876Y460943D02*
X771251D01*
G01D02*
X774626D01*
G01X771251Y447529D02*
Y451101D01*
G01D02*
Y454673D01*
G01X767679Y451101D02*
X771251D01*
G01D02*
X774823D01*
G01X771251Y467214D02*
Y470786D01*
G01D02*
Y474358D01*
G01X767679Y470786D02*
X771251D01*
G01D02*
X774823D01*
G01X771251Y485718D02*
Y489290D01*
G01D02*
Y492862D01*
G01X767679Y489290D02*
X771251D01*
G01D02*
X774823D01*
G01X771251Y495674D02*
Y500313D01*
G01D02*
Y504952D01*
G01X766612Y500313D02*
X771251D01*
G01D02*
X775890D01*
G01X771251Y535044D02*
Y539683D01*
G01D02*
Y544322D01*
G01X766612Y539683D02*
X771251D01*
G01D02*
X775890D01*
G01X771251Y574415D02*
Y579054D01*
G01D02*
Y583693D01*
G01X766612Y579054D02*
X771251D01*
G01D02*
X775890D01*
G01X812102Y429419D02*
Y432991D01*
G01D02*
Y436563D01*
G01X808530Y432991D02*
X812102D01*
G01D02*
X815674D01*
G01X802949Y447529D02*
Y451101D01*
G01D02*
Y454673D01*
G01X799377Y451101D02*
X802949D01*
G01D02*
X806521D01*
G01X802949Y436619D02*
Y441258D01*
G01D02*
Y445897D01*
G01X798310Y441258D02*
X802949D01*
G01D02*
X807588D01*
G01X802949Y485718D02*
Y489290D01*
G01D02*
Y492862D01*
G01X799377Y489290D02*
X802949D01*
G01D02*
X806521D01*
G01X802949Y475989D02*
Y480628D01*
G01D02*
Y485267D01*
G01X798310Y480628D02*
X802949D01*
G01D02*
X807588D01*
G01X802949Y467214D02*
Y470786D01*
G01D02*
Y474358D01*
G01X799377Y470786D02*
X802949D01*
G01D02*
X806521D01*
G01X802949Y515359D02*
Y519998D01*
G01D02*
Y524637D01*
G01X798310Y519998D02*
X802949D01*
G01D02*
X807588D01*
G01X815449Y495674D02*
Y500313D01*
G01D02*
Y504952D01*
G01X810810Y500313D02*
X815449D01*
G01D02*
X820088D01*
G01X802949Y554730D02*
Y559369D01*
G01D02*
Y564008D01*
G01X798310Y559369D02*
X802949D01*
G01D02*
X807588D01*
G01X820652Y579054D02*
X825291D01*
G01X849898Y429419D02*
Y432991D01*
G01X831000Y429419D02*
Y432991D01*
G01X849898D02*
Y436563D01*
G01X846326Y432991D02*
X849898D01*
G01D02*
X853470D01*
G01X831000D02*
Y436563D01*
G01X827428Y432991D02*
X831000D01*
G01D02*
X834572D01*
G01X836709Y495674D02*
Y500313D01*
G01D02*
Y504952D01*
G01X832070Y500313D02*
X836709D01*
G01D02*
X841348D01*
G01X825291Y574415D02*
Y579054D01*
G01D02*
Y583693D01*
G01Y579054D02*
X829930D01*
G01X881300Y356950D02*
Y360900D01*
G01D02*
Y364850D01*
G01X877350Y360900D02*
X881300D01*
G01D02*
X885250D01*
G01X859051Y457568D02*
Y460943D01*
G01D02*
Y464318D01*
G01X855676Y460943D02*
X859051D01*
G01D02*
X862426D01*
G01X859051Y447529D02*
Y451101D01*
G01D02*
Y454673D01*
G01X855479Y451101D02*
X859051D01*
G01D02*
X862623D01*
G01X859051Y467214D02*
Y470786D01*
G01D02*
Y474358D01*
G01X855479Y470786D02*
X859051D01*
G01D02*
X862623D01*
G01X859051Y485718D02*
Y489290D01*
G01D02*
Y492862D01*
G01X855479Y489290D02*
X859051D01*
G01D02*
X862623D01*
G01X859051Y495674D02*
Y500313D01*
G01D02*
Y504952D01*
G01X854412Y500313D02*
X859051D01*
G01D02*
X863690D01*
G01X859051Y535044D02*
Y539683D01*
G01D02*
Y544322D01*
G01X854412Y539683D02*
X859051D01*
G01D02*
X863690D01*
G01X859051Y574415D02*
Y579054D01*
G01D02*
Y583693D01*
G01X854412Y579054D02*
X859051D01*
G01D02*
X863690D01*
G01X908000Y46250D02*
Y50200D01*
G01D02*
Y54150D01*
G01X904050Y50200D02*
X908000D01*
G01D02*
X911950D01*
G01X927102Y429419D02*
Y432991D01*
G01X917949Y447529D02*
Y451101D01*
G01D02*
Y454673D01*
G01X914377Y451101D02*
X917949D01*
G01D02*
X921521D01*
G01X917949Y436619D02*
Y441258D01*
G01D02*
Y445897D01*
G01X913310Y441258D02*
X917949D01*
G01D02*
X922588D01*
G01X927102Y432991D02*
Y436563D01*
G01X923530Y432991D02*
X927102D01*
G01D02*
X930674D01*
G01X917949Y485718D02*
Y489290D01*
G01D02*
Y492862D01*
G01X914377Y489290D02*
X917949D01*
G01D02*
X921521D01*
G01X917949Y475989D02*
Y480628D01*
G01D02*
Y485267D01*
G01X913310Y480628D02*
X917949D01*
G01D02*
X922588D01*
G01X917949Y467214D02*
Y470786D01*
G01D02*
Y474358D01*
G01X914377Y470786D02*
X917949D01*
G01D02*
X921521D01*
G01X930449Y495674D02*
Y500313D01*
G01D02*
Y504952D01*
G01X925810Y500313D02*
X930449D01*
G01D02*
X935088D01*
G01X917949Y515359D02*
Y519998D01*
G01D02*
Y524637D01*
G01X913310Y519998D02*
X917949D01*
G01D02*
X922588D01*
G01X917949Y554730D02*
Y559369D01*
G01D02*
Y564008D01*
G01X913310Y559369D02*
X917949D01*
G01D02*
X922588D01*
G01X940291Y574415D02*
Y579054D01*
G01D02*
Y583693D01*
G01X935652Y579054D02*
X940291D01*
G01D02*
X944930D01*
G01X956475Y50140D02*
Y55803D01*
G01D02*
Y61466D01*
G01X950812Y55803D02*
X956475D01*
G01D02*
X962138D01*
G01X946000Y429419D02*
Y432991D01*
G01X964898Y429419D02*
Y432991D01*
G01X970676Y460943D02*
X974051D01*
G01X970479Y451101D02*
X974051D01*
G01X946000Y432991D02*
Y436563D01*
G01X942428Y432991D02*
X946000D01*
G01D02*
X949572D01*
G01X964898D02*
Y436563D01*
G01X961326Y432991D02*
X964898D01*
G01D02*
X968470D01*
G01X970479Y470786D02*
X974051D01*
G01X970479Y489290D02*
X974051D01*
G01X951709Y495674D02*
Y500313D01*
G01D02*
Y504952D01*
G01X947070Y500313D02*
X951709D01*
G01D02*
X956348D01*
G01X969412D02*
X974051D01*
G01X969412Y539683D02*
X974051D01*
G01X969412Y579054D02*
X974051D01*
G01X989000Y356950D02*
Y360900D01*
G01D02*
Y364850D01*
G01X985050Y360900D02*
X989000D01*
G01D02*
X992950D01*
G01X1001110Y441258D02*
X1005749D01*
G01X974051Y457568D02*
Y460943D01*
G01D02*
Y464318D01*
G01Y460943D02*
X977426D01*
G01X974051Y447529D02*
Y451101D01*
G01D02*
Y454673D01*
G01Y451101D02*
X977623D01*
G01X1001110Y480628D02*
X1005749D01*
G01X974051Y467214D02*
Y470786D01*
G01D02*
Y474358D01*
G01Y470786D02*
X977623D01*
G01X974051Y485718D02*
Y489290D01*
G01D02*
Y492862D01*
G01Y489290D02*
X977623D01*
G01X1001110Y519998D02*
X1005749D01*
G01X974051Y495674D02*
Y500313D01*
G01D02*
Y504952D01*
G01Y500313D02*
X978690D01*
G01X974051Y535044D02*
Y539683D01*
G01D02*
Y544322D01*
G01Y539683D02*
X978690D01*
G01X1001110Y559369D02*
X1005749D01*
G01X974051Y574415D02*
Y579054D01*
G01D02*
Y583693D01*
G01Y579054D02*
X978690D01*
G01X1009900Y65164D02*
Y68795D01*
G01D02*
Y72426D01*
G01X1006269Y68795D02*
X1009900D01*
G01D02*
X1013531D01*
G01X1018325Y50140D02*
Y55803D01*
G01D02*
Y61466D01*
G01X1012662Y55803D02*
X1018325D01*
G01D02*
X1023988D01*
G01X1014902Y429419D02*
Y432991D01*
G01X1005749Y447529D02*
Y451101D01*
G01D02*
Y454673D01*
G01X1002177Y451101D02*
X1005749D01*
G01D02*
X1009321D01*
G01X1014902Y432991D02*
Y436563D01*
G01X1011330Y432991D02*
X1014902D01*
G01D02*
X1018474D01*
G01X1030228D02*
X1033800D01*
G01X1005749Y436619D02*
Y441258D01*
G01D02*
Y445897D01*
G01Y441258D02*
X1010388D01*
G01X1005749Y485718D02*
Y489290D01*
G01D02*
Y492862D01*
G01X1002177Y489290D02*
X1005749D01*
G01D02*
X1009321D01*
G01X1005749Y475989D02*
Y480628D01*
G01D02*
Y485267D01*
G01Y480628D02*
X1010388D01*
G01X1005749Y467214D02*
Y470786D01*
G01D02*
Y474358D01*
G01X1002177Y470786D02*
X1005749D01*
G01D02*
X1009321D01*
G01X1005749Y515359D02*
Y519998D01*
G01D02*
Y524637D01*
G01Y519998D02*
X1010388D01*
G01X1018249Y495674D02*
Y500313D01*
G01D02*
Y504952D01*
G01X1013610Y500313D02*
X1018249D01*
G01D02*
X1022888D01*
G01X1005749Y554730D02*
Y559369D01*
G01D02*
Y564008D01*
G01Y559369D02*
X1010388D01*
G01X1028091Y574415D02*
Y579054D01*
G01D02*
Y583693D01*
G01X1023452Y579054D02*
X1028091D01*
G01D02*
X1032730D01*
G01X1033800Y429419D02*
Y432991D01*
G01X1052698Y429419D02*
Y432991D01*
G01X1033800D02*
Y436563D01*
G01Y432991D02*
X1037372D01*
G01X1058279Y451101D02*
X1061851D01*
G01X1058476Y460943D02*
X1061851D01*
G01X1052698Y432991D02*
Y436563D01*
G01X1049126Y432991D02*
X1052698D01*
G01D02*
X1056270D01*
G01X1058279Y489290D02*
X1061851D01*
G01X1058279Y470786D02*
X1061851D01*
G01X1039509Y495674D02*
Y500313D01*
G01D02*
Y504952D01*
G01X1034870Y500313D02*
X1039509D01*
G01D02*
X1044148D01*
G01X1057212D02*
X1061851D01*
G01X1057212Y539683D02*
X1061851D01*
G01X1057212Y579054D02*
X1061851D01*
G01X1091698Y26100D02*
X1095400D01*
G01X1069400Y25850D02*
Y29800D01*
G01D02*
Y33750D01*
G01X1065450Y29800D02*
X1069400D01*
G01D02*
X1073350D01*
G01X1077100Y356950D02*
Y360900D01*
G01D02*
Y364850D01*
G01X1073150Y360900D02*
X1077100D01*
G01D02*
X1081050D01*
G01X1061851Y447529D02*
Y451101D01*
G01D02*
Y454673D01*
G01Y451101D02*
X1065423D01*
G01X1061851Y457568D02*
Y460943D01*
G01D02*
Y464318D01*
G01Y460943D02*
X1065226D01*
G01X1089077Y451101D02*
X1092649D01*
G01X1088010Y441258D02*
X1092649D01*
G01X1061851Y485718D02*
Y489290D01*
G01D02*
Y492862D01*
G01Y489290D02*
X1065423D01*
G01X1061851Y467214D02*
Y470786D01*
G01D02*
Y474358D01*
G01Y470786D02*
X1065423D01*
G01X1088010Y480628D02*
X1092649D01*
G01X1089077Y470786D02*
X1092649D01*
G01X1089077Y489290D02*
X1092649D01*
G01X1061851Y495674D02*
Y500313D01*
G01D02*
Y504952D01*
G01Y500313D02*
X1066490D01*
G01X1088010Y519998D02*
X1092649D01*
G01X1061851Y535044D02*
Y539683D01*
G01D02*
Y544322D01*
G01Y539683D02*
X1066490D01*
G01X1061851Y574415D02*
Y579054D01*
G01D02*
Y583693D01*
G01Y579054D02*
X1066490D01*
G01X1088010Y559369D02*
X1092649D01*
G01X1115400Y22398D02*
Y26100D01*
G01D02*
Y29802D01*
G01X1111698Y26100D02*
X1115400D01*
G01D02*
X1119102D01*
G01X1105400Y22398D02*
Y26100D01*
G01D02*
Y29802D01*
G01X1101698Y26100D02*
X1105400D01*
G01D02*
X1109102D01*
G01X1095400Y22398D02*
Y26100D01*
G01D02*
Y29802D01*
G01Y26100D02*
X1099102D01*
G01X1121698D02*
X1125400D01*
G01X1120500Y132750D02*
Y136700D01*
G01D02*
Y140650D01*
G01X1116550Y136700D02*
X1120500D01*
G01D02*
X1124450D01*
G01X1101802Y429419D02*
Y432991D01*
G01X1120700Y429419D02*
Y432991D01*
G01X1101802D02*
Y436563D01*
G01X1098230Y432991D02*
X1101802D01*
G01D02*
X1105374D01*
G01X1092649Y447529D02*
Y451101D01*
G01D02*
Y454673D01*
G01Y451101D02*
X1096221D01*
G01X1092649Y436619D02*
Y441258D01*
G01D02*
Y445897D01*
G01Y441258D02*
X1097288D01*
G01X1120700Y432991D02*
Y436563D01*
G01X1117128Y432991D02*
X1120700D01*
G01D02*
X1124272D01*
G01X1092649Y475989D02*
Y480628D01*
G01D02*
Y485267D01*
G01Y480628D02*
X1097288D01*
G01X1092649Y467214D02*
Y470786D01*
G01D02*
Y474358D01*
G01Y470786D02*
X1096221D01*
G01X1092649Y485718D02*
Y489290D01*
G01D02*
Y492862D01*
G01Y489290D02*
X1096221D01*
G01X1092649Y515359D02*
Y519998D01*
G01D02*
Y524637D01*
G01Y519998D02*
X1097288D01*
G01X1121770Y500313D02*
X1126409D01*
G01X1105149Y495674D02*
Y500313D01*
G01D02*
Y504952D01*
G01X1100510Y500313D02*
X1105149D01*
G01D02*
X1109788D01*
G01X1092649Y554730D02*
Y559369D01*
G01D02*
Y564008D01*
G01Y559369D02*
X1097288D01*
G01X1114991Y574415D02*
Y579054D01*
G01D02*
Y583693D01*
G01X1110352Y579054D02*
X1114991D01*
G01D02*
X1119630D01*
G01X1145400Y22398D02*
Y26100D01*
G01D02*
Y29802D01*
G01X1141698Y26100D02*
X1145400D01*
G01D02*
X1149102D01*
G01X1135400Y22398D02*
Y26100D01*
G01D02*
Y29802D01*
G01X1131698Y26100D02*
X1135400D01*
G01D02*
X1139102D01*
G01X1125400Y22398D02*
Y26100D01*
G01D02*
Y29802D01*
G01Y26100D02*
X1129102D01*
G01X1148400Y151250D02*
Y155200D01*
G01D02*
Y159150D01*
G01X1144450Y155200D02*
X1148400D01*
G01D02*
X1152350D01*
G01X1139598Y429419D02*
Y432991D01*
G01X1148751Y447529D02*
Y451101D01*
G01D02*
Y454673D01*
G01X1145179Y451101D02*
X1148751D01*
G01D02*
X1152323D01*
G01X1148751Y457568D02*
Y460943D01*
G01D02*
Y464318D01*
G01X1145376Y460943D02*
X1148751D01*
G01D02*
X1152126D01*
G01X1139598Y432991D02*
Y436563D01*
G01X1136026Y432991D02*
X1139598D01*
G01D02*
X1143170D01*
G01X1148751Y467214D02*
Y470786D01*
G01D02*
Y474358D01*
G01X1145179Y470786D02*
X1148751D01*
G01D02*
X1152323D01*
G01X1148751Y485718D02*
Y489290D01*
G01D02*
Y492862D01*
G01X1145179Y489290D02*
X1148751D01*
G01D02*
X1152323D01*
G01X1148751Y495674D02*
Y500313D01*
G01D02*
Y504952D01*
G01X1144112Y500313D02*
X1148751D01*
G01D02*
X1153390D01*
G01X1126409Y495674D02*
Y500313D01*
G01D02*
Y504952D01*
G01Y500313D02*
X1131048D01*
G01X1148751Y535044D02*
Y539683D01*
G01D02*
Y544322D01*
G01X1144112Y539683D02*
X1148751D01*
G01D02*
X1153390D01*
G01X1148751Y574415D02*
Y579054D01*
G01D02*
Y583693D01*
G01X1144112Y579054D02*
X1148751D01*
G01D02*
X1153390D01*
G01X1179150Y42200D02*
X1183100D01*
G01X1171200Y356950D02*
Y360900D01*
G01D02*
Y364850D01*
G01X1167250Y360900D02*
X1171200D01*
G01D02*
X1175150D01*
G01X1183100Y38250D02*
Y42200D01*
G01D02*
Y46150D01*
G01Y42200D02*
X1187050D01*
G54D17*
X120800Y571300D03*
X160800D03*
X237200D03*
X277200D03*
X332700D03*
X372700D03*
X449100D03*
X489100D03*
G54D26*
X628049Y441258D03*
Y480628D03*
Y519998D03*
X640549Y500313D03*
X628049Y559369D03*
X661809Y500313D03*
X650391Y579054D03*
X684151Y500313D03*
Y539683D03*
Y579054D03*
X715149Y441258D03*
Y480628D03*
Y519998D03*
X727649Y500313D03*
X715149Y559369D03*
X748909Y500313D03*
X737491Y579054D03*
X771251Y500313D03*
Y539683D03*
Y579054D03*
X802949Y441258D03*
Y480628D03*
Y519998D03*
X815449Y500313D03*
X802949Y559369D03*
X825291Y579054D03*
X836709Y500313D03*
X859051D03*
Y539683D03*
Y579054D03*
X917949Y441258D03*
Y480628D03*
Y519998D03*
X930449Y500313D03*
X917949Y559369D03*
X940291Y579054D03*
X951709Y500313D03*
X974051D03*
Y539683D03*
Y579054D03*
X1005749Y441258D03*
Y480628D03*
Y519998D03*
X1018249Y500313D03*
X1005749Y559369D03*
X1028091Y579054D03*
X1039509Y500313D03*
X1061851D03*
Y539683D03*
Y579054D03*
X1092649Y441258D03*
Y480628D03*
Y519998D03*
Y559369D03*
X1105149Y500313D03*
X1114991Y579054D03*
X1126409Y500313D03*
X1148751D03*
Y539683D03*
Y579054D03*
G54D18*
X152084Y38800D03*
G54D27*
X637202Y457400D03*
X674998D03*
X724302D03*
X762098D03*
X812102D03*
X849898D03*
X927102D03*
X964898D03*
X1014902D03*
X1052698D03*
X1101802D03*
X1139598D03*
G54D19*
X140800Y551300D03*
X257200D03*
X352700D03*
X469100D03*
G54D28*
X684151Y460943D03*
X771251D03*
X859051D03*
X974051D03*
X1061851D03*
X1148751D03*
G54D29*
X971278Y27811D03*
X961239D03*
X1003522D03*
X1013561D03*
M02*
